<?xml version="1.0" encoding="UTF-8" standalone="no"?>
<!DOCTYPE svg PUBLIC "-//W3C//DTD SVG 1.1//EN" "http://www.w3.org/Graphics/SVG/1.1/DTD/svg11.dtd">
<svg xmlns="http://www.w3.org/2000/svg" xmlns:xlink="http://www.w3.org/1999/xlink" xml:space="preserve" font-family="monospace" font-size="24" fill="rgb(255,255,255)" stroke="rgb(0,0,0)" viewBox="0 0 790 905">
<g transform="scale(0.553221)">
<path style="fill:none;stroke-width:3" stroke="rgb(0,0,0)" d="M603,928 Q624,946 645,964"/>
<path style="fill:none;stroke-width:3" stroke="rgb(0,0,0)" d="M623,904 Q644,922 665,940"/>
<path style="fill:none;stroke-width:3" stroke="rgb(0,0,0)" d="M685,834 Q705,852.5 725,871"/>
<path style="fill:none;stroke-width:3" stroke="rgb(0,0,0)" d="M706,811 Q726,829.5 746,848"/>
<path style="fill:none;stroke-width:3" stroke="rgb(0,0,0)" d="M727,788 Q747,806.5 767,825"/>
<path style="fill:none;stroke-width:3" stroke="rgb(0,0,0)" d="M748,765 Q768,783.5 788,802"/>
<path style="fill:none;stroke-width:3" stroke="rgb(0,0,0)" d="M769,742 Q789,760.5 809,779"/>
<path style="fill:none;stroke-width:3" stroke="rgb(0,0,0)" d="M790,719 Q810,737.5 830,756"/>
<path style="fill:none;stroke-width:3" stroke="rgb(0,0,0)" d="M811,696 Q831,714.5 851,733"/>
<path style="fill:none;stroke-width:3" stroke="rgb(0,0,0)" d="M1069,417 Q1089,435.5 1109,454"/>
<path style="fill:none;stroke-width:3" stroke="rgb(0,0,0)" d="M1090,394 Q1110,412.5 1130,431"/>
<path style="fill:none;stroke-width:3" stroke="rgb(0,0,0)" d="M1111,371 Q1131,389.5 1151,408"/>
<path style="fill:none;stroke-width:3" stroke="rgb(0,0,0)" d="M1132,348 Q1152,366.5 1172,385"/>
<path style="fill:none;stroke-width:3" stroke="rgb(0,0,0)" d="M1218,258 Q1237.5,277.5 1257,297"/>
<path style="fill:none;stroke-width:3" stroke="rgb(0,0,0)" d="M1240,236 Q1259.5,255.5 1279,275"/>
<path style="fill:none;stroke-width:3" stroke="rgb(0,0,0)" d="M1262,214 Q1281.5,233.5 1301,253"/>
<line style="fill:none;stroke-width:1" stroke="rgb(0,0,0)" x1="330" y1="1388" x2="285" y2="1366"/> <circle style="stroke-width:1" cx="330" cy="1388" r="12" fill="rgb(255,255,255)" stroke="rgb(0,0,0)"/> <text x="322" y="1396" fill="rgb(0,0,0)" stroke="rgb(0,0,0)">G</text>
<line style="fill:none;stroke-width:1" stroke="rgb(0,0,0)" x1="285" y1="1366" x2="246" y2="1337"/> <circle style="stroke-width:1" cx="285" cy="1366" r="12" fill="rgb(255,255,255)" stroke="rgb(0,0,0)"/> <text x="277" y="1374" fill="rgb(0,0,0)" stroke="rgb(0,0,0)">U</text>
<line style="fill:none;stroke-width:1" stroke="rgb(0,0,0)" x1="246" y1="1337" x2="212" y2="1300"/> <circle style="stroke-width:1" cx="246" cy="1337" r="12" fill="rgb(255,255,255)" stroke="rgb(0,0,0)"/> <text x="238" y="1345" fill="rgb(0,0,0)" stroke="rgb(0,0,0)">C</text>
<line style="fill:none;stroke-width:1" stroke="rgb(0,0,0)" x1="212" y1="1300" x2="185" y2="1258"/> <circle style="stroke-width:1" cx="212" cy="1300" r="12" fill="rgb(255,255,255)" stroke="rgb(0,0,0)"/> <text x="204" y="1308" fill="rgb(0,0,0)" stroke="rgb(0,0,0)">A</text>
<line style="fill:none;stroke-width:1" stroke="rgb(0,0,0)" x1="185" y1="1258" x2="167" y2="1212"/> <circle style="stroke-width:1" cx="185" cy="1258" r="12" fill="rgb(255,255,255)" stroke="rgb(0,0,0)"/> <text x="177" y="1266" fill="rgb(0,0,0)" stroke="rgb(0,0,0)">A</text>
<line style="fill:none;stroke-width:1" stroke="rgb(0,0,0)" x1="167" y1="1212" x2="157" y2="1163"/> <circle style="stroke-width:1" cx="167" cy="1212" r="12" fill="rgb(255,255,255)" stroke="rgb(0,0,0)"/> <text x="159" y="1220" fill="rgb(0,0,0)" stroke="rgb(0,0,0)">C</text>
<line style="fill:none;stroke-width:1" stroke="rgb(0,0,0)" x1="157" y1="1163" x2="157" y2="1114"/> <circle style="stroke-width:1" cx="157" cy="1163" r="12" fill="rgb(255,255,255)" stroke="rgb(0,0,0)"/> <text x="149" y="1171" fill="rgb(0,0,0)" stroke="rgb(0,0,0)">U</text>
<line style="fill:none;stroke-width:1" stroke="rgb(0,0,0)" x1="157" y1="1114" x2="165" y2="1065"/> <circle style="stroke-width:1" cx="157" cy="1114" r="12" fill="rgb(255,255,255)" stroke="rgb(0,0,0)"/> <text x="149" y="1122" fill="rgb(0,0,0)" stroke="rgb(0,0,0)">A</text>
<line style="fill:none;stroke-width:1" stroke="rgb(0,0,0)" x1="165" y1="1065" x2="182" y2="1018"/> <circle style="stroke-width:1" cx="165" cy="1065" r="12" fill="rgb(255,255,255)" stroke="rgb(0,0,0)"/> <text x="157" y="1073" fill="rgb(0,0,0)" stroke="rgb(0,0,0)">U</text>
<line style="fill:none;stroke-width:1" stroke="rgb(0,0,0)" x1="182" y1="1018" x2="208" y2="975"/> <line style="fill:none;stroke-width:1" stroke="rgb(0,0,0)" x1="182" y1="1018" x2="81" y2="970"/> <rect x="66" y="958" width="30" height="24" fill="rgb(255,255,255)" stroke="rgb(255,255,255)"/> <text x="66" y="978" fill="rgb(0,0,0)" stroke="rgb(0,0,0)">10</text> <circle style="stroke-width:1" cx="182" cy="1018" r="12" fill="rgb(255,255,255)" stroke="rgb(0,0,0)"/> <text x="174" y="1026" fill="rgb(0,0,0)" stroke="rgb(0,0,0)">C</text>
<line style="fill:none;stroke-width:1" stroke="rgb(0,0,0)" x1="208" y1="975" x2="240" y2="938"/> <circle style="stroke-width:1" cx="208" cy="975" r="12" fill="rgb(255,255,255)" stroke="rgb(0,0,0)"/> <text x="200" y="983" fill="rgb(0,0,0)" stroke="rgb(0,0,0)">A</text>
<line style="fill:none;stroke-width:1" stroke="rgb(0,0,0)" x1="240" y1="938" x2="279" y2="907"/> <circle style="stroke-width:1" cx="240" cy="938" r="12" fill="rgb(255,255,255)" stroke="rgb(0,0,0)"/> <text x="232" y="946" fill="rgb(0,0,0)" stroke="rgb(0,0,0)">C</text>
<line style="fill:none;stroke-width:1" stroke="rgb(0,0,0)" x1="279" y1="907" x2="323" y2="884"/> <circle style="stroke-width:1" cx="279" cy="907" r="12" fill="rgb(255,255,255)" stroke="rgb(0,0,0)"/> <text x="271" y="915" fill="rgb(0,0,0)" stroke="rgb(0,0,0)">U</text>
<line style="fill:none;stroke-width:1" stroke="rgb(0,0,0)" x1="323" y1="884" x2="371" y2="869"/> <circle style="stroke-width:1" cx="323" cy="884" r="12" fill="rgb(255,255,255)" stroke="rgb(0,0,0)"/> <text x="315" y="892" fill="rgb(0,0,0)" stroke="rgb(0,0,0)">U</text>
<line style="fill:none;stroke-width:1" stroke="rgb(0,0,0)" x1="371" y1="869" x2="419" y2="864"/> <circle style="stroke-width:1" cx="371" cy="869" r="12" fill="rgb(255,255,255)" stroke="rgb(0,0,0)"/> <text x="363" y="877" fill="rgb(0,0,0)" stroke="rgb(0,0,0)">C</text>
<line style="fill:none;stroke-width:1" stroke="rgb(0,0,0)" x1="419" y1="864" x2="469" y2="867"/> <circle style="stroke-width:1" cx="419" cy="864" r="12" fill="rgb(255,255,255)" stroke="rgb(0,0,0)"/> <text x="411" y="872" fill="rgb(0,0,0)" stroke="rgb(0,0,0)">A</text>
<line style="fill:none;stroke-width:1" stroke="rgb(0,0,0)" x1="469" y1="867" x2="517" y2="879"/> <circle style="stroke-width:1" cx="469" cy="867" r="12" fill="rgb(255,255,255)" stroke="rgb(0,0,0)"/> <text x="461" y="875" fill="rgb(0,0,0)" stroke="rgb(0,0,0)">C</text>
<line style="fill:none;stroke-width:1" stroke="rgb(0,0,0)" x1="517" y1="879" x2="562" y2="900"/> <circle style="stroke-width:1" cx="517" cy="879" r="12" fill="rgb(255,255,255)" stroke="rgb(0,0,0)"/> <text x="509" y="887" fill="rgb(0,0,0)" stroke="rgb(0,0,0)">U</text>
<line style="fill:none;stroke-width:1" stroke="rgb(0,0,0)" x1="562" y1="900" x2="603" y2="928"/> <circle style="stroke-width:1" cx="562" cy="900" r="12" fill="rgb(255,255,255)" stroke="rgb(0,0,0)"/> <text x="554" y="908" fill="rgb(0,0,0)" stroke="rgb(0,0,0)">C</text>
<line style="fill:none;stroke-width:1" stroke="rgb(0,0,0)" x1="603" y1="928" x2="623" y2="904"/> <circle style="stroke-width:1" cx="603" cy="928" r="12" fill="rgb(255,255,255)" stroke="rgb(0,0,0)"/> <text x="595" y="936" fill="rgb(0,0,0)" stroke="rgb(0,0,0)">G</text>
<line style="fill:none;stroke-width:1" stroke="rgb(0,0,0)" x1="623" y1="904" x2="639" y2="856"/> <circle style="stroke-width:1" cx="623" cy="904" r="12" fill="rgb(255,255,255)" stroke="rgb(0,0,0)"/> <text x="615" y="912" fill="rgb(0,0,0)" stroke="rgb(0,0,0)">C</text>
<line style="fill:none;stroke-width:1" stroke="rgb(0,0,0)" x1="639" y1="856" x2="685" y2="834"/> <circle style="stroke-width:1" cx="639" cy="856" r="12" fill="rgb(255,255,255)" stroke="rgb(0,0,0)"/> <text x="631" y="864" fill="rgb(0,0,0)" stroke="rgb(0,0,0)">C</text>
<line style="fill:none;stroke-width:1" stroke="rgb(0,0,0)" x1="685" y1="834" x2="706" y2="811"/> <circle style="stroke-width:1" cx="685" cy="834" r="12" fill="rgb(255,255,255)" stroke="rgb(0,0,0)"/> <text x="677" y="842" fill="rgb(0,0,0)" stroke="rgb(0,0,0)">A</text>
<line style="fill:none;stroke-width:1" stroke="rgb(0,0,0)" x1="706" y1="811" x2="727" y2="788"/> <circle style="stroke-width:1" cx="706" cy="811" r="12" fill="rgb(255,255,255)" stroke="rgb(0,0,0)"/> <text x="698" y="819" fill="rgb(0,0,0)" stroke="rgb(0,0,0)">G</text>
<line style="fill:none;stroke-width:1" stroke="rgb(0,0,0)" x1="727" y1="788" x2="748" y2="765"/> <circle style="stroke-width:1" cx="727" cy="788" r="12" fill="rgb(255,255,255)" stroke="rgb(0,0,0)"/> <text x="719" y="796" fill="rgb(0,0,0)" stroke="rgb(0,0,0)">U</text>
<line style="fill:none;stroke-width:1" stroke="rgb(0,0,0)" x1="748" y1="765" x2="769" y2="742"/> <circle style="stroke-width:1" cx="748" cy="765" r="12" fill="rgb(255,255,255)" stroke="rgb(0,0,0)"/> <text x="740" y="773" fill="rgb(0,0,0)" stroke="rgb(0,0,0)">G</text>
<line style="fill:none;stroke-width:1" stroke="rgb(0,0,0)" x1="769" y1="742" x2="790" y2="719"/> <circle style="stroke-width:1" cx="769" cy="742" r="12" fill="rgb(255,255,255)" stroke="rgb(0,0,0)"/> <text x="761" y="750" fill="rgb(0,0,0)" stroke="rgb(0,0,0)">C</text>
<line style="fill:none;stroke-width:1" stroke="rgb(0,0,0)" x1="790" y1="719" x2="811" y2="696"/> <circle style="stroke-width:1" cx="790" cy="719" r="12" fill="rgb(255,255,255)" stroke="rgb(0,0,0)"/> <text x="782" y="727" fill="rgb(0,0,0)" stroke="rgb(0,0,0)">A</text>
<line style="fill:none;stroke-width:1" stroke="rgb(0,0,0)" x1="811" y1="696" x2="797" y2="673"/> <circle style="stroke-width:1" cx="811" cy="696" r="12" fill="rgb(255,255,255)" stroke="rgb(0,0,0)"/> <text x="803" y="704" fill="rgb(0,0,0)" stroke="rgb(0,0,0)">A</text>
<line style="fill:none;stroke-width:1" stroke="rgb(0,0,0)" x1="797" y1="673" x2="776" y2="623"/> <line style="fill:none;stroke-width:1" stroke="rgb(0,0,0)" x1="797" y1="673" x2="701" y2="730"/> <rect x="686" y="718" width="30" height="24" fill="rgb(255,255,255)" stroke="rgb(255,255,255)"/> <text x="686" y="738" fill="rgb(0,0,0)" stroke="rgb(0,0,0)">30</text> <circle style="stroke-width:1" cx="797" cy="673" r="12" fill="rgb(255,255,255)" stroke="rgb(0,0,0)"/> <text x="789" y="681" fill="rgb(0,0,0)" stroke="rgb(0,0,0)">C</text>
<line style="fill:none;stroke-width:1" stroke="rgb(0,0,0)" x1="776" y1="623" x2="770" y2="570"/> <circle style="stroke-width:1" cx="776" cy="623" r="12" fill="rgb(255,255,255)" stroke="rgb(0,0,0)"/> <text x="768" y="631" fill="rgb(0,0,0)" stroke="rgb(0,0,0)">U</text>
<line style="fill:none;stroke-width:1" stroke="rgb(0,0,0)" x1="770" y1="570" x2="779" y2="516"/> <circle style="stroke-width:1" cx="770" cy="570" r="12" fill="rgb(255,255,255)" stroke="rgb(0,0,0)"/> <text x="762" y="578" fill="rgb(0,0,0)" stroke="rgb(0,0,0)">A</text>
<line style="fill:none;stroke-width:1" stroke="rgb(0,0,0)" x1="779" y1="516" x2="803" y2="468"/> <circle style="stroke-width:1" cx="779" cy="516" r="12" fill="rgb(255,255,255)" stroke="rgb(0,0,0)"/> <text x="771" y="524" fill="rgb(0,0,0)" stroke="rgb(0,0,0)">C</text>
<line style="fill:none;stroke-width:1" stroke="rgb(0,0,0)" x1="803" y1="468" x2="840" y2="428"/> <circle style="stroke-width:1" cx="803" cy="468" r="12" fill="rgb(255,255,255)" stroke="rgb(0,0,0)"/> <text x="795" y="476" fill="rgb(0,0,0)" stroke="rgb(0,0,0)">A</text>
<line style="fill:none;stroke-width:1" stroke="rgb(0,0,0)" x1="840" y1="428" x2="887" y2="400"/> <circle style="stroke-width:1" cx="840" cy="428" r="12" fill="rgb(255,255,255)" stroke="rgb(0,0,0)"/> <text x="832" y="436" fill="rgb(0,0,0)" stroke="rgb(0,0,0)">A</text>
<line style="fill:none;stroke-width:1" stroke="rgb(0,0,0)" x1="887" y1="400" x2="939" y2="387"/> <circle style="stroke-width:1" cx="887" cy="400" r="12" fill="rgb(255,255,255)" stroke="rgb(0,0,0)"/> <text x="879" y="408" fill="rgb(0,0,0)" stroke="rgb(0,0,0)">A</text>
<line style="fill:none;stroke-width:1" stroke="rgb(0,0,0)" x1="939" y1="387" x2="993" y2="389"/> <circle style="stroke-width:1" cx="939" cy="387" r="12" fill="rgb(255,255,255)" stroke="rgb(0,0,0)"/> <text x="931" y="395" fill="rgb(0,0,0)" stroke="rgb(0,0,0)">U</text>
<line style="fill:none;stroke-width:1" stroke="rgb(0,0,0)" x1="993" y1="389" x2="1044" y2="405"/> <circle style="stroke-width:1" cx="993" cy="389" r="12" fill="rgb(255,255,255)" stroke="rgb(0,0,0)"/> <text x="985" y="397" fill="rgb(0,0,0)" stroke="rgb(0,0,0)">G</text>
<line style="fill:none;stroke-width:1" stroke="rgb(0,0,0)" x1="1044" y1="405" x2="1069" y2="417"/> <circle style="stroke-width:1" cx="1044" cy="405" r="12" fill="rgb(255,255,255)" stroke="rgb(0,0,0)"/> <text x="1036" y="413" fill="rgb(0,0,0)" stroke="rgb(0,0,0)">C</text>
<line style="fill:none;stroke-width:1" stroke="rgb(0,0,0)" x1="1069" y1="417" x2="1090" y2="394"/> <line style="fill:none;stroke-width:1" stroke="rgb(0,0,0)" x1="1069" y1="417" x2="987" y2="341"/> <rect x="972" y="329" width="30" height="24" fill="rgb(255,255,255)" stroke="rgb(255,255,255)"/> <text x="972" y="349" fill="rgb(0,0,0)" stroke="rgb(0,0,0)">40</text> <circle style="stroke-width:1" cx="1069" cy="417" r="12" fill="rgb(255,255,255)" stroke="rgb(0,0,0)"/> <text x="1061" y="425" fill="rgb(0,0,0)" stroke="rgb(0,0,0)">G</text>
<line style="fill:none;stroke-width:1" stroke="rgb(0,0,0)" x1="1090" y1="394" x2="1111" y2="371"/> <circle style="stroke-width:1" cx="1090" cy="394" r="12" fill="rgb(255,255,255)" stroke="rgb(0,0,0)"/> <text x="1082" y="402" fill="rgb(0,0,0)" stroke="rgb(0,0,0)">G</text>
<line style="fill:none;stroke-width:1" stroke="rgb(0,0,0)" x1="1111" y1="371" x2="1132" y2="348"/> <circle style="stroke-width:1" cx="1111" cy="371" r="12" fill="rgb(255,255,255)" stroke="rgb(0,0,0)"/> <text x="1103" y="379" fill="rgb(0,0,0)" stroke="rgb(0,0,0)">C</text>
<line style="fill:none;stroke-width:1" stroke="rgb(0,0,0)" x1="1132" y1="348" x2="1133" y2="307"/> <circle style="stroke-width:1" cx="1132" cy="348" r="12" fill="rgb(255,255,255)" stroke="rgb(0,0,0)"/> <text x="1124" y="356" fill="rgb(0,0,0)" stroke="rgb(0,0,0)">U</text>
<line style="fill:none;stroke-width:1" stroke="rgb(0,0,0)" x1="1133" y1="307" x2="1177" y2="261"/> <circle style="stroke-width:1" cx="1133" cy="307" r="12" fill="rgb(255,255,255)" stroke="rgb(0,0,0)"/> <text x="1125" y="315" fill="rgb(0,0,0)" stroke="rgb(0,0,0)">U</text>
<line style="fill:none;stroke-width:1" stroke="rgb(0,0,0)" x1="1177" y1="261" x2="1218" y2="258"/> <circle style="stroke-width:1" cx="1177" cy="261" r="12" fill="rgb(255,255,255)" stroke="rgb(0,0,0)"/> <text x="1169" y="269" fill="rgb(0,0,0)" stroke="rgb(0,0,0)">C</text>
<line style="fill:none;stroke-width:1" stroke="rgb(0,0,0)" x1="1218" y1="258" x2="1240" y2="236"/> <circle style="stroke-width:1" cx="1218" cy="258" r="12" fill="rgb(255,255,255)" stroke="rgb(0,0,0)"/> <text x="1210" y="266" fill="rgb(0,0,0)" stroke="rgb(0,0,0)">U</text>
<line style="fill:none;stroke-width:1" stroke="rgb(0,0,0)" x1="1240" y1="236" x2="1262" y2="214"/> <circle style="stroke-width:1" cx="1240" cy="236" r="12" fill="rgb(255,255,255)" stroke="rgb(0,0,0)"/> <text x="1232" y="244" fill="rgb(0,0,0)" stroke="rgb(0,0,0)">G</text>
<line style="fill:none;stroke-width:1" stroke="rgb(0,0,0)" x1="1262" y1="214" x2="1281" y2="178"/> <circle style="stroke-width:1" cx="1262" cy="214" r="12" fill="rgb(255,255,255)" stroke="rgb(0,0,0)"/> <text x="1254" y="222" fill="rgb(0,0,0)" stroke="rgb(0,0,0)">U</text>
<line style="fill:none;stroke-width:1" stroke="rgb(0,0,0)" x1="1281" y1="178" x2="1319" y2="168"/> <circle style="stroke-width:1" cx="1281" cy="178" r="12" fill="rgb(255,255,255)" stroke="rgb(0,0,0)"/> <text x="1273" y="186" fill="rgb(0,0,0)" stroke="rgb(0,0,0)">U</text>
<line style="fill:none;stroke-width:1" stroke="rgb(0,0,0)" x1="1319" y1="168" x2="1347" y2="196"/> <line style="fill:none;stroke-width:1" stroke="rgb(0,0,0)" x1="1319" y1="168" x2="1347" y2="60"/> <rect x="1332" y="48" width="30" height="24" fill="rgb(255,255,255)" stroke="rgb(255,255,255)"/> <text x="1332" y="68" fill="rgb(0,0,0)" stroke="rgb(0,0,0)">50</text> <circle style="stroke-width:1" cx="1319" cy="168" r="12" fill="rgb(255,255,255)" stroke="rgb(0,0,0)"/> <text x="1311" y="176" fill="rgb(0,0,0)" stroke="rgb(0,0,0)">U</text>
<line style="fill:none;stroke-width:1" stroke="rgb(0,0,0)" x1="1347" y1="196" x2="1337" y2="234"/> <circle style="stroke-width:1" cx="1347" cy="196" r="12" fill="rgb(255,255,255)" stroke="rgb(0,0,0)"/> <text x="1339" y="204" fill="rgb(0,0,0)" stroke="rgb(0,0,0)">C</text>
<line style="fill:none;stroke-width:1" stroke="rgb(0,0,0)" x1="1337" y1="234" x2="1301" y2="253"/> <circle style="stroke-width:1" cx="1337" cy="234" r="12" fill="rgb(255,255,255)" stroke="rgb(0,0,0)"/> <text x="1329" y="242" fill="rgb(0,0,0)" stroke="rgb(0,0,0)">C</text>
<line style="fill:none;stroke-width:1" stroke="rgb(0,0,0)" x1="1301" y1="253" x2="1279" y2="275"/> <circle style="stroke-width:1" cx="1301" cy="253" r="12" fill="rgb(255,255,255)" stroke="rgb(0,0,0)"/> <text x="1293" y="261" fill="rgb(0,0,0)" stroke="rgb(0,0,0)">A</text>
<line style="fill:none;stroke-width:1" stroke="rgb(0,0,0)" x1="1279" y1="275" x2="1257" y2="297"/> <circle style="stroke-width:1" cx="1279" cy="275" r="12" fill="rgb(255,255,255)" stroke="rgb(0,0,0)"/> <text x="1271" y="283" fill="rgb(0,0,0)" stroke="rgb(0,0,0)">C</text>
<line style="fill:none;stroke-width:1" stroke="rgb(0,0,0)" x1="1257" y1="297" x2="1239" y2="365"/> <circle style="stroke-width:1" cx="1257" cy="297" r="12" fill="rgb(255,255,255)" stroke="rgb(0,0,0)"/> <text x="1249" y="305" fill="rgb(0,0,0)" stroke="rgb(0,0,0)">A</text>
<line style="fill:none;stroke-width:1" stroke="rgb(0,0,0)" x1="1239" y1="365" x2="1172" y2="385"/> <circle style="stroke-width:1" cx="1239" cy="365" r="12" fill="rgb(255,255,255)" stroke="rgb(0,0,0)"/> <text x="1231" y="373" fill="rgb(0,0,0)" stroke="rgb(0,0,0)">C</text>
<line style="fill:none;stroke-width:1" stroke="rgb(0,0,0)" x1="1172" y1="385" x2="1151" y2="408"/> <circle style="stroke-width:1" cx="1172" cy="385" r="12" fill="rgb(255,255,255)" stroke="rgb(0,0,0)"/> <text x="1164" y="393" fill="rgb(0,0,0)" stroke="rgb(0,0,0)">A</text>
<line style="fill:none;stroke-width:1" stroke="rgb(0,0,0)" x1="1151" y1="408" x2="1130" y2="431"/> <circle style="stroke-width:1" cx="1151" cy="408" r="12" fill="rgb(255,255,255)" stroke="rgb(0,0,0)"/> <text x="1143" y="416" fill="rgb(0,0,0)" stroke="rgb(0,0,0)">G</text>
<line style="fill:none;stroke-width:1" stroke="rgb(0,0,0)" x1="1130" y1="431" x2="1109" y2="454"/> <circle style="stroke-width:1" cx="1130" cy="431" r="12" fill="rgb(255,255,255)" stroke="rgb(0,0,0)"/> <text x="1122" y="439" fill="rgb(0,0,0)" stroke="rgb(0,0,0)">C</text>
<line style="fill:none;stroke-width:1" stroke="rgb(0,0,0)" x1="1109" y1="454" x2="1123" y2="478"/> <line style="fill:none;stroke-width:1" stroke="rgb(0,0,0)" x1="1109" y1="454" x2="1191" y2="530"/> <rect x="1176" y="518" width="30" height="24" fill="rgb(255,255,255)" stroke="rgb(255,255,255)"/> <text x="1176" y="538" fill="rgb(0,0,0)" stroke="rgb(0,0,0)">60</text> <circle style="stroke-width:1" cx="1109" cy="454" r="12" fill="rgb(255,255,255)" stroke="rgb(0,0,0)"/> <text x="1101" y="462" fill="rgb(0,0,0)" stroke="rgb(0,0,0)">C</text>
<line style="fill:none;stroke-width:1" stroke="rgb(0,0,0)" x1="1123" y1="478" x2="1144" y2="528"/> <circle style="stroke-width:1" cx="1123" cy="478" r="12" fill="rgb(255,255,255)" stroke="rgb(0,0,0)"/> <text x="1115" y="486" fill="rgb(0,0,0)" stroke="rgb(0,0,0)">A</text>
<line style="fill:none;stroke-width:1" stroke="rgb(0,0,0)" x1="1144" y1="528" x2="1150" y2="582"/> <circle style="stroke-width:1" cx="1144" cy="528" r="12" fill="rgb(255,255,255)" stroke="rgb(0,0,0)"/> <text x="1136" y="536" fill="rgb(0,0,0)" stroke="rgb(0,0,0)">A</text>
<line style="fill:none;stroke-width:1" stroke="rgb(0,0,0)" x1="1150" y1="582" x2="1140" y2="635"/> <circle style="stroke-width:1" cx="1150" cy="582" r="12" fill="rgb(255,255,255)" stroke="rgb(0,0,0)"/> <text x="1142" y="590" fill="rgb(0,0,0)" stroke="rgb(0,0,0)">A</text>
<line style="fill:none;stroke-width:1" stroke="rgb(0,0,0)" x1="1140" y1="635" x2="1116" y2="684"/> <circle style="stroke-width:1" cx="1140" cy="635" r="12" fill="rgb(255,255,255)" stroke="rgb(0,0,0)"/> <text x="1132" y="643" fill="rgb(0,0,0)" stroke="rgb(0,0,0)">A</text>
<line style="fill:none;stroke-width:1" stroke="rgb(0,0,0)" x1="1116" y1="684" x2="1080" y2="723"/> <circle style="stroke-width:1" cx="1116" cy="684" r="12" fill="rgb(255,255,255)" stroke="rgb(0,0,0)"/> <text x="1108" y="692" fill="rgb(0,0,0)" stroke="rgb(0,0,0)">C</text>
<line style="fill:none;stroke-width:1" stroke="rgb(0,0,0)" x1="1080" y1="723" x2="1033" y2="751"/> <circle style="stroke-width:1" cx="1080" cy="723" r="12" fill="rgb(255,255,255)" stroke="rgb(0,0,0)"/> <text x="1072" y="731" fill="rgb(0,0,0)" stroke="rgb(0,0,0)">A</text>
<line style="fill:none;stroke-width:1" stroke="rgb(0,0,0)" x1="1033" y1="751" x2="981" y2="765"/> <circle style="stroke-width:1" cx="1033" cy="751" r="12" fill="rgb(255,255,255)" stroke="rgb(0,0,0)"/> <text x="1025" y="759" fill="rgb(0,0,0)" stroke="rgb(0,0,0)">U</text>
<line style="fill:none;stroke-width:1" stroke="rgb(0,0,0)" x1="981" y1="765" x2="927" y2="763"/> <circle style="stroke-width:1" cx="981" cy="765" r="12" fill="rgb(255,255,255)" stroke="rgb(0,0,0)"/> <text x="973" y="773" fill="rgb(0,0,0)" stroke="rgb(0,0,0)">C</text>
<line style="fill:none;stroke-width:1" stroke="rgb(0,0,0)" x1="927" y1="763" x2="875" y2="746"/> <circle style="stroke-width:1" cx="927" cy="763" r="12" fill="rgb(255,255,255)" stroke="rgb(0,0,0)"/> <text x="919" y="771" fill="rgb(0,0,0)" stroke="rgb(0,0,0)">C</text>
<line style="fill:none;stroke-width:1" stroke="rgb(0,0,0)" x1="875" y1="746" x2="851" y2="733"/> <line style="fill:none;stroke-width:1" stroke="rgb(0,0,0)" x1="875" y1="746" x2="826" y2="846"/> <rect x="811" y="834" width="30" height="24" fill="rgb(255,255,255)" stroke="rgb(255,255,255)"/> <text x="811" y="854" fill="rgb(0,0,0)" stroke="rgb(0,0,0)">70</text> <circle style="stroke-width:1" cx="875" cy="746" r="12" fill="rgb(255,255,255)" stroke="rgb(0,0,0)"/> <text x="867" y="754" fill="rgb(0,0,0)" stroke="rgb(0,0,0)">U</text>
<line style="fill:none;stroke-width:1" stroke="rgb(0,0,0)" x1="851" y1="733" x2="830" y2="756"/> <circle style="stroke-width:1" cx="851" cy="733" r="12" fill="rgb(255,255,255)" stroke="rgb(0,0,0)"/> <text x="843" y="741" fill="rgb(0,0,0)" stroke="rgb(0,0,0)">U</text>
<line style="fill:none;stroke-width:1" stroke="rgb(0,0,0)" x1="830" y1="756" x2="809" y2="779"/> <circle style="stroke-width:1" cx="830" cy="756" r="12" fill="rgb(255,255,255)" stroke="rgb(0,0,0)"/> <text x="822" y="764" fill="rgb(0,0,0)" stroke="rgb(0,0,0)">U</text>
<line style="fill:none;stroke-width:1" stroke="rgb(0,0,0)" x1="809" y1="779" x2="788" y2="802"/> <circle style="stroke-width:1" cx="809" cy="779" r="12" fill="rgb(255,255,255)" stroke="rgb(0,0,0)"/> <text x="801" y="787" fill="rgb(0,0,0)" stroke="rgb(0,0,0)">G</text>
<line style="fill:none;stroke-width:1" stroke="rgb(0,0,0)" x1="788" y1="802" x2="767" y2="825"/> <circle style="stroke-width:1" cx="788" cy="802" r="12" fill="rgb(255,255,255)" stroke="rgb(0,0,0)"/> <text x="780" y="810" fill="rgb(0,0,0)" stroke="rgb(0,0,0)">U</text>
<line style="fill:none;stroke-width:1" stroke="rgb(0,0,0)" x1="767" y1="825" x2="746" y2="848"/> <circle style="stroke-width:1" cx="767" cy="825" r="12" fill="rgb(255,255,255)" stroke="rgb(0,0,0)"/> <text x="759" y="833" fill="rgb(0,0,0)" stroke="rgb(0,0,0)">G</text>
<line style="fill:none;stroke-width:1" stroke="rgb(0,0,0)" x1="746" y1="848" x2="725" y2="871"/> <circle style="stroke-width:1" cx="746" cy="848" r="12" fill="rgb(255,255,255)" stroke="rgb(0,0,0)"/> <text x="738" y="856" fill="rgb(0,0,0)" stroke="rgb(0,0,0)">C</text>
<line style="fill:none;stroke-width:1" stroke="rgb(0,0,0)" x1="725" y1="871" x2="665" y2="940"/> <circle style="stroke-width:1" cx="725" cy="871" r="12" fill="rgb(255,255,255)" stroke="rgb(0,0,0)"/> <text x="717" y="879" fill="rgb(0,0,0)" stroke="rgb(0,0,0)">U</text>
<line style="fill:none;stroke-width:1" stroke="rgb(0,0,0)" x1="665" y1="940" x2="645" y2="964"/> <circle style="stroke-width:1" cx="665" cy="940" r="12" fill="rgb(255,255,255)" stroke="rgb(0,0,0)"/> <text x="657" y="948" fill="rgb(0,0,0)" stroke="rgb(0,0,0)">G</text>
<line style="fill:none;stroke-width:1" stroke="rgb(0,0,0)" x1="645" y1="964" x2="623" y2="1322"/> <circle style="stroke-width:1" cx="645" cy="964" r="12" fill="rgb(255,255,255)" stroke="rgb(0,0,0)"/> <text x="637" y="972" fill="rgb(0,0,0)" stroke="rgb(0,0,0)">C</text>
<line style="fill:none;stroke-width:1" stroke="rgb(0,0,0)" x1="623" y1="1322" x2="704" y2="1399"/> <rect x="689" y="1387" width="30" height="24" fill="rgb(255,255,255)" stroke="rgb(255,255,255)"/> <text x="689" y="1407" fill="rgb(0,0,0)" stroke="rgb(0,0,0)">80</text> <circle style="stroke-width:1" cx="623" cy="1322" r="12" fill="rgb(255,255,255)" stroke="rgb(0,0,0)"/> <text x="615" y="1330" fill="rgb(0,0,0)" stroke="rgb(0,0,0)">C</text>
</g>
<g font-size="16">
<text x="36" y="892" fill="rgb(0,0,0)" stroke="rgb(0,0,0)">ENERGY = -13.8  ENST00000489749.1</text>
</g>
</svg>
