<?xml version="1.0" encoding="UTF-8" standalone="no"?>
<!DOCTYPE svg PUBLIC "-//W3C//DTD SVG 1.1//EN" "http://www.w3.org/Graphics/SVG/1.1/DTD/svg11.dtd">
<svg xmlns="http://www.w3.org/2000/svg" xmlns:xlink="http://www.w3.org/1999/xlink" xml:space="preserve" font-family="monospace" font-size="24" fill="rgb(255,255,255)" stroke="rgb(0,0,0)" viewBox="0 0 790 905">
<g transform="scale(0.459591)">
<path style="fill:none;stroke-width:3" stroke="rgb(0,0,0)" d="M216,1460 Q242.5,1466 269,1472"/>
<path style="fill:none;stroke-width:3" stroke="rgb(0,0,0)" d="M223,1430 Q249.5,1436 276,1442"/>
<path style="fill:none;stroke-width:3" stroke="rgb(0,0,0)" d="M230,1400 Q256.5,1406 283,1412"/>
<path style="fill:none;stroke-width:3" stroke="rgb(0,0,0)" d="M252,1308 Q278.5,1314 305,1320"/>
<path style="fill:none;stroke-width:3" stroke="rgb(0,0,0)" d="M259,1278 Q285.5,1284 312,1290"/>
<path style="fill:none;stroke-width:3" stroke="rgb(0,0,0)" d="M266,1248 Q292.5,1254 319,1260"/>
<path style="fill:none;stroke-width:3" stroke="rgb(0,0,0)" d="M307,986 Q334.5,988 362,990"/>
<path style="fill:none;stroke-width:3" stroke="rgb(0,0,0)" d="M309,955 Q336.5,957 364,959"/>
<path style="fill:none;stroke-width:3" stroke="rgb(0,0,0)" d="M311,924 Q338.5,926 366,928"/>
<path style="fill:none;stroke-width:3" stroke="rgb(0,0,0)" d="M313,893 Q340.5,895 368,897"/>
<path style="fill:none;stroke-width:3" stroke="rgb(0,0,0)" d="M315,862 Q342.5,864 370,866"/>
<path style="fill:none;stroke-width:3" stroke="rgb(0,0,0)" d="M321,700 Q348.5,700 376,700"/>
<path style="fill:none;stroke-width:3" stroke="rgb(0,0,0)" d="M321,669 Q348.5,669 376,669"/>
<path style="fill:none;stroke-width:3" stroke="rgb(0,0,0)" d="M321,638 Q348.5,638 376,638"/>
<path style="fill:none;stroke-width:3" stroke="rgb(0,0,0)" d="M320,385 Q347.5,385 375,385"/>
<path style="fill:none;stroke-width:3" stroke="rgb(0,0,0)" d="M320,354 Q347.5,354 375,354"/>
<path style="fill:none;stroke-width:3" stroke="rgb(0,0,0)" d="M320,323 Q347.5,323 375,323"/>
<line style="fill:none;stroke-width:1" stroke="rgb(0,0,0)" x1="90" y1="1718" x2="57" y2="1681"/> <circle style="stroke-width:1" cx="90" cy="1718" r="12" fill="rgb(255,255,255)" stroke="rgb(0,0,0)"/> <text x="82" y="1726" fill="rgb(0,0,0)" stroke="rgb(0,0,0)">U</text>
<line style="fill:none;stroke-width:1" stroke="rgb(0,0,0)" x1="57" y1="1681" x2="38" y2="1635"/> <circle style="stroke-width:1" cx="57" cy="1681" r="12" fill="rgb(255,255,255)" stroke="rgb(0,0,0)"/> <text x="49" y="1689" fill="rgb(0,0,0)" stroke="rgb(0,0,0)">C</text>
<line style="fill:none;stroke-width:1" stroke="rgb(0,0,0)" x1="38" y1="1635" x2="36" y2="1586"/> <circle style="stroke-width:1" cx="38" cy="1635" r="12" fill="rgb(255,255,255)" stroke="rgb(0,0,0)"/> <text x="30" y="1643" fill="rgb(0,0,0)" stroke="rgb(0,0,0)">C</text>
<line style="fill:none;stroke-width:1" stroke="rgb(0,0,0)" x1="36" y1="1586" x2="50" y2="1538"/> <circle style="stroke-width:1" cx="36" cy="1586" r="12" fill="rgb(255,255,255)" stroke="rgb(0,0,0)"/> <text x="28" y="1594" fill="rgb(0,0,0)" stroke="rgb(0,0,0)">U</text>
<line style="fill:none;stroke-width:1" stroke="rgb(0,0,0)" x1="50" y1="1538" x2="79" y2="1498"/> <circle style="stroke-width:1" cx="50" cy="1538" r="12" fill="rgb(255,255,255)" stroke="rgb(0,0,0)"/> <text x="42" y="1546" fill="rgb(0,0,0)" stroke="rgb(0,0,0)">C</text>
<line style="fill:none;stroke-width:1" stroke="rgb(0,0,0)" x1="79" y1="1498" x2="119" y2="1470"/> <circle style="stroke-width:1" cx="79" cy="1498" r="12" fill="rgb(255,255,255)" stroke="rgb(0,0,0)"/> <text x="71" y="1506" fill="rgb(0,0,0)" stroke="rgb(0,0,0)">C</text>
<line style="fill:none;stroke-width:1" stroke="rgb(0,0,0)" x1="119" y1="1470" x2="166" y2="1457"/> <circle style="stroke-width:1" cx="119" cy="1470" r="12" fill="rgb(255,255,255)" stroke="rgb(0,0,0)"/> <text x="111" y="1478" fill="rgb(0,0,0)" stroke="rgb(0,0,0)">U</text>
<line style="fill:none;stroke-width:1" stroke="rgb(0,0,0)" x1="166" y1="1457" x2="216" y2="1460"/> <circle style="stroke-width:1" cx="166" cy="1457" r="12" fill="rgb(255,255,255)" stroke="rgb(0,0,0)"/> <text x="158" y="1465" fill="rgb(0,0,0)" stroke="rgb(0,0,0)">C</text>
<line style="fill:none;stroke-width:1" stroke="rgb(0,0,0)" x1="216" y1="1460" x2="223" y2="1430"/> <circle style="stroke-width:1" cx="216" cy="1460" r="12" fill="rgb(255,255,255)" stroke="rgb(0,0,0)"/> <text x="208" y="1468" fill="rgb(0,0,0)" stroke="rgb(0,0,0)">G</text>
<line style="fill:none;stroke-width:1" stroke="rgb(0,0,0)" x1="223" y1="1430" x2="230" y2="1400"/> <line style="fill:none;stroke-width:1" stroke="rgb(0,0,0)" x1="223" y1="1430" x2="115" y2="1404"/> <rect x="100" y="1392" width="30" height="24" fill="rgb(255,255,255)" stroke="rgb(255,255,255)"/> <text x="100" y="1412" fill="rgb(0,0,0)" stroke="rgb(0,0,0)">10</text> <circle style="stroke-width:1" cx="223" cy="1430" r="12" fill="rgb(255,255,255)" stroke="rgb(0,0,0)"/> <text x="215" y="1438" fill="rgb(0,0,0)" stroke="rgb(0,0,0)">C</text>
<line style="fill:none;stroke-width:1" stroke="rgb(0,0,0)" x1="230" y1="1400" x2="221" y2="1350"/> <circle style="stroke-width:1" cx="230" cy="1400" r="12" fill="rgb(255,255,255)" stroke="rgb(0,0,0)"/> <text x="222" y="1408" fill="rgb(0,0,0)" stroke="rgb(0,0,0)">C</text>
<line style="fill:none;stroke-width:1" stroke="rgb(0,0,0)" x1="221" y1="1350" x2="252" y2="1308"/> <circle style="stroke-width:1" cx="221" cy="1350" r="12" fill="rgb(255,255,255)" stroke="rgb(0,0,0)"/> <text x="213" y="1358" fill="rgb(0,0,0)" stroke="rgb(0,0,0)">U</text>
<line style="fill:none;stroke-width:1" stroke="rgb(0,0,0)" x1="252" y1="1308" x2="259" y2="1278"/> <circle style="stroke-width:1" cx="252" cy="1308" r="12" fill="rgb(255,255,255)" stroke="rgb(0,0,0)"/> <text x="244" y="1316" fill="rgb(0,0,0)" stroke="rgb(0,0,0)">G</text>
<line style="fill:none;stroke-width:1" stroke="rgb(0,0,0)" x1="259" y1="1278" x2="266" y2="1248"/> <circle style="stroke-width:1" cx="259" cy="1278" r="12" fill="rgb(255,255,255)" stroke="rgb(0,0,0)"/> <text x="251" y="1286" fill="rgb(0,0,0)" stroke="rgb(0,0,0)">C</text>
<line style="fill:none;stroke-width:1" stroke="rgb(0,0,0)" x1="266" y1="1248" x2="198" y2="1170"/> <circle style="stroke-width:1" cx="266" cy="1248" r="12" fill="rgb(255,255,255)" stroke="rgb(0,0,0)"/> <text x="258" y="1256" fill="rgb(0,0,0)" stroke="rgb(0,0,0)">C</text>
<line style="fill:none;stroke-width:1" stroke="rgb(0,0,0)" x1="198" y1="1170" x2="218" y2="1044"/> <circle style="stroke-width:1" cx="198" cy="1170" r="12" fill="rgb(255,255,255)" stroke="rgb(0,0,0)"/> <text x="190" y="1178" fill="rgb(0,0,0)" stroke="rgb(0,0,0)">A</text>
<line style="fill:none;stroke-width:1" stroke="rgb(0,0,0)" x1="218" y1="1044" x2="307" y2="986"/> <circle style="stroke-width:1" cx="218" cy="1044" r="12" fill="rgb(255,255,255)" stroke="rgb(0,0,0)"/> <text x="210" y="1052" fill="rgb(0,0,0)" stroke="rgb(0,0,0)">C</text>
<line style="fill:none;stroke-width:1" stroke="rgb(0,0,0)" x1="307" y1="986" x2="309" y2="955"/> <circle style="stroke-width:1" cx="307" cy="986" r="12" fill="rgb(255,255,255)" stroke="rgb(0,0,0)"/> <text x="299" y="994" fill="rgb(0,0,0)" stroke="rgb(0,0,0)">C</text>
<line style="fill:none;stroke-width:1" stroke="rgb(0,0,0)" x1="309" y1="955" x2="311" y2="924"/> <circle style="stroke-width:1" cx="309" cy="955" r="12" fill="rgb(255,255,255)" stroke="rgb(0,0,0)"/> <text x="301" y="963" fill="rgb(0,0,0)" stroke="rgb(0,0,0)">G</text>
<line style="fill:none;stroke-width:1" stroke="rgb(0,0,0)" x1="311" y1="924" x2="313" y2="893"/> <line style="fill:none;stroke-width:1" stroke="rgb(0,0,0)" x1="311" y1="924" x2="200" y2="916"/> <rect x="185" y="904" width="30" height="24" fill="rgb(255,255,255)" stroke="rgb(255,255,255)"/> <text x="185" y="924" fill="rgb(0,0,0)" stroke="rgb(0,0,0)">20</text> <circle style="stroke-width:1" cx="311" cy="924" r="12" fill="rgb(255,255,255)" stroke="rgb(0,0,0)"/> <text x="303" y="932" fill="rgb(0,0,0)" stroke="rgb(0,0,0)">G</text>
<line style="fill:none;stroke-width:1" stroke="rgb(0,0,0)" x1="313" y1="893" x2="315" y2="862"/> <circle style="stroke-width:1" cx="313" cy="893" r="12" fill="rgb(255,255,255)" stroke="rgb(0,0,0)"/> <text x="305" y="901" fill="rgb(0,0,0)" stroke="rgb(0,0,0)">U</text>
<line style="fill:none;stroke-width:1" stroke="rgb(0,0,0)" x1="315" y1="862" x2="267" y2="781"/> <circle style="stroke-width:1" cx="315" cy="862" r="12" fill="rgb(255,255,255)" stroke="rgb(0,0,0)"/> <text x="307" y="870" fill="rgb(0,0,0)" stroke="rgb(0,0,0)">G</text>
<line style="fill:none;stroke-width:1" stroke="rgb(0,0,0)" x1="267" y1="781" x2="321" y2="700"/> <circle style="stroke-width:1" cx="267" cy="781" r="12" fill="rgb(255,255,255)" stroke="rgb(0,0,0)"/> <text x="259" y="789" fill="rgb(0,0,0)" stroke="rgb(0,0,0)">C</text>
<line style="fill:none;stroke-width:1" stroke="rgb(0,0,0)" x1="321" y1="700" x2="321" y2="669"/> <circle style="stroke-width:1" cx="321" cy="700" r="12" fill="rgb(255,255,255)" stroke="rgb(0,0,0)"/> <text x="313" y="708" fill="rgb(0,0,0)" stroke="rgb(0,0,0)">A</text>
<line style="fill:none;stroke-width:1" stroke="rgb(0,0,0)" x1="321" y1="669" x2="321" y2="638"/> <circle style="stroke-width:1" cx="321" cy="669" r="12" fill="rgb(255,255,255)" stroke="rgb(0,0,0)"/> <text x="313" y="677" fill="rgb(0,0,0)" stroke="rgb(0,0,0)">C</text>
<line style="fill:none;stroke-width:1" stroke="rgb(0,0,0)" x1="321" y1="638" x2="293" y2="626"/> <circle style="stroke-width:1" cx="321" cy="638" r="12" fill="rgb(255,255,255)" stroke="rgb(0,0,0)"/> <text x="313" y="646" fill="rgb(0,0,0)" stroke="rgb(0,0,0)">C</text>
<line style="fill:none;stroke-width:1" stroke="rgb(0,0,0)" x1="293" y1="626" x2="249" y2="591"/> <circle style="stroke-width:1" cx="293" cy="626" r="12" fill="rgb(255,255,255)" stroke="rgb(0,0,0)"/> <text x="285" y="634" fill="rgb(0,0,0)" stroke="rgb(0,0,0)">C</text>
<line style="fill:none;stroke-width:1" stroke="rgb(0,0,0)" x1="249" y1="591" x2="225" y2="540"/> <circle style="stroke-width:1" cx="249" cy="591" r="12" fill="rgb(255,255,255)" stroke="rgb(0,0,0)"/> <text x="241" y="599" fill="rgb(0,0,0)" stroke="rgb(0,0,0)">A</text>
<line style="fill:none;stroke-width:1" stroke="rgb(0,0,0)" x1="225" y1="540" x2="225" y2="484"/> <circle style="stroke-width:1" cx="225" cy="540" r="12" fill="rgb(255,255,255)" stroke="rgb(0,0,0)"/> <text x="217" y="548" fill="rgb(0,0,0)" stroke="rgb(0,0,0)">G</text>
<line style="fill:none;stroke-width:1" stroke="rgb(0,0,0)" x1="225" y1="484" x2="249" y2="433"/> <line style="fill:none;stroke-width:1" stroke="rgb(0,0,0)" x1="225" y1="484" x2="116" y2="460"/> <rect x="101" y="448" width="30" height="24" fill="rgb(255,255,255)" stroke="rgb(255,255,255)"/> <text x="101" y="468" fill="rgb(0,0,0)" stroke="rgb(0,0,0)">30</text> <circle style="stroke-width:1" cx="225" cy="484" r="12" fill="rgb(255,255,255)" stroke="rgb(0,0,0)"/> <text x="217" y="492" fill="rgb(0,0,0)" stroke="rgb(0,0,0)">U</text>
<line style="fill:none;stroke-width:1" stroke="rgb(0,0,0)" x1="249" y1="433" x2="293" y2="398"/> <circle style="stroke-width:1" cx="249" cy="433" r="12" fill="rgb(255,255,255)" stroke="rgb(0,0,0)"/> <text x="241" y="441" fill="rgb(0,0,0)" stroke="rgb(0,0,0)">C</text>
<line style="fill:none;stroke-width:1" stroke="rgb(0,0,0)" x1="293" y1="398" x2="320" y2="385"/> <circle style="stroke-width:1" cx="293" cy="398" r="12" fill="rgb(255,255,255)" stroke="rgb(0,0,0)"/> <text x="285" y="406" fill="rgb(0,0,0)" stroke="rgb(0,0,0)">C</text>
<line style="fill:none;stroke-width:1" stroke="rgb(0,0,0)" x1="320" y1="385" x2="320" y2="354"/> <circle style="stroke-width:1" cx="320" cy="385" r="12" fill="rgb(255,255,255)" stroke="rgb(0,0,0)"/> <text x="312" y="393" fill="rgb(0,0,0)" stroke="rgb(0,0,0)">G</text>
<line style="fill:none;stroke-width:1" stroke="rgb(0,0,0)" x1="320" y1="354" x2="320" y2="323"/> <circle style="stroke-width:1" cx="320" cy="354" r="12" fill="rgb(255,255,255)" stroke="rgb(0,0,0)"/> <text x="312" y="362" fill="rgb(0,0,0)" stroke="rgb(0,0,0)">C</text>
<line style="fill:none;stroke-width:1" stroke="rgb(0,0,0)" x1="320" y1="323" x2="291" y2="300"/> <circle style="stroke-width:1" cx="320" cy="323" r="12" fill="rgb(255,255,255)" stroke="rgb(0,0,0)"/> <text x="312" y="331" fill="rgb(0,0,0)" stroke="rgb(0,0,0)">U</text>
<line style="fill:none;stroke-width:1" stroke="rgb(0,0,0)" x1="291" y1="300" x2="271" y2="265"/> <circle style="stroke-width:1" cx="291" cy="300" r="12" fill="rgb(255,255,255)" stroke="rgb(0,0,0)"/> <text x="283" y="308" fill="rgb(0,0,0)" stroke="rgb(0,0,0)">C</text>
<line style="fill:none;stroke-width:1" stroke="rgb(0,0,0)" x1="271" y1="265" x2="271" y2="224"/> <circle style="stroke-width:1" cx="271" cy="265" r="12" fill="rgb(255,255,255)" stroke="rgb(0,0,0)"/> <text x="263" y="273" fill="rgb(0,0,0)" stroke="rgb(0,0,0)">A</text>
<line style="fill:none;stroke-width:1" stroke="rgb(0,0,0)" x1="271" y1="224" x2="291" y2="188"/> <circle style="stroke-width:1" cx="271" cy="224" r="12" fill="rgb(255,255,255)" stroke="rgb(0,0,0)"/> <text x="263" y="232" fill="rgb(0,0,0)" stroke="rgb(0,0,0)">C</text>
<line style="fill:none;stroke-width:1" stroke="rgb(0,0,0)" x1="291" y1="188" x2="327" y2="168"/> <circle style="stroke-width:1" cx="291" cy="188" r="12" fill="rgb(255,255,255)" stroke="rgb(0,0,0)"/> <text x="283" y="196" fill="rgb(0,0,0)" stroke="rgb(0,0,0)">C</text>
<line style="fill:none;stroke-width:1" stroke="rgb(0,0,0)" x1="327" y1="168" x2="368" y2="168"/> <line style="fill:none;stroke-width:1" stroke="rgb(0,0,0)" x1="327" y1="168" x2="299" y2="60"/> <rect x="284" y="48" width="30" height="24" fill="rgb(255,255,255)" stroke="rgb(255,255,255)"/> <text x="284" y="68" fill="rgb(0,0,0)" stroke="rgb(0,0,0)">40</text> <circle style="stroke-width:1" cx="327" cy="168" r="12" fill="rgb(255,255,255)" stroke="rgb(0,0,0)"/> <text x="319" y="176" fill="rgb(0,0,0)" stroke="rgb(0,0,0)">C</text>
<line style="fill:none;stroke-width:1" stroke="rgb(0,0,0)" x1="368" y1="168" x2="403" y2="188"/> <circle style="stroke-width:1" cx="368" cy="168" r="12" fill="rgb(255,255,255)" stroke="rgb(0,0,0)"/> <text x="360" y="176" fill="rgb(0,0,0)" stroke="rgb(0,0,0)">A</text>
<line style="fill:none;stroke-width:1" stroke="rgb(0,0,0)" x1="403" y1="188" x2="424" y2="224"/> <circle style="stroke-width:1" cx="403" cy="188" r="12" fill="rgb(255,255,255)" stroke="rgb(0,0,0)"/> <text x="395" y="196" fill="rgb(0,0,0)" stroke="rgb(0,0,0)">G</text>
<line style="fill:none;stroke-width:1" stroke="rgb(0,0,0)" x1="424" y1="224" x2="424" y2="265"/> <circle style="stroke-width:1" cx="424" cy="224" r="12" fill="rgb(255,255,255)" stroke="rgb(0,0,0)"/> <text x="416" y="232" fill="rgb(0,0,0)" stroke="rgb(0,0,0)">C</text>
<line style="fill:none;stroke-width:1" stroke="rgb(0,0,0)" x1="424" y1="265" x2="403" y2="300"/> <circle style="stroke-width:1" cx="424" cy="265" r="12" fill="rgb(255,255,255)" stroke="rgb(0,0,0)"/> <text x="416" y="273" fill="rgb(0,0,0)" stroke="rgb(0,0,0)">C</text>
<line style="fill:none;stroke-width:1" stroke="rgb(0,0,0)" x1="403" y1="300" x2="375" y2="323"/> <circle style="stroke-width:1" cx="403" cy="300" r="12" fill="rgb(255,255,255)" stroke="rgb(0,0,0)"/> <text x="395" y="308" fill="rgb(0,0,0)" stroke="rgb(0,0,0)">C</text>
<line style="fill:none;stroke-width:1" stroke="rgb(0,0,0)" x1="375" y1="323" x2="375" y2="354"/> <circle style="stroke-width:1" cx="375" cy="323" r="12" fill="rgb(255,255,255)" stroke="rgb(0,0,0)"/> <text x="367" y="331" fill="rgb(0,0,0)" stroke="rgb(0,0,0)">A</text>
<line style="fill:none;stroke-width:1" stroke="rgb(0,0,0)" x1="375" y1="354" x2="375" y2="385"/> <circle style="stroke-width:1" cx="375" cy="354" r="12" fill="rgb(255,255,255)" stroke="rgb(0,0,0)"/> <text x="367" y="362" fill="rgb(0,0,0)" stroke="rgb(0,0,0)">G</text>
<line style="fill:none;stroke-width:1" stroke="rgb(0,0,0)" x1="375" y1="385" x2="403" y2="398"/> <circle style="stroke-width:1" cx="375" cy="385" r="12" fill="rgb(255,255,255)" stroke="rgb(0,0,0)"/> <text x="367" y="393" fill="rgb(0,0,0)" stroke="rgb(0,0,0)">U</text>
<line style="fill:none;stroke-width:1" stroke="rgb(0,0,0)" x1="403" y1="398" x2="447" y2="433"/> <circle style="stroke-width:1" cx="403" cy="398" r="12" fill="rgb(255,255,255)" stroke="rgb(0,0,0)"/> <text x="395" y="406" fill="rgb(0,0,0)" stroke="rgb(0,0,0)">C</text>
<line style="fill:none;stroke-width:1" stroke="rgb(0,0,0)" x1="447" y1="433" x2="472" y2="484"/> <line style="fill:none;stroke-width:1" stroke="rgb(0,0,0)" x1="447" y1="433" x2="534" y2="364"/> <rect x="519" y="352" width="30" height="24" fill="rgb(255,255,255)" stroke="rgb(255,255,255)"/> <text x="519" y="372" fill="rgb(0,0,0)" stroke="rgb(0,0,0)">50</text> <circle style="stroke-width:1" cx="447" cy="433" r="12" fill="rgb(255,255,255)" stroke="rgb(0,0,0)"/> <text x="439" y="441" fill="rgb(0,0,0)" stroke="rgb(0,0,0)">C</text>
<line style="fill:none;stroke-width:1" stroke="rgb(0,0,0)" x1="472" y1="484" x2="472" y2="540"/> <circle style="stroke-width:1" cx="472" cy="484" r="12" fill="rgb(255,255,255)" stroke="rgb(0,0,0)"/> <text x="464" y="492" fill="rgb(0,0,0)" stroke="rgb(0,0,0)">G</text>
<line style="fill:none;stroke-width:1" stroke="rgb(0,0,0)" x1="472" y1="540" x2="447" y2="591"/> <circle style="stroke-width:1" cx="472" cy="540" r="12" fill="rgb(255,255,255)" stroke="rgb(0,0,0)"/> <text x="464" y="548" fill="rgb(0,0,0)" stroke="rgb(0,0,0)">U</text>
<line style="fill:none;stroke-width:1" stroke="rgb(0,0,0)" x1="447" y1="591" x2="403" y2="626"/> <circle style="stroke-width:1" cx="447" cy="591" r="12" fill="rgb(255,255,255)" stroke="rgb(0,0,0)"/> <text x="439" y="599" fill="rgb(0,0,0)" stroke="rgb(0,0,0)">C</text>
<line style="fill:none;stroke-width:1" stroke="rgb(0,0,0)" x1="403" y1="626" x2="376" y2="638"/> <circle style="stroke-width:1" cx="403" cy="626" r="12" fill="rgb(255,255,255)" stroke="rgb(0,0,0)"/> <text x="395" y="634" fill="rgb(0,0,0)" stroke="rgb(0,0,0)">C</text>
<line style="fill:none;stroke-width:1" stroke="rgb(0,0,0)" x1="376" y1="638" x2="376" y2="669"/> <circle style="stroke-width:1" cx="376" cy="638" r="12" fill="rgb(255,255,255)" stroke="rgb(0,0,0)"/> <text x="368" y="646" fill="rgb(0,0,0)" stroke="rgb(0,0,0)">G</text>
<line style="fill:none;stroke-width:1" stroke="rgb(0,0,0)" x1="376" y1="669" x2="376" y2="700"/> <circle style="stroke-width:1" cx="376" cy="669" r="12" fill="rgb(255,255,255)" stroke="rgb(0,0,0)"/> <text x="368" y="677" fill="rgb(0,0,0)" stroke="rgb(0,0,0)">G</text>
<line style="fill:none;stroke-width:1" stroke="rgb(0,0,0)" x1="376" y1="700" x2="407" y2="727"/> <circle style="stroke-width:1" cx="376" cy="700" r="12" fill="rgb(255,255,255)" stroke="rgb(0,0,0)"/> <text x="368" y="708" fill="rgb(0,0,0)" stroke="rgb(0,0,0)">U</text>
<line style="fill:none;stroke-width:1" stroke="rgb(0,0,0)" x1="407" y1="727" x2="430" y2="787"/> <circle style="stroke-width:1" cx="407" cy="727" r="12" fill="rgb(255,255,255)" stroke="rgb(0,0,0)"/> <text x="399" y="735" fill="rgb(0,0,0)" stroke="rgb(0,0,0)">C</text>
<line style="fill:none;stroke-width:1" stroke="rgb(0,0,0)" x1="430" y1="787" x2="402" y2="844"/> <circle style="stroke-width:1" cx="430" cy="787" r="12" fill="rgb(255,255,255)" stroke="rgb(0,0,0)"/> <text x="422" y="795" fill="rgb(0,0,0)" stroke="rgb(0,0,0)">C</text>
<line style="fill:none;stroke-width:1" stroke="rgb(0,0,0)" x1="402" y1="844" x2="370" y2="866"/> <line style="fill:none;stroke-width:1" stroke="rgb(0,0,0)" x1="402" y1="844" x2="476" y2="927"/> <rect x="461" y="915" width="30" height="24" fill="rgb(255,255,255)" stroke="rgb(255,255,255)"/> <text x="461" y="935" fill="rgb(0,0,0)" stroke="rgb(0,0,0)">60</text> <circle style="stroke-width:1" cx="402" cy="844" r="12" fill="rgb(255,255,255)" stroke="rgb(0,0,0)"/> <text x="394" y="852" fill="rgb(0,0,0)" stroke="rgb(0,0,0)">U</text>
<line style="fill:none;stroke-width:1" stroke="rgb(0,0,0)" x1="370" y1="866" x2="368" y2="897"/> <circle style="stroke-width:1" cx="370" cy="866" r="12" fill="rgb(255,255,255)" stroke="rgb(0,0,0)"/> <text x="362" y="874" fill="rgb(0,0,0)" stroke="rgb(0,0,0)">C</text>
<line style="fill:none;stroke-width:1" stroke="rgb(0,0,0)" x1="368" y1="897" x2="366" y2="928"/> <circle style="stroke-width:1" cx="368" cy="897" r="12" fill="rgb(255,255,255)" stroke="rgb(0,0,0)"/> <text x="360" y="905" fill="rgb(0,0,0)" stroke="rgb(0,0,0)">A</text>
<line style="fill:none;stroke-width:1" stroke="rgb(0,0,0)" x1="366" y1="928" x2="364" y2="959"/> <circle style="stroke-width:1" cx="366" cy="928" r="12" fill="rgb(255,255,255)" stroke="rgb(0,0,0)"/> <text x="358" y="936" fill="rgb(0,0,0)" stroke="rgb(0,0,0)">C</text>
<line style="fill:none;stroke-width:1" stroke="rgb(0,0,0)" x1="364" y1="959" x2="362" y2="990"/> <circle style="stroke-width:1" cx="364" cy="959" r="12" fill="rgb(255,255,255)" stroke="rgb(0,0,0)"/> <text x="356" y="967" fill="rgb(0,0,0)" stroke="rgb(0,0,0)">C</text>
<line style="fill:none;stroke-width:1" stroke="rgb(0,0,0)" x1="362" y1="990" x2="393" y2="1012"/> <circle style="stroke-width:1" cx="362" cy="990" r="12" fill="rgb(255,255,255)" stroke="rgb(0,0,0)"/> <text x="354" y="998" fill="rgb(0,0,0)" stroke="rgb(0,0,0)">G</text>
<line style="fill:none;stroke-width:1" stroke="rgb(0,0,0)" x1="393" y1="1012" x2="437" y2="1056"/> <circle style="stroke-width:1" cx="393" cy="1012" r="12" fill="rgb(255,255,255)" stroke="rgb(0,0,0)"/> <text x="385" y="1020" fill="rgb(0,0,0)" stroke="rgb(0,0,0)">C</text>
<line style="fill:none;stroke-width:1" stroke="rgb(0,0,0)" x1="437" y1="1056" x2="457" y2="1115"/> <circle style="stroke-width:1" cx="437" cy="1056" r="12" fill="rgb(255,255,255)" stroke="rgb(0,0,0)"/> <text x="429" y="1064" fill="rgb(0,0,0)" stroke="rgb(0,0,0)">C</text>
<line style="fill:none;stroke-width:1" stroke="rgb(0,0,0)" x1="457" y1="1115" x2="447" y2="1176"/> <circle style="stroke-width:1" cx="457" cy="1115" r="12" fill="rgb(255,255,255)" stroke="rgb(0,0,0)"/> <text x="449" y="1123" fill="rgb(0,0,0)" stroke="rgb(0,0,0)">U</text>
<line style="fill:none;stroke-width:1" stroke="rgb(0,0,0)" x1="447" y1="1176" x2="410" y2="1227"/> <circle style="stroke-width:1" cx="447" cy="1176" r="12" fill="rgb(255,255,255)" stroke="rgb(0,0,0)"/> <text x="439" y="1184" fill="rgb(0,0,0)" stroke="rgb(0,0,0)">G</text>
<line style="fill:none;stroke-width:1" stroke="rgb(0,0,0)" x1="410" y1="1227" x2="355" y2="1255"/> <line style="fill:none;stroke-width:1" stroke="rgb(0,0,0)" x1="410" y1="1227" x2="482" y2="1312"/> <rect x="467" y="1300" width="30" height="24" fill="rgb(255,255,255)" stroke="rgb(255,255,255)"/> <text x="467" y="1320" fill="rgb(0,0,0)" stroke="rgb(0,0,0)">70</text> <circle style="stroke-width:1" cx="410" cy="1227" r="12" fill="rgb(255,255,255)" stroke="rgb(0,0,0)"/> <text x="402" y="1235" fill="rgb(0,0,0)" stroke="rgb(0,0,0)">C</text>
<line style="fill:none;stroke-width:1" stroke="rgb(0,0,0)" x1="355" y1="1255" x2="319" y2="1260"/> <circle style="stroke-width:1" cx="355" cy="1255" r="12" fill="rgb(255,255,255)" stroke="rgb(0,0,0)"/> <text x="347" y="1263" fill="rgb(0,0,0)" stroke="rgb(0,0,0)">C</text>
<line style="fill:none;stroke-width:1" stroke="rgb(0,0,0)" x1="319" y1="1260" x2="312" y2="1290"/> <circle style="stroke-width:1" cx="319" cy="1260" r="12" fill="rgb(255,255,255)" stroke="rgb(0,0,0)"/> <text x="311" y="1268" fill="rgb(0,0,0)" stroke="rgb(0,0,0)">G</text>
<line style="fill:none;stroke-width:1" stroke="rgb(0,0,0)" x1="312" y1="1290" x2="305" y2="1320"/> <circle style="stroke-width:1" cx="312" cy="1290" r="12" fill="rgb(255,255,255)" stroke="rgb(0,0,0)"/> <text x="304" y="1298" fill="rgb(0,0,0)" stroke="rgb(0,0,0)">G</text>
<line style="fill:none;stroke-width:1" stroke="rgb(0,0,0)" x1="305" y1="1320" x2="314" y2="1372"/> <circle style="stroke-width:1" cx="305" cy="1320" r="12" fill="rgb(255,255,255)" stroke="rgb(0,0,0)"/> <text x="297" y="1328" fill="rgb(0,0,0)" stroke="rgb(0,0,0)">C</text>
<line style="fill:none;stroke-width:1" stroke="rgb(0,0,0)" x1="314" y1="1372" x2="283" y2="1412"/> <circle style="stroke-width:1" cx="314" cy="1372" r="12" fill="rgb(255,255,255)" stroke="rgb(0,0,0)"/> <text x="306" y="1380" fill="rgb(0,0,0)" stroke="rgb(0,0,0)">C</text>
<line style="fill:none;stroke-width:1" stroke="rgb(0,0,0)" x1="283" y1="1412" x2="276" y2="1442"/> <circle style="stroke-width:1" cx="283" cy="1412" r="12" fill="rgb(255,255,255)" stroke="rgb(0,0,0)"/> <text x="275" y="1420" fill="rgb(0,0,0)" stroke="rgb(0,0,0)">G</text>
<line style="fill:none;stroke-width:1" stroke="rgb(0,0,0)" x1="276" y1="1442" x2="269" y2="1472"/> <circle style="stroke-width:1" cx="276" cy="1442" r="12" fill="rgb(255,255,255)" stroke="rgb(0,0,0)"/> <text x="268" y="1450" fill="rgb(0,0,0)" stroke="rgb(0,0,0)">G</text>
<line style="fill:none;stroke-width:1" stroke="rgb(0,0,0)" x1="269" y1="1472" x2="328" y2="1620"/> <circle style="stroke-width:1" cx="269" cy="1472" r="12" fill="rgb(255,255,255)" stroke="rgb(0,0,0)"/> <text x="261" y="1480" fill="rgb(0,0,0)" stroke="rgb(0,0,0)">C</text>
<line style="fill:none;stroke-width:1" stroke="rgb(0,0,0)" x1="328" y1="1620" x2="279" y2="1713"/> <circle style="stroke-width:1" cx="328" cy="1620" r="12" fill="rgb(255,255,255)" stroke="rgb(0,0,0)"/> <text x="320" y="1628" fill="rgb(0,0,0)" stroke="rgb(0,0,0)">C</text>
<line style="fill:none;stroke-width:1" stroke="rgb(0,0,0)" x1="279" y1="1713" x2="353" y2="1796"/> <rect x="338" y="1784" width="30" height="24" fill="rgb(255,255,255)" stroke="rgb(255,255,255)"/> <text x="338" y="1804" fill="rgb(0,0,0)" stroke="rgb(0,0,0)">80</text> <circle style="stroke-width:1" cx="279" cy="1713" r="12" fill="rgb(255,255,255)" stroke="rgb(0,0,0)"/> <text x="271" y="1721" fill="rgb(0,0,0)" stroke="rgb(0,0,0)">C</text>
</g>
<g font-size="16">
<text x="36" y="892" fill="rgb(0,0,0)" stroke="rgb(0,0,0)">ENERGY = -16.6  ENST00000329305.6</text>
</g>
</svg>
