<?xml version="1.0" encoding="UTF-8" standalone="no"?>
<!DOCTYPE svg PUBLIC "-//W3C//DTD SVG 1.1//EN" "http://www.w3.org/Graphics/SVG/1.1/DTD/svg11.dtd">
<svg xmlns="http://www.w3.org/2000/svg" xmlns:xlink="http://www.w3.org/1999/xlink" xml:space="preserve" font-family="monospace" font-size="24" fill="rgb(255,255,255)" stroke="rgb(0,0,0)" viewBox="0 0 790 905">
<g transform="scale(0.720146)">
<path style="fill:none;stroke-width:3" stroke="rgb(0,0,0)" d="M368,504 Q394,512.5 420,521"/>
<path style="fill:none;stroke-width:3" stroke="rgb(0,0,0)" d="M377,474 Q403,482.5 429,491"/>
<path style="fill:none;stroke-width:3" stroke="rgb(0,0,0)" d="M386,444 Q412,452.5 438,461"/>
<path style="fill:none;stroke-width:3" stroke="rgb(0,0,0)" d="M395,414 Q421,422.5 447,431"/>
<path style="fill:none;stroke-width:3" stroke="rgb(0,0,0)" d="M404,384 Q430,392.5 456,401"/>
<path style="fill:none;stroke-width:3" stroke="rgb(0,0,0)" d="M413,354 Q439,362.5 465,371"/>
<path style="fill:none;stroke-width:3" stroke="rgb(0,0,0)" d="M422,324 Q448,332.5 474,341"/>
<path style="fill:none;stroke-width:3" stroke="rgb(0,0,0)" d="M161,323 Q174.5,299 188,275"/>
<path style="fill:none;stroke-width:3" stroke="rgb(0,0,0)" d="M134,308 Q147.5,284 161,260"/>
<path style="fill:none;stroke-width:3" stroke="rgb(0,0,0)" d="M107,293 Q120.5,269 134,245"/>
<path style="fill:none;stroke-width:3" stroke="rgb(0,0,0)" d="M80,278 Q93.5,254 107,230"/>
<path style="fill:none;stroke-width:3" stroke="rgb(0,0,0)" d="M504,196 Q530,205.5 556,215"/>
<path style="fill:none;stroke-width:3" stroke="rgb(0,0,0)" d="M514,167 Q540,176.5 566,186"/>
<path style="fill:none;stroke-width:3" stroke="rgb(0,0,0)" d="M524,138 Q550,147.5 576,157"/>
<path style="fill:none;stroke-width:3" stroke="rgb(0,0,0)" d="M688,449 Q689,476.5 690,504"/>
<path style="fill:none;stroke-width:3" stroke="rgb(0,0,0)" d="M719,448 Q720,475.5 721,503"/>
<path style="fill:none;stroke-width:3" stroke="rgb(0,0,0)" d="M750,447 Q751,474.5 752,502"/>
<path style="fill:none;stroke-width:3" stroke="rgb(0,0,0)" d="M781,446 Q782,473.5 783,501"/>
<path style="fill:none;stroke-width:3" stroke="rgb(0,0,0)" d="M812,445 Q813,472.5 814,500"/>
<line style="fill:none;stroke-width:1" stroke="rgb(0,0,0)" x1="206" y1="903" x2="165" y2="876"/> <circle style="stroke-width:1" cx="206" cy="903" r="12" fill="rgb(255,255,255)" stroke="rgb(0,0,0)"/> <text x="198" y="911" fill="rgb(0,0,0)" stroke="rgb(0,0,0)">A</text>
<line style="fill:none;stroke-width:1" stroke="rgb(0,0,0)" x1="165" y1="876" x2="130" y2="840"/> <circle style="stroke-width:1" cx="165" cy="876" r="12" fill="rgb(255,255,255)" stroke="rgb(0,0,0)"/> <text x="157" y="884" fill="rgb(0,0,0)" stroke="rgb(0,0,0)">A</text>
<line style="fill:none;stroke-width:1" stroke="rgb(0,0,0)" x1="130" y1="840" x2="105" y2="797"/> <circle style="stroke-width:1" cx="130" cy="840" r="12" fill="rgb(255,255,255)" stroke="rgb(0,0,0)"/> <text x="122" y="848" fill="rgb(0,0,0)" stroke="rgb(0,0,0)">A</text>
<line style="fill:none;stroke-width:1" stroke="rgb(0,0,0)" x1="105" y1="797" x2="90" y2="750"/> <circle style="stroke-width:1" cx="105" cy="797" r="12" fill="rgb(255,255,255)" stroke="rgb(0,0,0)"/> <text x="97" y="805" fill="rgb(0,0,0)" stroke="rgb(0,0,0)">U</text>
<line style="fill:none;stroke-width:1" stroke="rgb(0,0,0)" x1="90" y1="750" x2="86" y2="700"/> <circle style="stroke-width:1" cx="90" cy="750" r="12" fill="rgb(255,255,255)" stroke="rgb(0,0,0)"/> <text x="82" y="758" fill="rgb(0,0,0)" stroke="rgb(0,0,0)">U</text>
<line style="fill:none;stroke-width:1" stroke="rgb(0,0,0)" x1="86" y1="700" x2="94" y2="651"/> <circle style="stroke-width:1" cx="86" cy="700" r="12" fill="rgb(255,255,255)" stroke="rgb(0,0,0)"/> <text x="78" y="708" fill="rgb(0,0,0)" stroke="rgb(0,0,0)">U</text>
<line style="fill:none;stroke-width:1" stroke="rgb(0,0,0)" x1="94" y1="651" x2="113" y2="605"/> <circle style="stroke-width:1" cx="94" cy="651" r="12" fill="rgb(255,255,255)" stroke="rgb(0,0,0)"/> <text x="86" y="659" fill="rgb(0,0,0)" stroke="rgb(0,0,0)">G</text>
<line style="fill:none;stroke-width:1" stroke="rgb(0,0,0)" x1="113" y1="605" x2="142" y2="565"/> <circle style="stroke-width:1" cx="113" cy="605" r="12" fill="rgb(255,255,255)" stroke="rgb(0,0,0)"/> <text x="105" y="613" fill="rgb(0,0,0)" stroke="rgb(0,0,0)">U</text>
<line style="fill:none;stroke-width:1" stroke="rgb(0,0,0)" x1="142" y1="565" x2="179" y2="532"/> <circle style="stroke-width:1" cx="142" cy="565" r="12" fill="rgb(255,255,255)" stroke="rgb(0,0,0)"/> <text x="134" y="573" fill="rgb(0,0,0)" stroke="rgb(0,0,0)">U</text>
<line style="fill:none;stroke-width:1" stroke="rgb(0,0,0)" x1="179" y1="532" x2="223" y2="509"/> <line style="fill:none;stroke-width:1" stroke="rgb(0,0,0)" x1="179" y1="532" x2="116" y2="441"/> <rect x="101" y="429" width="30" height="24" fill="rgb(255,255,255)" stroke="rgb(255,255,255)"/> <text x="101" y="449" fill="rgb(0,0,0)" stroke="rgb(0,0,0)">10</text> <circle style="stroke-width:1" cx="179" cy="532" r="12" fill="rgb(255,255,255)" stroke="rgb(0,0,0)"/> <text x="171" y="540" fill="rgb(0,0,0)" stroke="rgb(0,0,0)">G</text>
<line style="fill:none;stroke-width:1" stroke="rgb(0,0,0)" x1="223" y1="509" x2="271" y2="496"/> <circle style="stroke-width:1" cx="223" cy="509" r="12" fill="rgb(255,255,255)" stroke="rgb(0,0,0)"/> <text x="215" y="517" fill="rgb(0,0,0)" stroke="rgb(0,0,0)">G</text>
<line style="fill:none;stroke-width:1" stroke="rgb(0,0,0)" x1="271" y1="496" x2="319" y2="494"/> <circle style="stroke-width:1" cx="271" cy="496" r="12" fill="rgb(255,255,255)" stroke="rgb(0,0,0)"/> <text x="263" y="504" fill="rgb(0,0,0)" stroke="rgb(0,0,0)">C</text>
<line style="fill:none;stroke-width:1" stroke="rgb(0,0,0)" x1="319" y1="494" x2="368" y2="504"/> <circle style="stroke-width:1" cx="319" cy="494" r="12" fill="rgb(255,255,255)" stroke="rgb(0,0,0)"/> <text x="311" y="502" fill="rgb(0,0,0)" stroke="rgb(0,0,0)">U</text>
<line style="fill:none;stroke-width:1" stroke="rgb(0,0,0)" x1="368" y1="504" x2="377" y2="474"/> <circle style="stroke-width:1" cx="368" cy="504" r="12" fill="rgb(255,255,255)" stroke="rgb(0,0,0)"/> <text x="360" y="512" fill="rgb(0,0,0)" stroke="rgb(0,0,0)">G</text>
<line style="fill:none;stroke-width:1" stroke="rgb(0,0,0)" x1="377" y1="474" x2="386" y2="444"/> <circle style="stroke-width:1" cx="377" cy="474" r="12" fill="rgb(255,255,255)" stroke="rgb(0,0,0)"/> <text x="369" y="482" fill="rgb(0,0,0)" stroke="rgb(0,0,0)">C</text>
<line style="fill:none;stroke-width:1" stroke="rgb(0,0,0)" x1="386" y1="444" x2="395" y2="414"/> <circle style="stroke-width:1" cx="386" cy="444" r="12" fill="rgb(255,255,255)" stroke="rgb(0,0,0)"/> <text x="378" y="452" fill="rgb(0,0,0)" stroke="rgb(0,0,0)">U</text>
<line style="fill:none;stroke-width:1" stroke="rgb(0,0,0)" x1="395" y1="414" x2="404" y2="384"/> <circle style="stroke-width:1" cx="395" cy="414" r="12" fill="rgb(255,255,255)" stroke="rgb(0,0,0)"/> <text x="387" y="422" fill="rgb(0,0,0)" stroke="rgb(0,0,0)">U</text>
<line style="fill:none;stroke-width:1" stroke="rgb(0,0,0)" x1="404" y1="384" x2="413" y2="354"/> <circle style="stroke-width:1" cx="404" cy="384" r="12" fill="rgb(255,255,255)" stroke="rgb(0,0,0)"/> <text x="396" y="392" fill="rgb(0,0,0)" stroke="rgb(0,0,0)">G</text>
<line style="fill:none;stroke-width:1" stroke="rgb(0,0,0)" x1="413" y1="354" x2="422" y2="324"/> <circle style="stroke-width:1" cx="413" cy="354" r="12" fill="rgb(255,255,255)" stroke="rgb(0,0,0)"/> <text x="405" y="362" fill="rgb(0,0,0)" stroke="rgb(0,0,0)">A</text>
<line style="fill:none;stroke-width:1" stroke="rgb(0,0,0)" x1="422" y1="324" x2="292" y2="324"/> <line style="fill:none;stroke-width:1" stroke="rgb(0,0,0)" x1="422" y1="324" x2="316" y2="290"/> <rect x="301" y="278" width="30" height="24" fill="rgb(255,255,255)" stroke="rgb(255,255,255)"/> <text x="301" y="298" fill="rgb(0,0,0)" stroke="rgb(0,0,0)">20</text> <circle style="stroke-width:1" cx="422" cy="324" r="12" fill="rgb(255,255,255)" stroke="rgb(0,0,0)"/> <text x="414" y="332" fill="rgb(0,0,0)" stroke="rgb(0,0,0)">G</text>
<line style="fill:none;stroke-width:1" stroke="rgb(0,0,0)" x1="292" y1="324" x2="161" y2="323"/> <circle style="stroke-width:1" cx="292" cy="324" r="12" fill="rgb(255,255,255)" stroke="rgb(0,0,0)"/> <text x="284" y="332" fill="rgb(0,0,0)" stroke="rgb(0,0,0)">C</text>
<line style="fill:none;stroke-width:1" stroke="rgb(0,0,0)" x1="161" y1="323" x2="134" y2="308"/> <circle style="stroke-width:1" cx="161" cy="323" r="12" fill="rgb(255,255,255)" stroke="rgb(0,0,0)"/> <text x="153" y="331" fill="rgb(0,0,0)" stroke="rgb(0,0,0)">U</text>
<line style="fill:none;stroke-width:1" stroke="rgb(0,0,0)" x1="134" y1="308" x2="107" y2="293"/> <circle style="stroke-width:1" cx="134" cy="308" r="12" fill="rgb(255,255,255)" stroke="rgb(0,0,0)"/> <text x="126" y="316" fill="rgb(0,0,0)" stroke="rgb(0,0,0)">G</text>
<line style="fill:none;stroke-width:1" stroke="rgb(0,0,0)" x1="107" y1="293" x2="80" y2="278"/> <circle style="stroke-width:1" cx="107" cy="293" r="12" fill="rgb(255,255,255)" stroke="rgb(0,0,0)"/> <text x="99" y="301" fill="rgb(0,0,0)" stroke="rgb(0,0,0)">G</text>
<line style="fill:none;stroke-width:1" stroke="rgb(0,0,0)" x1="80" y1="278" x2="41" y2="261"/> <circle style="stroke-width:1" cx="80" cy="278" r="12" fill="rgb(255,255,255)" stroke="rgb(0,0,0)"/> <text x="72" y="286" fill="rgb(0,0,0)" stroke="rgb(0,0,0)">G</text>
<line style="fill:none;stroke-width:1" stroke="rgb(0,0,0)" x1="41" y1="261" x2="36" y2="222"/> <circle style="stroke-width:1" cx="41" cy="261" r="12" fill="rgb(255,255,255)" stroke="rgb(0,0,0)"/> <text x="33" y="269" fill="rgb(0,0,0)" stroke="rgb(0,0,0)">A</text>
<line style="fill:none;stroke-width:1" stroke="rgb(0,0,0)" x1="36" y1="222" x2="72" y2="206"/> <circle style="stroke-width:1" cx="36" cy="222" r="12" fill="rgb(255,255,255)" stroke="rgb(0,0,0)"/> <text x="28" y="230" fill="rgb(0,0,0)" stroke="rgb(0,0,0)">U</text>
<line style="fill:none;stroke-width:1" stroke="rgb(0,0,0)" x1="72" y1="206" x2="107" y2="230"/> <circle style="stroke-width:1" cx="72" cy="206" r="12" fill="rgb(255,255,255)" stroke="rgb(0,0,0)"/> <text x="64" y="214" fill="rgb(0,0,0)" stroke="rgb(0,0,0)">A</text>
<line style="fill:none;stroke-width:1" stroke="rgb(0,0,0)" x1="107" y1="230" x2="134" y2="245"/> <circle style="stroke-width:1" cx="107" cy="230" r="12" fill="rgb(255,255,255)" stroke="rgb(0,0,0)"/> <text x="99" y="238" fill="rgb(0,0,0)" stroke="rgb(0,0,0)">U</text>
<line style="fill:none;stroke-width:1" stroke="rgb(0,0,0)" x1="134" y1="245" x2="161" y2="260"/> <line style="fill:none;stroke-width:1" stroke="rgb(0,0,0)" x1="134" y1="245" x2="188" y2="148"/> <rect x="173" y="136" width="30" height="24" fill="rgb(255,255,255)" stroke="rgb(255,255,255)"/> <text x="173" y="156" fill="rgb(0,0,0)" stroke="rgb(0,0,0)">30</text> <circle style="stroke-width:1" cx="134" cy="245" r="12" fill="rgb(255,255,255)" stroke="rgb(0,0,0)"/> <text x="126" y="253" fill="rgb(0,0,0)" stroke="rgb(0,0,0)">U</text>
<line style="fill:none;stroke-width:1" stroke="rgb(0,0,0)" x1="161" y1="260" x2="188" y2="275"/> <circle style="stroke-width:1" cx="161" cy="260" r="12" fill="rgb(255,255,255)" stroke="rgb(0,0,0)"/> <text x="153" y="268" fill="rgb(0,0,0)" stroke="rgb(0,0,0)">C</text>
<line style="fill:none;stroke-width:1" stroke="rgb(0,0,0)" x1="188" y1="275" x2="224" y2="246"/> <circle style="stroke-width:1" cx="188" cy="275" r="12" fill="rgb(255,255,255)" stroke="rgb(0,0,0)"/> <text x="180" y="283" fill="rgb(0,0,0)" stroke="rgb(0,0,0)">A</text>
<line style="fill:none;stroke-width:1" stroke="rgb(0,0,0)" x1="224" y1="246" x2="264" y2="217"/> <circle style="stroke-width:1" cx="224" cy="246" r="12" fill="rgb(255,255,255)" stroke="rgb(0,0,0)"/> <text x="216" y="254" fill="rgb(0,0,0)" stroke="rgb(0,0,0)">U</text>
<line style="fill:none;stroke-width:1" stroke="rgb(0,0,0)" x1="264" y1="217" x2="309" y2="196"/> <circle style="stroke-width:1" cx="264" cy="217" r="12" fill="rgb(255,255,255)" stroke="rgb(0,0,0)"/> <text x="256" y="225" fill="rgb(0,0,0)" stroke="rgb(0,0,0)">C</text>
<line style="fill:none;stroke-width:1" stroke="rgb(0,0,0)" x1="309" y1="196" x2="357" y2="183"/> <circle style="stroke-width:1" cx="309" cy="196" r="12" fill="rgb(255,255,255)" stroke="rgb(0,0,0)"/> <text x="301" y="204" fill="rgb(0,0,0)" stroke="rgb(0,0,0)">U</text>
<line style="fill:none;stroke-width:1" stroke="rgb(0,0,0)" x1="357" y1="183" x2="407" y2="179"/> <circle style="stroke-width:1" cx="357" cy="183" r="12" fill="rgb(255,255,255)" stroke="rgb(0,0,0)"/> <text x="349" y="191" fill="rgb(0,0,0)" stroke="rgb(0,0,0)">U</text>
<line style="fill:none;stroke-width:1" stroke="rgb(0,0,0)" x1="407" y1="179" x2="456" y2="183"/> <circle style="stroke-width:1" cx="407" cy="179" r="12" fill="rgb(255,255,255)" stroke="rgb(0,0,0)"/> <text x="399" y="187" fill="rgb(0,0,0)" stroke="rgb(0,0,0)">U</text>
<line style="fill:none;stroke-width:1" stroke="rgb(0,0,0)" x1="456" y1="183" x2="504" y2="196"/> <circle style="stroke-width:1" cx="456" cy="183" r="12" fill="rgb(255,255,255)" stroke="rgb(0,0,0)"/> <text x="448" y="191" fill="rgb(0,0,0)" stroke="rgb(0,0,0)">C</text>
<line style="fill:none;stroke-width:1" stroke="rgb(0,0,0)" x1="504" y1="196" x2="514" y2="167"/> <circle style="stroke-width:1" cx="504" cy="196" r="12" fill="rgb(255,255,255)" stroke="rgb(0,0,0)"/> <text x="496" y="204" fill="rgb(0,0,0)" stroke="rgb(0,0,0)">U</text>
<line style="fill:none;stroke-width:1" stroke="rgb(0,0,0)" x1="514" y1="167" x2="524" y2="138"/> <line style="fill:none;stroke-width:1" stroke="rgb(0,0,0)" x1="514" y1="167" x2="409" y2="129"/> <rect x="394" y="117" width="30" height="24" fill="rgb(255,255,255)" stroke="rgb(255,255,255)"/> <text x="394" y="137" fill="rgb(0,0,0)" stroke="rgb(0,0,0)">40</text> <circle style="stroke-width:1" cx="514" cy="167" r="12" fill="rgb(255,255,255)" stroke="rgb(0,0,0)"/> <text x="506" y="175" fill="rgb(0,0,0)" stroke="rgb(0,0,0)">C</text>
<line style="fill:none;stroke-width:1" stroke="rgb(0,0,0)" x1="524" y1="138" x2="512" y2="102"/> <circle style="stroke-width:1" cx="524" cy="138" r="12" fill="rgb(255,255,255)" stroke="rgb(0,0,0)"/> <text x="516" y="146" fill="rgb(0,0,0)" stroke="rgb(0,0,0)">C</text>
<line style="fill:none;stroke-width:1" stroke="rgb(0,0,0)" x1="512" y1="102" x2="519" y2="62"/> <circle style="stroke-width:1" cx="512" cy="102" r="12" fill="rgb(255,255,255)" stroke="rgb(0,0,0)"/> <text x="504" y="110" fill="rgb(0,0,0)" stroke="rgb(0,0,0)">U</text>
<line style="fill:none;stroke-width:1" stroke="rgb(0,0,0)" x1="519" y1="62" x2="550" y2="36"/> <circle style="stroke-width:1" cx="519" cy="62" r="12" fill="rgb(255,255,255)" stroke="rgb(0,0,0)"/> <text x="511" y="70" fill="rgb(0,0,0)" stroke="rgb(0,0,0)">G</text>
<line style="fill:none;stroke-width:1" stroke="rgb(0,0,0)" x1="550" y1="36" x2="591" y2="37"/> <circle style="stroke-width:1" cx="550" cy="36" r="12" fill="rgb(255,255,255)" stroke="rgb(0,0,0)"/> <text x="542" y="44" fill="rgb(0,0,0)" stroke="rgb(0,0,0)">A</text>
<line style="fill:none;stroke-width:1" stroke="rgb(0,0,0)" x1="591" y1="37" x2="622" y2="63"/> <circle style="stroke-width:1" cx="591" cy="37" r="12" fill="rgb(255,255,255)" stroke="rgb(0,0,0)"/> <text x="583" y="45" fill="rgb(0,0,0)" stroke="rgb(0,0,0)">U</text>
<line style="fill:none;stroke-width:1" stroke="rgb(0,0,0)" x1="622" y1="63" x2="629" y2="103"/> <circle style="stroke-width:1" cx="622" cy="63" r="12" fill="rgb(255,255,255)" stroke="rgb(0,0,0)"/> <text x="614" y="71" fill="rgb(0,0,0)" stroke="rgb(0,0,0)">C</text>
<line style="fill:none;stroke-width:1" stroke="rgb(0,0,0)" x1="629" y1="103" x2="608" y2="138"/> <circle style="stroke-width:1" cx="629" cy="103" r="12" fill="rgb(255,255,255)" stroke="rgb(0,0,0)"/> <text x="621" y="111" fill="rgb(0,0,0)" stroke="rgb(0,0,0)">U</text>
<line style="fill:none;stroke-width:1" stroke="rgb(0,0,0)" x1="608" y1="138" x2="576" y2="157"/> <circle style="stroke-width:1" cx="608" cy="138" r="12" fill="rgb(255,255,255)" stroke="rgb(0,0,0)"/> <text x="600" y="146" fill="rgb(0,0,0)" stroke="rgb(0,0,0)">U</text>
<line style="fill:none;stroke-width:1" stroke="rgb(0,0,0)" x1="576" y1="157" x2="566" y2="186"/> <circle style="stroke-width:1" cx="576" cy="157" r="12" fill="rgb(255,255,255)" stroke="rgb(0,0,0)"/> <text x="568" y="165" fill="rgb(0,0,0)" stroke="rgb(0,0,0)">G</text>
<line style="fill:none;stroke-width:1" stroke="rgb(0,0,0)" x1="566" y1="186" x2="556" y2="215"/> <line style="fill:none;stroke-width:1" stroke="rgb(0,0,0)" x1="566" y1="186" x2="671" y2="224"/> <rect x="656" y="212" width="30" height="24" fill="rgb(255,255,255)" stroke="rgb(255,255,255)"/> <text x="656" y="232" fill="rgb(0,0,0)" stroke="rgb(0,0,0)">50</text> <circle style="stroke-width:1" cx="566" cy="186" r="12" fill="rgb(255,255,255)" stroke="rgb(0,0,0)"/> <text x="558" y="194" fill="rgb(0,0,0)" stroke="rgb(0,0,0)">G</text>
<line style="fill:none;stroke-width:1" stroke="rgb(0,0,0)" x1="556" y1="215" x2="663" y2="342"/> <circle style="stroke-width:1" cx="556" cy="215" r="12" fill="rgb(255,255,255)" stroke="rgb(0,0,0)"/> <text x="548" y="223" fill="rgb(0,0,0)" stroke="rgb(0,0,0)">A</text>
<line style="fill:none;stroke-width:1" stroke="rgb(0,0,0)" x1="663" y1="342" x2="688" y2="449"/> <circle style="stroke-width:1" cx="663" cy="342" r="12" fill="rgb(255,255,255)" stroke="rgb(0,0,0)"/> <text x="655" y="350" fill="rgb(0,0,0)" stroke="rgb(0,0,0)">C</text>
<line style="fill:none;stroke-width:1" stroke="rgb(0,0,0)" x1="688" y1="449" x2="719" y2="448"/> <circle style="stroke-width:1" cx="688" cy="449" r="12" fill="rgb(255,255,255)" stroke="rgb(0,0,0)"/> <text x="680" y="457" fill="rgb(0,0,0)" stroke="rgb(0,0,0)">A</text>
<line style="fill:none;stroke-width:1" stroke="rgb(0,0,0)" x1="719" y1="448" x2="750" y2="447"/> <circle style="stroke-width:1" cx="719" cy="448" r="12" fill="rgb(255,255,255)" stroke="rgb(0,0,0)"/> <text x="711" y="456" fill="rgb(0,0,0)" stroke="rgb(0,0,0)">U</text>
<line style="fill:none;stroke-width:1" stroke="rgb(0,0,0)" x1="750" y1="447" x2="781" y2="446"/> <circle style="stroke-width:1" cx="750" cy="447" r="12" fill="rgb(255,255,255)" stroke="rgb(0,0,0)"/> <text x="742" y="455" fill="rgb(0,0,0)" stroke="rgb(0,0,0)">C</text>
<line style="fill:none;stroke-width:1" stroke="rgb(0,0,0)" x1="781" y1="446" x2="812" y2="445"/> <circle style="stroke-width:1" cx="781" cy="446" r="12" fill="rgb(255,255,255)" stroke="rgb(0,0,0)"/> <text x="773" y="454" fill="rgb(0,0,0)" stroke="rgb(0,0,0)">A</text>
<line style="fill:none;stroke-width:1" stroke="rgb(0,0,0)" x1="812" y1="445" x2="847" y2="427"/> <circle style="stroke-width:1" cx="812" cy="445" r="12" fill="rgb(255,255,255)" stroke="rgb(0,0,0)"/> <text x="804" y="453" fill="rgb(0,0,0)" stroke="rgb(0,0,0)">G</text>
<line style="fill:none;stroke-width:1" stroke="rgb(0,0,0)" x1="847" y1="427" x2="886" y2="434"/> <circle style="stroke-width:1" cx="847" cy="427" r="12" fill="rgb(255,255,255)" stroke="rgb(0,0,0)"/> <text x="839" y="435" fill="rgb(0,0,0)" stroke="rgb(0,0,0)">A</text>
<line style="fill:none;stroke-width:1" stroke="rgb(0,0,0)" x1="886" y1="434" x2="905" y2="470"/> <circle style="stroke-width:1" cx="886" cy="434" r="12" fill="rgb(255,255,255)" stroke="rgb(0,0,0)"/> <text x="878" y="442" fill="rgb(0,0,0)" stroke="rgb(0,0,0)">A</text>
<line style="fill:none;stroke-width:1" stroke="rgb(0,0,0)" x1="905" y1="470" x2="889" y2="506"/> <line style="fill:none;stroke-width:1" stroke="rgb(0,0,0)" x1="905" y1="470" x2="1016" y2="466"/> <rect x="1001" y="454" width="30" height="24" fill="rgb(255,255,255)" stroke="rgb(255,255,255)"/> <text x="1001" y="474" fill="rgb(0,0,0)" stroke="rgb(0,0,0)">60</text> <circle style="stroke-width:1" cx="905" cy="470" r="12" fill="rgb(255,255,255)" stroke="rgb(0,0,0)"/> <text x="897" y="478" fill="rgb(0,0,0)" stroke="rgb(0,0,0)">C</text>
<line style="fill:none;stroke-width:1" stroke="rgb(0,0,0)" x1="889" y1="506" x2="850" y2="517"/> <circle style="stroke-width:1" cx="889" cy="506" r="12" fill="rgb(255,255,255)" stroke="rgb(0,0,0)"/> <text x="881" y="514" fill="rgb(0,0,0)" stroke="rgb(0,0,0)">U</text>
<line style="fill:none;stroke-width:1" stroke="rgb(0,0,0)" x1="850" y1="517" x2="814" y2="500"/> <circle style="stroke-width:1" cx="850" cy="517" r="12" fill="rgb(255,255,255)" stroke="rgb(0,0,0)"/> <text x="842" y="525" fill="rgb(0,0,0)" stroke="rgb(0,0,0)">C</text>
<line style="fill:none;stroke-width:1" stroke="rgb(0,0,0)" x1="814" y1="500" x2="783" y2="501"/> <circle style="stroke-width:1" cx="814" cy="500" r="12" fill="rgb(255,255,255)" stroke="rgb(0,0,0)"/> <text x="806" y="508" fill="rgb(0,0,0)" stroke="rgb(0,0,0)">C</text>
<line style="fill:none;stroke-width:1" stroke="rgb(0,0,0)" x1="783" y1="501" x2="752" y2="502"/> <circle style="stroke-width:1" cx="783" cy="501" r="12" fill="rgb(255,255,255)" stroke="rgb(0,0,0)"/> <text x="775" y="509" fill="rgb(0,0,0)" stroke="rgb(0,0,0)">U</text>
<line style="fill:none;stroke-width:1" stroke="rgb(0,0,0)" x1="752" y1="502" x2="721" y2="503"/> <circle style="stroke-width:1" cx="752" cy="502" r="12" fill="rgb(255,255,255)" stroke="rgb(0,0,0)"/> <text x="744" y="510" fill="rgb(0,0,0)" stroke="rgb(0,0,0)">G</text>
<line style="fill:none;stroke-width:1" stroke="rgb(0,0,0)" x1="721" y1="503" x2="690" y2="504"/> <circle style="stroke-width:1" cx="721" cy="503" r="12" fill="rgb(255,255,255)" stroke="rgb(0,0,0)"/> <text x="713" y="511" fill="rgb(0,0,0)" stroke="rgb(0,0,0)">A</text>
<line style="fill:none;stroke-width:1" stroke="rgb(0,0,0)" x1="690" y1="504" x2="491" y2="376"/> <circle style="stroke-width:1" cx="690" cy="504" r="12" fill="rgb(255,255,255)" stroke="rgb(0,0,0)"/> <text x="682" y="512" fill="rgb(0,0,0)" stroke="rgb(0,0,0)">U</text>
<line style="fill:none;stroke-width:1" stroke="rgb(0,0,0)" x1="491" y1="376" x2="474" y2="341"/> <circle style="stroke-width:1" cx="491" cy="376" r="12" fill="rgb(255,255,255)" stroke="rgb(0,0,0)"/> <text x="483" y="384" fill="rgb(0,0,0)" stroke="rgb(0,0,0)">U</text>
<line style="fill:none;stroke-width:1" stroke="rgb(0,0,0)" x1="474" y1="341" x2="465" y2="371"/> <circle style="stroke-width:1" cx="474" cy="341" r="12" fill="rgb(255,255,255)" stroke="rgb(0,0,0)"/> <text x="466" y="349" fill="rgb(0,0,0)" stroke="rgb(0,0,0)">C</text>
<line style="fill:none;stroke-width:1" stroke="rgb(0,0,0)" x1="465" y1="371" x2="456" y2="401"/> <line style="fill:none;stroke-width:1" stroke="rgb(0,0,0)" x1="465" y1="371" x2="571" y2="405"/> <rect x="556" y="393" width="30" height="24" fill="rgb(255,255,255)" stroke="rgb(255,255,255)"/> <text x="556" y="413" fill="rgb(0,0,0)" stroke="rgb(0,0,0)">70</text> <circle style="stroke-width:1" cx="465" cy="371" r="12" fill="rgb(255,255,255)" stroke="rgb(0,0,0)"/> <text x="457" y="379" fill="rgb(0,0,0)" stroke="rgb(0,0,0)">U</text>
<line style="fill:none;stroke-width:1" stroke="rgb(0,0,0)" x1="456" y1="401" x2="447" y2="431"/> <circle style="stroke-width:1" cx="456" cy="401" r="12" fill="rgb(255,255,255)" stroke="rgb(0,0,0)"/> <text x="448" y="409" fill="rgb(0,0,0)" stroke="rgb(0,0,0)">C</text>
<line style="fill:none;stroke-width:1" stroke="rgb(0,0,0)" x1="447" y1="431" x2="438" y2="461"/> <circle style="stroke-width:1" cx="447" cy="431" r="12" fill="rgb(255,255,255)" stroke="rgb(0,0,0)"/> <text x="439" y="439" fill="rgb(0,0,0)" stroke="rgb(0,0,0)">A</text>
<line style="fill:none;stroke-width:1" stroke="rgb(0,0,0)" x1="438" y1="461" x2="429" y2="491"/> <circle style="stroke-width:1" cx="438" cy="461" r="12" fill="rgb(255,255,255)" stroke="rgb(0,0,0)"/> <text x="430" y="469" fill="rgb(0,0,0)" stroke="rgb(0,0,0)">A</text>
<line style="fill:none;stroke-width:1" stroke="rgb(0,0,0)" x1="429" y1="491" x2="420" y2="521"/> <circle style="stroke-width:1" cx="429" cy="491" r="12" fill="rgb(255,255,255)" stroke="rgb(0,0,0)"/> <text x="421" y="499" fill="rgb(0,0,0)" stroke="rgb(0,0,0)">G</text>
<line style="fill:none;stroke-width:1" stroke="rgb(0,0,0)" x1="420" y1="521" x2="496" y2="616"/> <circle style="stroke-width:1" cx="420" cy="521" r="12" fill="rgb(255,255,255)" stroke="rgb(0,0,0)"/> <text x="412" y="529" fill="rgb(0,0,0)" stroke="rgb(0,0,0)">C</text>
<line style="fill:none;stroke-width:1" stroke="rgb(0,0,0)" x1="496" y1="616" x2="517" y2="700"/> <circle style="stroke-width:1" cx="496" cy="616" r="12" fill="rgb(255,255,255)" stroke="rgb(0,0,0)"/> <text x="488" y="624" fill="rgb(0,0,0)" stroke="rgb(0,0,0)">C</text>
<line style="fill:none;stroke-width:1" stroke="rgb(0,0,0)" x1="517" y1="700" x2="503" y2="785"/> <circle style="stroke-width:1" cx="517" cy="700" r="12" fill="rgb(255,255,255)" stroke="rgb(0,0,0)"/> <text x="509" y="708" fill="rgb(0,0,0)" stroke="rgb(0,0,0)">U</text>
<line style="fill:none;stroke-width:1" stroke="rgb(0,0,0)" x1="503" y1="785" x2="457" y2="859"/> <circle style="stroke-width:1" cx="503" cy="785" r="12" fill="rgb(255,255,255)" stroke="rgb(0,0,0)"/> <text x="495" y="793" fill="rgb(0,0,0)" stroke="rgb(0,0,0)">U</text>
<line style="fill:none;stroke-width:1" stroke="rgb(0,0,0)" x1="457" y1="859" x2="386" y2="908"/> <circle style="stroke-width:1" cx="457" cy="859" r="12" fill="rgb(255,255,255)" stroke="rgb(0,0,0)"/> <text x="449" y="867" fill="rgb(0,0,0)" stroke="rgb(0,0,0)">U</text>
<line style="fill:none;stroke-width:1" stroke="rgb(0,0,0)" x1="386" y1="908" x2="430" y2="1010"/> <rect x="415" y="998" width="30" height="24" fill="rgb(255,255,255)" stroke="rgb(255,255,255)"/> <text x="415" y="1018" fill="rgb(0,0,0)" stroke="rgb(0,0,0)">80</text> <circle style="stroke-width:1" cx="386" cy="908" r="12" fill="rgb(255,255,255)" stroke="rgb(0,0,0)"/> <text x="378" y="916" fill="rgb(0,0,0)" stroke="rgb(0,0,0)">G</text>
</g>
<g font-size="16">
<text x="36" y="892" fill="rgb(0,0,0)" stroke="rgb(0,0,0)">ENERGY = -17.0  ENST00000539026.1</text>
</g>
</svg>
