<?xml version="1.0" encoding="UTF-8" standalone="no"?>
<!DOCTYPE svg PUBLIC "-//W3C//DTD SVG 1.1//EN" "http://www.w3.org/Graphics/SVG/1.1/DTD/svg11.dtd">
<svg xmlns="http://www.w3.org/2000/svg" xmlns:xlink="http://www.w3.org/1999/xlink" xml:space="preserve" font-family="monospace" font-size="24" fill="rgb(255,255,255)" stroke="rgb(0,0,0)" viewBox="0 0 790 905">
<g transform="scale(0.520422)">
<path style="fill:none;stroke-width:3" stroke="rgb(0,0,0)" d="M804,635 Q822,656 840,677"/>
<path style="fill:none;stroke-width:3" stroke="rgb(0,0,0)" d="M828,615 Q846,636 864,657"/>
<path style="fill:none;stroke-width:3" stroke="rgb(0,0,0)" d="M852,595 Q870,616 888,637"/>
<path style="fill:none;stroke-width:3" stroke="rgb(0,0,0)" d="M876,575 Q894,596 912,617"/>
<path style="fill:none;stroke-width:3" stroke="rgb(0,0,0)" d="M900,555 Q918,576 936,597"/>
<path style="fill:none;stroke-width:3" stroke="rgb(0,0,0)" d="M924,535 Q942,556 960,577"/>
<path style="fill:none;stroke-width:3" stroke="rgb(0,0,0)" d="M948,515 Q966,536 984,557"/>
<path style="fill:none;stroke-width:3" stroke="rgb(0,0,0)" d="M972,495 Q990,516 1008,537"/>
<path style="fill:none;stroke-width:3" stroke="rgb(0,0,0)" d="M1092,396 Q1109,417.5 1126,439"/>
<path style="fill:none;stroke-width:3" stroke="rgb(0,0,0)" d="M1116,377 Q1133,398.5 1150,420"/>
<path style="fill:none;stroke-width:3" stroke="rgb(0,0,0)" d="M1140,358 Q1157,379.5 1174,401"/>
<path style="fill:none;stroke-width:3" stroke="rgb(0,0,0)" d="M1264,260 Q1281,281.5 1298,303"/>
<path style="fill:none;stroke-width:3" stroke="rgb(0,0,0)" d="M1288,241 Q1305,262.5 1322,284"/>
<path style="fill:none;stroke-width:3" stroke="rgb(0,0,0)" d="M1312,222 Q1329,243.5 1346,265"/>
<path style="fill:none;stroke-width:3" stroke="rgb(0,0,0)" d="M1336,203 Q1353,224.5 1370,246"/>
<path style="fill:none;stroke-width:3" stroke="rgb(0,0,0)" d="M1360,184 Q1377,205.5 1394,227"/>
<path style="fill:none;stroke-width:3" stroke="rgb(0,0,0)" d="M1384,165 Q1401,186.5 1418,208"/>
<line style="fill:none;stroke-width:1" stroke="rgb(0,0,0)" x1="442" y1="1194" x2="395" y2="1177"/> <circle style="stroke-width:1" cx="442" cy="1194" r="12" fill="rgb(255,255,255)" stroke="rgb(0,0,0)"/> <text x="434" y="1202" fill="rgb(0,0,0)" stroke="rgb(0,0,0)">G</text>
<line style="fill:none;stroke-width:1" stroke="rgb(0,0,0)" x1="395" y1="1177" x2="352" y2="1153"/> <circle style="stroke-width:1" cx="395" cy="1177" r="12" fill="rgb(255,255,255)" stroke="rgb(0,0,0)"/> <text x="387" y="1185" fill="rgb(0,0,0)" stroke="rgb(0,0,0)">C</text>
<line style="fill:none;stroke-width:1" stroke="rgb(0,0,0)" x1="352" y1="1153" x2="312" y2="1123"/> <circle style="stroke-width:1" cx="352" cy="1153" r="12" fill="rgb(255,255,255)" stroke="rgb(0,0,0)"/> <text x="344" y="1161" fill="rgb(0,0,0)" stroke="rgb(0,0,0)">A</text>
<line style="fill:none;stroke-width:1" stroke="rgb(0,0,0)" x1="312" y1="1123" x2="277" y2="1088"/> <circle style="stroke-width:1" cx="312" cy="1123" r="12" fill="rgb(255,255,255)" stroke="rgb(0,0,0)"/> <text x="304" y="1131" fill="rgb(0,0,0)" stroke="rgb(0,0,0)">G</text>
<line style="fill:none;stroke-width:1" stroke="rgb(0,0,0)" x1="277" y1="1088" x2="247" y2="1048"/> <circle style="stroke-width:1" cx="277" cy="1088" r="12" fill="rgb(255,255,255)" stroke="rgb(0,0,0)"/> <text x="269" y="1096" fill="rgb(0,0,0)" stroke="rgb(0,0,0)">A</text>
<line style="fill:none;stroke-width:1" stroke="rgb(0,0,0)" x1="247" y1="1048" x2="224" y2="1005"/> <circle style="stroke-width:1" cx="247" cy="1048" r="12" fill="rgb(255,255,255)" stroke="rgb(0,0,0)"/> <text x="239" y="1056" fill="rgb(0,0,0)" stroke="rgb(0,0,0)">C</text>
<line style="fill:none;stroke-width:1" stroke="rgb(0,0,0)" x1="224" y1="1005" x2="206" y2="958"/> <circle style="stroke-width:1" cx="224" cy="1005" r="12" fill="rgb(255,255,255)" stroke="rgb(0,0,0)"/> <text x="216" y="1013" fill="rgb(0,0,0)" stroke="rgb(0,0,0)">U</text>
<line style="fill:none;stroke-width:1" stroke="rgb(0,0,0)" x1="206" y1="958" x2="196" y2="909"/> <circle style="stroke-width:1" cx="206" cy="958" r="12" fill="rgb(255,255,255)" stroke="rgb(0,0,0)"/> <text x="198" y="966" fill="rgb(0,0,0)" stroke="rgb(0,0,0)">U</text>
<line style="fill:none;stroke-width:1" stroke="rgb(0,0,0)" x1="196" y1="909" x2="192" y2="860"/> <circle style="stroke-width:1" cx="196" cy="909" r="12" fill="rgb(255,255,255)" stroke="rgb(0,0,0)"/> <text x="188" y="917" fill="rgb(0,0,0)" stroke="rgb(0,0,0)">G</text>
<line style="fill:none;stroke-width:1" stroke="rgb(0,0,0)" x1="192" y1="860" x2="196" y2="810"/> <line style="fill:none;stroke-width:1" stroke="rgb(0,0,0)" x1="192" y1="860" x2="81" y2="860"/> <rect x="66" y="848" width="30" height="24" fill="rgb(255,255,255)" stroke="rgb(255,255,255)"/> <text x="66" y="868" fill="rgb(0,0,0)" stroke="rgb(0,0,0)">10</text> <circle style="stroke-width:1" cx="192" cy="860" r="12" fill="rgb(255,255,255)" stroke="rgb(0,0,0)"/> <text x="184" y="868" fill="rgb(0,0,0)" stroke="rgb(0,0,0)">A</text>
<line style="fill:none;stroke-width:1" stroke="rgb(0,0,0)" x1="196" y1="810" x2="207" y2="762"/> <circle style="stroke-width:1" cx="196" cy="810" r="12" fill="rgb(255,255,255)" stroke="rgb(0,0,0)"/> <text x="188" y="818" fill="rgb(0,0,0)" stroke="rgb(0,0,0)">A</text>
<line style="fill:none;stroke-width:1" stroke="rgb(0,0,0)" x1="207" y1="762" x2="224" y2="715"/> <circle style="stroke-width:1" cx="207" cy="762" r="12" fill="rgb(255,255,255)" stroke="rgb(0,0,0)"/> <text x="199" y="770" fill="rgb(0,0,0)" stroke="rgb(0,0,0)">U</text>
<line style="fill:none;stroke-width:1" stroke="rgb(0,0,0)" x1="224" y1="715" x2="248" y2="671"/> <circle style="stroke-width:1" cx="224" cy="715" r="12" fill="rgb(255,255,255)" stroke="rgb(0,0,0)"/> <text x="216" y="723" fill="rgb(0,0,0)" stroke="rgb(0,0,0)">A</text>
<line style="fill:none;stroke-width:1" stroke="rgb(0,0,0)" x1="248" y1="671" x2="278" y2="632"/> <circle style="stroke-width:1" cx="248" cy="671" r="12" fill="rgb(255,255,255)" stroke="rgb(0,0,0)"/> <text x="240" y="679" fill="rgb(0,0,0)" stroke="rgb(0,0,0)">G</text>
<line style="fill:none;stroke-width:1" stroke="rgb(0,0,0)" x1="278" y1="632" x2="314" y2="597"/> <circle style="stroke-width:1" cx="278" cy="632" r="12" fill="rgb(255,255,255)" stroke="rgb(0,0,0)"/> <text x="270" y="640" fill="rgb(0,0,0)" stroke="rgb(0,0,0)">A</text>
<line style="fill:none;stroke-width:1" stroke="rgb(0,0,0)" x1="314" y1="597" x2="354" y2="567"/> <circle style="stroke-width:1" cx="314" cy="597" r="12" fill="rgb(255,255,255)" stroke="rgb(0,0,0)"/> <text x="306" y="605" fill="rgb(0,0,0)" stroke="rgb(0,0,0)">A</text>
<line style="fill:none;stroke-width:1" stroke="rgb(0,0,0)" x1="354" y1="567" x2="397" y2="544"/> <circle style="stroke-width:1" cx="354" cy="567" r="12" fill="rgb(255,255,255)" stroke="rgb(0,0,0)"/> <text x="346" y="575" fill="rgb(0,0,0)" stroke="rgb(0,0,0)">C</text>
<line style="fill:none;stroke-width:1" stroke="rgb(0,0,0)" x1="397" y1="544" x2="444" y2="526"/> <circle style="stroke-width:1" cx="397" cy="544" r="12" fill="rgb(255,255,255)" stroke="rgb(0,0,0)"/> <text x="389" y="552" fill="rgb(0,0,0)" stroke="rgb(0,0,0)">U</text>
<line style="fill:none;stroke-width:1" stroke="rgb(0,0,0)" x1="444" y1="526" x2="493" y2="516"/> <circle style="stroke-width:1" cx="444" cy="526" r="12" fill="rgb(255,255,255)" stroke="rgb(0,0,0)"/> <text x="436" y="534" fill="rgb(0,0,0)" stroke="rgb(0,0,0)">A</text>
<line style="fill:none;stroke-width:1" stroke="rgb(0,0,0)" x1="493" y1="516" x2="541" y2="513"/> <line style="fill:none;stroke-width:1" stroke="rgb(0,0,0)" x1="493" y1="516" x2="478" y2="406"/> <rect x="463" y="394" width="30" height="24" fill="rgb(255,255,255)" stroke="rgb(255,255,255)"/> <text x="463" y="414" fill="rgb(0,0,0)" stroke="rgb(0,0,0)">20</text> <circle style="stroke-width:1" cx="493" cy="516" r="12" fill="rgb(255,255,255)" stroke="rgb(0,0,0)"/> <text x="485" y="524" fill="rgb(0,0,0)" stroke="rgb(0,0,0)">A</text>
<line style="fill:none;stroke-width:1" stroke="rgb(0,0,0)" x1="541" y1="513" x2="591" y2="517"/> <circle style="stroke-width:1" cx="541" cy="513" r="12" fill="rgb(255,255,255)" stroke="rgb(0,0,0)"/> <text x="533" y="521" fill="rgb(0,0,0)" stroke="rgb(0,0,0)">A</text>
<line style="fill:none;stroke-width:1" stroke="rgb(0,0,0)" x1="591" y1="517" x2="639" y2="528"/> <circle style="stroke-width:1" cx="591" cy="517" r="12" fill="rgb(255,255,255)" stroke="rgb(0,0,0)"/> <text x="583" y="525" fill="rgb(0,0,0)" stroke="rgb(0,0,0)">A</text>
<line style="fill:none;stroke-width:1" stroke="rgb(0,0,0)" x1="639" y1="528" x2="686" y2="545"/> <circle style="stroke-width:1" cx="639" cy="528" r="12" fill="rgb(255,255,255)" stroke="rgb(0,0,0)"/> <text x="631" y="536" fill="rgb(0,0,0)" stroke="rgb(0,0,0)">G</text>
<line style="fill:none;stroke-width:1" stroke="rgb(0,0,0)" x1="686" y1="545" x2="729" y2="569"/> <circle style="stroke-width:1" cx="686" cy="545" r="12" fill="rgb(255,255,255)" stroke="rgb(0,0,0)"/> <text x="678" y="553" fill="rgb(0,0,0)" stroke="rgb(0,0,0)">G</text>
<line style="fill:none;stroke-width:1" stroke="rgb(0,0,0)" x1="729" y1="569" x2="769" y2="599"/> <circle style="stroke-width:1" cx="729" cy="569" r="12" fill="rgb(255,255,255)" stroke="rgb(0,0,0)"/> <text x="721" y="577" fill="rgb(0,0,0)" stroke="rgb(0,0,0)">A</text>
<line style="fill:none;stroke-width:1" stroke="rgb(0,0,0)" x1="769" y1="599" x2="804" y2="635"/> <circle style="stroke-width:1" cx="769" cy="599" r="12" fill="rgb(255,255,255)" stroke="rgb(0,0,0)"/> <text x="761" y="607" fill="rgb(0,0,0)" stroke="rgb(0,0,0)">A</text>
<line style="fill:none;stroke-width:1" stroke="rgb(0,0,0)" x1="804" y1="635" x2="828" y2="615"/> <circle style="stroke-width:1" cx="804" cy="635" r="12" fill="rgb(255,255,255)" stroke="rgb(0,0,0)"/> <text x="796" y="643" fill="rgb(0,0,0)" stroke="rgb(0,0,0)">G</text>
<line style="fill:none;stroke-width:1" stroke="rgb(0,0,0)" x1="828" y1="615" x2="852" y2="595"/> <circle style="stroke-width:1" cx="828" cy="615" r="12" fill="rgb(255,255,255)" stroke="rgb(0,0,0)"/> <text x="820" y="623" fill="rgb(0,0,0)" stroke="rgb(0,0,0)">A</text>
<line style="fill:none;stroke-width:1" stroke="rgb(0,0,0)" x1="852" y1="595" x2="876" y2="575"/> <circle style="stroke-width:1" cx="852" cy="595" r="12" fill="rgb(255,255,255)" stroke="rgb(0,0,0)"/> <text x="844" y="603" fill="rgb(0,0,0)" stroke="rgb(0,0,0)">G</text>
<line style="fill:none;stroke-width:1" stroke="rgb(0,0,0)" x1="876" y1="575" x2="900" y2="555"/> <line style="fill:none;stroke-width:1" stroke="rgb(0,0,0)" x1="876" y1="575" x2="804" y2="490"/> <rect x="789" y="478" width="30" height="24" fill="rgb(255,255,255)" stroke="rgb(255,255,255)"/> <text x="789" y="498" fill="rgb(0,0,0)" stroke="rgb(0,0,0)">30</text> <circle style="stroke-width:1" cx="876" cy="575" r="12" fill="rgb(255,255,255)" stroke="rgb(0,0,0)"/> <text x="868" y="583" fill="rgb(0,0,0)" stroke="rgb(0,0,0)">G</text>
<line style="fill:none;stroke-width:1" stroke="rgb(0,0,0)" x1="900" y1="555" x2="924" y2="535"/> <circle style="stroke-width:1" cx="900" cy="555" r="12" fill="rgb(255,255,255)" stroke="rgb(0,0,0)"/> <text x="892" y="563" fill="rgb(0,0,0)" stroke="rgb(0,0,0)">A</text>
<line style="fill:none;stroke-width:1" stroke="rgb(0,0,0)" x1="924" y1="535" x2="948" y2="515"/> <circle style="stroke-width:1" cx="924" cy="535" r="12" fill="rgb(255,255,255)" stroke="rgb(0,0,0)"/> <text x="916" y="543" fill="rgb(0,0,0)" stroke="rgb(0,0,0)">A</text>
<line style="fill:none;stroke-width:1" stroke="rgb(0,0,0)" x1="948" y1="515" x2="972" y2="495"/> <circle style="stroke-width:1" cx="948" cy="515" r="12" fill="rgb(255,255,255)" stroke="rgb(0,0,0)"/> <text x="940" y="523" fill="rgb(0,0,0)" stroke="rgb(0,0,0)">G</text>
<line style="fill:none;stroke-width:1" stroke="rgb(0,0,0)" x1="972" y1="495" x2="971" y2="459"/> <circle style="stroke-width:1" cx="972" cy="495" r="12" fill="rgb(255,255,255)" stroke="rgb(0,0,0)"/> <text x="964" y="503" fill="rgb(0,0,0)" stroke="rgb(0,0,0)">G</text>
<line style="fill:none;stroke-width:1" stroke="rgb(0,0,0)" x1="971" y1="459" x2="999" y2="405"/> <circle style="stroke-width:1" cx="971" cy="459" r="12" fill="rgb(255,255,255)" stroke="rgb(0,0,0)"/> <text x="963" y="467" fill="rgb(0,0,0)" stroke="rgb(0,0,0)">G</text>
<line style="fill:none;stroke-width:1" stroke="rgb(0,0,0)" x1="999" y1="405" x2="1057" y2="388"/> <circle style="stroke-width:1" cx="999" cy="405" r="12" fill="rgb(255,255,255)" stroke="rgb(0,0,0)"/> <text x="991" y="413" fill="rgb(0,0,0)" stroke="rgb(0,0,0)">C</text>
<line style="fill:none;stroke-width:1" stroke="rgb(0,0,0)" x1="1057" y1="388" x2="1092" y2="396"/> <circle style="stroke-width:1" cx="1057" cy="388" r="12" fill="rgb(255,255,255)" stroke="rgb(0,0,0)"/> <text x="1049" y="396" fill="rgb(0,0,0)" stroke="rgb(0,0,0)">A</text>
<line style="fill:none;stroke-width:1" stroke="rgb(0,0,0)" x1="1092" y1="396" x2="1116" y2="377"/> <circle style="stroke-width:1" cx="1092" cy="396" r="12" fill="rgb(255,255,255)" stroke="rgb(0,0,0)"/> <text x="1084" y="404" fill="rgb(0,0,0)" stroke="rgb(0,0,0)">A</text>
<line style="fill:none;stroke-width:1" stroke="rgb(0,0,0)" x1="1116" y1="377" x2="1140" y2="358"/> <circle style="stroke-width:1" cx="1116" cy="377" r="12" fill="rgb(255,255,255)" stroke="rgb(0,0,0)"/> <text x="1108" y="385" fill="rgb(0,0,0)" stroke="rgb(0,0,0)">A</text>
<line style="fill:none;stroke-width:1" stroke="rgb(0,0,0)" x1="1140" y1="358" x2="1140" y2="322"/> <line style="fill:none;stroke-width:1" stroke="rgb(0,0,0)" x1="1140" y1="358" x2="1071" y2="271"/> <rect x="1056" y="259" width="30" height="24" fill="rgb(255,255,255)" stroke="rgb(255,255,255)"/> <text x="1056" y="279" fill="rgb(0,0,0)" stroke="rgb(0,0,0)">40</text> <circle style="stroke-width:1" cx="1140" cy="358" r="12" fill="rgb(255,255,255)" stroke="rgb(0,0,0)"/> <text x="1132" y="366" fill="rgb(0,0,0)" stroke="rgb(0,0,0)">U</text>
<line style="fill:none;stroke-width:1" stroke="rgb(0,0,0)" x1="1140" y1="322" x2="1170" y2="269"/> <circle style="stroke-width:1" cx="1140" cy="322" r="12" fill="rgb(255,255,255)" stroke="rgb(0,0,0)"/> <text x="1132" y="330" fill="rgb(0,0,0)" stroke="rgb(0,0,0)">U</text>
<line style="fill:none;stroke-width:1" stroke="rgb(0,0,0)" x1="1170" y1="269" x2="1228" y2="253"/> <circle style="stroke-width:1" cx="1170" cy="269" r="12" fill="rgb(255,255,255)" stroke="rgb(0,0,0)"/> <text x="1162" y="277" fill="rgb(0,0,0)" stroke="rgb(0,0,0)">U</text>
<line style="fill:none;stroke-width:1" stroke="rgb(0,0,0)" x1="1228" y1="253" x2="1264" y2="260"/> <circle style="stroke-width:1" cx="1228" cy="253" r="12" fill="rgb(255,255,255)" stroke="rgb(0,0,0)"/> <text x="1220" y="261" fill="rgb(0,0,0)" stroke="rgb(0,0,0)">G</text>
<line style="fill:none;stroke-width:1" stroke="rgb(0,0,0)" x1="1264" y1="260" x2="1288" y2="241"/> <circle style="stroke-width:1" cx="1264" cy="260" r="12" fill="rgb(255,255,255)" stroke="rgb(0,0,0)"/> <text x="1256" y="268" fill="rgb(0,0,0)" stroke="rgb(0,0,0)">U</text>
<line style="fill:none;stroke-width:1" stroke="rgb(0,0,0)" x1="1288" y1="241" x2="1312" y2="222"/> <circle style="stroke-width:1" cx="1288" cy="241" r="12" fill="rgb(255,255,255)" stroke="rgb(0,0,0)"/> <text x="1280" y="249" fill="rgb(0,0,0)" stroke="rgb(0,0,0)">U</text>
<line style="fill:none;stroke-width:1" stroke="rgb(0,0,0)" x1="1312" y1="222" x2="1336" y2="203"/> <circle style="stroke-width:1" cx="1312" cy="222" r="12" fill="rgb(255,255,255)" stroke="rgb(0,0,0)"/> <text x="1304" y="230" fill="rgb(0,0,0)" stroke="rgb(0,0,0)">G</text>
<line style="fill:none;stroke-width:1" stroke="rgb(0,0,0)" x1="1336" y1="203" x2="1360" y2="184"/> <circle style="stroke-width:1" cx="1336" cy="203" r="12" fill="rgb(255,255,255)" stroke="rgb(0,0,0)"/> <text x="1328" y="211" fill="rgb(0,0,0)" stroke="rgb(0,0,0)">G</text>
<line style="fill:none;stroke-width:1" stroke="rgb(0,0,0)" x1="1360" y1="184" x2="1384" y2="165"/> <circle style="stroke-width:1" cx="1360" cy="184" r="12" fill="rgb(255,255,255)" stroke="rgb(0,0,0)"/> <text x="1352" y="192" fill="rgb(0,0,0)" stroke="rgb(0,0,0)">C</text>
<line style="fill:none;stroke-width:1" stroke="rgb(0,0,0)" x1="1384" y1="165" x2="1401" y2="130"/> <circle style="stroke-width:1" cx="1384" cy="165" r="12" fill="rgb(255,255,255)" stroke="rgb(0,0,0)"/> <text x="1376" y="173" fill="rgb(0,0,0)" stroke="rgb(0,0,0)">U</text>
<line style="fill:none;stroke-width:1" stroke="rgb(0,0,0)" x1="1401" y1="130" x2="1437" y2="112"/> <line style="fill:none;stroke-width:1" stroke="rgb(0,0,0)" x1="1401" y1="130" x2="1314" y2="60"/> <rect x="1299" y="48" width="30" height="24" fill="rgb(255,255,255)" stroke="rgb(255,255,255)"/> <text x="1299" y="68" fill="rgb(0,0,0)" stroke="rgb(0,0,0)">50</text> <circle style="stroke-width:1" cx="1401" cy="130" r="12" fill="rgb(255,255,255)" stroke="rgb(0,0,0)"/> <text x="1393" y="138" fill="rgb(0,0,0)" stroke="rgb(0,0,0)">G</text>
<line style="fill:none;stroke-width:1" stroke="rgb(0,0,0)" x1="1437" y1="112" x2="1473" y2="130"/> <circle style="stroke-width:1" cx="1437" cy="112" r="12" fill="rgb(255,255,255)" stroke="rgb(0,0,0)"/> <text x="1429" y="120" fill="rgb(0,0,0)" stroke="rgb(0,0,0)">C</text>
<line style="fill:none;stroke-width:1" stroke="rgb(0,0,0)" x1="1473" y1="130" x2="1482" y2="169"/> <circle style="stroke-width:1" cx="1473" cy="130" r="12" fill="rgb(255,255,255)" stroke="rgb(0,0,0)"/> <text x="1465" y="138" fill="rgb(0,0,0)" stroke="rgb(0,0,0)">U</text>
<line style="fill:none;stroke-width:1" stroke="rgb(0,0,0)" x1="1482" y1="169" x2="1457" y2="200"/> <circle style="stroke-width:1" cx="1482" cy="169" r="12" fill="rgb(255,255,255)" stroke="rgb(0,0,0)"/> <text x="1474" y="177" fill="rgb(0,0,0)" stroke="rgb(0,0,0)">U</text>
<line style="fill:none;stroke-width:1" stroke="rgb(0,0,0)" x1="1457" y1="200" x2="1418" y2="208"/> <circle style="stroke-width:1" cx="1457" cy="200" r="12" fill="rgb(255,255,255)" stroke="rgb(0,0,0)"/> <text x="1449" y="208" fill="rgb(0,0,0)" stroke="rgb(0,0,0)">G</text>
<line style="fill:none;stroke-width:1" stroke="rgb(0,0,0)" x1="1418" y1="208" x2="1394" y2="227"/> <circle style="stroke-width:1" cx="1418" cy="208" r="12" fill="rgb(255,255,255)" stroke="rgb(0,0,0)"/> <text x="1410" y="216" fill="rgb(0,0,0)" stroke="rgb(0,0,0)">A</text>
<line style="fill:none;stroke-width:1" stroke="rgb(0,0,0)" x1="1394" y1="227" x2="1370" y2="246"/> <circle style="stroke-width:1" cx="1394" cy="227" r="12" fill="rgb(255,255,255)" stroke="rgb(0,0,0)"/> <text x="1386" y="235" fill="rgb(0,0,0)" stroke="rgb(0,0,0)">G</text>
<line style="fill:none;stroke-width:1" stroke="rgb(0,0,0)" x1="1370" y1="246" x2="1346" y2="265"/> <circle style="stroke-width:1" cx="1370" cy="246" r="12" fill="rgb(255,255,255)" stroke="rgb(0,0,0)"/> <text x="1362" y="254" fill="rgb(0,0,0)" stroke="rgb(0,0,0)">C</text>
<line style="fill:none;stroke-width:1" stroke="rgb(0,0,0)" x1="1346" y1="265" x2="1322" y2="284"/> <circle style="stroke-width:1" cx="1346" cy="265" r="12" fill="rgb(255,255,255)" stroke="rgb(0,0,0)"/> <text x="1338" y="273" fill="rgb(0,0,0)" stroke="rgb(0,0,0)">U</text>
<line style="fill:none;stroke-width:1" stroke="rgb(0,0,0)" x1="1322" y1="284" x2="1298" y2="303"/> <circle style="stroke-width:1" cx="1322" cy="284" r="12" fill="rgb(255,255,255)" stroke="rgb(0,0,0)"/> <text x="1314" y="292" fill="rgb(0,0,0)" stroke="rgb(0,0,0)">G</text>
<line style="fill:none;stroke-width:1" stroke="rgb(0,0,0)" x1="1298" y1="303" x2="1298" y2="341"/> <line style="fill:none;stroke-width:1" stroke="rgb(0,0,0)" x1="1298" y1="303" x2="1367" y2="390"/> <rect x="1352" y="378" width="30" height="24" fill="rgb(255,255,255)" stroke="rgb(255,255,255)"/> <text x="1352" y="398" fill="rgb(0,0,0)" stroke="rgb(0,0,0)">60</text> <circle style="stroke-width:1" cx="1298" cy="303" r="12" fill="rgb(255,255,255)" stroke="rgb(0,0,0)"/> <text x="1290" y="311" fill="rgb(0,0,0)" stroke="rgb(0,0,0)">G</text>
<line style="fill:none;stroke-width:1" stroke="rgb(0,0,0)" x1="1298" y1="341" x2="1268" y2="393"/> <circle style="stroke-width:1" cx="1298" cy="341" r="12" fill="rgb(255,255,255)" stroke="rgb(0,0,0)"/> <text x="1290" y="349" fill="rgb(0,0,0)" stroke="rgb(0,0,0)">G</text>
<line style="fill:none;stroke-width:1" stroke="rgb(0,0,0)" x1="1268" y1="393" x2="1210" y2="410"/> <circle style="stroke-width:1" cx="1268" cy="393" r="12" fill="rgb(255,255,255)" stroke="rgb(0,0,0)"/> <text x="1260" y="401" fill="rgb(0,0,0)" stroke="rgb(0,0,0)">A</text>
<line style="fill:none;stroke-width:1" stroke="rgb(0,0,0)" x1="1210" y1="410" x2="1174" y2="401"/> <circle style="stroke-width:1" cx="1210" cy="410" r="12" fill="rgb(255,255,255)" stroke="rgb(0,0,0)"/> <text x="1202" y="418" fill="rgb(0,0,0)" stroke="rgb(0,0,0)">U</text>
<line style="fill:none;stroke-width:1" stroke="rgb(0,0,0)" x1="1174" y1="401" x2="1150" y2="420"/> <circle style="stroke-width:1" cx="1174" cy="401" r="12" fill="rgb(255,255,255)" stroke="rgb(0,0,0)"/> <text x="1166" y="409" fill="rgb(0,0,0)" stroke="rgb(0,0,0)">A</text>
<line style="fill:none;stroke-width:1" stroke="rgb(0,0,0)" x1="1150" y1="420" x2="1126" y2="439"/> <circle style="stroke-width:1" cx="1150" cy="420" r="12" fill="rgb(255,255,255)" stroke="rgb(0,0,0)"/> <text x="1142" y="428" fill="rgb(0,0,0)" stroke="rgb(0,0,0)">U</text>
<line style="fill:none;stroke-width:1" stroke="rgb(0,0,0)" x1="1126" y1="439" x2="1122" y2="494"/> <circle style="stroke-width:1" cx="1126" cy="439" r="12" fill="rgb(255,255,255)" stroke="rgb(0,0,0)"/> <text x="1118" y="447" fill="rgb(0,0,0)" stroke="rgb(0,0,0)">U</text>
<line style="fill:none;stroke-width:1" stroke="rgb(0,0,0)" x1="1122" y1="494" x2="1062" y2="543"/> <circle style="stroke-width:1" cx="1122" cy="494" r="12" fill="rgb(255,255,255)" stroke="rgb(0,0,0)"/> <text x="1114" y="502" fill="rgb(0,0,0)" stroke="rgb(0,0,0)">C</text>
<line style="fill:none;stroke-width:1" stroke="rgb(0,0,0)" x1="1062" y1="543" x2="1008" y2="537"/> <circle style="stroke-width:1" cx="1062" cy="543" r="12" fill="rgb(255,255,255)" stroke="rgb(0,0,0)"/> <text x="1054" y="551" fill="rgb(0,0,0)" stroke="rgb(0,0,0)">A</text>
<line style="fill:none;stroke-width:1" stroke="rgb(0,0,0)" x1="1008" y1="537" x2="984" y2="557"/> <circle style="stroke-width:1" cx="1008" cy="537" r="12" fill="rgb(255,255,255)" stroke="rgb(0,0,0)"/> <text x="1000" y="545" fill="rgb(0,0,0)" stroke="rgb(0,0,0)">U</text>
<line style="fill:none;stroke-width:1" stroke="rgb(0,0,0)" x1="984" y1="557" x2="960" y2="577"/> <line style="fill:none;stroke-width:1" stroke="rgb(0,0,0)" x1="984" y1="557" x2="1056" y2="642"/> <rect x="1041" y="630" width="30" height="24" fill="rgb(255,255,255)" stroke="rgb(255,255,255)"/> <text x="1041" y="650" fill="rgb(0,0,0)" stroke="rgb(0,0,0)">70</text> <circle style="stroke-width:1" cx="984" cy="557" r="12" fill="rgb(255,255,255)" stroke="rgb(0,0,0)"/> <text x="976" y="565" fill="rgb(0,0,0)" stroke="rgb(0,0,0)">C</text>
<line style="fill:none;stroke-width:1" stroke="rgb(0,0,0)" x1="960" y1="577" x2="936" y2="597"/> <circle style="stroke-width:1" cx="960" cy="577" r="12" fill="rgb(255,255,255)" stroke="rgb(0,0,0)"/> <text x="952" y="585" fill="rgb(0,0,0)" stroke="rgb(0,0,0)">U</text>
<line style="fill:none;stroke-width:1" stroke="rgb(0,0,0)" x1="936" y1="597" x2="912" y2="617"/> <circle style="stroke-width:1" cx="936" cy="597" r="12" fill="rgb(255,255,255)" stroke="rgb(0,0,0)"/> <text x="928" y="605" fill="rgb(0,0,0)" stroke="rgb(0,0,0)">U</text>
<line style="fill:none;stroke-width:1" stroke="rgb(0,0,0)" x1="912" y1="617" x2="888" y2="637"/> <circle style="stroke-width:1" cx="912" cy="617" r="12" fill="rgb(255,255,255)" stroke="rgb(0,0,0)"/> <text x="904" y="625" fill="rgb(0,0,0)" stroke="rgb(0,0,0)">U</text>
<line style="fill:none;stroke-width:1" stroke="rgb(0,0,0)" x1="888" y1="637" x2="864" y2="657"/> <circle style="stroke-width:1" cx="888" cy="637" r="12" fill="rgb(255,255,255)" stroke="rgb(0,0,0)"/> <text x="880" y="645" fill="rgb(0,0,0)" stroke="rgb(0,0,0)">C</text>
<line style="fill:none;stroke-width:1" stroke="rgb(0,0,0)" x1="864" y1="657" x2="840" y2="677"/> <circle style="stroke-width:1" cx="864" cy="657" r="12" fill="rgb(255,255,255)" stroke="rgb(0,0,0)"/> <text x="856" y="665" fill="rgb(0,0,0)" stroke="rgb(0,0,0)">U</text>
<line style="fill:none;stroke-width:1" stroke="rgb(0,0,0)" x1="840" y1="677" x2="887" y2="879"/> <circle style="stroke-width:1" cx="840" cy="677" r="12" fill="rgb(255,255,255)" stroke="rgb(0,0,0)"/> <text x="832" y="685" fill="rgb(0,0,0)" stroke="rgb(0,0,0)">C</text>
<line style="fill:none;stroke-width:1" stroke="rgb(0,0,0)" x1="887" y1="879" x2="855" y2="1006"/> <circle style="stroke-width:1" cx="887" cy="879" r="12" fill="rgb(255,255,255)" stroke="rgb(0,0,0)"/> <text x="879" y="887" fill="rgb(0,0,0)" stroke="rgb(0,0,0)">C</text>
<line style="fill:none;stroke-width:1" stroke="rgb(0,0,0)" x1="855" y1="1006" x2="779" y2="1113"/> <circle style="stroke-width:1" cx="855" cy="1006" r="12" fill="rgb(255,255,255)" stroke="rgb(0,0,0)"/> <text x="847" y="1014" fill="rgb(0,0,0)" stroke="rgb(0,0,0)">U</text>
<line style="fill:none;stroke-width:1" stroke="rgb(0,0,0)" x1="779" y1="1113" x2="668" y2="1184"/> <circle style="stroke-width:1" cx="779" cy="1113" r="12" fill="rgb(255,255,255)" stroke="rgb(0,0,0)"/> <text x="771" y="1121" fill="rgb(0,0,0)" stroke="rgb(0,0,0)">G</text>
<line style="fill:none;stroke-width:1" stroke="rgb(0,0,0)" x1="668" y1="1184" x2="709" y2="1288"/> <rect x="694" y="1276" width="30" height="24" fill="rgb(255,255,255)" stroke="rgb(255,255,255)"/> <text x="694" y="1296" fill="rgb(0,0,0)" stroke="rgb(0,0,0)">80</text> <circle style="stroke-width:1" cx="668" cy="1184" r="12" fill="rgb(255,255,255)" stroke="rgb(0,0,0)"/> <text x="660" y="1192" fill="rgb(0,0,0)" stroke="rgb(0,0,0)">A</text>
</g>
<g font-size="16">
<text x="36" y="892" fill="rgb(0,0,0)" stroke="rgb(0,0,0)">ENERGY = -13.7  ENST00000318426.6</text>
</g>
</svg>
