<?xml version="1.0" encoding="UTF-8" standalone="no"?>
<!DOCTYPE svg PUBLIC "-//W3C//DTD SVG 1.1//EN" "http://www.w3.org/Graphics/SVG/1.1/DTD/svg11.dtd">
<svg xmlns="http://www.w3.org/2000/svg" xmlns:xlink="http://www.w3.org/1999/xlink" xml:space="preserve" font-family="monospace" font-size="24" fill="rgb(255,255,255)" stroke="rgb(0,0,0)" viewBox="0 0 790 905">
<g transform="scale(0.572099)">
<path style="fill:none;stroke-width:3" stroke="rgb(0,0,0)" d="M667,1027 Q690.5,1013 714,999"/>
<path style="fill:none;stroke-width:3" stroke="rgb(0,0,0)" d="M651,1000 Q674.5,986 698,972"/>
<path style="fill:none;stroke-width:3" stroke="rgb(0,0,0)" d="M635,973 Q658.5,959 682,945"/>
<path style="fill:none;stroke-width:3" stroke="rgb(0,0,0)" d="M585,894 Q608,879 631,864"/>
<path style="fill:none;stroke-width:3" stroke="rgb(0,0,0)" d="M568,868 Q591,853 614,838"/>
<path style="fill:none;stroke-width:3" stroke="rgb(0,0,0)" d="M516,789 Q539,774 562,759"/>
<path style="fill:none;stroke-width:3" stroke="rgb(0,0,0)" d="M499,763 Q522,748 545,733"/>
<path style="fill:none;stroke-width:3" stroke="rgb(0,0,0)" d="M482,737 Q505,722 528,707"/>
<path style="fill:none;stroke-width:3" stroke="rgb(0,0,0)" d="M465,711 Q488,696 511,681"/>
<path style="fill:none;stroke-width:3" stroke="rgb(0,0,0)" d="M378,580 Q401,565 424,550"/>
<path style="fill:none;stroke-width:3" stroke="rgb(0,0,0)" d="M361,554 Q384,539 407,524"/>
<path style="fill:none;stroke-width:3" stroke="rgb(0,0,0)" d="M310,473 Q333.5,459 357,445"/>
<path style="fill:none;stroke-width:3" stroke="rgb(0,0,0)" d="M220,296 Q245.5,285.5 271,275"/>
<path style="fill:none;stroke-width:3" stroke="rgb(0,0,0)" d="M208,267 Q233.5,256.5 259,246"/>
<path style="fill:none;stroke-width:3" stroke="rgb(0,0,0)" d="M196,238 Q221.5,227.5 247,217"/>
<path style="fill:none;stroke-width:3" stroke="rgb(0,0,0)" d="M184,209 Q209.5,198.5 235,188"/>
<path style="fill:none;stroke-width:3" stroke="rgb(0,0,0)" d="M172,180 Q197.5,169.5 223,159"/>
<path style="fill:none;stroke-width:3" stroke="rgb(0,0,0)" d="M160,151 Q185.5,140.5 211,130"/>
<path style="fill:none;stroke-width:3" stroke="rgb(0,0,0)" d="M148,122 Q173.5,111.5 199,101"/>
<path style="fill:none;stroke-width:3" stroke="rgb(0,0,0)" d="M831,1236 Q811.5,1255.5 792,1275"/>
<path style="fill:none;stroke-width:3" stroke="rgb(0,0,0)" d="M853,1258 Q833.5,1277.5 814,1297"/>
<path style="fill:none;stroke-width:3" stroke="rgb(0,0,0)" d="M875,1280 Q855.5,1299.5 836,1319"/>
<path style="fill:none;stroke-width:3" stroke="rgb(0,0,0)" d="M897,1302 Q877.5,1321.5 858,1341"/>
<path style="fill:none;stroke-width:3" stroke="rgb(0,0,0)" d="M919,1324 Q899.5,1343.5 880,1363"/>
<path style="fill:none;stroke-width:3" stroke="rgb(0,0,0)" d="M941,1346 Q921.5,1365.5 902,1385"/>
<line style="fill:none;stroke-width:1" stroke="rgb(0,0,0)" x1="647" y1="1240" x2="617" y2="1201"/> <circle style="stroke-width:1" cx="647" cy="1240" r="12" fill="rgb(255,255,255)" stroke="rgb(0,0,0)"/> <text x="639" y="1248" fill="rgb(0,0,0)" stroke="rgb(0,0,0)">G</text>
<line style="fill:none;stroke-width:1" stroke="rgb(0,0,0)" x1="617" y1="1201" x2="603" y2="1153"/> <circle style="stroke-width:1" cx="617" cy="1201" r="12" fill="rgb(255,255,255)" stroke="rgb(0,0,0)"/> <text x="609" y="1209" fill="rgb(0,0,0)" stroke="rgb(0,0,0)">C</text>
<line style="fill:none;stroke-width:1" stroke="rgb(0,0,0)" x1="603" y1="1153" x2="608" y2="1104"/> <circle style="stroke-width:1" cx="603" cy="1153" r="12" fill="rgb(255,255,255)" stroke="rgb(0,0,0)"/> <text x="595" y="1161" fill="rgb(0,0,0)" stroke="rgb(0,0,0)">U</text>
<line style="fill:none;stroke-width:1" stroke="rgb(0,0,0)" x1="608" y1="1104" x2="630" y2="1060"/> <circle style="stroke-width:1" cx="608" cy="1104" r="12" fill="rgb(255,255,255)" stroke="rgb(0,0,0)"/> <text x="600" y="1112" fill="rgb(0,0,0)" stroke="rgb(0,0,0)">C</text>
<line style="fill:none;stroke-width:1" stroke="rgb(0,0,0)" x1="630" y1="1060" x2="667" y2="1027"/> <circle style="stroke-width:1" cx="630" cy="1060" r="12" fill="rgb(255,255,255)" stroke="rgb(0,0,0)"/> <text x="622" y="1068" fill="rgb(0,0,0)" stroke="rgb(0,0,0)">U</text>
<line style="fill:none;stroke-width:1" stroke="rgb(0,0,0)" x1="667" y1="1027" x2="651" y2="1000"/> <circle style="stroke-width:1" cx="667" cy="1027" r="12" fill="rgb(255,255,255)" stroke="rgb(0,0,0)"/> <text x="659" y="1035" fill="rgb(0,0,0)" stroke="rgb(0,0,0)">G</text>
<line style="fill:none;stroke-width:1" stroke="rgb(0,0,0)" x1="651" y1="1000" x2="635" y2="973"/> <circle style="stroke-width:1" cx="651" cy="1000" r="12" fill="rgb(255,255,255)" stroke="rgb(0,0,0)"/> <text x="643" y="1008" fill="rgb(0,0,0)" stroke="rgb(0,0,0)">C</text>
<line style="fill:none;stroke-width:1" stroke="rgb(0,0,0)" x1="635" y1="973" x2="585" y2="894"/> <circle style="stroke-width:1" cx="635" cy="973" r="12" fill="rgb(255,255,255)" stroke="rgb(0,0,0)"/> <text x="627" y="981" fill="rgb(0,0,0)" stroke="rgb(0,0,0)">U</text>
<line style="fill:none;stroke-width:1" stroke="rgb(0,0,0)" x1="585" y1="894" x2="568" y2="868"/> <circle style="stroke-width:1" cx="585" cy="894" r="12" fill="rgb(255,255,255)" stroke="rgb(0,0,0)"/> <text x="577" y="902" fill="rgb(0,0,0)" stroke="rgb(0,0,0)">C</text>
<line style="fill:none;stroke-width:1" stroke="rgb(0,0,0)" x1="568" y1="868" x2="526" y2="840"/> <line style="fill:none;stroke-width:1" stroke="rgb(0,0,0)" x1="568" y1="868" x2="475" y2="930"/> <rect x="460" y="918" width="30" height="24" fill="rgb(255,255,255)" stroke="rgb(255,255,255)"/> <text x="460" y="938" fill="rgb(0,0,0)" stroke="rgb(0,0,0)">10</text> <circle style="stroke-width:1" cx="568" cy="868" r="12" fill="rgb(255,255,255)" stroke="rgb(0,0,0)"/> <text x="560" y="876" fill="rgb(0,0,0)" stroke="rgb(0,0,0)">C</text>
<line style="fill:none;stroke-width:1" stroke="rgb(0,0,0)" x1="526" y1="840" x2="516" y2="789"/> <circle style="stroke-width:1" cx="526" cy="840" r="12" fill="rgb(255,255,255)" stroke="rgb(0,0,0)"/> <text x="518" y="848" fill="rgb(0,0,0)" stroke="rgb(0,0,0)">A</text>
<line style="fill:none;stroke-width:1" stroke="rgb(0,0,0)" x1="516" y1="789" x2="499" y2="763"/> <circle style="stroke-width:1" cx="516" cy="789" r="12" fill="rgb(255,255,255)" stroke="rgb(0,0,0)"/> <text x="508" y="797" fill="rgb(0,0,0)" stroke="rgb(0,0,0)">G</text>
<line style="fill:none;stroke-width:1" stroke="rgb(0,0,0)" x1="499" y1="763" x2="482" y2="737"/> <circle style="stroke-width:1" cx="499" cy="763" r="12" fill="rgb(255,255,255)" stroke="rgb(0,0,0)"/> <text x="491" y="771" fill="rgb(0,0,0)" stroke="rgb(0,0,0)">G</text>
<line style="fill:none;stroke-width:1" stroke="rgb(0,0,0)" x1="482" y1="737" x2="465" y2="711"/> <circle style="stroke-width:1" cx="482" cy="737" r="12" fill="rgb(255,255,255)" stroke="rgb(0,0,0)"/> <text x="474" y="745" fill="rgb(0,0,0)" stroke="rgb(0,0,0)">C</text>
<line style="fill:none;stroke-width:1" stroke="rgb(0,0,0)" x1="465" y1="711" x2="429" y2="708"/> <circle style="stroke-width:1" cx="465" cy="711" r="12" fill="rgb(255,255,255)" stroke="rgb(0,0,0)"/> <text x="457" y="719" fill="rgb(0,0,0)" stroke="rgb(0,0,0)">A</text>
<line style="fill:none;stroke-width:1" stroke="rgb(0,0,0)" x1="429" y1="708" x2="379" y2="674"/> <circle style="stroke-width:1" cx="429" cy="708" r="12" fill="rgb(255,255,255)" stroke="rgb(0,0,0)"/> <text x="421" y="716" fill="rgb(0,0,0)" stroke="rgb(0,0,0)">U</text>
<line style="fill:none;stroke-width:1" stroke="rgb(0,0,0)" x1="379" y1="674" x2="367" y2="615"/> <circle style="stroke-width:1" cx="379" cy="674" r="12" fill="rgb(255,255,255)" stroke="rgb(0,0,0)"/> <text x="371" y="682" fill="rgb(0,0,0)" stroke="rgb(0,0,0)">C</text>
<line style="fill:none;stroke-width:1" stroke="rgb(0,0,0)" x1="367" y1="615" x2="378" y2="580"/> <circle style="stroke-width:1" cx="367" cy="615" r="12" fill="rgb(255,255,255)" stroke="rgb(0,0,0)"/> <text x="359" y="623" fill="rgb(0,0,0)" stroke="rgb(0,0,0)">U</text>
<line style="fill:none;stroke-width:1" stroke="rgb(0,0,0)" x1="378" y1="580" x2="361" y2="554"/> <circle style="stroke-width:1" cx="378" cy="580" r="12" fill="rgb(255,255,255)" stroke="rgb(0,0,0)"/> <text x="370" y="588" fill="rgb(0,0,0)" stroke="rgb(0,0,0)">G</text>
<line style="fill:none;stroke-width:1" stroke="rgb(0,0,0)" x1="361" y1="554" x2="317" y2="525"/> <line style="fill:none;stroke-width:1" stroke="rgb(0,0,0)" x1="361" y1="554" x2="268" y2="616"/> <rect x="253" y="604" width="30" height="24" fill="rgb(255,255,255)" stroke="rgb(255,255,255)"/> <text x="253" y="624" fill="rgb(0,0,0)" stroke="rgb(0,0,0)">20</text> <circle style="stroke-width:1" cx="361" cy="554" r="12" fill="rgb(255,255,255)" stroke="rgb(0,0,0)"/> <text x="353" y="562" fill="rgb(0,0,0)" stroke="rgb(0,0,0)">C</text>
<line style="fill:none;stroke-width:1" stroke="rgb(0,0,0)" x1="317" y1="525" x2="310" y2="473"/> <circle style="stroke-width:1" cx="317" cy="525" r="12" fill="rgb(255,255,255)" stroke="rgb(0,0,0)"/> <text x="309" y="533" fill="rgb(0,0,0)" stroke="rgb(0,0,0)">C</text>
<line style="fill:none;stroke-width:1" stroke="rgb(0,0,0)" x1="310" y1="473" x2="271" y2="473"/> <circle style="stroke-width:1" cx="310" cy="473" r="12" fill="rgb(255,255,255)" stroke="rgb(0,0,0)"/> <text x="302" y="481" fill="rgb(0,0,0)" stroke="rgb(0,0,0)">A</text>
<line style="fill:none;stroke-width:1" stroke="rgb(0,0,0)" x1="271" y1="473" x2="212" y2="446"/> <circle style="stroke-width:1" cx="271" cy="473" r="12" fill="rgb(255,255,255)" stroke="rgb(0,0,0)"/> <text x="263" y="481" fill="rgb(0,0,0)" stroke="rgb(0,0,0)">C</text>
<line style="fill:none;stroke-width:1" stroke="rgb(0,0,0)" x1="212" y1="446" x2="183" y2="388"/> <circle style="stroke-width:1" cx="212" cy="446" r="12" fill="rgb(255,255,255)" stroke="rgb(0,0,0)"/> <text x="204" y="454" fill="rgb(0,0,0)" stroke="rgb(0,0,0)">A</text>
<line style="fill:none;stroke-width:1" stroke="rgb(0,0,0)" x1="183" y1="388" x2="195" y2="324"/> <circle style="stroke-width:1" cx="183" cy="388" r="12" fill="rgb(255,255,255)" stroke="rgb(0,0,0)"/> <text x="175" y="396" fill="rgb(0,0,0)" stroke="rgb(0,0,0)">A</text>
<line style="fill:none;stroke-width:1" stroke="rgb(0,0,0)" x1="195" y1="324" x2="220" y2="296"/> <circle style="stroke-width:1" cx="195" cy="324" r="12" fill="rgb(255,255,255)" stroke="rgb(0,0,0)"/> <text x="187" y="332" fill="rgb(0,0,0)" stroke="rgb(0,0,0)">U</text>
<line style="fill:none;stroke-width:1" stroke="rgb(0,0,0)" x1="220" y1="296" x2="208" y2="267"/> <circle style="stroke-width:1" cx="220" cy="296" r="12" fill="rgb(255,255,255)" stroke="rgb(0,0,0)"/> <text x="212" y="304" fill="rgb(0,0,0)" stroke="rgb(0,0,0)">G</text>
<line style="fill:none;stroke-width:1" stroke="rgb(0,0,0)" x1="208" y1="267" x2="196" y2="238"/> <circle style="stroke-width:1" cx="208" cy="267" r="12" fill="rgb(255,255,255)" stroke="rgb(0,0,0)"/> <text x="200" y="275" fill="rgb(0,0,0)" stroke="rgb(0,0,0)">U</text>
<line style="fill:none;stroke-width:1" stroke="rgb(0,0,0)" x1="196" y1="238" x2="184" y2="209"/> <circle style="stroke-width:1" cx="196" cy="238" r="12" fill="rgb(255,255,255)" stroke="rgb(0,0,0)"/> <text x="188" y="246" fill="rgb(0,0,0)" stroke="rgb(0,0,0)">G</text>
<line style="fill:none;stroke-width:1" stroke="rgb(0,0,0)" x1="184" y1="209" x2="172" y2="180"/> <line style="fill:none;stroke-width:1" stroke="rgb(0,0,0)" x1="184" y1="209" x2="81" y2="251"/> <rect x="66" y="239" width="30" height="24" fill="rgb(255,255,255)" stroke="rgb(255,255,255)"/> <text x="66" y="259" fill="rgb(0,0,0)" stroke="rgb(0,0,0)">30</text> <circle style="stroke-width:1" cx="184" cy="209" r="12" fill="rgb(255,255,255)" stroke="rgb(0,0,0)"/> <text x="176" y="217" fill="rgb(0,0,0)" stroke="rgb(0,0,0)">G</text>
<line style="fill:none;stroke-width:1" stroke="rgb(0,0,0)" x1="172" y1="180" x2="160" y2="151"/> <circle style="stroke-width:1" cx="172" cy="180" r="12" fill="rgb(255,255,255)" stroke="rgb(0,0,0)"/> <text x="164" y="188" fill="rgb(0,0,0)" stroke="rgb(0,0,0)">G</text>
<line style="fill:none;stroke-width:1" stroke="rgb(0,0,0)" x1="160" y1="151" x2="148" y2="122"/> <circle style="stroke-width:1" cx="160" cy="151" r="12" fill="rgb(255,255,255)" stroke="rgb(0,0,0)"/> <text x="152" y="159" fill="rgb(0,0,0)" stroke="rgb(0,0,0)">U</text>
<line style="fill:none;stroke-width:1" stroke="rgb(0,0,0)" x1="148" y1="122" x2="122" y2="90"/> <circle style="stroke-width:1" cx="148" cy="122" r="12" fill="rgb(255,255,255)" stroke="rgb(0,0,0)"/> <text x="140" y="130" fill="rgb(0,0,0)" stroke="rgb(0,0,0)">G</text>
<line style="fill:none;stroke-width:1" stroke="rgb(0,0,0)" x1="122" y1="90" x2="128" y2="51"/> <circle style="stroke-width:1" cx="122" cy="90" r="12" fill="rgb(255,255,255)" stroke="rgb(0,0,0)"/> <text x="114" y="98" fill="rgb(0,0,0)" stroke="rgb(0,0,0)">C</text>
<line style="fill:none;stroke-width:1" stroke="rgb(0,0,0)" x1="128" y1="51" x2="164" y2="36"/> <circle style="stroke-width:1" cx="128" cy="51" r="12" fill="rgb(255,255,255)" stroke="rgb(0,0,0)"/> <text x="120" y="59" fill="rgb(0,0,0)" stroke="rgb(0,0,0)">U</text>
<line style="fill:none;stroke-width:1" stroke="rgb(0,0,0)" x1="164" y1="36" x2="196" y2="60"/> <circle style="stroke-width:1" cx="164" cy="36" r="12" fill="rgb(255,255,255)" stroke="rgb(0,0,0)"/> <text x="156" y="44" fill="rgb(0,0,0)" stroke="rgb(0,0,0)">U</text>
<line style="fill:none;stroke-width:1" stroke="rgb(0,0,0)" x1="196" y1="60" x2="199" y2="101"/> <circle style="stroke-width:1" cx="196" cy="60" r="12" fill="rgb(255,255,255)" stroke="rgb(0,0,0)"/> <text x="188" y="68" fill="rgb(0,0,0)" stroke="rgb(0,0,0)">A</text>
<line style="fill:none;stroke-width:1" stroke="rgb(0,0,0)" x1="199" y1="101" x2="211" y2="130"/> <circle style="stroke-width:1" cx="199" cy="101" r="12" fill="rgb(255,255,255)" stroke="rgb(0,0,0)"/> <text x="191" y="109" fill="rgb(0,0,0)" stroke="rgb(0,0,0)">C</text>
<line style="fill:none;stroke-width:1" stroke="rgb(0,0,0)" x1="211" y1="130" x2="223" y2="159"/> <circle style="stroke-width:1" cx="211" cy="130" r="12" fill="rgb(255,255,255)" stroke="rgb(0,0,0)"/> <text x="203" y="138" fill="rgb(0,0,0)" stroke="rgb(0,0,0)">A</text>
<line style="fill:none;stroke-width:1" stroke="rgb(0,0,0)" x1="223" y1="159" x2="235" y2="188"/> <line style="fill:none;stroke-width:1" stroke="rgb(0,0,0)" x1="223" y1="159" x2="326" y2="117"/> <rect x="311" y="105" width="30" height="24" fill="rgb(255,255,255)" stroke="rgb(255,255,255)"/> <text x="311" y="125" fill="rgb(0,0,0)" stroke="rgb(0,0,0)">40</text> <circle style="stroke-width:1" cx="223" cy="159" r="12" fill="rgb(255,255,255)" stroke="rgb(0,0,0)"/> <text x="215" y="167" fill="rgb(0,0,0)" stroke="rgb(0,0,0)">C</text>
<line style="fill:none;stroke-width:1" stroke="rgb(0,0,0)" x1="235" y1="188" x2="247" y2="217"/> <circle style="stroke-width:1" cx="235" cy="188" r="12" fill="rgb(255,255,255)" stroke="rgb(0,0,0)"/> <text x="227" y="196" fill="rgb(0,0,0)" stroke="rgb(0,0,0)">C</text>
<line style="fill:none;stroke-width:1" stroke="rgb(0,0,0)" x1="247" y1="217" x2="259" y2="246"/> <circle style="stroke-width:1" cx="247" cy="217" r="12" fill="rgb(255,255,255)" stroke="rgb(0,0,0)"/> <text x="239" y="225" fill="rgb(0,0,0)" stroke="rgb(0,0,0)">U</text>
<line style="fill:none;stroke-width:1" stroke="rgb(0,0,0)" x1="259" y1="246" x2="271" y2="275"/> <circle style="stroke-width:1" cx="259" cy="246" r="12" fill="rgb(255,255,255)" stroke="rgb(0,0,0)"/> <text x="251" y="254" fill="rgb(0,0,0)" stroke="rgb(0,0,0)">G</text>
<line style="fill:none;stroke-width:1" stroke="rgb(0,0,0)" x1="271" y1="275" x2="357" y2="445"/> <circle style="stroke-width:1" cx="271" cy="275" r="12" fill="rgb(255,255,255)" stroke="rgb(0,0,0)"/> <text x="263" y="283" fill="rgb(0,0,0)" stroke="rgb(0,0,0)">C</text>
<line style="fill:none;stroke-width:1" stroke="rgb(0,0,0)" x1="357" y1="445" x2="407" y2="524"/> <circle style="stroke-width:1" cx="357" cy="445" r="12" fill="rgb(255,255,255)" stroke="rgb(0,0,0)"/> <text x="349" y="453" fill="rgb(0,0,0)" stroke="rgb(0,0,0)">U</text>
<line style="fill:none;stroke-width:1" stroke="rgb(0,0,0)" x1="407" y1="524" x2="424" y2="550"/> <circle style="stroke-width:1" cx="407" cy="524" r="12" fill="rgb(255,255,255)" stroke="rgb(0,0,0)"/> <text x="399" y="532" fill="rgb(0,0,0)" stroke="rgb(0,0,0)">G</text>
<line style="fill:none;stroke-width:1" stroke="rgb(0,0,0)" x1="424" y1="550" x2="460" y2="553"/> <circle style="stroke-width:1" cx="424" cy="550" r="12" fill="rgb(255,255,255)" stroke="rgb(0,0,0)"/> <text x="416" y="558" fill="rgb(0,0,0)" stroke="rgb(0,0,0)">C</text>
<line style="fill:none;stroke-width:1" stroke="rgb(0,0,0)" x1="460" y1="553" x2="510" y2="586"/> <circle style="stroke-width:1" cx="460" cy="553" r="12" fill="rgb(255,255,255)" stroke="rgb(0,0,0)"/> <text x="452" y="561" fill="rgb(0,0,0)" stroke="rgb(0,0,0)">U</text>
<line style="fill:none;stroke-width:1" stroke="rgb(0,0,0)" x1="510" y1="586" x2="522" y2="646"/> <circle style="stroke-width:1" cx="510" cy="586" r="12" fill="rgb(255,255,255)" stroke="rgb(0,0,0)"/> <text x="502" y="594" fill="rgb(0,0,0)" stroke="rgb(0,0,0)">U</text>
<line style="fill:none;stroke-width:1" stroke="rgb(0,0,0)" x1="522" y1="646" x2="511" y2="681"/> <line style="fill:none;stroke-width:1" stroke="rgb(0,0,0)" x1="522" y1="646" x2="631" y2="667"/> <rect x="616" y="655" width="30" height="24" fill="rgb(255,255,255)" stroke="rgb(255,255,255)"/> <text x="616" y="675" fill="rgb(0,0,0)" stroke="rgb(0,0,0)">50</text> <circle style="stroke-width:1" cx="522" cy="646" r="12" fill="rgb(255,255,255)" stroke="rgb(0,0,0)"/> <text x="514" y="654" fill="rgb(0,0,0)" stroke="rgb(0,0,0)">U</text>
<line style="fill:none;stroke-width:1" stroke="rgb(0,0,0)" x1="511" y1="681" x2="528" y2="707"/> <circle style="stroke-width:1" cx="511" cy="681" r="12" fill="rgb(255,255,255)" stroke="rgb(0,0,0)"/> <text x="503" y="689" fill="rgb(0,0,0)" stroke="rgb(0,0,0)">U</text>
<line style="fill:none;stroke-width:1" stroke="rgb(0,0,0)" x1="528" y1="707" x2="545" y2="733"/> <circle style="stroke-width:1" cx="528" cy="707" r="12" fill="rgb(255,255,255)" stroke="rgb(0,0,0)"/> <text x="520" y="715" fill="rgb(0,0,0)" stroke="rgb(0,0,0)">G</text>
<line style="fill:none;stroke-width:1" stroke="rgb(0,0,0)" x1="545" y1="733" x2="562" y2="759"/> <circle style="stroke-width:1" cx="545" cy="733" r="12" fill="rgb(255,255,255)" stroke="rgb(0,0,0)"/> <text x="537" y="741" fill="rgb(0,0,0)" stroke="rgb(0,0,0)">C</text>
<line style="fill:none;stroke-width:1" stroke="rgb(0,0,0)" x1="562" y1="759" x2="605" y2="787"/> <circle style="stroke-width:1" cx="562" cy="759" r="12" fill="rgb(255,255,255)" stroke="rgb(0,0,0)"/> <text x="554" y="767" fill="rgb(0,0,0)" stroke="rgb(0,0,0)">U</text>
<line style="fill:none;stroke-width:1" stroke="rgb(0,0,0)" x1="605" y1="787" x2="614" y2="838"/> <circle style="stroke-width:1" cx="605" cy="787" r="12" fill="rgb(255,255,255)" stroke="rgb(0,0,0)"/> <text x="597" y="795" fill="rgb(0,0,0)" stroke="rgb(0,0,0)">G</text>
<line style="fill:none;stroke-width:1" stroke="rgb(0,0,0)" x1="614" y1="838" x2="631" y2="864"/> <circle style="stroke-width:1" cx="614" cy="838" r="12" fill="rgb(255,255,255)" stroke="rgb(0,0,0)"/> <text x="606" y="846" fill="rgb(0,0,0)" stroke="rgb(0,0,0)">G</text>
<line style="fill:none;stroke-width:1" stroke="rgb(0,0,0)" x1="631" y1="864" x2="674" y2="894"/> <circle style="stroke-width:1" cx="631" cy="864" r="12" fill="rgb(255,255,255)" stroke="rgb(0,0,0)"/> <text x="623" y="872" fill="rgb(0,0,0)" stroke="rgb(0,0,0)">G</text>
<line style="fill:none;stroke-width:1" stroke="rgb(0,0,0)" x1="674" y1="894" x2="682" y2="945"/> <circle style="stroke-width:1" cx="674" cy="894" r="12" fill="rgb(255,255,255)" stroke="rgb(0,0,0)"/> <text x="666" y="902" fill="rgb(0,0,0)" stroke="rgb(0,0,0)">A</text>
<line style="fill:none;stroke-width:1" stroke="rgb(0,0,0)" x1="682" y1="945" x2="698" y2="972"/> <circle style="stroke-width:1" cx="682" cy="945" r="12" fill="rgb(255,255,255)" stroke="rgb(0,0,0)"/> <text x="674" y="953" fill="rgb(0,0,0)" stroke="rgb(0,0,0)">A</text>
<line style="fill:none;stroke-width:1" stroke="rgb(0,0,0)" x1="698" y1="972" x2="714" y2="999"/> <line style="fill:none;stroke-width:1" stroke="rgb(0,0,0)" x1="698" y1="972" x2="793" y2="914"/> <rect x="778" y="902" width="30" height="24" fill="rgb(255,255,255)" stroke="rgb(255,255,255)"/> <text x="778" y="922" fill="rgb(0,0,0)" stroke="rgb(0,0,0)">60</text> <circle style="stroke-width:1" cx="698" cy="972" r="12" fill="rgb(255,255,255)" stroke="rgb(0,0,0)"/> <text x="690" y="980" fill="rgb(0,0,0)" stroke="rgb(0,0,0)">G</text>
<line style="fill:none;stroke-width:1" stroke="rgb(0,0,0)" x1="714" y1="999" x2="868" y2="1117"/> <circle style="stroke-width:1" cx="714" cy="999" r="12" fill="rgb(255,255,255)" stroke="rgb(0,0,0)"/> <text x="706" y="1007" fill="rgb(0,0,0)" stroke="rgb(0,0,0)">C</text>
<line style="fill:none;stroke-width:1" stroke="rgb(0,0,0)" x1="868" y1="1117" x2="831" y2="1236"/> <circle style="stroke-width:1" cx="868" cy="1117" r="12" fill="rgb(255,255,255)" stroke="rgb(0,0,0)"/> <text x="860" y="1125" fill="rgb(0,0,0)" stroke="rgb(0,0,0)">U</text>
<line style="fill:none;stroke-width:1" stroke="rgb(0,0,0)" x1="831" y1="1236" x2="853" y2="1258"/> <circle style="stroke-width:1" cx="831" cy="1236" r="12" fill="rgb(255,255,255)" stroke="rgb(0,0,0)"/> <text x="823" y="1244" fill="rgb(0,0,0)" stroke="rgb(0,0,0)">C</text>
<line style="fill:none;stroke-width:1" stroke="rgb(0,0,0)" x1="853" y1="1258" x2="875" y2="1280"/> <circle style="stroke-width:1" cx="853" cy="1258" r="12" fill="rgb(255,255,255)" stroke="rgb(0,0,0)"/> <text x="845" y="1266" fill="rgb(0,0,0)" stroke="rgb(0,0,0)">U</text>
<line style="fill:none;stroke-width:1" stroke="rgb(0,0,0)" x1="875" y1="1280" x2="897" y2="1302"/> <circle style="stroke-width:1" cx="875" cy="1280" r="12" fill="rgb(255,255,255)" stroke="rgb(0,0,0)"/> <text x="867" y="1288" fill="rgb(0,0,0)" stroke="rgb(0,0,0)">U</text>
<line style="fill:none;stroke-width:1" stroke="rgb(0,0,0)" x1="897" y1="1302" x2="919" y2="1324"/> <circle style="stroke-width:1" cx="897" cy="1302" r="12" fill="rgb(255,255,255)" stroke="rgb(0,0,0)"/> <text x="889" y="1310" fill="rgb(0,0,0)" stroke="rgb(0,0,0)">G</text>
<line style="fill:none;stroke-width:1" stroke="rgb(0,0,0)" x1="919" y1="1324" x2="941" y2="1346"/> <circle style="stroke-width:1" cx="919" cy="1324" r="12" fill="rgb(255,255,255)" stroke="rgb(0,0,0)"/> <text x="911" y="1332" fill="rgb(0,0,0)" stroke="rgb(0,0,0)">A</text>
<line style="fill:none;stroke-width:1" stroke="rgb(0,0,0)" x1="941" y1="1346" x2="977" y2="1365"/> <circle style="stroke-width:1" cx="941" cy="1346" r="12" fill="rgb(255,255,255)" stroke="rgb(0,0,0)"/> <text x="933" y="1354" fill="rgb(0,0,0)" stroke="rgb(0,0,0)">G</text>
<line style="fill:none;stroke-width:1" stroke="rgb(0,0,0)" x1="977" y1="1365" x2="987" y2="1403"/> <circle style="stroke-width:1" cx="977" cy="1365" r="12" fill="rgb(255,255,255)" stroke="rgb(0,0,0)"/> <text x="969" y="1373" fill="rgb(0,0,0)" stroke="rgb(0,0,0)">U</text>
<line style="fill:none;stroke-width:1" stroke="rgb(0,0,0)" x1="987" y1="1403" x2="959" y2="1431"/> <line style="fill:none;stroke-width:1" stroke="rgb(0,0,0)" x1="987" y1="1403" x2="1095" y2="1431"/> <rect x="1080" y="1419" width="30" height="24" fill="rgb(255,255,255)" stroke="rgb(255,255,255)"/> <text x="1080" y="1439" fill="rgb(0,0,0)" stroke="rgb(0,0,0)">70</text> <circle style="stroke-width:1" cx="987" cy="1403" r="12" fill="rgb(255,255,255)" stroke="rgb(0,0,0)"/> <text x="979" y="1411" fill="rgb(0,0,0)" stroke="rgb(0,0,0)">G</text>
<line style="fill:none;stroke-width:1" stroke="rgb(0,0,0)" x1="959" y1="1431" x2="921" y2="1421"/> <circle style="stroke-width:1" cx="959" cy="1431" r="12" fill="rgb(255,255,255)" stroke="rgb(0,0,0)"/> <text x="951" y="1439" fill="rgb(0,0,0)" stroke="rgb(0,0,0)">U</text>
<line style="fill:none;stroke-width:1" stroke="rgb(0,0,0)" x1="921" y1="1421" x2="902" y2="1385"/> <circle style="stroke-width:1" cx="921" cy="1421" r="12" fill="rgb(255,255,255)" stroke="rgb(0,0,0)"/> <text x="913" y="1429" fill="rgb(0,0,0)" stroke="rgb(0,0,0)">G</text>
<line style="fill:none;stroke-width:1" stroke="rgb(0,0,0)" x1="902" y1="1385" x2="880" y2="1363"/> <circle style="stroke-width:1" cx="902" cy="1385" r="12" fill="rgb(255,255,255)" stroke="rgb(0,0,0)"/> <text x="894" y="1393" fill="rgb(0,0,0)" stroke="rgb(0,0,0)">U</text>
<line style="fill:none;stroke-width:1" stroke="rgb(0,0,0)" x1="880" y1="1363" x2="858" y2="1341"/> <circle style="stroke-width:1" cx="880" cy="1363" r="12" fill="rgb(255,255,255)" stroke="rgb(0,0,0)"/> <text x="872" y="1371" fill="rgb(0,0,0)" stroke="rgb(0,0,0)">U</text>
<line style="fill:none;stroke-width:1" stroke="rgb(0,0,0)" x1="858" y1="1341" x2="836" y2="1319"/> <circle style="stroke-width:1" cx="858" cy="1341" r="12" fill="rgb(255,255,255)" stroke="rgb(0,0,0)"/> <text x="850" y="1349" fill="rgb(0,0,0)" stroke="rgb(0,0,0)">C</text>
<line style="fill:none;stroke-width:1" stroke="rgb(0,0,0)" x1="836" y1="1319" x2="814" y2="1297"/> <circle style="stroke-width:1" cx="836" cy="1319" r="12" fill="rgb(255,255,255)" stroke="rgb(0,0,0)"/> <text x="828" y="1327" fill="rgb(0,0,0)" stroke="rgb(0,0,0)">A</text>
<line style="fill:none;stroke-width:1" stroke="rgb(0,0,0)" x1="814" y1="1297" x2="792" y2="1275"/> <circle style="stroke-width:1" cx="814" cy="1297" r="12" fill="rgb(255,255,255)" stroke="rgb(0,0,0)"/> <text x="806" y="1305" fill="rgb(0,0,0)" stroke="rgb(0,0,0)">G</text>
<line style="fill:none;stroke-width:1" stroke="rgb(0,0,0)" x1="792" y1="1275" x2="788" y2="1265"/> <circle style="stroke-width:1" cx="792" cy="1275" r="12" fill="rgb(255,255,255)" stroke="rgb(0,0,0)"/> <text x="784" y="1283" fill="rgb(0,0,0)" stroke="rgb(0,0,0)">G</text>
<line style="fill:none;stroke-width:1" stroke="rgb(0,0,0)" x1="788" y1="1265" x2="762" y2="1273"/> <circle style="stroke-width:1" cx="788" cy="1265" r="12" fill="rgb(255,255,255)" stroke="rgb(0,0,0)"/> <text x="780" y="1273" fill="rgb(0,0,0)" stroke="rgb(0,0,0)">C</text>
<line style="fill:none;stroke-width:1" stroke="rgb(0,0,0)" x1="762" y1="1273" x2="783" y2="1382"/> <rect x="768" y="1370" width="30" height="24" fill="rgb(255,255,255)" stroke="rgb(255,255,255)"/> <text x="768" y="1390" fill="rgb(0,0,0)" stroke="rgb(0,0,0)">80</text> <circle style="stroke-width:1" cx="762" cy="1273" r="12" fill="rgb(255,255,255)" stroke="rgb(0,0,0)"/> <text x="754" y="1281" fill="rgb(0,0,0)" stroke="rgb(0,0,0)">A</text>
</g>
<g font-size="16">
<text x="36" y="892" fill="rgb(0,0,0)" stroke="rgb(0,0,0)">ENERGY = -24.7  ENST00000382040.4</text>
</g>
</svg>
