<?xml version="1.0" encoding="UTF-8" standalone="no"?>
<!DOCTYPE svg PUBLIC "-//W3C//DTD SVG 1.1//EN" "http://www.w3.org/Graphics/SVG/1.1/DTD/svg11.dtd">
<svg xmlns="http://www.w3.org/2000/svg" xmlns:xlink="http://www.w3.org/1999/xlink" xml:space="preserve" font-family="monospace" font-size="24" fill="rgb(255,255,255)" stroke="rgb(0,0,0)" viewBox="0 0 790 905">
<g transform="scale(0.754867)">
<path style="fill:none;stroke-width:3" stroke="rgb(0,0,0)" d="M503,834 Q530.5,831 558,828"/>
<path style="fill:none;stroke-width:3" stroke="rgb(0,0,0)" d="M500,803 Q527.5,800 555,797"/>
<path style="fill:none;stroke-width:3" stroke="rgb(0,0,0)" d="M497,772 Q524.5,769 552,766"/>
<path style="fill:none;stroke-width:3" stroke="rgb(0,0,0)" d="M494,741 Q521.5,738 549,735"/>
<path style="fill:none;stroke-width:3" stroke="rgb(0,0,0)" d="M491,710 Q518.5,707 546,704"/>
<path style="fill:none;stroke-width:3" stroke="rgb(0,0,0)" d="M488,679 Q515.5,676 543,673"/>
<path style="fill:none;stroke-width:3" stroke="rgb(0,0,0)" d="M248,720 Q234,696.5 220,673"/>
<path style="fill:none;stroke-width:3" stroke="rgb(0,0,0)" d="M221,736 Q207,712.5 193,689"/>
<path style="fill:none;stroke-width:3" stroke="rgb(0,0,0)" d="M194,752 Q180,728.5 166,705"/>
<path style="fill:none;stroke-width:3" stroke="rgb(0,0,0)" d="M261,389 Q277,367 293,345"/>
<path style="fill:none;stroke-width:3" stroke="rgb(0,0,0)" d="M236,371 Q252,349 268,327"/>
<path style="fill:none;stroke-width:3" stroke="rgb(0,0,0)" d="M211,353 Q227,331 243,309"/>
<path style="fill:none;stroke-width:3" stroke="rgb(0,0,0)" d="M186,335 Q202,313 218,291"/>
<path style="fill:none;stroke-width:3" stroke="rgb(0,0,0)" d="M161,317 Q177,295 193,273"/>
<path style="fill:none;stroke-width:3" stroke="rgb(0,0,0)" d="M695,337 Q716,355 737,373"/>
<path style="fill:none;stroke-width:3" stroke="rgb(0,0,0)" d="M715,313 Q736,331 757,349"/>
<path style="fill:none;stroke-width:3" stroke="rgb(0,0,0)" d="M735,289 Q756,307 777,325"/>
<path style="fill:none;stroke-width:3" stroke="rgb(0,0,0)" d="M755,265 Q776,283 797,301"/>
<path style="fill:none;stroke-width:3" stroke="rgb(0,0,0)" d="M767,700 Q754.5,724.5 742,749"/>
<path style="fill:none;stroke-width:3" stroke="rgb(0,0,0)" d="M795,714 Q782.5,738.5 770,763"/>
<line style="fill:none;stroke-width:1" stroke="rgb(0,0,0)" x1="503" y1="834" x2="500" y2="803"/> <circle style="stroke-width:1" cx="503" cy="834" r="12" fill="rgb(255,255,255)" stroke="rgb(0,0,0)"/> <text x="495" y="842" fill="rgb(0,0,0)" stroke="rgb(0,0,0)">G</text>
<line style="fill:none;stroke-width:1" stroke="rgb(0,0,0)" x1="500" y1="803" x2="497" y2="772"/> <circle style="stroke-width:1" cx="500" cy="803" r="12" fill="rgb(255,255,255)" stroke="rgb(0,0,0)"/> <text x="492" y="811" fill="rgb(0,0,0)" stroke="rgb(0,0,0)">G</text>
<line style="fill:none;stroke-width:1" stroke="rgb(0,0,0)" x1="497" y1="772" x2="494" y2="741"/> <circle style="stroke-width:1" cx="497" cy="772" r="12" fill="rgb(255,255,255)" stroke="rgb(0,0,0)"/> <text x="489" y="780" fill="rgb(0,0,0)" stroke="rgb(0,0,0)">C</text>
<line style="fill:none;stroke-width:1" stroke="rgb(0,0,0)" x1="494" y1="741" x2="491" y2="710"/> <circle style="stroke-width:1" cx="494" cy="741" r="12" fill="rgb(255,255,255)" stroke="rgb(0,0,0)"/> <text x="486" y="749" fill="rgb(0,0,0)" stroke="rgb(0,0,0)">A</text>
<line style="fill:none;stroke-width:1" stroke="rgb(0,0,0)" x1="491" y1="710" x2="488" y2="679"/> <circle style="stroke-width:1" cx="491" cy="710" r="12" fill="rgb(255,255,255)" stroke="rgb(0,0,0)"/> <text x="483" y="718" fill="rgb(0,0,0)" stroke="rgb(0,0,0)">G</text>
<line style="fill:none;stroke-width:1" stroke="rgb(0,0,0)" x1="488" y1="679" x2="408" y2="692"/> <circle style="stroke-width:1" cx="488" cy="679" r="12" fill="rgb(255,255,255)" stroke="rgb(0,0,0)"/> <text x="480" y="687" fill="rgb(0,0,0)" stroke="rgb(0,0,0)">G</text>
<line style="fill:none;stroke-width:1" stroke="rgb(0,0,0)" x1="408" y1="692" x2="328" y2="706"/> <circle style="stroke-width:1" cx="408" cy="692" r="12" fill="rgb(255,255,255)" stroke="rgb(0,0,0)"/> <text x="400" y="700" fill="rgb(0,0,0)" stroke="rgb(0,0,0)">A</text>
<line style="fill:none;stroke-width:1" stroke="rgb(0,0,0)" x1="328" y1="706" x2="248" y2="720"/> <circle style="stroke-width:1" cx="328" cy="706" r="12" fill="rgb(255,255,255)" stroke="rgb(0,0,0)"/> <text x="320" y="714" fill="rgb(0,0,0)" stroke="rgb(0,0,0)">C</text>
<line style="fill:none;stroke-width:1" stroke="rgb(0,0,0)" x1="248" y1="720" x2="221" y2="736"/> <circle style="stroke-width:1" cx="248" cy="720" r="12" fill="rgb(255,255,255)" stroke="rgb(0,0,0)"/> <text x="240" y="728" fill="rgb(0,0,0)" stroke="rgb(0,0,0)">G</text>
<line style="fill:none;stroke-width:1" stroke="rgb(0,0,0)" x1="221" y1="736" x2="194" y2="752"/> <line style="fill:none;stroke-width:1" stroke="rgb(0,0,0)" x1="221" y1="736" x2="279" y2="831"/> <rect x="264" y="819" width="30" height="24" fill="rgb(255,255,255)" stroke="rgb(255,255,255)"/> <text x="264" y="839" fill="rgb(0,0,0)" stroke="rgb(0,0,0)">10</text> <circle style="stroke-width:1" cx="221" cy="736" r="12" fill="rgb(255,255,255)" stroke="rgb(0,0,0)"/> <text x="213" y="744" fill="rgb(0,0,0)" stroke="rgb(0,0,0)">A</text>
<line style="fill:none;stroke-width:1" stroke="rgb(0,0,0)" x1="194" y1="752" x2="167" y2="783"/> <circle style="stroke-width:1" cx="194" cy="752" r="12" fill="rgb(255,255,255)" stroke="rgb(0,0,0)"/> <text x="186" y="760" fill="rgb(0,0,0)" stroke="rgb(0,0,0)">G</text>
<line style="fill:none;stroke-width:1" stroke="rgb(0,0,0)" x1="167" y1="783" x2="127" y2="784"/> <circle style="stroke-width:1" cx="167" cy="783" r="12" fill="rgb(255,255,255)" stroke="rgb(0,0,0)"/> <text x="159" y="791" fill="rgb(0,0,0)" stroke="rgb(0,0,0)">A</text>
<line style="fill:none;stroke-width:1" stroke="rgb(0,0,0)" x1="127" y1="784" x2="107" y2="751"/> <circle style="stroke-width:1" cx="127" cy="784" r="12" fill="rgb(255,255,255)" stroke="rgb(0,0,0)"/> <text x="119" y="792" fill="rgb(0,0,0)" stroke="rgb(0,0,0)">C</text>
<line style="fill:none;stroke-width:1" stroke="rgb(0,0,0)" x1="107" y1="751" x2="126" y2="716"/> <circle style="stroke-width:1" cx="107" cy="751" r="12" fill="rgb(255,255,255)" stroke="rgb(0,0,0)"/> <text x="99" y="759" fill="rgb(0,0,0)" stroke="rgb(0,0,0)">C</text>
<line style="fill:none;stroke-width:1" stroke="rgb(0,0,0)" x1="126" y1="716" x2="166" y2="705"/> <circle style="stroke-width:1" cx="126" cy="716" r="12" fill="rgb(255,255,255)" stroke="rgb(0,0,0)"/> <text x="118" y="724" fill="rgb(0,0,0)" stroke="rgb(0,0,0)">C</text>
<line style="fill:none;stroke-width:1" stroke="rgb(0,0,0)" x1="166" y1="705" x2="193" y2="689"/> <circle style="stroke-width:1" cx="166" cy="705" r="12" fill="rgb(255,255,255)" stroke="rgb(0,0,0)"/> <text x="158" y="713" fill="rgb(0,0,0)" stroke="rgb(0,0,0)">C</text>
<line style="fill:none;stroke-width:1" stroke="rgb(0,0,0)" x1="193" y1="689" x2="220" y2="673"/> <circle style="stroke-width:1" cx="193" cy="689" r="12" fill="rgb(255,255,255)" stroke="rgb(0,0,0)"/> <text x="185" y="697" fill="rgb(0,0,0)" stroke="rgb(0,0,0)">U</text>
<line style="fill:none;stroke-width:1" stroke="rgb(0,0,0)" x1="220" y1="673" x2="261" y2="389"/> <circle style="stroke-width:1" cx="220" cy="673" r="12" fill="rgb(255,255,255)" stroke="rgb(0,0,0)"/> <text x="212" y="681" fill="rgb(0,0,0)" stroke="rgb(0,0,0)">C</text>
<line style="fill:none;stroke-width:1" stroke="rgb(0,0,0)" x1="261" y1="389" x2="236" y2="371"/> <circle style="stroke-width:1" cx="261" cy="389" r="12" fill="rgb(255,255,255)" stroke="rgb(0,0,0)"/> <text x="253" y="397" fill="rgb(0,0,0)" stroke="rgb(0,0,0)">C</text>
<line style="fill:none;stroke-width:1" stroke="rgb(0,0,0)" x1="236" y1="371" x2="211" y2="353"/> <line style="fill:none;stroke-width:1" stroke="rgb(0,0,0)" x1="236" y1="371" x2="171" y2="461"/> <rect x="156" y="449" width="30" height="24" fill="rgb(255,255,255)" stroke="rgb(255,255,255)"/> <text x="156" y="469" fill="rgb(0,0,0)" stroke="rgb(0,0,0)">20</text> <circle style="stroke-width:1" cx="236" cy="371" r="12" fill="rgb(255,255,255)" stroke="rgb(0,0,0)"/> <text x="228" y="379" fill="rgb(0,0,0)" stroke="rgb(0,0,0)">C</text>
<line style="fill:none;stroke-width:1" stroke="rgb(0,0,0)" x1="211" y1="353" x2="186" y2="335"/> <circle style="stroke-width:1" cx="211" cy="353" r="12" fill="rgb(255,255,255)" stroke="rgb(0,0,0)"/> <text x="203" y="361" fill="rgb(0,0,0)" stroke="rgb(0,0,0)">C</text>
<line style="fill:none;stroke-width:1" stroke="rgb(0,0,0)" x1="186" y1="335" x2="161" y2="317"/> <circle style="stroke-width:1" cx="186" cy="335" r="12" fill="rgb(255,255,255)" stroke="rgb(0,0,0)"/> <text x="178" y="343" fill="rgb(0,0,0)" stroke="rgb(0,0,0)">G</text>
<line style="fill:none;stroke-width:1" stroke="rgb(0,0,0)" x1="161" y1="317" x2="126" y2="327"/> <circle style="stroke-width:1" cx="161" cy="317" r="12" fill="rgb(255,255,255)" stroke="rgb(0,0,0)"/> <text x="153" y="325" fill="rgb(0,0,0)" stroke="rgb(0,0,0)">G</text>
<line style="fill:none;stroke-width:1" stroke="rgb(0,0,0)" x1="126" y1="327" x2="85" y2="322"/> <circle style="stroke-width:1" cx="126" cy="327" r="12" fill="rgb(255,255,255)" stroke="rgb(0,0,0)"/> <text x="118" y="335" fill="rgb(0,0,0)" stroke="rgb(0,0,0)">C</text>
<line style="fill:none;stroke-width:1" stroke="rgb(0,0,0)" x1="85" y1="322" x2="52" y2="298"/> <circle style="stroke-width:1" cx="85" cy="322" r="12" fill="rgb(255,255,255)" stroke="rgb(0,0,0)"/> <text x="77" y="330" fill="rgb(0,0,0)" stroke="rgb(0,0,0)">A</text>
<line style="fill:none;stroke-width:1" stroke="rgb(0,0,0)" x1="52" y1="298" x2="36" y2="261"/> <circle style="stroke-width:1" cx="52" cy="298" r="12" fill="rgb(255,255,255)" stroke="rgb(0,0,0)"/> <text x="44" y="306" fill="rgb(0,0,0)" stroke="rgb(0,0,0)">G</text>
<line style="fill:none;stroke-width:1" stroke="rgb(0,0,0)" x1="36" y1="261" x2="40" y2="220"/> <circle style="stroke-width:1" cx="36" cy="261" r="12" fill="rgb(255,255,255)" stroke="rgb(0,0,0)"/> <text x="28" y="269" fill="rgb(0,0,0)" stroke="rgb(0,0,0)">A</text>
<line style="fill:none;stroke-width:1" stroke="rgb(0,0,0)" x1="40" y1="220" x2="64" y2="187"/> <circle style="stroke-width:1" cx="40" cy="220" r="12" fill="rgb(255,255,255)" stroke="rgb(0,0,0)"/> <text x="32" y="228" fill="rgb(0,0,0)" stroke="rgb(0,0,0)">G</text>
<line style="fill:none;stroke-width:1" stroke="rgb(0,0,0)" x1="64" y1="187" x2="101" y2="170"/> <circle style="stroke-width:1" cx="64" cy="187" r="12" fill="rgb(255,255,255)" stroke="rgb(0,0,0)"/> <text x="56" y="195" fill="rgb(0,0,0)" stroke="rgb(0,0,0)">A</text>
<line style="fill:none;stroke-width:1" stroke="rgb(0,0,0)" x1="101" y1="170" x2="142" y2="175"/> <line style="fill:none;stroke-width:1" stroke="rgb(0,0,0)" x1="101" y1="170" x2="84" y2="60"/> <rect x="69" y="48" width="30" height="24" fill="rgb(255,255,255)" stroke="rgb(255,255,255)"/> <text x="69" y="68" fill="rgb(0,0,0)" stroke="rgb(0,0,0)">30</text> <circle style="stroke-width:1" cx="101" cy="170" r="12" fill="rgb(255,255,255)" stroke="rgb(0,0,0)"/> <text x="93" y="178" fill="rgb(0,0,0)" stroke="rgb(0,0,0)">C</text>
<line style="fill:none;stroke-width:1" stroke="rgb(0,0,0)" x1="142" y1="175" x2="175" y2="199"/> <circle style="stroke-width:1" cx="142" cy="175" r="12" fill="rgb(255,255,255)" stroke="rgb(0,0,0)"/> <text x="134" y="183" fill="rgb(0,0,0)" stroke="rgb(0,0,0)">U</text>
<line style="fill:none;stroke-width:1" stroke="rgb(0,0,0)" x1="175" y1="199" x2="192" y2="236"/> <circle style="stroke-width:1" cx="175" cy="199" r="12" fill="rgb(255,255,255)" stroke="rgb(0,0,0)"/> <text x="167" y="207" fill="rgb(0,0,0)" stroke="rgb(0,0,0)">A</text>
<line style="fill:none;stroke-width:1" stroke="rgb(0,0,0)" x1="192" y1="236" x2="193" y2="273"/> <circle style="stroke-width:1" cx="192" cy="236" r="12" fill="rgb(255,255,255)" stroke="rgb(0,0,0)"/> <text x="184" y="244" fill="rgb(0,0,0)" stroke="rgb(0,0,0)">A</text>
<line style="fill:none;stroke-width:1" stroke="rgb(0,0,0)" x1="193" y1="273" x2="218" y2="291"/> <circle style="stroke-width:1" cx="193" cy="273" r="12" fill="rgb(255,255,255)" stroke="rgb(0,0,0)"/> <text x="185" y="281" fill="rgb(0,0,0)" stroke="rgb(0,0,0)">C</text>
<line style="fill:none;stroke-width:1" stroke="rgb(0,0,0)" x1="218" y1="291" x2="243" y2="309"/> <circle style="stroke-width:1" cx="218" cy="291" r="12" fill="rgb(255,255,255)" stroke="rgb(0,0,0)"/> <text x="210" y="299" fill="rgb(0,0,0)" stroke="rgb(0,0,0)">C</text>
<line style="fill:none;stroke-width:1" stroke="rgb(0,0,0)" x1="243" y1="309" x2="268" y2="327"/> <circle style="stroke-width:1" cx="243" cy="309" r="12" fill="rgb(255,255,255)" stroke="rgb(0,0,0)"/> <text x="235" y="317" fill="rgb(0,0,0)" stroke="rgb(0,0,0)">G</text>
<line style="fill:none;stroke-width:1" stroke="rgb(0,0,0)" x1="268" y1="327" x2="293" y2="345"/> <circle style="stroke-width:1" cx="268" cy="327" r="12" fill="rgb(255,255,255)" stroke="rgb(0,0,0)"/> <text x="260" y="335" fill="rgb(0,0,0)" stroke="rgb(0,0,0)">G</text>
<line style="fill:none;stroke-width:1" stroke="rgb(0,0,0)" x1="293" y1="345" x2="367" y2="299"/> <circle style="stroke-width:1" cx="293" cy="345" r="12" fill="rgb(255,255,255)" stroke="rgb(0,0,0)"/> <text x="285" y="353" fill="rgb(0,0,0)" stroke="rgb(0,0,0)">G</text>
<line style="fill:none;stroke-width:1" stroke="rgb(0,0,0)" x1="367" y1="299" x2="432" y2="274"/> <circle style="stroke-width:1" cx="367" cy="299" r="12" fill="rgb(255,255,255)" stroke="rgb(0,0,0)"/> <text x="359" y="307" fill="rgb(0,0,0)" stroke="rgb(0,0,0)">A</text>
<line style="fill:none;stroke-width:1" stroke="rgb(0,0,0)" x1="432" y1="274" x2="502" y2="266"/> <line style="fill:none;stroke-width:1" stroke="rgb(0,0,0)" x1="432" y1="274" x2="406" y2="166"/> <rect x="391" y="154" width="30" height="24" fill="rgb(255,255,255)" stroke="rgb(255,255,255)"/> <text x="391" y="174" fill="rgb(0,0,0)" stroke="rgb(0,0,0)">40</text> <circle style="stroke-width:1" cx="432" cy="274" r="12" fill="rgb(255,255,255)" stroke="rgb(0,0,0)"/> <text x="424" y="282" fill="rgb(0,0,0)" stroke="rgb(0,0,0)">C</text>
<line style="fill:none;stroke-width:1" stroke="rgb(0,0,0)" x1="502" y1="266" x2="571" y2="274"/> <circle style="stroke-width:1" cx="502" cy="266" r="12" fill="rgb(255,255,255)" stroke="rgb(0,0,0)"/> <text x="494" y="274" fill="rgb(0,0,0)" stroke="rgb(0,0,0)">G</text>
<line style="fill:none;stroke-width:1" stroke="rgb(0,0,0)" x1="571" y1="274" x2="636" y2="299"/> <circle style="stroke-width:1" cx="571" cy="274" r="12" fill="rgb(255,255,255)" stroke="rgb(0,0,0)"/> <text x="563" y="282" fill="rgb(0,0,0)" stroke="rgb(0,0,0)">C</text>
<line style="fill:none;stroke-width:1" stroke="rgb(0,0,0)" x1="636" y1="299" x2="695" y2="337"/> <circle style="stroke-width:1" cx="636" cy="299" r="12" fill="rgb(255,255,255)" stroke="rgb(0,0,0)"/> <text x="628" y="307" fill="rgb(0,0,0)" stroke="rgb(0,0,0)">A</text>
<line style="fill:none;stroke-width:1" stroke="rgb(0,0,0)" x1="695" y1="337" x2="715" y2="313"/> <circle style="stroke-width:1" cx="695" cy="337" r="12" fill="rgb(255,255,255)" stroke="rgb(0,0,0)"/> <text x="687" y="345" fill="rgb(0,0,0)" stroke="rgb(0,0,0)">G</text>
<line style="fill:none;stroke-width:1" stroke="rgb(0,0,0)" x1="715" y1="313" x2="735" y2="289"/> <circle style="stroke-width:1" cx="715" cy="313" r="12" fill="rgb(255,255,255)" stroke="rgb(0,0,0)"/> <text x="707" y="321" fill="rgb(0,0,0)" stroke="rgb(0,0,0)">G</text>
<line style="fill:none;stroke-width:1" stroke="rgb(0,0,0)" x1="735" y1="289" x2="755" y2="265"/> <circle style="stroke-width:1" cx="735" cy="289" r="12" fill="rgb(255,255,255)" stroke="rgb(0,0,0)"/> <text x="727" y="297" fill="rgb(0,0,0)" stroke="rgb(0,0,0)">G</text>
<line style="fill:none;stroke-width:1" stroke="rgb(0,0,0)" x1="755" y1="265" x2="771" y2="228"/> <circle style="stroke-width:1" cx="755" cy="265" r="12" fill="rgb(255,255,255)" stroke="rgb(0,0,0)"/> <text x="747" y="273" fill="rgb(0,0,0)" stroke="rgb(0,0,0)">G</text>
<line style="fill:none;stroke-width:1" stroke="rgb(0,0,0)" x1="771" y1="228" x2="809" y2="214"/> <circle style="stroke-width:1" cx="771" cy="228" r="12" fill="rgb(255,255,255)" stroke="rgb(0,0,0)"/> <text x="763" y="236" fill="rgb(0,0,0)" stroke="rgb(0,0,0)">A</text>
<line style="fill:none;stroke-width:1" stroke="rgb(0,0,0)" x1="809" y1="214" x2="839" y2="240"/> <circle style="stroke-width:1" cx="809" cy="214" r="12" fill="rgb(255,255,255)" stroke="rgb(0,0,0)"/> <text x="801" y="222" fill="rgb(0,0,0)" stroke="rgb(0,0,0)">G</text>
<line style="fill:none;stroke-width:1" stroke="rgb(0,0,0)" x1="839" y1="240" x2="831" y2="279"/> <line style="fill:none;stroke-width:1" stroke="rgb(0,0,0)" x1="839" y1="240" x2="944" y2="203"/> <rect x="929" y="191" width="30" height="24" fill="rgb(255,255,255)" stroke="rgb(255,255,255)"/> <text x="929" y="211" fill="rgb(0,0,0)" stroke="rgb(0,0,0)">50</text> <circle style="stroke-width:1" cx="839" cy="240" r="12" fill="rgb(255,255,255)" stroke="rgb(0,0,0)"/> <text x="831" y="248" fill="rgb(0,0,0)" stroke="rgb(0,0,0)">A</text>
<line style="fill:none;stroke-width:1" stroke="rgb(0,0,0)" x1="831" y1="279" x2="797" y2="301"/> <circle style="stroke-width:1" cx="831" cy="279" r="12" fill="rgb(255,255,255)" stroke="rgb(0,0,0)"/> <text x="823" y="287" fill="rgb(0,0,0)" stroke="rgb(0,0,0)">C</text>
<line style="fill:none;stroke-width:1" stroke="rgb(0,0,0)" x1="797" y1="301" x2="777" y2="325"/> <circle style="stroke-width:1" cx="797" cy="301" r="12" fill="rgb(255,255,255)" stroke="rgb(0,0,0)"/> <text x="789" y="309" fill="rgb(0,0,0)" stroke="rgb(0,0,0)">C</text>
<line style="fill:none;stroke-width:1" stroke="rgb(0,0,0)" x1="777" y1="325" x2="757" y2="349"/> <circle style="stroke-width:1" cx="777" cy="325" r="12" fill="rgb(255,255,255)" stroke="rgb(0,0,0)"/> <text x="769" y="333" fill="rgb(0,0,0)" stroke="rgb(0,0,0)">C</text>
<line style="fill:none;stroke-width:1" stroke="rgb(0,0,0)" x1="757" y1="349" x2="737" y2="373"/> <circle style="stroke-width:1" cx="757" cy="349" r="12" fill="rgb(255,255,255)" stroke="rgb(0,0,0)"/> <text x="749" y="357" fill="rgb(0,0,0)" stroke="rgb(0,0,0)">C</text>
<line style="fill:none;stroke-width:1" stroke="rgb(0,0,0)" x1="737" y1="373" x2="758" y2="413"/> <circle style="stroke-width:1" cx="737" cy="373" r="12" fill="rgb(255,255,255)" stroke="rgb(0,0,0)"/> <text x="729" y="381" fill="rgb(0,0,0)" stroke="rgb(0,0,0)">C</text>
<line style="fill:none;stroke-width:1" stroke="rgb(0,0,0)" x1="758" y1="413" x2="780" y2="458"/> <circle style="stroke-width:1" cx="758" cy="413" r="12" fill="rgb(255,255,255)" stroke="rgb(0,0,0)"/> <text x="750" y="421" fill="rgb(0,0,0)" stroke="rgb(0,0,0)">A</text>
<line style="fill:none;stroke-width:1" stroke="rgb(0,0,0)" x1="780" y1="458" x2="793" y2="506"/> <circle style="stroke-width:1" cx="780" cy="458" r="12" fill="rgb(255,255,255)" stroke="rgb(0,0,0)"/> <text x="772" y="466" fill="rgb(0,0,0)" stroke="rgb(0,0,0)">C</text>
<line style="fill:none;stroke-width:1" stroke="rgb(0,0,0)" x1="793" y1="506" x2="799" y2="555"/> <circle style="stroke-width:1" cx="793" cy="506" r="12" fill="rgb(255,255,255)" stroke="rgb(0,0,0)"/> <text x="785" y="514" fill="rgb(0,0,0)" stroke="rgb(0,0,0)">C</text>
<line style="fill:none;stroke-width:1" stroke="rgb(0,0,0)" x1="799" y1="555" x2="796" y2="605"/> <circle style="stroke-width:1" cx="799" cy="555" r="12" fill="rgb(255,255,255)" stroke="rgb(0,0,0)"/> <text x="791" y="563" fill="rgb(0,0,0)" stroke="rgb(0,0,0)">C</text>
<line style="fill:none;stroke-width:1" stroke="rgb(0,0,0)" x1="796" y1="605" x2="785" y2="654"/> <line style="fill:none;stroke-width:1" stroke="rgb(0,0,0)" x1="796" y1="605" x2="906" y2="620"/> <rect x="891" y="608" width="30" height="24" fill="rgb(255,255,255)" stroke="rgb(255,255,255)"/> <text x="891" y="628" fill="rgb(0,0,0)" stroke="rgb(0,0,0)">60</text> <circle style="stroke-width:1" cx="796" cy="605" r="12" fill="rgb(255,255,255)" stroke="rgb(0,0,0)"/> <text x="788" y="613" fill="rgb(0,0,0)" stroke="rgb(0,0,0)">G</text>
<line style="fill:none;stroke-width:1" stroke="rgb(0,0,0)" x1="785" y1="654" x2="767" y2="700"/> <circle style="stroke-width:1" cx="785" cy="654" r="12" fill="rgb(255,255,255)" stroke="rgb(0,0,0)"/> <text x="777" y="662" fill="rgb(0,0,0)" stroke="rgb(0,0,0)">U</text>
<line style="fill:none;stroke-width:1" stroke="rgb(0,0,0)" x1="767" y1="700" x2="795" y2="714"/> <circle style="stroke-width:1" cx="767" cy="700" r="12" fill="rgb(255,255,255)" stroke="rgb(0,0,0)"/> <text x="759" y="708" fill="rgb(0,0,0)" stroke="rgb(0,0,0)">G</text>
<line style="fill:none;stroke-width:1" stroke="rgb(0,0,0)" x1="795" y1="714" x2="833" y2="711"/> <circle style="stroke-width:1" cx="795" cy="714" r="12" fill="rgb(255,255,255)" stroke="rgb(0,0,0)"/> <text x="787" y="722" fill="rgb(0,0,0)" stroke="rgb(0,0,0)">G</text>
<line style="fill:none;stroke-width:1" stroke="rgb(0,0,0)" x1="833" y1="711" x2="869" y2="729"/> <circle style="stroke-width:1" cx="833" cy="711" r="12" fill="rgb(255,255,255)" stroke="rgb(0,0,0)"/> <text x="825" y="719" fill="rgb(0,0,0)" stroke="rgb(0,0,0)">C</text>
<line style="fill:none;stroke-width:1" stroke="rgb(0,0,0)" x1="869" y1="729" x2="882" y2="767"/> <circle style="stroke-width:1" cx="869" cy="729" r="12" fill="rgb(255,255,255)" stroke="rgb(0,0,0)"/> <text x="861" y="737" fill="rgb(0,0,0)" stroke="rgb(0,0,0)">C</text>
<line style="fill:none;stroke-width:1" stroke="rgb(0,0,0)" x1="882" y1="767" x2="863" y2="803"/> <circle style="stroke-width:1" cx="882" cy="767" r="12" fill="rgb(255,255,255)" stroke="rgb(0,0,0)"/> <text x="874" y="775" fill="rgb(0,0,0)" stroke="rgb(0,0,0)">G</text>
<line style="fill:none;stroke-width:1" stroke="rgb(0,0,0)" x1="863" y1="803" x2="825" y2="816"/> <circle style="stroke-width:1" cx="863" cy="803" r="12" fill="rgb(255,255,255)" stroke="rgb(0,0,0)"/> <text x="855" y="811" fill="rgb(0,0,0)" stroke="rgb(0,0,0)">A</text>
<line style="fill:none;stroke-width:1" stroke="rgb(0,0,0)" x1="825" y1="816" x2="789" y2="797"/> <circle style="stroke-width:1" cx="825" cy="816" r="12" fill="rgb(255,255,255)" stroke="rgb(0,0,0)"/> <text x="817" y="824" fill="rgb(0,0,0)" stroke="rgb(0,0,0)">G</text>
<line style="fill:none;stroke-width:1" stroke="rgb(0,0,0)" x1="789" y1="797" x2="770" y2="763"/> <circle style="stroke-width:1" cx="789" cy="797" r="12" fill="rgb(255,255,255)" stroke="rgb(0,0,0)"/> <text x="781" y="805" fill="rgb(0,0,0)" stroke="rgb(0,0,0)">A</text>
<line style="fill:none;stroke-width:1" stroke="rgb(0,0,0)" x1="770" y1="763" x2="742" y2="749"/> <line style="fill:none;stroke-width:1" stroke="rgb(0,0,0)" x1="770" y1="763" x2="720" y2="862"/> <rect x="705" y="850" width="30" height="24" fill="rgb(255,255,255)" stroke="rgb(255,255,255)"/> <text x="705" y="870" fill="rgb(0,0,0)" stroke="rgb(0,0,0)">70</text> <circle style="stroke-width:1" cx="770" cy="763" r="12" fill="rgb(255,255,255)" stroke="rgb(0,0,0)"/> <text x="762" y="771" fill="rgb(0,0,0)" stroke="rgb(0,0,0)">C</text>
<line style="fill:none;stroke-width:1" stroke="rgb(0,0,0)" x1="742" y1="749" x2="543" y2="673"/> <circle style="stroke-width:1" cx="742" cy="749" r="12" fill="rgb(255,255,255)" stroke="rgb(0,0,0)"/> <text x="734" y="757" fill="rgb(0,0,0)" stroke="rgb(0,0,0)">C</text>
<line style="fill:none;stroke-width:1" stroke="rgb(0,0,0)" x1="543" y1="673" x2="546" y2="704"/> <circle style="stroke-width:1" cx="543" cy="673" r="12" fill="rgb(255,255,255)" stroke="rgb(0,0,0)"/> <text x="535" y="681" fill="rgb(0,0,0)" stroke="rgb(0,0,0)">C</text>
<line style="fill:none;stroke-width:1" stroke="rgb(0,0,0)" x1="546" y1="704" x2="549" y2="735"/> <circle style="stroke-width:1" cx="546" cy="704" r="12" fill="rgb(255,255,255)" stroke="rgb(0,0,0)"/> <text x="538" y="712" fill="rgb(0,0,0)" stroke="rgb(0,0,0)">C</text>
<line style="fill:none;stroke-width:1" stroke="rgb(0,0,0)" x1="549" y1="735" x2="552" y2="766"/> <circle style="stroke-width:1" cx="549" cy="735" r="12" fill="rgb(255,255,255)" stroke="rgb(0,0,0)"/> <text x="541" y="743" fill="rgb(0,0,0)" stroke="rgb(0,0,0)">U</text>
<line style="fill:none;stroke-width:1" stroke="rgb(0,0,0)" x1="552" y1="766" x2="555" y2="797"/> <circle style="stroke-width:1" cx="552" cy="766" r="12" fill="rgb(255,255,255)" stroke="rgb(0,0,0)"/> <text x="544" y="774" fill="rgb(0,0,0)" stroke="rgb(0,0,0)">G</text>
<line style="fill:none;stroke-width:1" stroke="rgb(0,0,0)" x1="555" y1="797" x2="558" y2="828"/> <circle style="stroke-width:1" cx="555" cy="797" r="12" fill="rgb(255,255,255)" stroke="rgb(0,0,0)"/> <text x="547" y="805" fill="rgb(0,0,0)" stroke="rgb(0,0,0)">C</text>
<line style="fill:none;stroke-width:1" stroke="rgb(0,0,0)" x1="558" y1="828" x2="588" y2="884"/> <circle style="stroke-width:1" cx="558" cy="828" r="12" fill="rgb(255,255,255)" stroke="rgb(0,0,0)"/> <text x="550" y="836" fill="rgb(0,0,0)" stroke="rgb(0,0,0)">C</text>
<line style="fill:none;stroke-width:1" stroke="rgb(0,0,0)" x1="588" y1="884" x2="592" y2="937"/> <circle style="stroke-width:1" cx="588" cy="884" r="12" fill="rgb(255,255,255)" stroke="rgb(0,0,0)"/> <text x="580" y="892" fill="rgb(0,0,0)" stroke="rgb(0,0,0)">C</text>
<line style="fill:none;stroke-width:1" stroke="rgb(0,0,0)" x1="592" y1="937" x2="562" y2="981"/> <circle style="stroke-width:1" cx="592" cy="937" r="12" fill="rgb(255,255,255)" stroke="rgb(0,0,0)"/> <text x="584" y="945" fill="rgb(0,0,0)" stroke="rgb(0,0,0)">C</text>
<line style="fill:none;stroke-width:1" stroke="rgb(0,0,0)" x1="562" y1="981" x2="629" y2="1070"/> <rect x="614" y="1058" width="30" height="24" fill="rgb(255,255,255)" stroke="rgb(255,255,255)"/> <text x="614" y="1078" fill="rgb(0,0,0)" stroke="rgb(0,0,0)">80</text> <circle style="stroke-width:1" cx="562" cy="981" r="12" fill="rgb(255,255,255)" stroke="rgb(0,0,0)"/> <text x="554" y="989" fill="rgb(0,0,0)" stroke="rgb(0,0,0)">G</text>
</g>
<g font-size="16">
<text x="36" y="892" fill="rgb(0,0,0)" stroke="rgb(0,0,0)">ENERGY = -29.1  ENST00000415602.5</text>
</g>
</svg>
