<?xml version="1.0" encoding="UTF-8" standalone="no"?>
<!DOCTYPE svg PUBLIC "-//W3C//DTD SVG 1.1//EN" "http://www.w3.org/Graphics/SVG/1.1/DTD/svg11.dtd">
<svg xmlns="http://www.w3.org/2000/svg" xmlns:xlink="http://www.w3.org/1999/xlink" xml:space="preserve" font-family="monospace" font-size="24" fill="rgb(255,255,255)" stroke="rgb(0,0,0)" viewBox="0 0 790 905">
<g transform="scale(0.445896)">
<path style="fill:none;stroke-width:3" stroke="rgb(0,0,0)" d="M228,1497 Q255,1493 282,1489"/>
<path style="fill:none;stroke-width:3" stroke="rgb(0,0,0)" d="M224,1466 Q251,1462 278,1458"/>
<path style="fill:none;stroke-width:3" stroke="rgb(0,0,0)" d="M220,1435 Q247,1431 274,1427"/>
<path style="fill:none;stroke-width:3" stroke="rgb(0,0,0)" d="M216,1404 Q243,1400 270,1396"/>
<path style="fill:none;stroke-width:3" stroke="rgb(0,0,0)" d="M199,1277 Q226.5,1274 254,1271"/>
<path style="fill:none;stroke-width:3" stroke="rgb(0,0,0)" d="M196,1246 Q223.5,1243 251,1240"/>
<path style="fill:none;stroke-width:3" stroke="rgb(0,0,0)" d="M193,1215 Q220.5,1212 248,1209"/>
<path style="fill:none;stroke-width:3" stroke="rgb(0,0,0)" d="M186,1016 Q213.5,1017 241,1018"/>
<path style="fill:none;stroke-width:3" stroke="rgb(0,0,0)" d="M187,985 Q214.5,986 242,987"/>
<path style="fill:none;stroke-width:3" stroke="rgb(0,0,0)" d="M192,859 Q219.5,860 247,861"/>
<path style="fill:none;stroke-width:3" stroke="rgb(0,0,0)" d="M193,828 Q220.5,829 248,830"/>
<path style="fill:none;stroke-width:3" stroke="rgb(0,0,0)" d="M206,675 Q233.5,678 261,681"/>
<path style="fill:none;stroke-width:3" stroke="rgb(0,0,0)" d="M209,644 Q236.5,647 264,650"/>
<path style="fill:none;stroke-width:3" stroke="rgb(0,0,0)" d="M212,613 Q239.5,616 267,619"/>
<path style="fill:none;stroke-width:3" stroke="rgb(0,0,0)" d="M227,419 Q254.5,420 282,421"/>
<path style="fill:none;stroke-width:3" stroke="rgb(0,0,0)" d="M228,388 Q255.5,389 283,390"/>
<path style="fill:none;stroke-width:3" stroke="rgb(0,0,0)" d="M229,357 Q256.5,358 284,359"/>
<path style="fill:none;stroke-width:3" stroke="rgb(0,0,0)" d="M230,326 Q257.5,327 285,328"/>
<path style="fill:none;stroke-width:3" stroke="rgb(0,0,0)" d="M231,295 Q258.5,296 286,297"/>
<path style="fill:none;stroke-width:3" stroke="rgb(0,0,0)" d="M238,171 Q265.5,173 293,175"/>
<path style="fill:none;stroke-width:3" stroke="rgb(0,0,0)" d="M240,140 Q267.5,142 295,144"/>
<path style="fill:none;stroke-width:3" stroke="rgb(0,0,0)" d="M242,109 Q269.5,111 297,113"/>
<line style="fill:none;stroke-width:1" stroke="rgb(0,0,0)" x1="117" y1="1640" x2="145" y2="1547"/> <circle style="stroke-width:1" cx="117" cy="1640" r="12" fill="rgb(255,255,255)" stroke="rgb(0,0,0)"/> <text x="109" y="1648" fill="rgb(0,0,0)" stroke="rgb(0,0,0)">A</text>
<line style="fill:none;stroke-width:1" stroke="rgb(0,0,0)" x1="145" y1="1547" x2="228" y2="1497"/> <circle style="stroke-width:1" cx="145" cy="1547" r="12" fill="rgb(255,255,255)" stroke="rgb(0,0,0)"/> <text x="137" y="1555" fill="rgb(0,0,0)" stroke="rgb(0,0,0)">G</text>
<line style="fill:none;stroke-width:1" stroke="rgb(0,0,0)" x1="228" y1="1497" x2="224" y2="1466"/> <circle style="stroke-width:1" cx="228" cy="1497" r="12" fill="rgb(255,255,255)" stroke="rgb(0,0,0)"/> <text x="220" y="1505" fill="rgb(0,0,0)" stroke="rgb(0,0,0)">C</text>
<line style="fill:none;stroke-width:1" stroke="rgb(0,0,0)" x1="224" y1="1466" x2="220" y2="1435"/> <circle style="stroke-width:1" cx="224" cy="1466" r="12" fill="rgb(255,255,255)" stroke="rgb(0,0,0)"/> <text x="216" y="1474" fill="rgb(0,0,0)" stroke="rgb(0,0,0)">A</text>
<line style="fill:none;stroke-width:1" stroke="rgb(0,0,0)" x1="220" y1="1435" x2="216" y2="1404"/> <circle style="stroke-width:1" cx="220" cy="1435" r="12" fill="rgb(255,255,255)" stroke="rgb(0,0,0)"/> <text x="212" y="1443" fill="rgb(0,0,0)" stroke="rgb(0,0,0)">C</text>
<line style="fill:none;stroke-width:1" stroke="rgb(0,0,0)" x1="216" y1="1404" x2="183" y2="1377"/> <circle style="stroke-width:1" cx="216" cy="1404" r="12" fill="rgb(255,255,255)" stroke="rgb(0,0,0)"/> <text x="208" y="1412" fill="rgb(0,0,0)" stroke="rgb(0,0,0)">C</text>
<line style="fill:none;stroke-width:1" stroke="rgb(0,0,0)" x1="183" y1="1377" x2="175" y2="1312"/> <circle style="stroke-width:1" cx="183" cy="1377" r="12" fill="rgb(255,255,255)" stroke="rgb(0,0,0)"/> <text x="175" y="1385" fill="rgb(0,0,0)" stroke="rgb(0,0,0)">A</text>
<line style="fill:none;stroke-width:1" stroke="rgb(0,0,0)" x1="175" y1="1312" x2="199" y2="1277"/> <circle style="stroke-width:1" cx="175" cy="1312" r="12" fill="rgb(255,255,255)" stroke="rgb(0,0,0)"/> <text x="167" y="1320" fill="rgb(0,0,0)" stroke="rgb(0,0,0)">C</text>
<line style="fill:none;stroke-width:1" stroke="rgb(0,0,0)" x1="199" y1="1277" x2="196" y2="1246"/> <circle style="stroke-width:1" cx="199" cy="1277" r="12" fill="rgb(255,255,255)" stroke="rgb(0,0,0)"/> <text x="191" y="1285" fill="rgb(0,0,0)" stroke="rgb(0,0,0)">G</text>
<line style="fill:none;stroke-width:1" stroke="rgb(0,0,0)" x1="196" y1="1246" x2="193" y2="1215"/> <line style="fill:none;stroke-width:1" stroke="rgb(0,0,0)" x1="196" y1="1246" x2="85" y2="1259"/> <rect x="70" y="1247" width="30" height="24" fill="rgb(255,255,255)" stroke="rgb(255,255,255)"/> <text x="70" y="1267" fill="rgb(0,0,0)" stroke="rgb(0,0,0)">10</text> <circle style="stroke-width:1" cx="196" cy="1246" r="12" fill="rgb(255,255,255)" stroke="rgb(0,0,0)"/> <text x="188" y="1254" fill="rgb(0,0,0)" stroke="rgb(0,0,0)">G</text>
<line style="fill:none;stroke-width:1" stroke="rgb(0,0,0)" x1="193" y1="1215" x2="158" y2="1199"/> <circle style="stroke-width:1" cx="193" cy="1215" r="12" fill="rgb(255,255,255)" stroke="rgb(0,0,0)"/> <text x="185" y="1223" fill="rgb(0,0,0)" stroke="rgb(0,0,0)">C</text>
<line style="fill:none;stroke-width:1" stroke="rgb(0,0,0)" x1="158" y1="1199" x2="116" y2="1149"/> <circle style="stroke-width:1" cx="158" cy="1199" r="12" fill="rgb(255,255,255)" stroke="rgb(0,0,0)"/> <text x="150" y="1207" fill="rgb(0,0,0)" stroke="rgb(0,0,0)">A</text>
<line style="fill:none;stroke-width:1" stroke="rgb(0,0,0)" x1="116" y1="1149" x2="113" y2="1084"/> <circle style="stroke-width:1" cx="116" cy="1149" r="12" fill="rgb(255,255,255)" stroke="rgb(0,0,0)"/> <text x="108" y="1157" fill="rgb(0,0,0)" stroke="rgb(0,0,0)">G</text>
<line style="fill:none;stroke-width:1" stroke="rgb(0,0,0)" x1="113" y1="1084" x2="151" y2="1032"/> <circle style="stroke-width:1" cx="113" cy="1084" r="12" fill="rgb(255,255,255)" stroke="rgb(0,0,0)"/> <text x="105" y="1092" fill="rgb(0,0,0)" stroke="rgb(0,0,0)">C</text>
<line style="fill:none;stroke-width:1" stroke="rgb(0,0,0)" x1="151" y1="1032" x2="186" y2="1016"/> <circle style="stroke-width:1" cx="151" cy="1032" r="12" fill="rgb(255,255,255)" stroke="rgb(0,0,0)"/> <text x="143" y="1040" fill="rgb(0,0,0)" stroke="rgb(0,0,0)">A</text>
<line style="fill:none;stroke-width:1" stroke="rgb(0,0,0)" x1="186" y1="1016" x2="187" y2="985"/> <circle style="stroke-width:1" cx="186" cy="1016" r="12" fill="rgb(255,255,255)" stroke="rgb(0,0,0)"/> <text x="178" y="1024" fill="rgb(0,0,0)" stroke="rgb(0,0,0)">G</text>
<line style="fill:none;stroke-width:1" stroke="rgb(0,0,0)" x1="187" y1="985" x2="162" y2="953"/> <circle style="stroke-width:1" cx="187" cy="985" r="12" fill="rgb(255,255,255)" stroke="rgb(0,0,0)"/> <text x="179" y="993" fill="rgb(0,0,0)" stroke="rgb(0,0,0)">G</text>
<line style="fill:none;stroke-width:1" stroke="rgb(0,0,0)" x1="162" y1="953" x2="164" y2="889"/> <circle style="stroke-width:1" cx="162" cy="953" r="12" fill="rgb(255,255,255)" stroke="rgb(0,0,0)"/> <text x="154" y="961" fill="rgb(0,0,0)" stroke="rgb(0,0,0)">A</text>
<line style="fill:none;stroke-width:1" stroke="rgb(0,0,0)" x1="164" y1="889" x2="192" y2="859"/> <circle style="stroke-width:1" cx="164" cy="889" r="12" fill="rgb(255,255,255)" stroke="rgb(0,0,0)"/> <text x="156" y="897" fill="rgb(0,0,0)" stroke="rgb(0,0,0)">G</text>
<line style="fill:none;stroke-width:1" stroke="rgb(0,0,0)" x1="192" y1="859" x2="193" y2="828"/> <line style="fill:none;stroke-width:1" stroke="rgb(0,0,0)" x1="192" y1="859" x2="81" y2="855"/> <rect x="66" y="843" width="30" height="24" fill="rgb(255,255,255)" stroke="rgb(255,255,255)"/> <text x="66" y="863" fill="rgb(0,0,0)" stroke="rgb(0,0,0)">20</text> <circle style="stroke-width:1" cx="192" cy="859" r="12" fill="rgb(255,255,255)" stroke="rgb(0,0,0)"/> <text x="184" y="867" fill="rgb(0,0,0)" stroke="rgb(0,0,0)">G</text>
<line style="fill:none;stroke-width:1" stroke="rgb(0,0,0)" x1="193" y1="828" x2="166" y2="804"/> <circle style="stroke-width:1" cx="193" cy="828" r="12" fill="rgb(255,255,255)" stroke="rgb(0,0,0)"/> <text x="185" y="836" fill="rgb(0,0,0)" stroke="rgb(0,0,0)">U</text>
<line style="fill:none;stroke-width:1" stroke="rgb(0,0,0)" x1="166" y1="804" x2="147" y2="746"/> <circle style="stroke-width:1" cx="166" cy="804" r="12" fill="rgb(255,255,255)" stroke="rgb(0,0,0)"/> <text x="158" y="812" fill="rgb(0,0,0)" stroke="rgb(0,0,0)">U</text>
<line style="fill:none;stroke-width:1" stroke="rgb(0,0,0)" x1="147" y1="746" x2="175" y2="693"/> <circle style="stroke-width:1" cx="147" cy="746" r="12" fill="rgb(255,255,255)" stroke="rgb(0,0,0)"/> <text x="139" y="754" fill="rgb(0,0,0)" stroke="rgb(0,0,0)">U</text>
<line style="fill:none;stroke-width:1" stroke="rgb(0,0,0)" x1="175" y1="693" x2="206" y2="675"/> <circle style="stroke-width:1" cx="175" cy="693" r="12" fill="rgb(255,255,255)" stroke="rgb(0,0,0)"/> <text x="167" y="701" fill="rgb(0,0,0)" stroke="rgb(0,0,0)">C</text>
<line style="fill:none;stroke-width:1" stroke="rgb(0,0,0)" x1="206" y1="675" x2="209" y2="644"/> <circle style="stroke-width:1" cx="206" cy="675" r="12" fill="rgb(255,255,255)" stroke="rgb(0,0,0)"/> <text x="198" y="683" fill="rgb(0,0,0)" stroke="rgb(0,0,0)">G</text>
<line style="fill:none;stroke-width:1" stroke="rgb(0,0,0)" x1="209" y1="644" x2="212" y2="613"/> <circle style="stroke-width:1" cx="209" cy="644" r="12" fill="rgb(255,255,255)" stroke="rgb(0,0,0)"/> <text x="201" y="652" fill="rgb(0,0,0)" stroke="rgb(0,0,0)">G</text>
<line style="fill:none;stroke-width:1" stroke="rgb(0,0,0)" x1="212" y1="613" x2="163" y2="561"/> <circle style="stroke-width:1" cx="212" cy="613" r="12" fill="rgb(255,255,255)" stroke="rgb(0,0,0)"/> <text x="204" y="621" fill="rgb(0,0,0)" stroke="rgb(0,0,0)">C</text>
<line style="fill:none;stroke-width:1" stroke="rgb(0,0,0)" x1="163" y1="561" x2="170" y2="466"/> <circle style="stroke-width:1" cx="163" cy="561" r="12" fill="rgb(255,255,255)" stroke="rgb(0,0,0)"/> <text x="155" y="569" fill="rgb(0,0,0)" stroke="rgb(0,0,0)">U</text>
<line style="fill:none;stroke-width:1" stroke="rgb(0,0,0)" x1="170" y1="466" x2="227" y2="419"/> <circle style="stroke-width:1" cx="170" cy="466" r="12" fill="rgb(255,255,255)" stroke="rgb(0,0,0)"/> <text x="162" y="474" fill="rgb(0,0,0)" stroke="rgb(0,0,0)">A</text>
<line style="fill:none;stroke-width:1" stroke="rgb(0,0,0)" x1="227" y1="419" x2="228" y2="388"/> <line style="fill:none;stroke-width:1" stroke="rgb(0,0,0)" x1="227" y1="419" x2="116" y2="415"/> <rect x="101" y="403" width="30" height="24" fill="rgb(255,255,255)" stroke="rgb(255,255,255)"/> <text x="101" y="423" fill="rgb(0,0,0)" stroke="rgb(0,0,0)">30</text> <circle style="stroke-width:1" cx="227" cy="419" r="12" fill="rgb(255,255,255)" stroke="rgb(0,0,0)"/> <text x="219" y="427" fill="rgb(0,0,0)" stroke="rgb(0,0,0)">A</text>
<line style="fill:none;stroke-width:1" stroke="rgb(0,0,0)" x1="228" y1="388" x2="229" y2="357"/> <circle style="stroke-width:1" cx="228" cy="388" r="12" fill="rgb(255,255,255)" stroke="rgb(0,0,0)"/> <text x="220" y="396" fill="rgb(0,0,0)" stroke="rgb(0,0,0)">G</text>
<line style="fill:none;stroke-width:1" stroke="rgb(0,0,0)" x1="229" y1="357" x2="230" y2="326"/> <circle style="stroke-width:1" cx="229" cy="357" r="12" fill="rgb(255,255,255)" stroke="rgb(0,0,0)"/> <text x="221" y="365" fill="rgb(0,0,0)" stroke="rgb(0,0,0)">U</text>
<line style="fill:none;stroke-width:1" stroke="rgb(0,0,0)" x1="230" y1="326" x2="231" y2="295"/> <circle style="stroke-width:1" cx="230" cy="326" r="12" fill="rgb(255,255,255)" stroke="rgb(0,0,0)"/> <text x="222" y="334" fill="rgb(0,0,0)" stroke="rgb(0,0,0)">U</text>
<line style="fill:none;stroke-width:1" stroke="rgb(0,0,0)" x1="231" y1="295" x2="206" y2="262"/> <circle style="stroke-width:1" cx="231" cy="295" r="12" fill="rgb(255,255,255)" stroke="rgb(0,0,0)"/> <text x="223" y="303" fill="rgb(0,0,0)" stroke="rgb(0,0,0)">G</text>
<line style="fill:none;stroke-width:1" stroke="rgb(0,0,0)" x1="206" y1="262" x2="210" y2="199"/> <circle style="stroke-width:1" cx="206" cy="262" r="12" fill="rgb(255,255,255)" stroke="rgb(0,0,0)"/> <text x="198" y="270" fill="rgb(0,0,0)" stroke="rgb(0,0,0)">G</text>
<line style="fill:none;stroke-width:1" stroke="rgb(0,0,0)" x1="210" y1="199" x2="238" y2="171"/> <circle style="stroke-width:1" cx="210" cy="199" r="12" fill="rgb(255,255,255)" stroke="rgb(0,0,0)"/> <text x="202" y="207" fill="rgb(0,0,0)" stroke="rgb(0,0,0)">A</text>
<line style="fill:none;stroke-width:1" stroke="rgb(0,0,0)" x1="238" y1="171" x2="240" y2="140"/> <circle style="stroke-width:1" cx="238" cy="171" r="12" fill="rgb(255,255,255)" stroke="rgb(0,0,0)"/> <text x="230" y="179" fill="rgb(0,0,0)" stroke="rgb(0,0,0)">G</text>
<line style="fill:none;stroke-width:1" stroke="rgb(0,0,0)" x1="240" y1="140" x2="242" y2="109"/> <circle style="stroke-width:1" cx="240" cy="140" r="12" fill="rgb(255,255,255)" stroke="rgb(0,0,0)"/> <text x="232" y="148" fill="rgb(0,0,0)" stroke="rgb(0,0,0)">G</text>
<line style="fill:none;stroke-width:1" stroke="rgb(0,0,0)" x1="242" y1="109" x2="233" y2="69"/> <circle style="stroke-width:1" cx="242" cy="109" r="12" fill="rgb(255,255,255)" stroke="rgb(0,0,0)"/> <text x="234" y="117" fill="rgb(0,0,0)" stroke="rgb(0,0,0)">U</text>
<line style="fill:none;stroke-width:1" stroke="rgb(0,0,0)" x1="233" y1="69" x2="255" y2="36"/> <line style="fill:none;stroke-width:1" stroke="rgb(0,0,0)" x1="233" y1="69" x2="122" y2="61"/> <rect x="107" y="49" width="30" height="24" fill="rgb(255,255,255)" stroke="rgb(255,255,255)"/> <text x="107" y="69" fill="rgb(0,0,0)" stroke="rgb(0,0,0)">40</text> <circle style="stroke-width:1" cx="233" cy="69" r="12" fill="rgb(255,255,255)" stroke="rgb(0,0,0)"/> <text x="225" y="77" fill="rgb(0,0,0)" stroke="rgb(0,0,0)">A</text>
<line style="fill:none;stroke-width:1" stroke="rgb(0,0,0)" x1="255" y1="36" x2="295" y2="40"/> <circle style="stroke-width:1" cx="255" cy="36" r="12" fill="rgb(255,255,255)" stroke="rgb(0,0,0)"/> <text x="247" y="44" fill="rgb(0,0,0)" stroke="rgb(0,0,0)">C</text>
<line style="fill:none;stroke-width:1" stroke="rgb(0,0,0)" x1="295" y1="40" x2="312" y2="75"/> <circle style="stroke-width:1" cx="295" cy="40" r="12" fill="rgb(255,255,255)" stroke="rgb(0,0,0)"/> <text x="287" y="48" fill="rgb(0,0,0)" stroke="rgb(0,0,0)">U</text>
<line style="fill:none;stroke-width:1" stroke="rgb(0,0,0)" x1="312" y1="75" x2="297" y2="113"/> <circle style="stroke-width:1" cx="312" cy="75" r="12" fill="rgb(255,255,255)" stroke="rgb(0,0,0)"/> <text x="304" y="83" fill="rgb(0,0,0)" stroke="rgb(0,0,0)">G</text>
<line style="fill:none;stroke-width:1" stroke="rgb(0,0,0)" x1="297" y1="113" x2="295" y2="144"/> <circle style="stroke-width:1" cx="297" cy="113" r="12" fill="rgb(255,255,255)" stroke="rgb(0,0,0)"/> <text x="289" y="121" fill="rgb(0,0,0)" stroke="rgb(0,0,0)">G</text>
<line style="fill:none;stroke-width:1" stroke="rgb(0,0,0)" x1="295" y1="144" x2="293" y2="175"/> <circle style="stroke-width:1" cx="295" cy="144" r="12" fill="rgb(255,255,255)" stroke="rgb(0,0,0)"/> <text x="287" y="152" fill="rgb(0,0,0)" stroke="rgb(0,0,0)">C</text>
<line style="fill:none;stroke-width:1" stroke="rgb(0,0,0)" x1="293" y1="175" x2="323" y2="238"/> <circle style="stroke-width:1" cx="293" cy="175" r="12" fill="rgb(255,255,255)" stroke="rgb(0,0,0)"/> <text x="285" y="183" fill="rgb(0,0,0)" stroke="rgb(0,0,0)">C</text>
<line style="fill:none;stroke-width:1" stroke="rgb(0,0,0)" x1="323" y1="238" x2="286" y2="297"/> <circle style="stroke-width:1" cx="323" cy="238" r="12" fill="rgb(255,255,255)" stroke="rgb(0,0,0)"/> <text x="315" y="246" fill="rgb(0,0,0)" stroke="rgb(0,0,0)">A</text>
<line style="fill:none;stroke-width:1" stroke="rgb(0,0,0)" x1="286" y1="297" x2="285" y2="328"/> <circle style="stroke-width:1" cx="286" cy="297" r="12" fill="rgb(255,255,255)" stroke="rgb(0,0,0)"/> <text x="278" y="305" fill="rgb(0,0,0)" stroke="rgb(0,0,0)">C</text>
<line style="fill:none;stroke-width:1" stroke="rgb(0,0,0)" x1="285" y1="328" x2="284" y2="359"/> <circle style="stroke-width:1" cx="285" cy="328" r="12" fill="rgb(255,255,255)" stroke="rgb(0,0,0)"/> <text x="277" y="336" fill="rgb(0,0,0)" stroke="rgb(0,0,0)">G</text>
<line style="fill:none;stroke-width:1" stroke="rgb(0,0,0)" x1="284" y1="359" x2="283" y2="390"/> <line style="fill:none;stroke-width:1" stroke="rgb(0,0,0)" x1="284" y1="359" x2="395" y2="363"/> <rect x="380" y="351" width="30" height="24" fill="rgb(255,255,255)" stroke="rgb(255,255,255)"/> <text x="380" y="371" fill="rgb(0,0,0)" stroke="rgb(0,0,0)">50</text> <circle style="stroke-width:1" cx="284" cy="359" r="12" fill="rgb(255,255,255)" stroke="rgb(0,0,0)"/> <text x="276" y="367" fill="rgb(0,0,0)" stroke="rgb(0,0,0)">A</text>
<line style="fill:none;stroke-width:1" stroke="rgb(0,0,0)" x1="283" y1="390" x2="282" y2="421"/> <circle style="stroke-width:1" cx="283" cy="390" r="12" fill="rgb(255,255,255)" stroke="rgb(0,0,0)"/> <text x="275" y="398" fill="rgb(0,0,0)" stroke="rgb(0,0,0)">C</text>
<line style="fill:none;stroke-width:1" stroke="rgb(0,0,0)" x1="282" y1="421" x2="312" y2="444"/> <circle style="stroke-width:1" cx="282" cy="421" r="12" fill="rgb(255,255,255)" stroke="rgb(0,0,0)"/> <text x="274" y="429" fill="rgb(0,0,0)" stroke="rgb(0,0,0)">U</text>
<line style="fill:none;stroke-width:1" stroke="rgb(0,0,0)" x1="312" y1="444" x2="345" y2="496"/> <circle style="stroke-width:1" cx="312" cy="444" r="12" fill="rgb(255,255,255)" stroke="rgb(0,0,0)"/> <text x="304" y="452" fill="rgb(0,0,0)" stroke="rgb(0,0,0)">G</text>
<line style="fill:none;stroke-width:1" stroke="rgb(0,0,0)" x1="345" y1="496" x2="340" y2="558"/> <circle style="stroke-width:1" cx="345" cy="496" r="12" fill="rgb(255,255,255)" stroke="rgb(0,0,0)"/> <text x="337" y="504" fill="rgb(0,0,0)" stroke="rgb(0,0,0)">C</text>
<line style="fill:none;stroke-width:1" stroke="rgb(0,0,0)" x1="340" y1="558" x2="299" y2="604"/> <circle style="stroke-width:1" cx="340" cy="558" r="12" fill="rgb(255,255,255)" stroke="rgb(0,0,0)"/> <text x="332" y="566" fill="rgb(0,0,0)" stroke="rgb(0,0,0)">A</text>
<line style="fill:none;stroke-width:1" stroke="rgb(0,0,0)" x1="299" y1="604" x2="267" y2="619"/> <circle style="stroke-width:1" cx="299" cy="604" r="12" fill="rgb(255,255,255)" stroke="rgb(0,0,0)"/> <text x="291" y="612" fill="rgb(0,0,0)" stroke="rgb(0,0,0)">U</text>
<line style="fill:none;stroke-width:1" stroke="rgb(0,0,0)" x1="267" y1="619" x2="264" y2="650"/> <circle style="stroke-width:1" cx="267" cy="619" r="12" fill="rgb(255,255,255)" stroke="rgb(0,0,0)"/> <text x="259" y="627" fill="rgb(0,0,0)" stroke="rgb(0,0,0)">G</text>
<line style="fill:none;stroke-width:1" stroke="rgb(0,0,0)" x1="264" y1="650" x2="261" y2="681"/> <circle style="stroke-width:1" cx="264" cy="650" r="12" fill="rgb(255,255,255)" stroke="rgb(0,0,0)"/> <text x="256" y="658" fill="rgb(0,0,0)" stroke="rgb(0,0,0)">C</text>
<line style="fill:none;stroke-width:1" stroke="rgb(0,0,0)" x1="261" y1="681" x2="300" y2="758"/> <circle style="stroke-width:1" cx="261" cy="681" r="12" fill="rgb(255,255,255)" stroke="rgb(0,0,0)"/> <text x="253" y="689" fill="rgb(0,0,0)" stroke="rgb(0,0,0)">C</text>
<line style="fill:none;stroke-width:1" stroke="rgb(0,0,0)" x1="300" y1="758" x2="248" y2="830"/> <line style="fill:none;stroke-width:1" stroke="rgb(0,0,0)" x1="300" y1="758" x2="411" y2="766"/> <rect x="396" y="754" width="30" height="24" fill="rgb(255,255,255)" stroke="rgb(255,255,255)"/> <text x="396" y="774" fill="rgb(0,0,0)" stroke="rgb(0,0,0)">60</text> <circle style="stroke-width:1" cx="300" cy="758" r="12" fill="rgb(255,255,255)" stroke="rgb(0,0,0)"/> <text x="292" y="766" fill="rgb(0,0,0)" stroke="rgb(0,0,0)">C</text>
<line style="fill:none;stroke-width:1" stroke="rgb(0,0,0)" x1="248" y1="830" x2="247" y2="861"/> <circle style="stroke-width:1" cx="248" cy="830" r="12" fill="rgb(255,255,255)" stroke="rgb(0,0,0)"/> <text x="240" y="838" fill="rgb(0,0,0)" stroke="rgb(0,0,0)">G</text>
<line style="fill:none;stroke-width:1" stroke="rgb(0,0,0)" x1="247" y1="861" x2="273" y2="894"/> <circle style="stroke-width:1" cx="247" cy="861" r="12" fill="rgb(255,255,255)" stroke="rgb(0,0,0)"/> <text x="239" y="869" fill="rgb(0,0,0)" stroke="rgb(0,0,0)">C</text>
<line style="fill:none;stroke-width:1" stroke="rgb(0,0,0)" x1="273" y1="894" x2="270" y2="957"/> <circle style="stroke-width:1" cx="273" cy="894" r="12" fill="rgb(255,255,255)" stroke="rgb(0,0,0)"/> <text x="265" y="902" fill="rgb(0,0,0)" stroke="rgb(0,0,0)">G</text>
<line style="fill:none;stroke-width:1" stroke="rgb(0,0,0)" x1="270" y1="957" x2="242" y2="987"/> <circle style="stroke-width:1" cx="270" cy="957" r="12" fill="rgb(255,255,255)" stroke="rgb(0,0,0)"/> <text x="262" y="965" fill="rgb(0,0,0)" stroke="rgb(0,0,0)">C</text>
<line style="fill:none;stroke-width:1" stroke="rgb(0,0,0)" x1="242" y1="987" x2="241" y2="1018"/> <circle style="stroke-width:1" cx="242" cy="987" r="12" fill="rgb(255,255,255)" stroke="rgb(0,0,0)"/> <text x="234" y="995" fill="rgb(0,0,0)" stroke="rgb(0,0,0)">C</text>
<line style="fill:none;stroke-width:1" stroke="rgb(0,0,0)" x1="241" y1="1018" x2="248" y2="1209"/> <circle style="stroke-width:1" cx="241" cy="1018" r="12" fill="rgb(255,255,255)" stroke="rgb(0,0,0)"/> <text x="233" y="1026" fill="rgb(0,0,0)" stroke="rgb(0,0,0)">C</text>
<line style="fill:none;stroke-width:1" stroke="rgb(0,0,0)" x1="248" y1="1209" x2="251" y2="1240"/> <circle style="stroke-width:1" cx="248" cy="1209" r="12" fill="rgb(255,255,255)" stroke="rgb(0,0,0)"/> <text x="240" y="1217" fill="rgb(0,0,0)" stroke="rgb(0,0,0)">G</text>
<line style="fill:none;stroke-width:1" stroke="rgb(0,0,0)" x1="251" y1="1240" x2="254" y2="1271"/> <circle style="stroke-width:1" cx="251" cy="1240" r="12" fill="rgb(255,255,255)" stroke="rgb(0,0,0)"/> <text x="243" y="1248" fill="rgb(0,0,0)" stroke="rgb(0,0,0)">C</text>
<line style="fill:none;stroke-width:1" stroke="rgb(0,0,0)" x1="254" y1="1271" x2="296" y2="1328"/> <circle style="stroke-width:1" cx="254" cy="1271" r="12" fill="rgb(255,255,255)" stroke="rgb(0,0,0)"/> <text x="246" y="1279" fill="rgb(0,0,0)" stroke="rgb(0,0,0)">C</text>
<line style="fill:none;stroke-width:1" stroke="rgb(0,0,0)" x1="296" y1="1328" x2="270" y2="1396"/> <line style="fill:none;stroke-width:1" stroke="rgb(0,0,0)" x1="296" y1="1328" x2="406" y2="1313"/> <rect x="391" y="1301" width="30" height="24" fill="rgb(255,255,255)" stroke="rgb(255,255,255)"/> <text x="391" y="1321" fill="rgb(0,0,0)" stroke="rgb(0,0,0)">70</text> <circle style="stroke-width:1" cx="296" cy="1328" r="12" fill="rgb(255,255,255)" stroke="rgb(0,0,0)"/> <text x="288" y="1336" fill="rgb(0,0,0)" stroke="rgb(0,0,0)">A</text>
<line style="fill:none;stroke-width:1" stroke="rgb(0,0,0)" x1="270" y1="1396" x2="274" y2="1427"/> <circle style="stroke-width:1" cx="270" cy="1396" r="12" fill="rgb(255,255,255)" stroke="rgb(0,0,0)"/> <text x="262" y="1404" fill="rgb(0,0,0)" stroke="rgb(0,0,0)">G</text>
<line style="fill:none;stroke-width:1" stroke="rgb(0,0,0)" x1="274" y1="1427" x2="278" y2="1458"/> <circle style="stroke-width:1" cx="274" cy="1427" r="12" fill="rgb(255,255,255)" stroke="rgb(0,0,0)"/> <text x="266" y="1435" fill="rgb(0,0,0)" stroke="rgb(0,0,0)">G</text>
<line style="fill:none;stroke-width:1" stroke="rgb(0,0,0)" x1="278" y1="1458" x2="282" y2="1489"/> <circle style="stroke-width:1" cx="278" cy="1458" r="12" fill="rgb(255,255,255)" stroke="rgb(0,0,0)"/> <text x="270" y="1466" fill="rgb(0,0,0)" stroke="rgb(0,0,0)">U</text>
<line style="fill:none;stroke-width:1" stroke="rgb(0,0,0)" x1="282" y1="1489" x2="332" y2="1524"/> <circle style="stroke-width:1" cx="282" cy="1489" r="12" fill="rgb(255,255,255)" stroke="rgb(0,0,0)"/> <text x="274" y="1497" fill="rgb(0,0,0)" stroke="rgb(0,0,0)">G</text>
<line style="fill:none;stroke-width:1" stroke="rgb(0,0,0)" x1="332" y1="1524" x2="367" y2="1566"/> <circle style="stroke-width:1" cx="332" cy="1524" r="12" fill="rgb(255,255,255)" stroke="rgb(0,0,0)"/> <text x="324" y="1532" fill="rgb(0,0,0)" stroke="rgb(0,0,0)">A</text>
<line style="fill:none;stroke-width:1" stroke="rgb(0,0,0)" x1="367" y1="1566" x2="382" y2="1619"/> <circle style="stroke-width:1" cx="367" cy="1566" r="12" fill="rgb(255,255,255)" stroke="rgb(0,0,0)"/> <text x="359" y="1574" fill="rgb(0,0,0)" stroke="rgb(0,0,0)">U</text>
<line style="fill:none;stroke-width:1" stroke="rgb(0,0,0)" x1="382" y1="1619" x2="375" y2="1673"/> <circle style="stroke-width:1" cx="382" cy="1619" r="12" fill="rgb(255,255,255)" stroke="rgb(0,0,0)"/> <text x="374" y="1627" fill="rgb(0,0,0)" stroke="rgb(0,0,0)">A</text>
<line style="fill:none;stroke-width:1" stroke="rgb(0,0,0)" x1="375" y1="1673" x2="347" y2="1720"/> <circle style="stroke-width:1" cx="375" cy="1673" r="12" fill="rgb(255,255,255)" stroke="rgb(0,0,0)"/> <text x="367" y="1681" fill="rgb(0,0,0)" stroke="rgb(0,0,0)">C</text>
<line style="fill:none;stroke-width:1" stroke="rgb(0,0,0)" x1="347" y1="1720" x2="303" y2="1751"/> <circle style="stroke-width:1" cx="347" cy="1720" r="12" fill="rgb(255,255,255)" stroke="rgb(0,0,0)"/> <text x="339" y="1728" fill="rgb(0,0,0)" stroke="rgb(0,0,0)">C</text>
<line style="fill:none;stroke-width:1" stroke="rgb(0,0,0)" x1="303" y1="1751" x2="347" y2="1853"/> <rect x="332" y="1841" width="30" height="24" fill="rgb(255,255,255)" stroke="rgb(255,255,255)"/> <text x="332" y="1861" fill="rgb(0,0,0)" stroke="rgb(0,0,0)">80</text> <circle style="stroke-width:1" cx="303" cy="1751" r="12" fill="rgb(255,255,255)" stroke="rgb(0,0,0)"/> <text x="295" y="1759" fill="rgb(0,0,0)" stroke="rgb(0,0,0)">U</text>
</g>
<g font-size="16">
<text x="36" y="892" fill="rgb(0,0,0)" stroke="rgb(0,0,0)">ENERGY = -24.4  ENST00000297268.11</text>
</g>
</svg>
