<?xml version="1.0" encoding="UTF-8" standalone="no"?>
<!DOCTYPE svg PUBLIC "-//W3C//DTD SVG 1.1//EN" "http://www.w3.org/Graphics/SVG/1.1/DTD/svg11.dtd">
<svg xmlns="http://www.w3.org/2000/svg" xmlns:xlink="http://www.w3.org/1999/xlink" xml:space="preserve" font-family="monospace" font-size="24" fill="rgb(255,255,255)" stroke="rgb(0,0,0)" viewBox="0 0 790 905">
<g transform="scale(0.464597)">
<path style="fill:none;stroke-width:3" stroke="rgb(0,0,0)" d="M222,1589 Q249.5,1587 277,1585"/>
<path style="fill:none;stroke-width:3" stroke="rgb(0,0,0)" d="M220,1558 Q247.5,1556 275,1554"/>
<path style="fill:none;stroke-width:3" stroke="rgb(0,0,0)" d="M218,1527 Q245.5,1525 273,1523"/>
<path style="fill:none;stroke-width:3" stroke="rgb(0,0,0)" d="M216,1496 Q243.5,1494 271,1492"/>
<path style="fill:none;stroke-width:3" stroke="rgb(0,0,0)" d="M202,1272 Q229.5,1271 257,1270"/>
<path style="fill:none;stroke-width:3" stroke="rgb(0,0,0)" d="M201,1241 Q228.5,1240 256,1239"/>
<path style="fill:none;stroke-width:3" stroke="rgb(0,0,0)" d="M200,1210 Q227.5,1209 255,1208"/>
<path style="fill:none;stroke-width:3" stroke="rgb(0,0,0)" d="M199,1179 Q226.5,1178 254,1177"/>
<path style="fill:none;stroke-width:3" stroke="rgb(0,0,0)" d="M196,1019 Q223.5,1019 251,1019"/>
<path style="fill:none;stroke-width:3" stroke="rgb(0,0,0)" d="M196,988 Q223.5,988 251,988"/>
<path style="fill:none;stroke-width:3" stroke="rgb(0,0,0)" d="M196,957 Q223.5,957 251,957"/>
<path style="fill:none;stroke-width:3" stroke="rgb(0,0,0)" d="M196,799 Q223.5,799 251,799"/>
<path style="fill:none;stroke-width:3" stroke="rgb(0,0,0)" d="M196,768 Q223.5,768 251,768"/>
<path style="fill:none;stroke-width:3" stroke="rgb(0,0,0)" d="M196,737 Q223.5,737 251,737"/>
<path style="fill:none;stroke-width:3" stroke="rgb(0,0,0)" d="M196,706 Q223.5,706 251,706"/>
<path style="fill:none;stroke-width:3" stroke="rgb(0,0,0)" d="M195,610 Q222.5,609 250,608"/>
<path style="fill:none;stroke-width:3" stroke="rgb(0,0,0)" d="M194,579 Q221.5,578 249,577"/>
<path style="fill:none;stroke-width:3" stroke="rgb(0,0,0)" d="M193,548 Q220.5,547 248,546"/>
<path style="fill:none;stroke-width:3" stroke="rgb(0,0,0)" d="M192,517 Q219.5,516 247,515"/>
<path style="fill:none;stroke-width:3" stroke="rgb(0,0,0)" d="M191,486 Q218.5,485 246,484"/>
<path style="fill:none;stroke-width:3" stroke="rgb(0,0,0)" d="M190,455 Q217.5,454 245,453"/>
<path style="fill:none;stroke-width:3" stroke="rgb(0,0,0)" d="M189,424 Q216.5,423 244,422"/>
<path style="fill:none;stroke-width:3" stroke="rgb(0,0,0)" d="M184,331 Q211.5,329 239,327"/>
<path style="fill:none;stroke-width:3" stroke="rgb(0,0,0)" d="M182,300 Q209.5,298 237,296"/>
<line style="fill:none;stroke-width:1" stroke="rgb(0,0,0)" x1="222" y1="1589" x2="220" y2="1558"/> <circle style="stroke-width:1" cx="222" cy="1589" r="12" fill="rgb(255,255,255)" stroke="rgb(0,0,0)"/> <text x="214" y="1597" fill="rgb(0,0,0)" stroke="rgb(0,0,0)">C</text>
<line style="fill:none;stroke-width:1" stroke="rgb(0,0,0)" x1="220" y1="1558" x2="218" y2="1527"/> <circle style="stroke-width:1" cx="220" cy="1558" r="12" fill="rgb(255,255,255)" stroke="rgb(0,0,0)"/> <text x="212" y="1566" fill="rgb(0,0,0)" stroke="rgb(0,0,0)">C</text>
<line style="fill:none;stroke-width:1" stroke="rgb(0,0,0)" x1="218" y1="1527" x2="216" y2="1496"/> <circle style="stroke-width:1" cx="218" cy="1527" r="12" fill="rgb(255,255,255)" stroke="rgb(0,0,0)"/> <text x="210" y="1535" fill="rgb(0,0,0)" stroke="rgb(0,0,0)">C</text>
<line style="fill:none;stroke-width:1" stroke="rgb(0,0,0)" x1="216" y1="1496" x2="186" y2="1483"/> <circle style="stroke-width:1" cx="216" cy="1496" r="12" fill="rgb(255,255,255)" stroke="rgb(0,0,0)"/> <text x="208" y="1504" fill="rgb(0,0,0)" stroke="rgb(0,0,0)">U</text>
<line style="fill:none;stroke-width:1" stroke="rgb(0,0,0)" x1="186" y1="1483" x2="142" y2="1445"/> <circle style="stroke-width:1" cx="186" cy="1483" r="12" fill="rgb(255,255,255)" stroke="rgb(0,0,0)"/> <text x="178" y="1491" fill="rgb(0,0,0)" stroke="rgb(0,0,0)">A</text>
<line style="fill:none;stroke-width:1" stroke="rgb(0,0,0)" x1="142" y1="1445" x2="123" y2="1389"/> <circle style="stroke-width:1" cx="142" cy="1445" r="12" fill="rgb(255,255,255)" stroke="rgb(0,0,0)"/> <text x="134" y="1453" fill="rgb(0,0,0)" stroke="rgb(0,0,0)">U</text>
<line style="fill:none;stroke-width:1" stroke="rgb(0,0,0)" x1="123" y1="1389" x2="135" y2="1331"/> <circle style="stroke-width:1" cx="123" cy="1389" r="12" fill="rgb(255,255,255)" stroke="rgb(0,0,0)"/> <text x="115" y="1397" fill="rgb(0,0,0)" stroke="rgb(0,0,0)">C</text>
<line style="fill:none;stroke-width:1" stroke="rgb(0,0,0)" x1="135" y1="1331" x2="175" y2="1288"/> <circle style="stroke-width:1" cx="135" cy="1331" r="12" fill="rgb(255,255,255)" stroke="rgb(0,0,0)"/> <text x="127" y="1339" fill="rgb(0,0,0)" stroke="rgb(0,0,0)">C</text>
<line style="fill:none;stroke-width:1" stroke="rgb(0,0,0)" x1="175" y1="1288" x2="202" y2="1272"/> <circle style="stroke-width:1" cx="175" cy="1288" r="12" fill="rgb(255,255,255)" stroke="rgb(0,0,0)"/> <text x="167" y="1296" fill="rgb(0,0,0)" stroke="rgb(0,0,0)">A</text>
<line style="fill:none;stroke-width:1" stroke="rgb(0,0,0)" x1="202" y1="1272" x2="201" y2="1241"/> <line style="fill:none;stroke-width:1" stroke="rgb(0,0,0)" x1="202" y1="1272" x2="91" y2="1276"/> <rect x="76" y="1264" width="30" height="24" fill="rgb(255,255,255)" stroke="rgb(255,255,255)"/> <text x="76" y="1284" fill="rgb(0,0,0)" stroke="rgb(0,0,0)">10</text> <circle style="stroke-width:1" cx="202" cy="1272" r="12" fill="rgb(255,255,255)" stroke="rgb(0,0,0)"/> <text x="194" y="1280" fill="rgb(0,0,0)" stroke="rgb(0,0,0)">U</text>
<line style="fill:none;stroke-width:1" stroke="rgb(0,0,0)" x1="201" y1="1241" x2="200" y2="1210"/> <circle style="stroke-width:1" cx="201" cy="1241" r="12" fill="rgb(255,255,255)" stroke="rgb(0,0,0)"/> <text x="193" y="1249" fill="rgb(0,0,0)" stroke="rgb(0,0,0)">U</text>
<line style="fill:none;stroke-width:1" stroke="rgb(0,0,0)" x1="200" y1="1210" x2="199" y2="1179"/> <circle style="stroke-width:1" cx="200" cy="1210" r="12" fill="rgb(255,255,255)" stroke="rgb(0,0,0)"/> <text x="192" y="1218" fill="rgb(0,0,0)" stroke="rgb(0,0,0)">U</text>
<line style="fill:none;stroke-width:1" stroke="rgb(0,0,0)" x1="199" y1="1179" x2="169" y2="1157"/> <circle style="stroke-width:1" cx="199" cy="1179" r="12" fill="rgb(255,255,255)" stroke="rgb(0,0,0)"/> <text x="191" y="1187" fill="rgb(0,0,0)" stroke="rgb(0,0,0)">G</text>
<line style="fill:none;stroke-width:1" stroke="rgb(0,0,0)" x1="169" y1="1157" x2="144" y2="1100"/> <circle style="stroke-width:1" cx="169" cy="1157" r="12" fill="rgb(255,255,255)" stroke="rgb(0,0,0)"/> <text x="161" y="1165" fill="rgb(0,0,0)" stroke="rgb(0,0,0)">A</text>
<line style="fill:none;stroke-width:1" stroke="rgb(0,0,0)" x1="144" y1="1100" x2="167" y2="1042"/> <circle style="stroke-width:1" cx="144" cy="1100" r="12" fill="rgb(255,255,255)" stroke="rgb(0,0,0)"/> <text x="136" y="1108" fill="rgb(0,0,0)" stroke="rgb(0,0,0)">C</text>
<line style="fill:none;stroke-width:1" stroke="rgb(0,0,0)" x1="167" y1="1042" x2="196" y2="1019"/> <circle style="stroke-width:1" cx="167" cy="1042" r="12" fill="rgb(255,255,255)" stroke="rgb(0,0,0)"/> <text x="159" y="1050" fill="rgb(0,0,0)" stroke="rgb(0,0,0)">A</text>
<line style="fill:none;stroke-width:1" stroke="rgb(0,0,0)" x1="196" y1="1019" x2="196" y2="988"/> <circle style="stroke-width:1" cx="196" cy="1019" r="12" fill="rgb(255,255,255)" stroke="rgb(0,0,0)"/> <text x="188" y="1027" fill="rgb(0,0,0)" stroke="rgb(0,0,0)">U</text>
<line style="fill:none;stroke-width:1" stroke="rgb(0,0,0)" x1="196" y1="988" x2="196" y2="957"/> <circle style="stroke-width:1" cx="196" cy="988" r="12" fill="rgb(255,255,255)" stroke="rgb(0,0,0)"/> <text x="188" y="996" fill="rgb(0,0,0)" stroke="rgb(0,0,0)">C</text>
<line style="fill:none;stroke-width:1" stroke="rgb(0,0,0)" x1="196" y1="957" x2="168" y2="934"/> <circle style="stroke-width:1" cx="196" cy="957" r="12" fill="rgb(255,255,255)" stroke="rgb(0,0,0)"/> <text x="188" y="965" fill="rgb(0,0,0)" stroke="rgb(0,0,0)">U</text>
<line style="fill:none;stroke-width:1" stroke="rgb(0,0,0)" x1="168" y1="934" x2="145" y2="878"/> <line style="fill:none;stroke-width:1" stroke="rgb(0,0,0)" x1="168" y1="934" x2="89" y2="1013"/> <rect x="74" y="1001" width="30" height="24" fill="rgb(255,255,255)" stroke="rgb(255,255,255)"/> <text x="74" y="1021" fill="rgb(0,0,0)" stroke="rgb(0,0,0)">20</text> <circle style="stroke-width:1" cx="168" cy="934" r="12" fill="rgb(255,255,255)" stroke="rgb(0,0,0)"/> <text x="160" y="942" fill="rgb(0,0,0)" stroke="rgb(0,0,0)">A</text>
<line style="fill:none;stroke-width:1" stroke="rgb(0,0,0)" x1="145" y1="878" x2="168" y2="822"/> <circle style="stroke-width:1" cx="145" cy="878" r="12" fill="rgb(255,255,255)" stroke="rgb(0,0,0)"/> <text x="137" y="886" fill="rgb(0,0,0)" stroke="rgb(0,0,0)">A</text>
<line style="fill:none;stroke-width:1" stroke="rgb(0,0,0)" x1="168" y1="822" x2="196" y2="799"/> <circle style="stroke-width:1" cx="168" cy="822" r="12" fill="rgb(255,255,255)" stroke="rgb(0,0,0)"/> <text x="160" y="830" fill="rgb(0,0,0)" stroke="rgb(0,0,0)">A</text>
<line style="fill:none;stroke-width:1" stroke="rgb(0,0,0)" x1="196" y1="799" x2="196" y2="768"/> <circle style="stroke-width:1" cx="196" cy="799" r="12" fill="rgb(255,255,255)" stroke="rgb(0,0,0)"/> <text x="188" y="807" fill="rgb(0,0,0)" stroke="rgb(0,0,0)">U</text>
<line style="fill:none;stroke-width:1" stroke="rgb(0,0,0)" x1="196" y1="768" x2="196" y2="737"/> <circle style="stroke-width:1" cx="196" cy="768" r="12" fill="rgb(255,255,255)" stroke="rgb(0,0,0)"/> <text x="188" y="776" fill="rgb(0,0,0)" stroke="rgb(0,0,0)">G</text>
<line style="fill:none;stroke-width:1" stroke="rgb(0,0,0)" x1="196" y1="737" x2="196" y2="706"/> <circle style="stroke-width:1" cx="196" cy="737" r="12" fill="rgb(255,255,255)" stroke="rgb(0,0,0)"/> <text x="188" y="745" fill="rgb(0,0,0)" stroke="rgb(0,0,0)">U</text>
<line style="fill:none;stroke-width:1" stroke="rgb(0,0,0)" x1="196" y1="706" x2="195" y2="610"/> <circle style="stroke-width:1" cx="196" cy="706" r="12" fill="rgb(255,255,255)" stroke="rgb(0,0,0)"/> <text x="188" y="714" fill="rgb(0,0,0)" stroke="rgb(0,0,0)">C</text>
<line style="fill:none;stroke-width:1" stroke="rgb(0,0,0)" x1="195" y1="610" x2="194" y2="579"/> <circle style="stroke-width:1" cx="195" cy="610" r="12" fill="rgb(255,255,255)" stroke="rgb(0,0,0)"/> <text x="187" y="618" fill="rgb(0,0,0)" stroke="rgb(0,0,0)">A</text>
<line style="fill:none;stroke-width:1" stroke="rgb(0,0,0)" x1="194" y1="579" x2="193" y2="548"/> <circle style="stroke-width:1" cx="194" cy="579" r="12" fill="rgb(255,255,255)" stroke="rgb(0,0,0)"/> <text x="186" y="587" fill="rgb(0,0,0)" stroke="rgb(0,0,0)">U</text>
<line style="fill:none;stroke-width:1" stroke="rgb(0,0,0)" x1="193" y1="548" x2="192" y2="517"/> <circle style="stroke-width:1" cx="193" cy="548" r="12" fill="rgb(255,255,255)" stroke="rgb(0,0,0)"/> <text x="185" y="556" fill="rgb(0,0,0)" stroke="rgb(0,0,0)">A</text>
<line style="fill:none;stroke-width:1" stroke="rgb(0,0,0)" x1="192" y1="517" x2="191" y2="486"/> <line style="fill:none;stroke-width:1" stroke="rgb(0,0,0)" x1="192" y1="517" x2="81" y2="521"/> <rect x="66" y="509" width="30" height="24" fill="rgb(255,255,255)" stroke="rgb(255,255,255)"/> <text x="66" y="529" fill="rgb(0,0,0)" stroke="rgb(0,0,0)">30</text> <circle style="stroke-width:1" cx="192" cy="517" r="12" fill="rgb(255,255,255)" stroke="rgb(0,0,0)"/> <text x="184" y="525" fill="rgb(0,0,0)" stroke="rgb(0,0,0)">G</text>
<line style="fill:none;stroke-width:1" stroke="rgb(0,0,0)" x1="191" y1="486" x2="190" y2="455"/> <circle style="stroke-width:1" cx="191" cy="486" r="12" fill="rgb(255,255,255)" stroke="rgb(0,0,0)"/> <text x="183" y="494" fill="rgb(0,0,0)" stroke="rgb(0,0,0)">C</text>
<line style="fill:none;stroke-width:1" stroke="rgb(0,0,0)" x1="190" y1="455" x2="189" y2="424"/> <circle style="stroke-width:1" cx="190" cy="455" r="12" fill="rgb(255,255,255)" stroke="rgb(0,0,0)"/> <text x="182" y="463" fill="rgb(0,0,0)" stroke="rgb(0,0,0)">G</text>
<line style="fill:none;stroke-width:1" stroke="rgb(0,0,0)" x1="189" y1="424" x2="184" y2="331"/> <circle style="stroke-width:1" cx="189" cy="424" r="12" fill="rgb(255,255,255)" stroke="rgb(0,0,0)"/> <text x="181" y="432" fill="rgb(0,0,0)" stroke="rgb(0,0,0)">A</text>
<line style="fill:none;stroke-width:1" stroke="rgb(0,0,0)" x1="184" y1="331" x2="182" y2="300"/> <circle style="stroke-width:1" cx="184" cy="331" r="12" fill="rgb(255,255,255)" stroke="rgb(0,0,0)"/> <text x="176" y="339" fill="rgb(0,0,0)" stroke="rgb(0,0,0)">C</text>
<line style="fill:none;stroke-width:1" stroke="rgb(0,0,0)" x1="182" y1="300" x2="155" y2="275"/> <circle style="stroke-width:1" cx="182" cy="300" r="12" fill="rgb(255,255,255)" stroke="rgb(0,0,0)"/> <text x="174" y="308" fill="rgb(0,0,0)" stroke="rgb(0,0,0)">U</text>
<line style="fill:none;stroke-width:1" stroke="rgb(0,0,0)" x1="155" y1="275" x2="139" y2="238"/> <circle style="stroke-width:1" cx="155" cy="275" r="12" fill="rgb(255,255,255)" stroke="rgb(0,0,0)"/> <text x="147" y="283" fill="rgb(0,0,0)" stroke="rgb(0,0,0)">U</text>
<line style="fill:none;stroke-width:1" stroke="rgb(0,0,0)" x1="139" y1="238" x2="149" y2="198"/> <circle style="stroke-width:1" cx="139" cy="238" r="12" fill="rgb(255,255,255)" stroke="rgb(0,0,0)"/> <text x="131" y="246" fill="rgb(0,0,0)" stroke="rgb(0,0,0)">U</text>
<line style="fill:none;stroke-width:1" stroke="rgb(0,0,0)" x1="149" y1="198" x2="180" y2="172"/> <circle style="stroke-width:1" cx="149" cy="198" r="12" fill="rgb(255,255,255)" stroke="rgb(0,0,0)"/> <text x="141" y="206" fill="rgb(0,0,0)" stroke="rgb(0,0,0)">U</text>
<line style="fill:none;stroke-width:1" stroke="rgb(0,0,0)" x1="180" y1="172" x2="219" y2="168"/> <circle style="stroke-width:1" cx="180" cy="172" r="12" fill="rgb(255,255,255)" stroke="rgb(0,0,0)"/> <text x="172" y="180" fill="rgb(0,0,0)" stroke="rgb(0,0,0)">G</text>
<line style="fill:none;stroke-width:1" stroke="rgb(0,0,0)" x1="219" y1="168" x2="254" y2="190"/> <line style="fill:none;stroke-width:1" stroke="rgb(0,0,0)" x1="219" y1="168" x2="245" y2="60"/> <rect x="230" y="48" width="30" height="24" fill="rgb(255,255,255)" stroke="rgb(255,255,255)"/> <text x="230" y="68" fill="rgb(0,0,0)" stroke="rgb(0,0,0)">40</text> <circle style="stroke-width:1" cx="219" cy="168" r="12" fill="rgb(255,255,255)" stroke="rgb(0,0,0)"/> <text x="211" y="176" fill="rgb(0,0,0)" stroke="rgb(0,0,0)">G</text>
<line style="fill:none;stroke-width:1" stroke="rgb(0,0,0)" x1="254" y1="190" x2="270" y2="227"/> <circle style="stroke-width:1" cx="254" cy="190" r="12" fill="rgb(255,255,255)" stroke="rgb(0,0,0)"/> <text x="246" y="198" fill="rgb(0,0,0)" stroke="rgb(0,0,0)">G</text>
<line style="fill:none;stroke-width:1" stroke="rgb(0,0,0)" x1="270" y1="227" x2="260" y2="267"/> <circle style="stroke-width:1" cx="270" cy="227" r="12" fill="rgb(255,255,255)" stroke="rgb(0,0,0)"/> <text x="262" y="235" fill="rgb(0,0,0)" stroke="rgb(0,0,0)">A</text>
<line style="fill:none;stroke-width:1" stroke="rgb(0,0,0)" x1="260" y1="267" x2="237" y2="296"/> <circle style="stroke-width:1" cx="260" cy="267" r="12" fill="rgb(255,255,255)" stroke="rgb(0,0,0)"/> <text x="252" y="275" fill="rgb(0,0,0)" stroke="rgb(0,0,0)">U</text>
<line style="fill:none;stroke-width:1" stroke="rgb(0,0,0)" x1="237" y1="296" x2="239" y2="327"/> <circle style="stroke-width:1" cx="237" cy="296" r="12" fill="rgb(255,255,255)" stroke="rgb(0,0,0)"/> <text x="229" y="304" fill="rgb(0,0,0)" stroke="rgb(0,0,0)">A</text>
<line style="fill:none;stroke-width:1" stroke="rgb(0,0,0)" x1="239" y1="327" x2="261" y2="374"/> <circle style="stroke-width:1" cx="239" cy="327" r="12" fill="rgb(255,255,255)" stroke="rgb(0,0,0)"/> <text x="231" y="335" fill="rgb(0,0,0)" stroke="rgb(0,0,0)">G</text>
<line style="fill:none;stroke-width:1" stroke="rgb(0,0,0)" x1="261" y1="374" x2="244" y2="422"/> <circle style="stroke-width:1" cx="261" cy="374" r="12" fill="rgb(255,255,255)" stroke="rgb(0,0,0)"/> <text x="253" y="382" fill="rgb(0,0,0)" stroke="rgb(0,0,0)">U</text>
<line style="fill:none;stroke-width:1" stroke="rgb(0,0,0)" x1="244" y1="422" x2="245" y2="453"/> <circle style="stroke-width:1" cx="244" cy="422" r="12" fill="rgb(255,255,255)" stroke="rgb(0,0,0)"/> <text x="236" y="430" fill="rgb(0,0,0)" stroke="rgb(0,0,0)">U</text>
<line style="fill:none;stroke-width:1" stroke="rgb(0,0,0)" x1="245" y1="453" x2="246" y2="484"/> <circle style="stroke-width:1" cx="245" cy="453" r="12" fill="rgb(255,255,255)" stroke="rgb(0,0,0)"/> <text x="237" y="461" fill="rgb(0,0,0)" stroke="rgb(0,0,0)">U</text>
<line style="fill:none;stroke-width:1" stroke="rgb(0,0,0)" x1="246" y1="484" x2="247" y2="515"/> <circle style="stroke-width:1" cx="246" cy="484" r="12" fill="rgb(255,255,255)" stroke="rgb(0,0,0)"/> <text x="238" y="492" fill="rgb(0,0,0)" stroke="rgb(0,0,0)">G</text>
<line style="fill:none;stroke-width:1" stroke="rgb(0,0,0)" x1="247" y1="515" x2="248" y2="546"/> <line style="fill:none;stroke-width:1" stroke="rgb(0,0,0)" x1="247" y1="515" x2="358" y2="511"/> <rect x="343" y="499" width="30" height="24" fill="rgb(255,255,255)" stroke="rgb(255,255,255)"/> <text x="343" y="519" fill="rgb(0,0,0)" stroke="rgb(0,0,0)">50</text> <circle style="stroke-width:1" cx="247" cy="515" r="12" fill="rgb(255,255,255)" stroke="rgb(0,0,0)"/> <text x="239" y="523" fill="rgb(0,0,0)" stroke="rgb(0,0,0)">C</text>
<line style="fill:none;stroke-width:1" stroke="rgb(0,0,0)" x1="248" y1="546" x2="249" y2="577"/> <circle style="stroke-width:1" cx="248" cy="546" r="12" fill="rgb(255,255,255)" stroke="rgb(0,0,0)"/> <text x="240" y="554" fill="rgb(0,0,0)" stroke="rgb(0,0,0)">U</text>
<line style="fill:none;stroke-width:1" stroke="rgb(0,0,0)" x1="249" y1="577" x2="250" y2="608"/> <circle style="stroke-width:1" cx="249" cy="577" r="12" fill="rgb(255,255,255)" stroke="rgb(0,0,0)"/> <text x="241" y="585" fill="rgb(0,0,0)" stroke="rgb(0,0,0)">A</text>
<line style="fill:none;stroke-width:1" stroke="rgb(0,0,0)" x1="250" y1="608" x2="271" y2="657"/> <circle style="stroke-width:1" cx="250" cy="608" r="12" fill="rgb(255,255,255)" stroke="rgb(0,0,0)"/> <text x="242" y="616" fill="rgb(0,0,0)" stroke="rgb(0,0,0)">U</text>
<line style="fill:none;stroke-width:1" stroke="rgb(0,0,0)" x1="271" y1="657" x2="251" y2="706"/> <circle style="stroke-width:1" cx="271" cy="657" r="12" fill="rgb(255,255,255)" stroke="rgb(0,0,0)"/> <text x="263" y="665" fill="rgb(0,0,0)" stroke="rgb(0,0,0)">C</text>
<line style="fill:none;stroke-width:1" stroke="rgb(0,0,0)" x1="251" y1="706" x2="251" y2="737"/> <circle style="stroke-width:1" cx="251" cy="706" r="12" fill="rgb(255,255,255)" stroke="rgb(0,0,0)"/> <text x="243" y="714" fill="rgb(0,0,0)" stroke="rgb(0,0,0)">G</text>
<line style="fill:none;stroke-width:1" stroke="rgb(0,0,0)" x1="251" y1="737" x2="251" y2="768"/> <circle style="stroke-width:1" cx="251" cy="737" r="12" fill="rgb(255,255,255)" stroke="rgb(0,0,0)"/> <text x="243" y="745" fill="rgb(0,0,0)" stroke="rgb(0,0,0)">A</text>
<line style="fill:none;stroke-width:1" stroke="rgb(0,0,0)" x1="251" y1="768" x2="251" y2="799"/> <circle style="stroke-width:1" cx="251" cy="768" r="12" fill="rgb(255,255,255)" stroke="rgb(0,0,0)"/> <text x="243" y="776" fill="rgb(0,0,0)" stroke="rgb(0,0,0)">C</text>
<line style="fill:none;stroke-width:1" stroke="rgb(0,0,0)" x1="251" y1="799" x2="279" y2="822"/> <circle style="stroke-width:1" cx="251" cy="799" r="12" fill="rgb(255,255,255)" stroke="rgb(0,0,0)"/> <text x="243" y="807" fill="rgb(0,0,0)" stroke="rgb(0,0,0)">A</text>
<line style="fill:none;stroke-width:1" stroke="rgb(0,0,0)" x1="279" y1="822" x2="302" y2="878"/> <circle style="stroke-width:1" cx="279" cy="822" r="12" fill="rgb(255,255,255)" stroke="rgb(0,0,0)"/> <text x="271" y="830" fill="rgb(0,0,0)" stroke="rgb(0,0,0)">A</text>
<line style="fill:none;stroke-width:1" stroke="rgb(0,0,0)" x1="302" y1="878" x2="279" y2="934"/> <line style="fill:none;stroke-width:1" stroke="rgb(0,0,0)" x1="302" y1="878" x2="413" y2="878"/> <rect x="398" y="866" width="30" height="24" fill="rgb(255,255,255)" stroke="rgb(255,255,255)"/> <text x="398" y="886" fill="rgb(0,0,0)" stroke="rgb(0,0,0)">60</text> <circle style="stroke-width:1" cx="302" cy="878" r="12" fill="rgb(255,255,255)" stroke="rgb(0,0,0)"/> <text x="294" y="886" fill="rgb(0,0,0)" stroke="rgb(0,0,0)">A</text>
<line style="fill:none;stroke-width:1" stroke="rgb(0,0,0)" x1="279" y1="934" x2="251" y2="957"/> <circle style="stroke-width:1" cx="279" cy="934" r="12" fill="rgb(255,255,255)" stroke="rgb(0,0,0)"/> <text x="271" y="942" fill="rgb(0,0,0)" stroke="rgb(0,0,0)">G</text>
<line style="fill:none;stroke-width:1" stroke="rgb(0,0,0)" x1="251" y1="957" x2="251" y2="988"/> <circle style="stroke-width:1" cx="251" cy="957" r="12" fill="rgb(255,255,255)" stroke="rgb(0,0,0)"/> <text x="243" y="965" fill="rgb(0,0,0)" stroke="rgb(0,0,0)">G</text>
<line style="fill:none;stroke-width:1" stroke="rgb(0,0,0)" x1="251" y1="988" x2="251" y2="1019"/> <circle style="stroke-width:1" cx="251" cy="988" r="12" fill="rgb(255,255,255)" stroke="rgb(0,0,0)"/> <text x="243" y="996" fill="rgb(0,0,0)" stroke="rgb(0,0,0)">G</text>
<line style="fill:none;stroke-width:1" stroke="rgb(0,0,0)" x1="251" y1="1019" x2="292" y2="1057"/> <circle style="stroke-width:1" cx="251" cy="1019" r="12" fill="rgb(255,255,255)" stroke="rgb(0,0,0)"/> <text x="243" y="1027" fill="rgb(0,0,0)" stroke="rgb(0,0,0)">A</text>
<line style="fill:none;stroke-width:1" stroke="rgb(0,0,0)" x1="292" y1="1057" x2="294" y2="1137"/> <circle style="stroke-width:1" cx="292" cy="1057" r="12" fill="rgb(255,255,255)" stroke="rgb(0,0,0)"/> <text x="284" y="1065" fill="rgb(0,0,0)" stroke="rgb(0,0,0)">G</text>
<line style="fill:none;stroke-width:1" stroke="rgb(0,0,0)" x1="294" y1="1137" x2="254" y2="1177"/> <circle style="stroke-width:1" cx="294" cy="1137" r="12" fill="rgb(255,255,255)" stroke="rgb(0,0,0)"/> <text x="286" y="1145" fill="rgb(0,0,0)" stroke="rgb(0,0,0)">A</text>
<line style="fill:none;stroke-width:1" stroke="rgb(0,0,0)" x1="254" y1="1177" x2="255" y2="1208"/> <circle style="stroke-width:1" cx="254" cy="1177" r="12" fill="rgb(255,255,255)" stroke="rgb(0,0,0)"/> <text x="246" y="1185" fill="rgb(0,0,0)" stroke="rgb(0,0,0)">C</text>
<line style="fill:none;stroke-width:1" stroke="rgb(0,0,0)" x1="255" y1="1208" x2="256" y2="1239"/> <circle style="stroke-width:1" cx="255" cy="1208" r="12" fill="rgb(255,255,255)" stroke="rgb(0,0,0)"/> <text x="247" y="1216" fill="rgb(0,0,0)" stroke="rgb(0,0,0)">A</text>
<line style="fill:none;stroke-width:1" stroke="rgb(0,0,0)" x1="256" y1="1239" x2="257" y2="1270"/> <circle style="stroke-width:1" cx="256" cy="1239" r="12" fill="rgb(255,255,255)" stroke="rgb(0,0,0)"/> <text x="248" y="1247" fill="rgb(0,0,0)" stroke="rgb(0,0,0)">A</text>
<line style="fill:none;stroke-width:1" stroke="rgb(0,0,0)" x1="257" y1="1270" x2="296" y2="1289"/> <line style="fill:none;stroke-width:1" stroke="rgb(0,0,0)" x1="257" y1="1270" x2="368" y2="1266"/> <rect x="353" y="1254" width="30" height="24" fill="rgb(255,255,255)" stroke="rgb(255,255,255)"/> <text x="353" y="1274" fill="rgb(0,0,0)" stroke="rgb(0,0,0)">70</text> <circle style="stroke-width:1" cx="257" cy="1270" r="12" fill="rgb(255,255,255)" stroke="rgb(0,0,0)"/> <text x="249" y="1278" fill="rgb(0,0,0)" stroke="rgb(0,0,0)">A</text>
<line style="fill:none;stroke-width:1" stroke="rgb(0,0,0)" x1="296" y1="1289" x2="339" y2="1342"/> <circle style="stroke-width:1" cx="296" cy="1289" r="12" fill="rgb(255,255,255)" stroke="rgb(0,0,0)"/> <text x="288" y="1297" fill="rgb(0,0,0)" stroke="rgb(0,0,0)">G</text>
<line style="fill:none;stroke-width:1" stroke="rgb(0,0,0)" x1="339" y1="1342" x2="343" y2="1410"/> <circle style="stroke-width:1" cx="339" cy="1342" r="12" fill="rgb(255,255,255)" stroke="rgb(0,0,0)"/> <text x="331" y="1350" fill="rgb(0,0,0)" stroke="rgb(0,0,0)">U</text>
<line style="fill:none;stroke-width:1" stroke="rgb(0,0,0)" x1="343" y1="1410" x2="307" y2="1468"/> <circle style="stroke-width:1" cx="343" cy="1410" r="12" fill="rgb(255,255,255)" stroke="rgb(0,0,0)"/> <text x="335" y="1418" fill="rgb(0,0,0)" stroke="rgb(0,0,0)">C</text>
<line style="fill:none;stroke-width:1" stroke="rgb(0,0,0)" x1="307" y1="1468" x2="271" y2="1492"/> <circle style="stroke-width:1" cx="307" cy="1468" r="12" fill="rgb(255,255,255)" stroke="rgb(0,0,0)"/> <text x="299" y="1476" fill="rgb(0,0,0)" stroke="rgb(0,0,0)">A</text>
<line style="fill:none;stroke-width:1" stroke="rgb(0,0,0)" x1="271" y1="1492" x2="273" y2="1523"/> <circle style="stroke-width:1" cx="271" cy="1492" r="12" fill="rgb(255,255,255)" stroke="rgb(0,0,0)"/> <text x="263" y="1500" fill="rgb(0,0,0)" stroke="rgb(0,0,0)">A</text>
<line style="fill:none;stroke-width:1" stroke="rgb(0,0,0)" x1="273" y1="1523" x2="275" y2="1554"/> <circle style="stroke-width:1" cx="273" cy="1523" r="12" fill="rgb(255,255,255)" stroke="rgb(0,0,0)"/> <text x="265" y="1531" fill="rgb(0,0,0)" stroke="rgb(0,0,0)">G</text>
<line style="fill:none;stroke-width:1" stroke="rgb(0,0,0)" x1="275" y1="1554" x2="277" y2="1585"/> <circle style="stroke-width:1" cx="275" cy="1554" r="12" fill="rgb(255,255,255)" stroke="rgb(0,0,0)"/> <text x="267" y="1562" fill="rgb(0,0,0)" stroke="rgb(0,0,0)">G</text>
<line style="fill:none;stroke-width:1" stroke="rgb(0,0,0)" x1="277" y1="1585" x2="292" y2="1651"/> <circle style="stroke-width:1" cx="277" cy="1585" r="12" fill="rgb(255,255,255)" stroke="rgb(0,0,0)"/> <text x="269" y="1593" fill="rgb(0,0,0)" stroke="rgb(0,0,0)">G</text>
<line style="fill:none;stroke-width:1" stroke="rgb(0,0,0)" x1="292" y1="1651" x2="274" y2="1699"/> <circle style="stroke-width:1" cx="292" cy="1651" r="12" fill="rgb(255,255,255)" stroke="rgb(0,0,0)"/> <text x="284" y="1659" fill="rgb(0,0,0)" stroke="rgb(0,0,0)">G</text>
<line style="fill:none;stroke-width:1" stroke="rgb(0,0,0)" x1="274" y1="1699" x2="354" y2="1776"/> <rect x="339" y="1764" width="30" height="24" fill="rgb(255,255,255)" stroke="rgb(255,255,255)"/> <text x="339" y="1784" fill="rgb(0,0,0)" stroke="rgb(0,0,0)">80</text> <circle style="stroke-width:1" cx="274" cy="1699" r="12" fill="rgb(255,255,255)" stroke="rgb(0,0,0)"/> <text x="266" y="1707" fill="rgb(0,0,0)" stroke="rgb(0,0,0)">U</text>
</g>
<g font-size="16">
<text x="36" y="892" fill="rgb(0,0,0)" stroke="rgb(0,0,0)">ENERGY = -22.4  ENST00000467155.7</text>
</g>
</svg>
