<?xml version="1.0" encoding="UTF-8" standalone="no"?>
<!DOCTYPE svg PUBLIC "-//W3C//DTD SVG 1.1//EN" "http://www.w3.org/Graphics/SVG/1.1/DTD/svg11.dtd">
<svg xmlns="http://www.w3.org/2000/svg" xmlns:xlink="http://www.w3.org/1999/xlink" xml:space="preserve" font-family="monospace" font-size="24" fill="rgb(255,255,255)" stroke="rgb(0,0,0)" viewBox="0 0 790 905">
<g transform="scale(0.505631)">
<path style="fill:none;stroke-width:3" stroke="rgb(0,0,0)" d="M675,1254 Q698,1239 721,1224"/>
<path style="fill:none;stroke-width:3" stroke="rgb(0,0,0)" d="M658,1228 Q681,1213 704,1198"/>
<path style="fill:none;stroke-width:3" stroke="rgb(0,0,0)" d="M641,1202 Q664,1187 687,1172"/>
<path style="fill:none;stroke-width:3" stroke="rgb(0,0,0)" d="M624,1176 Q647,1161 670,1146"/>
<path style="fill:none;stroke-width:3" stroke="rgb(0,0,0)" d="M554,1071 Q577,1056 600,1041"/>
<path style="fill:none;stroke-width:3" stroke="rgb(0,0,0)" d="M537,1045 Q560,1030 583,1015"/>
<path style="fill:none;stroke-width:3" stroke="rgb(0,0,0)" d="M520,1019 Q543,1004 566,989"/>
<path style="fill:none;stroke-width:3" stroke="rgb(0,0,0)" d="M503,993 Q526,978 549,963"/>
<path style="fill:none;stroke-width:3" stroke="rgb(0,0,0)" d="M486,967 Q509,952 532,937"/>
<path style="fill:none;stroke-width:3" stroke="rgb(0,0,0)" d="M469,941 Q492,926 515,911"/>
<path style="fill:none;stroke-width:3" stroke="rgb(0,0,0)" d="M452,915 Q475,900 498,885"/>
<path style="fill:none;stroke-width:3" stroke="rgb(0,0,0)" d="M435,889 Q458,874 481,859"/>
<path style="fill:none;stroke-width:3" stroke="rgb(0,0,0)" d="M418,863 Q441,848 464,833"/>
<path style="fill:none;stroke-width:3" stroke="rgb(0,0,0)" d="M243,388 Q270.5,385 298,382"/>
<path style="fill:none;stroke-width:3" stroke="rgb(0,0,0)" d="M240,357 Q267.5,354 295,351"/>
<path style="fill:none;stroke-width:3" stroke="rgb(0,0,0)" d="M237,326 Q264.5,323 292,320"/>
<path style="fill:none;stroke-width:3" stroke="rgb(0,0,0)" d="M234,295 Q261.5,292 289,289"/>
<path style="fill:none;stroke-width:3" stroke="rgb(0,0,0)" d="M231,264 Q258.5,261 286,258"/>
<path style="fill:none;stroke-width:3" stroke="rgb(0,0,0)" d="M792,1409 Q771,1427 750,1445"/>
<path style="fill:none;stroke-width:3" stroke="rgb(0,0,0)" d="M812,1433 Q791,1451 770,1469"/>
<path style="fill:none;stroke-width:3" stroke="rgb(0,0,0)" d="M871,1505 Q849.5,1522 828,1539"/>
<path style="fill:none;stroke-width:3" stroke="rgb(0,0,0)" d="M890,1529 Q868.5,1546 847,1563"/>
<path style="fill:none;stroke-width:3" stroke="rgb(0,0,0)" d="M909,1553 Q887.5,1570 866,1587"/>
<line style="fill:none;stroke-width:1" stroke="rgb(0,0,0)" x1="646" y1="1386" x2="632" y2="1339"/> <circle style="stroke-width:1" cx="646" cy="1386" r="12" fill="rgb(255,255,255)" stroke="rgb(0,0,0)"/> <text x="638" y="1394" fill="rgb(0,0,0)" stroke="rgb(0,0,0)">A</text>
<line style="fill:none;stroke-width:1" stroke="rgb(0,0,0)" x1="632" y1="1339" x2="642" y2="1291"/> <circle style="stroke-width:1" cx="632" cy="1339" r="12" fill="rgb(255,255,255)" stroke="rgb(0,0,0)"/> <text x="624" y="1347" fill="rgb(0,0,0)" stroke="rgb(0,0,0)">U</text>
<line style="fill:none;stroke-width:1" stroke="rgb(0,0,0)" x1="642" y1="1291" x2="675" y2="1254"/> <circle style="stroke-width:1" cx="642" cy="1291" r="12" fill="rgb(255,255,255)" stroke="rgb(0,0,0)"/> <text x="634" y="1299" fill="rgb(0,0,0)" stroke="rgb(0,0,0)">C</text>
<line style="fill:none;stroke-width:1" stroke="rgb(0,0,0)" x1="675" y1="1254" x2="658" y2="1228"/> <circle style="stroke-width:1" cx="675" cy="1254" r="12" fill="rgb(255,255,255)" stroke="rgb(0,0,0)"/> <text x="667" y="1262" fill="rgb(0,0,0)" stroke="rgb(0,0,0)">U</text>
<line style="fill:none;stroke-width:1" stroke="rgb(0,0,0)" x1="658" y1="1228" x2="641" y2="1202"/> <circle style="stroke-width:1" cx="658" cy="1228" r="12" fill="rgb(255,255,255)" stroke="rgb(0,0,0)"/> <text x="650" y="1236" fill="rgb(0,0,0)" stroke="rgb(0,0,0)">U</text>
<line style="fill:none;stroke-width:1" stroke="rgb(0,0,0)" x1="641" y1="1202" x2="624" y2="1176"/> <circle style="stroke-width:1" cx="641" cy="1202" r="12" fill="rgb(255,255,255)" stroke="rgb(0,0,0)"/> <text x="633" y="1210" fill="rgb(0,0,0)" stroke="rgb(0,0,0)">G</text>
<line style="fill:none;stroke-width:1" stroke="rgb(0,0,0)" x1="624" y1="1176" x2="584" y2="1165"/> <circle style="stroke-width:1" cx="624" cy="1176" r="12" fill="rgb(255,255,255)" stroke="rgb(0,0,0)"/> <text x="616" y="1184" fill="rgb(0,0,0)" stroke="rgb(0,0,0)">C</text>
<line style="fill:none;stroke-width:1" stroke="rgb(0,0,0)" x1="584" y1="1165" x2="549" y2="1113"/> <circle style="stroke-width:1" cx="584" cy="1165" r="12" fill="rgb(255,255,255)" stroke="rgb(0,0,0)"/> <text x="576" y="1173" fill="rgb(0,0,0)" stroke="rgb(0,0,0)">A</text>
<line style="fill:none;stroke-width:1" stroke="rgb(0,0,0)" x1="549" y1="1113" x2="554" y2="1071"/> <circle style="stroke-width:1" cx="549" cy="1113" r="12" fill="rgb(255,255,255)" stroke="rgb(0,0,0)"/> <text x="541" y="1121" fill="rgb(0,0,0)" stroke="rgb(0,0,0)">G</text>
<line style="fill:none;stroke-width:1" stroke="rgb(0,0,0)" x1="554" y1="1071" x2="537" y2="1045"/> <line style="fill:none;stroke-width:1" stroke="rgb(0,0,0)" x1="554" y1="1071" x2="461" y2="1133"/> <rect x="446" y="1121" width="30" height="24" fill="rgb(255,255,255)" stroke="rgb(255,255,255)"/> <text x="446" y="1141" fill="rgb(0,0,0)" stroke="rgb(0,0,0)">10</text> <circle style="stroke-width:1" cx="554" cy="1071" r="12" fill="rgb(255,255,255)" stroke="rgb(0,0,0)"/> <text x="546" y="1079" fill="rgb(0,0,0)" stroke="rgb(0,0,0)">C</text>
<line style="fill:none;stroke-width:1" stroke="rgb(0,0,0)" x1="537" y1="1045" x2="520" y2="1019"/> <circle style="stroke-width:1" cx="537" cy="1045" r="12" fill="rgb(255,255,255)" stroke="rgb(0,0,0)"/> <text x="529" y="1053" fill="rgb(0,0,0)" stroke="rgb(0,0,0)">C</text>
<line style="fill:none;stroke-width:1" stroke="rgb(0,0,0)" x1="520" y1="1019" x2="503" y2="993"/> <circle style="stroke-width:1" cx="520" cy="1019" r="12" fill="rgb(255,255,255)" stroke="rgb(0,0,0)"/> <text x="512" y="1027" fill="rgb(0,0,0)" stroke="rgb(0,0,0)">G</text>
<line style="fill:none;stroke-width:1" stroke="rgb(0,0,0)" x1="503" y1="993" x2="486" y2="967"/> <circle style="stroke-width:1" cx="503" cy="993" r="12" fill="rgb(255,255,255)" stroke="rgb(0,0,0)"/> <text x="495" y="1001" fill="rgb(0,0,0)" stroke="rgb(0,0,0)">G</text>
<line style="fill:none;stroke-width:1" stroke="rgb(0,0,0)" x1="486" y1="967" x2="469" y2="941"/> <circle style="stroke-width:1" cx="486" cy="967" r="12" fill="rgb(255,255,255)" stroke="rgb(0,0,0)"/> <text x="478" y="975" fill="rgb(0,0,0)" stroke="rgb(0,0,0)">C</text>
<line style="fill:none;stroke-width:1" stroke="rgb(0,0,0)" x1="469" y1="941" x2="452" y2="915"/> <circle style="stroke-width:1" cx="469" cy="941" r="12" fill="rgb(255,255,255)" stroke="rgb(0,0,0)"/> <text x="461" y="949" fill="rgb(0,0,0)" stroke="rgb(0,0,0)">G</text>
<line style="fill:none;stroke-width:1" stroke="rgb(0,0,0)" x1="452" y1="915" x2="435" y2="889"/> <circle style="stroke-width:1" cx="452" cy="915" r="12" fill="rgb(255,255,255)" stroke="rgb(0,0,0)"/> <text x="444" y="923" fill="rgb(0,0,0)" stroke="rgb(0,0,0)">G</text>
<line style="fill:none;stroke-width:1" stroke="rgb(0,0,0)" x1="435" y1="889" x2="418" y2="863"/> <circle style="stroke-width:1" cx="435" cy="889" r="12" fill="rgb(255,255,255)" stroke="rgb(0,0,0)"/> <text x="427" y="897" fill="rgb(0,0,0)" stroke="rgb(0,0,0)">C</text>
<line style="fill:none;stroke-width:1" stroke="rgb(0,0,0)" x1="418" y1="863" x2="376" y2="880"/> <circle style="stroke-width:1" cx="418" cy="863" r="12" fill="rgb(255,255,255)" stroke="rgb(0,0,0)"/> <text x="410" y="871" fill="rgb(0,0,0)" stroke="rgb(0,0,0)">G</text>
<line style="fill:none;stroke-width:1" stroke="rgb(0,0,0)" x1="376" y1="880" x2="305" y2="892"/> <circle style="stroke-width:1" cx="376" cy="880" r="12" fill="rgb(255,255,255)" stroke="rgb(0,0,0)"/> <text x="368" y="888" fill="rgb(0,0,0)" stroke="rgb(0,0,0)">C</text>
<line style="fill:none;stroke-width:1" stroke="rgb(0,0,0)" x1="305" y1="892" x2="233" y2="884"/> <line style="fill:none;stroke-width:1" stroke="rgb(0,0,0)" x1="305" y1="892" x2="308" y2="1003"/> <rect x="293" y="991" width="30" height="24" fill="rgb(255,255,255)" stroke="rgb(255,255,255)"/> <text x="293" y="1011" fill="rgb(0,0,0)" stroke="rgb(0,0,0)">20</text> <circle style="stroke-width:1" cx="305" cy="892" r="12" fill="rgb(255,255,255)" stroke="rgb(0,0,0)"/> <text x="297" y="900" fill="rgb(0,0,0)" stroke="rgb(0,0,0)">G</text>
<line style="fill:none;stroke-width:1" stroke="rgb(0,0,0)" x1="233" y1="884" x2="166" y2="857"/> <circle style="stroke-width:1" cx="233" cy="884" r="12" fill="rgb(255,255,255)" stroke="rgb(0,0,0)"/> <text x="225" y="892" fill="rgb(0,0,0)" stroke="rgb(0,0,0)">G</text>
<line style="fill:none;stroke-width:1" stroke="rgb(0,0,0)" x1="166" y1="857" x2="109" y2="813"/> <circle style="stroke-width:1" cx="166" cy="857" r="12" fill="rgb(255,255,255)" stroke="rgb(0,0,0)"/> <text x="158" y="865" fill="rgb(0,0,0)" stroke="rgb(0,0,0)">A</text>
<line style="fill:none;stroke-width:1" stroke="rgb(0,0,0)" x1="109" y1="813" x2="67" y2="755"/> <circle style="stroke-width:1" cx="109" cy="813" r="12" fill="rgb(255,255,255)" stroke="rgb(0,0,0)"/> <text x="101" y="821" fill="rgb(0,0,0)" stroke="rgb(0,0,0)">U</text>
<line style="fill:none;stroke-width:1" stroke="rgb(0,0,0)" x1="67" y1="755" x2="42" y2="687"/> <circle style="stroke-width:1" cx="67" cy="755" r="12" fill="rgb(255,255,255)" stroke="rgb(0,0,0)"/> <text x="59" y="763" fill="rgb(0,0,0)" stroke="rgb(0,0,0)">U</text>
<line style="fill:none;stroke-width:1" stroke="rgb(0,0,0)" x1="42" y1="687" x2="36" y2="615"/> <circle style="stroke-width:1" cx="42" cy="687" r="12" fill="rgb(255,255,255)" stroke="rgb(0,0,0)"/> <text x="34" y="695" fill="rgb(0,0,0)" stroke="rgb(0,0,0)">G</text>
<line style="fill:none;stroke-width:1" stroke="rgb(0,0,0)" x1="36" y1="615" x2="51" y2="544"/> <circle style="stroke-width:1" cx="36" cy="615" r="12" fill="rgb(255,255,255)" stroke="rgb(0,0,0)"/> <text x="28" y="623" fill="rgb(0,0,0)" stroke="rgb(0,0,0)">A</text>
<line style="fill:none;stroke-width:1" stroke="rgb(0,0,0)" x1="51" y1="544" x2="84" y2="480"/> <circle style="stroke-width:1" cx="51" cy="544" r="12" fill="rgb(255,255,255)" stroke="rgb(0,0,0)"/> <text x="43" y="552" fill="rgb(0,0,0)" stroke="rgb(0,0,0)">A</text>
<line style="fill:none;stroke-width:1" stroke="rgb(0,0,0)" x1="84" y1="480" x2="134" y2="427"/> <circle style="stroke-width:1" cx="84" cy="480" r="12" fill="rgb(255,255,255)" stroke="rgb(0,0,0)"/> <text x="76" y="488" fill="rgb(0,0,0)" stroke="rgb(0,0,0)">U</text>
<line style="fill:none;stroke-width:1" stroke="rgb(0,0,0)" x1="134" y1="427" x2="196" y2="390"/> <circle style="stroke-width:1" cx="134" cy="427" r="12" fill="rgb(255,255,255)" stroke="rgb(0,0,0)"/> <text x="126" y="435" fill="rgb(0,0,0)" stroke="rgb(0,0,0)">G</text>
<line style="fill:none;stroke-width:1" stroke="rgb(0,0,0)" x1="196" y1="390" x2="243" y2="388"/> <line style="fill:none;stroke-width:1" stroke="rgb(0,0,0)" x1="196" y1="390" x2="153" y2="287"/> <rect x="138" y="275" width="30" height="24" fill="rgb(255,255,255)" stroke="rgb(255,255,255)"/> <text x="138" y="295" fill="rgb(0,0,0)" stroke="rgb(0,0,0)">30</text> <circle style="stroke-width:1" cx="196" cy="390" r="12" fill="rgb(255,255,255)" stroke="rgb(0,0,0)"/> <text x="188" y="398" fill="rgb(0,0,0)" stroke="rgb(0,0,0)">A</text>
<line style="fill:none;stroke-width:1" stroke="rgb(0,0,0)" x1="243" y1="388" x2="240" y2="357"/> <circle style="stroke-width:1" cx="243" cy="388" r="12" fill="rgb(255,255,255)" stroke="rgb(0,0,0)"/> <text x="235" y="396" fill="rgb(0,0,0)" stroke="rgb(0,0,0)">G</text>
<line style="fill:none;stroke-width:1" stroke="rgb(0,0,0)" x1="240" y1="357" x2="237" y2="326"/> <circle style="stroke-width:1" cx="240" cy="357" r="12" fill="rgb(255,255,255)" stroke="rgb(0,0,0)"/> <text x="232" y="365" fill="rgb(0,0,0)" stroke="rgb(0,0,0)">C</text>
<line style="fill:none;stroke-width:1" stroke="rgb(0,0,0)" x1="237" y1="326" x2="234" y2="295"/> <circle style="stroke-width:1" cx="237" cy="326" r="12" fill="rgb(255,255,255)" stroke="rgb(0,0,0)"/> <text x="229" y="334" fill="rgb(0,0,0)" stroke="rgb(0,0,0)">C</text>
<line style="fill:none;stroke-width:1" stroke="rgb(0,0,0)" x1="234" y1="295" x2="231" y2="264"/> <circle style="stroke-width:1" cx="234" cy="295" r="12" fill="rgb(255,255,255)" stroke="rgb(0,0,0)"/> <text x="226" y="303" fill="rgb(0,0,0)" stroke="rgb(0,0,0)">C</text>
<line style="fill:none;stroke-width:1" stroke="rgb(0,0,0)" x1="231" y1="264" x2="204" y2="238"/> <circle style="stroke-width:1" cx="231" cy="264" r="12" fill="rgb(255,255,255)" stroke="rgb(0,0,0)"/> <text x="223" y="272" fill="rgb(0,0,0)" stroke="rgb(0,0,0)">G</text>
<line style="fill:none;stroke-width:1" stroke="rgb(0,0,0)" x1="204" y1="238" x2="193" y2="199"/> <circle style="stroke-width:1" cx="204" cy="238" r="12" fill="rgb(255,255,255)" stroke="rgb(0,0,0)"/> <text x="196" y="246" fill="rgb(0,0,0)" stroke="rgb(0,0,0)">C</text>
<line style="fill:none;stroke-width:1" stroke="rgb(0,0,0)" x1="193" y1="199" x2="209" y2="162"/> <circle style="stroke-width:1" cx="193" cy="199" r="12" fill="rgb(255,255,255)" stroke="rgb(0,0,0)"/> <text x="185" y="207" fill="rgb(0,0,0)" stroke="rgb(0,0,0)">C</text>
<line style="fill:none;stroke-width:1" stroke="rgb(0,0,0)" x1="209" y1="162" x2="245" y2="143"/> <circle style="stroke-width:1" cx="209" cy="162" r="12" fill="rgb(255,255,255)" stroke="rgb(0,0,0)"/> <text x="201" y="170" fill="rgb(0,0,0)" stroke="rgb(0,0,0)">G</text>
<line style="fill:none;stroke-width:1" stroke="rgb(0,0,0)" x1="245" y1="143" x2="285" y2="153"/> <circle style="stroke-width:1" cx="245" cy="143" r="12" fill="rgb(255,255,255)" stroke="rgb(0,0,0)"/> <text x="237" y="151" fill="rgb(0,0,0)" stroke="rgb(0,0,0)">A</text>
<line style="fill:none;stroke-width:1" stroke="rgb(0,0,0)" x1="285" y1="153" x2="309" y2="185"/> <line style="fill:none;stroke-width:1" stroke="rgb(0,0,0)" x1="285" y1="153" x2="346" y2="60"/> <rect x="331" y="48" width="30" height="24" fill="rgb(255,255,255)" stroke="rgb(255,255,255)"/> <text x="331" y="68" fill="rgb(0,0,0)" stroke="rgb(0,0,0)">40</text> <circle style="stroke-width:1" cx="285" cy="153" r="12" fill="rgb(255,255,255)" stroke="rgb(0,0,0)"/> <text x="277" y="161" fill="rgb(0,0,0)" stroke="rgb(0,0,0)">G</text>
<line style="fill:none;stroke-width:1" stroke="rgb(0,0,0)" x1="309" y1="185" x2="307" y2="226"/> <circle style="stroke-width:1" cx="309" cy="185" r="12" fill="rgb(255,255,255)" stroke="rgb(0,0,0)"/> <text x="301" y="193" fill="rgb(0,0,0)" stroke="rgb(0,0,0)">C</text>
<line style="fill:none;stroke-width:1" stroke="rgb(0,0,0)" x1="307" y1="226" x2="286" y2="258"/> <circle style="stroke-width:1" cx="307" cy="226" r="12" fill="rgb(255,255,255)" stroke="rgb(0,0,0)"/> <text x="299" y="234" fill="rgb(0,0,0)" stroke="rgb(0,0,0)">C</text>
<line style="fill:none;stroke-width:1" stroke="rgb(0,0,0)" x1="286" y1="258" x2="289" y2="289"/> <circle style="stroke-width:1" cx="286" cy="258" r="12" fill="rgb(255,255,255)" stroke="rgb(0,0,0)"/> <text x="278" y="266" fill="rgb(0,0,0)" stroke="rgb(0,0,0)">C</text>
<line style="fill:none;stroke-width:1" stroke="rgb(0,0,0)" x1="289" y1="289" x2="292" y2="320"/> <circle style="stroke-width:1" cx="289" cy="289" r="12" fill="rgb(255,255,255)" stroke="rgb(0,0,0)"/> <text x="281" y="297" fill="rgb(0,0,0)" stroke="rgb(0,0,0)">G</text>
<line style="fill:none;stroke-width:1" stroke="rgb(0,0,0)" x1="292" y1="320" x2="295" y2="351"/> <circle style="stroke-width:1" cx="292" cy="320" r="12" fill="rgb(255,255,255)" stroke="rgb(0,0,0)"/> <text x="284" y="328" fill="rgb(0,0,0)" stroke="rgb(0,0,0)">G</text>
<line style="fill:none;stroke-width:1" stroke="rgb(0,0,0)" x1="295" y1="351" x2="298" y2="382"/> <circle style="stroke-width:1" cx="295" cy="351" r="12" fill="rgb(255,255,255)" stroke="rgb(0,0,0)"/> <text x="287" y="359" fill="rgb(0,0,0)" stroke="rgb(0,0,0)">G</text>
<line style="fill:none;stroke-width:1" stroke="rgb(0,0,0)" x1="298" y1="382" x2="464" y2="833"/> <circle style="stroke-width:1" cx="298" cy="382" r="12" fill="rgb(255,255,255)" stroke="rgb(0,0,0)"/> <text x="290" y="390" fill="rgb(0,0,0)" stroke="rgb(0,0,0)">C</text>
<line style="fill:none;stroke-width:1" stroke="rgb(0,0,0)" x1="464" y1="833" x2="481" y2="859"/> <circle style="stroke-width:1" cx="464" cy="833" r="12" fill="rgb(255,255,255)" stroke="rgb(0,0,0)"/> <text x="456" y="841" fill="rgb(0,0,0)" stroke="rgb(0,0,0)">C</text>
<line style="fill:none;stroke-width:1" stroke="rgb(0,0,0)" x1="481" y1="859" x2="498" y2="885"/> <circle style="stroke-width:1" cx="481" cy="859" r="12" fill="rgb(255,255,255)" stroke="rgb(0,0,0)"/> <text x="473" y="867" fill="rgb(0,0,0)" stroke="rgb(0,0,0)">G</text>
<line style="fill:none;stroke-width:1" stroke="rgb(0,0,0)" x1="498" y1="885" x2="515" y2="911"/> <line style="fill:none;stroke-width:1" stroke="rgb(0,0,0)" x1="498" y1="885" x2="591" y2="823"/> <rect x="576" y="811" width="30" height="24" fill="rgb(255,255,255)" stroke="rgb(255,255,255)"/> <text x="576" y="831" fill="rgb(0,0,0)" stroke="rgb(0,0,0)">50</text> <circle style="stroke-width:1" cx="498" cy="885" r="12" fill="rgb(255,255,255)" stroke="rgb(0,0,0)"/> <text x="490" y="893" fill="rgb(0,0,0)" stroke="rgb(0,0,0)">C</text>
<line style="fill:none;stroke-width:1" stroke="rgb(0,0,0)" x1="515" y1="911" x2="532" y2="937"/> <circle style="stroke-width:1" cx="515" cy="911" r="12" fill="rgb(255,255,255)" stroke="rgb(0,0,0)"/> <text x="507" y="919" fill="rgb(0,0,0)" stroke="rgb(0,0,0)">C</text>
<line style="fill:none;stroke-width:1" stroke="rgb(0,0,0)" x1="532" y1="937" x2="549" y2="963"/> <circle style="stroke-width:1" cx="532" cy="937" r="12" fill="rgb(255,255,255)" stroke="rgb(0,0,0)"/> <text x="524" y="945" fill="rgb(0,0,0)" stroke="rgb(0,0,0)">G</text>
<line style="fill:none;stroke-width:1" stroke="rgb(0,0,0)" x1="549" y1="963" x2="566" y2="989"/> <circle style="stroke-width:1" cx="549" cy="963" r="12" fill="rgb(255,255,255)" stroke="rgb(0,0,0)"/> <text x="541" y="971" fill="rgb(0,0,0)" stroke="rgb(0,0,0)">U</text>
<line style="fill:none;stroke-width:1" stroke="rgb(0,0,0)" x1="566" y1="989" x2="583" y2="1015"/> <circle style="stroke-width:1" cx="566" cy="989" r="12" fill="rgb(255,255,255)" stroke="rgb(0,0,0)"/> <text x="558" y="997" fill="rgb(0,0,0)" stroke="rgb(0,0,0)">C</text>
<line style="fill:none;stroke-width:1" stroke="rgb(0,0,0)" x1="583" y1="1015" x2="600" y2="1041"/> <circle style="stroke-width:1" cx="583" cy="1015" r="12" fill="rgb(255,255,255)" stroke="rgb(0,0,0)"/> <text x="575" y="1023" fill="rgb(0,0,0)" stroke="rgb(0,0,0)">G</text>
<line style="fill:none;stroke-width:1" stroke="rgb(0,0,0)" x1="600" y1="1041" x2="640" y2="1052"/> <circle style="stroke-width:1" cx="600" cy="1041" r="12" fill="rgb(255,255,255)" stroke="rgb(0,0,0)"/> <text x="592" y="1049" fill="rgb(0,0,0)" stroke="rgb(0,0,0)">G</text>
<line style="fill:none;stroke-width:1" stroke="rgb(0,0,0)" x1="640" y1="1052" x2="676" y2="1104"/> <circle style="stroke-width:1" cx="640" cy="1052" r="12" fill="rgb(255,255,255)" stroke="rgb(0,0,0)"/> <text x="632" y="1060" fill="rgb(0,0,0)" stroke="rgb(0,0,0)">G</text>
<line style="fill:none;stroke-width:1" stroke="rgb(0,0,0)" x1="676" y1="1104" x2="670" y2="1146"/> <circle style="stroke-width:1" cx="676" cy="1104" r="12" fill="rgb(255,255,255)" stroke="rgb(0,0,0)"/> <text x="668" y="1112" fill="rgb(0,0,0)" stroke="rgb(0,0,0)">A</text>
<line style="fill:none;stroke-width:1" stroke="rgb(0,0,0)" x1="670" y1="1146" x2="687" y2="1172"/> <circle style="stroke-width:1" cx="670" cy="1146" r="12" fill="rgb(255,255,255)" stroke="rgb(0,0,0)"/> <text x="662" y="1154" fill="rgb(0,0,0)" stroke="rgb(0,0,0)">G</text>
<line style="fill:none;stroke-width:1" stroke="rgb(0,0,0)" x1="687" y1="1172" x2="704" y2="1198"/> <line style="fill:none;stroke-width:1" stroke="rgb(0,0,0)" x1="687" y1="1172" x2="780" y2="1110"/> <rect x="765" y="1098" width="30" height="24" fill="rgb(255,255,255)" stroke="rgb(255,255,255)"/> <text x="765" y="1118" fill="rgb(0,0,0)" stroke="rgb(0,0,0)">60</text> <circle style="stroke-width:1" cx="687" cy="1172" r="12" fill="rgb(255,255,255)" stroke="rgb(0,0,0)"/> <text x="679" y="1180" fill="rgb(0,0,0)" stroke="rgb(0,0,0)">C</text>
<line style="fill:none;stroke-width:1" stroke="rgb(0,0,0)" x1="704" y1="1198" x2="721" y2="1224"/> <circle style="stroke-width:1" cx="704" cy="1198" r="12" fill="rgb(255,255,255)" stroke="rgb(0,0,0)"/> <text x="696" y="1206" fill="rgb(0,0,0)" stroke="rgb(0,0,0)">A</text>
<line style="fill:none;stroke-width:1" stroke="rgb(0,0,0)" x1="721" y1="1224" x2="825" y2="1321"/> <circle style="stroke-width:1" cx="721" cy="1224" r="12" fill="rgb(255,255,255)" stroke="rgb(0,0,0)"/> <text x="713" y="1232" fill="rgb(0,0,0)" stroke="rgb(0,0,0)">G</text>
<line style="fill:none;stroke-width:1" stroke="rgb(0,0,0)" x1="825" y1="1321" x2="792" y2="1409"/> <circle style="stroke-width:1" cx="825" cy="1321" r="12" fill="rgb(255,255,255)" stroke="rgb(0,0,0)"/> <text x="817" y="1329" fill="rgb(0,0,0)" stroke="rgb(0,0,0)">C</text>
<line style="fill:none;stroke-width:1" stroke="rgb(0,0,0)" x1="792" y1="1409" x2="812" y2="1433"/> <circle style="stroke-width:1" cx="792" cy="1409" r="12" fill="rgb(255,255,255)" stroke="rgb(0,0,0)"/> <text x="784" y="1417" fill="rgb(0,0,0)" stroke="rgb(0,0,0)">G</text>
<line style="fill:none;stroke-width:1" stroke="rgb(0,0,0)" x1="812" y1="1433" x2="857" y2="1456"/> <circle style="stroke-width:1" cx="812" cy="1433" r="12" fill="rgb(255,255,255)" stroke="rgb(0,0,0)"/> <text x="804" y="1441" fill="rgb(0,0,0)" stroke="rgb(0,0,0)">C</text>
<line style="fill:none;stroke-width:1" stroke="rgb(0,0,0)" x1="857" y1="1456" x2="871" y2="1505"/> <circle style="stroke-width:1" cx="857" cy="1456" r="12" fill="rgb(255,255,255)" stroke="rgb(0,0,0)"/> <text x="849" y="1464" fill="rgb(0,0,0)" stroke="rgb(0,0,0)">A</text>
<line style="fill:none;stroke-width:1" stroke="rgb(0,0,0)" x1="871" y1="1505" x2="890" y2="1529"/> <circle style="stroke-width:1" cx="871" cy="1505" r="12" fill="rgb(255,255,255)" stroke="rgb(0,0,0)"/> <text x="863" y="1513" fill="rgb(0,0,0)" stroke="rgb(0,0,0)">G</text>
<line style="fill:none;stroke-width:1" stroke="rgb(0,0,0)" x1="890" y1="1529" x2="909" y2="1553"/> <circle style="stroke-width:1" cx="890" cy="1529" r="12" fill="rgb(255,255,255)" stroke="rgb(0,0,0)"/> <text x="882" y="1537" fill="rgb(0,0,0)" stroke="rgb(0,0,0)">G</text>
<line style="fill:none;stroke-width:1" stroke="rgb(0,0,0)" x1="909" y1="1553" x2="944" y2="1570"/> <circle style="stroke-width:1" cx="909" cy="1553" r="12" fill="rgb(255,255,255)" stroke="rgb(0,0,0)"/> <text x="901" y="1561" fill="rgb(0,0,0)" stroke="rgb(0,0,0)">C</text>
<line style="fill:none;stroke-width:1" stroke="rgb(0,0,0)" x1="944" y1="1570" x2="962" y2="1606"/> <line style="fill:none;stroke-width:1" stroke="rgb(0,0,0)" x1="944" y1="1570" x2="1014" y2="1483"/> <rect x="999" y="1471" width="30" height="24" fill="rgb(255,255,255)" stroke="rgb(255,255,255)"/> <text x="999" y="1491" fill="rgb(0,0,0)" stroke="rgb(0,0,0)">70</text> <circle style="stroke-width:1" cx="944" cy="1570" r="12" fill="rgb(255,255,255)" stroke="rgb(0,0,0)"/> <text x="936" y="1578" fill="rgb(0,0,0)" stroke="rgb(0,0,0)">C</text>
<line style="fill:none;stroke-width:1" stroke="rgb(0,0,0)" x1="962" y1="1606" x2="944" y2="1642"/> <circle style="stroke-width:1" cx="962" cy="1606" r="12" fill="rgb(255,255,255)" stroke="rgb(0,0,0)"/> <text x="954" y="1614" fill="rgb(0,0,0)" stroke="rgb(0,0,0)">G</text>
<line style="fill:none;stroke-width:1" stroke="rgb(0,0,0)" x1="944" y1="1642" x2="905" y2="1651"/> <circle style="stroke-width:1" cx="944" cy="1642" r="12" fill="rgb(255,255,255)" stroke="rgb(0,0,0)"/> <text x="936" y="1650" fill="rgb(0,0,0)" stroke="rgb(0,0,0)">C</text>
<line style="fill:none;stroke-width:1" stroke="rgb(0,0,0)" x1="905" y1="1651" x2="874" y2="1626"/> <circle style="stroke-width:1" cx="905" cy="1651" r="12" fill="rgb(255,255,255)" stroke="rgb(0,0,0)"/> <text x="897" y="1659" fill="rgb(0,0,0)" stroke="rgb(0,0,0)">G</text>
<line style="fill:none;stroke-width:1" stroke="rgb(0,0,0)" x1="874" y1="1626" x2="866" y2="1587"/> <circle style="stroke-width:1" cx="874" cy="1626" r="12" fill="rgb(255,255,255)" stroke="rgb(0,0,0)"/> <text x="866" y="1634" fill="rgb(0,0,0)" stroke="rgb(0,0,0)">A</text>
<line style="fill:none;stroke-width:1" stroke="rgb(0,0,0)" x1="866" y1="1587" x2="847" y2="1563"/> <circle style="stroke-width:1" cx="866" cy="1587" r="12" fill="rgb(255,255,255)" stroke="rgb(0,0,0)"/> <text x="858" y="1595" fill="rgb(0,0,0)" stroke="rgb(0,0,0)">G</text>
<line style="fill:none;stroke-width:1" stroke="rgb(0,0,0)" x1="847" y1="1563" x2="828" y2="1539"/> <circle style="stroke-width:1" cx="847" cy="1563" r="12" fill="rgb(255,255,255)" stroke="rgb(0,0,0)"/> <text x="839" y="1571" fill="rgb(0,0,0)" stroke="rgb(0,0,0)">C</text>
<line style="fill:none;stroke-width:1" stroke="rgb(0,0,0)" x1="828" y1="1539" x2="770" y2="1469"/> <circle style="stroke-width:1" cx="828" cy="1539" r="12" fill="rgb(255,255,255)" stroke="rgb(0,0,0)"/> <text x="820" y="1547" fill="rgb(0,0,0)" stroke="rgb(0,0,0)">C</text>
<line style="fill:none;stroke-width:1" stroke="rgb(0,0,0)" x1="770" y1="1469" x2="750" y2="1445"/> <circle style="stroke-width:1" cx="770" cy="1469" r="12" fill="rgb(255,255,255)" stroke="rgb(0,0,0)"/> <text x="762" y="1477" fill="rgb(0,0,0)" stroke="rgb(0,0,0)">G</text>
<line style="fill:none;stroke-width:1" stroke="rgb(0,0,0)" x1="750" y1="1445" x2="751" y2="1430"/> <circle style="stroke-width:1" cx="750" cy="1445" r="12" fill="rgb(255,255,255)" stroke="rgb(0,0,0)"/> <text x="742" y="1453" fill="rgb(0,0,0)" stroke="rgb(0,0,0)">C</text>
<line style="fill:none;stroke-width:1" stroke="rgb(0,0,0)" x1="751" y1="1430" x2="777" y2="1538"/> <rect x="762" y="1526" width="30" height="24" fill="rgb(255,255,255)" stroke="rgb(255,255,255)"/> <text x="762" y="1546" fill="rgb(0,0,0)" stroke="rgb(0,0,0)">80</text> <circle style="stroke-width:1" cx="751" cy="1430" r="12" fill="rgb(255,255,255)" stroke="rgb(0,0,0)"/> <text x="743" y="1438" fill="rgb(0,0,0)" stroke="rgb(0,0,0)">C</text>
</g>
<g font-size="16">
<text x="36" y="892" fill="rgb(0,0,0)" stroke="rgb(0,0,0)">ENERGY = -36.4  ENST00000325327.4</text>
</g>
</svg>
