<?xml version="1.0" encoding="UTF-8" standalone="no"?>
<!DOCTYPE svg PUBLIC "-//W3C//DTD SVG 1.1//EN" "http://www.w3.org/Graphics/SVG/1.1/DTD/svg11.dtd">
<svg xmlns="http://www.w3.org/2000/svg" xmlns:xlink="http://www.w3.org/1999/xlink" xml:space="preserve" font-family="monospace" font-size="24" fill="rgb(255,255,255)" stroke="rgb(0,0,0)" viewBox="0 0 790 905">
<g transform="scale(0.586657)">
<path style="fill:none;stroke-width:3" stroke="rgb(0,0,0)" d="M636,1072 Q660.5,1059.5 685,1047"/>
<path style="fill:none;stroke-width:3" stroke="rgb(0,0,0)" d="M622,1044 Q646.5,1031.5 671,1019"/>
<path style="fill:none;stroke-width:3" stroke="rgb(0,0,0)" d="M608,1016 Q632.5,1003.5 657,991"/>
<path style="fill:none;stroke-width:3" stroke="rgb(0,0,0)" d="M594,988 Q618.5,975.5 643,963"/>
<path style="fill:none;stroke-width:3" stroke="rgb(0,0,0)" d="M580,960 Q604.5,947.5 629,935"/>
<path style="fill:none;stroke-width:3" stroke="rgb(0,0,0)" d="M539,874 Q564,862.5 589,851"/>
<path style="fill:none;stroke-width:3" stroke="rgb(0,0,0)" d="M473,731 Q498,719.5 523,708"/>
<path style="fill:none;stroke-width:3" stroke="rgb(0,0,0)" d="M460,703 Q485,691.5 510,680"/>
<path style="fill:none;stroke-width:3" stroke="rgb(0,0,0)" d="M447,675 Q472,663.5 497,652"/>
<path style="fill:none;stroke-width:3" stroke="rgb(0,0,0)" d="M407,591 Q431.5,578.5 456,566"/>
<path style="fill:none;stroke-width:3" stroke="rgb(0,0,0)" d="M393,563 Q417.5,550.5 442,538"/>
<path style="fill:none;stroke-width:3" stroke="rgb(0,0,0)" d="M379,535 Q403.5,522.5 428,510"/>
<path style="fill:none;stroke-width:3" stroke="rgb(0,0,0)" d="M365,507 Q389.5,494.5 414,482"/>
<path style="fill:none;stroke-width:3" stroke="rgb(0,0,0)" d="M351,479 Q375.5,466.5 400,454"/>
<path style="fill:none;stroke-width:3" stroke="rgb(0,0,0)" d="M294,367 Q318.5,354.5 343,342"/>
<path style="fill:none;stroke-width:3" stroke="rgb(0,0,0)" d="M280,339 Q304.5,326.5 329,314"/>
<path style="fill:none;stroke-width:3" stroke="rgb(0,0,0)" d="M266,311 Q290.5,298.5 315,286"/>
<path style="fill:none;stroke-width:3" stroke="rgb(0,0,0)" d="M176,150 Q199.5,136 223,122"/>
<path style="fill:none;stroke-width:3" stroke="rgb(0,0,0)" d="M160,123 Q183.5,109 207,95"/>
<path style="fill:none;stroke-width:3" stroke="rgb(0,0,0)" d="M762,1254 Q742,1272.5 722,1291"/>
<path style="fill:none;stroke-width:3" stroke="rgb(0,0,0)" d="M783,1277 Q763,1295.5 743,1314"/>
<path style="fill:none;stroke-width:3" stroke="rgb(0,0,0)" d="M804,1300 Q784,1318.5 764,1337"/>
<line style="fill:none;stroke-width:1" stroke="rgb(0,0,0)" x1="600" y1="1242" x2="579" y2="1198"/> <circle style="stroke-width:1" cx="600" cy="1242" r="12" fill="rgb(255,255,255)" stroke="rgb(0,0,0)"/> <text x="592" y="1250" fill="rgb(0,0,0)" stroke="rgb(0,0,0)">C</text>
<line style="fill:none;stroke-width:1" stroke="rgb(0,0,0)" x1="579" y1="1198" x2="578" y2="1148"/> <circle style="stroke-width:1" cx="579" cy="1198" r="12" fill="rgb(255,255,255)" stroke="rgb(0,0,0)"/> <text x="571" y="1206" fill="rgb(0,0,0)" stroke="rgb(0,0,0)">U</text>
<line style="fill:none;stroke-width:1" stroke="rgb(0,0,0)" x1="578" y1="1148" x2="599" y2="1104"/> <circle style="stroke-width:1" cx="578" cy="1148" r="12" fill="rgb(255,255,255)" stroke="rgb(0,0,0)"/> <text x="570" y="1156" fill="rgb(0,0,0)" stroke="rgb(0,0,0)">U</text>
<line style="fill:none;stroke-width:1" stroke="rgb(0,0,0)" x1="599" y1="1104" x2="636" y2="1072"/> <circle style="stroke-width:1" cx="599" cy="1104" r="12" fill="rgb(255,255,255)" stroke="rgb(0,0,0)"/> <text x="591" y="1112" fill="rgb(0,0,0)" stroke="rgb(0,0,0)">C</text>
<line style="fill:none;stroke-width:1" stroke="rgb(0,0,0)" x1="636" y1="1072" x2="622" y2="1044"/> <circle style="stroke-width:1" cx="636" cy="1072" r="12" fill="rgb(255,255,255)" stroke="rgb(0,0,0)"/> <text x="628" y="1080" fill="rgb(0,0,0)" stroke="rgb(0,0,0)">C</text>
<line style="fill:none;stroke-width:1" stroke="rgb(0,0,0)" x1="622" y1="1044" x2="608" y2="1016"/> <circle style="stroke-width:1" cx="622" cy="1044" r="12" fill="rgb(255,255,255)" stroke="rgb(0,0,0)"/> <text x="614" y="1052" fill="rgb(0,0,0)" stroke="rgb(0,0,0)">U</text>
<line style="fill:none;stroke-width:1" stroke="rgb(0,0,0)" x1="608" y1="1016" x2="594" y2="988"/> <circle style="stroke-width:1" cx="608" cy="1016" r="12" fill="rgb(255,255,255)" stroke="rgb(0,0,0)"/> <text x="600" y="1024" fill="rgb(0,0,0)" stroke="rgb(0,0,0)">C</text>
<line style="fill:none;stroke-width:1" stroke="rgb(0,0,0)" x1="594" y1="988" x2="580" y2="960"/> <circle style="stroke-width:1" cx="594" cy="988" r="12" fill="rgb(255,255,255)" stroke="rgb(0,0,0)"/> <text x="586" y="996" fill="rgb(0,0,0)" stroke="rgb(0,0,0)">A</text>
<line style="fill:none;stroke-width:1" stroke="rgb(0,0,0)" x1="580" y1="960" x2="540" y2="926"/> <circle style="stroke-width:1" cx="580" cy="960" r="12" fill="rgb(255,255,255)" stroke="rgb(0,0,0)"/> <text x="572" y="968" fill="rgb(0,0,0)" stroke="rgb(0,0,0)">U</text>
<line style="fill:none;stroke-width:1" stroke="rgb(0,0,0)" x1="540" y1="926" x2="539" y2="874"/> <line style="fill:none;stroke-width:1" stroke="rgb(0,0,0)" x1="540" y1="926" x2="440" y2="974"/> <rect x="425" y="962" width="30" height="24" fill="rgb(255,255,255)" stroke="rgb(255,255,255)"/> <text x="425" y="982" fill="rgb(0,0,0)" stroke="rgb(0,0,0)">10</text> <circle style="stroke-width:1" cx="540" cy="926" r="12" fill="rgb(255,255,255)" stroke="rgb(0,0,0)"/> <text x="532" y="934" fill="rgb(0,0,0)" stroke="rgb(0,0,0)">U</text>
<line style="fill:none;stroke-width:1" stroke="rgb(0,0,0)" x1="539" y1="874" x2="504" y2="865"/> <circle style="stroke-width:1" cx="539" cy="874" r="12" fill="rgb(255,255,255)" stroke="rgb(0,0,0)"/> <text x="531" y="882" fill="rgb(0,0,0)" stroke="rgb(0,0,0)">G</text>
<line style="fill:none;stroke-width:1" stroke="rgb(0,0,0)" x1="504" y1="865" x2="460" y2="824"/> <circle style="stroke-width:1" cx="504" cy="865" r="12" fill="rgb(255,255,255)" stroke="rgb(0,0,0)"/> <text x="496" y="873" fill="rgb(0,0,0)" stroke="rgb(0,0,0)">G</text>
<line style="fill:none;stroke-width:1" stroke="rgb(0,0,0)" x1="460" y1="824" x2="457" y2="764"/> <circle style="stroke-width:1" cx="460" cy="824" r="12" fill="rgb(255,255,255)" stroke="rgb(0,0,0)"/> <text x="452" y="832" fill="rgb(0,0,0)" stroke="rgb(0,0,0)">C</text>
<line style="fill:none;stroke-width:1" stroke="rgb(0,0,0)" x1="457" y1="764" x2="473" y2="731"/> <circle style="stroke-width:1" cx="457" cy="764" r="12" fill="rgb(255,255,255)" stroke="rgb(0,0,0)"/> <text x="449" y="772" fill="rgb(0,0,0)" stroke="rgb(0,0,0)">G</text>
<line style="fill:none;stroke-width:1" stroke="rgb(0,0,0)" x1="473" y1="731" x2="460" y2="703"/> <circle style="stroke-width:1" cx="473" cy="731" r="12" fill="rgb(255,255,255)" stroke="rgb(0,0,0)"/> <text x="465" y="739" fill="rgb(0,0,0)" stroke="rgb(0,0,0)">C</text>
<line style="fill:none;stroke-width:1" stroke="rgb(0,0,0)" x1="460" y1="703" x2="447" y2="675"/> <circle style="stroke-width:1" cx="460" cy="703" r="12" fill="rgb(255,255,255)" stroke="rgb(0,0,0)"/> <text x="452" y="711" fill="rgb(0,0,0)" stroke="rgb(0,0,0)">C</text>
<line style="fill:none;stroke-width:1" stroke="rgb(0,0,0)" x1="447" y1="675" x2="407" y2="591"/> <circle style="stroke-width:1" cx="447" cy="675" r="12" fill="rgb(255,255,255)" stroke="rgb(0,0,0)"/> <text x="439" y="683" fill="rgb(0,0,0)" stroke="rgb(0,0,0)">G</text>
<line style="fill:none;stroke-width:1" stroke="rgb(0,0,0)" x1="407" y1="591" x2="393" y2="563"/> <circle style="stroke-width:1" cx="407" cy="591" r="12" fill="rgb(255,255,255)" stroke="rgb(0,0,0)"/> <text x="399" y="599" fill="rgb(0,0,0)" stroke="rgb(0,0,0)">U</text>
<line style="fill:none;stroke-width:1" stroke="rgb(0,0,0)" x1="393" y1="563" x2="379" y2="535"/> <circle style="stroke-width:1" cx="393" cy="563" r="12" fill="rgb(255,255,255)" stroke="rgb(0,0,0)"/> <text x="385" y="571" fill="rgb(0,0,0)" stroke="rgb(0,0,0)">G</text>
<line style="fill:none;stroke-width:1" stroke="rgb(0,0,0)" x1="379" y1="535" x2="365" y2="507"/> <line style="fill:none;stroke-width:1" stroke="rgb(0,0,0)" x1="379" y1="535" x2="280" y2="585"/> <rect x="265" y="573" width="30" height="24" fill="rgb(255,255,255)" stroke="rgb(255,255,255)"/> <text x="265" y="593" fill="rgb(0,0,0)" stroke="rgb(0,0,0)">20</text> <circle style="stroke-width:1" cx="379" cy="535" r="12" fill="rgb(255,255,255)" stroke="rgb(0,0,0)"/> <text x="371" y="543" fill="rgb(0,0,0)" stroke="rgb(0,0,0)">C</text>
<line style="fill:none;stroke-width:1" stroke="rgb(0,0,0)" x1="365" y1="507" x2="351" y2="479"/> <circle style="stroke-width:1" cx="365" cy="507" r="12" fill="rgb(255,255,255)" stroke="rgb(0,0,0)"/> <text x="357" y="515" fill="rgb(0,0,0)" stroke="rgb(0,0,0)">A</text>
<line style="fill:none;stroke-width:1" stroke="rgb(0,0,0)" x1="351" y1="479" x2="313" y2="464"/> <circle style="stroke-width:1" cx="351" cy="479" r="12" fill="rgb(255,255,255)" stroke="rgb(0,0,0)"/> <text x="343" y="487" fill="rgb(0,0,0)" stroke="rgb(0,0,0)">G</text>
<line style="fill:none;stroke-width:1" stroke="rgb(0,0,0)" x1="313" y1="464" x2="284" y2="407"/> <circle style="stroke-width:1" cx="313" cy="464" r="12" fill="rgb(255,255,255)" stroke="rgb(0,0,0)"/> <text x="305" y="472" fill="rgb(0,0,0)" stroke="rgb(0,0,0)">A</text>
<line style="fill:none;stroke-width:1" stroke="rgb(0,0,0)" x1="284" y1="407" x2="294" y2="367"/> <circle style="stroke-width:1" cx="284" cy="407" r="12" fill="rgb(255,255,255)" stroke="rgb(0,0,0)"/> <text x="276" y="415" fill="rgb(0,0,0)" stroke="rgb(0,0,0)">G</text>
<line style="fill:none;stroke-width:1" stroke="rgb(0,0,0)" x1="294" y1="367" x2="280" y2="339"/> <circle style="stroke-width:1" cx="294" cy="367" r="12" fill="rgb(255,255,255)" stroke="rgb(0,0,0)"/> <text x="286" y="375" fill="rgb(0,0,0)" stroke="rgb(0,0,0)">A</text>
<line style="fill:none;stroke-width:1" stroke="rgb(0,0,0)" x1="280" y1="339" x2="266" y2="311"/> <circle style="stroke-width:1" cx="280" cy="339" r="12" fill="rgb(255,255,255)" stroke="rgb(0,0,0)"/> <text x="272" y="347" fill="rgb(0,0,0)" stroke="rgb(0,0,0)">G</text>
<line style="fill:none;stroke-width:1" stroke="rgb(0,0,0)" x1="266" y1="311" x2="201" y2="295"/> <circle style="stroke-width:1" cx="266" cy="311" r="12" fill="rgb(255,255,255)" stroke="rgb(0,0,0)"/> <text x="258" y="319" fill="rgb(0,0,0)" stroke="rgb(0,0,0)">G</text>
<line style="fill:none;stroke-width:1" stroke="rgb(0,0,0)" x1="201" y1="295" x2="156" y2="216"/> <circle style="stroke-width:1" cx="201" cy="295" r="12" fill="rgb(255,255,255)" stroke="rgb(0,0,0)"/> <text x="193" y="303" fill="rgb(0,0,0)" stroke="rgb(0,0,0)">C</text>
<line style="fill:none;stroke-width:1" stroke="rgb(0,0,0)" x1="156" y1="216" x2="176" y2="150"/> <circle style="stroke-width:1" cx="156" cy="216" r="12" fill="rgb(255,255,255)" stroke="rgb(0,0,0)"/> <text x="148" y="224" fill="rgb(0,0,0)" stroke="rgb(0,0,0)">G</text>
<line style="fill:none;stroke-width:1" stroke="rgb(0,0,0)" x1="176" y1="150" x2="160" y2="123"/> <line style="fill:none;stroke-width:1" stroke="rgb(0,0,0)" x1="176" y1="150" x2="81" y2="208"/> <rect x="66" y="196" width="30" height="24" fill="rgb(255,255,255)" stroke="rgb(255,255,255)"/> <text x="66" y="216" fill="rgb(0,0,0)" stroke="rgb(0,0,0)">30</text> <circle style="stroke-width:1" cx="176" cy="150" r="12" fill="rgb(255,255,255)" stroke="rgb(0,0,0)"/> <text x="168" y="158" fill="rgb(0,0,0)" stroke="rgb(0,0,0)">G</text>
<line style="fill:none;stroke-width:1" stroke="rgb(0,0,0)" x1="160" y1="123" x2="130" y2="96"/> <circle style="stroke-width:1" cx="160" cy="123" r="12" fill="rgb(255,255,255)" stroke="rgb(0,0,0)"/> <text x="152" y="131" fill="rgb(0,0,0)" stroke="rgb(0,0,0)">A</text>
<line style="fill:none;stroke-width:1" stroke="rgb(0,0,0)" x1="130" y1="96" x2="129" y2="56"/> <circle style="stroke-width:1" cx="130" cy="96" r="12" fill="rgb(255,255,255)" stroke="rgb(0,0,0)"/> <text x="122" y="104" fill="rgb(0,0,0)" stroke="rgb(0,0,0)">A</text>
<line style="fill:none;stroke-width:1" stroke="rgb(0,0,0)" x1="129" y1="56" x2="162" y2="36"/> <circle style="stroke-width:1" cx="129" cy="56" r="12" fill="rgb(255,255,255)" stroke="rgb(0,0,0)"/> <text x="121" y="64" fill="rgb(0,0,0)" stroke="rgb(0,0,0)">U</text>
<line style="fill:none;stroke-width:1" stroke="rgb(0,0,0)" x1="162" y1="36" x2="197" y2="55"/> <circle style="stroke-width:1" cx="162" cy="36" r="12" fill="rgb(255,255,255)" stroke="rgb(0,0,0)"/> <text x="154" y="44" fill="rgb(0,0,0)" stroke="rgb(0,0,0)">G</text>
<line style="fill:none;stroke-width:1" stroke="rgb(0,0,0)" x1="197" y1="55" x2="207" y2="95"/> <circle style="stroke-width:1" cx="197" cy="55" r="12" fill="rgb(255,255,255)" stroke="rgb(0,0,0)"/> <text x="189" y="63" fill="rgb(0,0,0)" stroke="rgb(0,0,0)">U</text>
<line style="fill:none;stroke-width:1" stroke="rgb(0,0,0)" x1="207" y1="95" x2="223" y2="122"/> <circle style="stroke-width:1" cx="207" cy="95" r="12" fill="rgb(255,255,255)" stroke="rgb(0,0,0)"/> <text x="199" y="103" fill="rgb(0,0,0)" stroke="rgb(0,0,0)">U</text>
<line style="fill:none;stroke-width:1" stroke="rgb(0,0,0)" x1="223" y1="122" x2="258" y2="124"/> <circle style="stroke-width:1" cx="223" cy="122" r="12" fill="rgb(255,255,255)" stroke="rgb(0,0,0)"/> <text x="215" y="130" fill="rgb(0,0,0)" stroke="rgb(0,0,0)">C</text>
<line style="fill:none;stroke-width:1" stroke="rgb(0,0,0)" x1="258" y1="124" x2="312" y2="148"/> <circle style="stroke-width:1" cx="258" cy="124" r="12" fill="rgb(255,255,255)" stroke="rgb(0,0,0)"/> <text x="250" y="132" fill="rgb(0,0,0)" stroke="rgb(0,0,0)">A</text>
<line style="fill:none;stroke-width:1" stroke="rgb(0,0,0)" x1="312" y1="148" x2="340" y2="199"/> <circle style="stroke-width:1" cx="312" cy="148" r="12" fill="rgb(255,255,255)" stroke="rgb(0,0,0)"/> <text x="304" y="156" fill="rgb(0,0,0)" stroke="rgb(0,0,0)">A</text>
<line style="fill:none;stroke-width:1" stroke="rgb(0,0,0)" x1="340" y1="199" x2="332" y2="257"/> <line style="fill:none;stroke-width:1" stroke="rgb(0,0,0)" x1="340" y1="199" x2="450" y2="179"/> <rect x="435" y="167" width="30" height="24" fill="rgb(255,255,255)" stroke="rgb(255,255,255)"/> <text x="435" y="187" fill="rgb(0,0,0)" stroke="rgb(0,0,0)">40</text> <circle style="stroke-width:1" cx="340" cy="199" r="12" fill="rgb(255,255,255)" stroke="rgb(0,0,0)"/> <text x="332" y="207" fill="rgb(0,0,0)" stroke="rgb(0,0,0)">C</text>
<line style="fill:none;stroke-width:1" stroke="rgb(0,0,0)" x1="332" y1="257" x2="315" y2="286"/> <circle style="stroke-width:1" cx="332" cy="257" r="12" fill="rgb(255,255,255)" stroke="rgb(0,0,0)"/> <text x="324" y="265" fill="rgb(0,0,0)" stroke="rgb(0,0,0)">U</text>
<line style="fill:none;stroke-width:1" stroke="rgb(0,0,0)" x1="315" y1="286" x2="329" y2="314"/> <circle style="stroke-width:1" cx="315" cy="286" r="12" fill="rgb(255,255,255)" stroke="rgb(0,0,0)"/> <text x="307" y="294" fill="rgb(0,0,0)" stroke="rgb(0,0,0)">C</text>
<line style="fill:none;stroke-width:1" stroke="rgb(0,0,0)" x1="329" y1="314" x2="343" y2="342"/> <circle style="stroke-width:1" cx="329" cy="314" r="12" fill="rgb(255,255,255)" stroke="rgb(0,0,0)"/> <text x="321" y="322" fill="rgb(0,0,0)" stroke="rgb(0,0,0)">C</text>
<line style="fill:none;stroke-width:1" stroke="rgb(0,0,0)" x1="343" y1="342" x2="382" y2="357"/> <circle style="stroke-width:1" cx="343" cy="342" r="12" fill="rgb(255,255,255)" stroke="rgb(0,0,0)"/> <text x="335" y="350" fill="rgb(0,0,0)" stroke="rgb(0,0,0)">U</text>
<line style="fill:none;stroke-width:1" stroke="rgb(0,0,0)" x1="382" y1="357" x2="411" y2="414"/> <circle style="stroke-width:1" cx="382" cy="357" r="12" fill="rgb(255,255,255)" stroke="rgb(0,0,0)"/> <text x="374" y="365" fill="rgb(0,0,0)" stroke="rgb(0,0,0)">A</text>
<line style="fill:none;stroke-width:1" stroke="rgb(0,0,0)" x1="411" y1="414" x2="400" y2="454"/> <circle style="stroke-width:1" cx="411" cy="414" r="12" fill="rgb(255,255,255)" stroke="rgb(0,0,0)"/> <text x="403" y="422" fill="rgb(0,0,0)" stroke="rgb(0,0,0)">A</text>
<line style="fill:none;stroke-width:1" stroke="rgb(0,0,0)" x1="400" y1="454" x2="414" y2="482"/> <circle style="stroke-width:1" cx="400" cy="454" r="12" fill="rgb(255,255,255)" stroke="rgb(0,0,0)"/> <text x="392" y="462" fill="rgb(0,0,0)" stroke="rgb(0,0,0)">C</text>
<line style="fill:none;stroke-width:1" stroke="rgb(0,0,0)" x1="414" y1="482" x2="428" y2="510"/> <circle style="stroke-width:1" cx="414" cy="482" r="12" fill="rgb(255,255,255)" stroke="rgb(0,0,0)"/> <text x="406" y="490" fill="rgb(0,0,0)" stroke="rgb(0,0,0)">U</text>
<line style="fill:none;stroke-width:1" stroke="rgb(0,0,0)" x1="428" y1="510" x2="442" y2="538"/> <circle style="stroke-width:1" cx="428" cy="510" r="12" fill="rgb(255,255,255)" stroke="rgb(0,0,0)"/> <text x="420" y="518" fill="rgb(0,0,0)" stroke="rgb(0,0,0)">G</text>
<line style="fill:none;stroke-width:1" stroke="rgb(0,0,0)" x1="442" y1="538" x2="456" y2="566"/> <line style="fill:none;stroke-width:1" stroke="rgb(0,0,0)" x1="442" y1="538" x2="541" y2="488"/> <rect x="526" y="476" width="30" height="24" fill="rgb(255,255,255)" stroke="rgb(255,255,255)"/> <text x="526" y="496" fill="rgb(0,0,0)" stroke="rgb(0,0,0)">50</text> <circle style="stroke-width:1" cx="442" cy="538" r="12" fill="rgb(255,255,255)" stroke="rgb(0,0,0)"/> <text x="434" y="546" fill="rgb(0,0,0)" stroke="rgb(0,0,0)">C</text>
<line style="fill:none;stroke-width:1" stroke="rgb(0,0,0)" x1="456" y1="566" x2="495" y2="601"/> <circle style="stroke-width:1" cx="456" cy="566" r="12" fill="rgb(255,255,255)" stroke="rgb(0,0,0)"/> <text x="448" y="574" fill="rgb(0,0,0)" stroke="rgb(0,0,0)">A</text>
<line style="fill:none;stroke-width:1" stroke="rgb(0,0,0)" x1="495" y1="601" x2="497" y2="652"/> <circle style="stroke-width:1" cx="495" cy="601" r="12" fill="rgb(255,255,255)" stroke="rgb(0,0,0)"/> <text x="487" y="609" fill="rgb(0,0,0)" stroke="rgb(0,0,0)">G</text>
<line style="fill:none;stroke-width:1" stroke="rgb(0,0,0)" x1="497" y1="652" x2="510" y2="680"/> <circle style="stroke-width:1" cx="497" cy="652" r="12" fill="rgb(255,255,255)" stroke="rgb(0,0,0)"/> <text x="489" y="660" fill="rgb(0,0,0)" stroke="rgb(0,0,0)">C</text>
<line style="fill:none;stroke-width:1" stroke="rgb(0,0,0)" x1="510" y1="680" x2="523" y2="708"/> <circle style="stroke-width:1" cx="510" cy="680" r="12" fill="rgb(255,255,255)" stroke="rgb(0,0,0)"/> <text x="502" y="688" fill="rgb(0,0,0)" stroke="rgb(0,0,0)">G</text>
<line style="fill:none;stroke-width:1" stroke="rgb(0,0,0)" x1="523" y1="708" x2="559" y2="717"/> <circle style="stroke-width:1" cx="523" cy="708" r="12" fill="rgb(255,255,255)" stroke="rgb(0,0,0)"/> <text x="515" y="716" fill="rgb(0,0,0)" stroke="rgb(0,0,0)">G</text>
<line style="fill:none;stroke-width:1" stroke="rgb(0,0,0)" x1="559" y1="717" x2="603" y2="758"/> <circle style="stroke-width:1" cx="559" cy="717" r="12" fill="rgb(255,255,255)" stroke="rgb(0,0,0)"/> <text x="551" y="725" fill="rgb(0,0,0)" stroke="rgb(0,0,0)">A</text>
<line style="fill:none;stroke-width:1" stroke="rgb(0,0,0)" x1="603" y1="758" x2="606" y2="818"/> <circle style="stroke-width:1" cx="603" cy="758" r="12" fill="rgb(255,255,255)" stroke="rgb(0,0,0)"/> <text x="595" y="766" fill="rgb(0,0,0)" stroke="rgb(0,0,0)">A</text>
<line style="fill:none;stroke-width:1" stroke="rgb(0,0,0)" x1="606" y1="818" x2="589" y2="851"/> <circle style="stroke-width:1" cx="606" cy="818" r="12" fill="rgb(255,255,255)" stroke="rgb(0,0,0)"/> <text x="598" y="826" fill="rgb(0,0,0)" stroke="rgb(0,0,0)">A</text>
<line style="fill:none;stroke-width:1" stroke="rgb(0,0,0)" x1="589" y1="851" x2="629" y2="935"/> <circle style="stroke-width:1" cx="589" cy="851" r="12" fill="rgb(255,255,255)" stroke="rgb(0,0,0)"/> <text x="581" y="859" fill="rgb(0,0,0)" stroke="rgb(0,0,0)">C</text>
<line style="fill:none;stroke-width:1" stroke="rgb(0,0,0)" x1="629" y1="935" x2="643" y2="963"/> <line style="fill:none;stroke-width:1" stroke="rgb(0,0,0)" x1="629" y1="935" x2="728" y2="885"/> <rect x="713" y="873" width="30" height="24" fill="rgb(255,255,255)" stroke="rgb(255,255,255)"/> <text x="713" y="893" fill="rgb(0,0,0)" stroke="rgb(0,0,0)">60</text> <circle style="stroke-width:1" cx="629" cy="935" r="12" fill="rgb(255,255,255)" stroke="rgb(0,0,0)"/> <text x="621" y="943" fill="rgb(0,0,0)" stroke="rgb(0,0,0)">G</text>
<line style="fill:none;stroke-width:1" stroke="rgb(0,0,0)" x1="643" y1="963" x2="657" y2="991"/> <circle style="stroke-width:1" cx="643" cy="963" r="12" fill="rgb(255,255,255)" stroke="rgb(0,0,0)"/> <text x="635" y="971" fill="rgb(0,0,0)" stroke="rgb(0,0,0)">U</text>
<line style="fill:none;stroke-width:1" stroke="rgb(0,0,0)" x1="657" y1="991" x2="671" y2="1019"/> <circle style="stroke-width:1" cx="657" cy="991" r="12" fill="rgb(255,255,255)" stroke="rgb(0,0,0)"/> <text x="649" y="999" fill="rgb(0,0,0)" stroke="rgb(0,0,0)">G</text>
<line style="fill:none;stroke-width:1" stroke="rgb(0,0,0)" x1="671" y1="1019" x2="685" y2="1047"/> <circle style="stroke-width:1" cx="671" cy="1019" r="12" fill="rgb(255,255,255)" stroke="rgb(0,0,0)"/> <text x="663" y="1027" fill="rgb(0,0,0)" stroke="rgb(0,0,0)">G</text>
<line style="fill:none;stroke-width:1" stroke="rgb(0,0,0)" x1="685" y1="1047" x2="797" y2="1157"/> <circle style="stroke-width:1" cx="685" cy="1047" r="12" fill="rgb(255,255,255)" stroke="rgb(0,0,0)"/> <text x="677" y="1055" fill="rgb(0,0,0)" stroke="rgb(0,0,0)">G</text>
<line style="fill:none;stroke-width:1" stroke="rgb(0,0,0)" x1="797" y1="1157" x2="762" y2="1254"/> <circle style="stroke-width:1" cx="797" cy="1157" r="12" fill="rgb(255,255,255)" stroke="rgb(0,0,0)"/> <text x="789" y="1165" fill="rgb(0,0,0)" stroke="rgb(0,0,0)">A</text>
<line style="fill:none;stroke-width:1" stroke="rgb(0,0,0)" x1="762" y1="1254" x2="783" y2="1277"/> <circle style="stroke-width:1" cx="762" cy="1254" r="12" fill="rgb(255,255,255)" stroke="rgb(0,0,0)"/> <text x="754" y="1262" fill="rgb(0,0,0)" stroke="rgb(0,0,0)">G</text>
<line style="fill:none;stroke-width:1" stroke="rgb(0,0,0)" x1="783" y1="1277" x2="804" y2="1300"/> <circle style="stroke-width:1" cx="783" cy="1277" r="12" fill="rgb(255,255,255)" stroke="rgb(0,0,0)"/> <text x="775" y="1285" fill="rgb(0,0,0)" stroke="rgb(0,0,0)">C</text>
<line style="fill:none;stroke-width:1" stroke="rgb(0,0,0)" x1="804" y1="1300" x2="841" y2="1314"/> <circle style="stroke-width:1" cx="804" cy="1300" r="12" fill="rgb(255,255,255)" stroke="rgb(0,0,0)"/> <text x="796" y="1308" fill="rgb(0,0,0)" stroke="rgb(0,0,0)">C</text>
<line style="fill:none;stroke-width:1" stroke="rgb(0,0,0)" x1="841" y1="1314" x2="861" y2="1349"/> <circle style="stroke-width:1" cx="841" cy="1314" r="12" fill="rgb(255,255,255)" stroke="rgb(0,0,0)"/> <text x="833" y="1322" fill="rgb(0,0,0)" stroke="rgb(0,0,0)">G</text>
<line style="fill:none;stroke-width:1" stroke="rgb(0,0,0)" x1="861" y1="1349" x2="846" y2="1386"/> <line style="fill:none;stroke-width:1" stroke="rgb(0,0,0)" x1="861" y1="1349" x2="972" y2="1341"/> <rect x="957" y="1329" width="30" height="24" fill="rgb(255,255,255)" stroke="rgb(255,255,255)"/> <text x="957" y="1349" fill="rgb(0,0,0)" stroke="rgb(0,0,0)">70</text> <circle style="stroke-width:1" cx="861" cy="1349" r="12" fill="rgb(255,255,255)" stroke="rgb(0,0,0)"/> <text x="853" y="1357" fill="rgb(0,0,0)" stroke="rgb(0,0,0)">C</text>
<line style="fill:none;stroke-width:1" stroke="rgb(0,0,0)" x1="846" y1="1386" x2="808" y2="1398"/> <circle style="stroke-width:1" cx="846" cy="1386" r="12" fill="rgb(255,255,255)" stroke="rgb(0,0,0)"/> <text x="838" y="1394" fill="rgb(0,0,0)" stroke="rgb(0,0,0)">G</text>
<line style="fill:none;stroke-width:1" stroke="rgb(0,0,0)" x1="808" y1="1398" x2="774" y2="1375"/> <circle style="stroke-width:1" cx="808" cy="1398" r="12" fill="rgb(255,255,255)" stroke="rgb(0,0,0)"/> <text x="800" y="1406" fill="rgb(0,0,0)" stroke="rgb(0,0,0)">C</text>
<line style="fill:none;stroke-width:1" stroke="rgb(0,0,0)" x1="774" y1="1375" x2="764" y2="1337"/> <circle style="stroke-width:1" cx="774" cy="1375" r="12" fill="rgb(255,255,255)" stroke="rgb(0,0,0)"/> <text x="766" y="1383" fill="rgb(0,0,0)" stroke="rgb(0,0,0)">G</text>
<line style="fill:none;stroke-width:1" stroke="rgb(0,0,0)" x1="764" y1="1337" x2="743" y2="1314"/> <circle style="stroke-width:1" cx="764" cy="1337" r="12" fill="rgb(255,255,255)" stroke="rgb(0,0,0)"/> <text x="756" y="1345" fill="rgb(0,0,0)" stroke="rgb(0,0,0)">G</text>
<line style="fill:none;stroke-width:1" stroke="rgb(0,0,0)" x1="743" y1="1314" x2="722" y2="1291"/> <circle style="stroke-width:1" cx="743" cy="1314" r="12" fill="rgb(255,255,255)" stroke="rgb(0,0,0)"/> <text x="735" y="1322" fill="rgb(0,0,0)" stroke="rgb(0,0,0)">G</text>
<line style="fill:none;stroke-width:1" stroke="rgb(0,0,0)" x1="722" y1="1291" x2="740" y2="1270"/> <circle style="stroke-width:1" cx="722" cy="1291" r="12" fill="rgb(255,255,255)" stroke="rgb(0,0,0)"/> <text x="714" y="1299" fill="rgb(0,0,0)" stroke="rgb(0,0,0)">C</text>
<line style="fill:none;stroke-width:1" stroke="rgb(0,0,0)" x1="740" y1="1270" x2="727" y2="1276"/> <circle style="stroke-width:1" cx="740" cy="1270" r="12" fill="rgb(255,255,255)" stroke="rgb(0,0,0)"/> <text x="732" y="1278" fill="rgb(0,0,0)" stroke="rgb(0,0,0)">C</text>
<line style="fill:none;stroke-width:1" stroke="rgb(0,0,0)" x1="727" y1="1276" x2="714" y2="1280"/> <circle style="stroke-width:1" cx="727" cy="1276" r="12" fill="rgb(255,255,255)" stroke="rgb(0,0,0)"/> <text x="719" y="1284" fill="rgb(0,0,0)" stroke="rgb(0,0,0)">G</text>
<line style="fill:none;stroke-width:1" stroke="rgb(0,0,0)" x1="714" y1="1280" x2="700" y2="1283"/> <circle style="stroke-width:1" cx="714" cy="1280" r="12" fill="rgb(255,255,255)" stroke="rgb(0,0,0)"/> <text x="706" y="1288" fill="rgb(0,0,0)" stroke="rgb(0,0,0)">C</text>
<line style="fill:none;stroke-width:1" stroke="rgb(0,0,0)" x1="700" y1="1283" x2="713" y2="1394"/> <rect x="698" y="1382" width="30" height="24" fill="rgb(255,255,255)" stroke="rgb(255,255,255)"/> <text x="698" y="1402" fill="rgb(0,0,0)" stroke="rgb(0,0,0)">80</text> <circle style="stroke-width:1" cx="700" cy="1283" r="12" fill="rgb(255,255,255)" stroke="rgb(0,0,0)"/> <text x="692" y="1291" fill="rgb(0,0,0)" stroke="rgb(0,0,0)">U</text>
</g>
<g font-size="16">
<text x="36" y="892" fill="rgb(0,0,0)" stroke="rgb(0,0,0)">ENERGY = -24.9  ENST00000338983.7</text>
</g>
</svg>
