<?xml version="1.0" encoding="UTF-8" standalone="no"?>
<!DOCTYPE svg PUBLIC "-//W3C//DTD SVG 1.1//EN" "http://www.w3.org/Graphics/SVG/1.1/DTD/svg11.dtd">
<svg xmlns="http://www.w3.org/2000/svg" xmlns:xlink="http://www.w3.org/1999/xlink" xml:space="preserve" font-family="monospace" font-size="24" fill="rgb(255,255,255)" stroke="rgb(0,0,0)" viewBox="0 0 790 905">
<g transform="scale(0.586924)">
<path style="fill:none;stroke-width:3" stroke="rgb(0,0,0)" d="M409,847 Q393,825 377,803"/>
<path style="fill:none;stroke-width:3" stroke="rgb(0,0,0)" d="M384,865 Q368,843 352,821"/>
<path style="fill:none;stroke-width:3" stroke="rgb(0,0,0)" d="M359,883 Q343,861 327,839"/>
<path style="fill:none;stroke-width:3" stroke="rgb(0,0,0)" d="M334,901 Q318,879 302,857"/>
<path style="fill:none;stroke-width:3" stroke="rgb(0,0,0)" d="M309,919 Q293,897 277,875"/>
<path style="fill:none;stroke-width:3" stroke="rgb(0,0,0)" d="M284,937 Q268,915 252,893"/>
<path style="fill:none;stroke-width:3" stroke="rgb(0,0,0)" d="M150,1027 Q136,1003.5 122,980"/>
<path style="fill:none;stroke-width:3" stroke="rgb(0,0,0)" d="M123,1043 Q109,1019.5 95,996"/>
<path style="fill:none;stroke-width:3" stroke="rgb(0,0,0)" d="M576,720 Q593,741.5 610,763"/>
<path style="fill:none;stroke-width:3" stroke="rgb(0,0,0)" d="M600,701 Q617,722.5 634,744"/>
<path style="fill:none;stroke-width:3" stroke="rgb(0,0,0)" d="M624,682 Q641,703.5 658,725"/>
<path style="fill:none;stroke-width:3" stroke="rgb(0,0,0)" d="M648,663 Q665,684.5 682,706"/>
<path style="fill:none;stroke-width:3" stroke="rgb(0,0,0)" d="M871,480 Q889,501 907,522"/>
<path style="fill:none;stroke-width:3" stroke="rgb(0,0,0)" d="M895,460 Q913,481 931,502"/>
<path style="fill:none;stroke-width:3" stroke="rgb(0,0,0)" d="M919,440 Q937,461 955,482"/>
<path style="fill:none;stroke-width:3" stroke="rgb(0,0,0)" d="M1112,282 Q1129,303.5 1146,325"/>
<path style="fill:none;stroke-width:3" stroke="rgb(0,0,0)" d="M1136,263 Q1153,284.5 1170,306"/>
<path style="fill:none;stroke-width:3" stroke="rgb(0,0,0)" d="M1160,244 Q1177,265.5 1194,287"/>
<path style="fill:none;stroke-width:3" stroke="rgb(0,0,0)" d="M1184,225 Q1201,246.5 1218,268"/>
<line style="fill:none;stroke-width:1" stroke="rgb(0,0,0)" x1="409" y1="847" x2="384" y2="865"/> <circle style="stroke-width:1" cx="409" cy="847" r="12" fill="rgb(255,255,255)" stroke="rgb(0,0,0)"/> <text x="401" y="855" fill="rgb(0,0,0)" stroke="rgb(0,0,0)">C</text>
<line style="fill:none;stroke-width:1" stroke="rgb(0,0,0)" x1="384" y1="865" x2="359" y2="883"/> <circle style="stroke-width:1" cx="384" cy="865" r="12" fill="rgb(255,255,255)" stroke="rgb(0,0,0)"/> <text x="376" y="873" fill="rgb(0,0,0)" stroke="rgb(0,0,0)">C</text>
<line style="fill:none;stroke-width:1" stroke="rgb(0,0,0)" x1="359" y1="883" x2="334" y2="901"/> <circle style="stroke-width:1" cx="359" cy="883" r="12" fill="rgb(255,255,255)" stroke="rgb(0,0,0)"/> <text x="351" y="891" fill="rgb(0,0,0)" stroke="rgb(0,0,0)">U</text>
<line style="fill:none;stroke-width:1" stroke="rgb(0,0,0)" x1="334" y1="901" x2="309" y2="919"/> <circle style="stroke-width:1" cx="334" cy="901" r="12" fill="rgb(255,255,255)" stroke="rgb(0,0,0)"/> <text x="326" y="909" fill="rgb(0,0,0)" stroke="rgb(0,0,0)">C</text>
<line style="fill:none;stroke-width:1" stroke="rgb(0,0,0)" x1="309" y1="919" x2="284" y2="937"/> <circle style="stroke-width:1" cx="309" cy="919" r="12" fill="rgb(255,255,255)" stroke="rgb(0,0,0)"/> <text x="301" y="927" fill="rgb(0,0,0)" stroke="rgb(0,0,0)">G</text>
<line style="fill:none;stroke-width:1" stroke="rgb(0,0,0)" x1="284" y1="937" x2="282" y2="976"/> <circle style="stroke-width:1" cx="284" cy="937" r="12" fill="rgb(255,255,255)" stroke="rgb(0,0,0)"/> <text x="276" y="945" fill="rgb(0,0,0)" stroke="rgb(0,0,0)">G</text>
<line style="fill:none;stroke-width:1" stroke="rgb(0,0,0)" x1="282" y1="976" x2="248" y2="1029"/> <circle style="stroke-width:1" cx="282" cy="976" r="12" fill="rgb(255,255,255)" stroke="rgb(0,0,0)"/> <text x="274" y="984" fill="rgb(0,0,0)" stroke="rgb(0,0,0)">G</text>
<line style="fill:none;stroke-width:1" stroke="rgb(0,0,0)" x1="248" y1="1029" x2="185" y2="1041"/> <circle style="stroke-width:1" cx="248" cy="1029" r="12" fill="rgb(255,255,255)" stroke="rgb(0,0,0)"/> <text x="240" y="1037" fill="rgb(0,0,0)" stroke="rgb(0,0,0)">U</text>
<line style="fill:none;stroke-width:1" stroke="rgb(0,0,0)" x1="185" y1="1041" x2="150" y2="1027"/> <circle style="stroke-width:1" cx="185" cy="1041" r="12" fill="rgb(255,255,255)" stroke="rgb(0,0,0)"/> <text x="177" y="1049" fill="rgb(0,0,0)" stroke="rgb(0,0,0)">A</text>
<line style="fill:none;stroke-width:1" stroke="rgb(0,0,0)" x1="150" y1="1027" x2="123" y2="1043"/> <line style="fill:none;stroke-width:1" stroke="rgb(0,0,0)" x1="150" y1="1027" x2="208" y2="1122"/> <rect x="193" y="1110" width="30" height="24" fill="rgb(255,255,255)" stroke="rgb(255,255,255)"/> <text x="193" y="1130" fill="rgb(0,0,0)" stroke="rgb(0,0,0)">10</text> <circle style="stroke-width:1" cx="150" cy="1027" r="12" fill="rgb(255,255,255)" stroke="rgb(0,0,0)"/> <text x="142" y="1035" fill="rgb(0,0,0)" stroke="rgb(0,0,0)">G</text>
<line style="fill:none;stroke-width:1" stroke="rgb(0,0,0)" x1="123" y1="1043" x2="96" y2="1073"/> <circle style="stroke-width:1" cx="123" cy="1043" r="12" fill="rgb(255,255,255)" stroke="rgb(0,0,0)"/> <text x="115" y="1051" fill="rgb(0,0,0)" stroke="rgb(0,0,0)">C</text>
<line style="fill:none;stroke-width:1" stroke="rgb(0,0,0)" x1="96" y1="1073" x2="56" y2="1074"/> <circle style="stroke-width:1" cx="96" cy="1073" r="12" fill="rgb(255,255,255)" stroke="rgb(0,0,0)"/> <text x="88" y="1081" fill="rgb(0,0,0)" stroke="rgb(0,0,0)">G</text>
<line style="fill:none;stroke-width:1" stroke="rgb(0,0,0)" x1="56" y1="1074" x2="36" y2="1041"/> <circle style="stroke-width:1" cx="56" cy="1074" r="12" fill="rgb(255,255,255)" stroke="rgb(0,0,0)"/> <text x="48" y="1082" fill="rgb(0,0,0)" stroke="rgb(0,0,0)">U</text>
<line style="fill:none;stroke-width:1" stroke="rgb(0,0,0)" x1="36" y1="1041" x2="55" y2="1006"/> <circle style="stroke-width:1" cx="36" cy="1041" r="12" fill="rgb(255,255,255)" stroke="rgb(0,0,0)"/> <text x="28" y="1049" fill="rgb(0,0,0)" stroke="rgb(0,0,0)">C</text>
<line style="fill:none;stroke-width:1" stroke="rgb(0,0,0)" x1="55" y1="1006" x2="95" y2="996"/> <circle style="stroke-width:1" cx="55" cy="1006" r="12" fill="rgb(255,255,255)" stroke="rgb(0,0,0)"/> <text x="47" y="1014" fill="rgb(0,0,0)" stroke="rgb(0,0,0)">A</text>
<line style="fill:none;stroke-width:1" stroke="rgb(0,0,0)" x1="95" y1="996" x2="122" y2="980"/> <circle style="stroke-width:1" cx="95" cy="996" r="12" fill="rgb(255,255,255)" stroke="rgb(0,0,0)"/> <text x="87" y="1004" fill="rgb(0,0,0)" stroke="rgb(0,0,0)">G</text>
<line style="fill:none;stroke-width:1" stroke="rgb(0,0,0)" x1="122" y1="980" x2="157" y2="894"/> <circle style="stroke-width:1" cx="122" cy="980" r="12" fill="rgb(255,255,255)" stroke="rgb(0,0,0)"/> <text x="114" y="988" fill="rgb(0,0,0)" stroke="rgb(0,0,0)">C</text>
<line style="fill:none;stroke-width:1" stroke="rgb(0,0,0)" x1="157" y1="894" x2="252" y2="893"/> <circle style="stroke-width:1" cx="157" cy="894" r="12" fill="rgb(255,255,255)" stroke="rgb(0,0,0)"/> <text x="149" y="902" fill="rgb(0,0,0)" stroke="rgb(0,0,0)">A</text>
<line style="fill:none;stroke-width:1" stroke="rgb(0,0,0)" x1="252" y1="893" x2="277" y2="875"/> <circle style="stroke-width:1" cx="252" cy="893" r="12" fill="rgb(255,255,255)" stroke="rgb(0,0,0)"/> <text x="244" y="901" fill="rgb(0,0,0)" stroke="rgb(0,0,0)">U</text>
<line style="fill:none;stroke-width:1" stroke="rgb(0,0,0)" x1="277" y1="875" x2="302" y2="857"/> <line style="fill:none;stroke-width:1" stroke="rgb(0,0,0)" x1="277" y1="875" x2="212" y2="785"/> <rect x="197" y="773" width="30" height="24" fill="rgb(255,255,255)" stroke="rgb(255,255,255)"/> <text x="197" y="793" fill="rgb(0,0,0)" stroke="rgb(0,0,0)">20</text> <circle style="stroke-width:1" cx="277" cy="875" r="12" fill="rgb(255,255,255)" stroke="rgb(0,0,0)"/> <text x="269" y="883" fill="rgb(0,0,0)" stroke="rgb(0,0,0)">C</text>
<line style="fill:none;stroke-width:1" stroke="rgb(0,0,0)" x1="302" y1="857" x2="327" y2="839"/> <circle style="stroke-width:1" cx="302" cy="857" r="12" fill="rgb(255,255,255)" stroke="rgb(0,0,0)"/> <text x="294" y="865" fill="rgb(0,0,0)" stroke="rgb(0,0,0)">G</text>
<line style="fill:none;stroke-width:1" stroke="rgb(0,0,0)" x1="327" y1="839" x2="352" y2="821"/> <circle style="stroke-width:1" cx="327" cy="839" r="12" fill="rgb(255,255,255)" stroke="rgb(0,0,0)"/> <text x="319" y="847" fill="rgb(0,0,0)" stroke="rgb(0,0,0)">A</text>
<line style="fill:none;stroke-width:1" stroke="rgb(0,0,0)" x1="352" y1="821" x2="377" y2="803"/> <circle style="stroke-width:1" cx="352" cy="821" r="12" fill="rgb(255,255,255)" stroke="rgb(0,0,0)"/> <text x="344" y="829" fill="rgb(0,0,0)" stroke="rgb(0,0,0)">G</text>
<line style="fill:none;stroke-width:1" stroke="rgb(0,0,0)" x1="377" y1="803" x2="479" y2="680"/> <circle style="stroke-width:1" cx="377" cy="803" r="12" fill="rgb(255,255,255)" stroke="rgb(0,0,0)"/> <text x="369" y="811" fill="rgb(0,0,0)" stroke="rgb(0,0,0)">G</text>
<line style="fill:none;stroke-width:1" stroke="rgb(0,0,0)" x1="479" y1="680" x2="576" y2="720"/> <circle style="stroke-width:1" cx="479" cy="680" r="12" fill="rgb(255,255,255)" stroke="rgb(0,0,0)"/> <text x="471" y="688" fill="rgb(0,0,0)" stroke="rgb(0,0,0)">A</text>
<line style="fill:none;stroke-width:1" stroke="rgb(0,0,0)" x1="576" y1="720" x2="600" y2="701"/> <circle style="stroke-width:1" cx="576" cy="720" r="12" fill="rgb(255,255,255)" stroke="rgb(0,0,0)"/> <text x="568" y="728" fill="rgb(0,0,0)" stroke="rgb(0,0,0)">G</text>
<line style="fill:none;stroke-width:1" stroke="rgb(0,0,0)" x1="600" y1="701" x2="624" y2="682"/> <circle style="stroke-width:1" cx="600" cy="701" r="12" fill="rgb(255,255,255)" stroke="rgb(0,0,0)"/> <text x="592" y="709" fill="rgb(0,0,0)" stroke="rgb(0,0,0)">A</text>
<line style="fill:none;stroke-width:1" stroke="rgb(0,0,0)" x1="624" y1="682" x2="648" y2="663"/> <circle style="stroke-width:1" cx="624" cy="682" r="12" fill="rgb(255,255,255)" stroke="rgb(0,0,0)"/> <text x="616" y="690" fill="rgb(0,0,0)" stroke="rgb(0,0,0)">U</text>
<line style="fill:none;stroke-width:1" stroke="rgb(0,0,0)" x1="648" y1="663" x2="637" y2="628"/> <circle style="stroke-width:1" cx="648" cy="663" r="12" fill="rgb(255,255,255)" stroke="rgb(0,0,0)"/> <text x="640" y="671" fill="rgb(0,0,0)" stroke="rgb(0,0,0)">C</text>
<line style="fill:none;stroke-width:1" stroke="rgb(0,0,0)" x1="637" y1="628" x2="637" y2="565"/> <line style="fill:none;stroke-width:1" stroke="rgb(0,0,0)" x1="637" y1="628" x2="528" y2="652"/> <rect x="513" y="640" width="30" height="24" fill="rgb(255,255,255)" stroke="rgb(255,255,255)"/> <text x="513" y="660" fill="rgb(0,0,0)" stroke="rgb(0,0,0)">30</text> <circle style="stroke-width:1" cx="637" cy="628" r="12" fill="rgb(255,255,255)" stroke="rgb(0,0,0)"/> <text x="629" y="636" fill="rgb(0,0,0)" stroke="rgb(0,0,0)">G</text>
<line style="fill:none;stroke-width:1" stroke="rgb(0,0,0)" x1="637" y1="565" x2="664" y2="507"/> <circle style="stroke-width:1" cx="637" cy="565" r="12" fill="rgb(255,255,255)" stroke="rgb(0,0,0)"/> <text x="629" y="573" fill="rgb(0,0,0)" stroke="rgb(0,0,0)">A</text>
<line style="fill:none;stroke-width:1" stroke="rgb(0,0,0)" x1="664" y1="507" x2="713" y2="467"/> <circle style="stroke-width:1" cx="664" cy="507" r="12" fill="rgb(255,255,255)" stroke="rgb(0,0,0)"/> <text x="656" y="515" fill="rgb(0,0,0)" stroke="rgb(0,0,0)">C</text>
<line style="fill:none;stroke-width:1" stroke="rgb(0,0,0)" x1="713" y1="467" x2="775" y2="452"/> <circle style="stroke-width:1" cx="713" cy="467" r="12" fill="rgb(255,255,255)" stroke="rgb(0,0,0)"/> <text x="705" y="475" fill="rgb(0,0,0)" stroke="rgb(0,0,0)">C</text>
<line style="fill:none;stroke-width:1" stroke="rgb(0,0,0)" x1="775" y1="452" x2="837" y2="464"/> <circle style="stroke-width:1" cx="775" cy="452" r="12" fill="rgb(255,255,255)" stroke="rgb(0,0,0)"/> <text x="767" y="460" fill="rgb(0,0,0)" stroke="rgb(0,0,0)">U</text>
<line style="fill:none;stroke-width:1" stroke="rgb(0,0,0)" x1="837" y1="464" x2="871" y2="480"/> <circle style="stroke-width:1" cx="837" cy="464" r="12" fill="rgb(255,255,255)" stroke="rgb(0,0,0)"/> <text x="829" y="472" fill="rgb(0,0,0)" stroke="rgb(0,0,0)">G</text>
<line style="fill:none;stroke-width:1" stroke="rgb(0,0,0)" x1="871" y1="480" x2="895" y2="460"/> <circle style="stroke-width:1" cx="871" cy="480" r="12" fill="rgb(255,255,255)" stroke="rgb(0,0,0)"/> <text x="863" y="488" fill="rgb(0,0,0)" stroke="rgb(0,0,0)">G</text>
<line style="fill:none;stroke-width:1" stroke="rgb(0,0,0)" x1="895" y1="460" x2="919" y2="440"/> <circle style="stroke-width:1" cx="895" cy="460" r="12" fill="rgb(255,255,255)" stroke="rgb(0,0,0)"/> <text x="887" y="468" fill="rgb(0,0,0)" stroke="rgb(0,0,0)">A</text>
<line style="fill:none;stroke-width:1" stroke="rgb(0,0,0)" x1="919" y1="440" x2="910" y2="412"/> <circle style="stroke-width:1" cx="919" cy="440" r="12" fill="rgb(255,255,255)" stroke="rgb(0,0,0)"/> <text x="911" y="448" fill="rgb(0,0,0)" stroke="rgb(0,0,0)">G</text>
<line style="fill:none;stroke-width:1" stroke="rgb(0,0,0)" x1="910" y1="412" x2="909" y2="355"/> <circle style="stroke-width:1" cx="910" cy="412" r="12" fill="rgb(255,255,255)" stroke="rgb(0,0,0)"/> <text x="902" y="420" fill="rgb(0,0,0)" stroke="rgb(0,0,0)">G</text>
<line style="fill:none;stroke-width:1" stroke="rgb(0,0,0)" x1="909" y1="355" x2="933" y2="304"/> <line style="fill:none;stroke-width:1" stroke="rgb(0,0,0)" x1="909" y1="355" x2="800" y2="333"/> <rect x="785" y="321" width="30" height="24" fill="rgb(255,255,255)" stroke="rgb(255,255,255)"/> <text x="785" y="341" fill="rgb(0,0,0)" stroke="rgb(0,0,0)">40</text> <circle style="stroke-width:1" cx="909" cy="355" r="12" fill="rgb(255,255,255)" stroke="rgb(0,0,0)"/> <text x="901" y="363" fill="rgb(0,0,0)" stroke="rgb(0,0,0)">G</text>
<line style="fill:none;stroke-width:1" stroke="rgb(0,0,0)" x1="933" y1="304" x2="976" y2="268"/> <circle style="stroke-width:1" cx="933" cy="304" r="12" fill="rgb(255,255,255)" stroke="rgb(0,0,0)"/> <text x="925" y="312" fill="rgb(0,0,0)" stroke="rgb(0,0,0)">C</text>
<line style="fill:none;stroke-width:1" stroke="rgb(0,0,0)" x1="976" y1="268" x2="1031" y2="255"/> <circle style="stroke-width:1" cx="976" cy="268" r="12" fill="rgb(255,255,255)" stroke="rgb(0,0,0)"/> <text x="968" y="276" fill="rgb(0,0,0)" stroke="rgb(0,0,0)">A</text>
<line style="fill:none;stroke-width:1" stroke="rgb(0,0,0)" x1="1031" y1="255" x2="1086" y2="268"/> <circle style="stroke-width:1" cx="1031" cy="255" r="12" fill="rgb(255,255,255)" stroke="rgb(0,0,0)"/> <text x="1023" y="263" fill="rgb(0,0,0)" stroke="rgb(0,0,0)">A</text>
<line style="fill:none;stroke-width:1" stroke="rgb(0,0,0)" x1="1086" y1="268" x2="1112" y2="282"/> <circle style="stroke-width:1" cx="1086" cy="268" r="12" fill="rgb(255,255,255)" stroke="rgb(0,0,0)"/> <text x="1078" y="276" fill="rgb(0,0,0)" stroke="rgb(0,0,0)">G</text>
<line style="fill:none;stroke-width:1" stroke="rgb(0,0,0)" x1="1112" y1="282" x2="1136" y2="263"/> <circle style="stroke-width:1" cx="1112" cy="282" r="12" fill="rgb(255,255,255)" stroke="rgb(0,0,0)"/> <text x="1104" y="290" fill="rgb(0,0,0)" stroke="rgb(0,0,0)">U</text>
<line style="fill:none;stroke-width:1" stroke="rgb(0,0,0)" x1="1136" y1="263" x2="1160" y2="244"/> <circle style="stroke-width:1" cx="1136" cy="263" r="12" fill="rgb(255,255,255)" stroke="rgb(0,0,0)"/> <text x="1128" y="271" fill="rgb(0,0,0)" stroke="rgb(0,0,0)">U</text>
<line style="fill:none;stroke-width:1" stroke="rgb(0,0,0)" x1="1160" y1="244" x2="1184" y2="225"/> <circle style="stroke-width:1" cx="1160" cy="244" r="12" fill="rgb(255,255,255)" stroke="rgb(0,0,0)"/> <text x="1152" y="252" fill="rgb(0,0,0)" stroke="rgb(0,0,0)">U</text>
<line style="fill:none;stroke-width:1" stroke="rgb(0,0,0)" x1="1184" y1="225" x2="1192" y2="188"/> <circle style="stroke-width:1" cx="1184" cy="225" r="12" fill="rgb(255,255,255)" stroke="rgb(0,0,0)"/> <text x="1176" y="233" fill="rgb(0,0,0)" stroke="rgb(0,0,0)">G</text>
<line style="fill:none;stroke-width:1" stroke="rgb(0,0,0)" x1="1192" y1="188" x2="1219" y2="158"/> <circle style="stroke-width:1" cx="1192" cy="188" r="12" fill="rgb(255,255,255)" stroke="rgb(0,0,0)"/> <text x="1184" y="196" fill="rgb(0,0,0)" stroke="rgb(0,0,0)">U</text>
<line style="fill:none;stroke-width:1" stroke="rgb(0,0,0)" x1="1219" y1="158" x2="1259" y2="152"/> <line style="fill:none;stroke-width:1" stroke="rgb(0,0,0)" x1="1219" y1="158" x2="1166" y2="60"/> <rect x="1151" y="48" width="30" height="24" fill="rgb(255,255,255)" stroke="rgb(255,255,255)"/> <text x="1151" y="68" fill="rgb(0,0,0)" stroke="rgb(0,0,0)">50</text> <circle style="stroke-width:1" cx="1219" cy="158" r="12" fill="rgb(255,255,255)" stroke="rgb(0,0,0)"/> <text x="1211" y="166" fill="rgb(0,0,0)" stroke="rgb(0,0,0)">G</text>
<line style="fill:none;stroke-width:1" stroke="rgb(0,0,0)" x1="1259" y1="152" x2="1294" y2="174"/> <circle style="stroke-width:1" cx="1259" cy="152" r="12" fill="rgb(255,255,255)" stroke="rgb(0,0,0)"/> <text x="1251" y="160" fill="rgb(0,0,0)" stroke="rgb(0,0,0)">C</text>
<line style="fill:none;stroke-width:1" stroke="rgb(0,0,0)" x1="1294" y1="174" x2="1307" y2="212"/> <circle style="stroke-width:1" cx="1294" cy="174" r="12" fill="rgb(255,255,255)" stroke="rgb(0,0,0)"/> <text x="1286" y="182" fill="rgb(0,0,0)" stroke="rgb(0,0,0)">A</text>
<line style="fill:none;stroke-width:1" stroke="rgb(0,0,0)" x1="1307" y1="212" x2="1292" y2="250"/> <circle style="stroke-width:1" cx="1307" cy="212" r="12" fill="rgb(255,255,255)" stroke="rgb(0,0,0)"/> <text x="1299" y="220" fill="rgb(0,0,0)" stroke="rgb(0,0,0)">G</text>
<line style="fill:none;stroke-width:1" stroke="rgb(0,0,0)" x1="1292" y1="250" x2="1256" y2="269"/> <circle style="stroke-width:1" cx="1292" cy="250" r="12" fill="rgb(255,255,255)" stroke="rgb(0,0,0)"/> <text x="1284" y="258" fill="rgb(0,0,0)" stroke="rgb(0,0,0)">C</text>
<line style="fill:none;stroke-width:1" stroke="rgb(0,0,0)" x1="1256" y1="269" x2="1218" y2="268"/> <circle style="stroke-width:1" cx="1256" cy="269" r="12" fill="rgb(255,255,255)" stroke="rgb(0,0,0)"/> <text x="1248" y="277" fill="rgb(0,0,0)" stroke="rgb(0,0,0)">U</text>
<line style="fill:none;stroke-width:1" stroke="rgb(0,0,0)" x1="1218" y1="268" x2="1194" y2="287"/> <circle style="stroke-width:1" cx="1218" cy="268" r="12" fill="rgb(255,255,255)" stroke="rgb(0,0,0)"/> <text x="1210" y="276" fill="rgb(0,0,0)" stroke="rgb(0,0,0)">C</text>
<line style="fill:none;stroke-width:1" stroke="rgb(0,0,0)" x1="1194" y1="287" x2="1170" y2="306"/> <circle style="stroke-width:1" cx="1194" cy="287" r="12" fill="rgb(255,255,255)" stroke="rgb(0,0,0)"/> <text x="1186" y="295" fill="rgb(0,0,0)" stroke="rgb(0,0,0)">A</text>
<line style="fill:none;stroke-width:1" stroke="rgb(0,0,0)" x1="1170" y1="306" x2="1146" y2="325"/> <circle style="stroke-width:1" cx="1170" cy="306" r="12" fill="rgb(255,255,255)" stroke="rgb(0,0,0)"/> <text x="1162" y="314" fill="rgb(0,0,0)" stroke="rgb(0,0,0)">A</text>
<line style="fill:none;stroke-width:1" stroke="rgb(0,0,0)" x1="1146" y1="325" x2="1155" y2="362"/> <circle style="stroke-width:1" cx="1146" cy="325" r="12" fill="rgb(255,255,255)" stroke="rgb(0,0,0)"/> <text x="1138" y="333" fill="rgb(0,0,0)" stroke="rgb(0,0,0)">G</text>
<line style="fill:none;stroke-width:1" stroke="rgb(0,0,0)" x1="1155" y1="362" x2="1149" y2="425"/> <line style="fill:none;stroke-width:1" stroke="rgb(0,0,0)" x1="1155" y1="362" x2="1265" y2="346"/> <rect x="1250" y="334" width="30" height="24" fill="rgb(255,255,255)" stroke="rgb(255,255,255)"/> <text x="1250" y="354" fill="rgb(0,0,0)" stroke="rgb(0,0,0)">60</text> <circle style="stroke-width:1" cx="1155" cy="362" r="12" fill="rgb(255,255,255)" stroke="rgb(0,0,0)"/> <text x="1147" y="370" fill="rgb(0,0,0)" stroke="rgb(0,0,0)">A</text>
<line style="fill:none;stroke-width:1" stroke="rgb(0,0,0)" x1="1149" y1="425" x2="1111" y2="477"/> <circle style="stroke-width:1" cx="1149" cy="425" r="12" fill="rgb(255,255,255)" stroke="rgb(0,0,0)"/> <text x="1141" y="433" fill="rgb(0,0,0)" stroke="rgb(0,0,0)">A</text>
<line style="fill:none;stroke-width:1" stroke="rgb(0,0,0)" x1="1111" y1="477" x2="1053" y2="504"/> <circle style="stroke-width:1" cx="1111" cy="477" r="12" fill="rgb(255,255,255)" stroke="rgb(0,0,0)"/> <text x="1103" y="485" fill="rgb(0,0,0)" stroke="rgb(0,0,0)">C</text>
<line style="fill:none;stroke-width:1" stroke="rgb(0,0,0)" x1="1053" y1="504" x2="989" y2="498"/> <circle style="stroke-width:1" cx="1053" cy="504" r="12" fill="rgb(255,255,255)" stroke="rgb(0,0,0)"/> <text x="1045" y="512" fill="rgb(0,0,0)" stroke="rgb(0,0,0)">A</text>
<line style="fill:none;stroke-width:1" stroke="rgb(0,0,0)" x1="989" y1="498" x2="955" y2="482"/> <circle style="stroke-width:1" cx="989" cy="498" r="12" fill="rgb(255,255,255)" stroke="rgb(0,0,0)"/> <text x="981" y="506" fill="rgb(0,0,0)" stroke="rgb(0,0,0)">A</text>
<line style="fill:none;stroke-width:1" stroke="rgb(0,0,0)" x1="955" y1="482" x2="931" y2="502"/> <circle style="stroke-width:1" cx="955" cy="482" r="12" fill="rgb(255,255,255)" stroke="rgb(0,0,0)"/> <text x="947" y="490" fill="rgb(0,0,0)" stroke="rgb(0,0,0)">C</text>
<line style="fill:none;stroke-width:1" stroke="rgb(0,0,0)" x1="931" y1="502" x2="907" y2="522"/> <circle style="stroke-width:1" cx="931" cy="502" r="12" fill="rgb(255,255,255)" stroke="rgb(0,0,0)"/> <text x="923" y="510" fill="rgb(0,0,0)" stroke="rgb(0,0,0)">U</text>
<line style="fill:none;stroke-width:1" stroke="rgb(0,0,0)" x1="907" y1="522" x2="916" y2="552"/> <circle style="stroke-width:1" cx="907" cy="522" r="12" fill="rgb(255,255,255)" stroke="rgb(0,0,0)"/> <text x="899" y="530" fill="rgb(0,0,0)" stroke="rgb(0,0,0)">C</text>
<line style="fill:none;stroke-width:1" stroke="rgb(0,0,0)" x1="916" y1="552" x2="922" y2="609"/> <circle style="stroke-width:1" cx="916" cy="552" r="12" fill="rgb(255,255,255)" stroke="rgb(0,0,0)"/> <text x="908" y="560" fill="rgb(0,0,0)" stroke="rgb(0,0,0)">G</text>
<line style="fill:none;stroke-width:1" stroke="rgb(0,0,0)" x1="922" y1="609" x2="906" y2="663"/> <circle style="stroke-width:1" cx="922" cy="609" r="12" fill="rgb(255,255,255)" stroke="rgb(0,0,0)"/> <text x="914" y="617" fill="rgb(0,0,0)" stroke="rgb(0,0,0)">G</text>
<line style="fill:none;stroke-width:1" stroke="rgb(0,0,0)" x1="906" y1="663" x2="870" y2="707"/> <line style="fill:none;stroke-width:1" stroke="rgb(0,0,0)" x1="906" y1="663" x2="1005" y2="715"/> <rect x="990" y="703" width="30" height="24" fill="rgb(255,255,255)" stroke="rgb(255,255,255)"/> <text x="990" y="723" fill="rgb(0,0,0)" stroke="rgb(0,0,0)">70</text> <circle style="stroke-width:1" cx="906" cy="663" r="12" fill="rgb(255,255,255)" stroke="rgb(0,0,0)"/> <text x="898" y="671" fill="rgb(0,0,0)" stroke="rgb(0,0,0)">A</text>
<line style="fill:none;stroke-width:1" stroke="rgb(0,0,0)" x1="870" y1="707" x2="819" y2="734"/> <circle style="stroke-width:1" cx="870" cy="707" r="12" fill="rgb(255,255,255)" stroke="rgb(0,0,0)"/> <text x="862" y="715" fill="rgb(0,0,0)" stroke="rgb(0,0,0)">C</text>
<line style="fill:none;stroke-width:1" stroke="rgb(0,0,0)" x1="819" y1="734" x2="762" y2="739"/> <circle style="stroke-width:1" cx="819" cy="734" r="12" fill="rgb(255,255,255)" stroke="rgb(0,0,0)"/> <text x="811" y="742" fill="rgb(0,0,0)" stroke="rgb(0,0,0)">A</text>
<line style="fill:none;stroke-width:1" stroke="rgb(0,0,0)" x1="762" y1="739" x2="708" y2="722"/> <circle style="stroke-width:1" cx="762" cy="739" r="12" fill="rgb(255,255,255)" stroke="rgb(0,0,0)"/> <text x="754" y="747" fill="rgb(0,0,0)" stroke="rgb(0,0,0)">A</text>
<line style="fill:none;stroke-width:1" stroke="rgb(0,0,0)" x1="708" y1="722" x2="682" y2="706"/> <circle style="stroke-width:1" cx="708" cy="722" r="12" fill="rgb(255,255,255)" stroke="rgb(0,0,0)"/> <text x="700" y="730" fill="rgb(0,0,0)" stroke="rgb(0,0,0)">G</text>
<line style="fill:none;stroke-width:1" stroke="rgb(0,0,0)" x1="682" y1="706" x2="658" y2="725"/> <circle style="stroke-width:1" cx="682" cy="706" r="12" fill="rgb(255,255,255)" stroke="rgb(0,0,0)"/> <text x="674" y="714" fill="rgb(0,0,0)" stroke="rgb(0,0,0)">G</text>
<line style="fill:none;stroke-width:1" stroke="rgb(0,0,0)" x1="658" y1="725" x2="634" y2="744"/> <circle style="stroke-width:1" cx="658" cy="725" r="12" fill="rgb(255,255,255)" stroke="rgb(0,0,0)"/> <text x="650" y="733" fill="rgb(0,0,0)" stroke="rgb(0,0,0)">A</text>
<line style="fill:none;stroke-width:1" stroke="rgb(0,0,0)" x1="634" y1="744" x2="610" y2="763"/> <circle style="stroke-width:1" cx="634" cy="744" r="12" fill="rgb(255,255,255)" stroke="rgb(0,0,0)"/> <text x="626" y="752" fill="rgb(0,0,0)" stroke="rgb(0,0,0)">U</text>
<line style="fill:none;stroke-width:1" stroke="rgb(0,0,0)" x1="610" y1="763" x2="588" y2="831"/> <circle style="stroke-width:1" cx="610" cy="763" r="12" fill="rgb(255,255,255)" stroke="rgb(0,0,0)"/> <text x="602" y="771" fill="rgb(0,0,0)" stroke="rgb(0,0,0)">C</text>
<line style="fill:none;stroke-width:1" stroke="rgb(0,0,0)" x1="588" y1="831" x2="549" y2="874"/> <circle style="stroke-width:1" cx="588" cy="831" r="12" fill="rgb(255,255,255)" stroke="rgb(0,0,0)"/> <text x="580" y="839" fill="rgb(0,0,0)" stroke="rgb(0,0,0)">A</text>
<line style="fill:none;stroke-width:1" stroke="rgb(0,0,0)" x1="549" y1="874" x2="608" y2="968"/> <rect x="593" y="956" width="30" height="24" fill="rgb(255,255,255)" stroke="rgb(255,255,255)"/> <text x="593" y="976" fill="rgb(0,0,0)" stroke="rgb(0,0,0)">80</text> <circle style="stroke-width:1" cx="549" cy="874" r="12" fill="rgb(255,255,255)" stroke="rgb(0,0,0)"/> <text x="541" y="882" fill="rgb(0,0,0)" stroke="rgb(0,0,0)">G</text>
</g>
<g font-size="16">
<text x="36" y="892" fill="rgb(0,0,0)" stroke="rgb(0,0,0)">ENERGY = -18.6  ENST00000532465.1</text>
</g>
</svg>
