<?xml version="1.0" encoding="utf-8" standalone="no"?>
<!DOCTYPE svg PUBLIC "-//W3C//DTD SVG 1.1//EN"
  "http://www.w3.org/Graphics/SVG/1.1/DTD/svg11.dtd">
<svg xmlns:xlink="http://www.w3.org/1999/xlink" width="1000.358125pt" height="388.844525pt" viewBox="0 0 1000.358125 388.844525" xmlns="http://www.w3.org/2000/svg" version="1.1">
 <metadata>
  <rdf:RDF xmlns:dc="http://purl.org/dc/elements/1.1/" xmlns:cc="http://creativecommons.org/ns#" xmlns:rdf="http://www.w3.org/1999/02/22-rdf-syntax-ns#">
   <cc:Work>
    <dc:type rdf:resource="http://purl.org/dc/dcmitype/StillImage"/>
    <dc:date>2026-03-23T21:33:11.921159</dc:date>
    <dc:format>image/svg+xml</dc:format>
    <dc:creator>
     <cc:Agent>
      <dc:title>Matplotlib v3.8.1, https://matplotlib.org/</dc:title>
     </cc:Agent>
    </dc:creator>
   </cc:Work>
  </rdf:RDF>
 </metadata>
 <defs>
  <style type="text/css">*{stroke-linejoin: round; stroke-linecap: butt}</style>
 </defs>
 <g id="figure_1">
  <g id="axes_1">
   <g id="patch_1">
    <path d="M 32.968125 353.2239 
L 993.158125 353.2239 
L 993.158125 35.2559 
L 32.968125 35.2559 
z
" style="fill: #ffffff"/>
   </g>
   <g id="patch_2">
    <path d="M 32.968125 -918.6481 
L 993.158125 -918.6481 
L 993.158125 -6006.1361 
L 32.968125 -6006.1361 
z
" clip-path="url(#p5d422650a7)" style="fill: #e6c3c3"/>
   </g>
   <g id="patch_3">
    <path d="M 32.968125 35.2559 
L 993.158125 35.2559 
L 993.158125 -918.6481 
L 32.968125 -918.6481 
z
" clip-path="url(#p5d422650a7)" style="fill: #e6dcc3"/>
   </g>
   <g id="patch_4">
    <path d="M 32.968125 353.2239 
L 993.158125 353.2239 
L 993.158125 35.2559 
L 32.968125 35.2559 
z
" clip-path="url(#p5d422650a7)" style="fill: #c3e6c3"/>
   </g>
   <g id="matplotlib.axis_1">
    <g id="xtick_1">
     <g id="text_1">
      <!-- 0 -->
      <g transform="translate(30.423125 366.30265) scale(0.08 -0.08)">
       <defs>
        <path id="DejaVuSans-30" d="M 2034 4250 
Q 1547 4250 1301 3770 
Q 1056 3291 1056 2328 
Q 1056 1369 1301 889 
Q 1547 409 2034 409 
Q 2525 409 2770 889 
Q 3016 1369 3016 2328 
Q 3016 3291 2770 3770 
Q 2525 4250 2034 4250 
z
M 2034 4750 
Q 2819 4750 3233 4129 
Q 3647 3509 3647 2328 
Q 3647 1150 3233 529 
Q 2819 -91 2034 -91 
Q 1250 -91 836 529 
Q 422 1150 422 2328 
Q 422 3509 836 4129 
Q 1250 4750 2034 4750 
z
" transform="scale(0.015625)"/>
       </defs>
       <use xlink:href="#DejaVuSans-30"/>
      </g>
     </g>
    </g>
    <g id="xtick_2">
     <g id="text_2">
      <!-- 10 -->
      <g transform="translate(182.997673 366.30265) scale(0.08 -0.08)">
       <defs>
        <path id="DejaVuSans-31" d="M 794 531 
L 1825 531 
L 1825 4091 
L 703 3866 
L 703 4441 
L 1819 4666 
L 2450 4666 
L 2450 531 
L 3481 531 
L 3481 0 
L 794 0 
L 794 531 
z
" transform="scale(0.015625)"/>
       </defs>
       <use xlink:href="#DejaVuSans-31"/>
       <use xlink:href="#DejaVuSans-30" x="63.623047"/>
      </g>
     </g>
    </g>
    <g id="xtick_3">
     <g id="text_3">
      <!-- 20 -->
      <g transform="translate(338.11722 366.30265) scale(0.08 -0.08)">
       <defs>
        <path id="DejaVuSans-32" d="M 1228 531 
L 3431 531 
L 3431 0 
L 469 0 
L 469 531 
Q 828 903 1448 1529 
Q 2069 2156 2228 2338 
Q 2531 2678 2651 2914 
Q 2772 3150 2772 3378 
Q 2772 3750 2511 3984 
Q 2250 4219 1831 4219 
Q 1534 4219 1204 4116 
Q 875 4013 500 3803 
L 500 4441 
Q 881 4594 1212 4672 
Q 1544 4750 1819 4750 
Q 2544 4750 2975 4387 
Q 3406 4025 3406 3419 
Q 3406 3131 3298 2873 
Q 3191 2616 2906 2266 
Q 2828 2175 2409 1742 
Q 1991 1309 1228 531 
z
" transform="scale(0.015625)"/>
       </defs>
       <use xlink:href="#DejaVuSans-32"/>
       <use xlink:href="#DejaVuSans-30" x="63.623047"/>
      </g>
     </g>
    </g>
    <g id="xtick_4">
     <g id="text_4">
      <!-- 30 -->
      <g transform="translate(493.236768 366.30265) scale(0.08 -0.08)">
       <defs>
        <path id="DejaVuSans-33" d="M 2597 2516 
Q 3050 2419 3304 2112 
Q 3559 1806 3559 1356 
Q 3559 666 3084 287 
Q 2609 -91 1734 -91 
Q 1441 -91 1130 -33 
Q 819 25 488 141 
L 488 750 
Q 750 597 1062 519 
Q 1375 441 1716 441 
Q 2309 441 2620 675 
Q 2931 909 2931 1356 
Q 2931 1769 2642 2001 
Q 2353 2234 1838 2234 
L 1294 2234 
L 1294 2753 
L 1863 2753 
Q 2328 2753 2575 2939 
Q 2822 3125 2822 3475 
Q 2822 3834 2567 4026 
Q 2313 4219 1838 4219 
Q 1578 4219 1281 4162 
Q 984 4106 628 3988 
L 628 4550 
Q 988 4650 1302 4700 
Q 1616 4750 1894 4750 
Q 2613 4750 3031 4423 
Q 3450 4097 3450 3541 
Q 3450 3153 3228 2886 
Q 3006 2619 2597 2516 
z
" transform="scale(0.015625)"/>
       </defs>
       <use xlink:href="#DejaVuSans-33"/>
       <use xlink:href="#DejaVuSans-30" x="63.623047"/>
      </g>
     </g>
    </g>
    <g id="xtick_5">
     <g id="text_5">
      <!-- 40 -->
      <g transform="translate(648.356316 366.30265) scale(0.08 -0.08)">
       <defs>
        <path id="DejaVuSans-34" d="M 2419 4116 
L 825 1625 
L 2419 1625 
L 2419 4116 
z
M 2253 4666 
L 3047 4666 
L 3047 1625 
L 3713 1625 
L 3713 1100 
L 3047 1100 
L 3047 0 
L 2419 0 
L 2419 1100 
L 313 1100 
L 313 1709 
L 2253 4666 
z
" transform="scale(0.015625)"/>
       </defs>
       <use xlink:href="#DejaVuSans-34"/>
       <use xlink:href="#DejaVuSans-30" x="63.623047"/>
      </g>
     </g>
    </g>
    <g id="xtick_6">
     <g id="text_6">
      <!-- 50 -->
      <g transform="translate(803.475863 366.30265) scale(0.08 -0.08)">
       <defs>
        <path id="DejaVuSans-35" d="M 691 4666 
L 3169 4666 
L 3169 4134 
L 1269 4134 
L 1269 2991 
Q 1406 3038 1543 3061 
Q 1681 3084 1819 3084 
Q 2600 3084 3056 2656 
Q 3513 2228 3513 1497 
Q 3513 744 3044 326 
Q 2575 -91 1722 -91 
Q 1428 -91 1123 -41 
Q 819 9 494 109 
L 494 744 
Q 775 591 1075 516 
Q 1375 441 1709 441 
Q 2250 441 2565 725 
Q 2881 1009 2881 1497 
Q 2881 1984 2565 2268 
Q 2250 2553 1709 2553 
Q 1456 2553 1204 2497 
Q 953 2441 691 2322 
L 691 4666 
z
" transform="scale(0.015625)"/>
       </defs>
       <use xlink:href="#DejaVuSans-35"/>
       <use xlink:href="#DejaVuSans-30" x="63.623047"/>
      </g>
     </g>
    </g>
    <g id="xtick_7">
     <g id="text_7">
      <!-- 60 -->
      <g transform="translate(958.595411 366.30265) scale(0.08 -0.08)">
       <defs>
        <path id="DejaVuSans-36" d="M 2113 2584 
Q 1688 2584 1439 2293 
Q 1191 2003 1191 1497 
Q 1191 994 1439 701 
Q 1688 409 2113 409 
Q 2538 409 2786 701 
Q 3034 994 3034 1497 
Q 3034 2003 2786 2293 
Q 2538 2584 2113 2584 
z
M 3366 4563 
L 3366 3988 
Q 3128 4100 2886 4159 
Q 2644 4219 2406 4219 
Q 1781 4219 1451 3797 
Q 1122 3375 1075 2522 
Q 1259 2794 1537 2939 
Q 1816 3084 2150 3084 
Q 2853 3084 3261 2657 
Q 3669 2231 3669 1497 
Q 3669 778 3244 343 
Q 2819 -91 2113 -91 
Q 1303 -91 875 529 
Q 447 1150 447 2328 
Q 447 3434 972 4092 
Q 1497 4750 2381 4750 
Q 2619 4750 2861 4703 
Q 3103 4656 3366 4563 
z
" transform="scale(0.015625)"/>
       </defs>
       <use xlink:href="#DejaVuSans-36"/>
       <use xlink:href="#DejaVuSans-30" x="63.623047"/>
      </g>
     </g>
    </g>
    <g id="text_8">
     <!-- Position in Read (bp) -->
     <g transform="translate(461.46 379.564837) scale(0.1 -0.1)">
      <defs>
       <path id="DejaVuSans-50" d="M 1259 4147 
L 1259 2394 
L 2053 2394 
Q 2494 2394 2734 2622 
Q 2975 2850 2975 3272 
Q 2975 3691 2734 3919 
Q 2494 4147 2053 4147 
L 1259 4147 
z
M 628 4666 
L 2053 4666 
Q 2838 4666 3239 4311 
Q 3641 3956 3641 3272 
Q 3641 2581 3239 2228 
Q 2838 1875 2053 1875 
L 1259 1875 
L 1259 0 
L 628 0 
L 628 4666 
z
" transform="scale(0.015625)"/>
       <path id="DejaVuSans-6f" d="M 1959 3097 
Q 1497 3097 1228 2736 
Q 959 2375 959 1747 
Q 959 1119 1226 758 
Q 1494 397 1959 397 
Q 2419 397 2687 759 
Q 2956 1122 2956 1747 
Q 2956 2369 2687 2733 
Q 2419 3097 1959 3097 
z
M 1959 3584 
Q 2709 3584 3137 3096 
Q 3566 2609 3566 1747 
Q 3566 888 3137 398 
Q 2709 -91 1959 -91 
Q 1206 -91 779 398 
Q 353 888 353 1747 
Q 353 2609 779 3096 
Q 1206 3584 1959 3584 
z
" transform="scale(0.015625)"/>
       <path id="DejaVuSans-73" d="M 2834 3397 
L 2834 2853 
Q 2591 2978 2328 3040 
Q 2066 3103 1784 3103 
Q 1356 3103 1142 2972 
Q 928 2841 928 2578 
Q 928 2378 1081 2264 
Q 1234 2150 1697 2047 
L 1894 2003 
Q 2506 1872 2764 1633 
Q 3022 1394 3022 966 
Q 3022 478 2636 193 
Q 2250 -91 1575 -91 
Q 1294 -91 989 -36 
Q 684 19 347 128 
L 347 722 
Q 666 556 975 473 
Q 1284 391 1588 391 
Q 1994 391 2212 530 
Q 2431 669 2431 922 
Q 2431 1156 2273 1281 
Q 2116 1406 1581 1522 
L 1381 1569 
Q 847 1681 609 1914 
Q 372 2147 372 2553 
Q 372 3047 722 3315 
Q 1072 3584 1716 3584 
Q 2034 3584 2315 3537 
Q 2597 3491 2834 3397 
z
" transform="scale(0.015625)"/>
       <path id="DejaVuSans-69" d="M 603 3500 
L 1178 3500 
L 1178 0 
L 603 0 
L 603 3500 
z
M 603 4863 
L 1178 4863 
L 1178 4134 
L 603 4134 
L 603 4863 
z
" transform="scale(0.015625)"/>
       <path id="DejaVuSans-74" d="M 1172 4494 
L 1172 3500 
L 2356 3500 
L 2356 3053 
L 1172 3053 
L 1172 1153 
Q 1172 725 1289 603 
Q 1406 481 1766 481 
L 2356 481 
L 2356 0 
L 1766 0 
Q 1100 0 847 248 
Q 594 497 594 1153 
L 594 3053 
L 172 3053 
L 172 3500 
L 594 3500 
L 594 4494 
L 1172 4494 
z
" transform="scale(0.015625)"/>
       <path id="DejaVuSans-6e" d="M 3513 2113 
L 3513 0 
L 2938 0 
L 2938 2094 
Q 2938 2591 2744 2837 
Q 2550 3084 2163 3084 
Q 1697 3084 1428 2787 
Q 1159 2491 1159 1978 
L 1159 0 
L 581 0 
L 581 3500 
L 1159 3500 
L 1159 2956 
Q 1366 3272 1645 3428 
Q 1925 3584 2291 3584 
Q 2894 3584 3203 3211 
Q 3513 2838 3513 2113 
z
" transform="scale(0.015625)"/>
       <path id="DejaVuSans-20" transform="scale(0.015625)"/>
       <path id="DejaVuSans-52" d="M 2841 2188 
Q 3044 2119 3236 1894 
Q 3428 1669 3622 1275 
L 4263 0 
L 3584 0 
L 2988 1197 
Q 2756 1666 2539 1819 
Q 2322 1972 1947 1972 
L 1259 1972 
L 1259 0 
L 628 0 
L 628 4666 
L 2053 4666 
Q 2853 4666 3247 4331 
Q 3641 3997 3641 3322 
Q 3641 2881 3436 2590 
Q 3231 2300 2841 2188 
z
M 1259 4147 
L 1259 2491 
L 2053 2491 
Q 2509 2491 2742 2702 
Q 2975 2913 2975 3322 
Q 2975 3731 2742 3939 
Q 2509 4147 2053 4147 
L 1259 4147 
z
" transform="scale(0.015625)"/>
       <path id="DejaVuSans-65" d="M 3597 1894 
L 3597 1613 
L 953 1613 
Q 991 1019 1311 708 
Q 1631 397 2203 397 
Q 2534 397 2845 478 
Q 3156 559 3463 722 
L 3463 178 
Q 3153 47 2828 -22 
Q 2503 -91 2169 -91 
Q 1331 -91 842 396 
Q 353 884 353 1716 
Q 353 2575 817 3079 
Q 1281 3584 2069 3584 
Q 2775 3584 3186 3129 
Q 3597 2675 3597 1894 
z
M 3022 2063 
Q 3016 2534 2758 2815 
Q 2500 3097 2075 3097 
Q 1594 3097 1305 2825 
Q 1016 2553 972 2059 
L 3022 2063 
z
" transform="scale(0.015625)"/>
       <path id="DejaVuSans-61" d="M 2194 1759 
Q 1497 1759 1228 1600 
Q 959 1441 959 1056 
Q 959 750 1161 570 
Q 1363 391 1709 391 
Q 2188 391 2477 730 
Q 2766 1069 2766 1631 
L 2766 1759 
L 2194 1759 
z
M 3341 1997 
L 3341 0 
L 2766 0 
L 2766 531 
Q 2569 213 2275 61 
Q 1981 -91 1556 -91 
Q 1019 -91 701 211 
Q 384 513 384 1019 
Q 384 1609 779 1909 
Q 1175 2209 1959 2209 
L 2766 2209 
L 2766 2266 
Q 2766 2663 2505 2880 
Q 2244 3097 1772 3097 
Q 1472 3097 1187 3025 
Q 903 2953 641 2809 
L 641 3341 
Q 956 3463 1253 3523 
Q 1550 3584 1831 3584 
Q 2591 3584 2966 3190 
Q 3341 2797 3341 1997 
z
" transform="scale(0.015625)"/>
       <path id="DejaVuSans-64" d="M 2906 2969 
L 2906 4863 
L 3481 4863 
L 3481 0 
L 2906 0 
L 2906 525 
Q 2725 213 2448 61 
Q 2172 -91 1784 -91 
Q 1150 -91 751 415 
Q 353 922 353 1747 
Q 353 2572 751 3078 
Q 1150 3584 1784 3584 
Q 2172 3584 2448 3432 
Q 2725 3281 2906 2969 
z
M 947 1747 
Q 947 1113 1208 752 
Q 1469 391 1925 391 
Q 2381 391 2643 752 
Q 2906 1113 2906 1747 
Q 2906 2381 2643 2742 
Q 2381 3103 1925 3103 
Q 1469 3103 1208 2742 
Q 947 2381 947 1747 
z
" transform="scale(0.015625)"/>
       <path id="DejaVuSans-28" d="M 1984 4856 
Q 1566 4138 1362 3434 
Q 1159 2731 1159 2009 
Q 1159 1288 1364 580 
Q 1569 -128 1984 -844 
L 1484 -844 
Q 1016 -109 783 600 
Q 550 1309 550 2009 
Q 550 2706 781 3412 
Q 1013 4119 1484 4856 
L 1984 4856 
z
" transform="scale(0.015625)"/>
       <path id="DejaVuSans-62" d="M 3116 1747 
Q 3116 2381 2855 2742 
Q 2594 3103 2138 3103 
Q 1681 3103 1420 2742 
Q 1159 2381 1159 1747 
Q 1159 1113 1420 752 
Q 1681 391 2138 391 
Q 2594 391 2855 752 
Q 3116 1113 3116 1747 
z
M 1159 2969 
Q 1341 3281 1617 3432 
Q 1894 3584 2278 3584 
Q 2916 3584 3314 3078 
Q 3713 2572 3713 1747 
Q 3713 922 3314 415 
Q 2916 -91 2278 -91 
Q 1894 -91 1617 61 
Q 1341 213 1159 525 
L 1159 0 
L 581 0 
L 581 4863 
L 1159 4863 
L 1159 2969 
z
" transform="scale(0.015625)"/>
       <path id="DejaVuSans-70" d="M 1159 525 
L 1159 -1331 
L 581 -1331 
L 581 3500 
L 1159 3500 
L 1159 2969 
Q 1341 3281 1617 3432 
Q 1894 3584 2278 3584 
Q 2916 3584 3314 3078 
Q 3713 2572 3713 1747 
Q 3713 922 3314 415 
Q 2916 -91 2278 -91 
Q 1894 -91 1617 61 
Q 1341 213 1159 525 
z
M 3116 1747 
Q 3116 2381 2855 2742 
Q 2594 3103 2138 3103 
Q 1681 3103 1420 2742 
Q 1159 2381 1159 1747 
Q 1159 1113 1420 752 
Q 1681 391 2138 391 
Q 2594 391 2855 752 
Q 3116 1113 3116 1747 
z
" transform="scale(0.015625)"/>
       <path id="DejaVuSans-29" d="M 513 4856 
L 1013 4856 
Q 1481 4119 1714 3412 
Q 1947 2706 1947 2009 
Q 1947 1309 1714 600 
Q 1481 -109 1013 -844 
L 513 -844 
Q 928 -128 1133 580 
Q 1338 1288 1338 2009 
Q 1338 2731 1133 3434 
Q 928 4138 513 4856 
z
" transform="scale(0.015625)"/>
      </defs>
      <use xlink:href="#DejaVuSans-50"/>
      <use xlink:href="#DejaVuSans-6f" x="56.677734"/>
      <use xlink:href="#DejaVuSans-73" x="117.859375"/>
      <use xlink:href="#DejaVuSans-69" x="169.958984"/>
      <use xlink:href="#DejaVuSans-74" x="197.742188"/>
      <use xlink:href="#DejaVuSans-69" x="236.951172"/>
      <use xlink:href="#DejaVuSans-6f" x="264.734375"/>
      <use xlink:href="#DejaVuSans-6e" x="325.916016"/>
      <use xlink:href="#DejaVuSans-20" x="389.294922"/>
      <use xlink:href="#DejaVuSans-69" x="421.082031"/>
      <use xlink:href="#DejaVuSans-6e" x="448.865234"/>
      <use xlink:href="#DejaVuSans-20" x="512.244141"/>
      <use xlink:href="#DejaVuSans-52" x="544.03125"/>
      <use xlink:href="#DejaVuSans-65" x="609.013672"/>
      <use xlink:href="#DejaVuSans-61" x="670.537109"/>
      <use xlink:href="#DejaVuSans-64" x="731.816406"/>
      <use xlink:href="#DejaVuSans-20" x="795.292969"/>
      <use xlink:href="#DejaVuSans-28" x="827.080078"/>
      <use xlink:href="#DejaVuSans-62" x="866.09375"/>
      <use xlink:href="#DejaVuSans-70" x="929.570312"/>
      <use xlink:href="#DejaVuSans-29" x="993.046875"/>
     </g>
    </g>
   </g>
   <g id="matplotlib.axis_2">
    <g id="ytick_1">
     <g id="line2d_1">
      <path d="M 32.968125 353.2239 
L 993.158125 353.2239 
" clip-path="url(#p5d422650a7)" style="fill: none; stroke: #dedede; stroke-linecap: square"/>
     </g>
     <g id="text_9">
      <!-- 0 -->
      <g transform="translate(20.878125 356.263275) scale(0.08 -0.08)">
       <use xlink:href="#DejaVuSans-30"/>
      </g>
     </g>
    </g>
    <g id="ytick_2">
     <g id="line2d_2">
      <path d="M 32.968125 289.6303 
L 993.158125 289.6303 
" clip-path="url(#p5d422650a7)" style="fill: none; stroke: #dedede; stroke-linecap: square"/>
     </g>
     <g id="text_10">
      <!-- 1 -->
      <g transform="translate(20.878125 292.669675) scale(0.08 -0.08)">
       <use xlink:href="#DejaVuSans-31"/>
      </g>
     </g>
    </g>
    <g id="ytick_3">
     <g id="line2d_3">
      <path d="M 32.968125 226.0367 
L 993.158125 226.0367 
" clip-path="url(#p5d422650a7)" style="fill: none; stroke: #dedede; stroke-linecap: square"/>
     </g>
     <g id="text_11">
      <!-- 2 -->
      <g transform="translate(20.878125 229.076075) scale(0.08 -0.08)">
       <use xlink:href="#DejaVuSans-32"/>
      </g>
     </g>
    </g>
    <g id="ytick_4">
     <g id="line2d_4">
      <path d="M 32.968125 162.4431 
L 993.158125 162.4431 
" clip-path="url(#p5d422650a7)" style="fill: none; stroke: #dedede; stroke-linecap: square"/>
     </g>
     <g id="text_12">
      <!-- 3 -->
      <g transform="translate(20.878125 165.482475) scale(0.08 -0.08)">
       <use xlink:href="#DejaVuSans-33"/>
      </g>
     </g>
    </g>
    <g id="ytick_5">
     <g id="line2d_5">
      <path d="M 32.968125 98.8495 
L 993.158125 98.8495 
" clip-path="url(#p5d422650a7)" style="fill: none; stroke: #dedede; stroke-linecap: square"/>
     </g>
     <g id="text_13">
      <!-- 4 -->
      <g transform="translate(20.878125 101.888875) scale(0.08 -0.08)">
       <use xlink:href="#DejaVuSans-34"/>
      </g>
     </g>
    </g>
    <g id="ytick_6">
     <g id="line2d_6">
      <path d="M 32.968125 35.2559 
L 993.158125 35.2559 
" clip-path="url(#p5d422650a7)" style="fill: none; stroke: #dedede; stroke-linecap: square"/>
     </g>
     <g id="text_14">
      <!-- 5 -->
      <g transform="translate(20.878125 38.295275) scale(0.08 -0.08)">
       <use xlink:href="#DejaVuSans-35"/>
      </g>
     </g>
    </g>
    <g id="text_15">
     <!-- Percentage N-Count -->
     <g transform="translate(14.798438 244.344588) rotate(-90) scale(0.1 -0.1)">
      <defs>
       <path id="DejaVuSans-72" d="M 2631 2963 
Q 2534 3019 2420 3045 
Q 2306 3072 2169 3072 
Q 1681 3072 1420 2755 
Q 1159 2438 1159 1844 
L 1159 0 
L 581 0 
L 581 3500 
L 1159 3500 
L 1159 2956 
Q 1341 3275 1631 3429 
Q 1922 3584 2338 3584 
Q 2397 3584 2469 3576 
Q 2541 3569 2628 3553 
L 2631 2963 
z
" transform="scale(0.015625)"/>
       <path id="DejaVuSans-63" d="M 3122 3366 
L 3122 2828 
Q 2878 2963 2633 3030 
Q 2388 3097 2138 3097 
Q 1578 3097 1268 2742 
Q 959 2388 959 1747 
Q 959 1106 1268 751 
Q 1578 397 2138 397 
Q 2388 397 2633 464 
Q 2878 531 3122 666 
L 3122 134 
Q 2881 22 2623 -34 
Q 2366 -91 2075 -91 
Q 1284 -91 818 406 
Q 353 903 353 1747 
Q 353 2603 823 3093 
Q 1294 3584 2113 3584 
Q 2378 3584 2631 3529 
Q 2884 3475 3122 3366 
z
" transform="scale(0.015625)"/>
       <path id="DejaVuSans-67" d="M 2906 1791 
Q 2906 2416 2648 2759 
Q 2391 3103 1925 3103 
Q 1463 3103 1205 2759 
Q 947 2416 947 1791 
Q 947 1169 1205 825 
Q 1463 481 1925 481 
Q 2391 481 2648 825 
Q 2906 1169 2906 1791 
z
M 3481 434 
Q 3481 -459 3084 -895 
Q 2688 -1331 1869 -1331 
Q 1566 -1331 1297 -1286 
Q 1028 -1241 775 -1147 
L 775 -588 
Q 1028 -725 1275 -790 
Q 1522 -856 1778 -856 
Q 2344 -856 2625 -561 
Q 2906 -266 2906 331 
L 2906 616 
Q 2728 306 2450 153 
Q 2172 0 1784 0 
Q 1141 0 747 490 
Q 353 981 353 1791 
Q 353 2603 747 3093 
Q 1141 3584 1784 3584 
Q 2172 3584 2450 3431 
Q 2728 3278 2906 2969 
L 2906 3500 
L 3481 3500 
L 3481 434 
z
" transform="scale(0.015625)"/>
       <path id="DejaVuSans-4e" d="M 628 4666 
L 1478 4666 
L 3547 763 
L 3547 4666 
L 4159 4666 
L 4159 0 
L 3309 0 
L 1241 3903 
L 1241 0 
L 628 0 
L 628 4666 
z
" transform="scale(0.015625)"/>
       <path id="DejaVuSans-2d" d="M 313 2009 
L 1997 2009 
L 1997 1497 
L 313 1497 
L 313 2009 
z
" transform="scale(0.015625)"/>
       <path id="DejaVuSans-43" d="M 4122 4306 
L 4122 3641 
Q 3803 3938 3442 4084 
Q 3081 4231 2675 4231 
Q 1875 4231 1450 3742 
Q 1025 3253 1025 2328 
Q 1025 1406 1450 917 
Q 1875 428 2675 428 
Q 3081 428 3442 575 
Q 3803 722 4122 1019 
L 4122 359 
Q 3791 134 3420 21 
Q 3050 -91 2638 -91 
Q 1578 -91 968 557 
Q 359 1206 359 2328 
Q 359 3453 968 4101 
Q 1578 4750 2638 4750 
Q 3056 4750 3426 4639 
Q 3797 4528 4122 4306 
z
" transform="scale(0.015625)"/>
       <path id="DejaVuSans-75" d="M 544 1381 
L 544 3500 
L 1119 3500 
L 1119 1403 
Q 1119 906 1312 657 
Q 1506 409 1894 409 
Q 2359 409 2629 706 
Q 2900 1003 2900 1516 
L 2900 3500 
L 3475 3500 
L 3475 0 
L 2900 0 
L 2900 538 
Q 2691 219 2414 64 
Q 2138 -91 1772 -91 
Q 1169 -91 856 284 
Q 544 659 544 1381 
z
M 1991 3584 
L 1991 3584 
z
" transform="scale(0.015625)"/>
      </defs>
      <use xlink:href="#DejaVuSans-50"/>
      <use xlink:href="#DejaVuSans-65" x="56.677734"/>
      <use xlink:href="#DejaVuSans-72" x="118.201172"/>
      <use xlink:href="#DejaVuSans-63" x="157.064453"/>
      <use xlink:href="#DejaVuSans-65" x="212.044922"/>
      <use xlink:href="#DejaVuSans-6e" x="273.568359"/>
      <use xlink:href="#DejaVuSans-74" x="336.947266"/>
      <use xlink:href="#DejaVuSans-61" x="376.15625"/>
      <use xlink:href="#DejaVuSans-67" x="437.435547"/>
      <use xlink:href="#DejaVuSans-65" x="500.912109"/>
      <use xlink:href="#DejaVuSans-20" x="562.435547"/>
      <use xlink:href="#DejaVuSans-4e" x="594.222656"/>
      <use xlink:href="#DejaVuSans-2d" x="669.027344"/>
      <use xlink:href="#DejaVuSans-43" x="705.111328"/>
      <use xlink:href="#DejaVuSans-6f" x="774.935547"/>
      <use xlink:href="#DejaVuSans-75" x="836.117188"/>
      <use xlink:href="#DejaVuSans-6e" x="899.496094"/>
      <use xlink:href="#DejaVuSans-74" x="962.875"/>
     </g>
    </g>
   </g>
   <g id="line2d_7">
    <path d="M 48.48008 352.930283 
L 63.992035 345.265059 
L 79.503989 353.2239 
L 95.015944 353.2239 
L 110.527899 353.2239 
L 126.039854 353.21434 
L 141.551808 353.175874 
L 157.063763 353.223217 
L 172.575718 353.2239 
L 188.087673 353.2239 
L 203.599627 353.2239 
L 219.111582 353.2239 
L 234.623537 353.2239 
L 250.135492 353.223445 
L 265.647446 353.221169 
L 281.159401 353.216161 
L 296.671356 353.2239 
L 312.183311 353.2239 
L 327.695266 353.219803 
L 343.20722 353.2239 
L 358.719175 353.2239 
L 374.23113 353.209333 
L 389.743085 353.2239 
L 405.255039 353.220258 
L 420.766994 353.2239 
L 436.278949 353.222762 
L 451.790904 353.223217 
L 467.302858 353.223672 
L 482.814813 353.223672 
L 498.326768 353.221396 
L 513.838723 353.2239 
L 529.350678 353.167225 
L 544.862632 353.223445 
L 560.374587 353.202505 
L 575.886542 353.2239 
L 591.398497 353.2239 
L 606.910451 353.2239 
L 622.422406 353.2239 
L 637.934361 353.194994 
L 653.446316 353.2239 
L 668.95827 353.221396 
L 684.470225 353.2239 
L 699.98218 353.2239 
L 715.494135 353.210471 
L 731.006089 353.2239 
L 746.518044 353.2239 
L 762.029999 353.2239 
L 777.541954 353.220713 
L 793.053909 353.2239 
L 808.565863 353.2239 
L 824.077818 353.2239 
L 839.589773 353.22003 
L 855.101728 353.2239 
L 870.613682 353.2239 
L 886.125637 353.220873 
L 901.637592 353.2239 
L 917.149547 353.2239 
" clip-path="url(#p5d422650a7)" style="fill: none; stroke: #5cb85c; stroke-linecap: square"/>
   </g>
   <g id="line2d_8">
    <path d="M 48.48008 352.930141 
L 63.992035 345.265976 
L 79.503989 353.2239 
L 95.015944 353.2239 
L 110.527899 353.2239 
L 126.039854 353.214328 
L 141.551808 353.17627 
L 157.063763 353.223216 
L 172.575718 353.2239 
L 188.087673 353.2239 
L 203.599627 353.2239 
L 219.111582 353.2239 
L 234.623537 353.2239 
L 250.135492 353.223444 
L 265.647446 353.221165 
L 281.159401 353.216152 
L 296.671356 353.2239 
L 312.183311 353.2239 
L 327.695266 353.219798 
L 343.20722 353.2239 
L 358.719175 353.2239 
L 374.23113 353.209314 
L 389.743085 353.2239 
L 405.255039 353.220254 
L 420.766994 353.2239 
L 436.278949 353.22276 
L 451.790904 353.223216 
L 467.302858 353.223672 
L 482.814813 353.223672 
L 498.326768 353.221393 
L 513.838723 353.2239 
L 529.350678 353.16715 
L 544.862632 353.223444 
L 560.374587 353.202476 
L 575.886542 353.2239 
L 591.398497 353.2239 
L 606.910451 353.2239 
L 622.422406 353.2239 
L 637.934361 353.194953 
L 653.446316 353.2239 
L 668.95827 353.221393 
L 684.470225 353.2239 
L 699.98218 353.2239 
L 715.494135 353.210451 
L 731.006089 353.2239 
L 746.518044 353.2239 
L 762.029999 353.2239 
L 777.541954 353.220708 
L 793.053909 353.2239 
L 808.565863 353.2239 
L 824.077818 353.2239 
L 839.589773 353.220012 
L 855.101728 353.2239 
L 870.613682 353.2239 
L 886.125637 353.221112 
L 901.637592 353.2239 
L 917.149547 353.2239 
" clip-path="url(#p5d422650a7)" style="fill: none; stroke: #5cb85c; stroke-linecap: square"/>
   </g>
   <g id="line2d_9">
    <path d="M 48.48008 350.66875 
L 63.992035 353.191579 
L 79.503989 353.125345 
L 95.015944 352.691975 
L 110.527899 352.779833 
L 126.039854 353.189303 
L 141.551808 353.2239 
L 157.063763 353.2239 
L 172.575718 353.2239 
L 188.087673 353.2239 
L 203.599627 353.218665 
L 219.111582 353.223445 
L 234.623537 353.2239 
L 250.135492 353.2239 
L 265.647446 353.210926 
L 281.159401 353.223445 
L 296.671356 353.2239 
L 312.183311 353.2239 
L 327.695266 353.2239 
L 343.20722 353.2239 
L 358.719175 353.2239 
L 374.23113 353.205236 
L 389.743085 353.222762 
L 405.255039 353.173371 
L 420.766994 353.217982 
L 436.278949 353.184979 
L 451.790904 353.223672 
L 467.302858 353.220031 
L 482.814813 353.217072 
L 498.326768 353.219575 
L 513.838723 353.219348 
L 529.350678 353.222762 
L 544.862632 353.218893 
L 560.374587 353.2239 
L 575.886542 353.216616 
L 591.398497 353.2239 
L 606.910451 353.2239 
L 622.422406 353.2239 
L 637.934361 353.220031 
L 653.446316 353.178833 
L 668.95827 353.196132 
L 684.470225 353.217299 
L 699.98218 353.213885 
L 715.494135 353.2239 
L 731.006089 353.199318 
L 746.518044 353.220941 
L 762.029999 353.222307 
L 777.541954 352.867228 
L 793.053909 353.20478 
L 808.565863 353.2239 
L 824.077818 353.205235 
L 839.589773 353.2239 
L 855.101728 353.216836 
L 870.613682 353.2239 
L 886.125637 353.220158 
L 901.637592 353.215315 
L 917.149547 353.212099 
" clip-path="url(#p5d422650a7)" style="fill: none; stroke: #5cb85c; stroke-linecap: square"/>
   </g>
   <g id="line2d_10">
    <path d="M 48.48008 350.669634 
L 63.992035 353.191539 
L 79.503989 353.125221 
L 95.015944 352.691761 
L 110.527899 352.779274 
L 126.039854 353.189488 
L 141.551808 353.2239 
L 157.063763 353.2239 
L 172.575718 353.2239 
L 188.087673 353.2239 
L 203.599627 353.218658 
L 219.111582 353.223444 
L 234.623537 353.2239 
L 250.135492 353.2239 
L 265.647446 353.21091 
L 281.159401 353.223444 
L 296.671356 353.2239 
L 312.183311 353.2239 
L 327.695266 353.2239 
L 343.20722 353.2239 
L 358.719175 353.2239 
L 374.23113 353.205211 
L 389.743085 353.222988 
L 405.255039 353.1733 
L 420.766994 353.218202 
L 436.278949 353.184919 
L 451.790904 353.2239 
L 467.302858 353.220024 
L 482.814813 353.217288 
L 498.326768 353.219568 
L 513.838723 353.219568 
L 529.350678 353.22276 
L 544.862632 353.219111 
L 560.374587 353.2239 
L 575.886542 353.216831 
L 591.398497 353.2239 
L 606.910451 353.2239 
L 622.422406 353.2239 
L 637.934361 353.220251 
L 653.446316 353.178734 
L 668.95827 353.196297 
L 684.470225 353.217284 
L 699.98218 353.215458 
L 715.494135 353.2239 
L 731.006089 353.20108 
L 746.518044 353.220933 
L 762.029999 353.222531 
L 777.541954 352.867777 
L 793.053909 353.209744 
L 808.565863 353.2239 
L 824.077818 353.210183 
L 839.589773 353.2239 
L 855.101728 353.220899 
L 870.613682 353.2239 
L 886.125637 353.223642 
L 901.637592 353.217225 
L 917.149547 353.2239 
" clip-path="url(#p5d422650a7)" style="fill: none; stroke: #5cb85c; stroke-linecap: square"/>
   </g>
   <g id="line2d_11">
    <path d="M 48.48008 352.93635 
L 63.992035 345.259162 
L 79.503989 353.2239 
L 95.015944 353.2239 
L 110.527899 353.2239 
L 126.039854 353.212386 
L 141.551808 353.186328 
L 157.063763 353.222688 
L 172.575718 353.2239 
L 188.087673 353.2239 
L 203.599627 353.2239 
L 219.111582 353.2239 
L 234.623537 353.2239 
L 250.135492 353.223597 
L 265.647446 353.222385 
L 281.159401 353.214204 
L 296.671356 353.2239 
L 312.183311 353.2239 
L 327.695266 353.219658 
L 343.20722 353.2239 
L 358.719175 353.2239 
L 374.23113 353.211477 
L 389.743085 353.2239 
L 405.255039 353.222082 
L 420.766994 353.2239 
L 436.278949 353.223294 
L 451.790904 353.223294 
L 467.302858 353.2239 
L 482.814813 353.223597 
L 498.326768 353.22087 
L 513.838723 353.2239 
L 529.350678 353.168147 
L 544.862632 353.223294 
L 560.374587 353.201781 
L 575.886542 353.2239 
L 591.398497 353.2239 
L 606.910451 353.2239 
L 622.422406 353.2239 
L 637.934361 353.19663 
L 653.446316 353.2239 
L 668.95827 353.221779 
L 684.470225 353.2239 
L 699.98218 353.2239 
L 715.494135 353.209053 
L 731.006089 353.2239 
L 746.518044 353.2239 
L 762.029999 353.2239 
L 777.541954 353.219658 
L 793.053909 353.2239 
L 808.565863 353.2239 
L 824.077818 353.2239 
L 839.589773 353.219658 
L 855.101728 353.223597 
L 870.613682 353.2239 
L 886.125637 353.221111 
L 901.637592 353.2239 
L 917.149547 353.2239 
" clip-path="url(#p5d422650a7)" style="fill: none; stroke: #5cb85c; stroke-linecap: square"/>
   </g>
   <g id="line2d_12">
    <path d="M 48.48008 352.936796 
L 63.992035 345.2554 
L 79.503989 353.2239 
L 95.015944 353.2239 
L 110.527899 353.2239 
L 126.039854 353.212367 
L 141.551808 353.186267 
L 157.063763 353.222686 
L 172.575718 353.2239 
L 188.087673 353.2239 
L 203.599627 353.2239 
L 219.111582 353.2239 
L 234.623537 353.2239 
L 250.135492 353.223597 
L 265.647446 353.222383 
L 281.159401 353.214188 
L 296.671356 353.2239 
L 312.183311 353.2239 
L 327.695266 353.219651 
L 343.20722 353.2239 
L 358.719175 353.2239 
L 374.23113 353.211457 
L 389.743085 353.2239 
L 405.255039 353.222079 
L 420.766994 353.2239 
L 436.278949 353.223293 
L 451.790904 353.223293 
L 467.302858 353.2239 
L 482.814813 353.223596 
L 498.326768 353.220865 
L 513.838723 353.2239 
L 529.350678 353.168357 
L 544.862632 353.223293 
L 560.374587 353.202047 
L 575.886542 353.2239 
L 591.398497 353.2239 
L 606.910451 353.2239 
L 622.422406 353.2239 
L 637.934361 353.196582 
L 653.446316 353.2239 
L 668.95827 353.221775 
L 684.470225 353.2239 
L 699.98218 353.2239 
L 715.494135 353.209329 
L 731.006089 353.2239 
L 746.518044 353.2239 
L 762.029999 353.2239 
L 777.541954 353.219953 
L 793.053909 353.2239 
L 808.565863 353.2239 
L 824.077818 353.2239 
L 839.589773 353.219635 
L 855.101728 353.223593 
L 870.613682 353.2239 
L 886.125637 353.220862 
L 901.637592 353.2239 
L 917.149547 353.2239 
" clip-path="url(#p5d422650a7)" style="fill: none; stroke: #5cb85c; stroke-linecap: square"/>
   </g>
   <g id="line2d_13">
    <path d="M 48.48008 350.679583 
L 63.992035 353.195418 
L 79.503989 353.132393 
L 95.015944 352.683646 
L 110.527899 352.772728 
L 126.039854 353.194509 
L 141.551808 353.223597 
L 157.063763 353.2239 
L 172.575718 353.2239 
L 188.087673 353.2239 
L 203.599627 353.219961 
L 219.111582 353.2239 
L 234.623537 353.2239 
L 250.135492 353.2239 
L 265.647446 353.209962 
L 281.159401 353.2239 
L 296.671356 353.223597 
L 312.183311 353.2239 
L 327.695266 353.223597 
L 343.20722 353.2239 
L 358.719175 353.223597 
L 374.23113 353.203296 
L 389.743085 353.223294 
L 405.255039 353.174511 
L 420.766994 353.219052 
L 436.278949 353.189964 
L 451.790904 353.223294 
L 467.302858 353.219052 
L 482.814813 353.21784 
L 498.326768 353.218143 
L 513.838723 353.219658 
L 529.350678 353.221476 
L 544.862632 353.218749 
L 560.374587 353.2239 
L 575.886542 353.21784 
L 591.398497 353.2239 
L 606.910451 353.2239 
L 622.422406 353.2239 
L 637.934361 353.221173 
L 653.446316 353.176026 
L 668.95827 353.196933 
L 684.470225 353.213901 
L 699.98218 353.214204 
L 715.494135 353.2239 
L 731.006089 353.205417 
L 746.518044 353.219961 
L 762.029999 353.222688 
L 777.541954 352.85332 
L 793.053909 353.209053 
L 808.565863 353.2239 
L 824.077818 353.209052 
L 839.589773 353.2239 
L 855.101728 353.21844 
L 870.613682 353.2239 
L 886.125637 353.220171 
L 901.637592 353.212844 
L 917.149547 353.217005 
" clip-path="url(#p5d422650a7)" style="fill: none; stroke: #5cb85c; stroke-linecap: square"/>
   </g>
   <g id="line2d_14">
    <path d="M 48.48008 350.682757 
L 63.992035 353.195675 
L 79.503989 353.132549 
L 95.015944 352.68338 
L 110.527899 352.77291 
L 126.039854 353.194765 
L 141.551808 353.2239 
L 157.063763 353.2239 
L 172.575718 353.2239 
L 188.087673 353.2239 
L 203.599627 353.220258 
L 219.111582 353.2239 
L 234.623537 353.2239 
L 250.135492 353.2239 
L 265.647446 353.210243 
L 281.159401 353.2239 
L 296.671356 353.2239 
L 312.183311 353.2239 
L 327.695266 353.2239 
L 343.20722 353.2239 
L 358.719175 353.2239 
L 374.23113 353.20326 
L 389.743085 353.223596 
L 405.255039 353.174422 
L 420.766994 353.219347 
L 436.278949 353.189897 
L 451.790904 353.223596 
L 467.302858 353.219042 
L 482.814813 353.218131 
L 498.326768 353.21813 
L 513.838723 353.219952 
L 529.350678 353.221471 
L 544.862632 353.219041 
L 560.374587 353.2239 
L 575.886542 353.218129 
L 591.398497 353.2239 
L 606.910451 353.2239 
L 622.422406 353.2239 
L 637.934361 353.221773 
L 653.446316 353.175894 
L 668.95827 353.19716 
L 684.470225 353.213872 
L 699.98218 353.215087 
L 715.494135 353.2239 
L 731.006089 353.206269 
L 746.518044 353.219948 
L 762.029999 353.222988 
L 777.541954 352.8535 
L 793.053909 353.211733 
L 808.565863 353.2239 
L 824.077818 353.211718 
L 839.589773 353.2239 
L 855.101728 353.220517 
L 870.613682 353.2239 
L 886.125637 353.223213 
L 901.637592 353.214526 
L 917.149547 353.2239 
" clip-path="url(#p5d422650a7)" style="fill: none; stroke: #5cb85c; stroke-linecap: square"/>
   </g>
   <g id="line2d_15">
    <path d="M 48.48008 352.938527 
L 63.992035 345.214509 
L 79.503989 353.2239 
L 95.015944 353.2239 
L 110.527899 353.2239 
L 126.039854 353.209217 
L 141.551808 353.179377 
L 157.063763 353.221295 
L 172.575718 353.2239 
L 188.087673 353.2239 
L 203.599627 353.2239 
L 219.111582 353.2239 
L 234.623537 353.2239 
L 250.135492 353.2239 
L 265.647446 353.222005 
L 281.159401 353.213243 
L 296.671356 353.2239 
L 312.183311 353.2239 
L 327.695266 353.220584 
L 343.20722 353.2239 
L 358.719175 353.2239 
L 374.23113 353.212296 
L 389.743085 353.2239 
L 405.255039 353.222005 
L 420.766994 353.2239 
L 436.278949 353.222716 
L 451.790904 353.223663 
L 467.302858 353.22319 
L 482.814813 353.2239 
L 498.326768 353.221532 
L 513.838723 353.2239 
L 529.350678 353.177246 
L 544.862632 353.223663 
L 560.374587 353.208743 
L 575.886542 353.2239 
L 591.398497 353.223663 
L 606.910451 353.2239 
L 622.422406 353.2239 
L 637.934361 353.192876 
L 653.446316 353.2239 
L 668.95827 353.221769 
L 684.470225 353.2239 
L 699.98218 353.2239 
L 715.494135 353.206138 
L 731.006089 353.2239 
L 746.518044 353.2239 
L 762.029999 353.2239 
L 777.541954 353.222479 
L 793.053909 353.2239 
L 808.565863 353.2239 
L 824.077818 353.2239 
L 839.589773 353.221768 
L 855.101728 353.2239 
L 870.613682 353.2239 
L 886.125637 353.222689 
L 901.637592 353.2239 
L 917.149547 353.2239 
" clip-path="url(#p5d422650a7)" style="fill: none; stroke: #5cb85c; stroke-linecap: square"/>
   </g>
   <g id="line2d_16">
    <path d="M 48.48008 352.938506 
L 63.992035 345.217457 
L 79.503989 353.2239 
L 95.015944 353.2239 
L 110.527899 353.2239 
L 126.039854 353.209204 
L 141.551808 353.179574 
L 157.063763 353.221293 
L 172.575718 353.2239 
L 188.087673 353.2239 
L 203.599627 353.2239 
L 219.111582 353.2239 
L 234.623537 353.2239 
L 250.135492 353.2239 
L 265.647446 353.222004 
L 281.159401 353.213233 
L 296.671356 353.2239 
L 312.183311 353.2239 
L 327.695266 353.220581 
L 343.20722 353.2239 
L 358.719175 353.2239 
L 374.23113 353.212285 
L 389.743085 353.2239 
L 405.255039 353.222004 
L 420.766994 353.2239 
L 436.278949 353.222715 
L 451.790904 353.223663 
L 467.302858 353.223189 
L 482.814813 353.2239 
L 498.326768 353.221529 
L 513.838723 353.2239 
L 529.350678 353.1772 
L 544.862632 353.223663 
L 560.374587 353.208728 
L 575.886542 353.2239 
L 591.398497 353.223663 
L 606.910451 353.2239 
L 622.422406 353.2239 
L 637.934361 353.192844 
L 653.446316 353.2239 
L 668.95827 353.221766 
L 684.470225 353.2239 
L 699.98218 353.2239 
L 715.494135 353.206118 
L 731.006089 353.2239 
L 746.518044 353.2239 
L 762.029999 353.2239 
L 777.541954 353.222477 
L 793.053909 353.2239 
L 808.565863 353.2239 
L 824.077818 353.2239 
L 839.589773 353.221997 
L 855.101728 353.2239 
L 870.613682 353.2239 
L 886.125637 353.222844 
L 901.637592 353.2239 
L 917.149547 353.2239 
" clip-path="url(#p5d422650a7)" style="fill: none; stroke: #5cb85c; stroke-linecap: square"/>
   </g>
   <g id="line2d_17">
    <path d="M 48.48008 350.691066 
L 63.992035 353.195244 
L 79.503989 353.138643 
L 95.015944 352.69294 
L 110.527899 352.789801 
L 126.039854 353.190981 
L 141.551808 353.2239 
L 157.063763 353.2239 
L 172.575718 353.2239 
L 188.087673 353.2239 
L 203.599627 353.219874 
L 219.111582 353.22319 
L 234.623537 353.2239 
L 250.135492 353.2239 
L 265.647446 353.213953 
L 281.159401 353.22319 
L 296.671356 353.2239 
L 312.183311 353.2239 
L 327.695266 353.2239 
L 343.20722 353.2239 
L 358.719175 353.2239 
L 374.23113 353.205665 
L 389.743085 353.222953 
L 405.255039 353.173693 
L 420.766994 353.218453 
L 436.278949 353.186482 
L 451.790904 353.223426 
L 467.302858 353.220584 
L 482.814813 353.217979 
L 498.326768 353.2194 
L 513.838723 353.220111 
L 529.350678 353.22319 
L 544.862632 353.219164 
L 560.374587 353.2239 
L 575.886542 353.21869 
L 591.398497 353.2239 
L 606.910451 353.2239 
L 622.422406 353.2239 
L 637.934361 353.221769 
L 653.446316 353.177482 
L 668.95827 353.195955 
L 684.470225 353.217269 
L 699.98218 353.215138 
L 715.494135 353.2239 
L 731.006089 353.203296 
L 746.518044 353.221058 
L 762.029999 353.222716 
L 777.541954 352.858234 
L 793.053909 353.210164 
L 808.565863 353.2239 
L 824.077818 353.208742 
L 839.589773 353.2239 
L 855.101728 353.218445 
L 870.613682 353.223424 
L 886.125637 353.221951 
L 901.637592 353.215733 
L 917.149547 353.215342 
" clip-path="url(#p5d422650a7)" style="fill: none; stroke: #5cb85c; stroke-linecap: square"/>
   </g>
   <g id="line2d_18">
    <path d="M 48.48008 350.690672 
L 63.992035 353.195455 
L 79.503989 353.138566 
L 95.015944 352.692697 
L 110.527899 352.789646 
L 126.039854 353.190952 
L 141.551808 353.2239 
L 157.063763 353.2239 
L 172.575718 353.2239 
L 188.087673 353.2239 
L 203.599627 353.21987 
L 219.111582 353.223189 
L 234.623537 353.2239 
L 250.135492 353.2239 
L 265.647446 353.213944 
L 281.159401 353.223189 
L 296.671356 353.2239 
L 312.183311 353.2239 
L 327.695266 353.2239 
L 343.20722 353.2239 
L 358.719175 353.2239 
L 374.23113 353.205647 
L 389.743085 353.222952 
L 405.255039 353.173879 
L 420.766994 353.218447 
L 436.278949 353.18644 
L 451.790904 353.223426 
L 467.302858 353.220581 
L 482.814813 353.217972 
L 498.326768 353.219395 
L 513.838723 353.220106 
L 529.350678 353.223189 
L 544.862632 353.219157 
L 560.374587 353.2239 
L 575.886542 353.21892 
L 591.398497 353.2239 
L 606.910451 353.2239 
L 622.422406 353.2239 
L 637.934361 353.221765 
L 653.446316 353.177644 
L 668.95827 353.196145 
L 684.470225 353.217257 
L 699.98218 353.215834 
L 715.494135 353.2239 
L 731.006089 353.203968 
L 746.518044 353.221052 
L 762.029999 353.222713 
L 777.541954 352.857885 
L 793.053909 353.212267 
L 808.565863 353.2239 
L 824.077818 353.210828 
L 839.589773 353.2239 
L 855.101728 353.22006 
L 870.613682 353.223408 
L 886.125637 353.223363 
L 901.637592 353.217293 
L 917.149547 353.2239 
" clip-path="url(#p5d422650a7)" style="fill: none; stroke: #5cb85c; stroke-linecap: square"/>
   </g>
   <g id="line2d_19">
    <path d="M 48.48008 352.924767 
L 63.992035 345.320709 
L 79.503989 353.2239 
L 95.015944 353.2239 
L 110.527899 353.2239 
L 126.039854 353.218244 
L 141.551808 353.195183 
L 157.063763 353.223465 
L 172.575718 353.2239 
L 188.087673 353.2239 
L 203.599627 353.223682 
L 219.111582 353.2239 
L 234.623537 353.2239 
L 250.135492 353.223682 
L 265.647446 353.22216 
L 281.159401 353.213893 
L 296.671356 353.2239 
L 312.183311 353.2239 
L 327.695266 353.219549 
L 343.20722 353.223682 
L 358.719175 353.2239 
L 374.23113 353.209324 
L 389.743085 353.2239 
L 405.255039 353.221942 
L 420.766994 353.2239 
L 436.278949 353.222812 
L 451.790904 353.223465 
L 467.302858 353.223465 
L 482.814813 353.223682 
L 498.326768 353.222595 
L 513.838723 353.2239 
L 529.350678 353.167119 
L 544.862632 353.223465 
L 560.374587 353.20258 
L 575.886542 353.2239 
L 591.398497 353.2239 
L 606.910451 353.2239 
L 622.422406 353.2239 
L 637.934361 353.196489 
L 653.446316 353.2239 
L 668.95827 353.221724 
L 684.470225 353.2239 
L 699.98218 353.2239 
L 715.494135 353.210412 
L 731.006089 353.2239 
L 746.518044 353.2239 
L 762.029999 353.2239 
L 777.541954 353.219766 
L 793.053909 353.2239 
L 808.565863 353.2239 
L 824.077818 353.2239 
L 839.589773 353.219331 
L 855.101728 353.223682 
L 870.613682 353.2239 
L 886.125637 353.222343 
L 901.637592 353.2239 
L 917.149547 353.2239 
" clip-path="url(#p5d422650a7)" style="fill: none; stroke: #5cb85c; stroke-linecap: square"/>
   </g>
   <g id="line2d_20">
    <path d="M 48.48008 352.924403 
L 63.992035 345.321306 
L 79.503989 353.2239 
L 95.015944 353.2239 
L 110.527899 353.2239 
L 126.039854 353.218237 
L 141.551808 353.195148 
L 157.063763 353.223464 
L 172.575718 353.2239 
L 188.087673 353.2239 
L 203.599627 353.223682 
L 219.111582 353.2239 
L 234.623537 353.2239 
L 250.135492 353.223682 
L 265.647446 353.222157 
L 281.159401 353.21388 
L 296.671356 353.2239 
L 312.183311 353.2239 
L 327.695266 353.219544 
L 343.20722 353.223682 
L 358.719175 353.2239 
L 374.23113 353.209524 
L 389.743085 353.2239 
L 405.255039 353.22194 
L 420.766994 353.2239 
L 436.278949 353.222811 
L 451.790904 353.223464 
L 467.302858 353.223464 
L 482.814813 353.223682 
L 498.326768 353.222593 
L 513.838723 353.2239 
L 529.350678 353.1677 
L 544.862632 353.223464 
L 560.374587 353.20277 
L 575.886542 353.2239 
L 591.398497 353.2239 
L 606.910451 353.2239 
L 622.422406 353.2239 
L 637.934361 353.196452 
L 653.446316 353.2239 
L 668.95827 353.221722 
L 684.470225 353.2239 
L 699.98218 353.2239 
L 715.494135 353.210611 
L 731.006089 353.2239 
L 746.518044 353.2239 
L 762.029999 353.2239 
L 777.541954 353.219978 
L 793.053909 353.2239 
L 808.565863 353.2239 
L 824.077818 353.2239 
L 839.589773 353.21931 
L 855.101728 353.22368 
L 870.613682 353.2239 
L 886.125637 353.222206 
L 901.637592 353.2239 
L 917.149547 353.2239 
" clip-path="url(#p5d422650a7)" style="fill: none; stroke: #5cb85c; stroke-linecap: square"/>
   </g>
   <g id="line2d_21">
    <path d="M 48.48008 350.448168 
L 63.992035 353.20171 
L 79.503989 353.113602 
L 95.015944 352.696992 
L 110.527899 352.763997 
L 126.039854 353.189309 
L 141.551808 353.223682 
L 157.063763 353.2239 
L 172.575718 353.2239 
L 188.087673 353.2239 
L 203.599627 353.216503 
L 219.111582 353.2239 
L 234.623537 353.2239 
L 250.135492 353.2239 
L 265.647446 353.207366 
L 281.159401 353.2239 
L 296.671356 353.223682 
L 312.183311 353.223682 
L 327.695266 353.223247 
L 343.20722 353.2239 
L 358.719175 353.223465 
L 374.23113 353.204538 
L 389.743085 353.222595 
L 405.255039 353.169077 
L 420.766994 353.217373 
L 436.278949 353.18039 
L 451.790904 353.223247 
L 467.302858 353.218461 
L 482.814813 353.216286 
L 498.326768 353.219331 
L 513.838723 353.218896 
L 529.350678 353.223247 
L 544.862632 353.218026 
L 560.374587 353.2239 
L 575.886542 353.214763 
L 591.398497 353.2239 
L 606.910451 353.2239 
L 622.422406 353.2239 
L 637.934361 353.219331 
L 653.446316 353.175821 
L 668.95827 353.19192 
L 684.470225 353.215416 
L 699.98218 353.210847 
L 715.494135 353.2239 
L 731.006089 353.198882 
L 746.518044 353.220419 
L 762.029999 353.221507 
L 777.541954 352.885383 
L 793.053909 353.204973 
L 808.565863 353.2239 
L 824.077818 353.203884 
L 839.589773 353.2239 
L 855.101728 353.213664 
L 870.613682 353.223463 
L 886.125637 353.216987 
L 901.637592 353.214538 
L 917.149547 353.212721 
" clip-path="url(#p5d422650a7)" style="fill: none; stroke: #5cb85c; stroke-linecap: square"/>
   </g>
   <g id="line2d_22">
    <path d="M 48.48008 350.449138 
L 63.992035 353.201683 
L 79.503989 353.113903 
L 95.015944 352.696785 
L 110.527899 352.764308 
L 126.039854 353.189703 
L 141.551808 353.2239 
L 157.063763 353.2239 
L 172.575718 353.2239 
L 188.087673 353.2239 
L 203.599627 353.21693 
L 219.111582 353.2239 
L 234.623537 353.2239 
L 250.135492 353.2239 
L 265.647446 353.207782 
L 281.159401 353.2239 
L 296.671356 353.2239 
L 312.183311 353.223682 
L 327.695266 353.223682 
L 343.20722 353.2239 
L 358.719175 353.2239 
L 374.23113 353.204512 
L 389.743085 353.223029 
L 405.255039 353.169218 
L 420.766994 353.2178 
L 436.278949 353.180322 
L 451.790904 353.223682 
L 467.302858 353.218452 
L 482.814813 353.216927 
L 498.326768 353.219323 
L 513.838723 353.219541 
L 529.350678 353.223246 
L 544.862632 353.218451 
L 560.374587 353.2239 
L 575.886542 353.216053 
L 591.398497 353.2239 
L 606.910451 353.2239 
L 622.422406 353.2239 
L 637.934361 353.220412 
L 653.446316 353.175929 
L 668.95827 353.192499 
L 684.470225 353.215395 
L 699.98218 353.213867 
L 715.494135 353.2239 
L 731.006089 353.202085 
L 746.518044 353.220409 
L 762.029999 353.222154 
L 777.541954 352.885648 
L 793.053909 353.211459 
L 808.565863 353.2239 
L 824.077818 353.210571 
L 839.589773 353.2239 
L 855.101728 353.21993 
L 870.613682 353.223674 
L 886.125637 353.2239 
L 901.637592 353.217535 
L 917.149547 353.2239 
" clip-path="url(#p5d422650a7)" style="fill: none; stroke: #5cb85c; stroke-linecap: square"/>
   </g>
   <g id="line2d_23">
    <path d="M 48.48008 352.986649 
L 63.992035 346.425595 
L 79.503989 353.2239 
L 95.015944 353.2239 
L 110.527899 353.2239 
L 126.039854 353.214979 
L 141.551808 353.198101 
L 157.063763 353.223418 
L 172.575718 353.2239 
L 188.087673 353.2239 
L 203.599627 353.2239 
L 219.111582 353.2239 
L 234.623537 353.2239 
L 250.135492 353.223659 
L 265.647446 353.222694 
L 281.159401 353.217872 
L 296.671356 353.2239 
L 312.183311 353.2239 
L 327.695266 353.221248 
L 343.20722 353.2239 
L 358.719175 353.2239 
L 374.23113 353.209916 
L 389.743085 353.2239 
L 405.255039 353.222453 
L 420.766994 353.2239 
L 436.278949 353.222694 
L 451.790904 353.223418 
L 467.302858 353.223418 
L 482.814813 353.2239 
L 498.326768 353.221971 
L 513.838723 353.2239 
L 529.350678 353.176643 
L 544.862632 353.223418 
L 560.374587 353.20654 
L 575.886542 353.2239 
L 591.398497 353.223659 
L 606.910451 353.2239 
L 622.422406 353.2239 
L 637.934361 353.200995 
L 653.446316 353.2239 
L 668.95827 353.220766 
L 684.470225 353.2239 
L 699.98218 353.2239 
L 715.494135 353.213773 
L 731.006089 353.2239 
L 746.518044 353.2239 
L 762.029999 353.2239 
L 777.541954 353.222212 
L 793.053909 353.2239 
L 808.565863 353.2239 
L 824.077818 353.2239 
L 839.589773 353.22173 
L 855.101728 353.2239 
L 870.613682 353.2239 
L 886.125637 353.222174 
L 901.637592 353.2239 
L 917.149547 353.2239 
" clip-path="url(#p5d422650a7)" style="fill: none; stroke: #5cb85c; stroke-linecap: square"/>
   </g>
   <g id="line2d_24">
    <path d="M 48.48008 352.986636 
L 63.992035 346.425073 
L 79.503989 353.2239 
L 95.015944 353.2239 
L 110.527899 353.2239 
L 126.039854 353.214969 
L 141.551808 353.198074 
L 157.063763 353.223417 
L 172.575718 353.2239 
L 188.087673 353.2239 
L 203.599627 353.2239 
L 219.111582 353.2239 
L 234.623537 353.2239 
L 250.135492 353.223659 
L 265.647446 353.222693 
L 281.159401 353.217866 
L 296.671356 353.2239 
L 312.183311 353.2239 
L 327.695266 353.221245 
L 343.20722 353.2239 
L 358.719175 353.2239 
L 374.23113 353.209901 
L 389.743085 353.2239 
L 405.255039 353.222452 
L 420.766994 353.2239 
L 436.278949 353.222693 
L 451.790904 353.223417 
L 467.302858 353.223417 
L 482.814813 353.2239 
L 498.326768 353.221969 
L 513.838723 353.2239 
L 529.350678 353.17683 
L 544.862632 353.223417 
L 560.374587 353.206762 
L 575.886542 353.2239 
L 591.398497 353.223659 
L 606.910451 353.2239 
L 622.422406 353.2239 
L 637.934361 353.200967 
L 653.446316 353.2239 
L 668.95827 353.220762 
L 684.470225 353.2239 
L 699.98218 353.2239 
L 715.494135 353.21376 
L 731.006089 353.2239 
L 746.518044 353.2239 
L 762.029999 353.2239 
L 777.541954 353.22221 
L 793.053909 353.2239 
L 808.565863 353.2239 
L 824.077818 353.2239 
L 839.589773 353.221719 
L 855.101728 353.2239 
L 870.613682 353.2239 
L 886.125637 353.222017 
L 901.637592 353.2239 
L 917.149547 353.2239 
" clip-path="url(#p5d422650a7)" style="fill: none; stroke: #5cb85c; stroke-linecap: square"/>
   </g>
   <g id="line2d_25">
    <path d="M 48.48008 350.692739 
L 63.992035 353.20871 
L 79.503989 353.131314 
L 95.015944 352.699247 
L 110.527899 352.786046 
L 126.039854 353.193279 
L 141.551808 353.2239 
L 157.063763 353.2239 
L 172.575718 353.2239 
L 188.087673 353.2239 
L 203.599627 353.221248 
L 219.111582 353.222936 
L 234.623537 353.2239 
L 250.135492 353.2239 
L 265.647446 353.213773 
L 281.159401 353.2239 
L 296.671356 353.2239 
L 312.183311 353.223659 
L 327.695266 353.2239 
L 343.20722 353.2239 
L 358.719175 353.2239 
L 374.23113 353.200995 
L 389.743085 353.222936 
L 405.255039 353.167963 
L 420.766994 353.217872 
L 436.278949 353.187734 
L 451.790904 353.223659 
L 467.302858 353.21956 
L 482.814813 353.217872 
L 498.326768 353.21739 
L 513.838723 353.219319 
L 529.350678 353.223659 
L 544.862632 353.220766 
L 560.374587 353.2239 
L 575.886542 353.219801 
L 591.398497 353.2239 
L 606.910451 353.2239 
L 622.422406 353.2239 
L 637.934361 353.221971 
L 653.446316 353.175196 
L 668.95827 353.196172 
L 684.470225 353.214015 
L 699.98218 353.217872 
L 715.494135 353.2239 
L 731.006089 353.20654 
L 746.518044 353.220524 
L 762.029999 353.222694 
L 777.541954 352.856684 
L 793.053909 353.210157 
L 808.565863 353.2239 
L 824.077818 353.213532 
L 839.589773 353.2239 
L 855.101728 353.219795 
L 870.613682 353.223658 
L 886.125637 353.220923 
L 901.637592 353.212109 
L 917.149547 353.214347 
" clip-path="url(#p5d422650a7)" style="fill: none; stroke: #5cb85c; stroke-linecap: square"/>
   </g>
   <g id="line2d_26">
    <path d="M 48.48008 350.692684 
L 63.992035 353.208694 
L 79.503989 353.131215 
L 95.015944 352.699892 
L 110.527899 352.786543 
L 126.039854 353.193246 
L 141.551808 353.2239 
L 157.063763 353.2239 
L 172.575718 353.2239 
L 188.087673 353.2239 
L 203.599627 353.221245 
L 219.111582 353.222935 
L 234.623537 353.2239 
L 250.135492 353.2239 
L 265.647446 353.213763 
L 281.159401 353.2239 
L 296.671356 353.2239 
L 312.183311 353.223659 
L 327.695266 353.2239 
L 343.20722 353.2239 
L 358.719175 353.2239 
L 374.23113 353.201209 
L 389.743085 353.222934 
L 405.255039 353.168136 
L 420.766994 353.217865 
L 436.278949 353.187685 
L 451.790904 353.223659 
L 467.302858 353.219554 
L 482.814813 353.217864 
L 498.326768 353.21738 
L 513.838723 353.219312 
L 529.350678 353.223659 
L 544.862632 353.220761 
L 560.374587 353.2239 
L 575.886542 353.219794 
L 591.398497 353.2239 
L 606.910451 353.2239 
L 622.422406 353.2239 
L 637.934361 353.221968 
L 653.446316 353.175346 
L 668.95827 353.196119 
L 684.470225 353.213995 
L 699.98218 353.21786 
L 715.494135 353.2239 
L 731.006089 353.206503 
L 746.518044 353.220517 
L 762.029999 353.222692 
L 777.541954 352.857027 
L 793.053909 353.211814 
L 808.565863 353.2239 
L 824.077818 353.21519 
L 839.589773 353.2239 
L 855.101728 353.221459 
L 870.613682 353.2239 
L 886.125637 353.223357 
L 901.637592 353.217588 
L 917.149547 353.2239 
" clip-path="url(#p5d422650a7)" style="fill: none; stroke: #5cb85c; stroke-linecap: square"/>
   </g>
   <g id="line2d_27">
    <path d="M 48.48008 353.000116 
L 63.992035 345.993231 
L 79.503989 353.2239 
L 95.015944 353.2239 
L 110.527899 353.2239 
L 126.039854 353.220079 
L 141.551808 353.205888 
L 157.063763 353.222535 
L 172.575718 353.2239 
L 188.087673 353.2239 
L 203.599627 353.2239 
L 219.111582 353.2239 
L 234.623537 353.2239 
L 250.135492 353.223627 
L 265.647446 353.22199 
L 281.159401 353.216804 
L 296.671356 353.2239 
L 312.183311 353.2239 
L 327.695266 353.221717 
L 343.20722 353.223627 
L 358.719175 353.2239 
L 374.23113 353.212165 
L 389.743085 353.2239 
L 405.255039 353.223081 
L 420.766994 353.2239 
L 436.278949 353.223081 
L 451.790904 353.223627 
L 467.302858 353.2239 
L 482.814813 353.223354 
L 498.326768 353.222808 
L 513.838723 353.2239 
L 529.350678 353.177779 
L 544.862632 353.2239 
L 560.374587 353.206707 
L 575.886542 353.2239 
L 591.398497 353.223081 
L 606.910451 353.2239 
L 622.422406 353.2239 
L 637.934361 353.196882 
L 653.446316 353.2239 
L 668.95827 353.221717 
L 684.470225 353.2239 
L 699.98218 353.2239 
L 715.494135 353.2108 
L 731.006089 353.2239 
L 746.518044 353.2239 
L 762.029999 353.2239 
L 777.541954 353.220898 
L 793.053909 353.2239 
L 808.565863 353.2239 
L 824.077818 353.2239 
L 839.589773 353.219806 
L 855.101728 353.2239 
L 870.613682 353.2239 
L 886.125637 353.222225 
L 901.637592 353.2239 
L 917.149547 353.2239 
" clip-path="url(#p5d422650a7)" style="fill: none; stroke: #5cb85c; stroke-linecap: square"/>
   </g>
   <g id="line2d_28">
    <path d="M 48.48008 353.000125 
L 63.992035 345.994509 
L 79.503989 353.2239 
L 95.015944 353.2239 
L 110.527899 353.2239 
L 126.039854 353.220075 
L 141.551808 353.205867 
L 157.063763 353.222534 
L 172.575718 353.2239 
L 188.087673 353.2239 
L 203.599627 353.2239 
L 219.111582 353.2239 
L 234.623537 353.2239 
L 250.135492 353.223627 
L 265.647446 353.221987 
L 281.159401 353.216796 
L 296.671356 353.2239 
L 312.183311 353.2239 
L 327.695266 353.221714 
L 343.20722 353.223627 
L 358.719175 353.2239 
L 374.23113 353.212151 
L 389.743085 353.2239 
L 405.255039 353.22308 
L 420.766994 353.2239 
L 436.278949 353.22308 
L 451.790904 353.223627 
L 467.302858 353.2239 
L 482.814813 353.223354 
L 498.326768 353.222807 
L 513.838723 353.2239 
L 529.350678 353.177721 
L 544.862632 353.2239 
L 560.374587 353.206685 
L 575.886542 353.2239 
L 591.398497 353.22308 
L 606.910451 353.2239 
L 622.422406 353.2239 
L 637.934361 353.196846 
L 653.446316 353.2239 
L 668.95827 353.221714 
L 684.470225 353.2239 
L 699.98218 353.2239 
L 715.494135 353.210782 
L 731.006089 353.2239 
L 746.518044 353.2239 
L 762.029999 353.2239 
L 777.541954 353.220893 
L 793.053909 353.2239 
L 808.565863 353.2239 
L 824.077818 353.2239 
L 839.589773 353.219785 
L 855.101728 353.2239 
L 870.613682 353.2239 
L 886.125637 353.222378 
L 901.637592 353.2239 
L 917.149547 353.2239 
" clip-path="url(#p5d422650a7)" style="fill: none; stroke: #5cb85c; stroke-linecap: square"/>
   </g>
   <g id="line2d_29">
    <path d="M 48.48008 350.923295 
L 63.992035 353.206707 
L 79.503989 353.136024 
L 95.015944 352.723389 
L 110.527899 352.800076 
L 126.039854 353.197974 
L 141.551808 353.2239 
L 157.063763 353.2239 
L 172.575718 353.2239 
L 188.087673 353.2239 
L 203.599627 353.219806 
L 219.111582 353.223354 
L 234.623537 353.2239 
L 250.135492 353.2239 
L 265.647446 353.211892 
L 281.159401 353.2239 
L 296.671356 353.2239 
L 312.183311 353.2239 
L 327.695266 353.2239 
L 343.20722 353.2239 
L 358.719175 353.2239 
L 374.23113 353.208617 
L 389.743085 353.2239 
L 405.255039 353.173412 
L 420.766994 353.21735 
L 436.278949 353.189241 
L 451.790904 353.2239 
L 467.302858 353.219261 
L 482.814813 353.219261 
L 498.326768 353.218442 
L 513.838723 353.220079 
L 529.350678 353.223081 
L 544.862632 353.220352 
L 560.374587 353.2239 
L 575.886542 353.219806 
L 591.398497 353.2239 
L 606.910451 353.2239 
L 622.422406 353.2239 
L 637.934361 353.221717 
L 653.446316 353.179962 
L 668.95827 353.195245 
L 684.470225 353.216804 
L 699.98218 353.214894 
L 715.494135 353.2239 
L 731.006089 353.204251 
L 746.518044 353.218988 
L 762.029999 353.2239 
L 777.541954 352.884124 
L 793.053909 353.207798 
L 808.565863 353.2239 
L 824.077818 353.20889 
L 839.589773 353.2239 
L 855.101728 353.218982 
L 870.613682 353.223626 
L 886.125637 353.219984 
L 901.637592 353.215476 
L 917.149547 353.213198 
" clip-path="url(#p5d422650a7)" style="fill: none; stroke: #5cb85c; stroke-linecap: square"/>
   </g>
   <g id="line2d_30">
    <path d="M 48.48008 350.922211 
L 63.992035 353.206687 
L 79.503989 353.13592 
L 95.015944 352.722796 
L 110.527899 352.799574 
L 126.039854 353.197943 
L 141.551808 353.2239 
L 157.063763 353.2239 
L 172.575718 353.2239 
L 188.087673 353.2239 
L 203.599627 353.219802 
L 219.111582 353.223354 
L 234.623537 353.2239 
L 250.135492 353.2239 
L 265.647446 353.211878 
L 281.159401 353.2239 
L 296.671356 353.2239 
L 312.183311 353.2239 
L 327.695266 353.2239 
L 343.20722 353.2239 
L 358.719175 353.2239 
L 374.23113 353.208597 
L 389.743085 353.2239 
L 405.255039 353.173344 
L 420.766994 353.217341 
L 436.278949 353.189189 
L 451.790904 353.2239 
L 467.302858 353.219253 
L 482.814813 353.219253 
L 498.326768 353.218433 
L 513.838723 353.220073 
L 529.350678 353.22308 
L 544.862632 353.220346 
L 560.374587 353.2239 
L 575.886542 353.220072 
L 591.398497 353.2239 
L 606.910451 353.2239 
L 622.422406 353.2239 
L 637.934361 353.222259 
L 653.446316 353.179868 
L 668.95827 353.195182 
L 684.470225 353.216788 
L 699.98218 353.215694 
L 715.494135 353.2239 
L 731.006089 353.205023 
L 746.518044 353.218975 
L 762.029999 353.2239 
L 777.541954 352.88346 
L 793.053909 353.210488 
L 808.565863 353.2239 
L 824.077818 353.211571 
L 839.589773 353.2239 
L 855.101728 353.221412 
L 870.613682 353.2239 
L 886.125637 353.223593 
L 901.637592 353.217148 
L 917.149547 353.2239 
" clip-path="url(#p5d422650a7)" style="fill: none; stroke: #5cb85c; stroke-linecap: square"/>
   </g>
   <g id="line2d_31">
    <path d="M 48.48008 353.064291 
L 63.992035 350.66596 
L 79.503989 353.2239 
L 95.015944 353.223254 
L 110.527899 353.2239 
L 126.039854 353.2239 
L 141.551808 353.2239 
L 157.063763 353.222285 
L 172.575718 353.178344 
L 188.087673 353.2239 
L 203.599627 353.2239 
L 219.111582 353.2239 
L 234.623537 353.2239 
L 250.135492 353.2239 
L 265.647446 353.212915 
L 281.159401 353.213884 
L 296.671356 353.2239 
L 312.183311 353.2239 
L 327.695266 353.2239 
L 343.20722 353.209361 
L 358.719175 353.2239 
L 374.23113 353.222931 
L 389.743085 353.223254 
L 405.255039 353.223577 
L 420.766994 353.2239 
L 436.278949 353.223254 
L 451.790904 353.2155 
L 467.302858 353.203222 
L 482.814813 353.216146 
L 498.326768 353.222931 
L 513.838723 353.16025 
L 529.350678 353.219377 
L 544.862632 353.2239 
L 560.374587 353.202899 
L 575.886542 353.2239 
L 591.398497 353.219054 
L 606.910451 353.2239 
L 622.422406 353.153465 
L 637.934361 353.2239 
L 653.446316 353.2239 
L 668.95827 353.2239 
L 684.470225 353.222285 
L 699.98218 353.194498 
L 715.494135 353.223577 
L 731.006089 353.219377 
L 746.518044 353.2239 
L 762.029999 353.221961 
L 777.541954 353.099508 
L 793.053909 353.203868 
L 808.565863 353.183835 
L 824.077818 353.196759 
L 839.589773 353.190943 
L 855.101728 353.142476 
L 870.613682 353.191911 
L 886.125637 353.205145 
L 901.637592 353.211225 
L 917.149547 353.212966 
L 932.661501 353.179066 
L 948.173456 353.222936 
" clip-path="url(#p5d422650a7)" style="fill: none; stroke: #5cb85c; stroke-linecap: square"/>
   </g>
   <g id="line2d_32">
    <path d="M 48.48008 353.064087 
L 63.992035 350.665924 
L 79.503989 353.2239 
L 95.015944 353.223253 
L 110.527899 353.2239 
L 126.039854 353.2239 
L 141.551808 353.2239 
L 157.063763 353.222282 
L 172.575718 353.178285 
L 188.087673 353.2239 
L 203.599627 353.2239 
L 219.111582 353.2239 
L 234.623537 353.2239 
L 250.135492 353.2239 
L 265.647446 353.212901 
L 281.159401 353.213871 
L 296.671356 353.2239 
L 312.183311 353.2239 
L 327.695266 353.2239 
L 343.20722 353.209342 
L 358.719175 353.2239 
L 374.23113 353.222929 
L 389.743085 353.223253 
L 405.255039 353.223576 
L 420.766994 353.2239 
L 436.278949 353.223253 
L 451.790904 353.215812 
L 467.302858 353.204488 
L 482.814813 353.217106 
L 498.326768 353.223253 
L 513.838723 353.161458 
L 529.350678 353.220018 
L 544.862632 353.2239 
L 560.374587 353.20384 
L 575.886542 353.2239 
L 591.398497 353.219694 
L 606.910451 353.2239 
L 622.422406 353.15401 
L 637.934361 353.2239 
L 653.446316 353.2239 
L 668.95827 353.2239 
L 684.470225 353.222606 
L 699.98218 353.196068 
L 715.494135 353.2239 
L 731.006089 353.220016 
L 746.518044 353.2239 
L 762.029999 353.222929 
L 777.541954 353.108647 
L 793.053909 353.20933 
L 808.565863 353.188925 
L 824.077818 353.206409 
L 839.589773 353.200246 
L 855.101728 353.154494 
L 870.613682 353.202443 
L 886.125637 353.215061 
L 901.637592 353.218869 
L 917.149547 353.221368 
L 932.661501 353.201842 
L 948.173456 353.2239 
" clip-path="url(#p5d422650a7)" style="fill: none; stroke: #5cb85c; stroke-linecap: square"/>
   </g>
   <g id="line2d_33">
    <path d="M 48.48008 351.417155 
L 63.992035 353.200637 
L 79.503989 353.222608 
L 95.015944 353.2239 
L 110.527899 353.222931 
L 126.039854 353.220023 
L 141.551808 353.190944 
L 157.063763 353.21453 
L 172.575718 353.223577 
L 188.087673 353.20613 
L 203.599627 353.2239 
L 219.111582 353.198376 
L 234.623537 353.184159 
L 250.135492 353.213561 
L 265.647446 353.222608 
L 281.159401 353.20096 
L 296.671356 353.168651 
L 312.183311 353.217761 
L 327.695266 353.189652 
L 343.20722 353.220023 
L 358.719175 353.17479 
L 374.23113 353.212915 
L 389.743085 353.184159 
L 405.255039 353.21033 
L 420.766994 353.189652 
L 436.278949 353.218407 
L 451.790904 352.989333 
L 467.302858 353.207745 
L 482.814813 353.194821 
L 498.326768 353.21873 
L 513.838723 353.2239 
L 529.350678 353.222285 
L 544.862632 353.221961 
L 560.374587 353.219054 
L 575.886542 353.199668 
L 591.398497 353.214207 
L 606.910451 353.166712 
L 622.422406 353.201283 
L 637.934361 353.078507 
L 653.446316 353.208068 
L 668.95827 353.178021 
L 684.470225 353.205807 
L 699.98218 353.223254 
L 715.494135 353.217115 
L 731.006089 353.066876 
L 746.518044 353.221638 
L 762.029999 353.213561 
L 777.541954 353.197729 
L 793.053909 353.170912 
L 808.565863 353.18965 
L 824.077818 353.103701 
L 839.589773 353.212914 
L 855.101728 353.204836 
L 870.613682 353.191585 
L 886.125637 353.094195 
L 901.637592 353.195646 
L 917.149547 353.162345 
L 932.661501 353.197904 
L 948.173456 353.217522 
" clip-path="url(#p5d422650a7)" style="fill: none; stroke: #5cb85c; stroke-linecap: square"/>
   </g>
   <g id="line2d_34">
    <path d="M 48.48008 351.42455 
L 63.992035 353.200607 
L 79.503989 353.222606 
L 95.015944 353.2239 
L 110.527899 353.222929 
L 126.039854 353.220018 
L 141.551808 353.192843 
L 157.063763 353.216459 
L 172.575718 353.223576 
L 188.087673 353.206431 
L 203.599627 353.2239 
L 219.111582 353.20449 
L 234.623537 353.190255 
L 250.135492 353.217753 
L 265.647446 353.2239 
L 281.159401 353.207078 
L 296.671356 353.174403 
L 312.183311 353.220665 
L 327.695266 353.194784 
L 343.20722 353.220018 
L 358.719175 353.179578 
L 374.23113 353.216459 
L 389.743085 353.190251 
L 405.255039 353.215487 
L 420.766994 353.196073 
L 436.278949 353.220987 
L 451.790904 352.995745 
L 467.302858 353.207718 
L 482.814813 353.195742 
L 498.326768 353.22034 
L 513.838723 353.2239 
L 529.350678 353.223576 
L 544.862632 353.223576 
L 560.374587 353.220986 
L 575.886542 353.202856 
L 591.398497 353.218396 
L 606.910451 353.176301 
L 622.422406 353.211595 
L 637.934361 353.091124 
L 653.446316 353.210945 
L 668.95827 353.188595 
L 684.470225 353.208351 
L 699.98218 353.2239 
L 715.494135 353.22228 
L 731.006089 353.082284 
L 746.518044 353.2239 
L 762.029999 353.221955 
L 777.541954 353.215795 
L 793.053909 353.190824 
L 808.565863 353.208979 
L 824.077818 353.127532 
L 839.589773 353.222277 
L 855.101728 353.217401 
L 870.613682 353.210866 
L 886.125637 353.123408 
L 901.637592 353.216491 
L 917.149547 353.183883 
L 932.661501 353.222949 
L 948.173456 353.2239 
" clip-path="url(#p5d422650a7)" style="fill: none; stroke: #5cb85c; stroke-linecap: square"/>
   </g>
   <g id="line2d_35">
    <path d="M 48.48008 353.054366 
L 63.992035 350.405336 
L 79.503989 353.2239 
L 95.015944 353.223681 
L 110.527899 353.2239 
L 126.039854 353.2239 
L 141.551808 353.223681 
L 157.063763 353.223462 
L 172.575718 353.175712 
L 188.087673 353.2239 
L 203.599627 353.2239 
L 219.111582 353.2239 
L 234.623537 353.2239 
L 250.135492 353.2239 
L 265.647446 353.216453 
L 281.159401 353.213167 
L 296.671356 353.2239 
L 312.183311 353.2239 
L 327.695266 353.2239 
L 343.20722 353.206815 
L 358.719175 353.2239 
L 374.23113 353.223243 
L 389.743085 353.223681 
L 405.255039 353.223681 
L 420.766994 353.223462 
L 436.278949 353.2239 
L 451.790904 353.212729 
L 467.302858 353.201339 
L 482.814813 353.211853 
L 498.326768 353.220833 
L 513.838723 353.149866 
L 529.350678 353.217329 
L 544.862632 353.2239 
L 560.374587 353.199806 
L 575.886542 353.2239 
L 591.398497 353.218205 
L 606.910451 353.2239 
L 622.422406 353.147456 
L 637.934361 353.2239 
L 653.446316 353.2239 
L 668.95827 353.2239 
L 684.470225 353.220176 
L 699.98218 353.188635 
L 715.494135 353.223462 
L 731.006089 353.218862 
L 746.518044 353.223462 
L 762.029999 353.221929 
L 777.541954 353.090725 
L 793.053909 353.200244 
L 808.565863 353.180968 
L 824.077818 353.192138 
L 839.589773 353.184253 
L 855.101728 353.132776 
L 870.613682 353.186222 
L 886.125637 353.199784 
L 901.637592 353.207378 
L 917.149547 353.209091 
L 932.661501 353.170338 
L 948.173456 353.221948 
" clip-path="url(#p5d422650a7)" style="fill: none; stroke: #5cb85c; stroke-linecap: square"/>
   </g>
   <g id="line2d_36">
    <path d="M 48.48008 353.054381 
L 63.992035 350.406775 
L 79.503989 353.2239 
L 95.015944 353.223681 
L 110.527899 353.2239 
L 126.039854 353.2239 
L 141.551808 353.223681 
L 157.063763 353.223461 
L 172.575718 353.175873 
L 188.087673 353.2239 
L 203.599627 353.2239 
L 219.111582 353.2239 
L 234.623537 353.2239 
L 250.135492 353.2239 
L 265.647446 353.216444 
L 281.159401 353.213154 
L 296.671356 353.2239 
L 312.183311 353.2239 
L 327.695266 353.2239 
L 343.20722 353.207233 
L 358.719175 353.2239 
L 374.23113 353.223242 
L 389.743085 353.223681 
L 405.255039 353.223681 
L 420.766994 353.223461 
L 436.278949 353.2239 
L 451.790904 353.212715 
L 467.302858 353.201311 
L 482.814813 353.211838 
L 498.326768 353.22083 
L 513.838723 353.149771 
L 529.350678 353.21732 
L 544.862632 353.2239 
L 560.374587 353.199774 
L 575.886542 353.2239 
L 591.398497 353.218197 
L 606.910451 353.2239 
L 622.422406 353.147572 
L 637.934361 353.2239 
L 653.446316 353.2239 
L 668.95827 353.2239 
L 684.470225 353.220829 
L 699.98218 353.189681 
L 715.494135 353.2239 
L 731.006089 353.219293 
L 746.518044 353.2239 
L 762.029999 353.223022 
L 777.541954 353.100595 
L 793.053909 353.207004 
L 808.565863 353.187251 
L 824.077818 353.20239 
L 839.589773 353.194699 
L 855.101728 353.146116 
L 870.613682 353.198795 
L 886.125637 353.209265 
L 901.637592 353.216411 
L 917.149547 353.21877 
L 932.661501 353.196227 
L 948.173456 353.2239 
" clip-path="url(#p5d422650a7)" style="fill: none; stroke: #5cb85c; stroke-linecap: square"/>
   </g>
   <g id="line2d_37">
    <path d="M 48.48008 351.401953 
L 63.992035 353.19652 
L 79.503989 353.221929 
L 95.015944 353.2239 
L 110.527899 353.223243 
L 126.039854 353.219081 
L 141.551808 353.190825 
L 157.063763 353.214919 
L 172.575718 353.2239 
L 188.087673 353.206596 
L 203.599627 353.223681 
L 219.111582 353.197616 
L 234.623537 353.185788 
L 250.135492 353.21251 
L 265.647446 353.223462 
L 281.159401 353.200244 
L 296.671356 353.166074 
L 312.183311 353.217548 
L 327.695266 353.194111 
L 343.20722 353.218643 
L 358.719175 353.174398 
L 374.23113 353.210977 
L 389.743085 353.185131 
L 405.255039 353.20791 
L 420.766994 353.191044 
L 436.278949 353.218862 
L 451.790904 352.987778 
L 467.302858 353.210101 
L 482.814813 353.188854 
L 498.326768 353.2193 
L 513.838723 353.2239 
L 529.350678 353.222586 
L 544.862632 353.222367 
L 560.374587 353.216453 
L 575.886542 353.200463 
L 591.398497 353.212729 
L 606.910451 353.168922 
L 622.422406 353.200244 
L 637.934361 353.085469 
L 653.446316 353.209006 
L 668.95827 353.175274 
L 684.470225 353.206815 
L 699.98218 353.223024 
L 715.494135 353.216234 
L 731.006089 353.066413 
L 746.518044 353.221929 
L 762.029999 353.215577 
L 777.541954 353.195206 
L 793.053909 353.172425 
L 808.565863 353.187538 
L 824.077818 353.108677 
L 839.589773 353.212947 
L 855.101728 353.202213 
L 870.613682 353.187532 
L 886.125637 353.100638 
L 901.637592 353.195916 
L 917.149547 353.166773 
L 932.661501 353.197916 
L 948.173456 353.215855 
" clip-path="url(#p5d422650a7)" style="fill: none; stroke: #5cb85c; stroke-linecap: square"/>
   </g>
   <g id="line2d_38">
    <path d="M 48.48008 351.407659 
L 63.992035 353.196707 
L 79.503989 353.221926 
L 95.015944 353.2239 
L 110.527899 353.223242 
L 126.039854 353.219075 
L 141.551808 353.194295 
L 157.063763 353.216663 
L 172.575718 353.2239 
L 188.087673 353.207014 
L 203.599627 353.223681 
L 219.111582 353.202628 
L 234.623537 353.19254 
L 250.135492 353.216663 
L 265.647446 353.2239 
L 281.159401 353.204382 
L 296.671356 353.171926 
L 312.183311 353.220611 
L 327.695266 353.199558 
L 343.20722 353.218856 
L 358.719175 353.1796 
L 374.23113 353.214688 
L 389.743085 353.191439 
L 405.255039 353.212933 
L 420.766994 353.197578 
L 436.278949 353.221267 
L 451.790904 352.99508 
L 467.302858 353.210078 
L 482.814813 353.191209 
L 498.326768 353.220828 
L 513.838723 353.2239 
L 529.350678 353.223242 
L 544.862632 353.2239 
L 560.374587 353.219072 
L 575.886542 353.204806 
L 591.398497 353.215779 
L 606.910451 353.177584 
L 622.422406 353.210071 
L 637.934361 353.098328 
L 653.446316 353.212922 
L 668.95827 353.186573 
L 684.470225 353.209627 
L 699.98218 353.22368 
L 715.494135 353.221045 
L 731.006089 353.081562 
L 746.518044 353.2239 
L 762.029999 353.222582 
L 777.541954 353.212914 
L 793.053909 353.193573 
L 808.565863 353.206754 
L 824.077818 353.131992 
L 839.589773 353.22302 
L 855.101728 353.215534 
L 870.613682 353.207345 
L 886.125637 353.128041 
L 901.637592 353.215916 
L 917.149547 353.186876 
L 932.661501 353.223258 
L 948.173456 353.2239 
" clip-path="url(#p5d422650a7)" style="fill: none; stroke: #5cb85c; stroke-linecap: square"/>
   </g>
   <g id="line2d_39">
    <path d="M 48.48008 353.058954 
L 63.992035 350.49129 
L 79.503989 353.2239 
L 95.015944 353.223272 
L 110.527899 353.2239 
L 126.039854 353.2239 
L 141.551808 353.223586 
L 157.063763 353.222015 
L 172.575718 353.177558 
L 188.087673 353.2239 
L 203.599627 353.2239 
L 219.111582 353.2239 
L 234.623537 353.2239 
L 250.135492 353.2239 
L 265.647446 353.213061 
L 281.159401 353.211804 
L 296.671356 353.2239 
L 312.183311 353.2239 
L 327.695266 353.2239 
L 343.20722 353.211176 
L 358.719175 353.2239 
L 374.23113 353.222643 
L 389.743085 353.2228 
L 405.255039 353.2239 
L 420.766994 353.223429 
L 436.278949 353.2239 
L 451.790904 353.212589 
L 467.302858 353.202064 
L 482.814813 353.212904 
L 498.326768 353.221072 
L 513.838723 353.151795 
L 529.350678 353.220915 
L 544.862632 353.2239 
L 560.374587 353.198608 
L 575.886542 353.2239 
L 591.398497 353.21903 
L 606.910451 353.223586 
L 622.422406 353.154623 
L 637.934361 353.2239 
L 653.446316 353.2239 
L 668.95827 353.2239 
L 684.470225 353.219659 
L 699.98218 353.187298 
L 715.494135 353.223429 
L 731.006089 353.219344 
L 746.518044 353.223586 
L 762.029999 353.222015 
L 777.541954 353.090215 
L 793.053909 353.199236 
L 808.565863 353.180385 
L 824.077818 353.195151 
L 839.589773 353.187611 
L 855.101728 353.129328 
L 870.613682 353.189495 
L 886.125637 353.203934 
L 901.637592 353.205877 
L 917.149547 353.212293 
L 932.661501 353.175458 
L 948.173456 353.223199 
" clip-path="url(#p5d422650a7)" style="fill: none; stroke: #5cb85c; stroke-linecap: square"/>
   </g>
   <g id="line2d_40">
    <path d="M 48.48008 353.059185 
L 63.992035 350.491707 
L 79.503989 353.2239 
L 95.015944 353.223271 
L 110.527899 353.2239 
L 126.039854 353.2239 
L 141.551808 353.223585 
L 157.063763 353.222012 
L 172.575718 353.177648 
L 188.087673 353.2239 
L 203.599627 353.2239 
L 219.111582 353.2239 
L 234.623537 353.2239 
L 250.135492 353.2239 
L 265.647446 353.213045 
L 281.159401 353.211786 
L 296.671356 353.2239 
L 312.183311 353.2239 
L 327.695266 353.2239 
L 343.20722 353.211314 
L 358.719175 353.2239 
L 374.23113 353.222641 
L 389.743085 353.222799 
L 405.255039 353.2239 
L 420.766994 353.223428 
L 436.278949 353.2239 
L 451.790904 353.213044 
L 467.302858 353.202661 
L 482.814813 353.213359 
L 498.326768 353.221383 
L 513.838723 353.152472 
L 529.350678 353.221068 
L 544.862632 353.2239 
L 560.374587 353.199198 
L 575.886542 353.2239 
L 591.398497 353.219023 
L 606.910451 353.223585 
L 622.422406 353.154827 
L 637.934361 353.2239 
L 653.446316 353.2239 
L 668.95827 353.2239 
L 684.470225 353.22091 
L 699.98218 353.188967 
L 715.494135 353.223743 
L 731.006089 353.219809 
L 746.518044 353.2239 
L 762.029999 353.222798 
L 777.541954 353.099256 
L 793.053909 353.207532 
L 808.565863 353.185494 
L 824.077818 353.204695 
L 839.589773 353.197132 
L 855.101728 353.140231 
L 870.613682 353.199584 
L 886.125637 353.212302 
L 901.637592 353.216088 
L 917.149547 353.220924 
L 932.661501 353.197912 
L 948.173456 353.2239 
" clip-path="url(#p5d422650a7)" style="fill: none; stroke: #5cb85c; stroke-linecap: square"/>
   </g>
   <g id="line2d_41">
    <path d="M 48.48008 351.367233 
L 63.992035 353.197194 
L 79.503989 353.222329 
L 95.015944 353.2239 
L 110.527899 353.222957 
L 126.039854 353.218088 
L 141.551808 353.196252 
L 157.063763 353.21636 
L 172.575718 353.2239 
L 188.087673 353.208034 
L 203.599627 353.223115 
L 219.111582 353.192639 
L 234.623537 353.179757 
L 250.135492 353.208191 
L 265.647446 353.223115 
L 281.159401 353.193581 
L 296.671356 353.164205 
L 312.183311 353.216203 
L 327.695266 353.190911 
L 343.20722 353.219501 
L 358.719175 353.173631 
L 374.23113 353.209448 
L 389.743085 353.18447 
L 405.255039 353.203792 
L 420.766994 353.18934 
L 436.278949 353.217616 
L 451.790904 352.979937 
L 467.302858 353.209448 
L 482.814813 353.196723 
L 498.326768 353.219501 
L 513.838723 353.2239 
L 529.350678 353.221701 
L 544.862632 353.220915 
L 560.374587 353.215731 
L 575.886542 353.203478 
L 591.398497 353.210704 
L 606.910451 353.174102 
L 622.422406 353.197194 
L 637.934361 353.075291 
L 653.446316 353.207405 
L 668.95827 353.17473 
L 684.470225 353.207091 
L 699.98218 353.223272 
L 715.494135 353.216831 
L 731.006089 353.066808 
L 746.518044 353.222015 
L 762.029999 353.209762 
L 777.541954 353.19201 
L 793.053909 353.170174 
L 808.565863 353.183369 
L 824.077818 353.104504 
L 839.589773 353.209604 
L 855.101728 353.201906 
L 870.613682 353.182422 
L 886.125637 353.097956 
L 901.637592 353.189505 
L 917.149547 353.167885 
L 932.661501 353.195502 
L 948.173456 353.214352 
" clip-path="url(#p5d422650a7)" style="fill: none; stroke: #5cb85c; stroke-linecap: square"/>
   </g>
   <g id="line2d_42">
    <path d="M 48.48008 351.375693 
L 63.992035 353.197313 
L 79.503989 353.222327 
L 95.015944 353.2239 
L 110.527899 353.222956 
L 126.039854 353.218079 
L 141.551808 353.199515 
L 157.063763 353.217764 
L 172.575718 353.2239 
L 188.087673 353.208168 
L 203.599627 353.223585 
L 219.111582 353.199673 
L 234.623537 353.187559 
L 250.135492 353.214146 
L 265.647446 353.2239 
L 281.159401 353.200459 
L 296.671356 353.171512 
L 312.183311 353.219652 
L 327.695266 353.198414 
L 343.20722 353.219495 
L 358.719175 353.178904 
L 374.23113 353.214302 
L 389.743085 353.191485 
L 405.255039 353.210997 
L 420.766994 353.196518 
L 436.278949 353.220752 
L 451.790904 352.988572 
L 467.302858 353.210362 
L 482.814813 353.198397 
L 498.326768 353.221066 
L 513.838723 353.2239 
L 529.350678 353.22327 
L 544.862632 353.223113 
L 560.374587 353.218703 
L 575.886542 353.207994 
L 591.398497 353.215553 
L 606.910451 353.18578 
L 622.422406 353.210195 
L 637.934361 353.090621 
L 653.446316 353.211925 
L 668.95827 353.187658 
L 684.470225 353.209717 
L 699.98218 353.223427 
L 715.494135 353.222481 
L 731.006089 353.085006 
L 746.518044 353.2239 
L 762.029999 353.220589 
L 777.541954 353.21428 
L 793.053909 353.195035 
L 808.565863 353.206072 
L 824.077818 353.131736 
L 839.589773 353.222953 
L 855.101728 353.218211 
L 870.613682 353.206316 
L 886.125637 353.129606 
L 901.637592 353.213274 
L 917.149547 353.19008 
L 932.661501 353.222976 
L 948.173456 353.2239 
" clip-path="url(#p5d422650a7)" style="fill: none; stroke: #5cb85c; stroke-linecap: square"/>
   </g>
   <g id="line2d_43">
    <path d="M 48.48008 353.062441 
L 63.992035 350.463018 
L 79.503989 353.2239 
L 95.015944 353.223413 
L 110.527899 353.2239 
L 126.039854 353.2239 
L 141.551808 353.223413 
L 157.063763 353.222682 
L 172.575718 353.178847 
L 188.087673 353.2239 
L 203.599627 353.2239 
L 219.111582 353.2239 
L 234.623537 353.2239 
L 250.135492 353.2239 
L 265.647446 353.212211 
L 281.159401 353.214402 
L 296.671356 353.2239 
L 312.183311 353.2239 
L 327.695266 353.2239 
L 343.20722 353.208801 
L 358.719175 353.2239 
L 374.23113 353.223656 
L 389.743085 353.223169 
L 405.255039 353.2239 
L 420.766994 353.2239 
L 436.278949 353.223413 
L 451.790904 353.214646 
L 467.302858 353.206853 
L 482.814813 353.213428 
L 498.326768 353.220734 
L 513.838723 353.154007 
L 529.350678 353.220004 
L 544.862632 353.2239 
L 560.374587 353.196868 
L 575.886542 353.2239 
L 591.398497 353.220734 
L 606.910451 353.223656 
L 622.422406 353.146945 
L 637.934361 353.2239 
L 653.446316 353.2239 
L 668.95827 353.2239 
L 684.470225 353.218786 
L 699.98218 353.189562 
L 715.494135 353.2239 
L 731.006089 353.219516 
L 746.518044 353.222682 
L 762.029999 353.220978 
L 777.541954 353.090933 
L 793.053909 353.201982 
L 808.565863 353.182499 
L 824.077818 353.195893 
L 839.589773 353.19151 
L 855.101728 353.136226 
L 870.613682 353.192239 
L 886.125637 353.202452 
L 901.637592 353.207006 
L 917.149547 353.212677 
L 932.661501 353.177768 
L 948.173456 353.22175 
" clip-path="url(#p5d422650a7)" style="fill: none; stroke: #5cb85c; stroke-linecap: square"/>
   </g>
   <g id="line2d_44">
    <path d="M 48.48008 353.062265 
L 63.992035 350.461723 
L 79.503989 353.2239 
L 95.015944 353.223412 
L 110.527899 353.2239 
L 126.039854 353.2239 
L 141.551808 353.223412 
L 157.063763 353.222681 
L 172.575718 353.178798 
L 188.087673 353.2239 
L 203.599627 353.2239 
L 219.111582 353.2239 
L 234.623537 353.2239 
L 250.135492 353.2239 
L 265.647446 353.212198 
L 281.159401 353.214392 
L 296.671356 353.2239 
L 312.183311 353.2239 
L 327.695266 353.2239 
L 343.20722 353.209516 
L 358.719175 353.2239 
L 374.23113 353.223656 
L 389.743085 353.223169 
L 405.255039 353.2239 
L 420.766994 353.2239 
L 436.278949 353.223412 
L 451.790904 353.215367 
L 467.302858 353.207565 
L 482.814813 353.213904 
L 498.326768 353.221218 
L 513.838723 353.155145 
L 529.350678 353.220487 
L 544.862632 353.2239 
L 560.374587 353.197811 
L 575.886542 353.2239 
L 591.398497 353.221218 
L 606.910451 353.223656 
L 622.422406 353.147825 
L 637.934361 353.2239 
L 653.446316 353.2239 
L 668.95827 353.2239 
L 684.470225 353.22073 
L 699.98218 353.191468 
L 715.494135 353.2239 
L 731.006089 353.21951 
L 746.518044 353.2239 
L 762.029999 353.222681 
L 777.541954 353.099026 
L 793.053909 353.208777 
L 808.565863 353.186577 
L 824.077818 353.203894 
L 839.589773 353.199008 
L 855.101728 353.146237 
L 870.613682 353.201135 
L 886.125637 353.209846 
L 901.637592 353.217082 
L 917.149547 353.219533 
L 932.661501 353.199191 
L 948.173456 353.2239 
" clip-path="url(#p5d422650a7)" style="fill: none; stroke: #5cb85c; stroke-linecap: square"/>
   </g>
   <g id="line2d_45">
    <path d="M 48.48008 351.38526 
L 63.992035 353.198817 
L 79.503989 353.221465 
L 95.015944 353.2239 
L 110.527899 353.223656 
L 126.039854 353.220247 
L 141.551808 353.196138 
L 157.063763 353.217325 
L 172.575718 353.2239 
L 188.087673 353.209288 
L 203.599627 353.2239 
L 219.111582 353.199547 
L 234.623537 353.186884 
L 250.135492 353.213672 
L 265.647446 353.223169 
L 281.159401 353.196868 
L 296.671356 353.168376 
L 312.183311 353.218786 
L 327.695266 353.193946 
L 343.20722 353.220004 
L 358.719175 353.179334 
L 374.23113 353.210749 
L 389.743085 353.189562 
L 405.255039 353.205879 
L 420.766994 353.192728 
L 436.278949 353.219273 
L 451.790904 352.994253 
L 467.302858 353.207827 
L 482.814813 353.195651 
L 498.326768 353.218786 
L 513.838723 353.223413 
L 529.350678 353.222195 
L 544.862632 353.222439 
L 560.374587 353.217568 
L 575.886542 353.202469 
L 591.398497 353.214159 
L 606.910451 353.175925 
L 622.422406 353.204418 
L 637.934361 353.084602 
L 653.446316 353.209045 
L 668.95827 353.179578 
L 684.470225 353.210262 
L 699.98218 353.223656 
L 715.494135 353.216594 
L 731.006089 353.06999 
L 746.518044 353.222682 
L 762.029999 353.213672 
L 777.541954 353.197112 
L 793.053909 353.174463 
L 808.565863 353.189561 
L 824.077818 353.112112 
L 839.589773 353.21294 
L 855.101728 353.207582 
L 870.613682 353.191017 
L 886.125637 353.107605 
L 901.637592 353.195252 
L 917.149547 353.172413 
L 932.661501 353.202266 
L 948.173456 353.218361 
" clip-path="url(#p5d422650a7)" style="fill: none; stroke: #5cb85c; stroke-linecap: square"/>
   </g>
   <g id="line2d_46">
    <path d="M 48.48008 351.388625 
L 63.992035 353.198789 
L 79.503989 353.221462 
L 95.015944 353.2239 
L 110.527899 353.223656 
L 126.039854 353.220243 
L 141.551808 353.198058 
L 157.063763 353.218537 
L 172.575718 353.2239 
L 188.087673 353.209272 
L 203.599627 353.2239 
L 219.111582 353.203421 
L 234.623537 353.191476 
L 250.135492 353.21683 
L 265.647446 353.223412 
L 281.159401 353.200496 
L 296.671356 353.172947 
L 312.183311 353.221218 
L 327.695266 353.198546 
L 343.20722 353.219999 
L 358.719175 353.182698 
L 374.23113 353.213904 
L 389.743085 353.194154 
L 405.255039 353.209758 
L 420.766994 353.197565 
L 436.278949 353.221217 
L 451.790904 353.000025 
L 467.302858 353.208779 
L 482.814813 353.196828 
L 498.326768 353.220485 
L 513.838723 353.2239 
L 529.350678 353.222924 
L 544.862632 353.223168 
L 560.374587 353.219997 
L 575.886542 353.205116 
L 591.398497 353.218533 
L 606.910451 353.183642 
L 622.422406 353.214872 
L 637.934361 353.097501 
L 653.446316 353.21365 
L 668.95827 353.190709 
L 684.470225 353.212673 
L 699.98218 353.223656 
L 715.494135 353.223168 
L 731.006089 353.086206 
L 746.518044 353.2239 
L 762.029999 353.222435 
L 777.541954 353.21462 
L 793.053909 353.194589 
L 808.565863 353.208264 
L 824.077818 353.13372 
L 839.589773 353.223411 
L 855.101728 353.219494 
L 870.613682 353.2104 
L 886.125637 353.133088 
L 901.637592 353.215773 
L 917.149547 353.188315 
L 932.661501 353.223539 
L 948.173456 353.2239 
" clip-path="url(#p5d422650a7)" style="fill: none; stroke: #5cb85c; stroke-linecap: square"/>
   </g>
   <g id="line2d_47">
    <path d="M 48.48008 353.067707 
L 63.992035 350.549721 
L 79.503989 353.2239 
L 95.015944 353.223648 
L 110.527899 353.2239 
L 126.039854 353.2239 
L 141.551808 353.223648 
L 157.063763 353.22264 
L 172.575718 353.177042 
L 188.087673 353.2239 
L 203.599627 353.2239 
L 219.111582 353.2239 
L 234.623537 353.2239 
L 250.135492 353.2239 
L 265.647446 353.212815 
L 281.159401 353.213319 
L 296.671356 353.2239 
L 312.183311 353.2239 
L 327.695266 353.2239 
L 343.20722 353.20425 
L 358.719175 353.2239 
L 374.23113 353.222892 
L 389.743085 353.223396 
L 405.255039 353.2239 
L 420.766994 353.2239 
L 436.278949 353.2239 
L 451.790904 353.21609 
L 467.302858 353.20299 
L 482.814813 353.213571 
L 498.326768 353.220877 
L 513.838723 353.149078 
L 529.350678 353.217602 
L 544.862632 353.2239 
L 560.374587 353.200975 
L 575.886542 353.2239 
L 591.398497 353.216846 
L 606.910451 353.223648 
L 622.422406 353.152857 
L 637.934361 353.2239 
L 653.446316 353.2239 
L 668.95827 353.2239 
L 684.470225 353.221381 
L 699.98218 353.18989 
L 715.494135 353.2239 
L 731.006089 353.219365 
L 746.518044 353.223144 
L 762.029999 353.22264 
L 777.541954 353.088364 
L 793.053909 353.203242 
L 808.565863 353.183843 
L 824.077818 353.192156 
L 839.589773 353.186866 
L 855.101728 353.124638 
L 870.613682 353.189131 
L 886.125637 353.203225 
L 901.637592 353.206164 
L 917.149547 353.212799 
L 932.661501 353.176055 
L 948.173456 353.222771 
" clip-path="url(#p5d422650a7)" style="fill: none; stroke: #5cb85c; stroke-linecap: square"/>
   </g>
   <g id="line2d_48">
    <path d="M 48.48008 353.067711 
L 63.992035 350.550023 
L 79.503989 353.2239 
L 95.015944 353.223648 
L 110.527899 353.2239 
L 126.039854 353.2239 
L 141.551808 353.223648 
L 157.063763 353.222891 
L 172.575718 353.176968 
L 188.087673 353.2239 
L 203.599627 353.2239 
L 219.111582 353.2239 
L 234.623537 353.2239 
L 250.135492 353.2239 
L 265.647446 353.212798 
L 281.159401 353.213302 
L 296.671356 353.2239 
L 312.183311 353.2239 
L 327.695266 353.2239 
L 343.20722 353.204219 
L 358.719175 353.2239 
L 374.23113 353.222891 
L 389.743085 353.223395 
L 405.255039 353.2239 
L 420.766994 353.2239 
L 436.278949 353.2239 
L 451.790904 353.216835 
L 467.302858 353.203713 
L 482.814813 353.214311 
L 498.326768 353.221124 
L 513.838723 353.149964 
L 529.350678 353.217844 
L 544.862632 353.2239 
L 560.374587 353.201945 
L 575.886542 353.2239 
L 591.398497 353.217086 
L 606.910451 353.223648 
L 622.422406 353.153237 
L 637.934361 353.2239 
L 653.446316 353.2239 
L 668.95827 353.2239 
L 684.470225 353.221881 
L 699.98218 353.191591 
L 715.494135 353.2239 
L 731.006089 353.219861 
L 746.518044 353.2239 
L 762.029999 353.223143 
L 777.541954 353.095628 
L 793.053909 353.208748 
L 808.565863 353.186519 
L 824.077818 353.200911 
L 839.589773 353.195343 
L 855.101728 353.134362 
L 870.613682 353.198039 
L 886.125637 353.210372 
L 901.637592 353.215017 
L 917.149547 353.219678 
L 932.661501 353.201077 
L 948.173456 353.2239 
" clip-path="url(#p5d422650a7)" style="fill: none; stroke: #5cb85c; stroke-linecap: square"/>
   </g>
   <g id="line2d_49">
    <path d="M 48.48008 351.387118 
L 63.992035 353.1977 
L 79.503989 353.221633 
L 95.015944 353.2239 
L 110.527899 353.221381 
L 126.039854 353.219113 
L 141.551808 353.193669 
L 157.063763 353.218106 
L 172.575718 353.223648 
L 188.087673 353.206265 
L 203.599627 353.2239 
L 219.111582 353.198708 
L 234.623537 353.184348 
L 250.135492 353.21206 
L 265.647446 353.223396 
L 281.159401 353.200471 
L 296.671356 353.164446 
L 312.183311 353.219617 
L 327.695266 353.19115 
L 343.20722 353.21861 
L 358.719175 353.17805 
L 374.23113 353.208281 
L 389.743085 353.1846 
L 405.255039 353.20425 
L 420.766994 353.189386 
L 436.278949 353.219365 
L 451.790904 352.9818 
L 467.302858 353.206013 
L 482.814813 353.192913 
L 498.326768 353.218862 
L 513.838723 353.2239 
L 529.350678 353.223144 
L 544.862632 353.22264 
L 560.374587 353.217098 
L 575.886542 353.202738 
L 591.398497 353.214327 
L 606.910451 353.177042 
L 622.422406 353.20425 
L 637.934361 353.078288 
L 653.446316 353.207777 
L 668.95827 353.176034 
L 684.470225 353.210296 
L 699.98218 353.223144 
L 715.494135 353.21609 
L 731.006089 353.066447 
L 746.518044 353.223144 
L 762.029999 353.216594 
L 777.541954 353.195936 
L 793.053909 353.168476 
L 808.565863 353.184598 
L 824.077818 353.103976 
L 839.589773 353.214326 
L 855.101728 353.205508 
L 870.613682 353.188121 
L 886.125637 353.098314 
L 901.637592 353.197574 
L 917.149547 353.167184 
L 932.661501 353.198131 
L 948.173456 353.218574 
" clip-path="url(#p5d422650a7)" style="fill: none; stroke: #5cb85c; stroke-linecap: square"/>
   </g>
   <g id="line2d_50">
    <path d="M 48.48008 351.390766 
L 63.992035 353.197658 
L 79.503989 353.221629 
L 95.015944 353.2239 
L 110.527899 353.221377 
L 126.039854 353.219106 
L 141.551808 353.196397 
L 157.063763 353.218854 
L 172.575718 353.223648 
L 188.087673 353.20649 
L 203.599627 353.2239 
L 219.111582 353.202452 
L 234.623537 353.188827 
L 250.135492 353.215321 
L 265.647446 353.2239 
L 281.159401 353.204219 
L 296.671356 353.169146 
L 312.183311 353.221629 
L 327.695266 353.195892 
L 343.20722 353.218601 
L 358.719175 353.181508 
L 374.23113 353.210273 
L 389.743085 353.189578 
L 405.255039 353.208253 
L 420.766994 353.194117 
L 436.278949 353.221881 
L 451.790904 352.987107 
L 467.302858 353.205975 
L 482.814813 353.194361 
L 498.326768 353.220113 
L 513.838723 353.2239 
L 529.350678 353.223395 
L 544.862632 353.2239 
L 560.374587 353.218344 
L 575.886542 353.204958 
L 591.398497 353.216575 
L 606.910451 353.183735 
L 622.422406 353.212279 
L 637.934361 353.088733 
L 653.446316 353.211266 
L 668.95827 353.185742 
L 684.470225 353.212022 
L 699.98218 353.223647 
L 715.494135 353.221119 
L 731.006089 353.079526 
L 746.518044 353.223647 
L 762.029999 353.222383 
L 777.541954 353.212011 
L 793.053909 353.188225 
L 808.565863 353.201881 
L 824.077818 353.124907 
L 839.589773 353.22314 
L 855.101728 353.217561 
L 870.613682 353.206103 
L 886.125637 353.125 
L 901.637592 353.215234 
L 917.149547 353.185033 
L 932.661501 353.221312 
L 948.173456 353.2239 
" clip-path="url(#p5d422650a7)" style="fill: none; stroke: #5cb85c; stroke-linecap: square"/>
   </g>
   <g id="line2d_51">
    <path d="M 48.48008 353.058375 
L 63.992035 350.46636 
L 79.503989 353.2239 
L 95.015944 353.2239 
L 110.527899 353.2239 
L 126.039854 353.2239 
L 141.551808 353.223572 
L 157.063763 353.223572 
L 172.575718 353.177029 
L 188.087673 353.2239 
L 203.599627 353.2239 
L 219.111582 353.2239 
L 234.623537 353.2239 
L 250.135492 353.2239 
L 265.647446 353.213739 
L 281.159401 353.213411 
L 296.671356 353.2239 
L 312.183311 353.2239 
L 327.695266 353.2239 
L 343.20722 353.207511 
L 358.719175 353.2239 
L 374.23113 353.222917 
L 389.743085 353.223244 
L 405.255039 353.223244 
L 420.766994 353.2239 
L 436.278949 353.2239 
L 451.790904 353.216361 
L 467.302858 353.203578 
L 482.814813 353.216033 
L 498.326768 353.22095 
L 513.838723 353.159657 
L 529.350678 353.218656 
L 544.862632 353.2239 
L 560.374587 353.199973 
L 575.886542 353.2239 
L 591.398497 353.219967 
L 606.910451 353.2239 
L 622.422406 353.156379 
L 637.934361 353.2239 
L 653.446316 353.2239 
L 668.95827 353.2239 
L 684.470225 353.220295 
L 699.98218 353.191451 
L 715.494135 353.223572 
L 731.006089 353.218328 
L 746.518044 353.222589 
L 762.029999 353.221278 
L 777.541954 353.09443 
L 793.053909 353.203578 
L 808.565863 353.183911 
L 824.077818 353.197349 
L 839.589773 353.189155 
L 855.101728 353.139331 
L 870.613682 353.192103 
L 886.125637 353.2052 
L 901.637592 353.212695 
L 917.149547 353.21249 
L 932.661501 353.176742 
L 948.173456 353.221957 
" clip-path="url(#p5d422650a7)" style="fill: none; stroke: #5cb85c; stroke-linecap: square"/>
   </g>
   <g id="line2d_52">
    <path d="M 48.48008 353.058168 
L 63.992035 350.466521 
L 79.503989 353.2239 
L 95.015944 353.2239 
L 110.527899 353.2239 
L 126.039854 353.2239 
L 141.551808 353.223572 
L 157.063763 353.223572 
L 172.575718 353.17697 
L 188.087673 353.2239 
L 203.599627 353.2239 
L 219.111582 353.2239 
L 234.623537 353.2239 
L 250.135492 353.2239 
L 265.647446 353.213726 
L 281.159401 353.213398 
L 296.671356 353.2239 
L 312.183311 353.2239 
L 327.695266 353.2239 
L 343.20722 353.207491 
L 358.719175 353.2239 
L 374.23113 353.222915 
L 389.743085 353.223244 
L 405.255039 353.223244 
L 420.766994 353.2239 
L 436.278949 353.2239 
L 451.790904 353.217664 
L 467.302858 353.204864 
L 482.814813 353.217336 
L 498.326768 353.221931 
L 513.838723 353.160885 
L 529.350678 353.219962 
L 544.862632 353.2239 
L 560.374587 353.201253 
L 575.886542 353.2239 
L 591.398497 353.22029 
L 606.910451 353.2239 
L 622.422406 353.157598 
L 637.934361 353.2239 
L 653.446316 353.2239 
L 668.95827 353.2239 
L 684.470225 353.221602 
L 699.98218 353.194357 
L 715.494135 353.2239 
L 731.006089 353.219304 
L 746.518044 353.2239 
L 762.029999 353.222587 
L 777.541954 353.100121 
L 793.053909 353.208796 
L 808.565863 353.186792 
L 824.077818 353.20485 
L 839.589773 353.195646 
L 855.101728 353.147294 
L 870.613682 353.199845 
L 886.125637 353.212289 
L 901.637592 353.218809 
L 917.149547 353.219882 
L 932.661501 353.195574 
L 948.173456 353.2239 
" clip-path="url(#p5d422650a7)" style="fill: none; stroke: #5cb85c; stroke-linecap: square"/>
   </g>
   <g id="line2d_53">
    <path d="M 48.48008 351.398542 
L 63.992035 353.196367 
L 79.503989 353.22095 
L 95.015944 353.2239 
L 110.527899 353.222589 
L 126.039854 353.217017 
L 141.551808 353.198334 
L 157.063763 353.213411 
L 172.575718 353.2239 
L 188.087673 353.206528 
L 203.599627 353.223572 
L 219.111582 353.198334 
L 234.623537 353.182929 
L 250.135492 353.213411 
L 265.647446 353.223572 
L 281.159401 353.201939 
L 296.671356 353.168179 
L 312.183311 353.22095 
L 327.695266 353.195712 
L 343.20722 353.218983 
L 358.719175 353.179323 
L 374.23113 353.207511 
L 389.743085 353.188501 
L 405.255039 353.205873 
L 420.766994 353.193417 
L 436.278949 353.219967 
L 451.790904 352.995443 
L 467.302858 353.205217 
L 482.814813 353.198989 
L 498.326768 353.217672 
L 513.838723 353.2239 
L 529.350678 353.221933 
L 544.862632 353.221278 
L 560.374587 353.21505 
L 575.886542 353.204889 
L 591.398497 353.213739 
L 606.910451 353.173751 
L 622.422406 353.202595 
L 637.934361 353.090169 
L 653.446316 353.204889 
L 668.95827 353.178668 
L 684.470225 353.207184 
L 699.98218 353.222589 
L 715.494135 353.214067 
L 731.006089 353.074764 
L 746.518044 353.222261 
L 762.029999 353.214395 
L 777.541954 353.19735 
L 793.053909 353.173094 
L 808.565863 353.188499 
L 824.077818 353.108516 
L 839.589773 353.21341 
L 855.101728 353.207837 
L 870.613682 353.189148 
L 886.125637 353.1005 
L 901.637592 353.19819 
L 917.149547 353.176148 
L 932.661501 353.200685 
L 948.173456 353.218914 
" clip-path="url(#p5d422650a7)" style="fill: none; stroke: #5cb85c; stroke-linecap: square"/>
   </g>
   <g id="line2d_54">
    <path d="M 48.48008 351.402822 
L 63.992035 353.196661 
L 79.503989 353.220946 
L 95.015944 353.2239 
L 110.527899 353.222587 
L 126.039854 353.217008 
L 141.551808 353.198958 
L 157.063763 353.214383 
L 172.575718 353.2239 
L 188.087673 353.206835 
L 203.599627 353.223572 
L 219.111582 353.201912 
L 234.623537 353.186487 
L 250.135492 353.216352 
L 265.647446 353.2239 
L 281.159401 353.205522 
L 296.671356 353.171063 
L 312.183311 353.221931 
L 327.695266 353.198302 
L 343.20722 353.218977 
L 358.719175 353.181891 
L 374.23113 353.209458 
L 389.743085 353.19239 
L 405.255039 353.209786 
L 420.766994 353.197311 
L 436.278949 353.22193 
L 451.790904 352.998999 
L 467.302858 353.205184 
L 482.814813 353.199602 
L 498.326768 353.219631 
L 513.838723 353.2239 
L 529.350678 353.222586 
L 544.862632 353.222915 
L 560.374587 353.21766 
L 575.886542 353.206163 
L 591.398497 353.216674 
L 606.910451 353.178565 
L 622.422406 353.211744 
L 637.934361 353.099708 
L 653.446316 353.210099 
L 668.95827 353.186767 
L 684.470225 353.209112 
L 699.98218 353.222914 
L 715.494135 353.219298 
L 731.006089 353.086485 
L 746.518044 353.2239 
L 762.029999 353.22127 
L 777.541954 353.212719 
L 793.053909 353.191997 
L 808.565863 353.205807 
L 824.077818 353.128147 
L 839.589773 353.223242 
L 855.101728 353.218299 
L 870.613682 353.207056 
L 886.125637 353.123426 
L 901.637592 353.214692 
L 917.149547 353.191605 
L 932.661501 353.222463 
L 948.173456 353.2239 
" clip-path="url(#p5d422650a7)" style="fill: none; stroke: #5cb85c; stroke-linecap: square"/>
   </g>
   <g id="line2d_55">
    <path d="M 32.968125 353.2239 
L 993.158125 353.2239 
" clip-path="url(#p5d422650a7)" style="fill: none; stroke: #dedede; stroke-width: 2; stroke-linecap: square"/>
   </g>
   <g id="text_16">
    <!-- FastQC: Per Base N Content -->
    <g transform="translate(402.209375 19.3575) scale(0.16 -0.16)">
     <defs>
      <path id="DejaVuSans-46" d="M 628 4666 
L 3309 4666 
L 3309 4134 
L 1259 4134 
L 1259 2759 
L 3109 2759 
L 3109 2228 
L 1259 2228 
L 1259 0 
L 628 0 
L 628 4666 
z
" transform="scale(0.015625)"/>
      <path id="DejaVuSans-51" d="M 2522 4238 
Q 1834 4238 1429 3725 
Q 1025 3213 1025 2328 
Q 1025 1447 1429 934 
Q 1834 422 2522 422 
Q 3209 422 3611 934 
Q 4013 1447 4013 2328 
Q 4013 3213 3611 3725 
Q 3209 4238 2522 4238 
z
M 3406 84 
L 4238 -825 
L 3475 -825 
L 2784 -78 
Q 2681 -84 2626 -87 
Q 2572 -91 2522 -91 
Q 1538 -91 948 567 
Q 359 1225 359 2328 
Q 359 3434 948 4092 
Q 1538 4750 2522 4750 
Q 3503 4750 4090 4092 
Q 4678 3434 4678 2328 
Q 4678 1516 4351 937 
Q 4025 359 3406 84 
z
" transform="scale(0.015625)"/>
      <path id="DejaVuSans-3a" d="M 750 794 
L 1409 794 
L 1409 0 
L 750 0 
L 750 794 
z
M 750 3309 
L 1409 3309 
L 1409 2516 
L 750 2516 
L 750 3309 
z
" transform="scale(0.015625)"/>
      <path id="DejaVuSans-42" d="M 1259 2228 
L 1259 519 
L 2272 519 
Q 2781 519 3026 730 
Q 3272 941 3272 1375 
Q 3272 1813 3026 2020 
Q 2781 2228 2272 2228 
L 1259 2228 
z
M 1259 4147 
L 1259 2741 
L 2194 2741 
Q 2656 2741 2882 2914 
Q 3109 3088 3109 3444 
Q 3109 3797 2882 3972 
Q 2656 4147 2194 4147 
L 1259 4147 
z
M 628 4666 
L 2241 4666 
Q 2963 4666 3353 4366 
Q 3744 4066 3744 3513 
Q 3744 3084 3544 2831 
Q 3344 2578 2956 2516 
Q 3422 2416 3680 2098 
Q 3938 1781 3938 1306 
Q 3938 681 3513 340 
Q 3088 0 2303 0 
L 628 0 
L 628 4666 
z
" transform="scale(0.015625)"/>
     </defs>
     <use xlink:href="#DejaVuSans-46"/>
     <use xlink:href="#DejaVuSans-61" x="48.394531"/>
     <use xlink:href="#DejaVuSans-73" x="109.673828"/>
     <use xlink:href="#DejaVuSans-74" x="161.773438"/>
     <use xlink:href="#DejaVuSans-51" x="200.982422"/>
     <use xlink:href="#DejaVuSans-43" x="279.693359"/>
     <use xlink:href="#DejaVuSans-3a" x="349.517578"/>
     <use xlink:href="#DejaVuSans-20" x="383.208984"/>
     <use xlink:href="#DejaVuSans-50" x="414.996094"/>
     <use xlink:href="#DejaVuSans-65" x="471.673828"/>
     <use xlink:href="#DejaVuSans-72" x="533.197266"/>
     <use xlink:href="#DejaVuSans-20" x="574.310547"/>
     <use xlink:href="#DejaVuSans-42" x="606.097656"/>
     <use xlink:href="#DejaVuSans-61" x="674.701172"/>
     <use xlink:href="#DejaVuSans-73" x="735.980469"/>
     <use xlink:href="#DejaVuSans-65" x="788.080078"/>
     <use xlink:href="#DejaVuSans-20" x="849.603516"/>
     <use xlink:href="#DejaVuSans-4e" x="881.390625"/>
     <use xlink:href="#DejaVuSans-20" x="956.195312"/>
     <use xlink:href="#DejaVuSans-43" x="987.982422"/>
     <use xlink:href="#DejaVuSans-6f" x="1057.806641"/>
     <use xlink:href="#DejaVuSans-6e" x="1118.988281"/>
     <use xlink:href="#DejaVuSans-74" x="1182.367188"/>
     <use xlink:href="#DejaVuSans-65" x="1221.576172"/>
     <use xlink:href="#DejaVuSans-6e" x="1283.099609"/>
     <use xlink:href="#DejaVuSans-74" x="1346.478516"/>
    </g>
   </g>
  </g>
 </g>
 <defs>
  <clipPath id="p5d422650a7">
   <rect x="32.968125" y="35.2559" width="960.19" height="317.968"/>
  </clipPath>
 </defs>
</svg>
