<?xml version="1.0" encoding="utf-8" standalone="no"?>
<!DOCTYPE svg PUBLIC "-//W3C//DTD SVG 1.1//EN"
  "http://www.w3.org/Graphics/SVG/1.1/DTD/svg11.dtd">
<svg xmlns:xlink="http://www.w3.org/1999/xlink" width="1000.300625pt" height="330.541644pt" viewBox="0 0 1000.300625 330.541644" xmlns="http://www.w3.org/2000/svg" version="1.1">
 <metadata>
  <rdf:RDF xmlns:dc="http://purl.org/dc/elements/1.1/" xmlns:cc="http://creativecommons.org/ns#" xmlns:rdf="http://www.w3.org/1999/02/22-rdf-syntax-ns#">
   <cc:Work>
    <dc:type rdf:resource="http://purl.org/dc/dcmitype/StillImage"/>
    <dc:date>2026-03-23T21:32:53.564269</dc:date>
    <dc:format>image/svg+xml</dc:format>
    <dc:creator>
     <cc:Agent>
      <dc:title>Matplotlib v3.8.1, https://matplotlib.org/</dc:title>
     </cc:Agent>
    </dc:creator>
   </cc:Work>
  </rdf:RDF>
 </metadata>
 <defs>
  <style type="text/css">*{stroke-linejoin: round; stroke-linecap: butt}</style>
 </defs>
 <g id="figure_1">
  <g id="axes_1">
   <g id="patch_1">
    <path d="M 45.690625 273.99006 
L 993.100625 273.99006 
L 993.100625 31.48286 
L 45.690625 31.48286 
z
" style="fill: #ffffff"/>
   </g>
   <g id="matplotlib.axis_1">
    <g id="xtick_1">
     <g id="text_1">
      <!-- chr1 -->
      <g transform="translate(79.830966 287.06881) scale(0.08 -0.08)">
       <defs>
        <path id="DejaVuSans-63" d="M 3122 3366 
L 3122 2828 
Q 2878 2963 2633 3030 
Q 2388 3097 2138 3097 
Q 1578 3097 1268 2742 
Q 959 2388 959 1747 
Q 959 1106 1268 751 
Q 1578 397 2138 397 
Q 2388 397 2633 464 
Q 2878 531 3122 666 
L 3122 134 
Q 2881 22 2623 -34 
Q 2366 -91 2075 -91 
Q 1284 -91 818 406 
Q 353 903 353 1747 
Q 353 2603 823 3093 
Q 1294 3584 2113 3584 
Q 2378 3584 2631 3529 
Q 2884 3475 3122 3366 
z
" transform="scale(0.015625)"/>
        <path id="DejaVuSans-68" d="M 3513 2113 
L 3513 0 
L 2938 0 
L 2938 2094 
Q 2938 2591 2744 2837 
Q 2550 3084 2163 3084 
Q 1697 3084 1428 2787 
Q 1159 2491 1159 1978 
L 1159 0 
L 581 0 
L 581 4863 
L 1159 4863 
L 1159 2956 
Q 1366 3272 1645 3428 
Q 1925 3584 2291 3584 
Q 2894 3584 3203 3211 
Q 3513 2838 3513 2113 
z
" transform="scale(0.015625)"/>
        <path id="DejaVuSans-72" d="M 2631 2963 
Q 2534 3019 2420 3045 
Q 2306 3072 2169 3072 
Q 1681 3072 1420 2755 
Q 1159 2438 1159 1844 
L 1159 0 
L 581 0 
L 581 3500 
L 1159 3500 
L 1159 2956 
Q 1341 3275 1631 3429 
Q 1922 3584 2338 3584 
Q 2397 3584 2469 3576 
Q 2541 3569 2628 3553 
L 2631 2963 
z
" transform="scale(0.015625)"/>
        <path id="DejaVuSans-31" d="M 794 531 
L 1825 531 
L 1825 4091 
L 703 3866 
L 703 4441 
L 1819 4666 
L 2450 4666 
L 2450 531 
L 3481 531 
L 3481 0 
L 794 0 
L 794 531 
z
" transform="scale(0.015625)"/>
       </defs>
       <use xlink:href="#DejaVuSans-63"/>
       <use xlink:href="#DejaVuSans-68" x="54.980469"/>
       <use xlink:href="#DejaVuSans-72" x="118.359375"/>
       <use xlink:href="#DejaVuSans-31" x="159.472656"/>
      </g>
     </g>
    </g>
    <g id="xtick_2">
     <g id="text_2">
      <!-- chr2 -->
      <g transform="translate(112.95719 287.06881) scale(0.08 -0.08)">
       <defs>
        <path id="DejaVuSans-32" d="M 1228 531 
L 3431 531 
L 3431 0 
L 469 0 
L 469 531 
Q 828 903 1448 1529 
Q 2069 2156 2228 2338 
Q 2531 2678 2651 2914 
Q 2772 3150 2772 3378 
Q 2772 3750 2511 3984 
Q 2250 4219 1831 4219 
Q 1534 4219 1204 4116 
Q 875 4013 500 3803 
L 500 4441 
Q 881 4594 1212 4672 
Q 1544 4750 1819 4750 
Q 2544 4750 2975 4387 
Q 3406 4025 3406 3419 
Q 3406 3131 3298 2873 
Q 3191 2616 2906 2266 
Q 2828 2175 2409 1742 
Q 1991 1309 1228 531 
z
" transform="scale(0.015625)"/>
       </defs>
       <use xlink:href="#DejaVuSans-63"/>
       <use xlink:href="#DejaVuSans-68" x="54.980469"/>
       <use xlink:href="#DejaVuSans-72" x="118.359375"/>
       <use xlink:href="#DejaVuSans-32" x="159.472656"/>
      </g>
     </g>
    </g>
    <g id="xtick_3">
     <g id="text_3">
      <!-- chr3 -->
      <g transform="translate(146.083413 287.06881) scale(0.08 -0.08)">
       <defs>
        <path id="DejaVuSans-33" d="M 2597 2516 
Q 3050 2419 3304 2112 
Q 3559 1806 3559 1356 
Q 3559 666 3084 287 
Q 2609 -91 1734 -91 
Q 1441 -91 1130 -33 
Q 819 25 488 141 
L 488 750 
Q 750 597 1062 519 
Q 1375 441 1716 441 
Q 2309 441 2620 675 
Q 2931 909 2931 1356 
Q 2931 1769 2642 2001 
Q 2353 2234 1838 2234 
L 1294 2234 
L 1294 2753 
L 1863 2753 
Q 2328 2753 2575 2939 
Q 2822 3125 2822 3475 
Q 2822 3834 2567 4026 
Q 2313 4219 1838 4219 
Q 1578 4219 1281 4162 
Q 984 4106 628 3988 
L 628 4550 
Q 988 4650 1302 4700 
Q 1616 4750 1894 4750 
Q 2613 4750 3031 4423 
Q 3450 4097 3450 3541 
Q 3450 3153 3228 2886 
Q 3006 2619 2597 2516 
z
" transform="scale(0.015625)"/>
       </defs>
       <use xlink:href="#DejaVuSans-63"/>
       <use xlink:href="#DejaVuSans-68" x="54.980469"/>
       <use xlink:href="#DejaVuSans-72" x="118.359375"/>
       <use xlink:href="#DejaVuSans-33" x="159.472656"/>
      </g>
     </g>
    </g>
    <g id="xtick_4">
     <g id="text_4">
      <!-- chr4 -->
      <g transform="translate(179.209637 287.06881) scale(0.08 -0.08)">
       <defs>
        <path id="DejaVuSans-34" d="M 2419 4116 
L 825 1625 
L 2419 1625 
L 2419 4116 
z
M 2253 4666 
L 3047 4666 
L 3047 1625 
L 3713 1625 
L 3713 1100 
L 3047 1100 
L 3047 0 
L 2419 0 
L 2419 1100 
L 313 1100 
L 313 1709 
L 2253 4666 
z
" transform="scale(0.015625)"/>
       </defs>
       <use xlink:href="#DejaVuSans-63"/>
       <use xlink:href="#DejaVuSans-68" x="54.980469"/>
       <use xlink:href="#DejaVuSans-72" x="118.359375"/>
       <use xlink:href="#DejaVuSans-34" x="159.472656"/>
      </g>
     </g>
    </g>
    <g id="xtick_5">
     <g id="text_5">
      <!-- chr5 -->
      <g transform="translate(212.335861 287.06881) scale(0.08 -0.08)">
       <defs>
        <path id="DejaVuSans-35" d="M 691 4666 
L 3169 4666 
L 3169 4134 
L 1269 4134 
L 1269 2991 
Q 1406 3038 1543 3061 
Q 1681 3084 1819 3084 
Q 2600 3084 3056 2656 
Q 3513 2228 3513 1497 
Q 3513 744 3044 326 
Q 2575 -91 1722 -91 
Q 1428 -91 1123 -41 
Q 819 9 494 109 
L 494 744 
Q 775 591 1075 516 
Q 1375 441 1709 441 
Q 2250 441 2565 725 
Q 2881 1009 2881 1497 
Q 2881 1984 2565 2268 
Q 2250 2553 1709 2553 
Q 1456 2553 1204 2497 
Q 953 2441 691 2322 
L 691 4666 
z
" transform="scale(0.015625)"/>
       </defs>
       <use xlink:href="#DejaVuSans-63"/>
       <use xlink:href="#DejaVuSans-68" x="54.980469"/>
       <use xlink:href="#DejaVuSans-72" x="118.359375"/>
       <use xlink:href="#DejaVuSans-35" x="159.472656"/>
      </g>
     </g>
    </g>
    <g id="xtick_6">
     <g id="text_6">
      <!-- chr6 -->
      <g transform="translate(245.462085 287.06881) scale(0.08 -0.08)">
       <defs>
        <path id="DejaVuSans-36" d="M 2113 2584 
Q 1688 2584 1439 2293 
Q 1191 2003 1191 1497 
Q 1191 994 1439 701 
Q 1688 409 2113 409 
Q 2538 409 2786 701 
Q 3034 994 3034 1497 
Q 3034 2003 2786 2293 
Q 2538 2584 2113 2584 
z
M 3366 4563 
L 3366 3988 
Q 3128 4100 2886 4159 
Q 2644 4219 2406 4219 
Q 1781 4219 1451 3797 
Q 1122 3375 1075 2522 
Q 1259 2794 1537 2939 
Q 1816 3084 2150 3084 
Q 2853 3084 3261 2657 
Q 3669 2231 3669 1497 
Q 3669 778 3244 343 
Q 2819 -91 2113 -91 
Q 1303 -91 875 529 
Q 447 1150 447 2328 
Q 447 3434 972 4092 
Q 1497 4750 2381 4750 
Q 2619 4750 2861 4703 
Q 3103 4656 3366 4563 
z
" transform="scale(0.015625)"/>
       </defs>
       <use xlink:href="#DejaVuSans-63"/>
       <use xlink:href="#DejaVuSans-68" x="54.980469"/>
       <use xlink:href="#DejaVuSans-72" x="118.359375"/>
       <use xlink:href="#DejaVuSans-36" x="159.472656"/>
      </g>
     </g>
    </g>
    <g id="xtick_7">
     <g id="text_7">
      <!-- chr7 -->
      <g transform="translate(278.588309 287.06881) scale(0.08 -0.08)">
       <defs>
        <path id="DejaVuSans-37" d="M 525 4666 
L 3525 4666 
L 3525 4397 
L 1831 0 
L 1172 0 
L 2766 4134 
L 525 4134 
L 525 4666 
z
" transform="scale(0.015625)"/>
       </defs>
       <use xlink:href="#DejaVuSans-63"/>
       <use xlink:href="#DejaVuSans-68" x="54.980469"/>
       <use xlink:href="#DejaVuSans-72" x="118.359375"/>
       <use xlink:href="#DejaVuSans-37" x="159.472656"/>
      </g>
     </g>
    </g>
    <g id="xtick_8">
     <g id="text_8">
      <!-- chr8 -->
      <g transform="translate(311.714532 287.06881) scale(0.08 -0.08)">
       <defs>
        <path id="DejaVuSans-38" d="M 2034 2216 
Q 1584 2216 1326 1975 
Q 1069 1734 1069 1313 
Q 1069 891 1326 650 
Q 1584 409 2034 409 
Q 2484 409 2743 651 
Q 3003 894 3003 1313 
Q 3003 1734 2745 1975 
Q 2488 2216 2034 2216 
z
M 1403 2484 
Q 997 2584 770 2862 
Q 544 3141 544 3541 
Q 544 4100 942 4425 
Q 1341 4750 2034 4750 
Q 2731 4750 3128 4425 
Q 3525 4100 3525 3541 
Q 3525 3141 3298 2862 
Q 3072 2584 2669 2484 
Q 3125 2378 3379 2068 
Q 3634 1759 3634 1313 
Q 3634 634 3220 271 
Q 2806 -91 2034 -91 
Q 1263 -91 848 271 
Q 434 634 434 1313 
Q 434 1759 690 2068 
Q 947 2378 1403 2484 
z
M 1172 3481 
Q 1172 3119 1398 2916 
Q 1625 2713 2034 2713 
Q 2441 2713 2670 2916 
Q 2900 3119 2900 3481 
Q 2900 3844 2670 4047 
Q 2441 4250 2034 4250 
Q 1625 4250 1398 4047 
Q 1172 3844 1172 3481 
z
" transform="scale(0.015625)"/>
       </defs>
       <use xlink:href="#DejaVuSans-63"/>
       <use xlink:href="#DejaVuSans-68" x="54.980469"/>
       <use xlink:href="#DejaVuSans-72" x="118.359375"/>
       <use xlink:href="#DejaVuSans-38" x="159.472656"/>
      </g>
     </g>
    </g>
    <g id="xtick_9">
     <g id="text_9">
      <!-- chr9 -->
      <g transform="translate(344.840756 287.06881) scale(0.08 -0.08)">
       <defs>
        <path id="DejaVuSans-39" d="M 703 97 
L 703 672 
Q 941 559 1184 500 
Q 1428 441 1663 441 
Q 2288 441 2617 861 
Q 2947 1281 2994 2138 
Q 2813 1869 2534 1725 
Q 2256 1581 1919 1581 
Q 1219 1581 811 2004 
Q 403 2428 403 3163 
Q 403 3881 828 4315 
Q 1253 4750 1959 4750 
Q 2769 4750 3195 4129 
Q 3622 3509 3622 2328 
Q 3622 1225 3098 567 
Q 2575 -91 1691 -91 
Q 1453 -91 1209 -44 
Q 966 3 703 97 
z
M 1959 2075 
Q 2384 2075 2632 2365 
Q 2881 2656 2881 3163 
Q 2881 3666 2632 3958 
Q 2384 4250 1959 4250 
Q 1534 4250 1286 3958 
Q 1038 3666 1038 3163 
Q 1038 2656 1286 2365 
Q 1534 2075 1959 2075 
z
" transform="scale(0.015625)"/>
       </defs>
       <use xlink:href="#DejaVuSans-63"/>
       <use xlink:href="#DejaVuSans-68" x="54.980469"/>
       <use xlink:href="#DejaVuSans-72" x="118.359375"/>
       <use xlink:href="#DejaVuSans-39" x="159.472656"/>
      </g>
     </g>
    </g>
    <g id="xtick_10">
     <g id="text_10">
      <!-- chr10 -->
      <g transform="translate(375.42198 287.06881) scale(0.08 -0.08)">
       <defs>
        <path id="DejaVuSans-30" d="M 2034 4250 
Q 1547 4250 1301 3770 
Q 1056 3291 1056 2328 
Q 1056 1369 1301 889 
Q 1547 409 2034 409 
Q 2525 409 2770 889 
Q 3016 1369 3016 2328 
Q 3016 3291 2770 3770 
Q 2525 4250 2034 4250 
z
M 2034 4750 
Q 2819 4750 3233 4129 
Q 3647 3509 3647 2328 
Q 3647 1150 3233 529 
Q 2819 -91 2034 -91 
Q 1250 -91 836 529 
Q 422 1150 422 2328 
Q 422 3509 836 4129 
Q 1250 4750 2034 4750 
z
" transform="scale(0.015625)"/>
       </defs>
       <use xlink:href="#DejaVuSans-63"/>
       <use xlink:href="#DejaVuSans-68" x="54.980469"/>
       <use xlink:href="#DejaVuSans-72" x="118.359375"/>
       <use xlink:href="#DejaVuSans-31" x="159.472656"/>
       <use xlink:href="#DejaVuSans-30" x="223.095703"/>
      </g>
     </g>
    </g>
    <g id="xtick_11">
     <g id="text_11">
      <!-- chr11 -->
      <g transform="translate(408.548204 287.06881) scale(0.08 -0.08)">
       <use xlink:href="#DejaVuSans-63"/>
       <use xlink:href="#DejaVuSans-68" x="54.980469"/>
       <use xlink:href="#DejaVuSans-72" x="118.359375"/>
       <use xlink:href="#DejaVuSans-31" x="159.472656"/>
       <use xlink:href="#DejaVuSans-31" x="223.095703"/>
      </g>
     </g>
    </g>
    <g id="xtick_12">
     <g id="text_12">
      <!-- chr12 -->
      <g transform="translate(441.674427 287.06881) scale(0.08 -0.08)">
       <use xlink:href="#DejaVuSans-63"/>
       <use xlink:href="#DejaVuSans-68" x="54.980469"/>
       <use xlink:href="#DejaVuSans-72" x="118.359375"/>
       <use xlink:href="#DejaVuSans-31" x="159.472656"/>
       <use xlink:href="#DejaVuSans-32" x="223.095703"/>
      </g>
     </g>
    </g>
    <g id="xtick_13">
     <g id="text_13">
      <!-- chr13 -->
      <g transform="translate(474.800651 287.06881) scale(0.08 -0.08)">
       <use xlink:href="#DejaVuSans-63"/>
       <use xlink:href="#DejaVuSans-68" x="54.980469"/>
       <use xlink:href="#DejaVuSans-72" x="118.359375"/>
       <use xlink:href="#DejaVuSans-31" x="159.472656"/>
       <use xlink:href="#DejaVuSans-33" x="223.095703"/>
      </g>
     </g>
    </g>
    <g id="xtick_14">
     <g id="text_14">
      <!-- chr14 -->
      <g transform="translate(507.926875 287.06881) scale(0.08 -0.08)">
       <use xlink:href="#DejaVuSans-63"/>
       <use xlink:href="#DejaVuSans-68" x="54.980469"/>
       <use xlink:href="#DejaVuSans-72" x="118.359375"/>
       <use xlink:href="#DejaVuSans-31" x="159.472656"/>
       <use xlink:href="#DejaVuSans-34" x="223.095703"/>
      </g>
     </g>
    </g>
    <g id="xtick_15">
     <g id="text_15">
      <!-- chr15 -->
      <g transform="translate(541.053099 287.06881) scale(0.08 -0.08)">
       <use xlink:href="#DejaVuSans-63"/>
       <use xlink:href="#DejaVuSans-68" x="54.980469"/>
       <use xlink:href="#DejaVuSans-72" x="118.359375"/>
       <use xlink:href="#DejaVuSans-31" x="159.472656"/>
       <use xlink:href="#DejaVuSans-35" x="223.095703"/>
      </g>
     </g>
    </g>
    <g id="xtick_16">
     <g id="text_16">
      <!-- chr16 -->
      <g transform="translate(574.179323 287.06881) scale(0.08 -0.08)">
       <use xlink:href="#DejaVuSans-63"/>
       <use xlink:href="#DejaVuSans-68" x="54.980469"/>
       <use xlink:href="#DejaVuSans-72" x="118.359375"/>
       <use xlink:href="#DejaVuSans-31" x="159.472656"/>
       <use xlink:href="#DejaVuSans-36" x="223.095703"/>
      </g>
     </g>
    </g>
    <g id="xtick_17">
     <g id="text_17">
      <!-- chr17 -->
      <g transform="translate(607.305546 287.06881) scale(0.08 -0.08)">
       <use xlink:href="#DejaVuSans-63"/>
       <use xlink:href="#DejaVuSans-68" x="54.980469"/>
       <use xlink:href="#DejaVuSans-72" x="118.359375"/>
       <use xlink:href="#DejaVuSans-31" x="159.472656"/>
       <use xlink:href="#DejaVuSans-37" x="223.095703"/>
      </g>
     </g>
    </g>
    <g id="xtick_18">
     <g id="text_18">
      <!-- chr18 -->
      <g transform="translate(640.43177 287.06881) scale(0.08 -0.08)">
       <use xlink:href="#DejaVuSans-63"/>
       <use xlink:href="#DejaVuSans-68" x="54.980469"/>
       <use xlink:href="#DejaVuSans-72" x="118.359375"/>
       <use xlink:href="#DejaVuSans-31" x="159.472656"/>
       <use xlink:href="#DejaVuSans-38" x="223.095703"/>
      </g>
     </g>
    </g>
    <g id="xtick_19">
     <g id="text_19">
      <!-- chr19 -->
      <g transform="translate(673.557994 287.06881) scale(0.08 -0.08)">
       <use xlink:href="#DejaVuSans-63"/>
       <use xlink:href="#DejaVuSans-68" x="54.980469"/>
       <use xlink:href="#DejaVuSans-72" x="118.359375"/>
       <use xlink:href="#DejaVuSans-31" x="159.472656"/>
       <use xlink:href="#DejaVuSans-39" x="223.095703"/>
      </g>
     </g>
    </g>
    <g id="xtick_20">
     <g id="text_20">
      <!-- chr20 -->
      <g transform="translate(706.684218 287.06881) scale(0.08 -0.08)">
       <use xlink:href="#DejaVuSans-63"/>
       <use xlink:href="#DejaVuSans-68" x="54.980469"/>
       <use xlink:href="#DejaVuSans-72" x="118.359375"/>
       <use xlink:href="#DejaVuSans-32" x="159.472656"/>
       <use xlink:href="#DejaVuSans-30" x="223.095703"/>
      </g>
     </g>
    </g>
    <g id="xtick_21">
     <g id="text_21">
      <!-- chr21 -->
      <g transform="translate(739.810441 287.06881) scale(0.08 -0.08)">
       <use xlink:href="#DejaVuSans-63"/>
       <use xlink:href="#DejaVuSans-68" x="54.980469"/>
       <use xlink:href="#DejaVuSans-72" x="118.359375"/>
       <use xlink:href="#DejaVuSans-32" x="159.472656"/>
       <use xlink:href="#DejaVuSans-31" x="223.095703"/>
      </g>
     </g>
    </g>
    <g id="xtick_22">
     <g id="text_22">
      <!-- chr22 -->
      <g transform="translate(772.936665 287.06881) scale(0.08 -0.08)">
       <use xlink:href="#DejaVuSans-63"/>
       <use xlink:href="#DejaVuSans-68" x="54.980469"/>
       <use xlink:href="#DejaVuSans-72" x="118.359375"/>
       <use xlink:href="#DejaVuSans-32" x="159.472656"/>
       <use xlink:href="#DejaVuSans-32" x="223.095703"/>
      </g>
     </g>
    </g>
    <g id="xtick_23">
     <g id="text_23">
      <!-- chrX -->
      <g transform="translate(808.412889 287.06881) scale(0.08 -0.08)">
       <defs>
        <path id="DejaVuSans-58" d="M 403 4666 
L 1081 4666 
L 2241 2931 
L 3406 4666 
L 4084 4666 
L 2584 2425 
L 4184 0 
L 3506 0 
L 2194 1984 
L 872 0 
L 191 0 
L 1856 2491 
L 403 4666 
z
" transform="scale(0.015625)"/>
       </defs>
       <use xlink:href="#DejaVuSans-63"/>
       <use xlink:href="#DejaVuSans-68" x="54.980469"/>
       <use xlink:href="#DejaVuSans-72" x="118.359375"/>
       <use xlink:href="#DejaVuSans-58" x="159.472656"/>
      </g>
     </g>
    </g>
    <g id="xtick_24">
     <g id="text_24">
      <!-- chrY -->
      <g transform="translate(841.835988 287.06881) scale(0.08 -0.08)">
       <defs>
        <path id="DejaVuSans-59" d="M -13 4666 
L 666 4666 
L 1959 2747 
L 3244 4666 
L 3922 4666 
L 2272 2222 
L 2272 0 
L 1638 0 
L 1638 2222 
L -13 4666 
z
" transform="scale(0.015625)"/>
       </defs>
       <use xlink:href="#DejaVuSans-63"/>
       <use xlink:href="#DejaVuSans-68" x="54.980469"/>
       <use xlink:href="#DejaVuSans-72" x="118.359375"/>
       <use xlink:href="#DejaVuSans-59" x="159.472656"/>
      </g>
     </g>
    </g>
    <g id="xtick_25">
     <g id="text_25">
      <!-- chrM -->
      <g transform="translate(873.954087 287.06881) scale(0.08 -0.08)">
       <defs>
        <path id="DejaVuSans-4d" d="M 628 4666 
L 1569 4666 
L 2759 1491 
L 3956 4666 
L 4897 4666 
L 4897 0 
L 4281 0 
L 4281 4097 
L 3078 897 
L 2444 897 
L 1241 4097 
L 1241 0 
L 628 0 
L 628 4666 
z
" transform="scale(0.015625)"/>
       </defs>
       <use xlink:href="#DejaVuSans-63"/>
       <use xlink:href="#DejaVuSans-68" x="54.980469"/>
       <use xlink:href="#DejaVuSans-72" x="118.359375"/>
       <use xlink:href="#DejaVuSans-4d" x="159.472656"/>
      </g>
     </g>
    </g>
    <g id="xtick_26">
     <g id="text_26">
      <!-- GL000220.1 -->
      <g transform="translate(892.495935 287.06881) scale(0.08 -0.08)">
       <defs>
        <path id="DejaVuSans-47" d="M 3809 666 
L 3809 1919 
L 2778 1919 
L 2778 2438 
L 4434 2438 
L 4434 434 
Q 4069 175 3628 42 
Q 3188 -91 2688 -91 
Q 1594 -91 976 548 
Q 359 1188 359 2328 
Q 359 3472 976 4111 
Q 1594 4750 2688 4750 
Q 3144 4750 3555 4637 
Q 3966 4525 4313 4306 
L 4313 3634 
Q 3963 3931 3569 4081 
Q 3175 4231 2741 4231 
Q 1884 4231 1454 3753 
Q 1025 3275 1025 2328 
Q 1025 1384 1454 906 
Q 1884 428 2741 428 
Q 3075 428 3337 486 
Q 3600 544 3809 666 
z
" transform="scale(0.015625)"/>
        <path id="DejaVuSans-4c" d="M 628 4666 
L 1259 4666 
L 1259 531 
L 3531 531 
L 3531 0 
L 628 0 
L 628 4666 
z
" transform="scale(0.015625)"/>
        <path id="DejaVuSans-2e" d="M 684 794 
L 1344 794 
L 1344 0 
L 684 0 
L 684 794 
z
" transform="scale(0.015625)"/>
       </defs>
       <use xlink:href="#DejaVuSans-47"/>
       <use xlink:href="#DejaVuSans-4c" x="77.490234"/>
       <use xlink:href="#DejaVuSans-30" x="133.203125"/>
       <use xlink:href="#DejaVuSans-30" x="196.826172"/>
       <use xlink:href="#DejaVuSans-30" x="260.449219"/>
       <use xlink:href="#DejaVuSans-32" x="324.072266"/>
       <use xlink:href="#DejaVuSans-32" x="387.695312"/>
       <use xlink:href="#DejaVuSans-30" x="451.318359"/>
       <use xlink:href="#DejaVuSans-2e" x="514.941406"/>
       <use xlink:href="#DejaVuSans-31" x="546.728516"/>
      </g>
     </g>
    </g>
    <g id="xtick_27">
     <g id="text_27">
      <!-- KI270733.1 -->
      <g transform="translate(927.147159 287.06881) scale(0.08 -0.08)">
       <defs>
        <path id="DejaVuSans-4b" d="M 628 4666 
L 1259 4666 
L 1259 2694 
L 3353 4666 
L 4166 4666 
L 1850 2491 
L 4331 0 
L 3500 0 
L 1259 2247 
L 1259 0 
L 628 0 
L 628 4666 
z
" transform="scale(0.015625)"/>
        <path id="DejaVuSans-49" d="M 628 4666 
L 1259 4666 
L 1259 0 
L 628 0 
L 628 4666 
z
" transform="scale(0.015625)"/>
       </defs>
       <use xlink:href="#DejaVuSans-4b"/>
       <use xlink:href="#DejaVuSans-49" x="65.576172"/>
       <use xlink:href="#DejaVuSans-32" x="95.068359"/>
       <use xlink:href="#DejaVuSans-37" x="158.691406"/>
       <use xlink:href="#DejaVuSans-30" x="222.314453"/>
       <use xlink:href="#DejaVuSans-37" x="285.9375"/>
       <use xlink:href="#DejaVuSans-33" x="349.560547"/>
       <use xlink:href="#DejaVuSans-33" x="413.183594"/>
       <use xlink:href="#DejaVuSans-2e" x="476.806641"/>
       <use xlink:href="#DejaVuSans-31" x="508.59375"/>
      </g>
     </g>
    </g>
    <g id="text_28">
     <!-- Chromosome Name -->
     <g transform="translate(469.851875 300.330997) scale(0.1 -0.1)">
      <defs>
       <path id="DejaVuSans-43" d="M 4122 4306 
L 4122 3641 
Q 3803 3938 3442 4084 
Q 3081 4231 2675 4231 
Q 1875 4231 1450 3742 
Q 1025 3253 1025 2328 
Q 1025 1406 1450 917 
Q 1875 428 2675 428 
Q 3081 428 3442 575 
Q 3803 722 4122 1019 
L 4122 359 
Q 3791 134 3420 21 
Q 3050 -91 2638 -91 
Q 1578 -91 968 557 
Q 359 1206 359 2328 
Q 359 3453 968 4101 
Q 1578 4750 2638 4750 
Q 3056 4750 3426 4639 
Q 3797 4528 4122 4306 
z
" transform="scale(0.015625)"/>
       <path id="DejaVuSans-6f" d="M 1959 3097 
Q 1497 3097 1228 2736 
Q 959 2375 959 1747 
Q 959 1119 1226 758 
Q 1494 397 1959 397 
Q 2419 397 2687 759 
Q 2956 1122 2956 1747 
Q 2956 2369 2687 2733 
Q 2419 3097 1959 3097 
z
M 1959 3584 
Q 2709 3584 3137 3096 
Q 3566 2609 3566 1747 
Q 3566 888 3137 398 
Q 2709 -91 1959 -91 
Q 1206 -91 779 398 
Q 353 888 353 1747 
Q 353 2609 779 3096 
Q 1206 3584 1959 3584 
z
" transform="scale(0.015625)"/>
       <path id="DejaVuSans-6d" d="M 3328 2828 
Q 3544 3216 3844 3400 
Q 4144 3584 4550 3584 
Q 5097 3584 5394 3201 
Q 5691 2819 5691 2113 
L 5691 0 
L 5113 0 
L 5113 2094 
Q 5113 2597 4934 2840 
Q 4756 3084 4391 3084 
Q 3944 3084 3684 2787 
Q 3425 2491 3425 1978 
L 3425 0 
L 2847 0 
L 2847 2094 
Q 2847 2600 2669 2842 
Q 2491 3084 2119 3084 
Q 1678 3084 1418 2786 
Q 1159 2488 1159 1978 
L 1159 0 
L 581 0 
L 581 3500 
L 1159 3500 
L 1159 2956 
Q 1356 3278 1631 3431 
Q 1906 3584 2284 3584 
Q 2666 3584 2933 3390 
Q 3200 3197 3328 2828 
z
" transform="scale(0.015625)"/>
       <path id="DejaVuSans-73" d="M 2834 3397 
L 2834 2853 
Q 2591 2978 2328 3040 
Q 2066 3103 1784 3103 
Q 1356 3103 1142 2972 
Q 928 2841 928 2578 
Q 928 2378 1081 2264 
Q 1234 2150 1697 2047 
L 1894 2003 
Q 2506 1872 2764 1633 
Q 3022 1394 3022 966 
Q 3022 478 2636 193 
Q 2250 -91 1575 -91 
Q 1294 -91 989 -36 
Q 684 19 347 128 
L 347 722 
Q 666 556 975 473 
Q 1284 391 1588 391 
Q 1994 391 2212 530 
Q 2431 669 2431 922 
Q 2431 1156 2273 1281 
Q 2116 1406 1581 1522 
L 1381 1569 
Q 847 1681 609 1914 
Q 372 2147 372 2553 
Q 372 3047 722 3315 
Q 1072 3584 1716 3584 
Q 2034 3584 2315 3537 
Q 2597 3491 2834 3397 
z
" transform="scale(0.015625)"/>
       <path id="DejaVuSans-65" d="M 3597 1894 
L 3597 1613 
L 953 1613 
Q 991 1019 1311 708 
Q 1631 397 2203 397 
Q 2534 397 2845 478 
Q 3156 559 3463 722 
L 3463 178 
Q 3153 47 2828 -22 
Q 2503 -91 2169 -91 
Q 1331 -91 842 396 
Q 353 884 353 1716 
Q 353 2575 817 3079 
Q 1281 3584 2069 3584 
Q 2775 3584 3186 3129 
Q 3597 2675 3597 1894 
z
M 3022 2063 
Q 3016 2534 2758 2815 
Q 2500 3097 2075 3097 
Q 1594 3097 1305 2825 
Q 1016 2553 972 2059 
L 3022 2063 
z
" transform="scale(0.015625)"/>
       <path id="DejaVuSans-20" transform="scale(0.015625)"/>
       <path id="DejaVuSans-4e" d="M 628 4666 
L 1478 4666 
L 3547 763 
L 3547 4666 
L 4159 4666 
L 4159 0 
L 3309 0 
L 1241 3903 
L 1241 0 
L 628 0 
L 628 4666 
z
" transform="scale(0.015625)"/>
       <path id="DejaVuSans-61" d="M 2194 1759 
Q 1497 1759 1228 1600 
Q 959 1441 959 1056 
Q 959 750 1161 570 
Q 1363 391 1709 391 
Q 2188 391 2477 730 
Q 2766 1069 2766 1631 
L 2766 1759 
L 2194 1759 
z
M 3341 1997 
L 3341 0 
L 2766 0 
L 2766 531 
Q 2569 213 2275 61 
Q 1981 -91 1556 -91 
Q 1019 -91 701 211 
Q 384 513 384 1019 
Q 384 1609 779 1909 
Q 1175 2209 1959 2209 
L 2766 2209 
L 2766 2266 
Q 2766 2663 2505 2880 
Q 2244 3097 1772 3097 
Q 1472 3097 1187 3025 
Q 903 2953 641 2809 
L 641 3341 
Q 956 3463 1253 3523 
Q 1550 3584 1831 3584 
Q 2591 3584 2966 3190 
Q 3341 2797 3341 1997 
z
" transform="scale(0.015625)"/>
      </defs>
      <use xlink:href="#DejaVuSans-43"/>
      <use xlink:href="#DejaVuSans-68" x="69.824219"/>
      <use xlink:href="#DejaVuSans-72" x="133.203125"/>
      <use xlink:href="#DejaVuSans-6f" x="172.066406"/>
      <use xlink:href="#DejaVuSans-6d" x="233.248047"/>
      <use xlink:href="#DejaVuSans-6f" x="330.660156"/>
      <use xlink:href="#DejaVuSans-73" x="391.841797"/>
      <use xlink:href="#DejaVuSans-6f" x="443.941406"/>
      <use xlink:href="#DejaVuSans-6d" x="505.123047"/>
      <use xlink:href="#DejaVuSans-65" x="602.535156"/>
      <use xlink:href="#DejaVuSans-20" x="664.058594"/>
      <use xlink:href="#DejaVuSans-4e" x="695.845703"/>
      <use xlink:href="#DejaVuSans-61" x="770.650391"/>
      <use xlink:href="#DejaVuSans-6d" x="831.929688"/>
      <use xlink:href="#DejaVuSans-65" x="929.341797"/>
     </g>
    </g>
   </g>
   <g id="matplotlib.axis_2">
    <g id="ytick_1">
     <g id="line2d_1">
      <path d="M 45.690625 263.699669 
L 993.100625 263.699669 
" clip-path="url(#pf51e8c61f7)" style="fill: none; stroke: #dedede; stroke-linecap: square"/>
     </g>
     <g id="text_29">
      <!-- 0.00 -->
      <g transform="translate(20.878125 266.739044) scale(0.08 -0.08)">
       <use xlink:href="#DejaVuSans-30"/>
       <use xlink:href="#DejaVuSans-2e" x="63.623047"/>
       <use xlink:href="#DejaVuSans-30" x="95.410156"/>
       <use xlink:href="#DejaVuSans-30" x="159.033203"/>
      </g>
     </g>
    </g>
    <g id="ytick_2">
     <g id="line2d_2">
      <path d="M 45.690625 224.671399 
L 993.100625 224.671399 
" clip-path="url(#pf51e8c61f7)" style="fill: none; stroke: #dedede; stroke-linecap: square"/>
     </g>
     <g id="text_30">
      <!-- 0.05 -->
      <g transform="translate(20.878125 227.710774) scale(0.08 -0.08)">
       <use xlink:href="#DejaVuSans-30"/>
       <use xlink:href="#DejaVuSans-2e" x="63.623047"/>
       <use xlink:href="#DejaVuSans-30" x="95.410156"/>
       <use xlink:href="#DejaVuSans-35" x="159.033203"/>
      </g>
     </g>
    </g>
    <g id="ytick_3">
     <g id="line2d_3">
      <path d="M 45.690625 185.643129 
L 993.100625 185.643129 
" clip-path="url(#pf51e8c61f7)" style="fill: none; stroke: #dedede; stroke-linecap: square"/>
     </g>
     <g id="text_31">
      <!-- 0.10 -->
      <g transform="translate(20.878125 188.682504) scale(0.08 -0.08)">
       <use xlink:href="#DejaVuSans-30"/>
       <use xlink:href="#DejaVuSans-2e" x="63.623047"/>
       <use xlink:href="#DejaVuSans-31" x="95.410156"/>
       <use xlink:href="#DejaVuSans-30" x="159.033203"/>
      </g>
     </g>
    </g>
    <g id="ytick_4">
     <g id="line2d_4">
      <path d="M 45.690625 146.614859 
L 993.100625 146.614859 
" clip-path="url(#pf51e8c61f7)" style="fill: none; stroke: #dedede; stroke-linecap: square"/>
     </g>
     <g id="text_32">
      <!-- 0.15 -->
      <g transform="translate(20.878125 149.654234) scale(0.08 -0.08)">
       <use xlink:href="#DejaVuSans-30"/>
       <use xlink:href="#DejaVuSans-2e" x="63.623047"/>
       <use xlink:href="#DejaVuSans-31" x="95.410156"/>
       <use xlink:href="#DejaVuSans-35" x="159.033203"/>
      </g>
     </g>
    </g>
    <g id="ytick_5">
     <g id="line2d_5">
      <path d="M 45.690625 107.586589 
L 993.100625 107.586589 
" clip-path="url(#pf51e8c61f7)" style="fill: none; stroke: #dedede; stroke-linecap: square"/>
     </g>
     <g id="text_33">
      <!-- 0.20 -->
      <g transform="translate(20.878125 110.625964) scale(0.08 -0.08)">
       <use xlink:href="#DejaVuSans-30"/>
       <use xlink:href="#DejaVuSans-2e" x="63.623047"/>
       <use xlink:href="#DejaVuSans-32" x="95.410156"/>
       <use xlink:href="#DejaVuSans-30" x="159.033203"/>
      </g>
     </g>
    </g>
    <g id="ytick_6">
     <g id="line2d_6">
      <path d="M 45.690625 68.558319 
L 993.100625 68.558319 
" clip-path="url(#pf51e8c61f7)" style="fill: none; stroke: #dedede; stroke-linecap: square"/>
     </g>
     <g id="text_34">
      <!-- 0.25 -->
      <g transform="translate(20.878125 71.597694) scale(0.08 -0.08)">
       <use xlink:href="#DejaVuSans-30"/>
       <use xlink:href="#DejaVuSans-2e" x="63.623047"/>
       <use xlink:href="#DejaVuSans-32" x="95.410156"/>
       <use xlink:href="#DejaVuSans-35" x="159.033203"/>
      </g>
     </g>
    </g>
    <g id="text_35">
     <!-- Fraction of total count -->
     <g transform="translate(14.798438 207.821616) rotate(-90) scale(0.1 -0.1)">
      <defs>
       <path id="DejaVuSans-46" d="M 628 4666 
L 3309 4666 
L 3309 4134 
L 1259 4134 
L 1259 2759 
L 3109 2759 
L 3109 2228 
L 1259 2228 
L 1259 0 
L 628 0 
L 628 4666 
z
" transform="scale(0.015625)"/>
       <path id="DejaVuSans-74" d="M 1172 4494 
L 1172 3500 
L 2356 3500 
L 2356 3053 
L 1172 3053 
L 1172 1153 
Q 1172 725 1289 603 
Q 1406 481 1766 481 
L 2356 481 
L 2356 0 
L 1766 0 
Q 1100 0 847 248 
Q 594 497 594 1153 
L 594 3053 
L 172 3053 
L 172 3500 
L 594 3500 
L 594 4494 
L 1172 4494 
z
" transform="scale(0.015625)"/>
       <path id="DejaVuSans-69" d="M 603 3500 
L 1178 3500 
L 1178 0 
L 603 0 
L 603 3500 
z
M 603 4863 
L 1178 4863 
L 1178 4134 
L 603 4134 
L 603 4863 
z
" transform="scale(0.015625)"/>
       <path id="DejaVuSans-6e" d="M 3513 2113 
L 3513 0 
L 2938 0 
L 2938 2094 
Q 2938 2591 2744 2837 
Q 2550 3084 2163 3084 
Q 1697 3084 1428 2787 
Q 1159 2491 1159 1978 
L 1159 0 
L 581 0 
L 581 3500 
L 1159 3500 
L 1159 2956 
Q 1366 3272 1645 3428 
Q 1925 3584 2291 3584 
Q 2894 3584 3203 3211 
Q 3513 2838 3513 2113 
z
" transform="scale(0.015625)"/>
       <path id="DejaVuSans-66" d="M 2375 4863 
L 2375 4384 
L 1825 4384 
Q 1516 4384 1395 4259 
Q 1275 4134 1275 3809 
L 1275 3500 
L 2222 3500 
L 2222 3053 
L 1275 3053 
L 1275 0 
L 697 0 
L 697 3053 
L 147 3053 
L 147 3500 
L 697 3500 
L 697 3744 
Q 697 4328 969 4595 
Q 1241 4863 1831 4863 
L 2375 4863 
z
" transform="scale(0.015625)"/>
       <path id="DejaVuSans-6c" d="M 603 4863 
L 1178 4863 
L 1178 0 
L 603 0 
L 603 4863 
z
" transform="scale(0.015625)"/>
       <path id="DejaVuSans-75" d="M 544 1381 
L 544 3500 
L 1119 3500 
L 1119 1403 
Q 1119 906 1312 657 
Q 1506 409 1894 409 
Q 2359 409 2629 706 
Q 2900 1003 2900 1516 
L 2900 3500 
L 3475 3500 
L 3475 0 
L 2900 0 
L 2900 538 
Q 2691 219 2414 64 
Q 2138 -91 1772 -91 
Q 1169 -91 856 284 
Q 544 659 544 1381 
z
M 1991 3584 
L 1991 3584 
z
" transform="scale(0.015625)"/>
      </defs>
      <use xlink:href="#DejaVuSans-46"/>
      <use xlink:href="#DejaVuSans-72" x="50.269531"/>
      <use xlink:href="#DejaVuSans-61" x="91.382812"/>
      <use xlink:href="#DejaVuSans-63" x="152.662109"/>
      <use xlink:href="#DejaVuSans-74" x="207.642578"/>
      <use xlink:href="#DejaVuSans-69" x="246.851562"/>
      <use xlink:href="#DejaVuSans-6f" x="274.634766"/>
      <use xlink:href="#DejaVuSans-6e" x="335.816406"/>
      <use xlink:href="#DejaVuSans-20" x="399.195312"/>
      <use xlink:href="#DejaVuSans-6f" x="430.982422"/>
      <use xlink:href="#DejaVuSans-66" x="492.164062"/>
      <use xlink:href="#DejaVuSans-20" x="527.369141"/>
      <use xlink:href="#DejaVuSans-74" x="559.15625"/>
      <use xlink:href="#DejaVuSans-6f" x="598.365234"/>
      <use xlink:href="#DejaVuSans-74" x="659.546875"/>
      <use xlink:href="#DejaVuSans-61" x="698.755859"/>
      <use xlink:href="#DejaVuSans-6c" x="760.035156"/>
      <use xlink:href="#DejaVuSans-20" x="787.818359"/>
      <use xlink:href="#DejaVuSans-63" x="819.605469"/>
      <use xlink:href="#DejaVuSans-6f" x="874.585938"/>
      <use xlink:href="#DejaVuSans-75" x="935.767578"/>
      <use xlink:href="#DejaVuSans-6e" x="999.146484"/>
      <use xlink:href="#DejaVuSans-74" x="1062.525391"/>
     </g>
    </g>
   </g>
   <g id="line2d_7">
    <path d="M 88.754716 197.470852 
L 121.88094 219.572413 
L 155.007163 235.118825 
L 188.133387 245.461532 
L 221.259611 237.086049 
L 254.385835 224.061299 
L 287.512059 232.346685 
L 320.638282 243.631734 
L 353.764506 238.804275 
L 386.89073 247.263339 
L 420.016954 230.911853 
L 453.143177 218.794043 
L 486.269401 251.111221 
L 519.395625 238.53493 
L 552.521849 241.304498 
L 585.648073 242.320935 
L 618.774296 227.822432 
L 651.90052 259.506687 
L 685.026744 227.433326 
L 718.152968 246.170261 
L 751.279191 237.078308 
L 784.405415 240.658253 
L 817.531639 234.615405 
L 850.657863 262.428544 
L 883.784087 154.787053 
L 916.91031 252.851977 
L 950.036534 252.533811 
" clip-path="url(#pf51e8c61f7)" style="fill: none; stroke: #7cb5ec; stroke-linecap: square"/>
   </g>
   <g id="line2d_8">
    <path d="M 88.754716 181.178365 
L 121.88094 221.646426 
L 155.007163 237.232009 
L 188.133387 246.6589 
L 221.259611 241.749886 
L 254.385835 228.78798 
L 287.512059 232.563421 
L 320.638282 245.492606 
L 353.764506 243.692452 
L 386.89073 247.01999 
L 420.016954 231.682181 
L 453.143177 216.797801 
L 486.269401 255.499314 
L 519.395625 242.844588 
L 552.521849 241.673226 
L 585.648073 241.105283 
L 618.774296 228.307833 
L 651.90052 256.737184 
L 685.026744 219.187941 
L 718.152968 251.926085 
L 751.279191 239.333602 
L 784.405415 250.917948 
L 817.531639 248.533844 
L 850.657863 262.945047 
L 883.784087 117.529457 
L 916.91031 254.392672 
L 950.036534 254.143504 
" clip-path="url(#pf51e8c61f7)" style="fill: none; stroke: #434348; stroke-linecap: square"/>
   </g>
   <g id="line2d_9">
    <path d="M 88.754716 204.925361 
L 121.88094 208.765164 
L 155.007163 239.602552 
L 188.133387 244.819284 
L 221.259611 235.384648 
L 254.385835 205.069245 
L 287.512059 233.095361 
L 320.638282 246.930504 
L 353.764506 241.582577 
L 386.89073 245.291696 
L 420.016954 225.196187 
L 453.143177 210.28259 
L 486.269401 252.873977 
L 519.395625 238.336416 
L 552.521849 243.523444 
L 585.648073 242.875204 
L 618.774296 228.587438 
L 651.90052 258.204784 
L 685.026744 222.82652 
L 718.152968 252.07581 
L 751.279191 209.16492 
L 784.405415 246.044267 
L 817.531639 244.878879 
L 850.657863 262.42473 
L 883.784087 219.998454 
L 916.91031 238.82466 
L 950.036534 238.223907 
" clip-path="url(#pf51e8c61f7)" style="fill: none; stroke: #90ed7d; stroke-linecap: square"/>
   </g>
   <g id="line2d_10">
    <path d="M 88.754716 206.9435 
L 121.88094 223.019094 
L 155.007163 243.686545 
L 188.133387 249.804285 
L 221.259611 243.524389 
L 254.385835 231.483028 
L 287.512059 242.802531 
L 320.638282 250.395942 
L 353.764506 246.226663 
L 386.89073 250.035096 
L 420.016954 235.802467 
L 453.143177 229.253241 
L 486.269401 255.91588 
L 519.395625 229.484942 
L 552.521849 249.202565 
L 585.648073 247.918971 
L 618.774296 239.322843 
L 651.90052 259.351432 
L 685.026744 234.695193 
L 718.152968 254.609212 
L 751.279191 178.230676 
L 784.405415 237.899035 
L 817.531639 250.902688 
L 850.657863 262.778094 
L 883.784087 142.779871 
L 916.91031 222.416456 
L 950.036534 221.108977 
" clip-path="url(#pf51e8c61f7)" style="fill: none; stroke: #f7a35c; stroke-linecap: square"/>
   </g>
   <g id="line2d_11">
    <path d="M 88.754716 195.749222 
L 121.88094 223.199377 
L 155.007163 227.84251 
L 188.133387 250.291255 
L 221.259611 237.17069 
L 254.385835 223.565215 
L 287.512059 232.491699 
L 320.638282 245.701066 
L 353.764506 229.43877 
L 386.89073 251.676583 
L 420.016954 223.219894 
L 453.143177 219.284067 
L 486.269401 247.016677 
L 519.395625 246.387842 
L 552.521849 247.666981 
L 585.648073 239.571317 
L 618.774296 235.502606 
L 651.90052 259.788297 
L 685.026744 220.764554 
L 718.152968 250.401766 
L 751.279191 216.654109 
L 784.405415 251.692356 
L 817.531639 243.151276 
L 850.657863 261.853971 
L 883.784087 174.869933 
L 916.91031 242.791796 
L 950.036534 241.862023 
" clip-path="url(#pf51e8c61f7)" style="fill: none; stroke: #8085e9; stroke-linecap: square"/>
   </g>
   <g id="line2d_12">
    <path d="M 88.754716 183.019435 
L 121.88094 225.564664 
L 155.007163 239.52909 
L 188.133387 248.08734 
L 221.259611 242.246083 
L 254.385835 231.027516 
L 287.512059 235.993178 
L 320.638282 247.901335 
L 353.764506 244.428467 
L 386.89073 248.879079 
L 420.016954 229.961192 
L 453.143177 220.021255 
L 486.269401 255.887916 
L 519.395625 242.880235 
L 552.521849 244.05362 
L 585.648073 236.973961 
L 618.774296 231.935404 
L 651.90052 257.680732 
L 685.026744 221.247572 
L 718.152968 251.446062 
L 751.279191 231.757825 
L 784.405415 250.818349 
L 817.531639 249.652684 
L 850.657863 262.660193 
L 883.784087 105.328029 
L 916.91031 250.4941 
L 950.036534 250.112238 
" clip-path="url(#pf51e8c61f7)" style="fill: none; stroke: #f15c80; stroke-linecap: square"/>
   </g>
   <g id="line2d_13">
    <path d="M 88.754716 181.995819 
L 121.88094 219.387195 
L 155.007163 233.884478 
L 188.133387 241.243642 
L 221.259611 237.677218 
L 254.385835 228.627055 
L 287.512059 221.619355 
L 320.638282 245.098428 
L 353.764506 242.873452 
L 386.89073 244.656968 
L 420.016954 226.159519 
L 453.143177 223.845529 
L 486.269401 254.578131 
L 519.395625 240.307984 
L 552.521849 242.576958 
L 585.648073 240.975903 
L 618.774296 231.674782 
L 651.90052 255.95809 
L 685.026744 223.369721 
L 718.152968 250.53665 
L 751.279191 248.868471 
L 784.405415 249.866426 
L 817.531639 248.734834 
L 850.657863 262.967005 
L 883.784087 123.078693 
L 916.91031 259.598589 
L 950.036534 259.490721 
" clip-path="url(#pf51e8c61f7)" style="fill: none; stroke: #e4d354; stroke-linecap: square"/>
   </g>
   <g id="line2d_14">
    <path d="M 88.754716 199.027266 
L 121.88094 219.016803 
L 155.007163 232.063823 
L 188.133387 243.719232 
L 221.259611 234.111031 
L 254.385835 223.522901 
L 287.512059 223.584676 
L 320.638282 237.429391 
L 353.764506 239.347147 
L 386.89073 243.096134 
L 420.016954 228.66648 
L 453.143177 219.084685 
L 486.269401 244.089907 
L 519.395625 247.961539 
L 552.521849 243.036592 
L 585.648073 241.456468 
L 618.774296 233.61683 
L 651.90052 259.267379 
L 685.026744 223.318701 
L 718.152968 240.674148 
L 751.279191 247.168092 
L 784.405415 245.636626 
L 817.531639 231.616916 
L 850.657863 262.408679 
L 883.784087 159.267718 
L 916.91031 258.81591 
L 950.036534 258.661285 
" clip-path="url(#pf51e8c61f7)" style="fill: none; stroke: #2b908f; stroke-linecap: square"/>
   </g>
   <g id="line2d_15">
    <path d="M 88.754716 187.182839 
L 121.88094 219.152702 
L 155.007163 242.122709 
L 188.133387 243.695018 
L 221.259611 242.761626 
L 254.385835 232.356298 
L 287.512059 241.053912 
L 320.638282 249.804126 
L 353.764506 247.190261 
L 386.89073 248.297151 
L 420.016954 236.803769 
L 453.143177 230.572345 
L 486.269401 256.288132 
L 519.395625 231.301363 
L 552.521849 245.0989 
L 585.648073 244.463016 
L 618.774296 236.57102 
L 651.90052 258.0475 
L 685.026744 228.939427 
L 718.152968 253.71823 
L 751.279191 248.360354 
L 784.405415 243.169961 
L 817.531639 251.330711 
L 850.657863 262.64714 
L 883.784087 42.505915 
L 916.91031 258.219546 
L 950.036534 257.980361 
" clip-path="url(#pf51e8c61f7)" style="fill: none; stroke: #f45b5b; stroke-linecap: square"/>
   </g>
   <g id="line2d_16">
    <path d="M 88.754716 196.027607 
L 121.88094 194.153857 
L 155.007163 237.176914 
L 188.133387 242.995808 
L 221.259611 239.000327 
L 254.385835 228.177742 
L 287.512059 235.217534 
L 320.638282 247.267403 
L 353.764506 241.76653 
L 386.89073 243.993053 
L 420.016954 231.290526 
L 453.143177 223.487103 
L 486.269401 253.899556 
L 519.395625 175.019779 
L 552.521849 244.127088 
L 585.648073 244.871746 
L 618.774296 233.457136 
L 651.90052 256.840465 
L 685.026744 231.331506 
L 718.152968 252.529614 
L 751.279191 248.46386 
L 784.405415 228.844198 
L 817.531639 248.766527 
L 850.657863 262.585867 
L 883.784087 181.037641 
L 916.91031 258.807489 
L 950.036534 258.634971 
" clip-path="url(#pf51e8c61f7)" style="fill: none; stroke: #91e8e1; stroke-linecap: square"/>
   </g>
   <g id="line2d_17">
    <path d="M 88.754716 190.315014 
L 121.88094 228.707992 
L 155.007163 238.040549 
L 188.133387 248.12413 
L 221.259611 237.870401 
L 254.385835 228.155064 
L 287.512059 234.093378 
L 320.638282 245.635601 
L 353.764506 242.145392 
L 386.89073 242.966453 
L 420.016954 224.28809 
L 453.143177 224.907926 
L 486.269401 254.398988 
L 519.395625 244.566484 
L 552.521849 246.052844 
L 585.648073 221.373893 
L 618.774296 232.141494 
L 651.90052 258.335593 
L 685.026744 218.339738 
L 718.152968 250.883961 
L 751.279191 242.705297 
L 784.405415 250.012872 
L 817.531639 247.682516 
L 850.657863 262.705507 
L 883.784087 113.273834 
L 916.91031 256.146192 
L 950.036534 255.952188 
" clip-path="url(#pf51e8c61f7)" style="fill: none; stroke: #7cb5ec; stroke-linecap: square"/>
   </g>
   <g id="line2d_18">
    <path d="M 88.754716 194.611839 
L 121.88094 213.786789 
L 155.007163 237.947391 
L 188.133387 247.381437 
L 221.259611 237.716866 
L 254.385835 215.913711 
L 287.512059 227.983038 
L 320.638282 246.580553 
L 353.764506 238.465647 
L 386.89073 245.655057 
L 420.016954 233.74443 
L 453.143177 213.165547 
L 486.269401 246.795129 
L 519.395625 248.179736 
L 552.521849 246.360031 
L 585.648073 240.768332 
L 618.774296 232.575136 
L 651.90052 256.992199 
L 685.026744 208.504355 
L 718.152968 237.631266 
L 751.279191 248.549079 
L 784.405415 251.190701 
L 817.531639 236.85795 
L 850.657863 262.18817 
L 883.784087 152.559146 
L 916.91031 259.004064 
L 950.036534 258.894989 
" clip-path="url(#pf51e8c61f7)" style="fill: none; stroke: #434348; stroke-linecap: square"/>
   </g>
   <g id="line2d_19">
    <path d="M 45.690625 263.699669 
L 993.100625 263.699669 
" clip-path="url(#pf51e8c61f7)" style="fill: none; stroke: #dedede; stroke-width: 2; stroke-linecap: square"/>
   </g>
   <g id="text_36">
    <!-- Samtools idxstats: Mapped reads per contig -->
    <g transform="translate(343.116875 19.3575) scale(0.16 -0.16)">
     <defs>
      <path id="DejaVuSans-53" d="M 3425 4513 
L 3425 3897 
Q 3066 4069 2747 4153 
Q 2428 4238 2131 4238 
Q 1616 4238 1336 4038 
Q 1056 3838 1056 3469 
Q 1056 3159 1242 3001 
Q 1428 2844 1947 2747 
L 2328 2669 
Q 3034 2534 3370 2195 
Q 3706 1856 3706 1288 
Q 3706 609 3251 259 
Q 2797 -91 1919 -91 
Q 1588 -91 1214 -16 
Q 841 59 441 206 
L 441 856 
Q 825 641 1194 531 
Q 1563 422 1919 422 
Q 2459 422 2753 634 
Q 3047 847 3047 1241 
Q 3047 1584 2836 1778 
Q 2625 1972 2144 2069 
L 1759 2144 
Q 1053 2284 737 2584 
Q 422 2884 422 3419 
Q 422 4038 858 4394 
Q 1294 4750 2059 4750 
Q 2388 4750 2728 4690 
Q 3069 4631 3425 4513 
z
" transform="scale(0.015625)"/>
      <path id="DejaVuSans-64" d="M 2906 2969 
L 2906 4863 
L 3481 4863 
L 3481 0 
L 2906 0 
L 2906 525 
Q 2725 213 2448 61 
Q 2172 -91 1784 -91 
Q 1150 -91 751 415 
Q 353 922 353 1747 
Q 353 2572 751 3078 
Q 1150 3584 1784 3584 
Q 2172 3584 2448 3432 
Q 2725 3281 2906 2969 
z
M 947 1747 
Q 947 1113 1208 752 
Q 1469 391 1925 391 
Q 2381 391 2643 752 
Q 2906 1113 2906 1747 
Q 2906 2381 2643 2742 
Q 2381 3103 1925 3103 
Q 1469 3103 1208 2742 
Q 947 2381 947 1747 
z
" transform="scale(0.015625)"/>
      <path id="DejaVuSans-78" d="M 3513 3500 
L 2247 1797 
L 3578 0 
L 2900 0 
L 1881 1375 
L 863 0 
L 184 0 
L 1544 1831 
L 300 3500 
L 978 3500 
L 1906 2253 
L 2834 3500 
L 3513 3500 
z
" transform="scale(0.015625)"/>
      <path id="DejaVuSans-3a" d="M 750 794 
L 1409 794 
L 1409 0 
L 750 0 
L 750 794 
z
M 750 3309 
L 1409 3309 
L 1409 2516 
L 750 2516 
L 750 3309 
z
" transform="scale(0.015625)"/>
      <path id="DejaVuSans-70" d="M 1159 525 
L 1159 -1331 
L 581 -1331 
L 581 3500 
L 1159 3500 
L 1159 2969 
Q 1341 3281 1617 3432 
Q 1894 3584 2278 3584 
Q 2916 3584 3314 3078 
Q 3713 2572 3713 1747 
Q 3713 922 3314 415 
Q 2916 -91 2278 -91 
Q 1894 -91 1617 61 
Q 1341 213 1159 525 
z
M 3116 1747 
Q 3116 2381 2855 2742 
Q 2594 3103 2138 3103 
Q 1681 3103 1420 2742 
Q 1159 2381 1159 1747 
Q 1159 1113 1420 752 
Q 1681 391 2138 391 
Q 2594 391 2855 752 
Q 3116 1113 3116 1747 
z
" transform="scale(0.015625)"/>
      <path id="DejaVuSans-67" d="M 2906 1791 
Q 2906 2416 2648 2759 
Q 2391 3103 1925 3103 
Q 1463 3103 1205 2759 
Q 947 2416 947 1791 
Q 947 1169 1205 825 
Q 1463 481 1925 481 
Q 2391 481 2648 825 
Q 2906 1169 2906 1791 
z
M 3481 434 
Q 3481 -459 3084 -895 
Q 2688 -1331 1869 -1331 
Q 1566 -1331 1297 -1286 
Q 1028 -1241 775 -1147 
L 775 -588 
Q 1028 -725 1275 -790 
Q 1522 -856 1778 -856 
Q 2344 -856 2625 -561 
Q 2906 -266 2906 331 
L 2906 616 
Q 2728 306 2450 153 
Q 2172 0 1784 0 
Q 1141 0 747 490 
Q 353 981 353 1791 
Q 353 2603 747 3093 
Q 1141 3584 1784 3584 
Q 2172 3584 2450 3431 
Q 2728 3278 2906 2969 
L 2906 3500 
L 3481 3500 
L 3481 434 
z
" transform="scale(0.015625)"/>
     </defs>
     <use xlink:href="#DejaVuSans-53"/>
     <use xlink:href="#DejaVuSans-61" x="63.476562"/>
     <use xlink:href="#DejaVuSans-6d" x="124.755859"/>
     <use xlink:href="#DejaVuSans-74" x="222.167969"/>
     <use xlink:href="#DejaVuSans-6f" x="261.376953"/>
     <use xlink:href="#DejaVuSans-6f" x="322.558594"/>
     <use xlink:href="#DejaVuSans-6c" x="383.740234"/>
     <use xlink:href="#DejaVuSans-73" x="411.523438"/>
     <use xlink:href="#DejaVuSans-20" x="463.623047"/>
     <use xlink:href="#DejaVuSans-69" x="495.410156"/>
     <use xlink:href="#DejaVuSans-64" x="523.193359"/>
     <use xlink:href="#DejaVuSans-78" x="586.669922"/>
     <use xlink:href="#DejaVuSans-73" x="645.849609"/>
     <use xlink:href="#DejaVuSans-74" x="697.949219"/>
     <use xlink:href="#DejaVuSans-61" x="737.158203"/>
     <use xlink:href="#DejaVuSans-74" x="798.4375"/>
     <use xlink:href="#DejaVuSans-73" x="837.646484"/>
     <use xlink:href="#DejaVuSans-3a" x="889.746094"/>
     <use xlink:href="#DejaVuSans-20" x="923.4375"/>
     <use xlink:href="#DejaVuSans-4d" x="955.224609"/>
     <use xlink:href="#DejaVuSans-61" x="1041.503906"/>
     <use xlink:href="#DejaVuSans-70" x="1102.783203"/>
     <use xlink:href="#DejaVuSans-70" x="1166.259766"/>
     <use xlink:href="#DejaVuSans-65" x="1229.736328"/>
     <use xlink:href="#DejaVuSans-64" x="1291.259766"/>
     <use xlink:href="#DejaVuSans-20" x="1354.736328"/>
     <use xlink:href="#DejaVuSans-72" x="1386.523438"/>
     <use xlink:href="#DejaVuSans-65" x="1425.386719"/>
     <use xlink:href="#DejaVuSans-61" x="1486.910156"/>
     <use xlink:href="#DejaVuSans-64" x="1548.189453"/>
     <use xlink:href="#DejaVuSans-73" x="1611.666016"/>
     <use xlink:href="#DejaVuSans-20" x="1663.765625"/>
     <use xlink:href="#DejaVuSans-70" x="1695.552734"/>
     <use xlink:href="#DejaVuSans-65" x="1759.029297"/>
     <use xlink:href="#DejaVuSans-72" x="1820.552734"/>
     <use xlink:href="#DejaVuSans-20" x="1861.666016"/>
     <use xlink:href="#DejaVuSans-63" x="1893.453125"/>
     <use xlink:href="#DejaVuSans-6f" x="1948.433594"/>
     <use xlink:href="#DejaVuSans-6e" x="2009.615234"/>
     <use xlink:href="#DejaVuSans-74" x="2072.994141"/>
     <use xlink:href="#DejaVuSans-69" x="2112.203125"/>
     <use xlink:href="#DejaVuSans-67" x="2139.986328"/>
    </g>
   </g>
   <g id="legend_1">
    <g id="line2d_20">
     <path d="M 52.890625 292.192894 
L 60.890625 292.192894 
L 68.890625 292.192894 
" style="fill: none; stroke: #7cb5ec; stroke-linecap: square"/>
    </g>
    <g id="text_37">
     <!-- SRR17866817 -->
     <g transform="translate(75.290625 294.992894) scale(0.08 -0.08)">
      <defs>
       <path id="DejaVuSans-52" d="M 2841 2188 
Q 3044 2119 3236 1894 
Q 3428 1669 3622 1275 
L 4263 0 
L 3584 0 
L 2988 1197 
Q 2756 1666 2539 1819 
Q 2322 1972 1947 1972 
L 1259 1972 
L 1259 0 
L 628 0 
L 628 4666 
L 2053 4666 
Q 2853 4666 3247 4331 
Q 3641 3997 3641 3322 
Q 3641 2881 3436 2590 
Q 3231 2300 2841 2188 
z
M 1259 4147 
L 1259 2491 
L 2053 2491 
Q 2509 2491 2742 2702 
Q 2975 2913 2975 3322 
Q 2975 3731 2742 3939 
Q 2509 4147 2053 4147 
L 1259 4147 
z
" transform="scale(0.015625)"/>
      </defs>
      <use xlink:href="#DejaVuSans-53"/>
      <use xlink:href="#DejaVuSans-52" x="63.476562"/>
      <use xlink:href="#DejaVuSans-52" x="132.958984"/>
      <use xlink:href="#DejaVuSans-31" x="202.441406"/>
      <use xlink:href="#DejaVuSans-37" x="266.064453"/>
      <use xlink:href="#DejaVuSans-38" x="329.6875"/>
      <use xlink:href="#DejaVuSans-36" x="393.310547"/>
      <use xlink:href="#DejaVuSans-36" x="456.933594"/>
      <use xlink:href="#DejaVuSans-38" x="520.556641"/>
      <use xlink:href="#DejaVuSans-31" x="584.179688"/>
      <use xlink:href="#DejaVuSans-37" x="647.802734"/>
     </g>
    </g>
    <g id="line2d_21">
     <path d="M 52.890625 303.935394 
L 60.890625 303.935394 
L 68.890625 303.935394 
" style="fill: none; stroke: #434348; stroke-linecap: square"/>
    </g>
    <g id="text_38">
     <!-- SRR17866818 -->
     <g transform="translate(75.290625 306.735394) scale(0.08 -0.08)">
      <use xlink:href="#DejaVuSans-53"/>
      <use xlink:href="#DejaVuSans-52" x="63.476562"/>
      <use xlink:href="#DejaVuSans-52" x="132.958984"/>
      <use xlink:href="#DejaVuSans-31" x="202.441406"/>
      <use xlink:href="#DejaVuSans-37" x="266.064453"/>
      <use xlink:href="#DejaVuSans-38" x="329.6875"/>
      <use xlink:href="#DejaVuSans-36" x="393.310547"/>
      <use xlink:href="#DejaVuSans-36" x="456.933594"/>
      <use xlink:href="#DejaVuSans-38" x="520.556641"/>
      <use xlink:href="#DejaVuSans-31" x="584.179688"/>
      <use xlink:href="#DejaVuSans-38" x="647.802734"/>
     </g>
    </g>
    <g id="line2d_22">
     <path d="M 52.890625 315.677894 
L 60.890625 315.677894 
L 68.890625 315.677894 
" style="fill: none; stroke: #90ed7d; stroke-linecap: square"/>
    </g>
    <g id="text_39">
     <!-- SRR17866819 -->
     <g transform="translate(75.290625 318.477894) scale(0.08 -0.08)">
      <use xlink:href="#DejaVuSans-53"/>
      <use xlink:href="#DejaVuSans-52" x="63.476562"/>
      <use xlink:href="#DejaVuSans-52" x="132.958984"/>
      <use xlink:href="#DejaVuSans-31" x="202.441406"/>
      <use xlink:href="#DejaVuSans-37" x="266.064453"/>
      <use xlink:href="#DejaVuSans-38" x="329.6875"/>
      <use xlink:href="#DejaVuSans-36" x="393.310547"/>
      <use xlink:href="#DejaVuSans-36" x="456.933594"/>
      <use xlink:href="#DejaVuSans-38" x="520.556641"/>
      <use xlink:href="#DejaVuSans-31" x="584.179688"/>
      <use xlink:href="#DejaVuSans-39" x="647.802734"/>
     </g>
    </g>
    <g id="line2d_23">
     <path d="M 266.314062 292.192894 
L 274.314062 292.192894 
L 282.314062 292.192894 
" style="fill: none; stroke: #f7a35c; stroke-linecap: square"/>
    </g>
    <g id="text_40">
     <!-- SRR17866820 -->
     <g transform="translate(288.714062 294.992894) scale(0.08 -0.08)">
      <use xlink:href="#DejaVuSans-53"/>
      <use xlink:href="#DejaVuSans-52" x="63.476562"/>
      <use xlink:href="#DejaVuSans-52" x="132.958984"/>
      <use xlink:href="#DejaVuSans-31" x="202.441406"/>
      <use xlink:href="#DejaVuSans-37" x="266.064453"/>
      <use xlink:href="#DejaVuSans-38" x="329.6875"/>
      <use xlink:href="#DejaVuSans-36" x="393.310547"/>
      <use xlink:href="#DejaVuSans-36" x="456.933594"/>
      <use xlink:href="#DejaVuSans-38" x="520.556641"/>
      <use xlink:href="#DejaVuSans-32" x="584.179688"/>
      <use xlink:href="#DejaVuSans-30" x="647.802734"/>
     </g>
    </g>
    <g id="line2d_24">
     <path d="M 266.314062 303.935394 
L 274.314062 303.935394 
L 282.314062 303.935394 
" style="fill: none; stroke: #8085e9; stroke-linecap: square"/>
    </g>
    <g id="text_41">
     <!-- SRR17866821 -->
     <g transform="translate(288.714062 306.735394) scale(0.08 -0.08)">
      <use xlink:href="#DejaVuSans-53"/>
      <use xlink:href="#DejaVuSans-52" x="63.476562"/>
      <use xlink:href="#DejaVuSans-52" x="132.958984"/>
      <use xlink:href="#DejaVuSans-31" x="202.441406"/>
      <use xlink:href="#DejaVuSans-37" x="266.064453"/>
      <use xlink:href="#DejaVuSans-38" x="329.6875"/>
      <use xlink:href="#DejaVuSans-36" x="393.310547"/>
      <use xlink:href="#DejaVuSans-36" x="456.933594"/>
      <use xlink:href="#DejaVuSans-38" x="520.556641"/>
      <use xlink:href="#DejaVuSans-32" x="584.179688"/>
      <use xlink:href="#DejaVuSans-31" x="647.802734"/>
     </g>
    </g>
    <g id="line2d_25">
     <path d="M 266.314062 315.677894 
L 274.314062 315.677894 
L 282.314062 315.677894 
" style="fill: none; stroke: #f15c80; stroke-linecap: square"/>
    </g>
    <g id="text_42">
     <!-- SRR17866822 -->
     <g transform="translate(288.714062 318.477894) scale(0.08 -0.08)">
      <use xlink:href="#DejaVuSans-53"/>
      <use xlink:href="#DejaVuSans-52" x="63.476562"/>
      <use xlink:href="#DejaVuSans-52" x="132.958984"/>
      <use xlink:href="#DejaVuSans-31" x="202.441406"/>
      <use xlink:href="#DejaVuSans-37" x="266.064453"/>
      <use xlink:href="#DejaVuSans-38" x="329.6875"/>
      <use xlink:href="#DejaVuSans-36" x="393.310547"/>
      <use xlink:href="#DejaVuSans-36" x="456.933594"/>
      <use xlink:href="#DejaVuSans-38" x="520.556641"/>
      <use xlink:href="#DejaVuSans-32" x="584.179688"/>
      <use xlink:href="#DejaVuSans-32" x="647.802734"/>
     </g>
    </g>
    <g id="line2d_26">
     <path d="M 479.7375 292.192894 
L 487.7375 292.192894 
L 495.7375 292.192894 
" style="fill: none; stroke: #e4d354; stroke-linecap: square"/>
    </g>
    <g id="text_43">
     <!-- SRR27320655 -->
     <g transform="translate(502.1375 294.992894) scale(0.08 -0.08)">
      <use xlink:href="#DejaVuSans-53"/>
      <use xlink:href="#DejaVuSans-52" x="63.476562"/>
      <use xlink:href="#DejaVuSans-52" x="132.958984"/>
      <use xlink:href="#DejaVuSans-32" x="202.441406"/>
      <use xlink:href="#DejaVuSans-37" x="266.064453"/>
      <use xlink:href="#DejaVuSans-33" x="329.6875"/>
      <use xlink:href="#DejaVuSans-32" x="393.310547"/>
      <use xlink:href="#DejaVuSans-30" x="456.933594"/>
      <use xlink:href="#DejaVuSans-36" x="520.556641"/>
      <use xlink:href="#DejaVuSans-35" x="584.179688"/>
      <use xlink:href="#DejaVuSans-35" x="647.802734"/>
     </g>
    </g>
    <g id="line2d_27">
     <path d="M 479.7375 303.935394 
L 487.7375 303.935394 
L 495.7375 303.935394 
" style="fill: none; stroke: #2b908f; stroke-linecap: square"/>
    </g>
    <g id="text_44">
     <!-- SRR27320656 -->
     <g transform="translate(502.1375 306.735394) scale(0.08 -0.08)">
      <use xlink:href="#DejaVuSans-53"/>
      <use xlink:href="#DejaVuSans-52" x="63.476562"/>
      <use xlink:href="#DejaVuSans-52" x="132.958984"/>
      <use xlink:href="#DejaVuSans-32" x="202.441406"/>
      <use xlink:href="#DejaVuSans-37" x="266.064453"/>
      <use xlink:href="#DejaVuSans-33" x="329.6875"/>
      <use xlink:href="#DejaVuSans-32" x="393.310547"/>
      <use xlink:href="#DejaVuSans-30" x="456.933594"/>
      <use xlink:href="#DejaVuSans-36" x="520.556641"/>
      <use xlink:href="#DejaVuSans-35" x="584.179688"/>
      <use xlink:href="#DejaVuSans-36" x="647.802734"/>
     </g>
    </g>
    <g id="line2d_28">
     <path d="M 693.160938 292.192894 
L 701.160938 292.192894 
L 709.160938 292.192894 
" style="fill: none; stroke: #f45b5b; stroke-linecap: square"/>
    </g>
    <g id="text_45">
     <!-- SRR27320657 -->
     <g transform="translate(715.560938 294.992894) scale(0.08 -0.08)">
      <use xlink:href="#DejaVuSans-53"/>
      <use xlink:href="#DejaVuSans-52" x="63.476562"/>
      <use xlink:href="#DejaVuSans-52" x="132.958984"/>
      <use xlink:href="#DejaVuSans-32" x="202.441406"/>
      <use xlink:href="#DejaVuSans-37" x="266.064453"/>
      <use xlink:href="#DejaVuSans-33" x="329.6875"/>
      <use xlink:href="#DejaVuSans-32" x="393.310547"/>
      <use xlink:href="#DejaVuSans-30" x="456.933594"/>
      <use xlink:href="#DejaVuSans-36" x="520.556641"/>
      <use xlink:href="#DejaVuSans-35" x="584.179688"/>
      <use xlink:href="#DejaVuSans-37" x="647.802734"/>
     </g>
    </g>
    <g id="line2d_29">
     <path d="M 693.160938 303.935394 
L 701.160938 303.935394 
L 709.160938 303.935394 
" style="fill: none; stroke: #91e8e1; stroke-linecap: square"/>
    </g>
    <g id="text_46">
     <!-- SRR27320658 -->
     <g transform="translate(715.560938 306.735394) scale(0.08 -0.08)">
      <use xlink:href="#DejaVuSans-53"/>
      <use xlink:href="#DejaVuSans-52" x="63.476562"/>
      <use xlink:href="#DejaVuSans-52" x="132.958984"/>
      <use xlink:href="#DejaVuSans-32" x="202.441406"/>
      <use xlink:href="#DejaVuSans-37" x="266.064453"/>
      <use xlink:href="#DejaVuSans-33" x="329.6875"/>
      <use xlink:href="#DejaVuSans-32" x="393.310547"/>
      <use xlink:href="#DejaVuSans-30" x="456.933594"/>
      <use xlink:href="#DejaVuSans-36" x="520.556641"/>
      <use xlink:href="#DejaVuSans-35" x="584.179688"/>
      <use xlink:href="#DejaVuSans-38" x="647.802734"/>
     </g>
    </g>
    <g id="line2d_30">
     <path d="M 906.584375 292.192894 
L 914.584375 292.192894 
L 922.584375 292.192894 
" style="fill: none; stroke: #7cb5ec; stroke-linecap: square"/>
    </g>
    <g id="text_47">
     <!-- SRR27320659 -->
     <g transform="translate(928.984375 294.992894) scale(0.08 -0.08)">
      <use xlink:href="#DejaVuSans-53"/>
      <use xlink:href="#DejaVuSans-52" x="63.476562"/>
      <use xlink:href="#DejaVuSans-52" x="132.958984"/>
      <use xlink:href="#DejaVuSans-32" x="202.441406"/>
      <use xlink:href="#DejaVuSans-37" x="266.064453"/>
      <use xlink:href="#DejaVuSans-33" x="329.6875"/>
      <use xlink:href="#DejaVuSans-32" x="393.310547"/>
      <use xlink:href="#DejaVuSans-30" x="456.933594"/>
      <use xlink:href="#DejaVuSans-36" x="520.556641"/>
      <use xlink:href="#DejaVuSans-35" x="584.179688"/>
      <use xlink:href="#DejaVuSans-39" x="647.802734"/>
     </g>
    </g>
    <g id="line2d_31">
     <path d="M 906.584375 303.935394 
L 914.584375 303.935394 
L 922.584375 303.935394 
" style="fill: none; stroke: #434348; stroke-linecap: square"/>
    </g>
    <g id="text_48">
     <!-- SRR27320660 -->
     <g transform="translate(928.984375 306.735394) scale(0.08 -0.08)">
      <use xlink:href="#DejaVuSans-53"/>
      <use xlink:href="#DejaVuSans-52" x="63.476562"/>
      <use xlink:href="#DejaVuSans-52" x="132.958984"/>
      <use xlink:href="#DejaVuSans-32" x="202.441406"/>
      <use xlink:href="#DejaVuSans-37" x="266.064453"/>
      <use xlink:href="#DejaVuSans-33" x="329.6875"/>
      <use xlink:href="#DejaVuSans-32" x="393.310547"/>
      <use xlink:href="#DejaVuSans-30" x="456.933594"/>
      <use xlink:href="#DejaVuSans-36" x="520.556641"/>
      <use xlink:href="#DejaVuSans-36" x="584.179688"/>
      <use xlink:href="#DejaVuSans-30" x="647.802734"/>
     </g>
    </g>
   </g>
  </g>
 </g>
 <defs>
  <clipPath id="pf51e8c61f7">
   <rect x="45.690625" y="31.48286" width="947.41" height="242.5072"/>
  </clipPath>
 </defs>
</svg>
