<?xml version="1.0" encoding="utf-8" standalone="no"?>
<!DOCTYPE svg PUBLIC "-//W3C//DTD SVG 1.1//EN"
  "http://www.w3.org/Graphics/SVG/1.1/DTD/svg11.dtd">
<svg xmlns:xlink="http://www.w3.org/1999/xlink" width="1000.300625pt" height="388.844525pt" viewBox="0 0 1000.300625 388.844525" xmlns="http://www.w3.org/2000/svg" version="1.1">
 <metadata>
  <rdf:RDF xmlns:dc="http://purl.org/dc/elements/1.1/" xmlns:cc="http://creativecommons.org/ns#" xmlns:rdf="http://www.w3.org/1999/02/22-rdf-syntax-ns#">
   <cc:Work>
    <dc:type rdf:resource="http://purl.org/dc/dcmitype/StillImage"/>
    <dc:date>2026-03-23T21:33:09.904078</dc:date>
    <dc:format>image/svg+xml</dc:format>
    <dc:creator>
     <cc:Agent>
      <dc:title>Matplotlib v3.8.1, https://matplotlib.org/</dc:title>
     </cc:Agent>
    </dc:creator>
   </cc:Work>
  </rdf:RDF>
 </metadata>
 <defs>
  <style type="text/css">*{stroke-linejoin: round; stroke-linecap: butt}</style>
 </defs>
 <g id="figure_1">
  <g id="axes_1">
   <g id="patch_1">
    <path d="M 45.690625 353.2239 
L 993.100625 353.2239 
L 993.100625 35.2559 
L 45.690625 35.2559 
z
" style="fill: #ffffff"/>
   </g>
   <g id="patch_2">
    <path d="M 734.71608 353.2239 
L 2506.49582 353.2239 
L 2506.49582 35.2559 
L 734.71608 35.2559 
z
" clip-path="url(#p7ff8c26d80)" style="fill: #c3e6c3"/>
   </g>
   <g id="patch_3">
    <path d="M 537.851664 353.2239 
L 734.71608 353.2239 
L 734.71608 35.2559 
L 537.851664 35.2559 
z
" clip-path="url(#p7ff8c26d80)" style="fill: #e6dcc3"/>
   </g>
   <g id="patch_4">
    <path d="M 45.690625 353.2239 
L 537.851664 353.2239 
L 537.851664 35.2559 
L 45.690625 35.2559 
z
" clip-path="url(#p7ff8c26d80)" style="fill: #e6c3c3"/>
   </g>
   <g id="matplotlib.axis_1">
    <g id="xtick_1">
     <g id="text_1">
      <!-- 0 -->
      <g transform="translate(43.145625 366.30265) scale(0.08 -0.08)">
       <defs>
        <path id="DejaVuSans-30" d="M 2034 4250 
Q 1547 4250 1301 3770 
Q 1056 3291 1056 2328 
Q 1056 1369 1301 889 
Q 1547 409 2034 409 
Q 2525 409 2770 889 
Q 3016 1369 3016 2328 
Q 3016 3291 2770 3770 
Q 2525 4250 2034 4250 
z
M 2034 4750 
Q 2819 4750 3233 4129 
Q 3647 3509 3647 2328 
Q 3647 1150 3233 529 
Q 2819 -91 2034 -91 
Q 1250 -91 836 529 
Q 422 1150 422 2328 
Q 422 3509 836 4129 
Q 1250 4750 2034 4750 
z
" transform="scale(0.015625)"/>
       </defs>
       <use xlink:href="#DejaVuSans-30"/>
      </g>
     </g>
    </g>
    <g id="xtick_2">
     <g id="text_2">
      <!-- 5 -->
      <g transform="translate(166.185885 366.30265) scale(0.08 -0.08)">
       <defs>
        <path id="DejaVuSans-35" d="M 691 4666 
L 3169 4666 
L 3169 4134 
L 1269 4134 
L 1269 2991 
Q 1406 3038 1543 3061 
Q 1681 3084 1819 3084 
Q 2600 3084 3056 2656 
Q 3513 2228 3513 1497 
Q 3513 744 3044 326 
Q 2575 -91 1722 -91 
Q 1428 -91 1123 -41 
Q 819 9 494 109 
L 494 744 
Q 775 591 1075 516 
Q 1375 441 1709 441 
Q 2250 441 2565 725 
Q 2881 1009 2881 1497 
Q 2881 1984 2565 2268 
Q 2250 2553 1709 2553 
Q 1456 2553 1204 2497 
Q 953 2441 691 2322 
L 691 4666 
z
" transform="scale(0.015625)"/>
       </defs>
       <use xlink:href="#DejaVuSans-35"/>
      </g>
     </g>
    </g>
    <g id="xtick_3">
     <g id="text_3">
      <!-- 10 -->
      <g transform="translate(286.681144 366.30265) scale(0.08 -0.08)">
       <defs>
        <path id="DejaVuSans-31" d="M 794 531 
L 1825 531 
L 1825 4091 
L 703 3866 
L 703 4441 
L 1819 4666 
L 2450 4666 
L 2450 531 
L 3481 531 
L 3481 0 
L 794 0 
L 794 531 
z
" transform="scale(0.015625)"/>
       </defs>
       <use xlink:href="#DejaVuSans-31"/>
       <use xlink:href="#DejaVuSans-30" x="63.623047"/>
      </g>
     </g>
    </g>
    <g id="xtick_4">
     <g id="text_4">
      <!-- 15 -->
      <g transform="translate(409.721404 366.30265) scale(0.08 -0.08)">
       <use xlink:href="#DejaVuSans-31"/>
       <use xlink:href="#DejaVuSans-35" x="63.623047"/>
      </g>
     </g>
    </g>
    <g id="xtick_5">
     <g id="text_5">
      <!-- 20 -->
      <g transform="translate(532.761664 366.30265) scale(0.08 -0.08)">
       <defs>
        <path id="DejaVuSans-32" d="M 1228 531 
L 3431 531 
L 3431 0 
L 469 0 
L 469 531 
Q 828 903 1448 1529 
Q 2069 2156 2228 2338 
Q 2531 2678 2651 2914 
Q 2772 3150 2772 3378 
Q 2772 3750 2511 3984 
Q 2250 4219 1831 4219 
Q 1534 4219 1204 4116 
Q 875 4013 500 3803 
L 500 4441 
Q 881 4594 1212 4672 
Q 1544 4750 1819 4750 
Q 2544 4750 2975 4387 
Q 3406 4025 3406 3419 
Q 3406 3131 3298 2873 
Q 3191 2616 2906 2266 
Q 2828 2175 2409 1742 
Q 1991 1309 1228 531 
z
" transform="scale(0.015625)"/>
       </defs>
       <use xlink:href="#DejaVuSans-32"/>
       <use xlink:href="#DejaVuSans-30" x="63.623047"/>
      </g>
     </g>
    </g>
    <g id="xtick_6">
     <g id="text_6">
      <!-- 25 -->
      <g transform="translate(655.801924 366.30265) scale(0.08 -0.08)">
       <use xlink:href="#DejaVuSans-32"/>
       <use xlink:href="#DejaVuSans-35" x="63.623047"/>
      </g>
     </g>
    </g>
    <g id="xtick_7">
     <g id="text_7">
      <!-- 30 -->
      <g transform="translate(778.842183 366.30265) scale(0.08 -0.08)">
       <defs>
        <path id="DejaVuSans-33" d="M 2597 2516 
Q 3050 2419 3304 2112 
Q 3559 1806 3559 1356 
Q 3559 666 3084 287 
Q 2609 -91 1734 -91 
Q 1441 -91 1130 -33 
Q 819 25 488 141 
L 488 750 
Q 750 597 1062 519 
Q 1375 441 1716 441 
Q 2309 441 2620 675 
Q 2931 909 2931 1356 
Q 2931 1769 2642 2001 
Q 2353 2234 1838 2234 
L 1294 2234 
L 1294 2753 
L 1863 2753 
Q 2328 2753 2575 2939 
Q 2822 3125 2822 3475 
Q 2822 3834 2567 4026 
Q 2313 4219 1838 4219 
Q 1578 4219 1281 4162 
Q 984 4106 628 3988 
L 628 4550 
Q 988 4650 1302 4700 
Q 1616 4750 1894 4750 
Q 2613 4750 3031 4423 
Q 3450 4097 3450 3541 
Q 3450 3153 3228 2886 
Q 3006 2619 2597 2516 
z
" transform="scale(0.015625)"/>
       </defs>
       <use xlink:href="#DejaVuSans-33"/>
       <use xlink:href="#DejaVuSans-30" x="63.623047"/>
      </g>
     </g>
    </g>
    <g id="xtick_8">
     <g id="text_8">
      <!-- 35 -->
      <g transform="translate(901.882443 366.30265) scale(0.08 -0.08)">
       <use xlink:href="#DejaVuSans-33"/>
       <use xlink:href="#DejaVuSans-35" x="63.623047"/>
      </g>
     </g>
    </g>
    <g id="text_9">
     <!-- Mean Sequence Quality (Phred Score) -->
     <g transform="translate(424.603437 379.564837) scale(0.1 -0.1)">
      <defs>
       <path id="DejaVuSans-4d" d="M 628 4666 
L 1569 4666 
L 2759 1491 
L 3956 4666 
L 4897 4666 
L 4897 0 
L 4281 0 
L 4281 4097 
L 3078 897 
L 2444 897 
L 1241 4097 
L 1241 0 
L 628 0 
L 628 4666 
z
" transform="scale(0.015625)"/>
       <path id="DejaVuSans-65" d="M 3597 1894 
L 3597 1613 
L 953 1613 
Q 991 1019 1311 708 
Q 1631 397 2203 397 
Q 2534 397 2845 478 
Q 3156 559 3463 722 
L 3463 178 
Q 3153 47 2828 -22 
Q 2503 -91 2169 -91 
Q 1331 -91 842 396 
Q 353 884 353 1716 
Q 353 2575 817 3079 
Q 1281 3584 2069 3584 
Q 2775 3584 3186 3129 
Q 3597 2675 3597 1894 
z
M 3022 2063 
Q 3016 2534 2758 2815 
Q 2500 3097 2075 3097 
Q 1594 3097 1305 2825 
Q 1016 2553 972 2059 
L 3022 2063 
z
" transform="scale(0.015625)"/>
       <path id="DejaVuSans-61" d="M 2194 1759 
Q 1497 1759 1228 1600 
Q 959 1441 959 1056 
Q 959 750 1161 570 
Q 1363 391 1709 391 
Q 2188 391 2477 730 
Q 2766 1069 2766 1631 
L 2766 1759 
L 2194 1759 
z
M 3341 1997 
L 3341 0 
L 2766 0 
L 2766 531 
Q 2569 213 2275 61 
Q 1981 -91 1556 -91 
Q 1019 -91 701 211 
Q 384 513 384 1019 
Q 384 1609 779 1909 
Q 1175 2209 1959 2209 
L 2766 2209 
L 2766 2266 
Q 2766 2663 2505 2880 
Q 2244 3097 1772 3097 
Q 1472 3097 1187 3025 
Q 903 2953 641 2809 
L 641 3341 
Q 956 3463 1253 3523 
Q 1550 3584 1831 3584 
Q 2591 3584 2966 3190 
Q 3341 2797 3341 1997 
z
" transform="scale(0.015625)"/>
       <path id="DejaVuSans-6e" d="M 3513 2113 
L 3513 0 
L 2938 0 
L 2938 2094 
Q 2938 2591 2744 2837 
Q 2550 3084 2163 3084 
Q 1697 3084 1428 2787 
Q 1159 2491 1159 1978 
L 1159 0 
L 581 0 
L 581 3500 
L 1159 3500 
L 1159 2956 
Q 1366 3272 1645 3428 
Q 1925 3584 2291 3584 
Q 2894 3584 3203 3211 
Q 3513 2838 3513 2113 
z
" transform="scale(0.015625)"/>
       <path id="DejaVuSans-20" transform="scale(0.015625)"/>
       <path id="DejaVuSans-53" d="M 3425 4513 
L 3425 3897 
Q 3066 4069 2747 4153 
Q 2428 4238 2131 4238 
Q 1616 4238 1336 4038 
Q 1056 3838 1056 3469 
Q 1056 3159 1242 3001 
Q 1428 2844 1947 2747 
L 2328 2669 
Q 3034 2534 3370 2195 
Q 3706 1856 3706 1288 
Q 3706 609 3251 259 
Q 2797 -91 1919 -91 
Q 1588 -91 1214 -16 
Q 841 59 441 206 
L 441 856 
Q 825 641 1194 531 
Q 1563 422 1919 422 
Q 2459 422 2753 634 
Q 3047 847 3047 1241 
Q 3047 1584 2836 1778 
Q 2625 1972 2144 2069 
L 1759 2144 
Q 1053 2284 737 2584 
Q 422 2884 422 3419 
Q 422 4038 858 4394 
Q 1294 4750 2059 4750 
Q 2388 4750 2728 4690 
Q 3069 4631 3425 4513 
z
" transform="scale(0.015625)"/>
       <path id="DejaVuSans-71" d="M 947 1747 
Q 947 1113 1208 752 
Q 1469 391 1925 391 
Q 2381 391 2643 752 
Q 2906 1113 2906 1747 
Q 2906 2381 2643 2742 
Q 2381 3103 1925 3103 
Q 1469 3103 1208 2742 
Q 947 2381 947 1747 
z
M 2906 525 
Q 2725 213 2448 61 
Q 2172 -91 1784 -91 
Q 1150 -91 751 415 
Q 353 922 353 1747 
Q 353 2572 751 3078 
Q 1150 3584 1784 3584 
Q 2172 3584 2448 3432 
Q 2725 3281 2906 2969 
L 2906 3500 
L 3481 3500 
L 3481 -1331 
L 2906 -1331 
L 2906 525 
z
" transform="scale(0.015625)"/>
       <path id="DejaVuSans-75" d="M 544 1381 
L 544 3500 
L 1119 3500 
L 1119 1403 
Q 1119 906 1312 657 
Q 1506 409 1894 409 
Q 2359 409 2629 706 
Q 2900 1003 2900 1516 
L 2900 3500 
L 3475 3500 
L 3475 0 
L 2900 0 
L 2900 538 
Q 2691 219 2414 64 
Q 2138 -91 1772 -91 
Q 1169 -91 856 284 
Q 544 659 544 1381 
z
M 1991 3584 
L 1991 3584 
z
" transform="scale(0.015625)"/>
       <path id="DejaVuSans-63" d="M 3122 3366 
L 3122 2828 
Q 2878 2963 2633 3030 
Q 2388 3097 2138 3097 
Q 1578 3097 1268 2742 
Q 959 2388 959 1747 
Q 959 1106 1268 751 
Q 1578 397 2138 397 
Q 2388 397 2633 464 
Q 2878 531 3122 666 
L 3122 134 
Q 2881 22 2623 -34 
Q 2366 -91 2075 -91 
Q 1284 -91 818 406 
Q 353 903 353 1747 
Q 353 2603 823 3093 
Q 1294 3584 2113 3584 
Q 2378 3584 2631 3529 
Q 2884 3475 3122 3366 
z
" transform="scale(0.015625)"/>
       <path id="DejaVuSans-51" d="M 2522 4238 
Q 1834 4238 1429 3725 
Q 1025 3213 1025 2328 
Q 1025 1447 1429 934 
Q 1834 422 2522 422 
Q 3209 422 3611 934 
Q 4013 1447 4013 2328 
Q 4013 3213 3611 3725 
Q 3209 4238 2522 4238 
z
M 3406 84 
L 4238 -825 
L 3475 -825 
L 2784 -78 
Q 2681 -84 2626 -87 
Q 2572 -91 2522 -91 
Q 1538 -91 948 567 
Q 359 1225 359 2328 
Q 359 3434 948 4092 
Q 1538 4750 2522 4750 
Q 3503 4750 4090 4092 
Q 4678 3434 4678 2328 
Q 4678 1516 4351 937 
Q 4025 359 3406 84 
z
" transform="scale(0.015625)"/>
       <path id="DejaVuSans-6c" d="M 603 4863 
L 1178 4863 
L 1178 0 
L 603 0 
L 603 4863 
z
" transform="scale(0.015625)"/>
       <path id="DejaVuSans-69" d="M 603 3500 
L 1178 3500 
L 1178 0 
L 603 0 
L 603 3500 
z
M 603 4863 
L 1178 4863 
L 1178 4134 
L 603 4134 
L 603 4863 
z
" transform="scale(0.015625)"/>
       <path id="DejaVuSans-74" d="M 1172 4494 
L 1172 3500 
L 2356 3500 
L 2356 3053 
L 1172 3053 
L 1172 1153 
Q 1172 725 1289 603 
Q 1406 481 1766 481 
L 2356 481 
L 2356 0 
L 1766 0 
Q 1100 0 847 248 
Q 594 497 594 1153 
L 594 3053 
L 172 3053 
L 172 3500 
L 594 3500 
L 594 4494 
L 1172 4494 
z
" transform="scale(0.015625)"/>
       <path id="DejaVuSans-79" d="M 2059 -325 
Q 1816 -950 1584 -1140 
Q 1353 -1331 966 -1331 
L 506 -1331 
L 506 -850 
L 844 -850 
Q 1081 -850 1212 -737 
Q 1344 -625 1503 -206 
L 1606 56 
L 191 3500 
L 800 3500 
L 1894 763 
L 2988 3500 
L 3597 3500 
L 2059 -325 
z
" transform="scale(0.015625)"/>
       <path id="DejaVuSans-28" d="M 1984 4856 
Q 1566 4138 1362 3434 
Q 1159 2731 1159 2009 
Q 1159 1288 1364 580 
Q 1569 -128 1984 -844 
L 1484 -844 
Q 1016 -109 783 600 
Q 550 1309 550 2009 
Q 550 2706 781 3412 
Q 1013 4119 1484 4856 
L 1984 4856 
z
" transform="scale(0.015625)"/>
       <path id="DejaVuSans-50" d="M 1259 4147 
L 1259 2394 
L 2053 2394 
Q 2494 2394 2734 2622 
Q 2975 2850 2975 3272 
Q 2975 3691 2734 3919 
Q 2494 4147 2053 4147 
L 1259 4147 
z
M 628 4666 
L 2053 4666 
Q 2838 4666 3239 4311 
Q 3641 3956 3641 3272 
Q 3641 2581 3239 2228 
Q 2838 1875 2053 1875 
L 1259 1875 
L 1259 0 
L 628 0 
L 628 4666 
z
" transform="scale(0.015625)"/>
       <path id="DejaVuSans-68" d="M 3513 2113 
L 3513 0 
L 2938 0 
L 2938 2094 
Q 2938 2591 2744 2837 
Q 2550 3084 2163 3084 
Q 1697 3084 1428 2787 
Q 1159 2491 1159 1978 
L 1159 0 
L 581 0 
L 581 4863 
L 1159 4863 
L 1159 2956 
Q 1366 3272 1645 3428 
Q 1925 3584 2291 3584 
Q 2894 3584 3203 3211 
Q 3513 2838 3513 2113 
z
" transform="scale(0.015625)"/>
       <path id="DejaVuSans-72" d="M 2631 2963 
Q 2534 3019 2420 3045 
Q 2306 3072 2169 3072 
Q 1681 3072 1420 2755 
Q 1159 2438 1159 1844 
L 1159 0 
L 581 0 
L 581 3500 
L 1159 3500 
L 1159 2956 
Q 1341 3275 1631 3429 
Q 1922 3584 2338 3584 
Q 2397 3584 2469 3576 
Q 2541 3569 2628 3553 
L 2631 2963 
z
" transform="scale(0.015625)"/>
       <path id="DejaVuSans-64" d="M 2906 2969 
L 2906 4863 
L 3481 4863 
L 3481 0 
L 2906 0 
L 2906 525 
Q 2725 213 2448 61 
Q 2172 -91 1784 -91 
Q 1150 -91 751 415 
Q 353 922 353 1747 
Q 353 2572 751 3078 
Q 1150 3584 1784 3584 
Q 2172 3584 2448 3432 
Q 2725 3281 2906 2969 
z
M 947 1747 
Q 947 1113 1208 752 
Q 1469 391 1925 391 
Q 2381 391 2643 752 
Q 2906 1113 2906 1747 
Q 2906 2381 2643 2742 
Q 2381 3103 1925 3103 
Q 1469 3103 1208 2742 
Q 947 2381 947 1747 
z
" transform="scale(0.015625)"/>
       <path id="DejaVuSans-6f" d="M 1959 3097 
Q 1497 3097 1228 2736 
Q 959 2375 959 1747 
Q 959 1119 1226 758 
Q 1494 397 1959 397 
Q 2419 397 2687 759 
Q 2956 1122 2956 1747 
Q 2956 2369 2687 2733 
Q 2419 3097 1959 3097 
z
M 1959 3584 
Q 2709 3584 3137 3096 
Q 3566 2609 3566 1747 
Q 3566 888 3137 398 
Q 2709 -91 1959 -91 
Q 1206 -91 779 398 
Q 353 888 353 1747 
Q 353 2609 779 3096 
Q 1206 3584 1959 3584 
z
" transform="scale(0.015625)"/>
       <path id="DejaVuSans-29" d="M 513 4856 
L 1013 4856 
Q 1481 4119 1714 3412 
Q 1947 2706 1947 2009 
Q 1947 1309 1714 600 
Q 1481 -109 1013 -844 
L 513 -844 
Q 928 -128 1133 580 
Q 1338 1288 1338 2009 
Q 1338 2731 1133 3434 
Q 928 4138 513 4856 
z
" transform="scale(0.015625)"/>
      </defs>
      <use xlink:href="#DejaVuSans-4d"/>
      <use xlink:href="#DejaVuSans-65" x="86.279297"/>
      <use xlink:href="#DejaVuSans-61" x="147.802734"/>
      <use xlink:href="#DejaVuSans-6e" x="209.082031"/>
      <use xlink:href="#DejaVuSans-20" x="272.460938"/>
      <use xlink:href="#DejaVuSans-53" x="304.248047"/>
      <use xlink:href="#DejaVuSans-65" x="367.724609"/>
      <use xlink:href="#DejaVuSans-71" x="429.248047"/>
      <use xlink:href="#DejaVuSans-75" x="492.724609"/>
      <use xlink:href="#DejaVuSans-65" x="556.103516"/>
      <use xlink:href="#DejaVuSans-6e" x="617.626953"/>
      <use xlink:href="#DejaVuSans-63" x="681.005859"/>
      <use xlink:href="#DejaVuSans-65" x="735.986328"/>
      <use xlink:href="#DejaVuSans-20" x="797.509766"/>
      <use xlink:href="#DejaVuSans-51" x="829.296875"/>
      <use xlink:href="#DejaVuSans-75" x="908.007812"/>
      <use xlink:href="#DejaVuSans-61" x="971.386719"/>
      <use xlink:href="#DejaVuSans-6c" x="1032.666016"/>
      <use xlink:href="#DejaVuSans-69" x="1060.449219"/>
      <use xlink:href="#DejaVuSans-74" x="1088.232422"/>
      <use xlink:href="#DejaVuSans-79" x="1127.441406"/>
      <use xlink:href="#DejaVuSans-20" x="1186.621094"/>
      <use xlink:href="#DejaVuSans-28" x="1218.408203"/>
      <use xlink:href="#DejaVuSans-50" x="1257.421875"/>
      <use xlink:href="#DejaVuSans-68" x="1317.724609"/>
      <use xlink:href="#DejaVuSans-72" x="1381.103516"/>
      <use xlink:href="#DejaVuSans-65" x="1419.966797"/>
      <use xlink:href="#DejaVuSans-64" x="1481.490234"/>
      <use xlink:href="#DejaVuSans-20" x="1544.966797"/>
      <use xlink:href="#DejaVuSans-53" x="1576.753906"/>
      <use xlink:href="#DejaVuSans-63" x="1640.230469"/>
      <use xlink:href="#DejaVuSans-6f" x="1695.210938"/>
      <use xlink:href="#DejaVuSans-72" x="1756.392578"/>
      <use xlink:href="#DejaVuSans-65" x="1795.255859"/>
      <use xlink:href="#DejaVuSans-29" x="1856.779297"/>
     </g>
    </g>
   </g>
   <g id="matplotlib.axis_2">
    <g id="ytick_1">
     <g id="line2d_1">
      <path d="M 45.690625 353.2239 
L 993.100625 353.2239 
" clip-path="url(#p7ff8c26d80)" style="fill: none; stroke: #dedede; stroke-linecap: square"/>
     </g>
     <g id="text_10">
      <!-- 0.00 -->
      <g transform="translate(20.878125 356.263275) scale(0.08 -0.08)">
       <defs>
        <path id="DejaVuSans-2e" d="M 684 794 
L 1344 794 
L 1344 0 
L 684 0 
L 684 794 
z
" transform="scale(0.015625)"/>
       </defs>
       <use xlink:href="#DejaVuSans-30"/>
       <use xlink:href="#DejaVuSans-2e" x="63.623047"/>
       <use xlink:href="#DejaVuSans-30" x="95.410156"/>
       <use xlink:href="#DejaVuSans-30" x="159.033203"/>
      </g>
     </g>
    </g>
    <g id="ytick_2">
     <g id="line2d_2">
      <path d="M 45.690625 317.120815 
L 993.100625 317.120815 
" clip-path="url(#p7ff8c26d80)" style="fill: none; stroke: #dedede; stroke-linecap: square"/>
     </g>
     <g id="text_11">
      <!-- 0.25 -->
      <g transform="translate(20.878125 320.16019) scale(0.08 -0.08)">
       <use xlink:href="#DejaVuSans-30"/>
       <use xlink:href="#DejaVuSans-2e" x="63.623047"/>
       <use xlink:href="#DejaVuSans-32" x="95.410156"/>
       <use xlink:href="#DejaVuSans-35" x="159.033203"/>
      </g>
     </g>
    </g>
    <g id="ytick_3">
     <g id="line2d_3">
      <path d="M 45.690625 281.017731 
L 993.100625 281.017731 
" clip-path="url(#p7ff8c26d80)" style="fill: none; stroke: #dedede; stroke-linecap: square"/>
     </g>
     <g id="text_12">
      <!-- 0.50 -->
      <g transform="translate(20.878125 284.057106) scale(0.08 -0.08)">
       <use xlink:href="#DejaVuSans-30"/>
       <use xlink:href="#DejaVuSans-2e" x="63.623047"/>
       <use xlink:href="#DejaVuSans-35" x="95.410156"/>
       <use xlink:href="#DejaVuSans-30" x="159.033203"/>
      </g>
     </g>
    </g>
    <g id="ytick_4">
     <g id="line2d_4">
      <path d="M 45.690625 244.914646 
L 993.100625 244.914646 
" clip-path="url(#p7ff8c26d80)" style="fill: none; stroke: #dedede; stroke-linecap: square"/>
     </g>
     <g id="text_13">
      <!-- 0.75 -->
      <g transform="translate(20.878125 247.954021) scale(0.08 -0.08)">
       <defs>
        <path id="DejaVuSans-37" d="M 525 4666 
L 3525 4666 
L 3525 4397 
L 1831 0 
L 1172 0 
L 2766 4134 
L 525 4134 
L 525 4666 
z
" transform="scale(0.015625)"/>
       </defs>
       <use xlink:href="#DejaVuSans-30"/>
       <use xlink:href="#DejaVuSans-2e" x="63.623047"/>
       <use xlink:href="#DejaVuSans-37" x="95.410156"/>
       <use xlink:href="#DejaVuSans-35" x="159.033203"/>
      </g>
     </g>
    </g>
    <g id="ytick_5">
     <g id="line2d_5">
      <path d="M 45.690625 208.811561 
L 993.100625 208.811561 
" clip-path="url(#p7ff8c26d80)" style="fill: none; stroke: #dedede; stroke-linecap: square"/>
     </g>
     <g id="text_14">
      <!-- 1.00 -->
      <g transform="translate(20.878125 211.850936) scale(0.08 -0.08)">
       <use xlink:href="#DejaVuSans-31"/>
       <use xlink:href="#DejaVuSans-2e" x="63.623047"/>
       <use xlink:href="#DejaVuSans-30" x="95.410156"/>
       <use xlink:href="#DejaVuSans-30" x="159.033203"/>
      </g>
     </g>
    </g>
    <g id="ytick_6">
     <g id="line2d_6">
      <path d="M 45.690625 172.708477 
L 993.100625 172.708477 
" clip-path="url(#p7ff8c26d80)" style="fill: none; stroke: #dedede; stroke-linecap: square"/>
     </g>
     <g id="text_15">
      <!-- 1.25 -->
      <g transform="translate(20.878125 175.747852) scale(0.08 -0.08)">
       <use xlink:href="#DejaVuSans-31"/>
       <use xlink:href="#DejaVuSans-2e" x="63.623047"/>
       <use xlink:href="#DejaVuSans-32" x="95.410156"/>
       <use xlink:href="#DejaVuSans-35" x="159.033203"/>
      </g>
     </g>
    </g>
    <g id="ytick_7">
     <g id="line2d_7">
      <path d="M 45.690625 136.605392 
L 993.100625 136.605392 
" clip-path="url(#p7ff8c26d80)" style="fill: none; stroke: #dedede; stroke-linecap: square"/>
     </g>
     <g id="text_16">
      <!-- 1.50 -->
      <g transform="translate(20.878125 139.644767) scale(0.08 -0.08)">
       <use xlink:href="#DejaVuSans-31"/>
       <use xlink:href="#DejaVuSans-2e" x="63.623047"/>
       <use xlink:href="#DejaVuSans-35" x="95.410156"/>
       <use xlink:href="#DejaVuSans-30" x="159.033203"/>
      </g>
     </g>
    </g>
    <g id="ytick_8">
     <g id="line2d_8">
      <path d="M 45.690625 100.502307 
L 993.100625 100.502307 
" clip-path="url(#p7ff8c26d80)" style="fill: none; stroke: #dedede; stroke-linecap: square"/>
     </g>
     <g id="text_17">
      <!-- 1.75 -->
      <g transform="translate(20.878125 103.541682) scale(0.08 -0.08)">
       <use xlink:href="#DejaVuSans-31"/>
       <use xlink:href="#DejaVuSans-2e" x="63.623047"/>
       <use xlink:href="#DejaVuSans-37" x="95.410156"/>
       <use xlink:href="#DejaVuSans-35" x="159.033203"/>
      </g>
     </g>
    </g>
    <g id="ytick_9">
     <g id="line2d_9">
      <path d="M 45.690625 64.399223 
L 993.100625 64.399223 
" clip-path="url(#p7ff8c26d80)" style="fill: none; stroke: #dedede; stroke-linecap: square"/>
     </g>
     <g id="text_18">
      <!-- 2.00 -->
      <g transform="translate(20.878125 67.438598) scale(0.08 -0.08)">
       <use xlink:href="#DejaVuSans-32"/>
       <use xlink:href="#DejaVuSans-2e" x="63.623047"/>
       <use xlink:href="#DejaVuSans-30" x="95.410156"/>
       <use xlink:href="#DejaVuSans-30" x="159.033203"/>
      </g>
     </g>
    </g>
    <g id="text_19">
     <!-- Count -->
     <g transform="translate(14.798438 209.088338) rotate(-90) scale(0.1 -0.1)">
      <defs>
       <path id="DejaVuSans-43" d="M 4122 4306 
L 4122 3641 
Q 3803 3938 3442 4084 
Q 3081 4231 2675 4231 
Q 1875 4231 1450 3742 
Q 1025 3253 1025 2328 
Q 1025 1406 1450 917 
Q 1875 428 2675 428 
Q 3081 428 3442 575 
Q 3803 722 4122 1019 
L 4122 359 
Q 3791 134 3420 21 
Q 3050 -91 2638 -91 
Q 1578 -91 968 557 
Q 359 1206 359 2328 
Q 359 3453 968 4101 
Q 1578 4750 2638 4750 
Q 3056 4750 3426 4639 
Q 3797 4528 4122 4306 
z
" transform="scale(0.015625)"/>
      </defs>
      <use xlink:href="#DejaVuSans-43"/>
      <use xlink:href="#DejaVuSans-6f" x="69.824219"/>
      <use xlink:href="#DejaVuSans-75" x="131.005859"/>
      <use xlink:href="#DejaVuSans-6e" x="194.384766"/>
      <use xlink:href="#DejaVuSans-74" x="257.763672"/>
     </g>
    </g>
    <g id="text_20">
     <!-- 1e7 -->
     <g transform="translate(45.690625 32.2559) scale(0.1 -0.1)">
      <use xlink:href="#DejaVuSans-31"/>
      <use xlink:href="#DejaVuSans-65" x="63.623047"/>
      <use xlink:href="#DejaVuSans-37" x="125.146484"/>
     </g>
    </g>
   </g>
   <g id="line2d_10">
    <path d="M 439.419456 353.223886 
L 464.027508 353.223857 
L 488.63556 353.223741 
L 513.243612 353.223654 
L 537.851664 353.222889 
L 562.459716 353.219524 
L 587.067768 353.211553 
L 611.67582 353.180215 
L 636.283872 353.115215 
L 660.891924 352.951336 
L 685.499976 352.646482 
L 710.108028 352.15353 
L 734.71608 351.35802 
L 759.324131 350.264992 
L 783.932183 348.945612 
L 808.540235 346.945415 
L 833.148287 345.089687 
L 857.756339 340.601987 
L 882.364391 336.215867 
L 906.972443 314.810839 
L 931.580495 187.828189 
L 956.188547 208.78535 
" clip-path="url(#p7ff8c26d80)" style="fill: none; stroke: #5cb85c; stroke-linecap: square"/>
   </g>
   <g id="line2d_11">
    <path d="M 464.027508 353.223857 
L 488.63556 353.223813 
L 513.243612 353.223756 
L 537.851664 353.22325 
L 562.459716 353.221358 
L 587.067768 353.214614 
L 611.67582 353.19057 
L 636.283872 353.130855 
L 660.891924 352.988941 
L 685.499976 352.696665 
L 710.108028 352.203324 
L 734.71608 351.45765 
L 759.324131 350.318757 
L 783.932183 348.982582 
L 808.540235 347.079299 
L 833.148287 344.875943 
L 857.756339 341.046849 
L 882.364391 335.536363 
L 906.972443 315.862536 
L 931.580495 187.994104 
L 956.188547 208.030334 
" clip-path="url(#p7ff8c26d80)" style="fill: none; stroke: #5cb85c; stroke-linecap: square"/>
   </g>
   <g id="line2d_12">
    <path d="M 316.379196 353.22351 
L 340.987248 353.218398 
L 365.5953 353.206715 
L 390.203352 353.195436 
L 414.811404 353.189154 
L 439.419456 353.187133 
L 464.027508 353.177154 
L 488.63556 353.165716 
L 513.243612 353.137599 
L 537.851664 353.075848 
L 562.459716 352.973821 
L 587.067768 352.797234 
L 611.67582 352.502763 
L 636.283872 352.23147 
L 660.891924 351.717636 
L 685.499976 351.254491 
L 710.108028 350.688395 
L 734.71608 349.915298 
L 759.324131 348.972473 
L 783.932183 347.760204 
L 808.540235 345.795459 
L 833.148287 343.64773 
L 857.756339 338.184308 
L 882.364391 331.458895 
L 906.972443 295.715138 
L 931.580495 175.475706 
L 956.188547 260.693658 
" clip-path="url(#p7ff8c26d80)" style="fill: none; stroke: #5cb85c; stroke-linecap: square"/>
   </g>
   <g id="line2d_13">
    <path d="M 316.379196 353.223886 
L 340.987248 353.22351 
L 365.5953 353.22208 
L 390.203352 353.219235 
L 414.811404 353.215582 
L 439.419456 353.211192 
L 464.027508 353.204087 
L 488.63556 353.191277 
L 513.243612 353.166337 
L 537.851664 353.111157 
L 562.459716 353.012581 
L 587.067768 352.842218 
L 611.67582 352.566737 
L 636.283872 352.266793 
L 660.891924 351.808327 
L 685.499976 351.293309 
L 710.108028 350.696944 
L 734.71608 350.006148 
L 759.324131 348.962985 
L 783.932183 347.751597 
L 808.540235 345.921531 
L 833.148287 343.378849 
L 857.756339 338.715601 
L 882.364391 330.372568 
L 906.972443 297.325104 
L 931.580495 174.984054 
L 956.188547 260.175131 
" clip-path="url(#p7ff8c26d80)" style="fill: none; stroke: #5cb85c; stroke-linecap: square"/>
   </g>
   <g id="line2d_14">
    <path d="M 464.027508 353.223871 
L 488.63556 353.223741 
L 513.243612 353.223727 
L 537.851664 353.223236 
L 562.459716 353.220752 
L 587.067768 353.214239 
L 611.67582 353.191248 
L 636.283872 353.143101 
L 660.891924 353.013823 
L 685.499976 352.782749 
L 710.108028 352.3895 
L 734.71608 351.764873 
L 759.324131 350.935802 
L 783.932183 349.891239 
L 808.540235 348.375934 
L 833.148287 346.999483 
L 857.756339 343.651124 
L 882.364391 340.362219 
L 906.972443 323.52403 
L 931.580495 227.423265 
L 956.188547 247.834577 
" clip-path="url(#p7ff8c26d80)" style="fill: none; stroke: #5cb85c; stroke-linecap: square"/>
   </g>
   <g id="line2d_15">
    <path d="M 488.63556 353.223813 
L 513.243612 353.223842 
L 537.851664 353.223467 
L 562.459716 353.22208 
L 587.067768 353.216939 
L 611.67582 353.198455 
L 636.283872 353.15451 
L 660.891924 353.045146 
L 685.499976 352.821928 
L 710.108028 352.429199 
L 734.71608 351.84921 
L 759.324131 350.973912 
L 783.932183 349.914951 
L 808.540235 348.476662 
L 833.148287 346.844644 
L 857.756339 343.98655 
L 882.364391 339.868401 
L 906.972443 324.337158 
L 931.580495 227.528007 
L 956.188547 247.338593 
" clip-path="url(#p7ff8c26d80)" style="fill: none; stroke: #5cb85c; stroke-linecap: square"/>
   </g>
   <g id="line2d_16">
    <path d="M 316.379196 353.223712 
L 340.987248 353.220015 
L 365.5953 353.211408 
L 390.203352 353.200014 
L 414.811404 353.194815 
L 439.419456 353.191508 
L 464.027508 353.185226 
L 488.63556 353.176172 
L 513.243612 353.152373 
L 537.851664 353.107778 
L 562.459716 353.030142 
L 587.067768 352.896113 
L 611.67582 352.659291 
L 636.283872 352.435466 
L 660.891924 352.02509 
L 685.499976 351.639942 
L 710.108028 351.166327 
L 734.71608 350.515028 
L 759.324131 349.758235 
L 783.932183 348.776202 
L 808.540235 347.173297 
L 833.148287 345.373183 
L 857.756339 340.728117 
L 882.364391 334.527311 
L 906.972443 303.38918 
L 931.580495 218.624553 
L 956.188547 297.375432 
" clip-path="url(#p7ff8c26d80)" style="fill: none; stroke: #5cb85c; stroke-linecap: square"/>
   </g>
   <g id="line2d_17">
    <path d="M 340.987248 353.223669 
L 365.5953 353.222701 
L 390.203352 353.220449 
L 414.811404 353.217084 
L 439.419456 353.213632 
L 464.027508 353.206802 
L 488.63556 353.196548 
L 513.243612 353.175363 
L 537.851664 353.136401 
L 562.459716 353.060512 
L 587.067768 352.928042 
L 611.67582 352.711857 
L 636.283872 352.472075 
L 660.891924 352.100661 
L 685.499976 351.670269 
L 710.108028 351.170299 
L 734.71608 350.60169 
L 759.324131 349.746047 
L 783.932183 348.784361 
L 808.540235 347.272104 
L 833.148287 345.151207 
L 857.756339 341.187536 
L 882.364391 333.563676 
L 906.972443 304.8489 
L 931.580495 218.166549 
L 956.188547 296.972435 
" clip-path="url(#p7ff8c26d80)" style="fill: none; stroke: #5cb85c; stroke-linecap: square"/>
   </g>
   <g id="line2d_18">
    <path d="M 464.027508 353.223871 
L 488.63556 353.223842 
L 513.243612 353.223409 
L 537.851664 353.222716 
L 562.459716 353.219423 
L 587.067768 353.210195 
L 611.67582 353.176966 
L 636.283872 353.107215 
L 660.891924 352.940505 
L 685.499976 352.641413 
L 710.108028 352.159812 
L 734.71608 351.399683 
L 759.324131 350.389389 
L 783.932183 349.121882 
L 808.540235 347.244218 
L 833.148287 345.542969 
L 857.756339 341.360138 
L 882.364391 337.307841 
L 906.972443 317.090388 
L 931.580495 195.89473 
L 956.188547 211.21555 
" clip-path="url(#p7ff8c26d80)" style="fill: none; stroke: #5cb85c; stroke-linecap: square"/>
   </g>
   <g id="line2d_19">
    <path d="M 464.027508 353.223871 
L 488.63556 353.223886 
L 513.243612 353.223683 
L 537.851664 353.223279 
L 562.459716 353.220925 
L 587.067768 353.214138 
L 611.67582 353.186772 
L 636.283872 353.123302 
L 660.891924 352.97928 
L 685.499976 352.691091 
L 710.108028 352.202168 
L 734.71608 351.49293 
L 759.324131 350.429131 
L 783.932183 349.149494 
L 808.540235 347.373438 
L 833.148287 345.325484 
L 857.756339 341.798487 
L 882.364391 336.595397 
L 906.972443 318.086717 
L 931.580495 196.013942 
L 956.188547 210.489199 
" clip-path="url(#p7ff8c26d80)" style="fill: none; stroke: #5cb85c; stroke-linecap: square"/>
   </g>
   <g id="line2d_20">
    <path d="M 316.379196 353.223467 
L 340.987248 353.219423 
L 365.5953 353.209199 
L 390.203352 353.196664 
L 414.811404 353.191436 
L 439.419456 353.190324 
L 464.027508 353.182699 
L 488.63556 353.174193 
L 513.243612 353.152589 
L 537.851664 353.105482 
L 562.459716 353.020163 
L 587.067768 352.877238 
L 611.67582 352.630264 
L 636.283872 352.39454 
L 660.891924 351.971628 
L 685.499976 351.575231 
L 710.108028 351.093471 
L 734.71608 350.426676 
L 759.324131 349.608089 
L 783.932183 348.544507 
L 808.540235 346.757433 
L 833.148287 344.796328 
L 857.756339 339.899089 
L 882.364391 333.888532 
L 906.972443 302.155018 
L 931.580495 185.152618 
L 956.188547 250.623251 
" clip-path="url(#p7ff8c26d80)" style="fill: none; stroke: #5cb85c; stroke-linecap: square"/>
   </g>
   <g id="line2d_21">
    <path d="M 340.987248 353.223669 
L 365.5953 353.222095 
L 390.203352 353.21964 
L 414.811404 353.216521 
L 439.419456 353.212506 
L 464.027508 353.206152 
L 488.63556 353.196909 
L 513.243612 353.177226 
L 537.851664 353.134812 
L 562.459716 353.055096 
L 587.067768 352.915493 
L 611.67582 352.683827 
L 636.283872 352.430166 
L 660.891924 352.047084 
L 685.499976 351.610699 
L 710.108028 351.096129 
L 734.71608 350.506262 
L 759.324131 349.599006 
L 783.932183 348.539944 
L 808.540235 346.871288 
L 833.148287 344.557066 
L 857.756339 340.380141 
L 882.364391 332.954993 
L 906.972443 303.573321 
L 931.580495 184.730414 
L 956.188547 250.025659 
" clip-path="url(#p7ff8c26d80)" style="fill: none; stroke: #5cb85c; stroke-linecap: square"/>
   </g>
   <g id="line2d_22">
    <path d="M 439.419456 353.223871 
L 464.027508 353.223886 
L 488.63556 353.223813 
L 513.243612 353.223539 
L 537.851664 353.222398 
L 562.459716 353.218961 
L 587.067768 353.206989 
L 611.67582 353.170713 
L 636.283872 353.092268 
L 660.891924 352.905355 
L 685.499976 352.576254 
L 710.108028 352.042881 
L 734.71608 351.194329 
L 759.324131 350.081228 
L 783.932183 348.722105 
L 808.540235 346.705459 
L 833.148287 344.953319 
L 857.756339 340.675522 
L 882.364391 336.570587 
L 906.972443 314.303432 
L 931.580495 177.289048 
L 956.188547 201.959615 
" clip-path="url(#p7ff8c26d80)" style="fill: none; stroke: #5cb85c; stroke-linecap: square"/>
   </g>
   <g id="line2d_23">
    <path d="M 464.027508 353.223886 
L 488.63556 353.223857 
L 513.243612 353.223712 
L 537.851664 353.222875 
L 562.459716 353.22068 
L 587.067768 353.211596 
L 611.67582 353.180995 
L 636.283872 353.110551 
L 660.891924 352.945921 
L 685.499976 352.63077 
L 710.108028 352.090769 
L 734.71608 351.301887 
L 759.324131 350.121056 
L 783.932183 348.747738 
L 808.540235 346.846637 
L 833.148287 344.726158 
L 857.756339 341.098607 
L 882.364391 335.880296 
L 906.972443 315.330319 
L 931.580495 177.518245 
L 956.188547 201.219415 
" clip-path="url(#p7ff8c26d80)" style="fill: none; stroke: #5cb85c; stroke-linecap: square"/>
   </g>
   <g id="line2d_24">
    <path d="M 316.379196 353.223423 
L 340.987248 353.218817 
L 365.5953 353.207134 
L 390.203352 353.194613 
L 414.811404 353.187479 
L 439.419456 353.187393 
L 464.027508 353.180995 
L 488.63556 353.175045 
L 513.243612 353.149109 
L 537.851664 353.100153 
L 562.459716 353.010025 
L 587.067768 352.855288 
L 611.67582 352.588067 
L 636.283872 352.325915 
L 660.891924 351.844286 
L 685.499976 351.41037 
L 710.108028 350.880016 
L 734.71608 350.18184 
L 759.324131 349.362357 
L 783.932183 348.311599 
L 808.540235 346.519485 
L 833.148287 344.576532 
L 857.756339 339.526289 
L 882.364391 333.192465 
L 906.972443 299.864292 
L 931.580495 167.980012 
L 956.188547 238.652075 
" clip-path="url(#p7ff8c26d80)" style="fill: none; stroke: #5cb85c; stroke-linecap: square"/>
   </g>
   <g id="line2d_25">
    <path d="M 316.379196 353.223886 
L 340.987248 353.223423 
L 365.5953 353.222514 
L 390.203352 353.219351 
L 414.811404 353.21551 
L 439.419456 353.212174 
L 464.027508 353.207119 
L 488.63556 353.196389 
L 513.243612 353.174381 
L 537.851664 353.130205 
L 562.459716 353.04597 
L 587.067768 352.894568 
L 611.67582 352.650944 
L 636.283872 352.368214 
L 660.891924 351.93632 
L 685.499976 351.458185 
L 710.108028 350.901952 
L 734.71608 350.282813 
L 759.324131 349.354978 
L 783.932183 348.313173 
L 808.540235 346.653038 
L 833.148287 344.322944 
L 857.756339 340.036425 
L 882.364391 332.19033 
L 906.972443 301.406991 
L 931.580495 167.623704 
L 956.188547 237.95387 
" clip-path="url(#p7ff8c26d80)" style="fill: none; stroke: #5cb85c; stroke-linecap: square"/>
   </g>
   <g id="line2d_26">
    <path d="M 439.419456 353.223886 
L 464.027508 353.223871 
L 488.63556 353.223698 
L 513.243612 353.22325 
L 537.851664 353.221445 
L 562.459716 353.215177 
L 587.067768 353.195971 
L 611.67582 353.132689 
L 636.283872 353.015802 
L 660.891924 352.755556 
L 685.499976 352.304715 
L 710.108028 351.629169 
L 734.71608 350.518783 
L 759.324131 348.966639 
L 783.932183 346.854204 
L 808.540235 343.448152 
L 833.148287 339.5393 
L 857.756339 329.41562 
L 882.364391 313.58784 
L 906.972443 244.052143 
L 931.580495 205.780693 
L 956.188547 332.502794 
" clip-path="url(#p7ff8c26d80)" style="fill: none; stroke: #5cb85c; stroke-linecap: square"/>
   </g>
   <g id="line2d_27">
    <path d="M 439.419456 353.223886 
L 464.027508 353.2239 
L 488.63556 353.223756 
L 513.243612 353.22351 
L 537.851664 353.222514 
L 562.459716 353.217777 
L 587.067768 353.202917 
L 611.67582 353.150365 
L 636.283872 353.040814 
L 660.891924 352.809942 
L 685.499976 352.373831 
L 710.108028 351.669272 
L 734.71608 350.647324 
L 759.324131 349.016548 
L 783.932183 346.881556 
L 808.540235 343.635426 
L 833.148287 339.159943 
L 857.756339 330.269342 
L 882.364391 311.71331 
L 906.972443 246.940145 
L 931.580495 204.40944 
L 956.188547 332.18334 
" clip-path="url(#p7ff8c26d80)" style="fill: none; stroke: #5cb85c; stroke-linecap: square"/>
   </g>
   <g id="line2d_28">
    <path d="M 316.379196 353.22364 
L 340.987248 353.220174 
L 365.5953 353.208881 
L 390.203352 353.197184 
L 414.811404 353.192952 
L 439.419456 353.192303 
L 464.027508 353.189429 
L 488.63556 353.186122 
L 513.243612 353.172937 
L 537.851664 353.156387 
L 562.459716 353.129223 
L 587.067768 353.084542 
L 611.67582 353.008004 
L 636.283872 352.936014 
L 660.891924 352.794114 
L 685.499976 352.63838 
L 710.108028 352.410007 
L 734.71608 352.067677 
L 759.324131 351.574177 
L 783.932183 350.849501 
L 808.540235 349.602197 
L 833.148287 347.971378 
L 857.756339 343.974867 
L 882.364391 338.080995 
L 906.972443 306.54472 
L 931.580495 176.561427 
L 956.188547 236.983665 
" clip-path="url(#p7ff8c26d80)" style="fill: none; stroke: #5cb85c; stroke-linecap: square"/>
   </g>
   <g id="line2d_29">
    <path d="M 340.987248 353.223626 
L 365.5953 353.222196 
L 390.203352 353.219683 
L 414.811404 353.21678 
L 439.419456 353.213416 
L 464.027508 353.209661 
L 488.63556 353.204058 
L 513.243612 353.191956 
L 537.851664 353.173933 
L 562.459716 353.14612 
L 587.067768 353.101063 
L 611.67582 353.031138 
L 636.283872 352.95291 
L 660.891924 352.826492 
L 685.499976 352.660259 
L 710.108028 352.427249 
L 734.71608 352.113441 
L 759.324131 351.581556 
L 783.932183 350.874398 
L 808.540235 349.66971 
L 833.148287 347.841392 
L 857.756339 344.325024 
L 882.364391 337.348161 
L 906.972443 307.883783 
L 931.580495 176.314424 
L 956.188547 236.362027 
" clip-path="url(#p7ff8c26d80)" style="fill: none; stroke: #5cb85c; stroke-linecap: square"/>
   </g>
   <g id="line2d_30">
    <path d="M 390.203352 353.223886 
L 414.811404 353.223886 
L 439.419456 353.223886 
L 464.027508 353.223857 
L 488.63556 353.223712 
L 513.243612 353.223366 
L 537.851664 353.221286 
L 562.459716 353.214932 
L 587.067768 353.194238 
L 611.67582 353.128545 
L 636.283872 353.015686 
L 660.891924 352.774749 
L 685.499976 352.383593 
L 710.108028 351.831895 
L 734.71608 350.991964 
L 759.324131 349.84016 
L 783.932183 348.355543 
L 808.540235 345.927784 
L 833.148287 343.438664 
L 857.756339 337.21946 
L 882.364391 328.763223 
L 906.972443 282.038249 
L 931.580495 196.933632 
L 956.188547 315.243383 
" clip-path="url(#p7ff8c26d80)" style="fill: none; stroke: #5cb85c; stroke-linecap: square"/>
   </g>
   <g id="line2d_31">
    <path d="M 390.203352 353.223886 
L 414.811404 353.2239 
L 439.419456 353.223886 
L 464.027508 353.223886 
L 488.63556 353.223842 
L 513.243612 353.223496 
L 537.851664 353.222413 
L 562.459716 353.217762 
L 587.067768 353.200303 
L 611.67582 353.147491 
L 636.283872 353.040872 
L 660.891924 352.822116 
L 685.499976 352.444232 
L 710.108028 351.868922 
L 734.71608 351.084446 
L 759.324131 349.881866 
L 783.932183 348.368988 
L 808.540235 346.077078 
L 833.148287 343.178087 
L 857.756339 337.752169 
L 882.364391 327.69512 
L 906.972443 283.856025 
L 931.580495 196.249522 
L 956.188547 314.807113 
" clip-path="url(#p7ff8c26d80)" style="fill: none; stroke: #5cb85c; stroke-linecap: square"/>
   </g>
   <g id="line2d_32">
    <path d="M 316.379196 353.223712 
L 340.987248 353.220968 
L 365.5953 353.211986 
L 390.203352 353.200346 
L 414.811404 353.195407 
L 439.419456 353.194353 
L 464.027508 353.189645 
L 488.63556 353.184143 
L 513.243612 353.174006 
L 537.851664 353.150885 
L 562.459716 353.111172 
L 587.067768 353.053436 
L 611.67582 352.944592 
L 636.283872 352.852255 
L 660.891924 352.671653 
L 685.499976 352.498387 
L 710.108028 352.284151 
L 734.71608 351.961635 
L 759.324131 351.534752 
L 783.932183 350.904941 
L 808.540235 349.790396 
L 833.148287 348.356121 
L 857.756339 344.721017 
L 882.364391 339.499052 
L 906.972443 311.772548 
L 931.580495 198.417729 
L 956.188547 252.211989 
" clip-path="url(#p7ff8c26d80)" style="fill: none; stroke: #5cb85c; stroke-linecap: square"/>
   </g>
   <g id="line2d_33">
    <path d="M 316.379196 353.223871 
L 340.987248 353.22364 
L 365.5953 353.222441 
L 390.203352 353.220145 
L 414.811404 353.217156 
L 439.419456 353.213387 
L 464.027508 353.208997 
L 488.63556 353.202758 
L 513.243612 353.191956 
L 537.851664 353.170482 
L 562.459716 353.13396 
L 587.067768 353.07296 
L 611.67582 352.975222 
L 636.283872 352.87188 
L 660.891924 352.714197 
L 685.499976 352.525248 
L 710.108028 352.295574 
L 734.71608 352.01501 
L 759.324131 351.540312 
L 783.932183 350.928033 
L 808.540235 349.867208 
L 833.148287 348.219189 
L 857.756339 345.060891 
L 882.364391 338.8123 
L 906.972443 312.996413 
L 931.580495 198.190323 
L 956.188547 251.615566 
" clip-path="url(#p7ff8c26d80)" style="fill: none; stroke: #5cb85c; stroke-linecap: square"/>
   </g>
   <g id="line2d_34">
    <path d="M 488.63556 353.223813 
L 513.243612 353.22364 
L 537.851664 353.222311 
L 562.459716 353.218225 
L 587.067768 353.204607 
L 611.67582 353.163521 
L 636.283872 353.082318 
L 660.891924 352.882105 
L 685.499976 352.581929 
L 710.108028 351.937692 
L 734.71608 351.14764 
L 759.324131 349.646575 
L 783.932183 348.002527 
L 808.540235 345.490316 
L 833.148287 342.0053 
L 857.756339 337.779708 
L 882.364391 328.407867 
L 906.972443 289.179295 
L 931.580495 219.353778 
L 956.188547 339.483023 
" clip-path="url(#p7ff8c26d80)" style="fill: none; stroke: #5cb85c; stroke-linecap: square"/>
   </g>
   <g id="line2d_35">
    <path d="M 488.63556 353.223871 
L 513.243612 353.223842 
L 537.851664 353.222961 
L 562.459716 353.219726 
L 587.067768 353.209892 
L 611.67582 353.174858 
L 636.283872 353.100803 
L 660.891924 352.926266 
L 685.499976 352.61796 
L 710.108028 352.035228 
L 734.71608 351.177274 
L 759.324131 349.791681 
L 783.932183 348.016348 
L 808.540235 345.521668 
L 833.148287 342.222814 
L 857.756339 337.400698 
L 882.364391 328.964533 
L 906.972443 289.603116 
L 931.580495 218.602805 
L 956.188547 339.342856 
" clip-path="url(#p7ff8c26d80)" style="fill: none; stroke: #5cb85c; stroke-linecap: square"/>
   </g>
   <g id="line2d_36">
    <path d="M 316.379196 353.223654 
L 340.987248 353.221893 
L 365.5953 353.216073 
L 390.203352 353.209762 
L 414.811404 353.203538 
L 439.419456 353.198281 
L 464.027508 353.187003 
L 488.63556 353.170872 
L 513.243612 353.13591 
L 537.851664 353.082087 
L 562.459716 352.965258 
L 587.067768 352.838449 
L 611.67582 352.551733 
L 636.283872 352.32076 
L 660.891924 351.799041 
L 685.499976 351.419006 
L 710.108028 350.555117 
L 734.71608 349.873736 
L 759.324131 348.50218 
L 783.932183 347.14378 
L 808.540235 344.859191 
L 833.148287 341.170683 
L 857.756339 335.896658 
L 882.364391 323.530976 
L 906.972443 281.313776 
L 931.580495 238.166402 
L 956.188547 346.047675 
" clip-path="url(#p7ff8c26d80)" style="fill: none; stroke: #5cb85c; stroke-linecap: square"/>
   </g>
   <g id="line2d_37">
    <path d="M 316.379196 353.223857 
L 340.987248 353.223683 
L 365.5953 353.222831 
L 390.203352 353.220737 
L 414.811404 353.217661 
L 439.419456 353.213618 
L 464.027508 353.205242 
L 488.63556 353.191653 
L 513.243612 353.161846 
L 537.851664 353.106247 
L 562.459716 353.005375 
L 587.067768 352.868487 
L 611.67582 352.602595 
L 636.283872 352.354133 
L 660.891924 351.878685 
L 685.499976 351.415237 
L 710.108028 350.682026 
L 734.71608 349.839972 
L 759.324131 348.629162 
L 783.932183 347.115778 
L 808.540235 344.865126 
L 833.148287 341.420083 
L 857.756339 335.449254 
L 882.364391 324.224617 
L 906.972443 281.71052 
L 931.580495 237.175618 
L 956.188547 345.942457 
" clip-path="url(#p7ff8c26d80)" style="fill: none; stroke: #5cb85c; stroke-linecap: square"/>
   </g>
   <g id="line2d_38">
    <path d="M 488.63556 353.223871 
L 513.243612 353.223525 
L 537.851664 353.221849 
L 562.459716 353.214412 
L 587.067768 353.194483 
L 611.67582 353.132862 
L 636.283872 353.019427 
L 660.891924 352.751556 
L 685.499976 352.381037 
L 710.108028 351.588315 
L 734.71608 350.618254 
L 759.324131 348.735767 
L 783.932183 346.630567 
L 808.540235 343.431256 
L 833.148287 339.093427 
L 857.756339 334.025897 
L 882.364391 322.70202 
L 906.972443 275.835754 
L 931.580495 135.630652 
L 956.188547 319.546293 
" clip-path="url(#p7ff8c26d80)" style="fill: none; stroke: #5cb85c; stroke-linecap: square"/>
   </g>
   <g id="line2d_39">
    <path d="M 488.63556 353.223871 
L 513.243612 353.223597 
L 537.851664 353.222802 
L 562.459716 353.217546 
L 587.067768 353.201357 
L 611.67582 353.150365 
L 636.283872 353.044684 
L 660.891924 352.809206 
L 685.499976 352.421227 
L 710.108028 351.709433 
L 734.71608 350.656321 
L 759.324131 348.910809 
L 783.932183 346.642654 
L 808.540235 343.476414 
L 833.148287 339.348734 
L 857.756339 333.526432 
L 882.364391 323.411402 
L 906.972443 276.347782 
L 931.580495 134.844543 
L 956.188547 319.31506 
" clip-path="url(#p7ff8c26d80)" style="fill: none; stroke: #5cb85c; stroke-linecap: square"/>
   </g>
   <g id="line2d_40">
    <path d="M 291.771144 353.223886 
L 316.379196 353.223698 
L 340.987248 353.221575 
L 365.5953 353.214239 
L 390.203352 353.206469 
L 414.811404 353.199509 
L 439.419456 353.194454 
L 464.027508 353.182901 
L 488.63556 353.16173 
L 513.243612 353.108543 
L 537.851664 353.02178 
L 562.459716 352.835951 
L 587.067768 352.637846 
L 611.67582 352.21892 
L 636.283872 351.940175 
L 660.891924 351.262246 
L 685.499976 350.807983 
L 710.108028 349.716139 
L 734.71608 348.895371 
L 759.324131 347.183782 
L 783.932183 345.56297 
L 808.540235 342.795712 
L 833.148287 338.504615 
L 857.756339 332.284241 
L 882.364391 317.26387 
L 906.972443 259.118986 
L 931.580495 158.824992 
L 956.188547 334.179841 
" clip-path="url(#p7ff8c26d80)" style="fill: none; stroke: #5cb85c; stroke-linecap: square"/>
   </g>
   <g id="line2d_41">
    <path d="M 340.987248 353.223784 
L 365.5953 353.222875 
L 390.203352 353.220405 
L 414.811404 353.217546 
L 439.419456 353.21252 
L 464.027508 353.203162 
L 488.63556 353.184519 
L 513.243612 353.142437 
L 537.851664 353.056757 
L 562.459716 352.8962 
L 587.067768 352.679668 
L 611.67582 352.295733 
L 636.283872 351.976668 
L 660.891924 351.372259 
L 685.499976 350.79682 
L 710.108028 349.871252 
L 734.71608 348.852827 
L 759.324131 347.35091 
L 783.932183 345.513046 
L 808.540235 342.815207 
L 833.148287 338.788905 
L 857.756339 331.750536 
L 882.364391 318.116668 
L 906.972443 259.73193 
L 931.580495 157.575652 
L 956.188547 333.979353 
" clip-path="url(#p7ff8c26d80)" style="fill: none; stroke: #5cb85c; stroke-linecap: square"/>
   </g>
   <g id="line2d_42">
    <path d="M 439.419456 353.223886 
L 464.027508 353.223886 
L 488.63556 353.223813 
L 513.243612 353.223395 
L 537.851664 353.221402 
L 562.459716 353.2133 
L 587.067768 353.191003 
L 611.67582 353.118638 
L 636.283872 352.975366 
L 660.891924 352.633846 
L 685.499976 352.126496 
L 710.108028 351.037656 
L 734.71608 349.673479 
L 759.324131 347.077855 
L 783.932183 344.154877 
L 808.540235 339.674817 
L 833.148287 333.554304 
L 857.756339 326.214908 
L 882.364391 309.787499 
L 906.972443 239.726503 
L 931.580495 51.382227 
L 956.188547 310.6591 
" clip-path="url(#p7ff8c26d80)" style="fill: none; stroke: #5cb85c; stroke-linecap: square"/>
   </g>
   <g id="line2d_43">
    <path d="M 488.63556 353.223871 
L 513.243612 353.223669 
L 537.851664 353.222326 
L 562.459716 353.216737 
L 587.067768 353.198974 
L 611.67582 353.13861 
L 636.283872 353.01043 
L 660.891924 352.707944 
L 685.499976 352.192478 
L 710.108028 351.201506 
L 734.71608 349.729786 
L 759.324131 347.32353 
L 783.932183 344.17316 
L 808.540235 339.74773 
L 833.148287 333.881153 
L 857.756339 325.57106 
L 882.364391 310.711103 
L 906.972443 240.474602 
L 931.580495 50.397233 
L 956.188547 310.37647 
" clip-path="url(#p7ff8c26d80)" style="fill: none; stroke: #5cb85c; stroke-linecap: square"/>
   </g>
   <g id="line2d_44">
    <path d="M 217.946989 353.223886 
L 242.555041 353.2239 
L 267.163093 353.2239 
L 291.771144 353.2239 
L 316.379196 353.223423 
L 340.987248 353.219741 
L 365.5953 353.20709 
L 390.203352 353.193039 
L 414.811404 353.178078 
L 439.419456 353.171132 
L 464.027508 353.151246 
L 488.63556 353.121439 
L 513.243612 353.050172 
L 537.851664 352.938902 
L 562.459716 352.688795 
L 587.067768 352.425372 
L 611.67582 351.840025 
L 636.283872 351.387899 
L 660.891924 350.321703 
L 685.499976 349.591598 
L 710.108028 347.866029 
L 734.71608 346.605381 
L 759.324131 343.973524 
L 783.932183 341.53245 
L 808.540235 337.425407 
L 833.148287 330.987187 
L 857.756339 321.910178 
L 882.364391 300.06644 
L 906.972443 217.992171 
L 931.580495 100.282483 
L 956.188547 324.086862 
" clip-path="url(#p7ff8c26d80)" style="fill: none; stroke: #5cb85c; stroke-linecap: square"/>
   </g>
   <g id="line2d_45">
    <path d="M 316.379196 353.223871 
L 340.987248 353.223322 
L 365.5953 353.221257 
L 390.203352 353.216391 
L 414.811404 353.209589 
L 439.419456 353.201011 
L 464.027508 353.186338 
L 488.63556 353.15773 
L 513.243612 353.097828 
L 537.851664 352.98689 
L 562.459716 352.765694 
L 587.067768 352.489751 
L 611.67582 351.938125 
L 636.283872 351.454372 
L 660.891924 350.500702 
L 685.499976 349.599396 
L 710.108028 348.142304 
L 734.71608 346.554346 
L 759.324131 344.22847 
L 783.932183 341.473501 
L 808.540235 337.434043 
L 833.148287 331.462159 
L 857.756339 321.03283 
L 882.364391 301.368808 
L 906.972443 218.830456 
L 931.580495 98.503987 
L 956.188547 323.786499 
" clip-path="url(#p7ff8c26d80)" style="fill: none; stroke: #5cb85c; stroke-linecap: square"/>
   </g>
   <g id="line2d_46">
    <path d="M 464.027508 353.223886 
L 488.63556 353.223842 
L 513.243612 353.223568 
L 537.851664 353.222326 
L 562.459716 353.216636 
L 587.067768 353.201126 
L 611.67582 353.149701 
L 636.283872 353.055299 
L 660.891924 352.811964 
L 685.499976 352.456247 
L 710.108028 351.657228 
L 734.71608 350.676539 
L 759.324131 348.806182 
L 783.932183 346.740017 
L 808.540235 343.649853 
L 833.148287 339.391032 
L 857.756339 334.404633 
L 882.364391 323.279251 
L 906.972443 277.846826 
L 931.580495 165.550087 
L 956.188547 327.805668 
" clip-path="url(#p7ff8c26d80)" style="fill: none; stroke: #5cb85c; stroke-linecap: square"/>
   </g>
   <g id="line2d_47">
    <path d="M 488.63556 353.223871 
L 513.243612 353.223741 
L 537.851664 353.222875 
L 562.459716 353.219091 
L 587.067768 353.206599 
L 611.67582 353.164214 
L 636.283872 353.074462 
L 660.891924 352.862667 
L 685.499976 352.495889 
L 710.108028 351.778925 
L 734.71608 350.702504 
L 759.324131 348.982206 
L 783.932183 346.745158 
L 808.540235 343.685465 
L 833.148287 339.648707 
L 857.756339 333.917819 
L 882.364391 323.962899 
L 906.972443 278.337784 
L 931.580495 164.717174 
L 956.188547 327.605469 
" clip-path="url(#p7ff8c26d80)" style="fill: none; stroke: #5cb85c; stroke-linecap: square"/>
   </g>
   <g id="line2d_48">
    <path d="M 316.379196 353.223669 
L 340.987248 353.221156 
L 365.5953 353.21265 
L 390.203352 353.203004 
L 414.811404 353.194772 
L 439.419456 353.188172 
L 464.027508 353.173803 
L 488.63556 353.150654 
L 513.243612 353.0926 
L 537.851664 353.002256 
L 562.459716 352.795024 
L 587.067768 352.588154 
L 611.67582 352.136764 
L 636.283872 351.817656 
L 660.891924 351.065455 
L 685.499976 350.574728 
L 710.108028 349.437408 
L 734.71608 348.628309 
L 759.324131 346.876689 
L 783.932183 345.252584 
L 808.540235 342.509169 
L 833.148287 338.13775 
L 857.756339 331.802496 
L 882.364391 316.793967 
L 906.972443 261.074098 
L 931.580495 193.731187 
L 956.188547 343.051134 
" clip-path="url(#p7ff8c26d80)" style="fill: none; stroke: #5cb85c; stroke-linecap: square"/>
   </g>
   <g id="line2d_49">
    <path d="M 316.379196 353.223871 
L 340.987248 353.223683 
L 365.5953 353.222456 
L 390.203352 353.219394 
L 414.811404 353.215625 
L 439.419456 353.2106 
L 464.027508 353.199047 
L 488.63556 353.178208 
L 513.243612 353.131563 
L 537.851664 353.038879 
L 562.459716 352.861078 
L 587.067768 352.628676 
L 611.67582 352.215007 
L 636.283872 351.854727 
L 660.891924 351.189939 
L 685.499976 350.555478 
L 710.108028 349.601519 
L 734.71608 348.549908 
L 759.324131 347.034792 
L 783.932183 345.192307 
L 808.540235 342.490857 
L 833.148287 338.442849 
L 857.756339 331.227171 
L 882.364391 317.601564 
L 906.972443 261.655545 
L 931.580495 192.46924 
L 956.188547 342.910837 
" clip-path="url(#p7ff8c26d80)" style="fill: none; stroke: #5cb85c; stroke-linecap: square"/>
   </g>
   <g id="line2d_50">
    <path d="M 439.419456 353.223871 
L 464.027508 353.223871 
L 488.63556 353.223756 
L 513.243612 353.223351 
L 537.851664 353.22195 
L 562.459716 353.215076 
L 587.067768 353.194425 
L 611.67582 353.130653 
L 636.283872 353.011729 
L 660.891924 352.719338 
L 685.499976 352.306795 
L 710.108028 351.417879 
L 734.71608 350.366817 
L 759.324131 348.41263 
L 783.932183 346.317625 
L 808.540235 343.235101 
L 833.148287 339.082047 
L 857.756339 334.250603 
L 882.364391 323.389986 
L 906.972443 277.820095 
L 931.580495 177.228814 
L 956.188547 331.167731 
" clip-path="url(#p7ff8c26d80)" style="fill: none; stroke: #5cb85c; stroke-linecap: square"/>
   </g>
   <g id="line2d_51">
    <path d="M 488.63556 353.223857 
L 513.243612 353.223611 
L 537.851664 353.22273 
L 562.459716 353.217979 
L 587.067768 353.201386 
L 611.67582 353.150827 
L 636.283872 353.039948 
L 660.891924 352.786879 
L 685.499976 352.351751 
L 710.108028 351.558927 
L 734.71608 350.400177 
L 759.324131 348.60246 
L 783.932183 346.328139 
L 808.540235 343.278742 
L 833.148287 339.323245 
L 857.756339 333.781147 
L 882.364391 324.0625 
L 906.972443 278.306158 
L 931.580495 176.462894 
L 956.188547 330.990046 
" clip-path="url(#p7ff8c26d80)" style="fill: none; stroke: #5cb85c; stroke-linecap: square"/>
   </g>
   <g id="line2d_52">
    <path d="M 316.379196 353.22338 
L 340.987248 353.221315 
L 365.5953 353.214369 
L 390.203352 353.206123 
L 414.811404 353.197834 
L 439.419456 353.190339 
L 464.027508 353.17233 
L 488.63556 353.152575 
L 513.243612 353.093438 
L 537.851664 353.016769 
L 562.459716 352.834362 
L 587.067768 352.644835 
L 611.67582 352.249824 
L 636.283872 351.970791 
L 660.891924 351.293324 
L 685.499976 350.864231 
L 710.108028 349.8147 
L 734.71608 349.079367 
L 759.324131 347.491799 
L 783.932183 346.020511 
L 808.540235 343.483331 
L 833.148287 339.442241 
L 857.756339 333.510836 
L 882.364391 319.286249 
L 906.972443 266.021188 
L 931.580495 192.539078 
L 956.188547 342.268506 
" clip-path="url(#p7ff8c26d80)" style="fill: none; stroke: #5cb85c; stroke-linecap: square"/>
   </g>
   <g id="line2d_53">
    <path d="M 316.379196 353.223886 
L 340.987248 353.223611 
L 365.5953 353.222586 
L 390.203352 353.220044 
L 414.811404 353.215798 
L 439.419456 353.210426 
L 464.027508 353.198195 
L 488.63556 353.179233 
L 513.243612 353.133917 
L 537.851664 353.054721 
L 562.459716 352.894986 
L 587.067768 352.690556 
L 611.67582 352.322868 
L 636.283872 352.011125 
L 660.891924 351.411193 
L 685.499976 350.861675 
L 710.108028 349.982478 
L 734.71608 349.027249 
L 759.324131 347.651346 
L 783.932183 345.983354 
L 808.540235 343.483533 
L 833.148287 339.723238 
L 857.756339 332.971052 
L 882.364391 320.08807 
L 906.972443 266.575659 
L 931.580495 191.395 
L 956.188547 342.124902 
" clip-path="url(#p7ff8c26d80)" style="fill: none; stroke: #5cb85c; stroke-linecap: square"/>
   </g>
   <g id="line2d_54">
    <path d="M 488.63556 353.223857 
L 513.243612 353.223741 
L 537.851664 353.222846 
L 562.459716 353.219625 
L 587.067768 353.210484 
L 611.67582 353.180345 
L 636.283872 353.122046 
L 660.891924 352.969243 
L 685.499976 352.739844 
L 710.108028 352.228942 
L 734.71608 351.54281 
L 759.324131 350.274047 
L 783.932183 348.818197 
L 808.540235 346.531298 
L 833.148287 343.483201 
L 857.756339 339.777393 
L 882.364391 331.682027 
L 906.972443 298.539467 
L 931.580495 210.526299 
L 956.188547 332.776052 
" clip-path="url(#p7ff8c26d80)" style="fill: none; stroke: #5cb85c; stroke-linecap: square"/>
   </g>
   <g id="line2d_55">
    <path d="M 488.63556 353.223886 
L 513.243612 353.223828 
L 537.851664 353.223163 
L 562.459716 353.220997 
L 587.067768 353.213964 
L 611.67582 353.190079 
L 636.283872 353.136588 
L 660.891924 353.004119 
L 685.499976 352.762719 
L 710.108028 352.310001 
L 734.71608 351.576949 
L 759.324131 350.393866 
L 783.932183 348.830082 
L 808.540235 346.577033 
L 833.148287 343.662359 
L 857.756339 339.451887 
L 882.364391 332.170863 
L 906.972443 298.88236 
L 931.580495 209.960867 
L 956.188547 332.626137 
" clip-path="url(#p7ff8c26d80)" style="fill: none; stroke: #5cb85c; stroke-linecap: square"/>
   </g>
   <g id="line2d_56">
    <path d="M 316.379196 353.223683 
L 340.987248 353.222557 
L 365.5953 353.218355 
L 390.203352 353.213228 
L 414.811404 353.208419 
L 439.419456 353.204809 
L 464.027508 353.196361 
L 488.63556 353.183132 
L 513.243612 353.152806 
L 537.851664 353.113237 
L 562.459716 353.012206 
L 587.067768 352.916504 
L 611.67582 352.688419 
L 636.283872 352.51085 
L 660.891924 352.083158 
L 685.499976 351.770534 
L 710.108028 351.034956 
L 734.71608 350.464108 
L 759.324131 349.279551 
L 783.932183 348.107992 
L 808.540235 346.150353 
L 833.148287 343.0984 
L 857.756339 338.727038 
L 882.364391 328.273145 
L 906.972443 288.235907 
L 931.580495 227.034232 
L 956.188547 339.535127 
" clip-path="url(#p7ff8c26d80)" style="fill: none; stroke: #5cb85c; stroke-linecap: square"/>
   </g>
   <g id="line2d_57">
    <path d="M 340.987248 353.223626 
L 365.5953 353.223293 
L 390.203352 353.221344 
L 414.811404 353.219611 
L 439.419456 353.216434 
L 464.027508 353.209834 
L 488.63556 353.198541 
L 513.243612 353.174655 
L 537.851664 353.1337 
L 562.459716 353.047515 
L 587.067768 352.940693 
L 611.67582 352.73271 
L 636.283872 352.53758 
L 660.891924 352.157761 
L 685.499976 351.767863 
L 710.108028 351.145041 
L 734.71608 350.432366 
L 759.324131 349.391471 
L 783.932183 348.082359 
L 808.540235 346.168404 
L 833.148287 343.296765 
L 857.756339 338.339364 
L 882.364391 328.861134 
L 906.972443 288.663469 
L 931.580495 226.195197 
L 956.188547 339.404419 
" clip-path="url(#p7ff8c26d80)" style="fill: none; stroke: #5cb85c; stroke-linecap: square"/>
   </g>
   <g id="line2d_58">
    <path d="M 45.690625 353.2239 
L 993.100625 353.2239 
" clip-path="url(#p7ff8c26d80)" style="fill: none; stroke: #dedede; stroke-width: 2; stroke-linecap: square"/>
   </g>
   <g id="text_21">
    <!-- FastQC: Per Sequence Quality Scores -->
    <g transform="translate(371.203125 19.3575) scale(0.16 -0.16)">
     <defs>
      <path id="DejaVuSans-46" d="M 628 4666 
L 3309 4666 
L 3309 4134 
L 1259 4134 
L 1259 2759 
L 3109 2759 
L 3109 2228 
L 1259 2228 
L 1259 0 
L 628 0 
L 628 4666 
z
" transform="scale(0.015625)"/>
      <path id="DejaVuSans-73" d="M 2834 3397 
L 2834 2853 
Q 2591 2978 2328 3040 
Q 2066 3103 1784 3103 
Q 1356 3103 1142 2972 
Q 928 2841 928 2578 
Q 928 2378 1081 2264 
Q 1234 2150 1697 2047 
L 1894 2003 
Q 2506 1872 2764 1633 
Q 3022 1394 3022 966 
Q 3022 478 2636 193 
Q 2250 -91 1575 -91 
Q 1294 -91 989 -36 
Q 684 19 347 128 
L 347 722 
Q 666 556 975 473 
Q 1284 391 1588 391 
Q 1994 391 2212 530 
Q 2431 669 2431 922 
Q 2431 1156 2273 1281 
Q 2116 1406 1581 1522 
L 1381 1569 
Q 847 1681 609 1914 
Q 372 2147 372 2553 
Q 372 3047 722 3315 
Q 1072 3584 1716 3584 
Q 2034 3584 2315 3537 
Q 2597 3491 2834 3397 
z
" transform="scale(0.015625)"/>
      <path id="DejaVuSans-3a" d="M 750 794 
L 1409 794 
L 1409 0 
L 750 0 
L 750 794 
z
M 750 3309 
L 1409 3309 
L 1409 2516 
L 750 2516 
L 750 3309 
z
" transform="scale(0.015625)"/>
     </defs>
     <use xlink:href="#DejaVuSans-46"/>
     <use xlink:href="#DejaVuSans-61" x="48.394531"/>
     <use xlink:href="#DejaVuSans-73" x="109.673828"/>
     <use xlink:href="#DejaVuSans-74" x="161.773438"/>
     <use xlink:href="#DejaVuSans-51" x="200.982422"/>
     <use xlink:href="#DejaVuSans-43" x="279.693359"/>
     <use xlink:href="#DejaVuSans-3a" x="349.517578"/>
     <use xlink:href="#DejaVuSans-20" x="383.208984"/>
     <use xlink:href="#DejaVuSans-50" x="414.996094"/>
     <use xlink:href="#DejaVuSans-65" x="471.673828"/>
     <use xlink:href="#DejaVuSans-72" x="533.197266"/>
     <use xlink:href="#DejaVuSans-20" x="574.310547"/>
     <use xlink:href="#DejaVuSans-53" x="606.097656"/>
     <use xlink:href="#DejaVuSans-65" x="669.574219"/>
     <use xlink:href="#DejaVuSans-71" x="731.097656"/>
     <use xlink:href="#DejaVuSans-75" x="794.574219"/>
     <use xlink:href="#DejaVuSans-65" x="857.953125"/>
     <use xlink:href="#DejaVuSans-6e" x="919.476562"/>
     <use xlink:href="#DejaVuSans-63" x="982.855469"/>
     <use xlink:href="#DejaVuSans-65" x="1037.835938"/>
     <use xlink:href="#DejaVuSans-20" x="1099.359375"/>
     <use xlink:href="#DejaVuSans-51" x="1131.146484"/>
     <use xlink:href="#DejaVuSans-75" x="1209.857422"/>
     <use xlink:href="#DejaVuSans-61" x="1273.236328"/>
     <use xlink:href="#DejaVuSans-6c" x="1334.515625"/>
     <use xlink:href="#DejaVuSans-69" x="1362.298828"/>
     <use xlink:href="#DejaVuSans-74" x="1390.082031"/>
     <use xlink:href="#DejaVuSans-79" x="1429.291016"/>
     <use xlink:href="#DejaVuSans-20" x="1488.470703"/>
     <use xlink:href="#DejaVuSans-53" x="1520.257812"/>
     <use xlink:href="#DejaVuSans-63" x="1583.734375"/>
     <use xlink:href="#DejaVuSans-6f" x="1638.714844"/>
     <use xlink:href="#DejaVuSans-72" x="1699.896484"/>
     <use xlink:href="#DejaVuSans-65" x="1738.759766"/>
     <use xlink:href="#DejaVuSans-73" x="1800.283203"/>
    </g>
   </g>
  </g>
 </g>
 <defs>
  <clipPath id="p7ff8c26d80">
   <rect x="45.690625" y="35.2559" width="947.41" height="317.968"/>
  </clipPath>
 </defs>
</svg>
