<?xml version="1.0" encoding="utf-8" standalone="no"?>
<!DOCTYPE svg PUBLIC "-//W3C//DTD SVG 1.1//EN"
  "http://www.w3.org/Graphics/SVG/1.1/DTD/svg11.dtd">
<svg xmlns:xlink="http://www.w3.org/1999/xlink" width="1000.238125pt" height="388.844525pt" viewBox="0 0 1000.238125 388.844525" xmlns="http://www.w3.org/2000/svg" version="1.1">
 <metadata>
  <rdf:RDF xmlns:dc="http://purl.org/dc/elements/1.1/" xmlns:cc="http://creativecommons.org/ns#" xmlns:rdf="http://www.w3.org/1999/02/22-rdf-syntax-ns#">
   <cc:Work>
    <dc:type rdf:resource="http://purl.org/dc/dcmitype/StillImage"/>
    <dc:date>2026-03-23T21:33:01.779979</dc:date>
    <dc:format>image/svg+xml</dc:format>
    <dc:creator>
     <cc:Agent>
      <dc:title>Matplotlib v3.8.1, https://matplotlib.org/</dc:title>
     </cc:Agent>
    </dc:creator>
   </cc:Work>
  </rdf:RDF>
 </metadata>
 <defs>
  <style type="text/css">*{stroke-linejoin: round; stroke-linecap: butt}</style>
 </defs>
 <g id="figure_1">
  <g id="axes_1">
   <g id="patch_1">
    <path d="M 48.238125 353.2239 
L 993.038125 353.2239 
L 993.038125 35.2559 
L 48.238125 35.2559 
z
" style="fill: #ffffff"/>
   </g>
   <g id="matplotlib.axis_1">
    <g id="xtick_1">
     <g id="text_1">
      <!-- 0 -->
      <g transform="translate(73.829802 366.30265) scale(0.08 -0.08)">
       <defs>
        <path id="DejaVuSans-30" d="M 2034 4250 
Q 1547 4250 1301 3770 
Q 1056 3291 1056 2328 
Q 1056 1369 1301 889 
Q 1547 409 2034 409 
Q 2525 409 2770 889 
Q 3016 1369 3016 2328 
Q 3016 3291 2770 3770 
Q 2525 4250 2034 4250 
z
M 2034 4750 
Q 2819 4750 3233 4129 
Q 3647 3509 3647 2328 
Q 3647 1150 3233 529 
Q 2819 -91 2034 -91 
Q 1250 -91 836 529 
Q 422 1150 422 2328 
Q 422 3509 836 4129 
Q 1250 4750 2034 4750 
z
" transform="scale(0.015625)"/>
       </defs>
       <use xlink:href="#DejaVuSans-30"/>
      </g>
     </g>
    </g>
    <g id="xtick_2">
     <g id="text_2">
      <!-- 10 -->
      <g transform="translate(219.372576 366.30265) scale(0.08 -0.08)">
       <defs>
        <path id="DejaVuSans-31" d="M 794 531 
L 1825 531 
L 1825 4091 
L 703 3866 
L 703 4441 
L 1819 4666 
L 2450 4666 
L 2450 531 
L 3481 531 
L 3481 0 
L 794 0 
L 794 531 
z
" transform="scale(0.015625)"/>
       </defs>
       <use xlink:href="#DejaVuSans-31"/>
       <use xlink:href="#DejaVuSans-30" x="63.623047"/>
      </g>
     </g>
    </g>
    <g id="xtick_3">
     <g id="text_3">
      <!-- 20 -->
      <g transform="translate(367.460351 366.30265) scale(0.08 -0.08)">
       <defs>
        <path id="DejaVuSans-32" d="M 1228 531 
L 3431 531 
L 3431 0 
L 469 0 
L 469 531 
Q 828 903 1448 1529 
Q 2069 2156 2228 2338 
Q 2531 2678 2651 2914 
Q 2772 3150 2772 3378 
Q 2772 3750 2511 3984 
Q 2250 4219 1831 4219 
Q 1534 4219 1204 4116 
Q 875 4013 500 3803 
L 500 4441 
Q 881 4594 1212 4672 
Q 1544 4750 1819 4750 
Q 2544 4750 2975 4387 
Q 3406 4025 3406 3419 
Q 3406 3131 3298 2873 
Q 3191 2616 2906 2266 
Q 2828 2175 2409 1742 
Q 1991 1309 1228 531 
z
" transform="scale(0.015625)"/>
       </defs>
       <use xlink:href="#DejaVuSans-32"/>
       <use xlink:href="#DejaVuSans-30" x="63.623047"/>
      </g>
     </g>
    </g>
    <g id="xtick_4">
     <g id="text_4">
      <!-- 30 -->
      <g transform="translate(515.548125 366.30265) scale(0.08 -0.08)">
       <defs>
        <path id="DejaVuSans-33" d="M 2597 2516 
Q 3050 2419 3304 2112 
Q 3559 1806 3559 1356 
Q 3559 666 3084 287 
Q 2609 -91 1734 -91 
Q 1441 -91 1130 -33 
Q 819 25 488 141 
L 488 750 
Q 750 597 1062 519 
Q 1375 441 1716 441 
Q 2309 441 2620 675 
Q 2931 909 2931 1356 
Q 2931 1769 2642 2001 
Q 2353 2234 1838 2234 
L 1294 2234 
L 1294 2753 
L 1863 2753 
Q 2328 2753 2575 2939 
Q 2822 3125 2822 3475 
Q 2822 3834 2567 4026 
Q 2313 4219 1838 4219 
Q 1578 4219 1281 4162 
Q 984 4106 628 3988 
L 628 4550 
Q 988 4650 1302 4700 
Q 1616 4750 1894 4750 
Q 2613 4750 3031 4423 
Q 3450 4097 3450 3541 
Q 3450 3153 3228 2886 
Q 3006 2619 2597 2516 
z
" transform="scale(0.015625)"/>
       </defs>
       <use xlink:href="#DejaVuSans-33"/>
       <use xlink:href="#DejaVuSans-30" x="63.623047"/>
      </g>
     </g>
    </g>
    <g id="xtick_5">
     <g id="text_5">
      <!-- 40 -->
      <g transform="translate(663.635899 366.30265) scale(0.08 -0.08)">
       <defs>
        <path id="DejaVuSans-34" d="M 2419 4116 
L 825 1625 
L 2419 1625 
L 2419 4116 
z
M 2253 4666 
L 3047 4666 
L 3047 1625 
L 3713 1625 
L 3713 1100 
L 3047 1100 
L 3047 0 
L 2419 0 
L 2419 1100 
L 313 1100 
L 313 1709 
L 2253 4666 
z
" transform="scale(0.015625)"/>
       </defs>
       <use xlink:href="#DejaVuSans-34"/>
       <use xlink:href="#DejaVuSans-30" x="63.623047"/>
      </g>
     </g>
    </g>
    <g id="xtick_6">
     <g id="text_6">
      <!-- 50 -->
      <g transform="translate(811.723674 366.30265) scale(0.08 -0.08)">
       <defs>
        <path id="DejaVuSans-35" d="M 691 4666 
L 3169 4666 
L 3169 4134 
L 1269 4134 
L 1269 2991 
Q 1406 3038 1543 3061 
Q 1681 3084 1819 3084 
Q 2600 3084 3056 2656 
Q 3513 2228 3513 1497 
Q 3513 744 3044 326 
Q 2575 -91 1722 -91 
Q 1428 -91 1123 -41 
Q 819 9 494 109 
L 494 744 
Q 775 591 1075 516 
Q 1375 441 1709 441 
Q 2250 441 2565 725 
Q 2881 1009 2881 1497 
Q 2881 1984 2565 2268 
Q 2250 2553 1709 2553 
Q 1456 2553 1204 2497 
Q 953 2441 691 2322 
L 691 4666 
z
" transform="scale(0.015625)"/>
       </defs>
       <use xlink:href="#DejaVuSans-35"/>
       <use xlink:href="#DejaVuSans-30" x="63.623047"/>
      </g>
     </g>
    </g>
    <g id="xtick_7">
     <g id="text_7">
      <!-- 60 -->
      <g transform="translate(959.811448 366.30265) scale(0.08 -0.08)">
       <defs>
        <path id="DejaVuSans-36" d="M 2113 2584 
Q 1688 2584 1439 2293 
Q 1191 2003 1191 1497 
Q 1191 994 1439 701 
Q 1688 409 2113 409 
Q 2538 409 2786 701 
Q 3034 994 3034 1497 
Q 3034 2003 2786 2293 
Q 2538 2584 2113 2584 
z
M 3366 4563 
L 3366 3988 
Q 3128 4100 2886 4159 
Q 2644 4219 2406 4219 
Q 1781 4219 1451 3797 
Q 1122 3375 1075 2522 
Q 1259 2794 1537 2939 
Q 1816 3084 2150 3084 
Q 2853 3084 3261 2657 
Q 3669 2231 3669 1497 
Q 3669 778 3244 343 
Q 2819 -91 2113 -91 
Q 1303 -91 875 529 
Q 447 1150 447 2328 
Q 447 3434 972 4092 
Q 1497 4750 2381 4750 
Q 2619 4750 2861 4703 
Q 3103 4656 3366 4563 
z
" transform="scale(0.015625)"/>
       </defs>
       <use xlink:href="#DejaVuSans-36"/>
       <use xlink:href="#DejaVuSans-30" x="63.623047"/>
      </g>
     </g>
    </g>
    <g id="text_8">
     <!-- Length Trimmed (bp) -->
     <g transform="translate(468.210781 379.564837) scale(0.1 -0.1)">
      <defs>
       <path id="DejaVuSans-4c" d="M 628 4666 
L 1259 4666 
L 1259 531 
L 3531 531 
L 3531 0 
L 628 0 
L 628 4666 
z
" transform="scale(0.015625)"/>
       <path id="DejaVuSans-65" d="M 3597 1894 
L 3597 1613 
L 953 1613 
Q 991 1019 1311 708 
Q 1631 397 2203 397 
Q 2534 397 2845 478 
Q 3156 559 3463 722 
L 3463 178 
Q 3153 47 2828 -22 
Q 2503 -91 2169 -91 
Q 1331 -91 842 396 
Q 353 884 353 1716 
Q 353 2575 817 3079 
Q 1281 3584 2069 3584 
Q 2775 3584 3186 3129 
Q 3597 2675 3597 1894 
z
M 3022 2063 
Q 3016 2534 2758 2815 
Q 2500 3097 2075 3097 
Q 1594 3097 1305 2825 
Q 1016 2553 972 2059 
L 3022 2063 
z
" transform="scale(0.015625)"/>
       <path id="DejaVuSans-6e" d="M 3513 2113 
L 3513 0 
L 2938 0 
L 2938 2094 
Q 2938 2591 2744 2837 
Q 2550 3084 2163 3084 
Q 1697 3084 1428 2787 
Q 1159 2491 1159 1978 
L 1159 0 
L 581 0 
L 581 3500 
L 1159 3500 
L 1159 2956 
Q 1366 3272 1645 3428 
Q 1925 3584 2291 3584 
Q 2894 3584 3203 3211 
Q 3513 2838 3513 2113 
z
" transform="scale(0.015625)"/>
       <path id="DejaVuSans-67" d="M 2906 1791 
Q 2906 2416 2648 2759 
Q 2391 3103 1925 3103 
Q 1463 3103 1205 2759 
Q 947 2416 947 1791 
Q 947 1169 1205 825 
Q 1463 481 1925 481 
Q 2391 481 2648 825 
Q 2906 1169 2906 1791 
z
M 3481 434 
Q 3481 -459 3084 -895 
Q 2688 -1331 1869 -1331 
Q 1566 -1331 1297 -1286 
Q 1028 -1241 775 -1147 
L 775 -588 
Q 1028 -725 1275 -790 
Q 1522 -856 1778 -856 
Q 2344 -856 2625 -561 
Q 2906 -266 2906 331 
L 2906 616 
Q 2728 306 2450 153 
Q 2172 0 1784 0 
Q 1141 0 747 490 
Q 353 981 353 1791 
Q 353 2603 747 3093 
Q 1141 3584 1784 3584 
Q 2172 3584 2450 3431 
Q 2728 3278 2906 2969 
L 2906 3500 
L 3481 3500 
L 3481 434 
z
" transform="scale(0.015625)"/>
       <path id="DejaVuSans-74" d="M 1172 4494 
L 1172 3500 
L 2356 3500 
L 2356 3053 
L 1172 3053 
L 1172 1153 
Q 1172 725 1289 603 
Q 1406 481 1766 481 
L 2356 481 
L 2356 0 
L 1766 0 
Q 1100 0 847 248 
Q 594 497 594 1153 
L 594 3053 
L 172 3053 
L 172 3500 
L 594 3500 
L 594 4494 
L 1172 4494 
z
" transform="scale(0.015625)"/>
       <path id="DejaVuSans-68" d="M 3513 2113 
L 3513 0 
L 2938 0 
L 2938 2094 
Q 2938 2591 2744 2837 
Q 2550 3084 2163 3084 
Q 1697 3084 1428 2787 
Q 1159 2491 1159 1978 
L 1159 0 
L 581 0 
L 581 4863 
L 1159 4863 
L 1159 2956 
Q 1366 3272 1645 3428 
Q 1925 3584 2291 3584 
Q 2894 3584 3203 3211 
Q 3513 2838 3513 2113 
z
" transform="scale(0.015625)"/>
       <path id="DejaVuSans-20" transform="scale(0.015625)"/>
       <path id="DejaVuSans-54" d="M -19 4666 
L 3928 4666 
L 3928 4134 
L 2272 4134 
L 2272 0 
L 1638 0 
L 1638 4134 
L -19 4134 
L -19 4666 
z
" transform="scale(0.015625)"/>
       <path id="DejaVuSans-72" d="M 2631 2963 
Q 2534 3019 2420 3045 
Q 2306 3072 2169 3072 
Q 1681 3072 1420 2755 
Q 1159 2438 1159 1844 
L 1159 0 
L 581 0 
L 581 3500 
L 1159 3500 
L 1159 2956 
Q 1341 3275 1631 3429 
Q 1922 3584 2338 3584 
Q 2397 3584 2469 3576 
Q 2541 3569 2628 3553 
L 2631 2963 
z
" transform="scale(0.015625)"/>
       <path id="DejaVuSans-69" d="M 603 3500 
L 1178 3500 
L 1178 0 
L 603 0 
L 603 3500 
z
M 603 4863 
L 1178 4863 
L 1178 4134 
L 603 4134 
L 603 4863 
z
" transform="scale(0.015625)"/>
       <path id="DejaVuSans-6d" d="M 3328 2828 
Q 3544 3216 3844 3400 
Q 4144 3584 4550 3584 
Q 5097 3584 5394 3201 
Q 5691 2819 5691 2113 
L 5691 0 
L 5113 0 
L 5113 2094 
Q 5113 2597 4934 2840 
Q 4756 3084 4391 3084 
Q 3944 3084 3684 2787 
Q 3425 2491 3425 1978 
L 3425 0 
L 2847 0 
L 2847 2094 
Q 2847 2600 2669 2842 
Q 2491 3084 2119 3084 
Q 1678 3084 1418 2786 
Q 1159 2488 1159 1978 
L 1159 0 
L 581 0 
L 581 3500 
L 1159 3500 
L 1159 2956 
Q 1356 3278 1631 3431 
Q 1906 3584 2284 3584 
Q 2666 3584 2933 3390 
Q 3200 3197 3328 2828 
z
" transform="scale(0.015625)"/>
       <path id="DejaVuSans-64" d="M 2906 2969 
L 2906 4863 
L 3481 4863 
L 3481 0 
L 2906 0 
L 2906 525 
Q 2725 213 2448 61 
Q 2172 -91 1784 -91 
Q 1150 -91 751 415 
Q 353 922 353 1747 
Q 353 2572 751 3078 
Q 1150 3584 1784 3584 
Q 2172 3584 2448 3432 
Q 2725 3281 2906 2969 
z
M 947 1747 
Q 947 1113 1208 752 
Q 1469 391 1925 391 
Q 2381 391 2643 752 
Q 2906 1113 2906 1747 
Q 2906 2381 2643 2742 
Q 2381 3103 1925 3103 
Q 1469 3103 1208 2742 
Q 947 2381 947 1747 
z
" transform="scale(0.015625)"/>
       <path id="DejaVuSans-28" d="M 1984 4856 
Q 1566 4138 1362 3434 
Q 1159 2731 1159 2009 
Q 1159 1288 1364 580 
Q 1569 -128 1984 -844 
L 1484 -844 
Q 1016 -109 783 600 
Q 550 1309 550 2009 
Q 550 2706 781 3412 
Q 1013 4119 1484 4856 
L 1984 4856 
z
" transform="scale(0.015625)"/>
       <path id="DejaVuSans-62" d="M 3116 1747 
Q 3116 2381 2855 2742 
Q 2594 3103 2138 3103 
Q 1681 3103 1420 2742 
Q 1159 2381 1159 1747 
Q 1159 1113 1420 752 
Q 1681 391 2138 391 
Q 2594 391 2855 752 
Q 3116 1113 3116 1747 
z
M 1159 2969 
Q 1341 3281 1617 3432 
Q 1894 3584 2278 3584 
Q 2916 3584 3314 3078 
Q 3713 2572 3713 1747 
Q 3713 922 3314 415 
Q 2916 -91 2278 -91 
Q 1894 -91 1617 61 
Q 1341 213 1159 525 
L 1159 0 
L 581 0 
L 581 4863 
L 1159 4863 
L 1159 2969 
z
" transform="scale(0.015625)"/>
       <path id="DejaVuSans-70" d="M 1159 525 
L 1159 -1331 
L 581 -1331 
L 581 3500 
L 1159 3500 
L 1159 2969 
Q 1341 3281 1617 3432 
Q 1894 3584 2278 3584 
Q 2916 3584 3314 3078 
Q 3713 2572 3713 1747 
Q 3713 922 3314 415 
Q 2916 -91 2278 -91 
Q 1894 -91 1617 61 
Q 1341 213 1159 525 
z
M 3116 1747 
Q 3116 2381 2855 2742 
Q 2594 3103 2138 3103 
Q 1681 3103 1420 2742 
Q 1159 2381 1159 1747 
Q 1159 1113 1420 752 
Q 1681 391 2138 391 
Q 2594 391 2855 752 
Q 3116 1113 3116 1747 
z
" transform="scale(0.015625)"/>
       <path id="DejaVuSans-29" d="M 513 4856 
L 1013 4856 
Q 1481 4119 1714 3412 
Q 1947 2706 1947 2009 
Q 1947 1309 1714 600 
Q 1481 -109 1013 -844 
L 513 -844 
Q 928 -128 1133 580 
Q 1338 1288 1338 2009 
Q 1338 2731 1133 3434 
Q 928 4138 513 4856 
z
" transform="scale(0.015625)"/>
      </defs>
      <use xlink:href="#DejaVuSans-4c"/>
      <use xlink:href="#DejaVuSans-65" x="53.962891"/>
      <use xlink:href="#DejaVuSans-6e" x="115.486328"/>
      <use xlink:href="#DejaVuSans-67" x="178.865234"/>
      <use xlink:href="#DejaVuSans-74" x="242.341797"/>
      <use xlink:href="#DejaVuSans-68" x="281.550781"/>
      <use xlink:href="#DejaVuSans-20" x="344.929688"/>
      <use xlink:href="#DejaVuSans-54" x="376.716797"/>
      <use xlink:href="#DejaVuSans-72" x="423.050781"/>
      <use xlink:href="#DejaVuSans-69" x="464.164062"/>
      <use xlink:href="#DejaVuSans-6d" x="491.947266"/>
      <use xlink:href="#DejaVuSans-6d" x="589.359375"/>
      <use xlink:href="#DejaVuSans-65" x="686.771484"/>
      <use xlink:href="#DejaVuSans-64" x="748.294922"/>
      <use xlink:href="#DejaVuSans-20" x="811.771484"/>
      <use xlink:href="#DejaVuSans-28" x="843.558594"/>
      <use xlink:href="#DejaVuSans-62" x="882.572266"/>
      <use xlink:href="#DejaVuSans-70" x="946.048828"/>
      <use xlink:href="#DejaVuSans-29" x="1009.525391"/>
     </g>
    </g>
   </g>
   <g id="matplotlib.axis_2">
    <g id="ytick_1">
     <g id="line2d_1">
      <path d="M 48.238125 353.2239 
L 993.038125 353.2239 
" clip-path="url(#p3c3bb2c16c)" style="fill: none; stroke: #dedede; stroke-linecap: square"/>
     </g>
     <g id="text_9">
      <!-- 0 -->
      <g transform="translate(36.148125 356.263275) scale(0.08 -0.08)">
       <use xlink:href="#DejaVuSans-30"/>
      </g>
     </g>
    </g>
    <g id="ytick_2">
     <g id="line2d_2">
      <path d="M 48.238125 291.480617 
L 993.038125 291.480617 
" clip-path="url(#p3c3bb2c16c)" style="fill: none; stroke: #dedede; stroke-linecap: square"/>
     </g>
     <g id="text_10">
      <!-- 1000 -->
      <g transform="translate(20.878125 294.519992) scale(0.08 -0.08)">
       <use xlink:href="#DejaVuSans-31"/>
       <use xlink:href="#DejaVuSans-30" x="63.623047"/>
       <use xlink:href="#DejaVuSans-30" x="127.246094"/>
       <use xlink:href="#DejaVuSans-30" x="190.869141"/>
      </g>
     </g>
    </g>
    <g id="ytick_3">
     <g id="line2d_3">
      <path d="M 48.238125 229.737333 
L 993.038125 229.737333 
" clip-path="url(#p3c3bb2c16c)" style="fill: none; stroke: #dedede; stroke-linecap: square"/>
     </g>
     <g id="text_11">
      <!-- 2000 -->
      <g transform="translate(20.878125 232.776708) scale(0.08 -0.08)">
       <use xlink:href="#DejaVuSans-32"/>
       <use xlink:href="#DejaVuSans-30" x="63.623047"/>
       <use xlink:href="#DejaVuSans-30" x="127.246094"/>
       <use xlink:href="#DejaVuSans-30" x="190.869141"/>
      </g>
     </g>
    </g>
    <g id="ytick_4">
     <g id="line2d_4">
      <path d="M 48.238125 167.99405 
L 993.038125 167.99405 
" clip-path="url(#p3c3bb2c16c)" style="fill: none; stroke: #dedede; stroke-linecap: square"/>
     </g>
     <g id="text_12">
      <!-- 3000 -->
      <g transform="translate(20.878125 171.033425) scale(0.08 -0.08)">
       <use xlink:href="#DejaVuSans-33"/>
       <use xlink:href="#DejaVuSans-30" x="63.623047"/>
       <use xlink:href="#DejaVuSans-30" x="127.246094"/>
       <use xlink:href="#DejaVuSans-30" x="190.869141"/>
      </g>
     </g>
    </g>
    <g id="ytick_5">
     <g id="line2d_5">
      <path d="M 48.238125 106.250767 
L 993.038125 106.250767 
" clip-path="url(#p3c3bb2c16c)" style="fill: none; stroke: #dedede; stroke-linecap: square"/>
     </g>
     <g id="text_13">
      <!-- 4000 -->
      <g transform="translate(20.878125 109.290142) scale(0.08 -0.08)">
       <use xlink:href="#DejaVuSans-34"/>
       <use xlink:href="#DejaVuSans-30" x="63.623047"/>
       <use xlink:href="#DejaVuSans-30" x="127.246094"/>
       <use xlink:href="#DejaVuSans-30" x="190.869141"/>
      </g>
     </g>
    </g>
    <g id="ytick_6">
     <g id="line2d_6">
      <path d="M 48.238125 44.507483 
L 993.038125 44.507483 
" clip-path="url(#p3c3bb2c16c)" style="fill: none; stroke: #dedede; stroke-linecap: square"/>
     </g>
     <g id="text_14">
      <!-- 5000 -->
      <g transform="translate(20.878125 47.546858) scale(0.08 -0.08)">
       <use xlink:href="#DejaVuSans-35"/>
       <use xlink:href="#DejaVuSans-30" x="63.623047"/>
       <use xlink:href="#DejaVuSans-30" x="127.246094"/>
       <use xlink:href="#DejaVuSans-30" x="190.869141"/>
      </g>
     </g>
    </g>
    <g id="text_15">
     <!-- Observed / Expected -->
     <g transform="translate(14.798438 246.489119) rotate(-90) scale(0.1 -0.1)">
      <defs>
       <path id="DejaVuSans-4f" d="M 2522 4238 
Q 1834 4238 1429 3725 
Q 1025 3213 1025 2328 
Q 1025 1447 1429 934 
Q 1834 422 2522 422 
Q 3209 422 3611 934 
Q 4013 1447 4013 2328 
Q 4013 3213 3611 3725 
Q 3209 4238 2522 4238 
z
M 2522 4750 
Q 3503 4750 4090 4092 
Q 4678 3434 4678 2328 
Q 4678 1225 4090 567 
Q 3503 -91 2522 -91 
Q 1538 -91 948 565 
Q 359 1222 359 2328 
Q 359 3434 948 4092 
Q 1538 4750 2522 4750 
z
" transform="scale(0.015625)"/>
       <path id="DejaVuSans-73" d="M 2834 3397 
L 2834 2853 
Q 2591 2978 2328 3040 
Q 2066 3103 1784 3103 
Q 1356 3103 1142 2972 
Q 928 2841 928 2578 
Q 928 2378 1081 2264 
Q 1234 2150 1697 2047 
L 1894 2003 
Q 2506 1872 2764 1633 
Q 3022 1394 3022 966 
Q 3022 478 2636 193 
Q 2250 -91 1575 -91 
Q 1294 -91 989 -36 
Q 684 19 347 128 
L 347 722 
Q 666 556 975 473 
Q 1284 391 1588 391 
Q 1994 391 2212 530 
Q 2431 669 2431 922 
Q 2431 1156 2273 1281 
Q 2116 1406 1581 1522 
L 1381 1569 
Q 847 1681 609 1914 
Q 372 2147 372 2553 
Q 372 3047 722 3315 
Q 1072 3584 1716 3584 
Q 2034 3584 2315 3537 
Q 2597 3491 2834 3397 
z
" transform="scale(0.015625)"/>
       <path id="DejaVuSans-76" d="M 191 3500 
L 800 3500 
L 1894 563 
L 2988 3500 
L 3597 3500 
L 2284 0 
L 1503 0 
L 191 3500 
z
" transform="scale(0.015625)"/>
       <path id="DejaVuSans-2f" d="M 1625 4666 
L 2156 4666 
L 531 -594 
L 0 -594 
L 1625 4666 
z
" transform="scale(0.015625)"/>
       <path id="DejaVuSans-45" d="M 628 4666 
L 3578 4666 
L 3578 4134 
L 1259 4134 
L 1259 2753 
L 3481 2753 
L 3481 2222 
L 1259 2222 
L 1259 531 
L 3634 531 
L 3634 0 
L 628 0 
L 628 4666 
z
" transform="scale(0.015625)"/>
       <path id="DejaVuSans-78" d="M 3513 3500 
L 2247 1797 
L 3578 0 
L 2900 0 
L 1881 1375 
L 863 0 
L 184 0 
L 1544 1831 
L 300 3500 
L 978 3500 
L 1906 2253 
L 2834 3500 
L 3513 3500 
z
" transform="scale(0.015625)"/>
       <path id="DejaVuSans-63" d="M 3122 3366 
L 3122 2828 
Q 2878 2963 2633 3030 
Q 2388 3097 2138 3097 
Q 1578 3097 1268 2742 
Q 959 2388 959 1747 
Q 959 1106 1268 751 
Q 1578 397 2138 397 
Q 2388 397 2633 464 
Q 2878 531 3122 666 
L 3122 134 
Q 2881 22 2623 -34 
Q 2366 -91 2075 -91 
Q 1284 -91 818 406 
Q 353 903 353 1747 
Q 353 2603 823 3093 
Q 1294 3584 2113 3584 
Q 2378 3584 2631 3529 
Q 2884 3475 3122 3366 
z
" transform="scale(0.015625)"/>
      </defs>
      <use xlink:href="#DejaVuSans-4f"/>
      <use xlink:href="#DejaVuSans-62" x="78.710938"/>
      <use xlink:href="#DejaVuSans-73" x="142.1875"/>
      <use xlink:href="#DejaVuSans-65" x="194.287109"/>
      <use xlink:href="#DejaVuSans-72" x="255.810547"/>
      <use xlink:href="#DejaVuSans-76" x="296.923828"/>
      <use xlink:href="#DejaVuSans-65" x="356.103516"/>
      <use xlink:href="#DejaVuSans-64" x="417.626953"/>
      <use xlink:href="#DejaVuSans-20" x="481.103516"/>
      <use xlink:href="#DejaVuSans-2f" x="512.890625"/>
      <use xlink:href="#DejaVuSans-20" x="546.582031"/>
      <use xlink:href="#DejaVuSans-45" x="578.369141"/>
      <use xlink:href="#DejaVuSans-78" x="641.552734"/>
      <use xlink:href="#DejaVuSans-70" x="700.732422"/>
      <use xlink:href="#DejaVuSans-65" x="764.208984"/>
      <use xlink:href="#DejaVuSans-63" x="825.732422"/>
      <use xlink:href="#DejaVuSans-74" x="880.712891"/>
      <use xlink:href="#DejaVuSans-65" x="919.921875"/>
      <use xlink:href="#DejaVuSans-64" x="981.445312"/>
     </g>
    </g>
   </g>
   <g id="line2d_7">
    <path d="M 91.18358 353.141975 
L 105.992357 353.141613 
L 120.801134 353.109792 
L 135.609912 353.121558 
L 150.418689 353.124291 
L 165.227467 353.106925 
L 180.036244 353.047972 
L 194.845022 353.006647 
L 209.653799 352.720571 
L 224.462576 351.531763 
L 239.271354 347.510342 
L 254.080131 348.538674 
L 268.888909 340.366769 
L 283.697686 349.918818 
L 298.506464 341.383717 
L 313.315241 348.248118 
L 328.124018 346.722695 
L 342.932796 346.613737 
L 357.741573 346.214221 
L 372.550351 349.010829 
L 387.359128 348.0302 
L 402.167906 347.485407 
L 416.976683 347.993881 
L 431.78546 350.027777 
L 446.594238 347.957561 
L 461.403015 347.667004 
L 476.211793 347.812283 
L 491.02057 349.882499 
L 505.829348 348.756592 
L 520.638125 348.284437 
L 535.446902 348.357076 
L 550.25568 349.591942 
L 565.064457 350.899447 
L 579.873235 349.265066 
L 594.682012 350.717849 
L 609.49079 348.466035 
L 624.299567 347.739644 
L 639.108344 348.720272 
L 653.917122 348.538674 
L 668.725899 349.519303 
L 683.534677 349.410344 
L 698.343454 349.156107 
L 713.152232 348.720272 
L 727.961009 347.412767 
L 742.769786 348.175479 
L 757.578564 347.376448 
L 772.387341 348.974509 
L 787.196119 347.921242 
L 802.004896 348.611314 
L 816.813674 348.90187 
L 831.622451 345.996304 
L 846.431228 347.558046 
L 861.240006 340.802604 
L 876.048783 338.58711 
L 890.857561 337.279605 
L 905.666338 164.071536 
L 920.475116 311.056869 
" clip-path="url(#p3c3bb2c16c)" style="fill: none; stroke: #7cb5ec; stroke-linecap: square"/>
   </g>
   <g id="line2d_8">
    <path d="M 91.18358 353.133344 
L 105.992357 353.135977 
L 120.801134 353.097482 
L 135.609912 353.134886 
L 150.418689 353.12468 
L 165.227467 353.11184 
L 180.036244 353.051773 
L 194.845022 352.975363 
L 209.653799 352.730417 
L 224.462576 351.350711 
L 239.271354 347.915821 
L 254.080131 333.175493 
L 268.888909 340.403089 
L 283.697686 314.906745 
L 298.506464 306.371644 
L 313.315241 348.175479 
L 328.124018 345.015675 
L 342.932796 299.761481 
L 357.741573 346.976933 
L 372.550351 340.076213 
L 387.359128 312.836529 
L 402.167906 326.093175 
L 416.976683 344.725119 
L 431.78546 314.688827 
L 446.594238 319.483012 
L 461.403015 349.519303 
L 476.211793 346.504778 
L 491.02057 315.124662 
L 505.829348 349.119788 
L 520.638125 318.502383 
L 535.446902 335.754183 
L 550.25568 275.282085 
L 565.064457 321.298991 
L 579.873235 336.589533 
L 594.682012 350.245695 
L 609.49079 311.674302 
L 624.299567 331.577431 
L 639.108344 296.020564 
L 653.917122 346.722695 
L 668.725899 309.785684 
L 683.534677 350.499932 
L 698.343454 334.482998 
L 713.152232 325.185185 
L 727.961009 349.955138 
L 742.769786 331.105277 
L 757.578564 341.20212 
L 772.387341 283.163433 
L 787.196119 349.555623 
L 802.004896 310.621034 
L 816.813674 341.311078 
L 831.622451 302.812325 
L 846.431228 343.998727 
L 861.240006 344.071366 
L 876.048783 292.860761 
L 890.857561 310.221519 
L 905.666338 105.633334 
L 920.475116 309.531447 
" clip-path="url(#p3c3bb2c16c)" style="fill: none; stroke: #434348; stroke-linecap: square"/>
   </g>
   <g id="line2d_9">
    <path d="M 91.18358 353.143616 
L 105.992357 353.143047 
L 120.801134 353.111445 
L 135.609912 353.12231 
L 150.418689 353.113032 
L 165.227467 353.10292 
L 180.036244 353.036212 
L 194.845022 352.96879 
L 209.653799 352.523218 
L 224.462576 351.664882 
L 239.271354 345.530687 
L 254.080131 349.471808 
L 268.888909 333.418554 
L 283.697686 348.046963 
L 298.506464 333.086091 
L 313.315241 347.192056 
L 328.124018 345.339758 
L 342.932796 344.389861 
L 357.741573 346.384644 
L 372.550351 348.664396 
L 387.359128 349.186839 
L 402.167906 347.856984 
L 416.976683 349.044355 
L 431.78546 351.039138 
L 446.594238 348.664396 
L 461.403015 347.002077 
L 476.211793 349.376818 
L 491.02057 351.039138 
L 505.829348 349.186839 
L 520.638125 349.709282 
L 535.446902 348.521911 
L 550.25568 349.471808 
L 565.064457 350.089241 
L 579.873235 350.706674 
L 594.682012 350.421705 
L 609.49079 349.424313 
L 624.299567 349.376818 
L 639.108344 349.804272 
L 653.917122 349.139344 
L 668.725899 351.561581 
L 683.534677 349.614293 
L 698.343454 349.899262 
L 713.152232 347.334541 
L 727.961009 347.856984 
L 742.769786 349.851767 
L 757.578564 345.767211 
L 772.387341 349.329324 
L 787.196119 348.616901 
L 802.004896 349.044355 
L 816.813674 349.186839 
L 831.622451 347.904479 
L 846.431228 349.281829 
L 861.240006 339.972841 
L 876.048783 343.1075 
L 890.857561 343.20249 
L 905.666338 257.331831 
L 920.475116 95.991883 
" clip-path="url(#p3c3bb2c16c)" style="fill: none; stroke: #90ed7d; stroke-linecap: square"/>
   </g>
   <g id="line2d_10">
    <path d="M 91.18358 353.131462 
L 105.992357 353.133323 
L 120.801134 353.09673 
L 135.609912 353.135636 
L 150.418689 353.118795 
L 165.227467 353.121718 
L 180.036244 353.046141 
L 194.845022 352.904964 
L 209.653799 352.552509 
L 224.462576 351.581529 
L 239.271354 345.345457 
L 254.080131 329.239009 
L 268.888909 332.658637 
L 283.697686 306.916437 
L 298.506464 288.298463 
L 313.315241 348.236942 
L 328.124018 342.680047 
L 342.932796 285.876226 
L 357.741573 345.862201 
L 372.550351 337.40812 
L 387.359128 300.504635 
L 402.167906 321.307372 
L 416.976683 343.582449 
L 431.78546 306.15652 
L 446.594238 316.510394 
L 461.403015 347.382035 
L 476.211793 345.577232 
L 491.02057 298.462357 
L 505.829348 348.379427 
L 520.638125 310.906003 
L 535.446902 330.283895 
L 550.25568 247.975349 
L 565.064457 317.222816 
L 579.873235 335.650812 
L 594.682012 349.851767 
L 609.49079 294.187822 
L 624.299567 328.669071 
L 639.108344 269.775478 
L 653.917122 345.814706 
L 668.725899 290.863184 
L 683.534677 350.611684 
L 698.343454 328.479092 
L 713.152232 315.038054 
L 727.961009 349.044355 
L 742.769786 325.676897 
L 757.578564 338.785471 
L 772.387341 268.303138 
L 787.196119 350.37421 
L 802.004896 307.343891 
L 816.813674 339.402903 
L 831.622451 281.411712 
L 846.431228 339.355409 
L 861.240006 337.170646 
L 876.048783 266.118376 
L 890.857561 290.150761 
L 905.666338 203.045237 
L 920.475116 75.759084 
" clip-path="url(#p3c3bb2c16c)" style="fill: none; stroke: #f7a35c; stroke-linecap: square"/>
   </g>
   <g id="line2d_11">
    <path d="M 91.18358 353.135565 
L 105.992357 353.141225 
L 120.801134 353.104766 
L 135.609912 353.124186 
L 150.418689 353.11749 
L 165.227467 353.096746 
L 180.036244 352.989132 
L 194.845022 352.988199 
L 209.653799 352.690279 
L 224.462576 351.740614 
L 239.271354 347.445115 
L 254.080131 349.364945 
L 268.888909 340.527937 
L 283.697686 350.561221 
L 298.506464 343.229206 
L 313.315241 349.326355 
L 328.124018 346.933803 
L 342.932796 347.628415 
L 357.741573 348.168669 
L 372.550351 348.245848 
L 387.359128 347.744184 
L 402.167906 348.09149 
L 416.976683 350.136736 
L 431.78546 349.905199 
L 446.594238 348.90187 
L 461.403015 349.249176 
L 476.211793 349.712251 
L 491.02057 350.715579 
L 505.829348 348.670333 
L 520.638125 349.75084 
L 535.446902 350.098146 
L 550.25568 349.442124 
L 565.064457 349.210587 
L 579.873235 349.75084 
L 594.682012 350.252504 
L 609.49079 348.670333 
L 624.299567 348.863281 
L 639.108344 349.094818 
L 653.917122 349.982378 
L 668.725899 350.715579 
L 683.534677 350.59981 
L 698.343454 349.596482 
L 713.152232 349.171997 
L 727.961009 348.554564 
L 742.769786 350.059557 
L 757.578564 349.712251 
L 772.387341 346.162012 
L 787.196119 348.361616 
L 802.004896 348.708922 
L 816.813674 328.719534 
L 831.622451 347.16534 
L 846.431228 349.557893 
L 861.240006 342.650363 
L 876.048783 343.808049 
L 890.857561 344.61843 
L 905.666338 296.227132 
L 920.475116 330.301706 
" clip-path="url(#p3c3bb2c16c)" style="fill: none; stroke: #8085e9; stroke-linecap: square"/>
   </g>
   <g id="line2d_12">
    <path d="M 91.18358 353.133077 
L 105.992357 353.139016 
L 120.801134 353.082414 
L 135.609912 353.130952 
L 150.418689 353.119279 
L 165.227467 353.10704 
L 180.036244 353.049105 
L 194.845022 352.950674 
L 209.653799 352.730677 
L 224.462576 351.841912 
L 239.271354 348.023958 
L 254.080131 336.900519 
L 268.888909 338.444102 
L 283.697686 327.639027 
L 298.506464 316.872542 
L 313.315241 347.937131 
L 328.124018 345.737527 
L 342.932796 318.107408 
L 357.741573 345.583169 
L 372.550351 340.875243 
L 387.359128 325.478012 
L 402.167906 335.009631 
L 416.976683 345.853296 
L 431.78546 328.333639 
L 446.594238 336.244497 
L 461.403015 348.284437 
L 476.211793 345.737527 
L 491.02057 328.642355 
L 505.829348 348.786102 
L 520.638125 333.041564 
L 535.446902 343.074848 
L 550.25568 302.555818 
L 565.064457 334.623736 
L 579.873235 342.380236 
L 594.682012 350.175325 
L 609.49079 318.261766 
L 624.299567 341.531266 
L 639.108344 314.248452 
L 653.917122 347.975721 
L 668.725899 324.860579 
L 683.534677 350.754169 
L 698.343454 343.76946 
L 713.152232 332.925796 
L 727.961009 350.754169 
L 742.769786 340.2964 
L 757.578564 345.583169 
L 772.387341 319.149326 
L 787.196119 349.480713 
L 802.004896 323.201228 
L 816.813674 344.039587 
L 831.622451 317.953049 
L 846.431228 346.31637 
L 861.240006 346.35496 
L 876.048783 317.991639 
L 890.857561 324.127378 
L 905.666338 229.312848 
L 920.475116 308.46002 
" clip-path="url(#p3c3bb2c16c)" style="fill: none; stroke: #f15c80; stroke-linecap: square"/>
   </g>
   <g id="line2d_13">
    <path d="M 91.18358 353.143246 
L 105.992357 353.142862 
L 120.801134 353.110385 
L 135.609912 353.122455 
L 150.418689 353.128181 
L 165.227467 353.110036 
L 180.036244 353.036545 
L 194.845022 353.010706 
L 209.653799 352.700051 
L 224.462576 351.719046 
L 239.271354 347.446493 
L 254.080131 349.519303 
L 268.888909 338.805027 
L 283.697686 349.73722 
L 298.506464 341.565315 
L 313.315241 349.846179 
L 328.124018 346.686376 
L 342.932796 347.013252 
L 357.741573 348.175479 
L 372.550351 349.083468 
L 387.359128 347.812283 
L 402.167906 348.139159 
L 416.976683 349.446664 
L 431.78546 350.245695 
L 446.594238 347.376448 
L 461.403015 348.393396 
L 476.211793 349.555623 
L 491.02057 350.60889 
L 505.829348 349.482983 
L 520.638125 349.410344 
L 535.446902 349.882499 
L 550.25568 348.538674 
L 565.064457 350.136736 
L 579.873235 350.318334 
L 594.682012 350.899447 
L 609.49079 348.792911 
L 624.299567 347.739644 
L 639.108344 348.756592 
L 653.917122 349.446664 
L 668.725899 350.68153 
L 683.534677 350.68153 
L 698.343454 349.555623 
L 713.152232 349.228746 
L 727.961009 349.192427 
L 742.769786 350.572571 
L 757.578564 349.374025 
L 772.387341 350.826808 
L 787.196119 349.047148 
L 802.004896 348.0302 
L 816.813674 351.008406 
L 831.622451 348.393396 
L 846.431228 350.100416 
L 861.240006 347.049572 
L 876.048783 346.214221 
L 890.857561 344.107686 
L 905.666338 304.010871 
L 920.475116 314.543549 
" clip-path="url(#p3c3bb2c16c)" style="fill: none; stroke: #e4d354; stroke-linecap: square"/>
   </g>
   <g id="line2d_14">
    <path d="M 91.18358 353.13036 
L 105.992357 353.133316 
L 120.801134 353.096247 
L 135.609912 353.138788 
L 150.418689 353.127272 
L 165.227467 353.120054 
L 180.036244 353.08136 
L 194.845022 352.983849 
L 209.653799 352.740475 
L 224.462576 351.763306 
L 239.271354 347.5788 
L 254.080131 327.36436 
L 268.888909 337.606481 
L 283.697686 297.691265 
L 298.506464 298.671893 
L 313.315241 349.446664 
L 328.124018 344.688799 
L 342.932796 283.127114 
L 357.741573 346.504778 
L 372.550351 336.00842 
L 387.359128 290.35471 
L 402.167906 318.865579 
L 416.976683 345.705747 
L 431.78546 301.54114 
L 446.594238 323.04233 
L 461.403015 349.73722 
L 476.211793 345.269912 
L 491.02057 303.429758 
L 505.829348 349.410344 
L 520.638125 311.02055 
L 535.446902 333.901884 
L 550.25568 251.928596 
L 565.064457 309.604086 
L 579.873235 331.323194 
L 594.682012 349.119788 
L 609.49079 274.156178 
L 624.299567 327.872834 
L 639.108344 263.950376 
L 653.917122 347.340128 
L 668.725899 297.945502 
L 683.534677 349.846179 
L 698.343454 334.482998 
L 713.152232 317.521754 
L 727.961009 350.136736 
L 742.769786 326.674288 
L 757.578564 341.456357 
L 772.387341 270.124705 
L 787.196119 349.337705 
L 802.004896 297.18279 
L 816.813674 335.9721 
L 831.622451 270.088385 
L 846.431228 341.528996 
L 861.240006 343.671851 
L 876.048783 284.071423 
L 890.857561 297.291749 
L 905.666338 198.17562 
L 920.475116 315.088343 
" clip-path="url(#p3c3bb2c16c)" style="fill: none; stroke: #2b908f; stroke-linecap: square"/>
   </g>
   <g id="line2d_15">
    <path d="M 91.18358 353.140214 
L 105.992357 353.142262 
L 120.801134 353.109617 
L 135.609912 353.125019 
L 150.418689 353.121136 
L 165.227467 353.097581 
L 180.036244 353.03811 
L 194.845022 353.010215 
L 209.653799 352.759905 
L 224.462576 351.244195 
L 239.271354 348.235435 
L 254.080131 349.673661 
L 268.888909 342.650363 
L 283.697686 350.754169 
L 298.506464 344.695609 
L 313.315241 348.01431 
L 328.124018 349.442124 
L 342.932796 347.088161 
L 357.741573 347.474057 
L 372.550351 349.635072 
L 387.359128 349.017639 
L 402.167906 349.056228 
L 416.976683 347.975721 
L 431.78546 351.024296 
L 446.594238 350.059557 
L 461.403015 348.747512 
L 476.211793 349.326355 
L 491.02057 351.101475 
L 505.829348 349.635072 
L 520.638125 349.828019 
L 535.446902 349.249176 
L 550.25568 350.252504 
L 565.064457 350.484042 
L 579.873235 349.480713 
L 594.682012 350.368273 
L 609.49079 348.90187 
L 624.299567 348.554564 
L 639.108344 350.947116 
L 653.917122 349.596482 
L 668.725899 349.905199 
L 683.534677 349.673661 
L 698.343454 348.284437 
L 713.152232 348.747512 
L 727.961009 347.821363 
L 742.769786 349.249176 
L 757.578564 346.35496 
L 772.387341 347.744184 
L 787.196119 349.056228 
L 802.004896 345.50599 
L 816.813674 350.406863 
L 831.622451 347.20393 
L 846.431228 348.863281 
L 861.240006 345.235863 
L 876.048783 345.698937 
L 890.857561 342.341646 
L 905.666338 324.899169 
L 920.475116 311.470005 
" clip-path="url(#p3c3bb2c16c)" style="fill: none; stroke: #f45b5b; stroke-linecap: square"/>
   </g>
   <g id="line2d_16">
    <path d="M 91.18358 353.133346 
L 105.992357 353.137492 
L 120.801134 353.095297 
L 135.609912 353.134858 
L 150.418689 353.120215 
L 165.227467 353.110056 
L 180.036244 353.065649 
L 194.845022 353.012209 
L 209.653799 352.76727 
L 224.462576 351.927781 
L 239.271354 348.999875 
L 254.080131 333.967714 
L 268.888909 341.647034 
L 283.697686 313.55384 
L 298.506464 311.431415 
L 313.315241 349.905199 
L 328.124018 347.589825 
L 342.932796 298.233788 
L 357.741573 347.281109 
L 372.550351 342.573184 
L 387.359128 309.193221 
L 402.167906 326.597109 
L 416.976683 347.435467 
L 431.78546 315.136012 
L 446.594238 322.313669 
L 461.403015 350.522631 
L 476.211793 347.937131 
L 491.02057 317.374206 
L 505.829348 350.6384 
L 520.638125 323.741482 
L 535.446902 337.363594 
L 550.25568 267.246378 
L 565.064457 319.843937 
L 579.873235 333.002975 
L 594.682012 350.561221 
L 609.49079 294.799318 
L 624.299567 332.192594 
L 639.108344 284.071423 
L 653.917122 347.281109 
L 668.725899 309.540527 
L 683.534677 350.792758 
L 698.343454 337.054878 
L 713.152232 323.741482 
L 727.961009 351.024296 
L 742.769786 332.655669 
L 757.578564 343.576512 
L 772.387341 283.646938 
L 787.196119 351.062885 
L 802.004896 302.40146 
L 816.813674 339.678967 
L 831.622451 294.490602 
L 846.431228 343.229206 
L 861.240006 345.235863 
L 876.048783 296.767385 
L 890.857561 308.652967 
L 905.666338 254.820542 
L 920.475116 308.691557 
" clip-path="url(#p3c3bb2c16c)" style="fill: none; stroke: #91e8e1; stroke-linecap: square"/>
   </g>
   <g id="line2d_17">
    <path d="M 91.18358 353.144122 
L 105.992357 353.14506 
L 120.801134 353.112213 
L 135.609912 353.128929 
L 150.418689 353.123154 
L 165.227467 353.117464 
L 180.036244 353.043788 
L 194.845022 353.019189 
L 209.653799 352.720369 
L 224.462576 351.663631 
L 239.271354 348.019823 
L 254.080131 349.431098 
L 268.888909 342.021904 
L 283.697686 349.916224 
L 298.506464 340.522425 
L 313.315241 347.490595 
L 328.124018 348.32854 
L 342.932796 345.461887 
L 357.741573 346.961367 
L 372.550351 348.813665 
L 387.359128 348.637256 
L 402.167906 348.504949 
L 416.976683 349.122382 
L 431.78546 350.665964 
L 446.594238 349.607508 
L 461.403015 348.196233 
L 476.211793 349.563405 
L 491.02057 351.15109 
L 505.829348 349.166484 
L 520.638125 349.916224 
L 535.446902 348.990075 
L 550.25568 350.577759 
L 565.064457 351.062885 
L 579.873235 350.313145 
L 594.682012 350.842373 
L 609.49079 349.166484 
L 624.299567 348.90187 
L 639.108344 348.637256 
L 653.917122 349.739815 
L 668.725899 351.062885 
L 683.534677 350.930578 
L 698.343454 350.577759 
L 713.152232 348.769563 
L 727.961009 348.196233 
L 742.769786 349.916224 
L 757.578564 347.358288 
L 772.387341 351.283397 
L 787.196119 348.549051 
L 802.004896 348.725461 
L 816.813674 350.798271 
L 831.622451 349.65161 
L 846.431228 350.665964 
L 861.240006 345.682399 
L 876.048783 346.608548 
L 890.857561 342.110109 
L 905.666338 299.948267 
L 920.475116 300.256983 
" clip-path="url(#p3c3bb2c16c)" style="fill: none; stroke: #7cb5ec; stroke-linecap: square"/>
   </g>
   <g id="line2d_18">
    <path d="M 91.18358 353.13101 
L 105.992357 353.131299 
L 120.801134 353.096529 
L 135.609912 353.131361 
L 150.418689 353.121003 
L 165.227467 353.119569 
L 180.036244 353.054337 
L 194.845022 352.934978 
L 209.653799 352.723147 
L 224.462576 351.263134 
L 239.271354 346.707778 
L 254.080131 332.275286 
L 268.888909 340.037299 
L 283.697686 312.517435 
L 298.506464 308.592327 
L 313.315241 348.460847 
L 328.124018 342.50703 
L 342.932796 293.288813 
L 357.741573 346.740855 
L 372.550351 336.068088 
L 387.359128 300.5657 
L 402.167906 325.307115 
L 416.976683 345.461887 
L 431.78546 309.253862 
L 446.594238 326.365572 
L 461.403015 348.504949 
L 476.211793 344.447533 
L 491.02057 311.28257 
L 505.829348 349.254689 
L 520.638125 318.515354 
L 535.446902 337.258851 
L 550.25568 258.271551 
L 565.064457 319.617913 
L 579.873235 333.201435 
L 594.682012 350.313145 
L 609.49079 286.408847 
L 624.299567 331.525546 
L 639.108344 280.366826 
L 653.917122 342.992156 
L 668.725899 303.96158 
L 683.534677 349.563405 
L 698.343454 336.641418 
L 713.152232 325.792241 
L 727.961009 348.945973 
L 742.769786 331.260932 
L 757.578564 341.624983 
L 772.387341 287.643713 
L 787.196119 349.122382 
L 802.004896 298.801606 
L 816.813674 336.288599 
L 831.622451 284.424241 
L 846.431228 341.9337 
L 861.240006 340.919346 
L 876.048783 285.923721 
L 890.857561 295.934954 
L 905.666338 198.468771 
L 920.475116 300.609802 
" clip-path="url(#p3c3bb2c16c)" style="fill: none; stroke: #434348; stroke-linecap: square"/>
   </g>
   <g id="line2d_19">
    <path d="M 91.18358 353.145029 
L 105.992357 353.143582 
L 120.801134 353.110284 
L 135.609912 353.122125 
L 150.418689 353.11091 
L 165.227467 353.083769 
L 180.036244 352.916032 
L 194.845022 352.570692 
L 209.653799 350.137558 
L 224.462576 350.951222 
L 239.271354 321.945015 
L 254.080131 344.940009 
L 268.888909 256.286945 
L 283.697686 346.432139 
L 298.506464 258.602318 
L 313.315241 341.544129 
L 328.124018 319.265094 
L 342.932796 323.432766 
L 357.741573 326.674288 
L 372.550351 330.018716 
L 387.359128 334.340746 
L 402.167906 326.159761 
L 416.976683 349.107681 
L 431.78546 350.754169 
L 446.594238 343.910955 
L 461.403015 344.01386 
L 476.211793 341.235412 
L 491.02057 348.593154 
L 505.829348 347.049572 
L 520.638125 344.785651 
L 535.446902 349.056228 
L 550.25568 348.130079 
L 565.064457 347.358288 
L 579.873235 347.821363 
L 594.682012 349.519303 
L 609.49079 347.049572 
L 624.299567 349.313492 
L 639.108344 347.872815 
L 653.917122 346.174875 
L 668.725899 348.438796 
L 683.534677 350.59981 
L 698.343454 348.130079 
L 713.152232 348.541701 
L 727.961009 346.63795 
L 742.769786 348.953323 
L 757.578564 346.946666 
L 772.387341 345.660348 
L 787.196119 345.763253 
L 802.004896 347.924268 
L 816.813674 338.508417 
L 831.622451 344.57984 
L 846.431228 347.718457 
L 861.240006 340.000547 
L 876.048783 340.206358 
L 890.857561 342.778995 
L 905.666338 336.090139 
L 920.475116 198.505522 
L 935.283893 275.530268 
L 950.09267 347.358288 
" clip-path="url(#p3c3bb2c16c)" style="fill: none; stroke: #90ed7d; stroke-linecap: square"/>
   </g>
   <g id="line2d_20">
    <path d="M 91.18358 353.133689 
L 105.992357 353.133996 
L 120.801134 353.099172 
L 135.609912 353.12748 
L 150.418689 353.11807 
L 165.227467 353.085375 
L 180.036244 352.928675 
L 194.845022 352.515178 
L 209.653799 350.062743 
L 224.462576 351.391307 
L 239.271354 321.984426 
L 254.080131 339.383114 
L 268.888909 255.103532 
L 283.697686 344.682746 
L 298.506464 188.729503 
L 313.315241 343.44788 
L 328.124018 310.672487 
L 342.932796 295.648288 
L 357.741573 326.365572 
L 372.550351 296.214268 
L 387.359128 318.80202 
L 402.167906 327.446079 
L 416.976683 289.062338 
L 431.78546 323.072597 
L 446.594238 338.199701 
L 461.403015 343.139164 
L 476.211793 304.13799 
L 491.02057 320.654318 
L 505.829348 341.389771 
L 520.638125 313.502388 
L 535.446902 340.000547 
L 550.25568 310.15796 
L 565.064457 333.260238 
L 579.873235 219.446786 
L 594.682012 349.004776 
L 609.49079 341.338318 
L 624.299567 338.765681 
L 639.108344 297.088965 
L 653.917122 332.282636 
L 668.725899 278.720338 
L 683.534677 350.496905 
L 698.343454 311.495731 
L 713.152232 343.293522 
L 727.961009 349.364945 
L 742.769786 340.772338 
L 757.578564 307.791134 
L 772.387341 345.042915 
L 787.196119 348.130079 
L 802.004896 343.499333 
L 816.813674 288.547811 
L 831.622451 315.663403 
L 846.431228 339.640378 
L 861.240006 282.116219 
L 876.048783 340.875243 
L 890.857561 343.242069 
L 905.666338 296.728796 
L 920.475116 231.795443 
L 935.283893 144.891771 
L 950.09267 336.707572 
" clip-path="url(#p3c3bb2c16c)" style="fill: none; stroke: #f7a35c; stroke-linecap: square"/>
   </g>
   <g id="line2d_21">
    <path d="M 91.18358 353.142634 
L 105.992357 353.142249 
L 120.801134 353.110894 
L 135.609912 353.123457 
L 150.418689 353.110208 
L 165.227467 353.107168 
L 180.036244 352.984571 
L 194.845022 352.835461 
L 209.653799 351.572769 
L 224.462576 350.985985 
L 239.271354 338.190753 
L 254.080131 346.867974 
L 268.888909 307.715468 
L 283.697686 348.248118 
L 298.506464 314.361951 
L 313.315241 344.725119 
L 328.124018 335.463626 
L 342.932796 340.003573 
L 357.741573 338.58711 
L 372.550351 343.381294 
L 387.359128 343.853449 
L 402.167906 338.078636 
L 416.976683 348.865551 
L 431.78546 350.027777 
L 446.594238 345.669428 
L 461.403015 346.3595 
L 476.211793 344.652479 
L 491.02057 348.90187 
L 505.829348 348.538674 
L 520.638125 347.667004 
L 535.446902 348.06652 
L 550.25568 345.596789 
L 565.064457 345.669428 
L 579.873235 347.376448 
L 594.682012 349.156107 
L 609.49079 348.320757 
L 624.299567 347.630685 
L 639.108344 348.284437 
L 653.917122 345.596789 
L 668.725899 347.049572 
L 683.534677 349.991458 
L 698.343454 346.831654 
L 713.152232 348.393396 
L 727.961009 348.502355 
L 742.769786 348.974509 
L 757.578564 347.812283 
L 772.387341 345.45151 
L 787.196119 344.979356 
L 802.004896 347.812283 
L 816.813674 347.921242 
L 831.622451 346.650056 
L 846.431228 348.720272 
L 861.240006 345.48783 
L 876.048783 346.795335 
L 890.857561 342.182748 
L 905.666338 343.998727 
L 920.475116 282.800237 
L 935.283893 267.07386 
L 950.09267 347.957561 
" clip-path="url(#p3c3bb2c16c)" style="fill: none; stroke: #8085e9; stroke-linecap: square"/>
   </g>
   <g id="line2d_22">
    <path d="M 91.18358 353.135536 
L 105.992357 353.137357 
L 120.801134 353.099302 
L 135.609912 353.130576 
L 150.418689 353.12534 
L 165.227467 353.101131 
L 180.036244 353.000215 
L 194.845022 352.851071 
L 209.653799 351.768363 
L 224.462576 351.605646 
L 239.271354 338.271287 
L 254.080131 342.436985 
L 268.888909 307.352272 
L 283.697686 346.541098 
L 298.506464 220.112645 
L 313.315241 347.558046 
L 328.124018 334.591956 
L 342.932796 301.577459 
L 357.741573 339.277182 
L 372.550351 311.565344 
L 387.359128 314.252992 
L 402.167906 335.13675 
L 416.976683 279.822032 
L 431.78546 323.514485 
L 446.594238 341.492676 
L 461.403015 346.976933 
L 476.211793 294.495142 
L 491.02057 315.560497 
L 505.829348 346.541098 
L 520.638125 303.901912 
L 535.446902 340.729965 
L 550.25568 301.976975 
L 565.064457 328.417628 
L 579.873235 187.425024 
L 594.682012 349.73722 
L 609.49079 340.693645 
L 624.299567 338.55079 
L 639.108344 283.090794 
L 653.917122 329.180339 
L 668.725899 273.13923 
L 683.534677 350.499932 
L 698.343454 300.306274 
L 713.152232 343.090738 
L 727.961009 349.519303 
L 742.769786 335.863142 
L 757.578564 299.398285 
L 772.387341 346.068943 
L 787.196119 350.209375 
L 802.004896 340.766285 
L 816.813674 276.335352 
L 831.622451 305.608933 
L 846.431228 337.098007 
L 861.240006 266.674345 
L 876.048783 342.836501 
L 890.857561 342.400666 
L 905.666338 281.529052 
L 920.475116 195.233734 
L 935.283893 220.5848 
L 950.09267 341.565315 
" clip-path="url(#p3c3bb2c16c)" style="fill: none; stroke: #f15c80; stroke-linecap: square"/>
   </g>
   <g id="line2d_23">
    <path d="M 91.18358 353.149202 
L 105.992357 353.144934 
L 120.801134 353.117471 
L 135.609912 353.128532 
L 150.418689 353.127672 
L 165.227467 353.123632 
L 180.036244 353.027285 
L 194.845022 352.962213 
L 209.653799 352.330542 
L 224.462576 351.776292 
L 239.271354 344.853548 
L 254.080131 347.332562 
L 268.888909 330.224527 
L 283.697686 349.596482 
L 298.506464 331.12495 
L 313.315241 348.593154 
L 328.124018 342.007204 
L 342.932796 343.859502 
L 357.741573 343.653691 
L 372.550351 346.046243 
L 387.359128 344.86283 
L 402.167906 343.087711 
L 416.976683 349.159134 
L 431.78546 350.831348 
L 446.594238 347.667004 
L 461.403015 347.589825 
L 476.211793 345.840432 
L 491.02057 349.647935 
L 505.829348 348.644606 
L 520.638125 348.155805 
L 535.446902 350.95998 
L 550.25568 348.515975 
L 565.064457 348.953323 
L 579.873235 349.236313 
L 594.682012 350.754169 
L 609.49079 349.339218 
L 624.299567 349.853746 
L 639.108344 348.979049 
L 653.917122 347.384014 
L 668.725899 347.847089 
L 683.534677 350.111009 
L 698.343454 349.262039 
L 713.152232 350.136736 
L 727.961009 348.747512 
L 742.769786 350.67699 
L 757.578564 349.416398 
L 772.387341 349.802293 
L 787.196119 347.744184 
L 802.004896 350.625537 
L 816.813674 348.747512 
L 831.622451 347.924268 
L 846.431228 349.673661 
L 861.240006 348.413069 
L 876.048783 349.004776 
L 890.857561 346.174875 
L 905.666338 347.821363 
L 920.475116 316.075025 
L 935.283893 268.352612 
L 950.09267 340.026273 
" clip-path="url(#p3c3bb2c16c)" style="fill: none; stroke: #e4d354; stroke-linecap: square"/>
   </g>
   <g id="line2d_24">
    <path d="M 91.18358 353.13094 
L 105.992357 353.128658 
L 120.801134 353.103683 
L 135.609912 353.133671 
L 150.418689 353.135323 
L 165.227467 353.109969 
L 180.036244 353.053099 
L 194.845022 352.842965 
L 209.653799 351.85667 
L 224.462576 351.793887 
L 239.271354 343.91785 
L 254.080131 334.958179 
L 268.888909 329.118293 
L 283.697686 344.01386 
L 298.506464 186.182592 
L 313.315241 347.281109 
L 328.124018 336.964835 
L 342.932796 299.24998 
L 357.741573 341.158233 
L 372.550351 308.820189 
L 387.359128 303.932179 
L 402.167906 333.157333 
L 416.976683 260.866239 
L 431.78546 307.688229 
L 446.594238 338.096796 
L 461.403015 344.271124 
L 476.211793 265.522711 
L 491.02057 288.496358 
L 505.829348 346.097696 
L 520.638125 298.503915 
L 535.446902 338.456965 
L 550.25568 293.101378 
L 565.064457 320.139791 
L 579.873235 93.439035 
L 594.682012 349.339218 
L 609.49079 336.450308 
L 624.299567 330.584696 
L 639.108344 245.481871 
L 653.917122 313.322303 
L 668.725899 225.132313 
L 683.534677 350.265368 
L 698.343454 292.02087 
L 713.152232 341.492676 
L 727.961009 349.236313 
L 742.769786 332.797164 
L 757.578564 287.390124 
L 772.387341 345.197273 
L 787.196119 349.673661 
L 802.004896 337.402184 
L 816.813674 224.206164 
L 831.622451 285.769363 
L 846.431228 332.925796 
L 861.240006 234.856881 
L 876.048783 335.987233 
L 890.857561 340.695159 
L 905.666338 273.600791 
L 920.475116 144.19716 
L 935.283893 251.553293 
L 950.09267 319.00783 
" clip-path="url(#p3c3bb2c16c)" style="fill: none; stroke: #2b908f; stroke-linecap: square"/>
   </g>
   <g id="line2d_25">
    <path d="M 91.18358 353.140371 
L 105.992357 353.14219 
L 120.801134 353.102136 
L 135.609912 353.117186 
L 150.418689 353.094212 
L 165.227467 353.102608 
L 180.036244 353.002154 
L 194.845022 352.902401 
L 209.653799 352.075202 
L 224.462576 351.106279 
L 239.271354 343.37485 
L 254.080131 345.698937 
L 268.888909 327.831975 
L 283.697686 349.287766 
L 298.506464 329.452736 
L 313.315241 346.972393 
L 328.124018 339.370251 
L 342.932796 343.190616 
L 357.741573 341.415497 
L 372.550351 345.698937 
L 387.359128 342.380236 
L 402.167906 340.875243 
L 416.976683 349.171997 
L 431.78546 350.445452 
L 446.594238 345.544579 
L 461.403015 346.35496 
L 476.211793 345.313042 
L 491.02057 343.229206 
L 505.829348 348.515975 
L 520.638125 345.583169 
L 535.446902 349.480713 
L 550.25568 346.393549 
L 565.064457 347.589825 
L 579.873235 348.94046 
L 594.682012 348.94046 
L 609.49079 346.625087 
L 624.299567 348.130079 
L 639.108344 347.975721 
L 653.917122 344.425482 
L 668.725899 343.499333 
L 683.534677 349.056228 
L 698.343454 347.281109 
L 713.152232 349.519303 
L 727.961009 348.01431 
L 742.769786 348.400206 
L 757.578564 347.049572 
L 772.387341 345.4674 
L 787.196119 346.123422 
L 802.004896 348.554564 
L 816.813674 343.962407 
L 831.622451 344.309713 
L 846.431228 345.814706 
L 861.240006 342.92049 
L 876.048783 343.885228 
L 890.857561 342.573184 
L 905.666338 340.682296 
L 920.475116 250.189796 
L 935.283893 305.450035 
L 950.09267 348.01431 
" clip-path="url(#p3c3bb2c16c)" style="fill: none; stroke: #f45b5b; stroke-linecap: square"/>
   </g>
   <g id="line2d_26">
    <path d="M 91.18358 353.132288 
L 105.992357 353.137235 
L 120.801134 353.088419 
L 135.609912 353.130208 
L 150.418689 353.1121 
L 165.227467 353.102656 
L 180.036244 353.03547 
L 194.845022 352.90581 
L 209.653799 352.236379 
L 224.462576 351.887369 
L 239.271354 343.414685 
L 254.080131 343.537922 
L 268.888909 327.986333 
L 283.697686 347.396878 
L 298.506464 267.670863 
L 313.315241 347.049572 
L 328.124018 338.173975 
L 342.932796 322.004952 
L 357.741573 343.152027 
L 372.550351 325.400833 
L 387.359128 327.909154 
L 402.167906 338.444102 
L 416.976683 307.803997 
L 431.78546 330.764781 
L 446.594238 344.57984 
L 461.403015 345.737527 
L 476.211793 315.367549 
L 491.02057 327.330311 
L 505.829348 346.007654 
L 520.638125 324.397505 
L 535.446902 344.193945 
L 550.25568 322.043542 
L 565.064457 338.096796 
L 579.873235 245.674818 
L 594.682012 349.171997 
L 609.49079 344.695609 
L 624.299567 342.688952 
L 639.108344 306.916437 
L 653.917122 336.707572 
L 668.725899 296.420079 
L 683.534677 349.905199 
L 698.343454 320.152654 
L 713.152232 346.933803 
L 727.961009 350.213915 
L 742.769786 342.573184 
L 757.578564 319.496631 
L 772.387341 347.16534 
L 787.196119 349.673661 
L 802.004896 346.200602 
L 816.813674 303.520557 
L 831.622451 322.506617 
L 846.431228 341.14537 
L 861.240006 296.497258 
L 876.048783 342.688952 
L 890.857561 345.042915 
L 905.666338 313.283714 
L 920.475116 251.771968 
L 935.283893 219.896998 
L 950.09267 335.897191 
" clip-path="url(#p3c3bb2c16c)" style="fill: none; stroke: #91e8e1; stroke-linecap: square"/>
   </g>
   <g id="line2d_27">
    <path d="M 91.18358 353.145108 
L 105.992357 353.14504 
L 120.801134 353.116236 
L 135.609912 353.131167 
L 150.418689 353.12154 
L 165.227467 353.094931 
L 180.036244 352.930031 
L 194.845022 352.650707 
L 209.653799 350.448979 
L 224.462576 351.484328 
L 239.271354 326.159761 
L 254.080131 342.027785 
L 268.888909 263.53149 
L 283.697686 347.872815 
L 298.506464 269.623494 
L 313.315241 345.032624 
L 328.124018 323.381313 
L 342.932796 325.357098 
L 357.741573 331.984211 
L 372.550351 335.647645 
L 387.359128 338.487836 
L 402.167906 329.802615 
L 416.976683 348.078626 
L 431.78546 350.671844 
L 446.594238 344.456354 
L 461.403015 345.361922 
L 476.211793 344.744489 
L 491.02057 349.889763 
L 505.829348 349.066519 
L 520.638125 346.308652 
L 535.446902 349.478141 
L 550.25568 348.243275 
L 565.064457 349.354654 
L 579.873235 348.696059 
L 594.682012 348.984195 
L 609.49079 349.354654 
L 624.299567 349.478141 
L 639.108344 348.984195 
L 653.917122 348.737221 
L 668.725899 349.231168 
L 683.534677 351.083466 
L 698.343454 349.231168 
L 713.152232 350.342547 
L 727.961009 349.107681 
L 742.769786 350.136736 
L 757.578564 347.420031 
L 772.387341 348.860708 
L 787.196119 348.819546 
L 802.004896 349.478141 
L 816.813674 348.119789 
L 831.622451 347.667004 
L 846.431228 349.27233 
L 861.240006 347.008409 
L 876.048783 347.913978 
L 890.857561 344.497516 
L 905.666338 342.851028 
L 920.475116 224.386249 
L 935.283893 131.030404 
L 950.09267 337.541106 
" clip-path="url(#p3c3bb2c16c)" style="fill: none; stroke: #7cb5ec; stroke-linecap: square"/>
   </g>
   <g id="line2d_28">
    <path d="M 91.18358 353.133772 
L 105.992357 353.1327 
L 120.801134 353.100026 
L 135.609912 353.126777 
L 150.418689 353.117941 
L 165.227467 353.080535 
L 180.036244 352.92911 
L 194.845022 352.581943 
L 209.653799 350.415639 
L 224.462576 351.335734 
L 239.271354 325.95395 
L 254.080131 337.62343 
L 268.888909 261.226408 
L 283.697686 344.497516 
L 298.506464 180.466193 
L 313.315241 345.444246 
L 328.124018 316.342579 
L 342.932796 285.100477 
L 357.741573 327.168234 
L 372.550351 299.424919 
L 387.359128 309.674304 
L 402.167906 324.039908 
L 416.976683 282.177962 
L 431.78546 310.374061 
L 446.594238 334.083482 
L 461.403015 344.497516 
L 476.211793 289.916453 
L 491.02057 305.599247 
L 505.829348 342.480569 
L 520.638125 305.969707 
L 535.446902 337.870404 
L 550.25568 302.512083 
L 565.064457 326.098018 
L 579.873235 168.734969 
L 594.682012 344.57984 
L 609.49079 335.812294 
L 624.299567 333.09559 
L 639.108344 274.645281 
L 653.917122 323.340151 
L 668.725899 250.935861 
L 683.534677 349.231168 
L 698.343454 298.560513 
L 713.152232 339.064107 
L 727.961009 347.708167 
L 742.769786 333.301401 
L 757.578564 293.127104 
L 772.387341 342.110109 
L 787.196119 348.449086 
L 802.004896 339.352242 
L 816.813674 251.018185 
L 831.622451 299.877703 
L 846.431228 335.35951 
L 861.240006 261.432219 
L 876.048783 335.606483 
L 890.857561 337.376457 
L 905.666338 261.26757 
L 920.475116 186.764008 
L 935.283893 50.393676 
L 950.09267 323.545962 
" clip-path="url(#p3c3bb2c16c)" style="fill: none; stroke: #434348; stroke-linecap: square"/>
   </g>
   <g id="line2d_29">
    <path d="M 91.18358 353.142662 
L 105.992357 353.142827 
L 120.801134 353.11111 
L 135.609912 353.126638 
L 150.418689 353.113498 
L 165.227467 353.112843 
L 180.036244 353.008513 
L 194.845022 352.886189 
L 209.653799 351.780442 
L 224.462576 350.961092 
L 239.271354 340.41888 
L 254.080131 346.689403 
L 268.888909 318.338945 
L 283.697686 348.798965 
L 298.506464 321.734825 
L 313.315241 345.351631 
L 328.124018 340.823791 
L 342.932796 340.25781 
L 357.741573 341.441223 
L 372.550351 344.065313 
L 387.359128 344.168218 
L 402.167906 342.933353 
L 416.976683 348.90187 
L 431.78546 349.622208 
L 446.594238 346.63795 
L 461.403015 347.306835 
L 476.211793 345.763253 
L 491.02057 349.930925 
L 505.829348 348.541701 
L 520.638125 347.306835 
L 535.446902 350.085283 
L 550.25568 345.660348 
L 565.064457 347.306835 
L 579.873235 348.438796 
L 594.682012 349.004776 
L 609.49079 348.850417 
L 624.299567 349.004776 
L 639.108344 348.90187 
L 653.917122 347.20393 
L 668.725899 348.696059 
L 683.534677 349.982378 
L 698.343454 347.76991 
L 713.152232 349.056228 
L 727.961009 348.593154 
L 742.769786 348.90187 
L 757.578564 348.696059 
L 772.387341 343.962407 
L 787.196119 346.792308 
L 802.004896 348.593154 
L 816.813674 340.823791 
L 831.622451 345.300179 
L 846.431228 348.284437 
L 861.240006 342.31592 
L 876.048783 342.31592 
L 890.857561 344.425482 
L 905.666338 340.669432 
L 920.475116 247.591433 
L 935.283893 312.679144 
L 950.09267 350.548358 
" clip-path="url(#p3c3bb2c16c)" style="fill: none; stroke: #90ed7d; stroke-linecap: square"/>
   </g>
   <g id="line2d_30">
    <path d="M 91.18358 353.134521 
L 105.992357 353.136783 
L 120.801134 353.099228 
L 135.609912 353.132112 
L 150.418689 353.129211 
L 165.227467 353.107212 
L 180.036244 353.008148 
L 194.845022 352.875551 
L 209.653799 352.00155 
L 224.462576 351.578525 
L 239.271354 339.841714 
L 254.080131 343.087711 
L 268.888909 317.824418 
L 283.697686 345.814706 
L 298.506464 222.379592 
L 313.315241 346.586497 
L 328.124018 336.038686 
L 342.932796 305.115592 
L 357.741573 340.515074 
L 372.550351 318.030228 
L 387.359128 310.466676 
L 402.167906 337.839532 
L 416.976683 276.404965 
L 431.78546 319.522358 
L 446.594238 340.206358 
L 461.403015 346.895213 
L 476.211793 294.773592 
L 491.02057 318.184587 
L 505.829348 345.300179 
L 520.638125 306.041741 
L 535.446902 341.235412 
L 550.25568 297.809303 
L 565.064457 328.423681 
L 579.873235 185.436528 
L 594.682012 349.930925 
L 609.49079 341.544129 
L 624.299567 337.222099 
L 639.108344 274.604119 
L 653.917122 325.079253 
L 668.725899 268.326885 
L 683.534677 350.548358 
L 698.343454 302.594408 
L 713.152232 343.242069 
L 727.961009 350.496905 
L 742.769786 336.604666 
L 757.578564 299.610149 
L 772.387341 347.615552 
L 787.196119 350.342547 
L 802.004896 342.110109 
L 816.813674 273.060537 
L 831.622451 305.83593 
L 846.431228 336.193044 
L 861.240006 262.872895 
L 876.048783 341.286865 
L 890.857561 342.624636 
L 905.666338 282.836557 
L 920.475116 197.116299 
L 935.283893 200.666537 
L 950.09267 339.897641 
" clip-path="url(#p3c3bb2c16c)" style="fill: none; stroke: #f7a35c; stroke-linecap: square"/>
   </g>
   <g id="line2d_31">
    <path d="M 48.238125 353.2239 
L 993.038125 353.2239 
" clip-path="url(#p3c3bb2c16c)" style="fill: none; stroke: #dedede; stroke-width: 2; stroke-linecap: square"/>
   </g>
   <g id="text_16">
    <!-- Cutadapt: Lengths of Trimmed Sequences (3' end) -->
    <g transform="translate(319.285625 19.3575) scale(0.16 -0.16)">
     <defs>
      <path id="DejaVuSans-43" d="M 4122 4306 
L 4122 3641 
Q 3803 3938 3442 4084 
Q 3081 4231 2675 4231 
Q 1875 4231 1450 3742 
Q 1025 3253 1025 2328 
Q 1025 1406 1450 917 
Q 1875 428 2675 428 
Q 3081 428 3442 575 
Q 3803 722 4122 1019 
L 4122 359 
Q 3791 134 3420 21 
Q 3050 -91 2638 -91 
Q 1578 -91 968 557 
Q 359 1206 359 2328 
Q 359 3453 968 4101 
Q 1578 4750 2638 4750 
Q 3056 4750 3426 4639 
Q 3797 4528 4122 4306 
z
" transform="scale(0.015625)"/>
      <path id="DejaVuSans-75" d="M 544 1381 
L 544 3500 
L 1119 3500 
L 1119 1403 
Q 1119 906 1312 657 
Q 1506 409 1894 409 
Q 2359 409 2629 706 
Q 2900 1003 2900 1516 
L 2900 3500 
L 3475 3500 
L 3475 0 
L 2900 0 
L 2900 538 
Q 2691 219 2414 64 
Q 2138 -91 1772 -91 
Q 1169 -91 856 284 
Q 544 659 544 1381 
z
M 1991 3584 
L 1991 3584 
z
" transform="scale(0.015625)"/>
      <path id="DejaVuSans-61" d="M 2194 1759 
Q 1497 1759 1228 1600 
Q 959 1441 959 1056 
Q 959 750 1161 570 
Q 1363 391 1709 391 
Q 2188 391 2477 730 
Q 2766 1069 2766 1631 
L 2766 1759 
L 2194 1759 
z
M 3341 1997 
L 3341 0 
L 2766 0 
L 2766 531 
Q 2569 213 2275 61 
Q 1981 -91 1556 -91 
Q 1019 -91 701 211 
Q 384 513 384 1019 
Q 384 1609 779 1909 
Q 1175 2209 1959 2209 
L 2766 2209 
L 2766 2266 
Q 2766 2663 2505 2880 
Q 2244 3097 1772 3097 
Q 1472 3097 1187 3025 
Q 903 2953 641 2809 
L 641 3341 
Q 956 3463 1253 3523 
Q 1550 3584 1831 3584 
Q 2591 3584 2966 3190 
Q 3341 2797 3341 1997 
z
" transform="scale(0.015625)"/>
      <path id="DejaVuSans-3a" d="M 750 794 
L 1409 794 
L 1409 0 
L 750 0 
L 750 794 
z
M 750 3309 
L 1409 3309 
L 1409 2516 
L 750 2516 
L 750 3309 
z
" transform="scale(0.015625)"/>
      <path id="DejaVuSans-6f" d="M 1959 3097 
Q 1497 3097 1228 2736 
Q 959 2375 959 1747 
Q 959 1119 1226 758 
Q 1494 397 1959 397 
Q 2419 397 2687 759 
Q 2956 1122 2956 1747 
Q 2956 2369 2687 2733 
Q 2419 3097 1959 3097 
z
M 1959 3584 
Q 2709 3584 3137 3096 
Q 3566 2609 3566 1747 
Q 3566 888 3137 398 
Q 2709 -91 1959 -91 
Q 1206 -91 779 398 
Q 353 888 353 1747 
Q 353 2609 779 3096 
Q 1206 3584 1959 3584 
z
" transform="scale(0.015625)"/>
      <path id="DejaVuSans-66" d="M 2375 4863 
L 2375 4384 
L 1825 4384 
Q 1516 4384 1395 4259 
Q 1275 4134 1275 3809 
L 1275 3500 
L 2222 3500 
L 2222 3053 
L 1275 3053 
L 1275 0 
L 697 0 
L 697 3053 
L 147 3053 
L 147 3500 
L 697 3500 
L 697 3744 
Q 697 4328 969 4595 
Q 1241 4863 1831 4863 
L 2375 4863 
z
" transform="scale(0.015625)"/>
      <path id="DejaVuSans-53" d="M 3425 4513 
L 3425 3897 
Q 3066 4069 2747 4153 
Q 2428 4238 2131 4238 
Q 1616 4238 1336 4038 
Q 1056 3838 1056 3469 
Q 1056 3159 1242 3001 
Q 1428 2844 1947 2747 
L 2328 2669 
Q 3034 2534 3370 2195 
Q 3706 1856 3706 1288 
Q 3706 609 3251 259 
Q 2797 -91 1919 -91 
Q 1588 -91 1214 -16 
Q 841 59 441 206 
L 441 856 
Q 825 641 1194 531 
Q 1563 422 1919 422 
Q 2459 422 2753 634 
Q 3047 847 3047 1241 
Q 3047 1584 2836 1778 
Q 2625 1972 2144 2069 
L 1759 2144 
Q 1053 2284 737 2584 
Q 422 2884 422 3419 
Q 422 4038 858 4394 
Q 1294 4750 2059 4750 
Q 2388 4750 2728 4690 
Q 3069 4631 3425 4513 
z
" transform="scale(0.015625)"/>
      <path id="DejaVuSans-71" d="M 947 1747 
Q 947 1113 1208 752 
Q 1469 391 1925 391 
Q 2381 391 2643 752 
Q 2906 1113 2906 1747 
Q 2906 2381 2643 2742 
Q 2381 3103 1925 3103 
Q 1469 3103 1208 2742 
Q 947 2381 947 1747 
z
M 2906 525 
Q 2725 213 2448 61 
Q 2172 -91 1784 -91 
Q 1150 -91 751 415 
Q 353 922 353 1747 
Q 353 2572 751 3078 
Q 1150 3584 1784 3584 
Q 2172 3584 2448 3432 
Q 2725 3281 2906 2969 
L 2906 3500 
L 3481 3500 
L 3481 -1331 
L 2906 -1331 
L 2906 525 
z
" transform="scale(0.015625)"/>
      <path id="DejaVuSans-27" d="M 1147 4666 
L 1147 2931 
L 616 2931 
L 616 4666 
L 1147 4666 
z
" transform="scale(0.015625)"/>
     </defs>
     <use xlink:href="#DejaVuSans-43"/>
     <use xlink:href="#DejaVuSans-75" x="69.824219"/>
     <use xlink:href="#DejaVuSans-74" x="133.203125"/>
     <use xlink:href="#DejaVuSans-61" x="172.412109"/>
     <use xlink:href="#DejaVuSans-64" x="233.691406"/>
     <use xlink:href="#DejaVuSans-61" x="297.167969"/>
     <use xlink:href="#DejaVuSans-70" x="358.447266"/>
     <use xlink:href="#DejaVuSans-74" x="421.923828"/>
     <use xlink:href="#DejaVuSans-3a" x="461.132812"/>
     <use xlink:href="#DejaVuSans-20" x="494.824219"/>
     <use xlink:href="#DejaVuSans-4c" x="526.611328"/>
     <use xlink:href="#DejaVuSans-65" x="580.574219"/>
     <use xlink:href="#DejaVuSans-6e" x="642.097656"/>
     <use xlink:href="#DejaVuSans-67" x="705.476562"/>
     <use xlink:href="#DejaVuSans-74" x="768.953125"/>
     <use xlink:href="#DejaVuSans-68" x="808.162109"/>
     <use xlink:href="#DejaVuSans-73" x="871.541016"/>
     <use xlink:href="#DejaVuSans-20" x="923.640625"/>
     <use xlink:href="#DejaVuSans-6f" x="955.427734"/>
     <use xlink:href="#DejaVuSans-66" x="1016.609375"/>
     <use xlink:href="#DejaVuSans-20" x="1051.814453"/>
     <use xlink:href="#DejaVuSans-54" x="1083.601562"/>
     <use xlink:href="#DejaVuSans-72" x="1129.935547"/>
     <use xlink:href="#DejaVuSans-69" x="1171.048828"/>
     <use xlink:href="#DejaVuSans-6d" x="1198.832031"/>
     <use xlink:href="#DejaVuSans-6d" x="1296.244141"/>
     <use xlink:href="#DejaVuSans-65" x="1393.65625"/>
     <use xlink:href="#DejaVuSans-64" x="1455.179688"/>
     <use xlink:href="#DejaVuSans-20" x="1518.65625"/>
     <use xlink:href="#DejaVuSans-53" x="1550.443359"/>
     <use xlink:href="#DejaVuSans-65" x="1613.919922"/>
     <use xlink:href="#DejaVuSans-71" x="1675.443359"/>
     <use xlink:href="#DejaVuSans-75" x="1738.919922"/>
     <use xlink:href="#DejaVuSans-65" x="1802.298828"/>
     <use xlink:href="#DejaVuSans-6e" x="1863.822266"/>
     <use xlink:href="#DejaVuSans-63" x="1927.201172"/>
     <use xlink:href="#DejaVuSans-65" x="1982.181641"/>
     <use xlink:href="#DejaVuSans-73" x="2043.705078"/>
     <use xlink:href="#DejaVuSans-20" x="2095.804688"/>
     <use xlink:href="#DejaVuSans-28" x="2127.591797"/>
     <use xlink:href="#DejaVuSans-33" x="2166.605469"/>
     <use xlink:href="#DejaVuSans-27" x="2230.228516"/>
     <use xlink:href="#DejaVuSans-20" x="2257.71875"/>
     <use xlink:href="#DejaVuSans-65" x="2289.505859"/>
     <use xlink:href="#DejaVuSans-6e" x="2351.029297"/>
     <use xlink:href="#DejaVuSans-64" x="2414.408203"/>
     <use xlink:href="#DejaVuSans-29" x="2477.884766"/>
    </g>
   </g>
  </g>
 </g>
 <defs>
  <clipPath id="p3c3bb2c16c">
   <rect x="48.238125" y="35.2559" width="944.8" height="317.968"/>
  </clipPath>
 </defs>
</svg>
