<?xml version="1.0" encoding="utf-8" standalone="no"?>
<!DOCTYPE svg PUBLIC "-//W3C//DTD SVG 1.1//EN"
  "http://www.w3.org/Graphics/SVG/1.1/DTD/svg11.dtd">
<svg xmlns:xlink="http://www.w3.org/1999/xlink" width="1000.340625pt" height="388.844525pt" viewBox="0 0 1000.340625 388.844525" xmlns="http://www.w3.org/2000/svg" version="1.1">
 <metadata>
  <rdf:RDF xmlns:dc="http://purl.org/dc/elements/1.1/" xmlns:cc="http://creativecommons.org/ns#" xmlns:rdf="http://www.w3.org/1999/02/22-rdf-syntax-ns#">
   <cc:Work>
    <dc:type rdf:resource="http://purl.org/dc/dcmitype/StillImage"/>
    <dc:date>2026-03-23T21:33:01.176805</dc:date>
    <dc:format>image/svg+xml</dc:format>
    <dc:creator>
     <cc:Agent>
      <dc:title>Matplotlib v3.8.1, https://matplotlib.org/</dc:title>
     </cc:Agent>
    </dc:creator>
   </cc:Work>
  </rdf:RDF>
 </metadata>
 <defs>
  <style type="text/css">*{stroke-linejoin: round; stroke-linecap: butt}</style>
 </defs>
 <g id="figure_1">
  <g id="axes_1">
   <g id="patch_1">
    <path d="M 40.600625 353.2239 
L 993.140625 353.2239 
L 993.140625 35.2559 
L 40.600625 35.2559 
z
" style="fill: #ffffff"/>
   </g>
   <g id="matplotlib.axis_1">
    <g id="xtick_1">
     <g id="text_1">
      <!-- 0 -->
      <g transform="translate(66.422804 366.30265) scale(0.08 -0.08)">
       <defs>
        <path id="DejaVuSans-30" d="M 2034 4250 
Q 1547 4250 1301 3770 
Q 1056 3291 1056 2328 
Q 1056 1369 1301 889 
Q 1547 409 2034 409 
Q 2525 409 2770 889 
Q 3016 1369 3016 2328 
Q 3016 3291 2770 3770 
Q 2525 4250 2034 4250 
z
M 2034 4750 
Q 2819 4750 3233 4129 
Q 3647 3509 3647 2328 
Q 3647 1150 3233 529 
Q 2819 -91 2034 -91 
Q 1250 -91 836 529 
Q 422 1150 422 2328 
Q 422 3509 836 4129 
Q 1250 4750 2034 4750 
z
" transform="scale(0.015625)"/>
       </defs>
       <use xlink:href="#DejaVuSans-30"/>
      </g>
     </g>
    </g>
    <g id="xtick_2">
     <g id="text_2">
      <!-- 10 -->
      <g transform="translate(213.178744 366.30265) scale(0.08 -0.08)">
       <defs>
        <path id="DejaVuSans-31" d="M 794 531 
L 1825 531 
L 1825 4091 
L 703 3866 
L 703 4441 
L 1819 4666 
L 2450 4666 
L 2450 531 
L 3481 531 
L 3481 0 
L 794 0 
L 794 531 
z
" transform="scale(0.015625)"/>
       </defs>
       <use xlink:href="#DejaVuSans-31"/>
       <use xlink:href="#DejaVuSans-30" x="63.623047"/>
      </g>
     </g>
    </g>
    <g id="xtick_3">
     <g id="text_3">
      <!-- 20 -->
      <g transform="translate(362.479685 366.30265) scale(0.08 -0.08)">
       <defs>
        <path id="DejaVuSans-32" d="M 1228 531 
L 3431 531 
L 3431 0 
L 469 0 
L 469 531 
Q 828 903 1448 1529 
Q 2069 2156 2228 2338 
Q 2531 2678 2651 2914 
Q 2772 3150 2772 3378 
Q 2772 3750 2511 3984 
Q 2250 4219 1831 4219 
Q 1534 4219 1204 4116 
Q 875 4013 500 3803 
L 500 4441 
Q 881 4594 1212 4672 
Q 1544 4750 1819 4750 
Q 2544 4750 2975 4387 
Q 3406 4025 3406 3419 
Q 3406 3131 3298 2873 
Q 3191 2616 2906 2266 
Q 2828 2175 2409 1742 
Q 1991 1309 1228 531 
z
" transform="scale(0.015625)"/>
       </defs>
       <use xlink:href="#DejaVuSans-32"/>
       <use xlink:href="#DejaVuSans-30" x="63.623047"/>
      </g>
     </g>
    </g>
    <g id="xtick_4">
     <g id="text_4">
      <!-- 30 -->
      <g transform="translate(511.780625 366.30265) scale(0.08 -0.08)">
       <defs>
        <path id="DejaVuSans-33" d="M 2597 2516 
Q 3050 2419 3304 2112 
Q 3559 1806 3559 1356 
Q 3559 666 3084 287 
Q 2609 -91 1734 -91 
Q 1441 -91 1130 -33 
Q 819 25 488 141 
L 488 750 
Q 750 597 1062 519 
Q 1375 441 1716 441 
Q 2309 441 2620 675 
Q 2931 909 2931 1356 
Q 2931 1769 2642 2001 
Q 2353 2234 1838 2234 
L 1294 2234 
L 1294 2753 
L 1863 2753 
Q 2328 2753 2575 2939 
Q 2822 3125 2822 3475 
Q 2822 3834 2567 4026 
Q 2313 4219 1838 4219 
Q 1578 4219 1281 4162 
Q 984 4106 628 3988 
L 628 4550 
Q 988 4650 1302 4700 
Q 1616 4750 1894 4750 
Q 2613 4750 3031 4423 
Q 3450 4097 3450 3541 
Q 3450 3153 3228 2886 
Q 3006 2619 2597 2516 
z
" transform="scale(0.015625)"/>
       </defs>
       <use xlink:href="#DejaVuSans-33"/>
       <use xlink:href="#DejaVuSans-30" x="63.623047"/>
      </g>
     </g>
    </g>
    <g id="xtick_5">
     <g id="text_5">
      <!-- 40 -->
      <g transform="translate(661.081565 366.30265) scale(0.08 -0.08)">
       <defs>
        <path id="DejaVuSans-34" d="M 2419 4116 
L 825 1625 
L 2419 1625 
L 2419 4116 
z
M 2253 4666 
L 3047 4666 
L 3047 1625 
L 3713 1625 
L 3713 1100 
L 3047 1100 
L 3047 0 
L 2419 0 
L 2419 1100 
L 313 1100 
L 313 1709 
L 2253 4666 
z
" transform="scale(0.015625)"/>
       </defs>
       <use xlink:href="#DejaVuSans-34"/>
       <use xlink:href="#DejaVuSans-30" x="63.623047"/>
      </g>
     </g>
    </g>
    <g id="xtick_6">
     <g id="text_6">
      <!-- 50 -->
      <g transform="translate(810.382506 366.30265) scale(0.08 -0.08)">
       <defs>
        <path id="DejaVuSans-35" d="M 691 4666 
L 3169 4666 
L 3169 4134 
L 1269 4134 
L 1269 2991 
Q 1406 3038 1543 3061 
Q 1681 3084 1819 3084 
Q 2600 3084 3056 2656 
Q 3513 2228 3513 1497 
Q 3513 744 3044 326 
Q 2575 -91 1722 -91 
Q 1428 -91 1123 -41 
Q 819 9 494 109 
L 494 744 
Q 775 591 1075 516 
Q 1375 441 1709 441 
Q 2250 441 2565 725 
Q 2881 1009 2881 1497 
Q 2881 1984 2565 2268 
Q 2250 2553 1709 2553 
Q 1456 2553 1204 2497 
Q 953 2441 691 2322 
L 691 4666 
z
" transform="scale(0.015625)"/>
       </defs>
       <use xlink:href="#DejaVuSans-35"/>
       <use xlink:href="#DejaVuSans-30" x="63.623047"/>
      </g>
     </g>
    </g>
    <g id="xtick_7">
     <g id="text_7">
      <!-- 60 -->
      <g transform="translate(959.683446 366.30265) scale(0.08 -0.08)">
       <defs>
        <path id="DejaVuSans-36" d="M 2113 2584 
Q 1688 2584 1439 2293 
Q 1191 2003 1191 1497 
Q 1191 994 1439 701 
Q 1688 409 2113 409 
Q 2538 409 2786 701 
Q 3034 994 3034 1497 
Q 3034 2003 2786 2293 
Q 2538 2584 2113 2584 
z
M 3366 4563 
L 3366 3988 
Q 3128 4100 2886 4159 
Q 2644 4219 2406 4219 
Q 1781 4219 1451 3797 
Q 1122 3375 1075 2522 
Q 1259 2794 1537 2939 
Q 1816 3084 2150 3084 
Q 2853 3084 3261 2657 
Q 3669 2231 3669 1497 
Q 3669 778 3244 343 
Q 2819 -91 2113 -91 
Q 1303 -91 875 529 
Q 447 1150 447 2328 
Q 447 3434 972 4092 
Q 1497 4750 2381 4750 
Q 2619 4750 2861 4703 
Q 3103 4656 3366 4563 
z
" transform="scale(0.015625)"/>
       </defs>
       <use xlink:href="#DejaVuSans-36"/>
       <use xlink:href="#DejaVuSans-30" x="63.623047"/>
      </g>
     </g>
    </g>
    <g id="text_8">
     <!-- Length Trimmed (bp) -->
     <g transform="translate(464.443281 379.564837) scale(0.1 -0.1)">
      <defs>
       <path id="DejaVuSans-4c" d="M 628 4666 
L 1259 4666 
L 1259 531 
L 3531 531 
L 3531 0 
L 628 0 
L 628 4666 
z
" transform="scale(0.015625)"/>
       <path id="DejaVuSans-65" d="M 3597 1894 
L 3597 1613 
L 953 1613 
Q 991 1019 1311 708 
Q 1631 397 2203 397 
Q 2534 397 2845 478 
Q 3156 559 3463 722 
L 3463 178 
Q 3153 47 2828 -22 
Q 2503 -91 2169 -91 
Q 1331 -91 842 396 
Q 353 884 353 1716 
Q 353 2575 817 3079 
Q 1281 3584 2069 3584 
Q 2775 3584 3186 3129 
Q 3597 2675 3597 1894 
z
M 3022 2063 
Q 3016 2534 2758 2815 
Q 2500 3097 2075 3097 
Q 1594 3097 1305 2825 
Q 1016 2553 972 2059 
L 3022 2063 
z
" transform="scale(0.015625)"/>
       <path id="DejaVuSans-6e" d="M 3513 2113 
L 3513 0 
L 2938 0 
L 2938 2094 
Q 2938 2591 2744 2837 
Q 2550 3084 2163 3084 
Q 1697 3084 1428 2787 
Q 1159 2491 1159 1978 
L 1159 0 
L 581 0 
L 581 3500 
L 1159 3500 
L 1159 2956 
Q 1366 3272 1645 3428 
Q 1925 3584 2291 3584 
Q 2894 3584 3203 3211 
Q 3513 2838 3513 2113 
z
" transform="scale(0.015625)"/>
       <path id="DejaVuSans-67" d="M 2906 1791 
Q 2906 2416 2648 2759 
Q 2391 3103 1925 3103 
Q 1463 3103 1205 2759 
Q 947 2416 947 1791 
Q 947 1169 1205 825 
Q 1463 481 1925 481 
Q 2391 481 2648 825 
Q 2906 1169 2906 1791 
z
M 3481 434 
Q 3481 -459 3084 -895 
Q 2688 -1331 1869 -1331 
Q 1566 -1331 1297 -1286 
Q 1028 -1241 775 -1147 
L 775 -588 
Q 1028 -725 1275 -790 
Q 1522 -856 1778 -856 
Q 2344 -856 2625 -561 
Q 2906 -266 2906 331 
L 2906 616 
Q 2728 306 2450 153 
Q 2172 0 1784 0 
Q 1141 0 747 490 
Q 353 981 353 1791 
Q 353 2603 747 3093 
Q 1141 3584 1784 3584 
Q 2172 3584 2450 3431 
Q 2728 3278 2906 2969 
L 2906 3500 
L 3481 3500 
L 3481 434 
z
" transform="scale(0.015625)"/>
       <path id="DejaVuSans-74" d="M 1172 4494 
L 1172 3500 
L 2356 3500 
L 2356 3053 
L 1172 3053 
L 1172 1153 
Q 1172 725 1289 603 
Q 1406 481 1766 481 
L 2356 481 
L 2356 0 
L 1766 0 
Q 1100 0 847 248 
Q 594 497 594 1153 
L 594 3053 
L 172 3053 
L 172 3500 
L 594 3500 
L 594 4494 
L 1172 4494 
z
" transform="scale(0.015625)"/>
       <path id="DejaVuSans-68" d="M 3513 2113 
L 3513 0 
L 2938 0 
L 2938 2094 
Q 2938 2591 2744 2837 
Q 2550 3084 2163 3084 
Q 1697 3084 1428 2787 
Q 1159 2491 1159 1978 
L 1159 0 
L 581 0 
L 581 4863 
L 1159 4863 
L 1159 2956 
Q 1366 3272 1645 3428 
Q 1925 3584 2291 3584 
Q 2894 3584 3203 3211 
Q 3513 2838 3513 2113 
z
" transform="scale(0.015625)"/>
       <path id="DejaVuSans-20" transform="scale(0.015625)"/>
       <path id="DejaVuSans-54" d="M -19 4666 
L 3928 4666 
L 3928 4134 
L 2272 4134 
L 2272 0 
L 1638 0 
L 1638 4134 
L -19 4134 
L -19 4666 
z
" transform="scale(0.015625)"/>
       <path id="DejaVuSans-72" d="M 2631 2963 
Q 2534 3019 2420 3045 
Q 2306 3072 2169 3072 
Q 1681 3072 1420 2755 
Q 1159 2438 1159 1844 
L 1159 0 
L 581 0 
L 581 3500 
L 1159 3500 
L 1159 2956 
Q 1341 3275 1631 3429 
Q 1922 3584 2338 3584 
Q 2397 3584 2469 3576 
Q 2541 3569 2628 3553 
L 2631 2963 
z
" transform="scale(0.015625)"/>
       <path id="DejaVuSans-69" d="M 603 3500 
L 1178 3500 
L 1178 0 
L 603 0 
L 603 3500 
z
M 603 4863 
L 1178 4863 
L 1178 4134 
L 603 4134 
L 603 4863 
z
" transform="scale(0.015625)"/>
       <path id="DejaVuSans-6d" d="M 3328 2828 
Q 3544 3216 3844 3400 
Q 4144 3584 4550 3584 
Q 5097 3584 5394 3201 
Q 5691 2819 5691 2113 
L 5691 0 
L 5113 0 
L 5113 2094 
Q 5113 2597 4934 2840 
Q 4756 3084 4391 3084 
Q 3944 3084 3684 2787 
Q 3425 2491 3425 1978 
L 3425 0 
L 2847 0 
L 2847 2094 
Q 2847 2600 2669 2842 
Q 2491 3084 2119 3084 
Q 1678 3084 1418 2786 
Q 1159 2488 1159 1978 
L 1159 0 
L 581 0 
L 581 3500 
L 1159 3500 
L 1159 2956 
Q 1356 3278 1631 3431 
Q 1906 3584 2284 3584 
Q 2666 3584 2933 3390 
Q 3200 3197 3328 2828 
z
" transform="scale(0.015625)"/>
       <path id="DejaVuSans-64" d="M 2906 2969 
L 2906 4863 
L 3481 4863 
L 3481 0 
L 2906 0 
L 2906 525 
Q 2725 213 2448 61 
Q 2172 -91 1784 -91 
Q 1150 -91 751 415 
Q 353 922 353 1747 
Q 353 2572 751 3078 
Q 1150 3584 1784 3584 
Q 2172 3584 2448 3432 
Q 2725 3281 2906 2969 
z
M 947 1747 
Q 947 1113 1208 752 
Q 1469 391 1925 391 
Q 2381 391 2643 752 
Q 2906 1113 2906 1747 
Q 2906 2381 2643 2742 
Q 2381 3103 1925 3103 
Q 1469 3103 1208 2742 
Q 947 2381 947 1747 
z
" transform="scale(0.015625)"/>
       <path id="DejaVuSans-28" d="M 1984 4856 
Q 1566 4138 1362 3434 
Q 1159 2731 1159 2009 
Q 1159 1288 1364 580 
Q 1569 -128 1984 -844 
L 1484 -844 
Q 1016 -109 783 600 
Q 550 1309 550 2009 
Q 550 2706 781 3412 
Q 1013 4119 1484 4856 
L 1984 4856 
z
" transform="scale(0.015625)"/>
       <path id="DejaVuSans-62" d="M 3116 1747 
Q 3116 2381 2855 2742 
Q 2594 3103 2138 3103 
Q 1681 3103 1420 2742 
Q 1159 2381 1159 1747 
Q 1159 1113 1420 752 
Q 1681 391 2138 391 
Q 2594 391 2855 752 
Q 3116 1113 3116 1747 
z
M 1159 2969 
Q 1341 3281 1617 3432 
Q 1894 3584 2278 3584 
Q 2916 3584 3314 3078 
Q 3713 2572 3713 1747 
Q 3713 922 3314 415 
Q 2916 -91 2278 -91 
Q 1894 -91 1617 61 
Q 1341 213 1159 525 
L 1159 0 
L 581 0 
L 581 4863 
L 1159 4863 
L 1159 2969 
z
" transform="scale(0.015625)"/>
       <path id="DejaVuSans-70" d="M 1159 525 
L 1159 -1331 
L 581 -1331 
L 581 3500 
L 1159 3500 
L 1159 2969 
Q 1341 3281 1617 3432 
Q 1894 3584 2278 3584 
Q 2916 3584 3314 3078 
Q 3713 2572 3713 1747 
Q 3713 922 3314 415 
Q 2916 -91 2278 -91 
Q 1894 -91 1617 61 
Q 1341 213 1159 525 
z
M 3116 1747 
Q 3116 2381 2855 2742 
Q 2594 3103 2138 3103 
Q 1681 3103 1420 2742 
Q 1159 2381 1159 1747 
Q 1159 1113 1420 752 
Q 1681 391 2138 391 
Q 2594 391 2855 752 
Q 3116 1113 3116 1747 
z
" transform="scale(0.015625)"/>
       <path id="DejaVuSans-29" d="M 513 4856 
L 1013 4856 
Q 1481 4119 1714 3412 
Q 1947 2706 1947 2009 
Q 1947 1309 1714 600 
Q 1481 -109 1013 -844 
L 513 -844 
Q 928 -128 1133 580 
Q 1338 1288 1338 2009 
Q 1338 2731 1133 3434 
Q 928 4138 513 4856 
z
" transform="scale(0.015625)"/>
      </defs>
      <use xlink:href="#DejaVuSans-4c"/>
      <use xlink:href="#DejaVuSans-65" x="53.962891"/>
      <use xlink:href="#DejaVuSans-6e" x="115.486328"/>
      <use xlink:href="#DejaVuSans-67" x="178.865234"/>
      <use xlink:href="#DejaVuSans-74" x="242.341797"/>
      <use xlink:href="#DejaVuSans-68" x="281.550781"/>
      <use xlink:href="#DejaVuSans-20" x="344.929688"/>
      <use xlink:href="#DejaVuSans-54" x="376.716797"/>
      <use xlink:href="#DejaVuSans-72" x="423.050781"/>
      <use xlink:href="#DejaVuSans-69" x="464.164062"/>
      <use xlink:href="#DejaVuSans-6d" x="491.947266"/>
      <use xlink:href="#DejaVuSans-6d" x="589.359375"/>
      <use xlink:href="#DejaVuSans-65" x="686.771484"/>
      <use xlink:href="#DejaVuSans-64" x="748.294922"/>
      <use xlink:href="#DejaVuSans-20" x="811.771484"/>
      <use xlink:href="#DejaVuSans-28" x="843.558594"/>
      <use xlink:href="#DejaVuSans-62" x="882.572266"/>
      <use xlink:href="#DejaVuSans-70" x="946.048828"/>
      <use xlink:href="#DejaVuSans-29" x="1009.525391"/>
     </g>
    </g>
   </g>
   <g id="matplotlib.axis_2">
    <g id="ytick_1">
     <g id="line2d_1">
      <path d="M 40.600625 353.2239 
L 993.140625 353.2239 
" clip-path="url(#padc11de354)" style="fill: none; stroke: #dedede; stroke-linecap: square"/>
     </g>
     <g id="text_9">
      <!-- 0.0 -->
      <g transform="translate(20.878125 356.263275) scale(0.08 -0.08)">
       <defs>
        <path id="DejaVuSans-2e" d="M 684 794 
L 1344 794 
L 1344 0 
L 684 0 
L 684 794 
z
" transform="scale(0.015625)"/>
       </defs>
       <use xlink:href="#DejaVuSans-30"/>
       <use xlink:href="#DejaVuSans-2e" x="63.623047"/>
       <use xlink:href="#DejaVuSans-30" x="95.410156"/>
      </g>
     </g>
    </g>
    <g id="ytick_2">
     <g id="line2d_2">
      <path d="M 40.600625 313.475866 
L 993.140625 313.475866 
" clip-path="url(#padc11de354)" style="fill: none; stroke: #dedede; stroke-linecap: square"/>
     </g>
     <g id="text_10">
      <!-- 0.2 -->
      <g transform="translate(20.878125 316.515241) scale(0.08 -0.08)">
       <use xlink:href="#DejaVuSans-30"/>
       <use xlink:href="#DejaVuSans-2e" x="63.623047"/>
       <use xlink:href="#DejaVuSans-32" x="95.410156"/>
      </g>
     </g>
    </g>
    <g id="ytick_3">
     <g id="line2d_3">
      <path d="M 40.600625 273.727831 
L 993.140625 273.727831 
" clip-path="url(#padc11de354)" style="fill: none; stroke: #dedede; stroke-linecap: square"/>
     </g>
     <g id="text_11">
      <!-- 0.4 -->
      <g transform="translate(20.878125 276.767206) scale(0.08 -0.08)">
       <use xlink:href="#DejaVuSans-30"/>
       <use xlink:href="#DejaVuSans-2e" x="63.623047"/>
       <use xlink:href="#DejaVuSans-34" x="95.410156"/>
      </g>
     </g>
    </g>
    <g id="ytick_4">
     <g id="line2d_4">
      <path d="M 40.600625 233.979797 
L 993.140625 233.979797 
" clip-path="url(#padc11de354)" style="fill: none; stroke: #dedede; stroke-linecap: square"/>
     </g>
     <g id="text_12">
      <!-- 0.6 -->
      <g transform="translate(20.878125 237.019172) scale(0.08 -0.08)">
       <use xlink:href="#DejaVuSans-30"/>
       <use xlink:href="#DejaVuSans-2e" x="63.623047"/>
       <use xlink:href="#DejaVuSans-36" x="95.410156"/>
      </g>
     </g>
    </g>
    <g id="ytick_5">
     <g id="line2d_5">
      <path d="M 40.600625 194.231763 
L 993.140625 194.231763 
" clip-path="url(#padc11de354)" style="fill: none; stroke: #dedede; stroke-linecap: square"/>
     </g>
     <g id="text_13">
      <!-- 0.8 -->
      <g transform="translate(20.878125 197.271138) scale(0.08 -0.08)">
       <defs>
        <path id="DejaVuSans-38" d="M 2034 2216 
Q 1584 2216 1326 1975 
Q 1069 1734 1069 1313 
Q 1069 891 1326 650 
Q 1584 409 2034 409 
Q 2484 409 2743 651 
Q 3003 894 3003 1313 
Q 3003 1734 2745 1975 
Q 2488 2216 2034 2216 
z
M 1403 2484 
Q 997 2584 770 2862 
Q 544 3141 544 3541 
Q 544 4100 942 4425 
Q 1341 4750 2034 4750 
Q 2731 4750 3128 4425 
Q 3525 4100 3525 3541 
Q 3525 3141 3298 2862 
Q 3072 2584 2669 2484 
Q 3125 2378 3379 2068 
Q 3634 1759 3634 1313 
Q 3634 634 3220 271 
Q 2806 -91 2034 -91 
Q 1263 -91 848 271 
Q 434 634 434 1313 
Q 434 1759 690 2068 
Q 947 2378 1403 2484 
z
M 1172 3481 
Q 1172 3119 1398 2916 
Q 1625 2713 2034 2713 
Q 2441 2713 2670 2916 
Q 2900 3119 2900 3481 
Q 2900 3844 2670 4047 
Q 2441 4250 2034 4250 
Q 1625 4250 1398 4047 
Q 1172 3844 1172 3481 
z
" transform="scale(0.015625)"/>
       </defs>
       <use xlink:href="#DejaVuSans-30"/>
       <use xlink:href="#DejaVuSans-2e" x="63.623047"/>
       <use xlink:href="#DejaVuSans-38" x="95.410156"/>
      </g>
     </g>
    </g>
    <g id="ytick_6">
     <g id="line2d_6">
      <path d="M 40.600625 154.483728 
L 993.140625 154.483728 
" clip-path="url(#padc11de354)" style="fill: none; stroke: #dedede; stroke-linecap: square"/>
     </g>
     <g id="text_14">
      <!-- 1.0 -->
      <g transform="translate(20.878125 157.523103) scale(0.08 -0.08)">
       <use xlink:href="#DejaVuSans-31"/>
       <use xlink:href="#DejaVuSans-2e" x="63.623047"/>
       <use xlink:href="#DejaVuSans-30" x="95.410156"/>
      </g>
     </g>
    </g>
    <g id="ytick_7">
     <g id="line2d_7">
      <path d="M 40.600625 114.735694 
L 993.140625 114.735694 
" clip-path="url(#padc11de354)" style="fill: none; stroke: #dedede; stroke-linecap: square"/>
     </g>
     <g id="text_15">
      <!-- 1.2 -->
      <g transform="translate(20.878125 117.775069) scale(0.08 -0.08)">
       <use xlink:href="#DejaVuSans-31"/>
       <use xlink:href="#DejaVuSans-2e" x="63.623047"/>
       <use xlink:href="#DejaVuSans-32" x="95.410156"/>
      </g>
     </g>
    </g>
    <g id="ytick_8">
     <g id="line2d_8">
      <path d="M 40.600625 74.98766 
L 993.140625 74.98766 
" clip-path="url(#padc11de354)" style="fill: none; stroke: #dedede; stroke-linecap: square"/>
     </g>
     <g id="text_16">
      <!-- 1.4 -->
      <g transform="translate(20.878125 78.027035) scale(0.08 -0.08)">
       <use xlink:href="#DejaVuSans-31"/>
       <use xlink:href="#DejaVuSans-2e" x="63.623047"/>
       <use xlink:href="#DejaVuSans-34" x="95.410156"/>
      </g>
     </g>
    </g>
    <g id="text_17">
     <!-- Count -->
     <g transform="translate(14.798438 209.088338) rotate(-90) scale(0.1 -0.1)">
      <defs>
       <path id="DejaVuSans-43" d="M 4122 4306 
L 4122 3641 
Q 3803 3938 3442 4084 
Q 3081 4231 2675 4231 
Q 1875 4231 1450 3742 
Q 1025 3253 1025 2328 
Q 1025 1406 1450 917 
Q 1875 428 2675 428 
Q 3081 428 3442 575 
Q 3803 722 4122 1019 
L 4122 359 
Q 3791 134 3420 21 
Q 3050 -91 2638 -91 
Q 1578 -91 968 557 
Q 359 1206 359 2328 
Q 359 3453 968 4101 
Q 1578 4750 2638 4750 
Q 3056 4750 3426 4639 
Q 3797 4528 4122 4306 
z
" transform="scale(0.015625)"/>
       <path id="DejaVuSans-6f" d="M 1959 3097 
Q 1497 3097 1228 2736 
Q 959 2375 959 1747 
Q 959 1119 1226 758 
Q 1494 397 1959 397 
Q 2419 397 2687 759 
Q 2956 1122 2956 1747 
Q 2956 2369 2687 2733 
Q 2419 3097 1959 3097 
z
M 1959 3584 
Q 2709 3584 3137 3096 
Q 3566 2609 3566 1747 
Q 3566 888 3137 398 
Q 2709 -91 1959 -91 
Q 1206 -91 779 398 
Q 353 888 353 1747 
Q 353 2609 779 3096 
Q 1206 3584 1959 3584 
z
" transform="scale(0.015625)"/>
       <path id="DejaVuSans-75" d="M 544 1381 
L 544 3500 
L 1119 3500 
L 1119 1403 
Q 1119 906 1312 657 
Q 1506 409 1894 409 
Q 2359 409 2629 706 
Q 2900 1003 2900 1516 
L 2900 3500 
L 3475 3500 
L 3475 0 
L 2900 0 
L 2900 538 
Q 2691 219 2414 64 
Q 2138 -91 1772 -91 
Q 1169 -91 856 284 
Q 544 659 544 1381 
z
M 1991 3584 
L 1991 3584 
z
" transform="scale(0.015625)"/>
      </defs>
      <use xlink:href="#DejaVuSans-43"/>
      <use xlink:href="#DejaVuSans-6f" x="69.824219"/>
      <use xlink:href="#DejaVuSans-75" x="131.005859"/>
      <use xlink:href="#DejaVuSans-6e" x="194.384766"/>
      <use xlink:href="#DejaVuSans-74" x="257.763672"/>
     </g>
    </g>
    <g id="text_18">
     <!-- 1e7 -->
     <g transform="translate(40.600625 32.2559) scale(0.1 -0.1)">
      <defs>
       <path id="DejaVuSans-37" d="M 525 4666 
L 3525 4666 
L 3525 4397 
L 1831 0 
L 1172 0 
L 2766 4134 
L 525 4134 
L 525 4666 
z
" transform="scale(0.015625)"/>
      </defs>
      <use xlink:href="#DejaVuSans-31"/>
      <use xlink:href="#DejaVuSans-65" x="63.623047"/>
      <use xlink:href="#DejaVuSans-37" x="125.146484"/>
     </g>
    </g>
   </g>
   <g id="line2d_9">
    <path d="M 83.897898 169.030654 
L 98.827992 306.972193 
L 113.758086 337.189503 
L 128.68818 349.628631 
L 143.618274 352.349086 
L 158.548368 352.967068 
L 173.478462 353.127332 
L 188.408556 353.194089 
L 203.33865 353.206629 
L 218.268744 353.209412 
L 233.198838 353.211578 
L 248.128932 353.221336 
L 263.059026 353.216865 
L 277.98912 353.222091 
L 292.919214 353.217421 
L 307.849308 353.221177 
L 322.779402 353.220343 
L 337.709496 353.220283 
L 352.639591 353.220064 
L 367.569685 353.221595 
L 382.499779 353.221058 
L 397.429873 353.22076 
L 412.359967 353.221038 
L 427.290061 353.222151 
L 442.220155 353.221018 
L 457.150249 353.220859 
L 472.080343 353.220939 
L 487.010437 353.222072 
L 501.940531 353.221455 
L 516.870625 353.221197 
L 531.800719 353.221237 
L 546.730813 353.221913 
L 561.660907 353.222628 
L 576.591001 353.221734 
L 591.521095 353.222529 
L 606.451189 353.221297 
L 621.381283 353.220899 
L 636.311377 353.221436 
L 651.241471 353.221336 
L 666.171565 353.221873 
L 681.101659 353.221813 
L 696.031754 353.221674 
L 710.961848 353.221436 
L 725.891942 353.22072 
L 740.822036 353.221138 
L 755.75213 353.2207 
L 770.682224 353.221575 
L 785.612318 353.220998 
L 800.542412 353.221376 
L 815.472506 353.221535 
L 830.4026 353.219945 
L 845.332694 353.2208 
L 860.262788 353.217103 
L 875.192882 353.215891 
L 890.122976 353.215175 
L 905.05307 353.120396 
L 919.983164 353.200826 
" clip-path="url(#padc11de354)" style="fill: none; stroke: #7cb5ec; stroke-linecap: square"/>
   </g>
   <g id="line2d_10">
    <path d="M 83.897898 149.625584 
L 98.827992 303.804354 
L 113.758086 335.459689 
L 128.68818 350.096823 
L 143.618274 352.352504 
L 158.548368 352.97786 
L 173.478462 353.129419 
L 188.408556 353.189796 
L 203.33865 353.206967 
L 218.268744 353.207862 
L 233.198838 353.212453 
L 248.128932 353.21293 
L 263.059026 353.216884 
L 277.98912 353.202933 
L 292.919214 353.198263 
L 307.849308 353.221138 
L 322.779402 353.219408 
L 337.709496 353.194645 
L 352.639591 353.220482 
L 367.569685 353.216706 
L 382.499779 353.2018 
L 397.429873 353.209054 
L 412.359967 353.219249 
L 427.290061 353.202814 
L 442.220155 353.205437 
L 457.150249 353.221873 
L 472.080343 353.220223 
L 487.010437 353.203052 
L 501.940531 353.221654 
L 516.870625 353.2049 
L 531.800719 353.214341 
L 546.730813 353.18125 
L 561.660907 353.206431 
L 576.591001 353.214798 
L 591.521095 353.22227 
L 606.451189 353.201164 
L 621.381283 353.212055 
L 636.311377 353.192598 
L 651.241471 353.220343 
L 666.171565 353.200131 
L 681.101659 353.222409 
L 696.031754 353.213645 
L 710.961848 353.208557 
L 725.891942 353.222111 
L 740.822036 353.211797 
L 755.75213 353.217322 
L 770.682224 353.185563 
L 785.612318 353.221893 
L 800.542412 353.200588 
L 815.472506 353.217381 
L 830.4026 353.196315 
L 845.332694 353.218852 
L 860.262788 353.218892 
L 875.192882 353.190869 
L 890.122976 353.200369 
L 905.05307 353.088419 
L 919.983164 353.199992 
" clip-path="url(#padc11de354)" style="fill: none; stroke: #434348; stroke-linecap: square"/>
   </g>
   <g id="line2d_11">
    <path d="M 83.897898 217.632822 
L 98.827992 319.085804 
L 113.758086 341.353666 
L 128.68818 350.543034 
L 143.618274 352.492477 
L 158.548368 353.024365 
L 173.478462 353.146511 
L 188.408556 353.197607 
L 203.33865 353.205835 
L 218.268744 353.213864 
L 233.198838 353.211518 
L 248.128932 353.22233 
L 263.059026 353.215613 
L 277.98912 353.221734 
L 292.919214 353.215473 
L 307.849308 353.221376 
L 322.779402 353.220601 
L 337.709496 353.220203 
L 352.639591 353.221038 
L 367.569685 353.221992 
L 382.499779 353.222211 
L 397.429873 353.221654 
L 412.359967 353.222151 
L 427.290061 353.222986 
L 442.220155 353.221992 
L 457.150249 353.221297 
L 472.080343 353.22229 
L 487.010437 353.222986 
L 501.940531 353.222211 
L 516.870625 353.222429 
L 531.800719 353.221932 
L 546.730813 353.22233 
L 561.660907 353.222588 
L 576.591001 353.222847 
L 591.521095 353.222727 
L 606.451189 353.22231 
L 621.381283 353.22229 
L 636.311377 353.222469 
L 651.241471 353.222191 
L 666.171565 353.223204 
L 681.101659 353.22239 
L 696.031754 353.222509 
L 710.961848 353.221436 
L 725.891942 353.221654 
L 740.822036 353.222489 
L 755.75213 353.22078 
L 770.682224 353.22227 
L 785.612318 353.221972 
L 800.542412 353.222151 
L 815.472506 353.222211 
L 830.4026 353.221674 
L 845.332694 353.22225 
L 860.262788 353.218355 
L 875.192882 353.219667 
L 890.122976 353.219707 
L 905.05307 353.183774 
L 919.983164 353.116262 
" clip-path="url(#padc11de354)" style="fill: none; stroke: #90ed7d; stroke-linecap: square"/>
   </g>
   <g id="line2d_12">
    <path d="M 83.897898 197.106082 
L 98.827992 314.98009 
L 113.758086 339.800393 
L 128.68818 350.894705 
L 143.618274 352.530496 
L 158.548368 353.055368 
L 173.478462 353.150605 
L 188.408556 353.191028 
L 203.33865 353.20659 
L 218.268744 353.213327 
L 233.198838 353.21122 
L 248.128932 353.213864 
L 263.059026 353.215295 
L 277.98912 353.204523 
L 292.919214 353.196732 
L 307.849308 353.221813 
L 322.779402 353.219488 
L 337.709496 353.195719 
L 352.639591 353.22082 
L 367.569685 353.217282 
L 382.499779 353.20184 
L 397.429873 353.210545 
L 412.359967 353.219866 
L 427.290061 353.204205 
L 442.220155 353.208537 
L 457.150249 353.221455 
L 472.080343 353.2207 
L 487.010437 353.200985 
L 501.940531 353.221873 
L 516.870625 353.206192 
L 531.800719 353.214301 
L 546.730813 353.179859 
L 561.660907 353.208835 
L 576.591001 353.216547 
L 591.521095 353.222489 
L 606.451189 353.199197 
L 621.381283 353.213625 
L 636.311377 353.188981 
L 651.241471 353.2208 
L 666.171565 353.197805 
L 681.101659 353.222807 
L 696.031754 353.213546 
L 710.961848 353.207921 
L 725.891942 353.222151 
L 740.822036 353.212373 
L 755.75213 353.217858 
L 770.682224 353.188365 
L 785.612318 353.222708 
L 800.542412 353.204702 
L 815.472506 353.218117 
L 830.4026 353.19385 
L 845.332694 353.218097 
L 860.262788 353.217183 
L 875.192882 353.187451 
L 890.122976 353.197507 
L 905.05307 353.161058 
L 919.983164 353.107796 
" clip-path="url(#padc11de354)" style="fill: none; stroke: #f7a35c; stroke-linecap: square"/>
   </g>
   <g id="line2d_13">
    <path d="M 83.897898 162.344657 
L 98.827992 308.561737 
L 113.758086 337.134591 
L 128.68818 349.857241 
L 143.618274 352.325714 
L 158.548368 352.955581 
L 173.478462 353.100045 
L 188.408556 353.192817 
L 203.33865 353.206311 
L 218.268744 353.211677 
L 233.198838 353.211995 
L 248.128932 353.221913 
L 263.059026 353.217361 
L 277.98912 353.222529 
L 292.919214 353.218753 
L 307.849308 353.221893 
L 322.779402 353.220661 
L 337.709496 353.221018 
L 352.639591 353.221297 
L 367.569685 353.221336 
L 382.499779 353.221078 
L 397.429873 353.221257 
L 412.359967 353.22231 
L 427.290061 353.222191 
L 442.220155 353.221674 
L 457.150249 353.221853 
L 472.080343 353.222091 
L 487.010437 353.222608 
L 501.940531 353.221555 
L 516.870625 353.222111 
L 531.800719 353.22229 
L 546.730813 353.221952 
L 561.660907 353.221833 
L 576.591001 353.222111 
L 591.521095 353.22237 
L 606.451189 353.221555 
L 621.381283 353.221654 
L 636.311377 353.221773 
L 651.241471 353.222231 
L 666.171565 353.222608 
L 681.101659 353.222549 
L 696.031754 353.222032 
L 710.961848 353.221813 
L 725.891942 353.221495 
L 740.822036 353.22227 
L 755.75213 353.222091 
L 770.682224 353.220263 
L 785.612318 353.221396 
L 800.542412 353.221575 
L 815.472506 353.21128 
L 830.4026 353.22078 
L 845.332694 353.222012 
L 860.262788 353.218455 
L 875.192882 353.219051 
L 890.122976 353.219468 
L 905.05307 353.194546 
L 919.983164 353.212095 
" clip-path="url(#padc11de354)" style="fill: none; stroke: #8085e9; stroke-linecap: square"/>
   </g>
   <g id="line2d_14">
    <path d="M 83.897898 156.968775 
L 98.827992 307.368401 
L 113.758086 334.115827 
L 128.68818 350.085673 
L 143.618274 352.340818 
L 158.548368 352.977303 
L 173.478462 353.131685 
L 188.408556 353.187868 
L 203.33865 353.207643 
L 218.268744 353.212512 
L 233.198838 353.213188 
L 248.128932 353.215493 
L 263.059026 353.216288 
L 277.98912 353.210724 
L 292.919214 353.205179 
L 307.849308 353.221177 
L 322.779402 353.220044 
L 337.709496 353.205815 
L 352.639591 353.219965 
L 367.569685 353.21754 
L 382.499779 353.209611 
L 397.429873 353.214519 
L 412.359967 353.220104 
L 427.290061 353.211081 
L 442.220155 353.215155 
L 457.150249 353.221356 
L 472.080343 353.220044 
L 487.010437 353.21124 
L 501.940531 353.221614 
L 516.870625 353.213506 
L 531.800719 353.218673 
L 546.730813 353.197805 
L 561.660907 353.214321 
L 576.591001 353.218315 
L 591.521095 353.22233 
L 606.451189 353.205894 
L 621.381283 353.217878 
L 636.311377 353.203827 
L 651.241471 353.221197 
L 666.171565 353.209293 
L 681.101659 353.222628 
L 696.031754 353.219031 
L 710.961848 353.213446 
L 725.891942 353.222628 
L 740.822036 353.217242 
L 755.75213 353.219965 
L 770.682224 353.206351 
L 785.612318 353.221972 
L 800.542412 353.208438 
L 815.472506 353.21917 
L 830.4026 353.205735 
L 845.332694 353.220343 
L 860.262788 353.220362 
L 875.192882 353.205755 
L 890.122976 353.208915 
L 905.05307 353.160085 
L 919.983164 353.200846 
" clip-path="url(#padc11de354)" style="fill: none; stroke: #f15c80; stroke-linecap: square"/>
   </g>
   <g id="line2d_15">
    <path d="M 83.897898 163.50365 
L 98.827992 305.567676 
L 113.758086 336.53527 
L 128.68818 349.495356 
L 143.618274 352.344375 
L 158.548368 352.962338 
L 173.478462 353.116302 
L 188.408556 353.193294 
L 203.33865 353.205099 
L 218.268744 353.210386 
L 233.198838 353.210883 
L 248.128932 353.221873 
L 263.059026 353.21601 
L 277.98912 353.221992 
L 292.919214 353.21752 
L 307.849308 353.222052 
L 322.779402 353.220323 
L 337.709496 353.220502 
L 352.639591 353.221138 
L 367.569685 353.221634 
L 382.499779 353.220939 
L 397.429873 353.221118 
L 412.359967 353.221833 
L 427.290061 353.22227 
L 442.220155 353.2207 
L 457.150249 353.221257 
L 472.080343 353.221893 
L 487.010437 353.222469 
L 501.940531 353.221853 
L 516.870625 353.221813 
L 531.800719 353.222072 
L 546.730813 353.221336 
L 561.660907 353.222211 
L 576.591001 353.22231 
L 591.521095 353.222628 
L 606.451189 353.221475 
L 621.381283 353.220899 
L 636.311377 353.221455 
L 651.241471 353.221833 
L 666.171565 353.222509 
L 681.101659 353.222509 
L 696.031754 353.221893 
L 710.961848 353.221714 
L 725.891942 353.221694 
L 740.822036 353.222449 
L 755.75213 353.221793 
L 770.682224 353.222588 
L 785.612318 353.221614 
L 800.542412 353.221058 
L 815.472506 353.222688 
L 830.4026 353.221257 
L 845.332694 353.222191 
L 860.262788 353.220521 
L 875.192882 353.220064 
L 890.122976 353.218912 
L 905.05307 353.196971 
L 919.983164 353.202734 
" clip-path="url(#padc11de354)" style="fill: none; stroke: #e4d354; stroke-linecap: square"/>
   </g>
   <g id="line2d_16">
    <path d="M 83.897898 133.191422 
L 98.827992 299.9542 
L 113.758086 334.456766 
L 128.68818 350.09565 
L 143.618274 352.336028 
L 158.548368 352.985352 
L 173.478462 353.142039 
L 188.408556 353.189438 
L 203.33865 353.20655 
L 218.268744 353.210783 
L 233.198838 353.211181 
L 248.128932 353.20975 
L 263.059026 353.215354 
L 277.98912 353.193513 
L 292.919214 353.194049 
L 307.849308 353.221833 
L 322.779402 353.21923 
L 337.709496 353.185543 
L 352.639591 353.220223 
L 367.569685 353.21448 
L 382.499779 353.189498 
L 397.429873 353.205099 
L 412.359967 353.219786 
L 427.290061 353.195619 
L 442.220155 353.207385 
L 457.150249 353.221992 
L 472.080343 353.219548 
L 487.010437 353.196653 
L 501.940531 353.221813 
L 516.870625 353.200806 
L 531.800719 353.213327 
L 546.730813 353.168471 
L 561.660907 353.200031 
L 576.591001 353.211916 
L 591.521095 353.221654 
L 606.451189 353.180634 
L 621.381283 353.210028 
L 636.311377 353.17505 
L 651.241471 353.22068 
L 666.171565 353.193652 
L 681.101659 353.222052 
L 696.031754 353.213645 
L 710.961848 353.204364 
L 725.891942 353.222211 
L 740.822036 353.209372 
L 755.75213 353.217461 
L 770.682224 353.178428 
L 785.612318 353.221773 
L 800.542412 353.193234 
L 815.472506 353.21446 
L 830.4026 353.178408 
L 845.332694 353.217501 
L 860.262788 353.218673 
L 875.192882 353.18606 
L 890.122976 353.193294 
L 905.05307 353.139058 
L 919.983164 353.203032 
" clip-path="url(#padc11de354)" style="fill: none; stroke: #2b908f; stroke-linecap: square"/>
   </g>
   <g id="line2d_17">
    <path d="M 83.897898 175.60484 
L 98.827992 309.905638 
L 113.758086 338.06388 
L 128.68818 349.944687 
L 143.618274 352.371901 
L 158.548368 352.96208 
L 173.478462 353.12763 
L 188.408556 353.196215 
L 203.33865 353.208875 
L 218.268744 353.207842 
L 233.198838 353.213784 
L 248.128932 353.222072 
L 263.059026 353.218455 
L 277.98912 353.222628 
L 292.919214 353.219508 
L 307.849308 353.221217 
L 322.779402 353.221952 
L 337.709496 353.22074 
L 352.639591 353.220939 
L 367.569685 353.222052 
L 382.499779 353.221734 
L 397.429873 353.221754 
L 412.359967 353.221197 
L 427.290061 353.222767 
L 442.220155 353.22227 
L 457.150249 353.221595 
L 472.080343 353.221893 
L 487.010437 353.222807 
L 501.940531 353.222052 
L 516.870625 353.222151 
L 531.800719 353.221853 
L 546.730813 353.22237 
L 561.660907 353.222489 
L 576.591001 353.221972 
L 591.521095 353.222429 
L 606.451189 353.221674 
L 621.381283 353.221495 
L 636.311377 353.222727 
L 651.241471 353.222032 
L 666.171565 353.222191 
L 681.101659 353.222072 
L 696.031754 353.221356 
L 710.961848 353.221595 
L 725.891942 353.221118 
L 740.822036 353.221853 
L 755.75213 353.220362 
L 770.682224 353.221078 
L 785.612318 353.221754 
L 800.542412 353.219925 
L 815.472506 353.222449 
L 830.4026 353.2208 
L 845.332694 353.221654 
L 860.262788 353.219786 
L 875.192882 353.220025 
L 890.122976 353.218296 
L 905.05307 353.209312 
L 919.983164 353.202396 
" clip-path="url(#padc11de354)" style="fill: none; stroke: #f45b5b; stroke-linecap: square"/>
   </g>
   <g id="line2d_18">
    <path d="M 83.897898 161.028262 
L 98.827992 307.374642 
L 113.758086 336.164362 
L 128.68818 350.270999 
L 143.618274 352.364269 
L 158.548368 352.987936 
L 173.478462 353.1419 
L 188.408556 353.196474 
L 203.33865 353.209114 
L 218.268744 353.213387 
L 233.198838 353.215334 
L 248.128932 353.213983 
L 263.059026 353.217938 
L 277.98912 353.20347 
L 292.919214 353.202376 
L 307.849308 353.222191 
L 322.779402 353.220998 
L 337.709496 353.19558 
L 352.639591 353.220839 
L 367.569685 353.218415 
L 382.499779 353.201224 
L 397.429873 353.210187 
L 412.359967 353.220919 
L 427.290061 353.204284 
L 442.220155 353.207981 
L 457.150249 353.222509 
L 472.080343 353.221177 
L 487.010437 353.205437 
L 501.940531 353.222568 
L 516.870625 353.208716 
L 531.800719 353.215732 
L 546.730813 353.179621 
L 561.660907 353.206709 
L 576.591001 353.213486 
L 591.521095 353.222529 
L 606.451189 353.193811 
L 621.381283 353.213069 
L 636.311377 353.188286 
L 651.241471 353.220839 
L 666.171565 353.201403 
L 681.101659 353.222648 
L 696.031754 353.215573 
L 710.961848 353.208716 
L 725.891942 353.222767 
L 740.822036 353.213307 
L 755.75213 353.218931 
L 770.682224 353.188067 
L 785.612318 353.222787 
L 800.542412 353.197726 
L 815.472506 353.216924 
L 830.4026 353.193652 
L 845.332694 353.218753 
L 860.262788 353.219786 
L 875.192882 353.194824 
L 890.122976 353.200946 
L 905.05307 353.173221 
L 919.983164 353.200965 
" clip-path="url(#padc11de354)" style="fill: none; stroke: #91e8e1; stroke-linecap: square"/>
   </g>
   <g id="line2d_19">
    <path d="M 83.897898 203.628258 
L 98.827992 316.264826 
L 113.758086 340.134574 
L 128.68818 350.441339 
L 143.618274 352.485958 
L 158.548368 353.028996 
L 173.478462 353.141443 
L 188.408556 353.200469 
L 203.33865 353.209491 
L 218.268744 353.212751 
L 233.198838 353.214519 
L 248.128932 353.222191 
L 263.059026 353.218852 
L 277.98912 353.222409 
L 292.919214 353.218176 
L 307.849308 353.221316 
L 322.779402 353.221694 
L 337.709496 353.220402 
L 352.639591 353.221078 
L 367.569685 353.221913 
L 382.499779 353.221833 
L 397.429873 353.221773 
L 412.359967 353.222052 
L 427.290061 353.222747 
L 442.220155 353.22227 
L 457.150249 353.221634 
L 472.080343 353.22225 
L 487.010437 353.222966 
L 501.940531 353.222072 
L 516.870625 353.222409 
L 531.800719 353.221992 
L 546.730813 353.222708 
L 561.660907 353.222926 
L 576.591001 353.222588 
L 591.521095 353.222827 
L 606.451189 353.222072 
L 621.381283 353.221952 
L 636.311377 353.221833 
L 651.241471 353.22233 
L 666.171565 353.222926 
L 681.101659 353.222867 
L 696.031754 353.222708 
L 710.961848 353.221893 
L 725.891942 353.221634 
L 740.822036 353.222409 
L 755.75213 353.221257 
L 770.682224 353.223026 
L 785.612318 353.221793 
L 800.542412 353.221873 
L 815.472506 353.222807 
L 830.4026 353.22229 
L 845.332694 353.222747 
L 860.262788 353.220502 
L 875.192882 353.220919 
L 890.122976 353.218892 
L 905.05307 353.199892 
L 919.983164 353.200031 
" clip-path="url(#padc11de354)" style="fill: none; stroke: #7cb5ec; stroke-linecap: square"/>
   </g>
   <g id="line2d_20">
    <path d="M 83.897898 179.040819 
L 98.827992 309.813899 
L 113.758086 338.296506 
L 128.68818 350.512587 
L 143.618274 352.470198 
L 158.548368 353.032851 
L 173.478462 353.146272 
L 188.408556 353.19083 
L 203.33865 353.209571 
L 218.268744 353.209889 
L 233.198838 353.212154 
L 248.128932 353.21446 
L 263.059026 353.217958 
L 277.98912 353.205556 
L 292.919214 353.203787 
L 307.849308 353.221754 
L 322.779402 353.219071 
L 337.709496 353.196891 
L 352.639591 353.220979 
L 367.569685 353.216169 
L 382.499779 353.20017 
L 397.429873 353.21132 
L 412.359967 353.220402 
L 427.290061 353.204086 
L 442.220155 353.211797 
L 457.150249 353.221773 
L 472.080343 353.219945 
L 487.010437 353.205 
L 501.940531 353.222111 
L 516.870625 353.208259 
L 531.800719 353.216706 
L 546.730813 353.181111 
L 561.660907 353.208756 
L 576.591001 353.214877 
L 591.521095 353.222588 
L 606.451189 353.193791 
L 621.381283 353.214122 
L 636.311377 353.191068 
L 651.241471 353.219289 
L 666.171565 353.201701 
L 681.101659 353.22225 
L 696.031754 353.216427 
L 710.961848 353.211538 
L 725.891942 353.221972 
L 740.822036 353.214003 
L 755.75213 353.218673 
L 770.682224 353.194347 
L 785.612318 353.222052 
L 800.542412 353.199375 
L 815.472506 353.216268 
L 830.4026 353.192897 
L 845.332694 353.218812 
L 860.262788 353.218355 
L 875.192882 353.193572 
L 890.122976 353.198084 
L 905.05307 353.154162 
L 919.983164 353.20019 
" clip-path="url(#padc11de354)" style="fill: none; stroke: #434348; stroke-linecap: square"/>
   </g>
   <g id="line2d_21">
    <path d="M 83.897898 228.303142 
L 98.827992 321.420464 
L 113.758086 341.976816 
L 128.68818 350.705186 
L 143.618274 352.524831 
L 158.548368 353.007154 
L 173.478462 353.104855 
L 188.408556 353.16076 
L 203.33865 353.149293 
L 218.268744 353.210147 
L 233.198838 353.17658 
L 248.128932 353.2207 
L 263.059026 353.186457 
L 277.98912 353.221277 
L 292.919214 353.187352 
L 307.849308 353.219389 
L 322.779402 353.210783 
L 337.709496 353.212393 
L 352.639591 353.213645 
L 367.569685 353.214937 
L 382.499779 353.216606 
L 397.429873 353.213446 
L 412.359967 353.22231 
L 427.290061 353.222946 
L 442.220155 353.220303 
L 457.150249 353.220343 
L 472.080343 353.219269 
L 487.010437 353.222111 
L 501.940531 353.221515 
L 516.870625 353.220641 
L 531.800719 353.22229 
L 546.730813 353.221932 
L 561.660907 353.221634 
L 576.591001 353.221813 
L 591.521095 353.222469 
L 606.451189 353.221515 
L 621.381283 353.22239 
L 636.311377 353.221833 
L 651.241471 353.221177 
L 666.171565 353.222052 
L 681.101659 353.222886 
L 696.031754 353.221932 
L 710.961848 353.222091 
L 725.891942 353.221356 
L 740.822036 353.22225 
L 755.75213 353.221475 
L 770.682224 353.220979 
L 785.612318 353.221018 
L 800.542412 353.221853 
L 815.472506 353.218216 
L 830.4026 353.220561 
L 845.332694 353.221773 
L 860.262788 353.218792 
L 875.192882 353.218872 
L 890.122976 353.219866 
L 905.05307 353.217282 
L 919.983164 353.164139 
L 934.913258 353.19389 
L 949.843352 353.221634 
" clip-path="url(#padc11de354)" style="fill: none; stroke: #90ed7d; stroke-linecap: square"/>
   </g>
   <g id="line2d_22">
    <path d="M 83.897898 210.342138 
L 98.827992 317.624785 
L 113.758086 340.876829 
L 128.68818 350.837706 
L 143.618274 352.569131 
L 158.548368 353.009638 
L 173.478462 353.109744 
L 188.408556 353.155394 
L 203.33865 353.147484 
L 218.268744 353.21281 
L 233.198838 353.17664 
L 248.128932 353.218554 
L 263.059026 353.186 
L 277.98912 353.220601 
L 292.919214 353.160363 
L 307.849308 353.220124 
L 322.779402 353.207464 
L 337.709496 353.201661 
L 352.639591 353.213526 
L 367.569685 353.20188 
L 382.499779 353.210604 
L 397.429873 353.213943 
L 412.359967 353.199117 
L 427.290061 353.212254 
L 442.220155 353.218097 
L 457.150249 353.220005 
L 472.080343 353.20494 
L 487.010437 353.21132 
L 501.940531 353.219329 
L 516.870625 353.208557 
L 531.800719 353.218792 
L 546.730813 353.207265 
L 561.660907 353.216189 
L 576.591001 353.172228 
L 591.521095 353.22227 
L 606.451189 353.219309 
L 621.381283 353.218315 
L 636.311377 353.202217 
L 651.241471 353.215811 
L 666.171565 353.195122 
L 681.101659 353.222847 
L 696.031754 353.207782 
L 710.961848 353.220064 
L 725.891942 353.222409 
L 740.822036 353.21909 
L 755.75213 353.206351 
L 770.682224 353.22074 
L 785.612318 353.221932 
L 800.542412 353.220144 
L 815.472506 353.198918 
L 830.4026 353.209392 
L 845.332694 353.218653 
L 860.262788 353.196434 
L 875.192882 353.21913 
L 890.122976 353.220044 
L 905.05307 353.202078 
L 919.983164 353.176997 
L 934.913258 353.14343 
L 949.843352 353.21752 
" clip-path="url(#padc11de354)" style="fill: none; stroke: #f7a35c; stroke-linecap: square"/>
   </g>
   <g id="line2d_23">
    <path d="M 83.897898 163.360677 
L 98.827992 305.533354 
L 113.758086 336.722722 
L 128.68818 349.557223 
L 143.618274 352.186317 
L 158.548368 352.957568 
L 173.478462 353.087385 
L 188.408556 353.168511 
L 203.33865 353.165013 
L 218.268744 353.203946 
L 233.198838 353.190512 
L 248.128932 353.220422 
L 263.059026 353.198998 
L 277.98912 353.221177 
L 292.919214 353.202635 
L 307.849308 353.219249 
L 322.779402 353.214182 
L 337.709496 353.216666 
L 352.639591 353.215891 
L 367.569685 353.218514 
L 382.499779 353.218773 
L 397.429873 353.215613 
L 412.359967 353.221515 
L 427.290061 353.222151 
L 442.220155 353.219766 
L 457.150249 353.220144 
L 472.080343 353.21921 
L 487.010437 353.221535 
L 501.940531 353.221336 
L 516.870625 353.220859 
L 531.800719 353.221078 
L 546.730813 353.219726 
L 561.660907 353.219766 
L 576.591001 353.2207 
L 591.521095 353.221674 
L 606.451189 353.221217 
L 621.381283 353.220839 
L 636.311377 353.221197 
L 651.241471 353.219726 
L 666.171565 353.220521 
L 681.101659 353.222131 
L 696.031754 353.220402 
L 710.961848 353.221257 
L 725.891942 353.221316 
L 740.822036 353.221575 
L 755.75213 353.220939 
L 770.682224 353.219647 
L 785.612318 353.219389 
L 800.542412 353.220939 
L 815.472506 353.220998 
L 830.4026 353.220303 
L 845.332694 353.221436 
L 860.262788 353.219667 
L 875.192882 353.220382 
L 890.122976 353.217858 
L 905.05307 353.218852 
L 919.983164 353.185364 
L 934.913258 353.176759 
L 949.843352 353.221018 
" clip-path="url(#padc11de354)" style="fill: none; stroke: #8085e9; stroke-linecap: square"/>
   </g>
   <g id="line2d_24">
    <path d="M 83.897898 146.777499 
L 98.827992 302.675629 
L 113.758086 335.030151 
L 128.68818 349.817116 
L 143.618274 352.324422 
L 158.548368 352.943796 
L 173.478462 353.096309 
L 188.408556 353.170737 
L 203.33865 353.171989 
L 218.268744 353.209471 
L 233.198838 353.190691 
L 248.128932 353.217997 
L 263.059026 353.198799 
L 277.98912 353.220243 
L 292.919214 353.151062 
L 307.849308 353.2208 
L 322.779402 353.213705 
L 337.709496 353.195639 
L 352.639591 353.216268 
L 367.569685 353.201105 
L 382.499779 353.202575 
L 397.429873 353.214003 
L 412.359967 353.183735 
L 427.290061 353.207643 
L 442.220155 353.217481 
L 457.150249 353.220482 
L 472.080343 353.191764 
L 487.010437 353.203291 
L 501.940531 353.220243 
L 516.870625 353.196911 
L 531.800719 353.217063 
L 546.730813 353.195858 
L 561.660907 353.210326 
L 576.591001 353.133175 
L 591.521095 353.221992 
L 606.451189 353.217043 
L 621.381283 353.215871 
L 636.311377 353.185523 
L 651.241471 353.210743 
L 666.171565 353.180078 
L 681.101659 353.222409 
L 696.031754 353.194944 
L 710.961848 353.218355 
L 725.891942 353.221873 
L 740.822036 353.2144 
L 755.75213 353.194447 
L 770.682224 353.219985 
L 785.612318 353.22225 
L 800.542412 353.217083 
L 815.472506 353.181827 
L 830.4026 353.197845 
L 845.332694 353.215076 
L 860.262788 353.17654 
L 875.192882 353.218216 
L 890.122976 353.217978 
L 905.05307 353.184669 
L 919.983164 353.137448 
L 934.913258 353.15132 
L 949.843352 353.21752 
" clip-path="url(#padc11de354)" style="fill: none; stroke: #f15c80; stroke-linecap: square"/>
   </g>
   <g id="line2d_25">
    <path d="M 83.897898 109.889455 
L 98.827992 288.914144 
L 113.758086 331.55506 
L 128.68818 348.369671 
L 143.618274 351.999402 
L 158.548368 352.904922 
L 173.478462 353.067531 
L 188.408556 353.17187 
L 203.33865 353.179501 
L 218.268744 353.205914 
L 233.198838 353.197766 
L 248.128932 353.219349 
L 263.059026 353.206133 
L 277.98912 353.221098 
L 292.919214 353.206828 
L 307.849308 353.220323 
L 322.779402 353.215235 
L 337.709496 353.216666 
L 352.639591 353.216507 
L 367.569685 353.218355 
L 382.499779 353.217441 
L 397.429873 353.21607 
L 412.359967 353.22076 
L 427.290061 353.222052 
L 442.220155 353.219607 
L 457.150249 353.219548 
L 472.080343 353.218196 
L 487.010437 353.221138 
L 501.940531 353.220362 
L 516.870625 353.219985 
L 531.800719 353.222151 
L 546.730813 353.220263 
L 561.660907 353.220601 
L 576.591001 353.22082 
L 591.521095 353.221992 
L 606.451189 353.220899 
L 621.381283 353.221297 
L 636.311377 353.220621 
L 651.241471 353.219389 
L 666.171565 353.219746 
L 681.101659 353.221495 
L 696.031754 353.220839 
L 710.961848 353.221515 
L 725.891942 353.220442 
L 740.822036 353.221932 
L 755.75213 353.220959 
L 770.682224 353.221257 
L 785.612318 353.219667 
L 800.542412 353.221893 
L 815.472506 353.220442 
L 830.4026 353.219806 
L 845.332694 353.221157 
L 860.262788 353.220184 
L 875.192882 353.220641 
L 890.122976 353.218455 
L 905.05307 353.219726 
L 919.983164 353.195202 
L 934.913258 353.158336 
L 949.843352 353.213705 
" clip-path="url(#padc11de354)" style="fill: none; stroke: #e4d354; stroke-linecap: square"/>
   </g>
   <g id="line2d_26">
    <path d="M 83.897898 50.3972 
L 98.827992 275.659447 
L 113.758086 328.747875 
L 128.68818 348.631273 
L 143.618274 352.096765 
L 158.548368 352.861458 
L 173.478462 353.088061 
L 188.408556 353.14816 
L 203.33865 353.155951 
L 218.268744 353.206133 
L 233.198838 353.194844 
L 248.128932 353.209789 
L 263.059026 353.205278 
L 277.98912 353.216785 
L 292.919214 353.094858 
L 307.849308 353.219309 
L 322.779402 353.21134 
L 337.709496 353.182204 
L 352.639591 353.214579 
L 367.569685 353.189597 
L 382.499779 353.185821 
L 397.429873 353.208398 
L 412.359967 353.152552 
L 427.290061 353.188723 
L 442.220155 353.212214 
L 457.150249 353.216984 
L 472.080343 353.156149 
L 487.010437 353.173897 
L 501.940531 353.218395 
L 516.870625 353.181628 
L 531.800719 353.212492 
L 546.730813 353.177454 
L 561.660907 353.198342 
L 576.591001 353.023212 
L 591.521095 353.220899 
L 606.451189 353.210942 
L 621.381283 353.206411 
L 636.311377 353.140668 
L 651.241471 353.193075 
L 666.171565 353.124947 
L 681.101659 353.221614 
L 696.031754 353.17662 
L 710.961848 353.214837 
L 725.891942 353.22082 
L 740.822036 353.20812 
L 755.75213 353.173042 
L 770.682224 353.217699 
L 785.612318 353.221157 
L 800.542412 353.211677 
L 815.472506 353.124232 
L 830.4026 353.17179 
L 845.332694 353.208219 
L 860.262788 353.13246 
L 875.192882 353.210584 
L 890.122976 353.214221 
L 905.05307 353.16239 
L 919.983164 353.062424 
L 934.913258 353.145358 
L 949.843352 353.197468 
" clip-path="url(#padc11de354)" style="fill: none; stroke: #2b908f; stroke-linecap: square"/>
   </g>
   <g id="line2d_27">
    <path d="M 83.897898 177.698766 
L 98.827992 310.298428 
L 113.758086 337.232093 
L 128.68818 349.720091 
L 143.618274 352.159368 
L 158.548368 352.974998 
L 173.478462 353.110141 
L 188.408556 353.182661 
L 203.33865 353.187073 
L 218.268744 353.206928 
L 233.198838 353.204245 
L 248.128932 353.220025 
L 263.059026 353.210823 
L 277.98912 353.221873 
L 292.919214 353.211658 
L 307.849308 353.22068 
L 322.779402 353.216765 
L 337.709496 353.218733 
L 352.639591 353.217819 
L 367.569685 353.220025 
L 382.499779 353.218315 
L 397.429873 353.21754 
L 412.359967 353.221813 
L 427.290061 353.222469 
L 442.220155 353.219945 
L 457.150249 353.220362 
L 472.080343 353.219826 
L 487.010437 353.218753 
L 501.940531 353.221475 
L 516.870625 353.219965 
L 531.800719 353.221972 
L 546.730813 353.220382 
L 561.660907 353.220998 
L 576.591001 353.221694 
L 591.521095 353.221694 
L 606.451189 353.220502 
L 621.381283 353.221277 
L 636.311377 353.221197 
L 651.241471 353.219369 
L 666.171565 353.218892 
L 681.101659 353.221754 
L 696.031754 353.220839 
L 710.961848 353.221992 
L 725.891942 353.221217 
L 740.822036 353.221416 
L 755.75213 353.22072 
L 770.682224 353.219905 
L 785.612318 353.220243 
L 800.542412 353.221495 
L 815.472506 353.21913 
L 830.4026 353.219309 
L 845.332694 353.220084 
L 860.262788 353.218594 
L 875.192882 353.21909 
L 890.122976 353.218415 
L 905.05307 353.217441 
L 919.983164 353.170836 
L 934.913258 353.199296 
L 949.843352 353.221217 
" clip-path="url(#padc11de354)" style="fill: none; stroke: #f45b5b; stroke-linecap: square"/>
   </g>
   <g id="line2d_28">
    <path d="M 83.897898 160.714292 
L 98.827992 307.695488 
L 113.758086 335.430474 
L 128.68818 350.147661 
L 143.618274 352.306197 
L 158.548368 352.975097 
L 173.478462 353.127233 
L 188.408556 353.183099 
L 203.33865 353.192241 
L 218.268744 353.213188 
L 233.198838 353.204324 
L 248.128932 353.218912 
L 263.059026 353.210902 
L 277.98912 353.220899 
L 292.919214 353.179839 
L 307.849308 353.22072 
L 322.779402 353.216149 
L 337.709496 353.207822 
L 352.639591 353.218713 
L 367.569685 353.209571 
L 382.499779 353.210863 
L 397.429873 353.216288 
L 412.359967 353.200508 
L 427.290061 353.212333 
L 442.220155 353.219448 
L 457.150249 353.220044 
L 472.080343 353.204404 
L 487.010437 353.210565 
L 501.940531 353.220184 
L 516.870625 353.209054 
L 531.800719 353.219249 
L 546.730813 353.207842 
L 561.660907 353.216109 
L 576.591001 353.168511 
L 591.521095 353.221813 
L 606.451189 353.219508 
L 621.381283 353.218474 
L 636.311377 353.200051 
L 651.241471 353.215394 
L 666.171565 353.194645 
L 681.101659 353.222191 
L 696.031754 353.206868 
L 710.961848 353.220661 
L 725.891942 353.22235 
L 740.822036 353.218415 
L 755.75213 353.20653 
L 770.682224 353.22078 
L 785.612318 353.222072 
L 800.542412 353.220283 
L 815.472506 353.198302 
L 830.4026 353.20808 
L 845.332694 353.217679 
L 860.262788 353.194685 
L 875.192882 353.218474 
L 890.122976 353.219687 
L 905.05307 353.20333 
L 919.983164 353.171651 
L 934.913258 353.155235 
L 949.843352 353.214977 
" clip-path="url(#padc11de354)" style="fill: none; stroke: #91e8e1; stroke-linecap: square"/>
   </g>
   <g id="line2d_29">
    <path d="M 83.897898 193.171683 
L 98.827992 313.176324 
L 113.758086 339.555187 
L 128.68818 350.280618 
L 143.618274 352.411689 
L 158.548368 352.968062 
L 173.478462 353.078164 
L 188.408556 353.152831 
L 203.33865 353.137885 
L 218.268744 353.210406 
L 233.198838 353.171631 
L 248.128932 353.218494 
L 263.059026 353.180595 
L 277.98912 353.221316 
L 292.919214 353.183536 
L 307.849308 353.219945 
L 322.779402 353.209491 
L 337.709496 353.210445 
L 352.639591 353.213645 
L 367.569685 353.215414 
L 382.499779 353.216785 
L 397.429873 353.212592 
L 412.359967 353.221416 
L 427.290061 353.222668 
L 442.220155 353.219667 
L 457.150249 353.220104 
L 472.080343 353.219806 
L 487.010437 353.22229 
L 501.940531 353.221893 
L 516.870625 353.220561 
L 531.800719 353.222091 
L 546.730813 353.221495 
L 561.660907 353.222032 
L 576.591001 353.221714 
L 591.521095 353.221853 
L 606.451189 353.222032 
L 621.381283 353.222091 
L 636.311377 353.221853 
L 651.241471 353.221734 
L 666.171565 353.221972 
L 681.101659 353.222867 
L 696.031754 353.221972 
L 710.961848 353.222509 
L 725.891942 353.221913 
L 740.822036 353.222409 
L 755.75213 353.221098 
L 770.682224 353.221793 
L 785.612318 353.221773 
L 800.542412 353.222091 
L 815.472506 353.221436 
L 830.4026 353.221217 
L 845.332694 353.221992 
L 860.262788 353.220899 
L 875.192882 353.221336 
L 890.122976 353.219687 
L 905.05307 353.218892 
L 919.983164 353.161694 
L 934.913258 353.11662 
L 949.843352 353.216328 
" clip-path="url(#padc11de354)" style="fill: none; stroke: #7cb5ec; stroke-linecap: square"/>
   </g>
   <g id="line2d_30">
    <path d="M 83.897898 170.144672 
L 98.827992 306.909868 
L 113.758086 337.497113 
L 128.68818 350.141261 
L 143.618274 352.38313 
L 158.548368 352.939503 
L 173.478462 353.077707 
L 188.408556 353.144305 
L 203.33865 353.136852 
L 218.268744 353.209253 
L 233.198838 353.171234 
L 248.128932 353.216368 
L 263.059026 353.179482 
L 277.98912 353.219687 
L 292.919214 353.140489 
L 307.849308 353.220144 
L 322.779402 353.206093 
L 337.709496 353.191009 
L 352.639591 353.21132 
L 367.569685 353.197925 
L 382.499779 353.202873 
L 397.429873 353.209809 
L 412.359967 353.189597 
L 427.290061 353.203211 
L 442.220155 353.214659 
L 457.150249 353.219687 
L 472.080343 353.193334 
L 487.010437 353.200906 
L 501.940531 353.218713 
L 516.870625 353.201085 
L 531.800719 353.216487 
L 546.730813 353.199415 
L 561.660907 353.210803 
L 576.591001 353.134825 
L 591.521095 353.219726 
L 606.451189 353.215493 
L 621.381283 353.214182 
L 636.311377 353.185961 
L 651.241471 353.209471 
L 666.171565 353.174513 
L 681.101659 353.221972 
L 696.031754 353.197507 
L 710.961848 353.217063 
L 725.891942 353.221237 
L 740.822036 353.214281 
L 755.75213 353.194884 
L 770.682224 353.218534 
L 785.612318 353.221595 
L 800.542412 353.217202 
L 815.472506 353.174553 
L 830.4026 353.198143 
L 845.332694 353.215275 
L 860.262788 353.179581 
L 875.192882 353.215394 
L 890.122976 353.216249 
L 905.05307 353.179501 
L 919.983164 353.143529 
L 934.913258 353.077687 
L 949.843352 353.209571 
" clip-path="url(#padc11de354)" style="fill: none; stroke: #434348; stroke-linecap: square"/>
   </g>
   <g id="line2d_31">
    <path d="M 83.897898 226.388678 
L 98.827992 321.579576 
L 113.758086 342.217868 
L 128.68818 350.851201 
L 143.618274 352.550588 
L 158.548368 353.054573 
L 173.478462 353.1418 
L 188.408556 353.191724 
L 203.33865 353.189518 
L 218.268744 353.210425 
L 233.198838 353.20494 
L 248.128932 353.221376 
L 263.059026 353.210425 
L 277.98912 353.222191 
L 292.919214 353.211737 
L 307.849308 353.220859 
L 322.779402 353.21911 
L 337.709496 353.218892 
L 352.639591 353.219349 
L 367.569685 353.220362 
L 382.499779 353.220402 
L 397.429873 353.219925 
L 412.359967 353.222231 
L 427.290061 353.222509 
L 442.220155 353.221356 
L 457.150249 353.221614 
L 472.080343 353.221018 
L 487.010437 353.222628 
L 501.940531 353.222091 
L 516.870625 353.221614 
L 531.800719 353.222688 
L 546.730813 353.220979 
L 561.660907 353.221614 
L 576.591001 353.222052 
L 591.521095 353.22227 
L 606.451189 353.222211 
L 621.381283 353.22227 
L 636.311377 353.222231 
L 651.241471 353.221575 
L 666.171565 353.222151 
L 681.101659 353.222648 
L 696.031754 353.221793 
L 710.961848 353.22229 
L 725.891942 353.222111 
L 740.822036 353.222231 
L 755.75213 353.222151 
L 770.682224 353.220323 
L 785.612318 353.221416 
L 800.542412 353.222111 
L 815.472506 353.21911 
L 830.4026 353.220839 
L 845.332694 353.221992 
L 860.262788 353.219687 
L 875.192882 353.219687 
L 890.122976 353.220502 
L 905.05307 353.219051 
L 919.983164 353.183099 
L 934.913258 353.208239 
L 949.843352 353.222867 
" clip-path="url(#padc11de354)" style="fill: none; stroke: #90ed7d; stroke-linecap: square"/>
   </g>
   <g id="line2d_32">
    <path d="M 83.897898 213.679244 
L 98.827992 319.220649 
L 113.758086 341.058438 
L 128.68818 350.984734 
L 143.618274 352.646421 
L 158.548368 353.045988 
L 173.478462 353.141661 
L 188.408556 353.19071 
L 203.33865 353.194785 
L 218.268744 353.214102 
L 233.198838 353.204086 
L 248.128932 353.219985 
L 263.059026 353.210227 
L 277.98912 353.221038 
L 292.919214 353.17336 
L 307.849308 353.221336 
L 322.779402 353.217262 
L 337.709496 353.205318 
L 352.639591 353.218991 
L 367.569685 353.210306 
L 382.499779 353.207385 
L 397.429873 353.217958 
L 412.359967 353.194228 
L 427.290061 353.210883 
L 442.220155 353.218872 
L 457.150249 353.221455 
L 472.080343 353.201323 
L 487.010437 353.210366 
L 501.940531 353.220839 
L 516.870625 353.205676 
L 531.800719 353.219269 
L 546.730813 353.202496 
L 561.660907 353.214321 
L 576.591001 353.159091 
L 591.521095 353.222628 
L 606.451189 353.219389 
L 621.381283 353.217719 
L 636.311377 353.193533 
L 651.241471 353.213029 
L 666.171565 353.191108 
L 681.101659 353.222867 
L 696.031754 353.204344 
L 710.961848 353.220044 
L 725.891942 353.222847 
L 740.822036 353.217481 
L 755.75213 353.203191 
L 770.682224 353.221734 
L 785.612318 353.222787 
L 800.542412 353.219607 
L 815.472506 353.192936 
L 830.4026 353.205596 
L 845.332694 353.217322 
L 860.262788 353.189001 
L 875.192882 353.219289 
L 890.122976 353.219806 
L 905.05307 353.196712 
L 919.983164 353.163602 
L 934.913258 353.164974 
L 949.843352 353.218753 
" clip-path="url(#padc11de354)" style="fill: none; stroke: #f7a35c; stroke-linecap: square"/>
   </g>
   <g id="line2d_33">
    <path d="M 40.600625 353.2239 
L 993.140625 353.2239 
" clip-path="url(#padc11de354)" style="fill: none; stroke: #dedede; stroke-width: 2; stroke-linecap: square"/>
   </g>
   <g id="text_19">
    <!-- Cutadapt: Lengths of Trimmed Sequences (3' end) -->
    <g transform="translate(315.518125 19.3575) scale(0.16 -0.16)">
     <defs>
      <path id="DejaVuSans-61" d="M 2194 1759 
Q 1497 1759 1228 1600 
Q 959 1441 959 1056 
Q 959 750 1161 570 
Q 1363 391 1709 391 
Q 2188 391 2477 730 
Q 2766 1069 2766 1631 
L 2766 1759 
L 2194 1759 
z
M 3341 1997 
L 3341 0 
L 2766 0 
L 2766 531 
Q 2569 213 2275 61 
Q 1981 -91 1556 -91 
Q 1019 -91 701 211 
Q 384 513 384 1019 
Q 384 1609 779 1909 
Q 1175 2209 1959 2209 
L 2766 2209 
L 2766 2266 
Q 2766 2663 2505 2880 
Q 2244 3097 1772 3097 
Q 1472 3097 1187 3025 
Q 903 2953 641 2809 
L 641 3341 
Q 956 3463 1253 3523 
Q 1550 3584 1831 3584 
Q 2591 3584 2966 3190 
Q 3341 2797 3341 1997 
z
" transform="scale(0.015625)"/>
      <path id="DejaVuSans-3a" d="M 750 794 
L 1409 794 
L 1409 0 
L 750 0 
L 750 794 
z
M 750 3309 
L 1409 3309 
L 1409 2516 
L 750 2516 
L 750 3309 
z
" transform="scale(0.015625)"/>
      <path id="DejaVuSans-73" d="M 2834 3397 
L 2834 2853 
Q 2591 2978 2328 3040 
Q 2066 3103 1784 3103 
Q 1356 3103 1142 2972 
Q 928 2841 928 2578 
Q 928 2378 1081 2264 
Q 1234 2150 1697 2047 
L 1894 2003 
Q 2506 1872 2764 1633 
Q 3022 1394 3022 966 
Q 3022 478 2636 193 
Q 2250 -91 1575 -91 
Q 1294 -91 989 -36 
Q 684 19 347 128 
L 347 722 
Q 666 556 975 473 
Q 1284 391 1588 391 
Q 1994 391 2212 530 
Q 2431 669 2431 922 
Q 2431 1156 2273 1281 
Q 2116 1406 1581 1522 
L 1381 1569 
Q 847 1681 609 1914 
Q 372 2147 372 2553 
Q 372 3047 722 3315 
Q 1072 3584 1716 3584 
Q 2034 3584 2315 3537 
Q 2597 3491 2834 3397 
z
" transform="scale(0.015625)"/>
      <path id="DejaVuSans-66" d="M 2375 4863 
L 2375 4384 
L 1825 4384 
Q 1516 4384 1395 4259 
Q 1275 4134 1275 3809 
L 1275 3500 
L 2222 3500 
L 2222 3053 
L 1275 3053 
L 1275 0 
L 697 0 
L 697 3053 
L 147 3053 
L 147 3500 
L 697 3500 
L 697 3744 
Q 697 4328 969 4595 
Q 1241 4863 1831 4863 
L 2375 4863 
z
" transform="scale(0.015625)"/>
      <path id="DejaVuSans-53" d="M 3425 4513 
L 3425 3897 
Q 3066 4069 2747 4153 
Q 2428 4238 2131 4238 
Q 1616 4238 1336 4038 
Q 1056 3838 1056 3469 
Q 1056 3159 1242 3001 
Q 1428 2844 1947 2747 
L 2328 2669 
Q 3034 2534 3370 2195 
Q 3706 1856 3706 1288 
Q 3706 609 3251 259 
Q 2797 -91 1919 -91 
Q 1588 -91 1214 -16 
Q 841 59 441 206 
L 441 856 
Q 825 641 1194 531 
Q 1563 422 1919 422 
Q 2459 422 2753 634 
Q 3047 847 3047 1241 
Q 3047 1584 2836 1778 
Q 2625 1972 2144 2069 
L 1759 2144 
Q 1053 2284 737 2584 
Q 422 2884 422 3419 
Q 422 4038 858 4394 
Q 1294 4750 2059 4750 
Q 2388 4750 2728 4690 
Q 3069 4631 3425 4513 
z
" transform="scale(0.015625)"/>
      <path id="DejaVuSans-71" d="M 947 1747 
Q 947 1113 1208 752 
Q 1469 391 1925 391 
Q 2381 391 2643 752 
Q 2906 1113 2906 1747 
Q 2906 2381 2643 2742 
Q 2381 3103 1925 3103 
Q 1469 3103 1208 2742 
Q 947 2381 947 1747 
z
M 2906 525 
Q 2725 213 2448 61 
Q 2172 -91 1784 -91 
Q 1150 -91 751 415 
Q 353 922 353 1747 
Q 353 2572 751 3078 
Q 1150 3584 1784 3584 
Q 2172 3584 2448 3432 
Q 2725 3281 2906 2969 
L 2906 3500 
L 3481 3500 
L 3481 -1331 
L 2906 -1331 
L 2906 525 
z
" transform="scale(0.015625)"/>
      <path id="DejaVuSans-63" d="M 3122 3366 
L 3122 2828 
Q 2878 2963 2633 3030 
Q 2388 3097 2138 3097 
Q 1578 3097 1268 2742 
Q 959 2388 959 1747 
Q 959 1106 1268 751 
Q 1578 397 2138 397 
Q 2388 397 2633 464 
Q 2878 531 3122 666 
L 3122 134 
Q 2881 22 2623 -34 
Q 2366 -91 2075 -91 
Q 1284 -91 818 406 
Q 353 903 353 1747 
Q 353 2603 823 3093 
Q 1294 3584 2113 3584 
Q 2378 3584 2631 3529 
Q 2884 3475 3122 3366 
z
" transform="scale(0.015625)"/>
      <path id="DejaVuSans-27" d="M 1147 4666 
L 1147 2931 
L 616 2931 
L 616 4666 
L 1147 4666 
z
" transform="scale(0.015625)"/>
     </defs>
     <use xlink:href="#DejaVuSans-43"/>
     <use xlink:href="#DejaVuSans-75" x="69.824219"/>
     <use xlink:href="#DejaVuSans-74" x="133.203125"/>
     <use xlink:href="#DejaVuSans-61" x="172.412109"/>
     <use xlink:href="#DejaVuSans-64" x="233.691406"/>
     <use xlink:href="#DejaVuSans-61" x="297.167969"/>
     <use xlink:href="#DejaVuSans-70" x="358.447266"/>
     <use xlink:href="#DejaVuSans-74" x="421.923828"/>
     <use xlink:href="#DejaVuSans-3a" x="461.132812"/>
     <use xlink:href="#DejaVuSans-20" x="494.824219"/>
     <use xlink:href="#DejaVuSans-4c" x="526.611328"/>
     <use xlink:href="#DejaVuSans-65" x="580.574219"/>
     <use xlink:href="#DejaVuSans-6e" x="642.097656"/>
     <use xlink:href="#DejaVuSans-67" x="705.476562"/>
     <use xlink:href="#DejaVuSans-74" x="768.953125"/>
     <use xlink:href="#DejaVuSans-68" x="808.162109"/>
     <use xlink:href="#DejaVuSans-73" x="871.541016"/>
     <use xlink:href="#DejaVuSans-20" x="923.640625"/>
     <use xlink:href="#DejaVuSans-6f" x="955.427734"/>
     <use xlink:href="#DejaVuSans-66" x="1016.609375"/>
     <use xlink:href="#DejaVuSans-20" x="1051.814453"/>
     <use xlink:href="#DejaVuSans-54" x="1083.601562"/>
     <use xlink:href="#DejaVuSans-72" x="1129.935547"/>
     <use xlink:href="#DejaVuSans-69" x="1171.048828"/>
     <use xlink:href="#DejaVuSans-6d" x="1198.832031"/>
     <use xlink:href="#DejaVuSans-6d" x="1296.244141"/>
     <use xlink:href="#DejaVuSans-65" x="1393.65625"/>
     <use xlink:href="#DejaVuSans-64" x="1455.179688"/>
     <use xlink:href="#DejaVuSans-20" x="1518.65625"/>
     <use xlink:href="#DejaVuSans-53" x="1550.443359"/>
     <use xlink:href="#DejaVuSans-65" x="1613.919922"/>
     <use xlink:href="#DejaVuSans-71" x="1675.443359"/>
     <use xlink:href="#DejaVuSans-75" x="1738.919922"/>
     <use xlink:href="#DejaVuSans-65" x="1802.298828"/>
     <use xlink:href="#DejaVuSans-6e" x="1863.822266"/>
     <use xlink:href="#DejaVuSans-63" x="1927.201172"/>
     <use xlink:href="#DejaVuSans-65" x="1982.181641"/>
     <use xlink:href="#DejaVuSans-73" x="2043.705078"/>
     <use xlink:href="#DejaVuSans-20" x="2095.804688"/>
     <use xlink:href="#DejaVuSans-28" x="2127.591797"/>
     <use xlink:href="#DejaVuSans-33" x="2166.605469"/>
     <use xlink:href="#DejaVuSans-27" x="2230.228516"/>
     <use xlink:href="#DejaVuSans-20" x="2257.71875"/>
     <use xlink:href="#DejaVuSans-65" x="2289.505859"/>
     <use xlink:href="#DejaVuSans-6e" x="2351.029297"/>
     <use xlink:href="#DejaVuSans-64" x="2414.408203"/>
     <use xlink:href="#DejaVuSans-29" x="2477.884766"/>
    </g>
   </g>
  </g>
 </g>
 <defs>
  <clipPath id="padc11de354">
   <rect x="40.600625" y="35.2559" width="952.54" height="317.968"/>
  </clipPath>
 </defs>
</svg>
