<?xml version="1.0" encoding="utf-8" standalone="no"?>
<!DOCTYPE svg PUBLIC "-//W3C//DTD SVG 1.1//EN"
  "http://www.w3.org/Graphics/SVG/1.1/DTD/svg11.dtd">
<svg xmlns:xlink="http://www.w3.org/1999/xlink" width="1000.260625pt" height="330.541644pt" viewBox="0 0 1000.260625 330.541644" xmlns="http://www.w3.org/2000/svg" version="1.1">
 <metadata>
  <rdf:RDF xmlns:dc="http://purl.org/dc/elements/1.1/" xmlns:cc="http://creativecommons.org/ns#" xmlns:rdf="http://www.w3.org/1999/02/22-rdf-syntax-ns#">
   <cc:Work>
    <dc:type rdf:resource="http://purl.org/dc/dcmitype/StillImage"/>
    <dc:date>2026-03-23T21:32:57.365147</dc:date>
    <dc:format>image/svg+xml</dc:format>
    <dc:creator>
     <cc:Agent>
      <dc:title>Matplotlib v3.8.1, https://matplotlib.org/</dc:title>
     </cc:Agent>
    </dc:creator>
   </cc:Work>
  </rdf:RDF>
 </metadata>
 <defs>
  <style type="text/css">*{stroke-linejoin: round; stroke-linecap: butt}</style>
 </defs>
 <g id="figure_1">
  <g id="axes_1">
   <g id="patch_1">
    <path d="M 50.780625 273.99006 
L 993.060625 273.99006 
L 993.060625 31.48286 
L 50.780625 31.48286 
z
" style="fill: #ffffff"/>
   </g>
   <g id="matplotlib.axis_1">
    <g id="xtick_1">
     <g id="text_1">
      <!-- 0 -->
      <g transform="translate(48.235625 287.06881) scale(0.08 -0.08)">
       <defs>
        <path id="DejaVuSans-30" d="M 2034 4250 
Q 1547 4250 1301 3770 
Q 1056 3291 1056 2328 
Q 1056 1369 1301 889 
Q 1547 409 2034 409 
Q 2525 409 2770 889 
Q 3016 1369 3016 2328 
Q 3016 3291 2770 3770 
Q 2525 4250 2034 4250 
z
M 2034 4750 
Q 2819 4750 3233 4129 
Q 3647 3509 3647 2328 
Q 3647 1150 3233 529 
Q 2819 -91 2034 -91 
Q 1250 -91 836 529 
Q 422 1150 422 2328 
Q 422 3509 836 4129 
Q 1250 4750 2034 4750 
z
" transform="scale(0.015625)"/>
       </defs>
       <use xlink:href="#DejaVuSans-30"/>
      </g>
     </g>
    </g>
    <g id="xtick_2">
     <g id="text_2">
      <!-- 200 -->
      <g transform="translate(222.62753 287.06881) scale(0.08 -0.08)">
       <defs>
        <path id="DejaVuSans-32" d="M 1228 531 
L 3431 531 
L 3431 0 
L 469 0 
L 469 531 
Q 828 903 1448 1529 
Q 2069 2156 2228 2338 
Q 2531 2678 2651 2914 
Q 2772 3150 2772 3378 
Q 2772 3750 2511 3984 
Q 2250 4219 1831 4219 
Q 1534 4219 1204 4116 
Q 875 4013 500 3803 
L 500 4441 
Q 881 4594 1212 4672 
Q 1544 4750 1819 4750 
Q 2544 4750 2975 4387 
Q 3406 4025 3406 3419 
Q 3406 3131 3298 2873 
Q 3191 2616 2906 2266 
Q 2828 2175 2409 1742 
Q 1991 1309 1228 531 
z
" transform="scale(0.015625)"/>
       </defs>
       <use xlink:href="#DejaVuSans-32"/>
       <use xlink:href="#DejaVuSans-30" x="63.623047"/>
       <use xlink:href="#DejaVuSans-30" x="127.246094"/>
      </g>
     </g>
    </g>
    <g id="xtick_3">
     <g id="text_3">
      <!-- 400 -->
      <g transform="translate(402.109435 287.06881) scale(0.08 -0.08)">
       <defs>
        <path id="DejaVuSans-34" d="M 2419 4116 
L 825 1625 
L 2419 1625 
L 2419 4116 
z
M 2253 4666 
L 3047 4666 
L 3047 1625 
L 3713 1625 
L 3713 1100 
L 3047 1100 
L 3047 0 
L 2419 0 
L 2419 1100 
L 313 1100 
L 313 1709 
L 2253 4666 
z
" transform="scale(0.015625)"/>
       </defs>
       <use xlink:href="#DejaVuSans-34"/>
       <use xlink:href="#DejaVuSans-30" x="63.623047"/>
       <use xlink:href="#DejaVuSans-30" x="127.246094"/>
      </g>
     </g>
    </g>
    <g id="xtick_4">
     <g id="text_4">
      <!-- 600 -->
      <g transform="translate(581.591339 287.06881) scale(0.08 -0.08)">
       <defs>
        <path id="DejaVuSans-36" d="M 2113 2584 
Q 1688 2584 1439 2293 
Q 1191 2003 1191 1497 
Q 1191 994 1439 701 
Q 1688 409 2113 409 
Q 2538 409 2786 701 
Q 3034 994 3034 1497 
Q 3034 2003 2786 2293 
Q 2538 2584 2113 2584 
z
M 3366 4563 
L 3366 3988 
Q 3128 4100 2886 4159 
Q 2644 4219 2406 4219 
Q 1781 4219 1451 3797 
Q 1122 3375 1075 2522 
Q 1259 2794 1537 2939 
Q 1816 3084 2150 3084 
Q 2853 3084 3261 2657 
Q 3669 2231 3669 1497 
Q 3669 778 3244 343 
Q 2819 -91 2113 -91 
Q 1303 -91 875 529 
Q 447 1150 447 2328 
Q 447 3434 972 4092 
Q 1497 4750 2381 4750 
Q 2619 4750 2861 4703 
Q 3103 4656 3366 4563 
z
" transform="scale(0.015625)"/>
       </defs>
       <use xlink:href="#DejaVuSans-36"/>
       <use xlink:href="#DejaVuSans-30" x="63.623047"/>
       <use xlink:href="#DejaVuSans-30" x="127.246094"/>
      </g>
     </g>
    </g>
    <g id="xtick_5">
     <g id="text_5">
      <!-- 800 -->
      <g transform="translate(761.073244 287.06881) scale(0.08 -0.08)">
       <defs>
        <path id="DejaVuSans-38" d="M 2034 2216 
Q 1584 2216 1326 1975 
Q 1069 1734 1069 1313 
Q 1069 891 1326 650 
Q 1584 409 2034 409 
Q 2484 409 2743 651 
Q 3003 894 3003 1313 
Q 3003 1734 2745 1975 
Q 2488 2216 2034 2216 
z
M 1403 2484 
Q 997 2584 770 2862 
Q 544 3141 544 3541 
Q 544 4100 942 4425 
Q 1341 4750 2034 4750 
Q 2731 4750 3128 4425 
Q 3525 4100 3525 3541 
Q 3525 3141 3298 2862 
Q 3072 2584 2669 2484 
Q 3125 2378 3379 2068 
Q 3634 1759 3634 1313 
Q 3634 634 3220 271 
Q 2806 -91 2034 -91 
Q 1263 -91 848 271 
Q 434 634 434 1313 
Q 434 1759 690 2068 
Q 947 2378 1403 2484 
z
M 1172 3481 
Q 1172 3119 1398 2916 
Q 1625 2713 2034 2713 
Q 2441 2713 2670 2916 
Q 2900 3119 2900 3481 
Q 2900 3844 2670 4047 
Q 2441 4250 2034 4250 
Q 1625 4250 1398 4047 
Q 1172 3844 1172 3481 
z
" transform="scale(0.015625)"/>
       </defs>
       <use xlink:href="#DejaVuSans-38"/>
       <use xlink:href="#DejaVuSans-30" x="63.623047"/>
       <use xlink:href="#DejaVuSans-30" x="127.246094"/>
      </g>
     </g>
    </g>
    <g id="xtick_6">
     <g id="text_6">
      <!-- 1000 -->
      <g transform="translate(938.010149 287.06881) scale(0.08 -0.08)">
       <defs>
        <path id="DejaVuSans-31" d="M 794 531 
L 1825 531 
L 1825 4091 
L 703 3866 
L 703 4441 
L 1819 4666 
L 2450 4666 
L 2450 531 
L 3481 531 
L 3481 0 
L 794 0 
L 794 531 
z
" transform="scale(0.015625)"/>
       </defs>
       <use xlink:href="#DejaVuSans-31"/>
       <use xlink:href="#DejaVuSans-30" x="63.623047"/>
       <use xlink:href="#DejaVuSans-30" x="127.246094"/>
       <use xlink:href="#DejaVuSans-30" x="190.869141"/>
      </g>
     </g>
    </g>
    <g id="text_7">
     <!-- Fragment Length (bp) -->
     <g transform="translate(467.362813 300.330997) scale(0.1 -0.1)">
      <defs>
       <path id="DejaVuSans-46" d="M 628 4666 
L 3309 4666 
L 3309 4134 
L 1259 4134 
L 1259 2759 
L 3109 2759 
L 3109 2228 
L 1259 2228 
L 1259 0 
L 628 0 
L 628 4666 
z
" transform="scale(0.015625)"/>
       <path id="DejaVuSans-72" d="M 2631 2963 
Q 2534 3019 2420 3045 
Q 2306 3072 2169 3072 
Q 1681 3072 1420 2755 
Q 1159 2438 1159 1844 
L 1159 0 
L 581 0 
L 581 3500 
L 1159 3500 
L 1159 2956 
Q 1341 3275 1631 3429 
Q 1922 3584 2338 3584 
Q 2397 3584 2469 3576 
Q 2541 3569 2628 3553 
L 2631 2963 
z
" transform="scale(0.015625)"/>
       <path id="DejaVuSans-61" d="M 2194 1759 
Q 1497 1759 1228 1600 
Q 959 1441 959 1056 
Q 959 750 1161 570 
Q 1363 391 1709 391 
Q 2188 391 2477 730 
Q 2766 1069 2766 1631 
L 2766 1759 
L 2194 1759 
z
M 3341 1997 
L 3341 0 
L 2766 0 
L 2766 531 
Q 2569 213 2275 61 
Q 1981 -91 1556 -91 
Q 1019 -91 701 211 
Q 384 513 384 1019 
Q 384 1609 779 1909 
Q 1175 2209 1959 2209 
L 2766 2209 
L 2766 2266 
Q 2766 2663 2505 2880 
Q 2244 3097 1772 3097 
Q 1472 3097 1187 3025 
Q 903 2953 641 2809 
L 641 3341 
Q 956 3463 1253 3523 
Q 1550 3584 1831 3584 
Q 2591 3584 2966 3190 
Q 3341 2797 3341 1997 
z
" transform="scale(0.015625)"/>
       <path id="DejaVuSans-67" d="M 2906 1791 
Q 2906 2416 2648 2759 
Q 2391 3103 1925 3103 
Q 1463 3103 1205 2759 
Q 947 2416 947 1791 
Q 947 1169 1205 825 
Q 1463 481 1925 481 
Q 2391 481 2648 825 
Q 2906 1169 2906 1791 
z
M 3481 434 
Q 3481 -459 3084 -895 
Q 2688 -1331 1869 -1331 
Q 1566 -1331 1297 -1286 
Q 1028 -1241 775 -1147 
L 775 -588 
Q 1028 -725 1275 -790 
Q 1522 -856 1778 -856 
Q 2344 -856 2625 -561 
Q 2906 -266 2906 331 
L 2906 616 
Q 2728 306 2450 153 
Q 2172 0 1784 0 
Q 1141 0 747 490 
Q 353 981 353 1791 
Q 353 2603 747 3093 
Q 1141 3584 1784 3584 
Q 2172 3584 2450 3431 
Q 2728 3278 2906 2969 
L 2906 3500 
L 3481 3500 
L 3481 434 
z
" transform="scale(0.015625)"/>
       <path id="DejaVuSans-6d" d="M 3328 2828 
Q 3544 3216 3844 3400 
Q 4144 3584 4550 3584 
Q 5097 3584 5394 3201 
Q 5691 2819 5691 2113 
L 5691 0 
L 5113 0 
L 5113 2094 
Q 5113 2597 4934 2840 
Q 4756 3084 4391 3084 
Q 3944 3084 3684 2787 
Q 3425 2491 3425 1978 
L 3425 0 
L 2847 0 
L 2847 2094 
Q 2847 2600 2669 2842 
Q 2491 3084 2119 3084 
Q 1678 3084 1418 2786 
Q 1159 2488 1159 1978 
L 1159 0 
L 581 0 
L 581 3500 
L 1159 3500 
L 1159 2956 
Q 1356 3278 1631 3431 
Q 1906 3584 2284 3584 
Q 2666 3584 2933 3390 
Q 3200 3197 3328 2828 
z
" transform="scale(0.015625)"/>
       <path id="DejaVuSans-65" d="M 3597 1894 
L 3597 1613 
L 953 1613 
Q 991 1019 1311 708 
Q 1631 397 2203 397 
Q 2534 397 2845 478 
Q 3156 559 3463 722 
L 3463 178 
Q 3153 47 2828 -22 
Q 2503 -91 2169 -91 
Q 1331 -91 842 396 
Q 353 884 353 1716 
Q 353 2575 817 3079 
Q 1281 3584 2069 3584 
Q 2775 3584 3186 3129 
Q 3597 2675 3597 1894 
z
M 3022 2063 
Q 3016 2534 2758 2815 
Q 2500 3097 2075 3097 
Q 1594 3097 1305 2825 
Q 1016 2553 972 2059 
L 3022 2063 
z
" transform="scale(0.015625)"/>
       <path id="DejaVuSans-6e" d="M 3513 2113 
L 3513 0 
L 2938 0 
L 2938 2094 
Q 2938 2591 2744 2837 
Q 2550 3084 2163 3084 
Q 1697 3084 1428 2787 
Q 1159 2491 1159 1978 
L 1159 0 
L 581 0 
L 581 3500 
L 1159 3500 
L 1159 2956 
Q 1366 3272 1645 3428 
Q 1925 3584 2291 3584 
Q 2894 3584 3203 3211 
Q 3513 2838 3513 2113 
z
" transform="scale(0.015625)"/>
       <path id="DejaVuSans-74" d="M 1172 4494 
L 1172 3500 
L 2356 3500 
L 2356 3053 
L 1172 3053 
L 1172 1153 
Q 1172 725 1289 603 
Q 1406 481 1766 481 
L 2356 481 
L 2356 0 
L 1766 0 
Q 1100 0 847 248 
Q 594 497 594 1153 
L 594 3053 
L 172 3053 
L 172 3500 
L 594 3500 
L 594 4494 
L 1172 4494 
z
" transform="scale(0.015625)"/>
       <path id="DejaVuSans-20" transform="scale(0.015625)"/>
       <path id="DejaVuSans-4c" d="M 628 4666 
L 1259 4666 
L 1259 531 
L 3531 531 
L 3531 0 
L 628 0 
L 628 4666 
z
" transform="scale(0.015625)"/>
       <path id="DejaVuSans-68" d="M 3513 2113 
L 3513 0 
L 2938 0 
L 2938 2094 
Q 2938 2591 2744 2837 
Q 2550 3084 2163 3084 
Q 1697 3084 1428 2787 
Q 1159 2491 1159 1978 
L 1159 0 
L 581 0 
L 581 4863 
L 1159 4863 
L 1159 2956 
Q 1366 3272 1645 3428 
Q 1925 3584 2291 3584 
Q 2894 3584 3203 3211 
Q 3513 2838 3513 2113 
z
" transform="scale(0.015625)"/>
       <path id="DejaVuSans-28" d="M 1984 4856 
Q 1566 4138 1362 3434 
Q 1159 2731 1159 2009 
Q 1159 1288 1364 580 
Q 1569 -128 1984 -844 
L 1484 -844 
Q 1016 -109 783 600 
Q 550 1309 550 2009 
Q 550 2706 781 3412 
Q 1013 4119 1484 4856 
L 1984 4856 
z
" transform="scale(0.015625)"/>
       <path id="DejaVuSans-62" d="M 3116 1747 
Q 3116 2381 2855 2742 
Q 2594 3103 2138 3103 
Q 1681 3103 1420 2742 
Q 1159 2381 1159 1747 
Q 1159 1113 1420 752 
Q 1681 391 2138 391 
Q 2594 391 2855 752 
Q 3116 1113 3116 1747 
z
M 1159 2969 
Q 1341 3281 1617 3432 
Q 1894 3584 2278 3584 
Q 2916 3584 3314 3078 
Q 3713 2572 3713 1747 
Q 3713 922 3314 415 
Q 2916 -91 2278 -91 
Q 1894 -91 1617 61 
Q 1341 213 1159 525 
L 1159 0 
L 581 0 
L 581 4863 
L 1159 4863 
L 1159 2969 
z
" transform="scale(0.015625)"/>
       <path id="DejaVuSans-70" d="M 1159 525 
L 1159 -1331 
L 581 -1331 
L 581 3500 
L 1159 3500 
L 1159 2969 
Q 1341 3281 1617 3432 
Q 1894 3584 2278 3584 
Q 2916 3584 3314 3078 
Q 3713 2572 3713 1747 
Q 3713 922 3314 415 
Q 2916 -91 2278 -91 
Q 1894 -91 1617 61 
Q 1341 213 1159 525 
z
M 3116 1747 
Q 3116 2381 2855 2742 
Q 2594 3103 2138 3103 
Q 1681 3103 1420 2742 
Q 1159 2381 1159 1747 
Q 1159 1113 1420 752 
Q 1681 391 2138 391 
Q 2594 391 2855 752 
Q 3116 1113 3116 1747 
z
" transform="scale(0.015625)"/>
       <path id="DejaVuSans-29" d="M 513 4856 
L 1013 4856 
Q 1481 4119 1714 3412 
Q 1947 2706 1947 2009 
Q 1947 1309 1714 600 
Q 1481 -109 1013 -844 
L 513 -844 
Q 928 -128 1133 580 
Q 1338 1288 1338 2009 
Q 1338 2731 1133 3434 
Q 928 4138 513 4856 
z
" transform="scale(0.015625)"/>
      </defs>
      <use xlink:href="#DejaVuSans-46"/>
      <use xlink:href="#DejaVuSans-72" x="50.269531"/>
      <use xlink:href="#DejaVuSans-61" x="91.382812"/>
      <use xlink:href="#DejaVuSans-67" x="152.662109"/>
      <use xlink:href="#DejaVuSans-6d" x="216.138672"/>
      <use xlink:href="#DejaVuSans-65" x="313.550781"/>
      <use xlink:href="#DejaVuSans-6e" x="375.074219"/>
      <use xlink:href="#DejaVuSans-74" x="438.453125"/>
      <use xlink:href="#DejaVuSans-20" x="477.662109"/>
      <use xlink:href="#DejaVuSans-4c" x="509.449219"/>
      <use xlink:href="#DejaVuSans-65" x="563.412109"/>
      <use xlink:href="#DejaVuSans-6e" x="624.935547"/>
      <use xlink:href="#DejaVuSans-67" x="688.314453"/>
      <use xlink:href="#DejaVuSans-74" x="751.791016"/>
      <use xlink:href="#DejaVuSans-68" x="791"/>
      <use xlink:href="#DejaVuSans-20" x="854.378906"/>
      <use xlink:href="#DejaVuSans-28" x="886.166016"/>
      <use xlink:href="#DejaVuSans-62" x="925.179688"/>
      <use xlink:href="#DejaVuSans-70" x="988.65625"/>
      <use xlink:href="#DejaVuSans-29" x="1052.132812"/>
     </g>
    </g>
   </g>
   <g id="matplotlib.axis_2">
    <g id="ytick_1">
     <g id="line2d_1">
      <path d="M 50.780625 273.99006 
L 993.060625 273.99006 
" clip-path="url(#p377edd36cb)" style="fill: none; stroke: #dedede; stroke-linecap: square"/>
     </g>
     <g id="text_8">
      <!-- 0.000 -->
      <g transform="translate(20.878125 277.029435) scale(0.08 -0.08)">
       <defs>
        <path id="DejaVuSans-2e" d="M 684 794 
L 1344 794 
L 1344 0 
L 684 0 
L 684 794 
z
" transform="scale(0.015625)"/>
       </defs>
       <use xlink:href="#DejaVuSans-30"/>
       <use xlink:href="#DejaVuSans-2e" x="63.623047"/>
       <use xlink:href="#DejaVuSans-30" x="95.410156"/>
       <use xlink:href="#DejaVuSans-30" x="159.033203"/>
       <use xlink:href="#DejaVuSans-30" x="222.65625"/>
      </g>
     </g>
    </g>
    <g id="ytick_2">
     <g id="line2d_2">
      <path d="M 50.780625 230.185558 
L 993.060625 230.185558 
" clip-path="url(#p377edd36cb)" style="fill: none; stroke: #dedede; stroke-linecap: square"/>
     </g>
     <g id="text_9">
      <!-- 0.002 -->
      <g transform="translate(20.878125 233.224933) scale(0.08 -0.08)">
       <use xlink:href="#DejaVuSans-30"/>
       <use xlink:href="#DejaVuSans-2e" x="63.623047"/>
       <use xlink:href="#DejaVuSans-30" x="95.410156"/>
       <use xlink:href="#DejaVuSans-30" x="159.033203"/>
       <use xlink:href="#DejaVuSans-32" x="222.65625"/>
      </g>
     </g>
    </g>
    <g id="ytick_3">
     <g id="line2d_3">
      <path d="M 50.780625 186.381056 
L 993.060625 186.381056 
" clip-path="url(#p377edd36cb)" style="fill: none; stroke: #dedede; stroke-linecap: square"/>
     </g>
     <g id="text_10">
      <!-- 0.004 -->
      <g transform="translate(20.878125 189.420431) scale(0.08 -0.08)">
       <use xlink:href="#DejaVuSans-30"/>
       <use xlink:href="#DejaVuSans-2e" x="63.623047"/>
       <use xlink:href="#DejaVuSans-30" x="95.410156"/>
       <use xlink:href="#DejaVuSans-30" x="159.033203"/>
       <use xlink:href="#DejaVuSans-34" x="222.65625"/>
      </g>
     </g>
    </g>
    <g id="ytick_4">
     <g id="line2d_4">
      <path d="M 50.780625 142.576553 
L 993.060625 142.576553 
" clip-path="url(#p377edd36cb)" style="fill: none; stroke: #dedede; stroke-linecap: square"/>
     </g>
     <g id="text_11">
      <!-- 0.006 -->
      <g transform="translate(20.878125 145.615928) scale(0.08 -0.08)">
       <use xlink:href="#DejaVuSans-30"/>
       <use xlink:href="#DejaVuSans-2e" x="63.623047"/>
       <use xlink:href="#DejaVuSans-30" x="95.410156"/>
       <use xlink:href="#DejaVuSans-30" x="159.033203"/>
       <use xlink:href="#DejaVuSans-36" x="222.65625"/>
      </g>
     </g>
    </g>
    <g id="ytick_5">
     <g id="line2d_5">
      <path d="M 50.780625 98.772051 
L 993.060625 98.772051 
" clip-path="url(#p377edd36cb)" style="fill: none; stroke: #dedede; stroke-linecap: square"/>
     </g>
     <g id="text_12">
      <!-- 0.008 -->
      <g transform="translate(20.878125 101.811426) scale(0.08 -0.08)">
       <use xlink:href="#DejaVuSans-30"/>
       <use xlink:href="#DejaVuSans-2e" x="63.623047"/>
       <use xlink:href="#DejaVuSans-30" x="95.410156"/>
       <use xlink:href="#DejaVuSans-30" x="159.033203"/>
       <use xlink:href="#DejaVuSans-38" x="222.65625"/>
      </g>
     </g>
    </g>
    <g id="ytick_6">
     <g id="line2d_6">
      <path d="M 50.780625 54.967549 
L 993.060625 54.967549 
" clip-path="url(#p377edd36cb)" style="fill: none; stroke: #dedede; stroke-linecap: square"/>
     </g>
     <g id="text_13">
      <!-- 0.010 -->
      <g transform="translate(20.878125 58.006924) scale(0.08 -0.08)">
       <use xlink:href="#DejaVuSans-30"/>
       <use xlink:href="#DejaVuSans-2e" x="63.623047"/>
       <use xlink:href="#DejaVuSans-30" x="95.410156"/>
       <use xlink:href="#DejaVuSans-31" x="159.033203"/>
       <use xlink:href="#DejaVuSans-30" x="222.65625"/>
      </g>
     </g>
    </g>
    <g id="text_14">
     <!-- Fraction -->
     <g transform="translate(14.798437 172.695835) rotate(-90) scale(0.1 -0.1)">
      <defs>
       <path id="DejaVuSans-63" d="M 3122 3366 
L 3122 2828 
Q 2878 2963 2633 3030 
Q 2388 3097 2138 3097 
Q 1578 3097 1268 2742 
Q 959 2388 959 1747 
Q 959 1106 1268 751 
Q 1578 397 2138 397 
Q 2388 397 2633 464 
Q 2878 531 3122 666 
L 3122 134 
Q 2881 22 2623 -34 
Q 2366 -91 2075 -91 
Q 1284 -91 818 406 
Q 353 903 353 1747 
Q 353 2603 823 3093 
Q 1294 3584 2113 3584 
Q 2378 3584 2631 3529 
Q 2884 3475 3122 3366 
z
" transform="scale(0.015625)"/>
       <path id="DejaVuSans-69" d="M 603 3500 
L 1178 3500 
L 1178 0 
L 603 0 
L 603 3500 
z
M 603 4863 
L 1178 4863 
L 1178 4134 
L 603 4134 
L 603 4863 
z
" transform="scale(0.015625)"/>
       <path id="DejaVuSans-6f" d="M 1959 3097 
Q 1497 3097 1228 2736 
Q 959 2375 959 1747 
Q 959 1119 1226 758 
Q 1494 397 1959 397 
Q 2419 397 2687 759 
Q 2956 1122 2956 1747 
Q 2956 2369 2687 2733 
Q 2419 3097 1959 3097 
z
M 1959 3584 
Q 2709 3584 3137 3096 
Q 3566 2609 3566 1747 
Q 3566 888 3137 398 
Q 2709 -91 1959 -91 
Q 1206 -91 779 398 
Q 353 888 353 1747 
Q 353 2609 779 3096 
Q 1206 3584 1959 3584 
z
" transform="scale(0.015625)"/>
      </defs>
      <use xlink:href="#DejaVuSans-46"/>
      <use xlink:href="#DejaVuSans-72" x="50.269531"/>
      <use xlink:href="#DejaVuSans-61" x="91.382812"/>
      <use xlink:href="#DejaVuSans-63" x="152.662109"/>
      <use xlink:href="#DejaVuSans-74" x="207.642578"/>
      <use xlink:href="#DejaVuSans-69" x="246.851562"/>
      <use xlink:href="#DejaVuSans-6f" x="274.634766"/>
      <use xlink:href="#DejaVuSans-6e" x="335.816406"/>
     </g>
    </g>
   </g>
   <g id="line2d_7">
    <path d="M 50.780625 273.99006 
L 90.266644 273.889185 
L 93.856282 273.828032 
L 101.035558 273.219791 
L 102.830377 272.82083 
L 104.625196 272.28428 
L 106.420015 272.021289 
L 108.214835 271.425416 
L 110.009654 270.585005 
L 111.804473 270.189472 
L 113.599292 269.227722 
L 115.394111 267.552419 
L 117.18893 265.502237 
L 120.778568 259.938736 
L 122.573387 257.235626 
L 124.368206 253.618623 
L 126.163025 247.298006 
L 131.547482 225.744 
L 133.342301 217.676525 
L 135.13712 206.329845 
L 136.931939 196.101056 
L 140.521577 170.291662 
L 142.316396 161.244499 
L 144.111215 153.873296 
L 145.906035 141.619425 
L 147.700854 128.089309 
L 149.495673 118.279948 
L 151.290492 110.043168 
L 154.88013 100.041286 
L 156.674949 91.133422 
L 158.469768 84.513686 
L 160.264587 84.720881 
L 162.059406 81.817518 
L 163.854225 78.077052 
L 165.649044 76.15053 
L 167.443863 73.418224 
L 169.238682 74.368125 
L 171.033501 76.44402 
L 172.82832 78.95818 
L 174.623139 79.36578 
L 176.417958 77.712818 
L 178.212777 81.914107 
L 180.007596 88.121643 
L 181.802415 90.611053 
L 183.597235 89.506304 
L 185.392054 92.555973 
L 187.186873 95.096196 
L 190.776511 100.893284 
L 192.57133 104.731654 
L 194.366149 110.608904 
L 196.160968 114.900431 
L 197.955787 118.65601 
L 199.750606 125.144552 
L 201.545425 126.962438 
L 205.135063 134.293779 
L 206.929882 137.688628 
L 208.724701 141.572116 
L 210.51952 145.775158 
L 212.314339 149.543659 
L 214.109158 150.753102 
L 215.903977 156.924718 
L 217.698796 161.772124 
L 219.493615 164.209407 
L 221.288435 169.454996 
L 223.083254 170.241287 
L 224.878073 172.611767 
L 226.672892 175.43431 
L 230.26253 183.163177 
L 232.057349 185.963818 
L 233.852168 187.55874 
L 235.646987 191.632996 
L 237.441806 194.01618 
L 239.236625 195.763761 
L 241.031444 197.7895 
L 242.826263 200.161076 
L 244.621082 203.851824 
L 246.415901 207.26529 
L 248.21072 208.24673 
L 250.005539 211.032039 
L 251.800358 212.216294 
L 253.595177 215.320719 
L 255.389996 216.201627 
L 257.184815 219.261372 
L 258.979635 222.87371 
L 260.774454 221.982508 
L 262.569273 223.155373 
L 264.364092 225.94572 
L 266.158911 228.418046 
L 267.95373 229.758902 
L 269.748549 231.562552 
L 271.543368 232.964077 
L 273.338187 233.742045 
L 277.825235 238.764231 
L 279.620054 239.854087 
L 281.414873 239.796704 
L 283.209692 241.425136 
L 285.004511 243.610981 
L 286.79933 244.566357 
L 288.594149 244.482033 
L 290.388968 244.948989 
L 292.183787 246.819222 
L 293.978606 247.773284 
L 295.773425 247.815994 
L 297.568244 248.680257 
L 299.363063 249.769237 
L 301.157882 250.515665 
L 304.74752 253.400104 
L 306.542339 254.054981 
L 308.337158 254.289314 
L 313.721615 257.820964 
L 315.516435 257.783862 
L 317.311254 258.343333 
L 319.106073 258.429847 
L 320.900892 258.670881 
L 322.695711 259.142524 
L 324.49053 259.984709 
L 326.285349 260.361253 
L 328.080168 261.04434 
L 329.874987 260.990789 
L 333.464625 262.185382 
L 335.259444 261.879385 
L 337.054263 262.788285 
L 338.849082 263.051441 
L 340.643901 263.769572 
L 342.43872 264.840679 
L 344.233539 264.697307 
L 346.028358 265.076348 
L 347.823177 264.764941 
L 349.617996 265.490125 
L 351.412815 265.626488 
L 355.002454 266.596955 
L 356.797273 266.910311 
L 358.592092 267.394723 
L 363.976549 268.000276 
L 365.771368 268.005598 
L 367.566187 268.314004 
L 369.361006 268.302067 
L 372.950644 268.8984 
L 374.745463 268.889179 
L 376.540282 269.280507 
L 378.335101 269.283069 
L 380.12992 269.55354 
L 381.924739 269.610333 
L 383.719558 269.524454 
L 385.514377 269.639463 
L 387.309196 269.911029 
L 389.104015 270.320995 
L 390.898835 270.179068 
L 392.693654 270.510121 
L 394.488473 270.709147 
L 398.078111 270.585027 
L 399.87293 271.174394 
L 401.667749 270.939668 
L 403.462568 270.988685 
L 405.257387 271.427738 
L 408.847025 271.643234 
L 412.436663 272.009056 
L 414.231482 271.781831 
L 416.026301 271.73956 
L 417.82112 272.047492 
L 419.615939 272.081158 
L 421.410758 271.971689 
L 423.205577 272.239952 
L 425.000396 272.299239 
L 426.795215 272.494463 
L 428.590035 272.409504 
L 430.384854 272.099992 
L 432.179673 272.261718 
L 433.974492 272.646604 
L 435.769311 272.628382 
L 437.56413 272.803072 
L 439.358949 272.637318 
L 442.948587 272.88931 
L 446.538225 272.947134 
L 448.333044 273.028523 
L 450.127863 272.931034 
L 451.922682 273.029535 
L 453.717501 272.995461 
L 455.51232 273.137898 
L 469.870873 273.273745 
L 482.434606 273.487738 
L 486.024244 273.575332 
L 489.613882 273.638991 
L 493.20352 273.545177 
L 494.998339 273.630022 
L 498.587977 273.680154 
L 500.382796 273.709573 
L 502.177615 273.606606 
L 520.125806 273.785049 
L 521.920625 273.688972 
L 525.510263 273.7723 
L 611.661577 273.962845 
L 624.225311 273.935305 
L 636.789044 273.94655 
L 645.763139 273.98457 
L 750.760054 273.988259 
L 788.451254 273.990059 
L 948.190149 273.970586 
L 948.190149 273.970586 
" clip-path="url(#p377edd36cb)" style="fill: none; stroke: #7cb5ec; stroke-linecap: square"/>
   </g>
   <g id="line2d_8">
    <path d="M 50.780625 273.99006 
L 86.677006 273.923693 
L 90.266644 273.79718 
L 92.061463 273.769206 
L 97.44592 273.217747 
L 99.240739 272.74088 
L 101.035558 272.581741 
L 104.625196 271.556961 
L 106.420015 270.791214 
L 110.009654 268.050914 
L 111.804473 267.072212 
L 115.394111 263.086966 
L 117.18893 260.040363 
L 118.983749 256.504004 
L 120.778568 250.978898 
L 122.573387 246.341534 
L 124.368206 241.038123 
L 126.163025 232.892019 
L 129.752663 213.800265 
L 133.342301 192.663716 
L 135.13712 183.722779 
L 136.931939 169.210567 
L 138.726758 152.171491 
L 140.521577 139.990116 
L 142.316396 130.212075 
L 144.111215 123.681481 
L 145.906035 115.315916 
L 147.700854 102.216399 
L 149.495673 94.220763 
L 151.290492 92.505379 
L 154.88013 86.468461 
L 156.674949 75.722998 
L 158.469768 73.315284 
L 160.264587 77.625209 
L 162.059406 78.774858 
L 163.854225 79.092659 
L 167.443863 81.801311 
L 169.238682 85.151698 
L 171.033501 87.569488 
L 172.82832 91.619433 
L 174.623139 95.101234 
L 176.417958 91.981477 
L 178.212777 95.493065 
L 180.007596 102.950124 
L 181.802415 108.324499 
L 183.597235 109.003688 
L 185.392054 111.590124 
L 187.186873 112.120159 
L 188.981692 120.220926 
L 190.776511 126.525927 
L 192.57133 129.927784 
L 194.366149 128.758204 
L 196.160968 131.320329 
L 199.750606 145.024349 
L 201.545425 148.608433 
L 203.340244 150.04544 
L 205.135063 150.605042 
L 206.929882 153.101899 
L 208.724701 158.098241 
L 210.51952 163.722958 
L 212.314339 164.190571 
L 214.109158 164.485375 
L 215.903977 167.905412 
L 217.698796 173.624746 
L 219.493615 176.886649 
L 221.288435 179.065266 
L 223.083254 178.748559 
L 224.878073 182.882828 
L 226.672892 183.94443 
L 232.057349 190.62396 
L 233.852168 192.272104 
L 235.646987 196.058784 
L 237.441806 199.129042 
L 239.236625 200.311982 
L 241.031444 202.459498 
L 242.826263 204.072818 
L 248.21072 210.284515 
L 250.005539 211.964637 
L 251.800358 213.116257 
L 253.595177 213.269354 
L 255.389996 217.083193 
L 257.184815 219.667002 
L 258.979635 219.641157 
L 262.569273 221.830944 
L 264.364092 224.145574 
L 266.158911 227.02353 
L 267.95373 229.089569 
L 269.748549 229.098111 
L 271.543368 230.186653 
L 273.338187 231.094063 
L 276.030415 234.818322 
L 277.825235 236.515089 
L 279.620054 237.251005 
L 281.414873 237.415272 
L 285.004511 240.457495 
L 286.79933 241.711179 
L 288.594149 242.788113 
L 290.388968 243.109857 
L 292.183787 244.731719 
L 293.978606 245.915535 
L 297.568244 247.8909 
L 299.363063 249.418363 
L 301.157882 249.755 
L 302.952701 250.687598 
L 304.74752 250.854712 
L 306.542339 250.864568 
L 308.337158 251.568068 
L 311.926796 254.465517 
L 313.721615 254.982783 
L 315.516435 254.715269 
L 317.311254 255.500223 
L 319.106073 256.417074 
L 320.900892 257.590399 
L 322.695711 257.526751 
L 324.49053 257.760426 
L 326.285349 258.424743 
L 328.080168 259.654336 
L 329.874987 260.003304 
L 331.669806 260.236476 
L 333.464625 260.844395 
L 335.259444 261.947896 
L 337.054263 262.078148 
L 338.849082 262.699734 
L 342.43872 263.072182 
L 344.233539 263.757898 
L 346.028358 263.911827 
L 349.617996 265.08156 
L 351.412815 265.297976 
L 353.207635 265.790843 
L 355.002454 265.755055 
L 356.797273 266.16708 
L 358.592092 266.828309 
L 360.386911 266.797207 
L 362.18173 266.896556 
L 365.771368 267.576599 
L 367.566187 267.543877 
L 369.361006 268.199192 
L 371.155825 268.441037 
L 374.745463 268.389129 
L 376.540282 268.790641 
L 378.335101 269.495368 
L 380.12992 269.833276 
L 381.924739 269.712003 
L 383.719558 269.86372 
L 385.514377 269.787938 
L 387.309196 270.280717 
L 389.104015 270.459154 
L 390.898835 270.270401 
L 392.693654 270.198101 
L 398.078111 271.080981 
L 403.462568 270.956489 
L 407.052206 271.625712 
L 408.847025 271.584842 
L 410.641844 271.700223 
L 412.436663 271.586463 
L 414.231482 271.712511 
L 416.026301 271.645008 
L 419.615939 272.381662 
L 421.410758 272.285215 
L 425.000396 272.586316 
L 426.795215 272.585232 
L 428.590035 272.364006 
L 433.974492 272.493849 
L 435.769311 272.759738 
L 442.948587 273.056093 
L 446.538225 272.988494 
L 448.333044 272.933587 
L 451.922682 273.095795 
L 455.51232 273.025362 
L 462.691596 273.367697 
L 466.281235 273.246095 
L 469.870873 273.42588 
L 475.25533 273.348052 
L 477.050149 273.56326 
L 480.639787 273.566444 
L 482.434606 273.675493 
L 486.024244 273.560213 
L 493.20352 273.771198 
L 494.998339 273.638667 
L 500.382796 273.766258 
L 507.562073 273.728919 
L 511.151711 273.800368 
L 514.741349 273.740004 
L 518.330987 273.876841 
L 534.484358 273.870514 
L 703.197349 273.988021 
L 779.477158 273.969618 
L 795.63053 273.983178 
L 804.604625 273.979832 
L 826.142454 273.988991 
L 840.501006 273.959675 
L 851.26992 273.978464 
L 901.524854 273.977719 
L 910.498949 273.9869 
L 948.190149 273.984777 
L 948.190149 273.984777 
" clip-path="url(#p377edd36cb)" style="fill: none; stroke: #434348; stroke-linecap: square"/>
   </g>
   <g id="line2d_9">
    <path d="M 50.780625 273.99006 
L 88.471825 273.909307 
L 95.651101 273.689649 
L 97.44592 273.477786 
L 101.035558 273.406056 
L 102.830377 273.288456 
L 104.625196 272.997097 
L 106.420015 272.188536 
L 108.214835 271.606832 
L 110.009654 271.351737 
L 111.804473 270.973222 
L 113.599292 270.017999 
L 117.18893 267.605554 
L 118.983749 265.720734 
L 120.778568 262.724484 
L 122.573387 260.320646 
L 124.368206 257.138424 
L 126.163025 253.250928 
L 127.957844 248.309452 
L 129.752663 242.108924 
L 131.547482 236.670157 
L 133.342301 230.209431 
L 135.13712 221.996306 
L 136.931939 211.815702 
L 138.726758 199.547156 
L 140.521577 188.832355 
L 144.111215 165.313937 
L 149.495673 128.780763 
L 151.290492 120.063448 
L 153.085311 113.34559 
L 154.88013 103.455847 
L 156.674949 92.315924 
L 158.469768 85.815117 
L 160.264587 80.842868 
L 162.059406 77.463789 
L 163.854225 74.97416 
L 165.649044 73.536934 
L 167.443863 70.464268 
L 169.238682 68.175482 
L 171.033501 70.48836 
L 172.82832 74.160053 
L 176.417958 71.517328 
L 178.212777 71.279907 
L 180.007596 77.543732 
L 181.802415 85.328887 
L 183.597235 85.423286 
L 185.392054 87.180066 
L 187.186873 88.560126 
L 188.981692 93.668388 
L 192.57133 107.82907 
L 194.366149 107.101258 
L 196.160968 107.016715 
L 197.955787 115.917571 
L 199.750606 121.235876 
L 201.545425 122.926292 
L 203.340244 125.079283 
L 205.135063 130.051313 
L 206.929882 137.327898 
L 208.724701 140.393337 
L 210.51952 144.473945 
L 212.314339 146.811134 
L 215.903977 154.4237 
L 219.493615 163.273743 
L 221.288435 165.711463 
L 223.083254 167.392023 
L 224.878073 169.611597 
L 226.672892 172.535547 
L 228.467711 178.497778 
L 230.26253 183.24093 
L 232.057349 185.340918 
L 233.852168 184.933536 
L 235.646987 190.098306 
L 237.441806 193.506296 
L 239.236625 196.47427 
L 241.031444 198.942216 
L 242.826263 199.446405 
L 244.621082 204.128888 
L 246.415901 206.084102 
L 248.21072 209.34907 
L 250.005539 210.630133 
L 251.800358 211.592299 
L 253.595177 213.778581 
L 255.389996 217.027999 
L 257.184815 218.839754 
L 258.979635 220.192218 
L 260.774454 220.777227 
L 262.569273 221.008296 
L 264.364092 224.38847 
L 266.158911 227.491581 
L 267.95373 228.923988 
L 271.543368 230.67135 
L 273.338187 233.602309 
L 276.030415 234.826426 
L 277.825235 235.114878 
L 279.620054 236.784487 
L 281.414873 237.116087 
L 283.209692 238.901997 
L 285.004511 242.179449 
L 286.79933 243.544398 
L 288.594149 244.186353 
L 290.388968 244.171459 
L 292.183787 244.415231 
L 293.978606 246.785931 
L 297.568244 248.297843 
L 299.363063 248.525189 
L 301.157882 249.738354 
L 302.952701 251.527768 
L 304.74752 252.626845 
L 308.337158 253.69999 
L 310.131977 255.19484 
L 311.926796 255.86759 
L 313.721615 256.12976 
L 315.516435 256.639579 
L 317.311254 256.88208 
L 319.106073 258.477418 
L 320.900892 259.329438 
L 322.695711 258.758862 
L 324.49053 259.552468 
L 326.285349 260.136689 
L 328.080168 260.059396 
L 329.874987 260.522475 
L 331.669806 261.637453 
L 333.464625 261.603089 
L 335.259444 262.357095 
L 337.054263 262.647344 
L 338.849082 262.755519 
L 340.643901 263.876498 
L 342.43872 263.908914 
L 344.233539 264.450951 
L 346.028358 263.988835 
L 347.823177 264.203455 
L 349.617996 265.288515 
L 351.412815 265.632643 
L 355.002454 266.747884 
L 356.797273 266.231516 
L 358.592092 266.299019 
L 360.386911 267.191251 
L 362.18173 267.459619 
L 363.976549 267.256103 
L 365.771368 267.689812 
L 367.566187 268.311354 
L 369.361006 268.429188 
L 371.155825 268.248998 
L 372.950644 268.518089 
L 374.745463 268.975846 
L 376.540282 269.111158 
L 378.335101 268.839855 
L 380.12992 268.705967 
L 381.924739 269.508575 
L 383.719558 269.113589 
L 385.514377 269.186918 
L 387.309196 269.691765 
L 389.104015 270.39474 
L 390.898835 270.269678 
L 396.283292 270.625546 
L 398.078111 270.820235 
L 401.667749 270.956511 
L 403.462568 270.823849 
L 405.257387 271.056692 
L 407.052206 271.668202 
L 408.847025 271.490466 
L 410.641844 271.1717 
L 412.436663 271.643234 
L 416.026301 271.894518 
L 417.82112 272.019801 
L 419.615939 271.928896 
L 421.410758 271.996033 
L 423.205577 272.274947 
L 425.000396 272.406214 
L 426.795215 272.369887 
L 428.590035 272.456403 
L 432.179673 272.129034 
L 437.56413 272.550471 
L 451.922682 273.103251 
L 457.307139 273.003296 
L 459.101958 273.232858 
L 460.896777 273.1755 
L 464.486415 273.379544 
L 466.281235 273.192262 
L 469.870873 273.308615 
L 471.665692 273.370334 
L 475.25533 273.265599 
L 478.844968 273.377568 
L 480.639787 273.425821 
L 482.434606 273.285684 
L 484.229425 273.499467 
L 486.024244 273.596696 
L 491.408701 273.472893 
L 496.793158 273.739825 
L 500.382796 273.647842 
L 502.177615 273.707744 
L 505.767254 273.63506 
L 511.151711 273.713711 
L 512.94653 273.657842 
L 516.536168 273.710353 
L 534.484358 273.831955 
L 556.022187 273.901631 
L 561.406644 273.865216 
L 563.201463 273.832217 
L 566.791101 273.943262 
L 577.560015 273.879689 
L 582.944473 273.934413 
L 590.123749 273.860623 
L 595.508206 273.91803 
L 618.840854 273.904215 
L 626.02013 273.948583 
L 629.609768 273.943552 
L 642.173501 273.966229 
L 948.190149 273.966888 
L 948.190149 273.966888 
" clip-path="url(#p377edd36cb)" style="fill: none; stroke: #90ed7d; stroke-linecap: square"/>
   </g>
   <g id="line2d_10">
    <path d="M 50.780625 273.99006 
L 92.061463 273.894716 
L 93.856282 273.873072 
L 97.44592 273.54277 
L 99.240739 273.505573 
L 101.035558 273.299686 
L 104.625196 272.373223 
L 108.214835 271.928539 
L 110.009654 271.180198 
L 111.804473 270.183755 
L 113.599292 269.553014 
L 117.18893 267.035592 
L 118.983749 264.812316 
L 120.778568 261.837684 
L 122.573387 259.705806 
L 124.368206 256.320747 
L 126.163025 252.13065 
L 127.957844 246.61575 
L 131.547482 231.582483 
L 133.342301 225.548632 
L 135.13712 217.809472 
L 138.726758 194.996963 
L 142.316396 173.225249 
L 144.111215 164.941161 
L 145.906035 154.157588 
L 147.700854 139.669029 
L 149.495673 129.419652 
L 151.290492 123.400037 
L 153.085311 116.804612 
L 154.88013 109.23629 
L 156.674949 97.067618 
L 158.469768 92.124937 
L 162.059406 86.591771 
L 163.854225 81.829346 
L 165.649044 81.040427 
L 167.443863 76.113296 
L 169.238682 75.058703 
L 171.033501 77.350773 
L 172.82832 78.393759 
L 174.623139 77.317482 
L 176.417958 75.921651 
L 178.212777 77.796922 
L 180.007596 83.277084 
L 181.802415 89.243258 
L 183.597235 88.240573 
L 185.392054 87.366673 
L 187.186873 92.138078 
L 188.981692 98.110603 
L 192.57133 105.894006 
L 194.366149 108.943456 
L 196.160968 112.270627 
L 197.955787 116.798918 
L 199.750606 122.235495 
L 201.545425 126.571045 
L 203.340244 127.228332 
L 206.929882 134.855791 
L 210.51952 145.868681 
L 212.314339 149.012092 
L 214.109158 148.447452 
L 215.903977 152.231504 
L 219.493615 163.877588 
L 221.288435 164.378711 
L 223.083254 166.549443 
L 224.878073 168.189703 
L 226.672892 172.236144 
L 228.467711 177.918245 
L 230.26253 179.700431 
L 232.057349 180.773422 
L 233.852168 183.862516 
L 235.646987 188.854915 
L 237.441806 192.339125 
L 239.236625 194.738736 
L 241.031444 195.031788 
L 242.826263 195.732879 
L 244.621082 201.45309 
L 246.415901 204.637458 
L 248.21072 207.592729 
L 250.005539 209.464276 
L 251.800358 209.943059 
L 253.595177 211.039048 
L 255.389996 213.350173 
L 257.184815 216.903814 
L 258.979635 218.156622 
L 260.774454 218.235909 
L 262.569273 220.649099 
L 264.364092 224.568725 
L 266.158911 225.371443 
L 267.95373 226.379166 
L 269.748549 227.69111 
L 271.543368 229.18791 
L 273.338187 232.38542 
L 276.030415 234.907245 
L 279.620054 234.776708 
L 281.414873 236.319064 
L 283.209692 237.71139 
L 285.004511 240.587594 
L 286.79933 241.929326 
L 288.594149 242.799502 
L 292.183787 244.312948 
L 293.978606 246.708178 
L 295.773425 247.189151 
L 297.568244 247.291873 
L 299.363063 248.642147 
L 301.157882 249.347837 
L 302.952701 250.400897 
L 304.74752 251.618882 
L 306.542339 251.992972 
L 310.131977 254.192922 
L 311.926796 254.318685 
L 313.721615 254.98528 
L 315.516435 256.42509 
L 317.311254 256.101813 
L 320.900892 256.780213 
L 322.695711 258.329118 
L 324.49053 259.568391 
L 326.285349 259.762555 
L 328.080168 259.782836 
L 329.874987 260.351835 
L 331.669806 261.097212 
L 333.464625 261.631649 
L 335.259444 261.716126 
L 337.054263 262.021816 
L 338.849082 262.879398 
L 344.233539 263.847916 
L 346.028358 264.921915 
L 349.617996 264.848301 
L 353.207635 265.786988 
L 355.002454 266.284257 
L 356.797273 266.982807 
L 358.592092 266.55545 
L 360.386911 266.855533 
L 362.18173 267.598764 
L 363.976549 267.447201 
L 365.771368 267.570992 
L 371.155825 268.390092 
L 372.950644 268.048308 
L 374.745463 268.056828 
L 376.540282 268.762869 
L 378.335101 269.281711 
L 380.12992 268.890449 
L 383.719558 269.496441 
L 387.309196 269.852331 
L 389.104015 269.802371 
L 390.898835 270.615799 
L 392.693654 270.302641 
L 394.488473 270.569585 
L 399.87293 270.708095 
L 403.462568 271.104219 
L 407.052206 271.233837 
L 408.847025 271.598093 
L 412.436663 271.940268 
L 414.231482 271.807365 
L 416.026301 271.963046 
L 417.82112 271.737216 
L 419.615939 271.744926 
L 423.205577 272.116362 
L 425.000396 272.005727 
L 430.384854 272.634293 
L 432.179673 272.182318 
L 433.974492 272.164584 
L 435.769311 272.70101 
L 439.358949 272.758034 
L 442.948587 272.817873 
L 446.538225 273.085791 
L 448.333044 273.135239 
L 450.127863 272.840411 
L 451.922682 272.899306 
L 453.717501 273.220082 
L 455.51232 273.066352 
L 459.101958 273.242812 
L 460.896777 273.122672 
L 469.870873 273.200151 
L 471.665692 273.283612 
L 473.460511 273.242979 
L 477.050149 273.528663 
L 478.844968 273.479258 
L 480.639787 273.568562 
L 484.229425 273.523862 
L 486.024244 273.630138 
L 487.819063 273.366148 
L 494.998339 273.6916 
L 498.587977 273.75407 
L 503.972435 273.665212 
L 507.562073 273.65865 
L 509.356892 273.765233 
L 521.920625 273.758268 
L 523.715444 273.836895 
L 529.099901 273.683185 
L 530.89472 273.83878 
L 534.484358 273.834442 
L 545.253273 273.801168 
L 548.842911 273.816327 
L 556.022187 273.907867 
L 557.817006 273.799378 
L 561.406644 273.956128 
L 579.354835 273.948397 
L 581.149654 273.960504 
L 582.944473 273.823905 
L 586.534111 273.927832 
L 602.687482 273.929167 
L 611.661577 273.955628 
L 618.840854 273.943038 
L 712.171444 273.987506 
L 727.427406 273.980213 
L 750.760054 273.989325 
L 793.835711 273.969081 
L 806.399444 273.984479 
L 813.57872 273.987181 
L 826.142454 273.985366 
L 865.628473 273.985514 
L 881.781844 273.970474 
L 897.935215 273.984661 
L 903.319673 273.984019 
L 939.216054 273.978842 
L 948.190149 273.982122 
L 948.190149 273.982122 
" clip-path="url(#p377edd36cb)" style="fill: none; stroke: #f7a35c; stroke-linecap: square"/>
   </g>
   <g id="line2d_11">
    <path d="M 50.780625 273.99006 
L 92.061463 273.88386 
L 93.856282 273.855678 
L 97.44592 273.58171 
L 101.035558 273.46717 
L 104.625196 272.656682 
L 106.420015 272.404845 
L 108.214835 271.870997 
L 110.009654 270.948122 
L 111.804473 270.427615 
L 113.599292 269.383425 
L 115.394111 268.153461 
L 117.18893 266.630312 
L 118.983749 264.069457 
L 120.778568 261.951006 
L 122.573387 258.689783 
L 124.368206 254.824429 
L 126.163025 250.198959 
L 127.957844 243.571119 
L 131.547482 227.475811 
L 133.342301 221.11934 
L 135.13712 211.310417 
L 138.726758 184.827529 
L 140.521577 173.59934 
L 142.316396 160.755422 
L 145.906035 139.988145 
L 147.700854 125.50112 
L 149.495673 112.341591 
L 151.290492 103.437669 
L 153.085311 98.020366 
L 154.88013 91.093779 
L 156.674949 82.844077 
L 158.469768 75.795933 
L 160.264587 75.046657 
L 162.059406 72.778459 
L 163.854225 71.103594 
L 167.443863 62.668599 
L 169.238682 65.864138 
L 171.033501 70.688985 
L 172.82832 71.812351 
L 174.623139 74.076825 
L 176.417958 73.621039 
L 178.212777 78.365286 
L 180.007596 82.021209 
L 181.802415 87.309508 
L 183.597235 91.489333 
L 185.392054 92.524215 
L 187.186873 94.534842 
L 188.981692 99.809123 
L 190.776511 107.515211 
L 192.57133 110.632558 
L 194.366149 112.440151 
L 196.160968 115.505152 
L 197.955787 119.255036 
L 199.750606 127.930518 
L 201.545425 131.626304 
L 203.340244 132.602049 
L 205.135063 135.126064 
L 206.929882 142.558374 
L 208.724701 148.349768 
L 210.51952 152.499368 
L 212.314339 156.158796 
L 214.109158 157.767517 
L 217.698796 165.448855 
L 219.493615 169.818135 
L 221.288435 172.209861 
L 223.083254 172.138898 
L 224.878073 172.545842 
L 226.672892 178.566113 
L 230.26253 186.128523 
L 232.057349 187.378922 
L 233.852168 188.806949 
L 235.646987 192.120321 
L 237.441806 196.177494 
L 239.236625 199.829914 
L 241.031444 202.266539 
L 242.826263 202.269387 
L 244.621082 204.793621 
L 246.415901 208.935994 
L 248.21072 210.685984 
L 250.005539 212.030563 
L 253.595177 215.920622 
L 255.389996 217.170802 
L 257.184815 219.782207 
L 258.979635 222.926276 
L 260.774454 223.762723 
L 262.569273 224.248953 
L 264.364092 226.764645 
L 266.158911 228.834627 
L 267.95373 228.954213 
L 269.748549 230.389906 
L 271.543368 231.254388 
L 273.338187 233.019271 
L 276.030415 237.25429 
L 279.620054 238.470303 
L 281.414873 239.717198 
L 283.209692 241.416813 
L 285.004511 242.904852 
L 286.79933 243.994489 
L 288.594149 244.115389 
L 290.388968 245.079965 
L 292.183787 246.311528 
L 293.978606 248.148689 
L 295.773425 248.911544 
L 297.568244 248.621559 
L 299.363063 249.23526 
L 301.157882 251.467099 
L 302.952701 252.235452 
L 304.74752 253.434272 
L 308.337158 254.500955 
L 310.131977 254.733535 
L 311.926796 255.819843 
L 313.721615 255.723889 
L 315.516435 255.881651 
L 319.106073 258.190126 
L 322.695711 258.659908 
L 324.49053 259.508752 
L 331.669806 261.59056 
L 333.464625 262.262105 
L 335.259444 262.687644 
L 337.054263 262.881764 
L 340.643901 263.621359 
L 342.43872 264.393326 
L 346.028358 264.142633 
L 347.823177 264.97816 
L 349.617996 266.377516 
L 351.412815 266.371997 
L 353.207635 266.114887 
L 355.002454 266.257229 
L 356.797273 266.733713 
L 358.592092 266.707627 
L 360.386911 267.488004 
L 363.976549 267.770938 
L 367.566187 268.315603 
L 369.361006 268.869423 
L 378.335101 269.240579 
L 380.12992 269.825916 
L 383.719558 269.840306 
L 389.104015 270.299903 
L 390.898835 270.080311 
L 392.693654 270.461454 
L 394.488473 270.375269 
L 396.283292 270.859746 
L 399.87293 271.308699 
L 401.667749 271.252147 
L 403.462568 271.393329 
L 405.257387 271.200786 
L 407.052206 271.27429 
L 408.847025 271.538541 
L 410.641844 271.331017 
L 412.436663 271.391993 
L 414.231482 271.825826 
L 417.82112 272.006432 
L 432.179673 272.63209 
L 433.974492 272.377789 
L 435.769311 272.723297 
L 437.56413 272.622137 
L 441.153768 272.852109 
L 444.743406 272.749692 
L 446.538225 272.519611 
L 448.333044 272.843659 
L 451.922682 272.897503 
L 457.307139 273.237807 
L 459.101958 273.112143 
L 464.486415 273.26936 
L 466.281235 273.227682 
L 469.870873 273.369885 
L 473.460511 273.371845 
L 475.25533 273.482808 
L 477.050149 273.393933 
L 478.844968 273.42606 
L 480.639787 273.580602 
L 484.229425 273.518964 
L 491.408701 273.761922 
L 494.998339 273.559232 
L 496.793158 273.719602 
L 500.382796 273.687312 
L 511.151711 273.808673 
L 512.94653 273.863361 
L 516.536168 273.726637 
L 523.715444 273.847457 
L 561.406644 273.920615 
L 570.380739 273.911309 
L 629.609768 273.955522 
L 634.994225 273.948679 
L 665.506149 273.981269 
L 672.685425 273.961433 
L 678.069882 273.946192 
L 948.190149 273.989128 
L 948.190149 273.989128 
" clip-path="url(#p377edd36cb)" style="fill: none; stroke: #8085e9; stroke-linecap: square"/>
   </g>
   <g id="line2d_12">
    <path d="M 50.780625 273.99006 
L 86.677006 273.9567 
L 88.471825 273.87774 
L 92.061463 273.890199 
L 97.44592 273.573048 
L 101.035558 273.148779 
L 102.830377 272.669013 
L 104.625196 272.388874 
L 110.009654 270.558853 
L 111.804473 270.319243 
L 113.599292 269.383272 
L 117.18893 265.906552 
L 118.983749 263.189381 
L 120.778568 261.068236 
L 122.573387 257.565649 
L 124.368206 252.627656 
L 126.163025 248.568555 
L 127.957844 242.251508 
L 131.547482 226.121157 
L 133.342301 219.131492 
L 135.13712 209.176699 
L 138.726758 182.776602 
L 140.521577 171.004361 
L 145.906035 139.342248 
L 147.700854 122.311057 
L 149.495673 111.861712 
L 151.290492 105.837936 
L 153.085311 98.698021 
L 154.88013 92.443834 
L 156.674949 80.962455 
L 158.469768 73.09648 
L 160.264587 70.299344 
L 162.059406 69.840272 
L 163.854225 70.32256 
L 165.649044 64.971183 
L 167.443863 61.707309 
L 169.238682 65.248465 
L 171.033501 72.81876 
L 172.82832 75.594651 
L 174.623139 75.306198 
L 176.417958 72.927833 
L 178.212777 78.657462 
L 180.007596 85.162649 
L 181.802415 88.213414 
L 183.597235 90.828324 
L 185.392054 88.748924 
L 187.186873 93.337226 
L 188.981692 102.313207 
L 190.776511 106.03659 
L 192.57133 109.370769 
L 194.366149 109.134663 
L 196.160968 113.991925 
L 197.955787 123.181015 
L 199.750606 129.408263 
L 201.545425 133.424698 
L 203.340244 134.269248 
L 205.135063 136.809472 
L 206.929882 141.994829 
L 208.724701 146.34155 
L 210.51952 151.191585 
L 212.314339 153.485626 
L 214.109158 156.450534 
L 215.903977 162.474748 
L 217.698796 166.06847 
L 219.493615 170.518131 
L 221.288435 173.829751 
L 223.083254 172.450129 
L 224.878073 174.846892 
L 226.672892 181.064065 
L 228.467711 183.447687 
L 230.26253 186.135093 
L 232.057349 186.970007 
L 233.852168 189.171402 
L 237.441806 197.8298 
L 239.236625 200.668551 
L 241.031444 201.828494 
L 242.826263 202.194262 
L 244.621082 205.151285 
L 246.415901 209.170348 
L 248.21072 211.987634 
L 250.005539 212.742824 
L 251.800358 212.755746 
L 253.595177 215.406576 
L 255.389996 220.265809 
L 257.184815 222.371054 
L 260.774454 223.022865 
L 262.569273 224.522512 
L 264.364092 226.808669 
L 266.158911 228.671455 
L 267.95373 231.383611 
L 269.748549 232.15019 
L 271.543368 233.3443 
L 276.030415 238.508851 
L 277.825235 238.994862 
L 279.620054 239.351212 
L 281.414873 240.696448 
L 283.209692 243.457665 
L 285.004511 243.557758 
L 286.79933 244.714416 
L 288.594149 244.2295 
L 290.388968 245.367541 
L 292.183787 247.145347 
L 293.978606 247.271723 
L 295.773425 248.303319 
L 299.363063 251.084467 
L 301.157882 251.792128 
L 304.74752 252.74803 
L 306.542339 253.691557 
L 308.337158 254.075986 
L 310.131977 255.051052 
L 311.926796 256.229963 
L 313.721615 255.820763 
L 315.516435 256.570389 
L 317.311254 256.657297 
L 319.106073 257.659391 
L 320.900892 258.484777 
L 322.695711 258.88215 
L 324.49053 259.819566 
L 326.285349 260.35569 
L 333.464625 261.756711 
L 335.259444 262.772099 
L 338.849082 262.917968 
L 340.643901 263.915331 
L 342.43872 264.193314 
L 344.233539 263.994223 
L 346.028358 264.918805 
L 347.823177 265.256494 
L 349.617996 265.16492 
L 351.412815 265.824025 
L 353.207635 266.084377 
L 355.002454 266.725631 
L 356.797273 267.14565 
L 360.386911 267.743538 
L 362.18173 267.780005 
L 363.976549 268.285093 
L 369.361006 268.605392 
L 371.155825 269.132907 
L 372.950644 269.390784 
L 374.745463 269.041268 
L 376.540282 269.030054 
L 378.335101 269.243645 
L 380.12992 269.60201 
L 381.924739 269.662241 
L 385.514377 269.519044 
L 389.104015 270.60303 
L 390.898835 270.76399 
L 392.693654 270.267225 
L 394.488473 270.661947 
L 396.283292 270.586888 
L 399.87293 270.955481 
L 403.462568 271.336734 
L 405.257387 271.381721 
L 407.052206 271.662705 
L 408.847025 271.724163 
L 410.641844 271.65655 
L 414.231482 271.773246 
L 416.026301 271.766719 
L 417.82112 271.988385 
L 419.615939 272.064204 
L 421.410758 271.988131 
L 425.000396 272.074883 
L 426.795215 272.399797 
L 430.384854 272.293074 
L 432.179673 272.362797 
L 433.974492 272.642776 
L 435.769311 272.801629 
L 439.358949 272.555211 
L 441.153768 272.680954 
L 442.948587 272.6206 
L 444.743406 272.9285 
L 453.717501 273.120346 
L 455.51232 273.024002 
L 462.691596 273.479087 
L 464.486415 273.298744 
L 475.25533 273.444558 
L 478.844968 273.513485 
L 489.613882 273.594168 
L 491.408701 273.700681 
L 494.998339 273.669006 
L 498.587977 273.80115 
L 502.177615 273.572559 
L 503.972435 273.720708 
L 509.356892 273.74481 
L 512.94653 273.74693 
L 518.330987 273.797375 
L 530.89472 273.808466 
L 536.279177 273.882659 
L 550.63773 273.840221 
L 554.227368 273.891554 
L 563.201463 273.899684 
L 566.791101 273.929302 
L 597.303025 273.958335 
L 600.892663 273.912104 
L 606.27712 273.92594 
L 631.404587 273.967564 
L 652.942415 273.965631 
L 663.71133 273.98081 
L 721.145539 273.978983 
L 752.554873 273.984377 
L 784.861615 273.978463 
L 793.835711 273.97541 
L 804.604625 273.963716 
L 808.194263 273.979649 
L 835.116549 273.985905 
L 840.501006 273.961268 
L 853.064739 273.989972 
L 910.498949 273.98784 
L 948.190149 273.988837 
L 948.190149 273.988837 
" clip-path="url(#p377edd36cb)" style="fill: none; stroke: #f15c80; stroke-linecap: square"/>
   </g>
   <g id="line2d_13">
    <path d="M 50.780625 273.99006 
L 81.292549 273.897747 
L 84.882187 273.798934 
L 86.677006 273.669935 
L 88.471825 273.413144 
L 90.266644 273.031204 
L 92.061463 273.071775 
L 93.856282 272.6784 
L 97.44592 271.386277 
L 101.035558 269.590708 
L 102.830377 268.448462 
L 104.625196 267.054756 
L 106.420015 265.185552 
L 108.214835 262.975987 
L 110.009654 260.988599 
L 113.599292 256.406451 
L 115.394111 253.792242 
L 117.18893 249.228032 
L 120.778568 239.086195 
L 122.573387 234.766633 
L 124.368206 229.472859 
L 126.163025 223.637442 
L 127.957844 212.284629 
L 129.752663 202.628364 
L 131.547482 195.056537 
L 133.342301 189.380131 
L 135.13712 181.573949 
L 138.726758 150.735799 
L 140.521577 141.391203 
L 142.316396 137.554367 
L 144.111215 131.844231 
L 145.906035 120.496018 
L 147.700854 108.278942 
L 149.495673 103.289828 
L 151.290492 103.414014 
L 153.085311 100.677766 
L 154.88013 93.679778 
L 156.674949 83.298768 
L 158.469768 80.875284 
L 160.264587 87.644612 
L 162.059406 90.733049 
L 163.854225 86.16621 
L 165.649044 80.600629 
L 167.443863 80.18602 
L 169.238682 85.421315 
L 171.033501 93.719421 
L 172.82832 96.419092 
L 174.623139 92.191958 
L 176.417958 90.703262 
L 178.212777 97.819084 
L 180.007596 107.504698 
L 181.802415 111.667877 
L 183.597235 109.245269 
L 185.392054 104.619076 
L 187.186873 111.596914 
L 188.981692 120.54924 
L 190.776511 126.425395 
L 192.57133 128.078796 
L 194.366149 124.700374 
L 196.160968 125.90675 
L 197.955787 134.378103 
L 199.750606 141.376091 
L 201.545425 143.983773 
L 203.340244 140.781226 
L 205.135063 143.18894 
L 208.724701 157.030725 
L 210.51952 160.440905 
L 212.314339 158.927679 
L 214.109158 159.777705 
L 215.903977 162.671212 
L 217.698796 169.847703 
L 219.493615 174.729496 
L 221.288435 171.226888 
L 223.083254 171.192063 
L 224.878073 175.923826 
L 226.672892 182.250948 
L 228.467711 186.537219 
L 230.26253 184.889293 
L 232.057349 183.564426 
L 233.852168 186.692067 
L 235.646987 192.74585 
L 237.441806 198.341875 
L 239.236625 199.023254 
L 241.031444 197.901202 
L 242.826263 199.229792 
L 244.621082 202.044669 
L 248.21072 208.604832 
L 250.005539 208.738654 
L 251.800358 209.44544 
L 255.389996 216.638577 
L 257.184815 219.565813 
L 258.979635 220.098476 
L 260.774454 218.754335 
L 262.569273 220.152137 
L 264.364092 225.127671 
L 266.158911 228.731029 
L 267.95373 230.457803 
L 269.748549 228.602463 
L 271.543368 230.605424 
L 273.338187 235.324483 
L 276.030415 238.299028 
L 277.825235 237.550628 
L 279.620054 237.098127 
L 281.414873 238.506442 
L 283.209692 242.102354 
L 285.004511 243.94499 
L 286.79933 245.502021 
L 288.594149 243.806787 
L 290.388968 243.796055 
L 292.183787 247.557547 
L 293.978606 249.630376 
L 295.773425 250.31745 
L 297.568244 249.556128 
L 299.363063 249.912039 
L 301.157882 252.074887 
L 302.952701 254.475089 
L 306.542339 254.594938 
L 308.337158 255.640923 
L 310.131977 255.962777 
L 311.926796 257.450969 
L 313.721615 258.718365 
L 315.516435 258.024764 
L 317.311254 258.069686 
L 319.106073 258.345676 
L 322.695711 261.801085 
L 324.49053 261.436215 
L 326.285349 261.861207 
L 328.080168 261.927746 
L 331.669806 263.566625 
L 337.054263 264.391048 
L 340.643901 265.350323 
L 342.43872 266.196516 
L 344.233539 265.799538 
L 346.028358 266.073075 
L 351.412815 268.068239 
L 355.002454 267.955158 
L 356.797273 268.505693 
L 360.386911 269.399151 
L 362.18173 268.710873 
L 363.976549 268.998887 
L 365.771368 269.507852 
L 369.361006 270.267685 
L 371.155825 269.865428 
L 372.950644 269.688874 
L 378.335101 270.957233 
L 380.12992 271.197304 
L 381.924739 270.992496 
L 385.514377 271.375742 
L 387.309196 271.198509 
L 389.104015 271.483983 
L 390.898835 271.516726 
L 392.693654 271.40082 
L 394.488473 271.555822 
L 398.078111 272.327664 
L 399.87293 272.147553 
L 401.667749 272.207526 
L 403.462568 272.128581 
L 407.052206 272.610507 
L 408.847025 272.412553 
L 416.026301 272.89751 
L 417.82112 273.071808 
L 421.410758 272.717809 
L 423.205577 273.027524 
L 426.795215 273.07482 
L 428.590035 272.84613 
L 430.384854 273.169516 
L 432.179673 273.150801 
L 433.974492 272.978183 
L 435.769311 273.169218 
L 441.153768 273.325872 
L 444.743406 273.666603 
L 446.538225 273.619242 
L 448.333044 273.374872 
L 450.127863 273.561183 
L 455.51232 273.623013 
L 459.101958 273.465501 
L 464.486415 273.715141 
L 471.665692 273.724353 
L 514.741349 273.918663 
L 516.536168 273.825887 
L 520.125806 273.943574 
L 557.817006 273.949266 
L 564.996282 273.968452 
L 608.071939 273.97557 
L 609.866758 273.876535 
L 615.251215 273.972241 
L 622.430492 273.943017 
L 629.609768 273.969365 
L 647.557958 273.965984 
L 678.069882 273.943752 
L 708.581806 273.946374 
L 715.761082 273.955607 
L 734.606682 273.967996 
L 801.014987 273.98378 
L 811.783901 273.974209 
L 826.142454 273.977229 
L 847.680282 273.988019 
L 948.190149 273.974118 
L 948.190149 273.974118 
" clip-path="url(#p377edd36cb)" style="fill: none; stroke: #e4d354; stroke-linecap: square"/>
   </g>
   <g id="line2d_14">
    <path d="M 50.780625 273.99006 
L 84.882187 273.897885 
L 93.856282 273.373796 
L 95.651101 273.09366 
L 97.44592 272.538462 
L 101.035558 271.805258 
L 102.830377 271.073907 
L 104.625196 269.935099 
L 106.420015 268.221401 
L 110.009654 265.739789 
L 113.599292 262.811414 
L 115.394111 259.935692 
L 117.18893 256.422111 
L 118.983749 251.653268 
L 120.778568 248.642147 
L 122.573387 245.039883 
L 124.368206 239.797142 
L 126.163025 232.54005 
L 133.342301 197.439721 
L 135.13712 190.362009 
L 136.931939 175.268948 
L 138.726758 157.247776 
L 140.521577 146.523558 
L 142.316396 141.53094 
L 144.111215 132.331994 
L 145.906035 113.848685 
L 147.700854 96.8521 
L 151.290492 81.912574 
L 153.085311 80.441838 
L 154.88013 72.649017 
L 156.674949 57.315908 
L 158.469768 49.597117 
L 160.264587 49.92346 
L 162.059406 56.444856 
L 163.854225 54.711292 
L 165.649044 44.382191 
L 167.443863 43.030822 
L 169.238682 50.103059 
L 171.033501 60.148745 
L 172.82832 64.604977 
L 174.623139 59.923152 
L 176.417958 53.292027 
L 178.212777 62.570915 
L 180.007596 80.597563 
L 181.802415 87.795738 
L 183.597235 84.649918 
L 185.392054 80.186239 
L 187.186873 88.220423 
L 188.981692 105.271982 
L 190.776511 114.592485 
L 192.57133 115.09996 
L 194.366149 110.33863 
L 196.160968 112.137024 
L 197.955787 125.230627 
L 199.750606 137.184 
L 201.545425 141.752153 
L 203.340244 138.580269 
L 205.135063 139.156517 
L 206.929882 147.101558 
L 208.724701 157.463951 
L 210.51952 162.941704 
L 212.314339 159.486843 
L 214.109158 159.315787 
L 215.903977 168.515608 
L 217.698796 179.993264 
L 219.493615 182.796752 
L 221.288435 179.861412 
L 223.083254 179.271804 
L 224.878073 185.001871 
L 228.467711 197.911934 
L 230.26253 198.583457 
L 232.057349 197.236468 
L 233.852168 199.143278 
L 237.441806 211.404815 
L 239.236625 211.516079 
L 241.031444 209.13399 
L 242.826263 209.282925 
L 244.621082 215.935953 
L 246.415901 220.474976 
L 248.21072 223.706872 
L 250.005539 221.946588 
L 251.800358 219.693065 
L 253.595177 224.934712 
L 255.389996 228.777681 
L 257.184815 230.534023 
L 258.979635 230.025452 
L 260.774454 228.67474 
L 262.569273 230.229581 
L 264.364092 235.573512 
L 266.158911 239.665947 
L 267.95373 239.267983 
L 269.748549 237.422719 
L 271.543368 238.611573 
L 273.338187 242.156671 
L 276.030415 245.45975 
L 277.825235 245.044045 
L 279.620054 244.199056 
L 281.414873 245.999859 
L 283.209692 248.914611 
L 285.004511 251.082934 
L 286.79933 250.991163 
L 288.594149 250.352932 
L 290.388968 251.082277 
L 292.183787 253.12085 
L 293.978606 254.676743 
L 295.773425 255.12541 
L 297.568244 253.971643 
L 299.363063 254.808353 
L 301.157882 257.173446 
L 302.952701 258.906462 
L 306.542339 258.908936 
L 308.337158 259.084395 
L 310.131977 259.438971 
L 311.926796 260.99633 
L 313.721615 261.856651 
L 315.516435 262.042229 
L 317.311254 261.77765 
L 319.106073 261.957817 
L 322.695711 264.430253 
L 324.49053 264.174741 
L 326.285349 264.171303 
L 328.080168 264.578969 
L 329.874987 265.993482 
L 331.669806 266.688594 
L 333.464625 266.1687 
L 335.259444 266.138497 
L 337.054263 266.53495 
L 338.849082 267.494772 
L 340.643901 268.238157 
L 342.43872 268.138742 
L 344.233539 268.220744 
L 346.028358 267.778231 
L 347.823177 268.54884 
L 349.617996 269.467377 
L 351.412815 269.419849 
L 356.797273 269.783492 
L 358.592092 270.248761 
L 360.386911 270.555897 
L 362.18173 270.519385 
L 363.976549 270.186208 
L 371.155825 271.368689 
L 374.745463 271.137598 
L 376.540282 271.475725 
L 381.924739 271.973281 
L 383.719558 271.854816 
L 387.309196 271.957014 
L 389.104015 272.352486 
L 390.898835 272.237613 
L 394.488473 272.327401 
L 396.283292 272.690928 
L 398.078111 272.824865 
L 401.667749 272.40202 
L 403.462568 272.940912 
L 405.257387 273.010556 
L 407.052206 272.769975 
L 412.436663 272.962001 
L 414.231482 272.977374 
L 416.026301 273.256341 
L 423.205577 273.224914 
L 425.000396 273.410575 
L 432.179673 273.300586 
L 433.974492 273.327753 
L 437.56413 273.54523 
L 441.153768 273.548454 
L 446.538225 273.657238 
L 450.127863 273.611048 
L 455.51232 273.717583 
L 471.665692 273.80624 
L 473.460511 273.900708 
L 480.639787 273.793094 
L 484.229425 273.90363 
L 487.819063 273.835725 
L 493.20352 273.923152 
L 511.151711 273.910304 
L 512.94653 273.846017 
L 516.536168 273.936763 
L 525.510263 273.88178 
L 529.099901 273.971555 
L 564.996282 273.979073 
L 608.071939 273.970772 
L 622.430492 273.975248 
L 640.378682 273.984898 
L 649.352777 273.9885 
L 815.373539 273.982023 
L 822.552815 273.989872 
L 948.190149 273.981696 
L 948.190149 273.981696 
" clip-path="url(#p377edd36cb)" style="fill: none; stroke: #2b908f; stroke-linecap: square"/>
   </g>
   <g id="line2d_15">
    <path d="M 50.780625 273.99006 
L 84.882187 273.892006 
L 86.677006 273.790734 
L 92.061463 273.772605 
L 97.44592 273.326039 
L 99.240739 272.998716 
L 102.830377 272.562219 
L 104.625196 272.02533 
L 106.420015 271.025108 
L 110.009654 269.501106 
L 111.804473 268.714049 
L 115.394111 265.182333 
L 117.18893 262.889145 
L 118.983749 259.846024 
L 120.778568 257.690952 
L 122.573387 254.360211 
L 124.368206 249.61614 
L 126.163025 243.844459 
L 131.547482 224.124767 
L 135.13712 208.967971 
L 136.931939 197.13528 
L 138.726758 187.290437 
L 140.521577 178.377316 
L 142.316396 167.200597 
L 144.111215 159.280962 
L 145.906035 150.495969 
L 147.700854 135.227472 
L 149.495673 128.250072 
L 151.290492 122.706393 
L 153.085311 119.011264 
L 154.88013 112.754667 
L 156.674949 103.682098 
L 158.469768 97.530412 
L 160.264587 95.902418 
L 162.059406 94.818914 
L 163.854225 94.287565 
L 165.649044 88.902021 
L 167.443863 88.898078 
L 169.238682 89.270416 
L 171.033501 91.375661 
L 172.82832 92.33936 
L 174.623139 92.38185 
L 176.417958 93.214136 
L 178.212777 96.667464 
L 180.007596 101.200135 
L 181.802415 102.33949 
L 183.597235 102.9107 
L 185.392054 103.896521 
L 187.186873 108.133073 
L 188.981692 114.035292 
L 190.776511 115.198301 
L 192.57133 115.167638 
L 194.366149 118.244247 
L 196.160968 118.543432 
L 197.955787 123.962049 
L 199.750606 127.456553 
L 201.545425 129.470246 
L 203.340244 132.779895 
L 205.135063 135.176659 
L 206.929882 139.576383 
L 208.724701 141.722146 
L 210.51952 144.957766 
L 212.314339 146.769082 
L 214.109158 147.920922 
L 215.903977 152.695393 
L 217.698796 156.714237 
L 219.493615 158.514164 
L 221.288435 161.605667 
L 223.083254 160.785428 
L 224.878073 163.770267 
L 226.672892 167.035235 
L 228.467711 171.838399 
L 230.26253 174.043736 
L 232.057349 175.778833 
L 233.852168 178.590863 
L 235.646987 183.197125 
L 239.236625 186.98512 
L 241.031444 187.631674 
L 244.621082 192.30211 
L 246.415901 195.504438 
L 248.21072 199.768149 
L 250.005539 200.664171 
L 251.800358 202.332246 
L 253.595177 205.245464 
L 255.389996 207.547391 
L 257.184815 208.376829 
L 262.569273 213.090194 
L 264.364092 216.92703 
L 266.158911 220.339182 
L 267.95373 222.144146 
L 269.748549 223.621234 
L 271.543368 225.296537 
L 273.338187 226.689082 
L 276.030415 229.866004 
L 277.825235 230.499198 
L 279.620054 231.597377 
L 281.414873 233.522804 
L 283.209692 236.364621 
L 285.004511 238.502719 
L 286.79933 239.16789 
L 288.594149 239.577462 
L 290.388968 241.562025 
L 292.183787 243.159575 
L 295.773425 244.471082 
L 297.568244 244.900585 
L 299.363063 246.798634 
L 301.157882 248.485327 
L 302.952701 249.199559 
L 304.74752 249.009447 
L 306.542339 250.640508 
L 308.337158 252.114486 
L 311.926796 254.22076 
L 313.721615 255.003502 
L 315.516435 255.218977 
L 320.900892 257.195633 
L 322.695711 258.345085 
L 324.49053 258.749992 
L 326.285349 259.416937 
L 329.874987 261.051568 
L 331.669806 261.350446 
L 333.464625 261.958803 
L 335.259444 261.917933 
L 338.849082 263.317356 
L 340.643901 264.149992 
L 349.617996 266.125071 
L 353.207635 266.796638 
L 355.002454 266.900805 
L 356.797273 267.246795 
L 358.592092 267.806178 
L 362.18173 267.98696 
L 363.976549 268.281238 
L 365.771368 268.344864 
L 367.566187 268.844345 
L 371.155825 269.1775 
L 372.950644 268.995646 
L 374.745463 269.189831 
L 376.540282 269.534003 
L 378.335101 270.077924 
L 380.12992 270.128146 
L 381.924739 270.011472 
L 383.719558 270.282666 
L 385.514377 270.696881 
L 389.104015 270.853154 
L 392.693654 271.082689 
L 394.488473 271.393942 
L 396.283292 271.554749 
L 398.078111 271.469593 
L 401.667749 271.781722 
L 403.462568 271.763324 
L 405.257387 272.034261 
L 407.052206 272.134416 
L 408.847025 272.016621 
L 414.231482 272.461184 
L 426.795215 272.831328 
L 428.590035 272.559617 
L 437.56413 273.368899 
L 439.358949 273.147888 
L 441.153768 273.151068 
L 444.743406 273.334618 
L 453.717501 273.469071 
L 459.101958 273.583994 
L 464.486415 273.68377 
L 468.076054 273.540402 
L 486.024244 273.775647 
L 487.819063 273.71794 
L 491.408701 273.825805 
L 505.767254 273.835938 
L 509.356892 273.894964 
L 520.125806 273.897885 
L 525.510263 273.938802 
L 529.099901 273.875371 
L 539.868815 273.976633 
L 609.866758 273.963959 
L 629.609768 273.981338 
L 636.789044 273.970456 
L 649.352777 273.981717 
L 672.685425 273.974258 
L 685.249158 273.987399 
L 699.607711 273.98486 
L 876.397387 273.980339 
L 899.730035 273.987765 
L 948.190149 273.989817 
L 948.190149 273.989817 
" clip-path="url(#p377edd36cb)" style="fill: none; stroke: #f45b5b; stroke-linecap: square"/>
   </g>
   <g id="line2d_16">
    <path d="M 50.780625 273.99006 
L 86.677006 273.90811 
L 88.471825 273.788907 
L 92.061463 273.821667 
L 97.44592 273.385221 
L 99.240739 272.908985 
L 102.830377 272.202501 
L 106.420015 271.078835 
L 110.009654 269.176646 
L 111.804473 268.513906 
L 113.599292 266.987407 
L 117.18893 263.655921 
L 118.983749 261.102973 
L 122.573387 255.437233 
L 126.163025 248.263895 
L 127.957844 240.77442 
L 129.752663 234.235503 
L 131.547482 230.124231 
L 133.342301 224.804175 
L 135.13712 215.864771 
L 136.931939 203.682958 
L 140.521577 186.669289 
L 142.316396 178.560857 
L 144.111215 171.683988 
L 145.906035 161.840021 
L 147.700854 149.079113 
L 149.495673 140.007638 
L 151.290492 135.60441 
L 153.085311 132.66447 
L 154.88013 124.167054 
L 156.674949 111.650794 
L 158.469768 104.312444 
L 160.264587 106.075357 
L 162.059406 106.59225 
L 163.854225 101.528887 
L 165.649044 93.704089 
L 167.443863 91.137802 
L 169.238682 91.66937 
L 171.033501 97.123031 
L 172.82832 99.617478 
L 174.623139 93.278966 
L 176.417958 89.123452 
L 178.212777 92.341988 
L 180.007596 99.376334 
L 181.802415 104.403996 
L 183.597235 100.714343 
L 185.392054 103.378751 
L 187.186873 103.961351 
L 188.981692 108.578346 
L 190.776511 115.801927 
L 192.57133 116.845132 
L 194.366149 112.504105 
L 196.160968 114.586352 
L 199.750606 129.988015 
L 201.545425 132.060844 
L 203.340244 130.810007 
L 205.135063 132.734996 
L 208.724701 143.414095 
L 210.51952 147.913475 
L 212.314339 145.368433 
L 214.109158 145.751504 
L 215.903977 151.021185 
L 217.698796 158.296675 
L 219.493615 162.727281 
L 223.083254 159.165537 
L 224.878073 163.057786 
L 226.672892 169.291386 
L 228.467711 174.290794 
L 230.26253 172.814363 
L 232.057349 172.05326 
L 233.852168 175.407809 
L 235.646987 181.568912 
L 237.441806 186.57051 
L 239.236625 187.062873 
L 241.031444 185.829557 
L 242.826263 186.870352 
L 244.621082 190.203217 
L 246.415901 195.094428 
L 248.21072 198.148916 
L 250.005539 198.427513 
L 251.800358 198.196882 
L 253.595177 201.732343 
L 255.389996 206.071836 
L 257.184815 209.144503 
L 258.979635 207.421891 
L 260.774454 206.360508 
L 262.569273 209.928385 
L 264.364092 215.573252 
L 266.158911 219.315032 
L 267.95373 220.220253 
L 269.748549 219.390157 
L 271.543368 221.400784 
L 273.338187 226.493714 
L 276.030415 229.652676 
L 277.825235 229.193167 
L 279.620054 228.395268 
L 281.414873 229.911123 
L 283.209692 233.69167 
L 285.004511 235.240159 
L 286.79933 236.052952 
L 288.594149 234.510595 
L 290.388968 235.582491 
L 292.183787 239.903368 
L 293.978606 242.058549 
L 295.773425 242.778476 
L 297.568244 243.020277 
L 299.363063 242.346564 
L 301.157882 244.232567 
L 302.952701 246.424106 
L 304.74752 246.202236 
L 306.542339 246.577641 
L 308.337158 247.914335 
L 310.131977 249.839981 
L 311.926796 251.493601 
L 313.721615 252.709767 
L 317.311254 252.264867 
L 319.106073 254.600545 
L 320.900892 255.939429 
L 322.695711 256.787966 
L 324.49053 256.559898 
L 326.285349 256.570565 
L 328.080168 257.379656 
L 329.874987 258.340617 
L 331.669806 258.879018 
L 333.464625 259.809776 
L 335.259444 259.655146 
L 337.054263 260.241207 
L 338.849082 262.00022 
L 340.643901 263.075643 
L 342.43872 262.94666 
L 344.233539 262.562429 
L 346.028358 262.991297 
L 347.823177 264.134967 
L 349.617996 264.208602 
L 351.412815 265.054599 
L 353.207635 264.951351 
L 356.797273 265.802276 
L 358.592092 265.799516 
L 362.18173 266.72136 
L 363.976549 267.002848 
L 367.566187 268.139947 
L 369.361006 267.915076 
L 371.155825 267.968452 
L 374.745463 268.285684 
L 378.335101 269.393391 
L 380.12992 269.395647 
L 381.924739 269.213223 
L 383.719558 269.713361 
L 385.514377 269.800203 
L 387.309196 270.275416 
L 390.898835 270.136096 
L 392.693654 270.359433 
L 396.283292 270.6211 
L 398.078111 270.913955 
L 399.87293 270.906464 
L 401.667749 271.255892 
L 407.052206 271.759644 
L 410.641844 271.492349 
L 421.410758 272.398419 
L 425.000396 272.552764 
L 432.179673 272.840501 
L 433.974492 272.98398 
L 439.358949 272.91916 
L 442.948587 273.084963 
L 444.743406 272.9181 
L 448.333044 273.24039 
L 451.922682 273.286063 
L 457.307139 273.49455 
L 462.691596 273.385063 
L 464.486415 273.531521 
L 491.408701 273.725176 
L 493.20352 273.640794 
L 502.177615 273.829632 
L 505.767254 273.852925 
L 509.356892 273.871962 
L 512.94653 273.8726 
L 516.536168 273.872409 
L 521.920625 273.864782 
L 527.305082 273.919946 
L 529.099901 273.860682 
L 532.689539 273.932739 
L 539.868815 273.936562 
L 556.022187 273.951511 
L 573.970377 273.938906 
L 586.534111 273.967891 
L 602.687482 273.973906 
L 634.994225 273.958864 
L 651.147596 273.981439 
L 822.552815 273.952334 
L 826.142454 273.977188 
L 845.885463 273.984686 
L 854.859558 273.982016 
L 872.807749 273.972814 
L 878.192206 273.982627 
L 903.319673 273.961735 
L 917.678225 273.97314 
L 932.036777 273.989894 
L 948.190149 273.944387 
L 948.190149 273.944387 
" clip-path="url(#p377edd36cb)" style="fill: none; stroke: #91e8e1; stroke-linecap: square"/>
   </g>
   <g id="line2d_17">
    <path d="M 50.780625 273.99006 
L 83.087368 273.909939 
L 84.882187 273.845492 
L 92.061463 273.082928 
L 93.856282 272.789197 
L 95.651101 272.252392 
L 99.240739 270.822206 
L 101.035558 269.801802 
L 102.830377 268.493909 
L 104.625196 266.355176 
L 106.420015 263.709253 
L 108.214835 261.433171 
L 110.009654 259.790458 
L 111.804473 257.322622 
L 113.599292 255.189803 
L 115.394111 250.756371 
L 118.983749 240.582775 
L 120.778568 234.626677 
L 122.573387 229.898419 
L 124.368206 224.218947 
L 126.163025 217.028656 
L 127.957844 206.37343 
L 129.752663 196.435503 
L 131.547482 190.400557 
L 133.342301 182.896626 
L 135.13712 174.245894 
L 136.931939 159.305712 
L 138.726758 147.687225 
L 142.316396 131.038666 
L 144.111215 123.600881 
L 145.906035 115.302337 
L 147.700854 102.704381 
L 149.495673 98.495645 
L 151.290492 96.05201 
L 153.085311 94.567038 
L 154.88013 88.321392 
L 156.674949 77.790571 
L 158.469768 78.002584 
L 160.264587 81.694866 
L 162.059406 84.63809 
L 163.854225 80.53996 
L 165.649044 77.702304 
L 167.443863 78.285342 
L 169.238682 82.91066 
L 171.033501 86.5495 
L 172.82832 89.505866 
L 174.623139 85.784235 
L 176.417958 85.763209 
L 180.007596 100.025736 
L 181.802415 103.200029 
L 183.597235 102.192307 
L 185.392054 99.675738 
L 187.186873 105.197295 
L 188.981692 113.448092 
L 190.776511 119.042146 
L 192.57133 120.794765 
L 194.366149 116.948291 
L 196.160968 120.984219 
L 197.955787 129.687736 
L 199.750606 136.09502 
L 201.545425 136.134663 
L 203.340244 134.037304 
L 205.135063 138.166097 
L 206.929882 148.470668 
L 208.724701 152.643047 
L 210.51952 155.249853 
L 212.314339 154.997977 
L 214.109158 157.830595 
L 217.698796 172.578914 
L 219.493615 174.434911 
L 221.288435 173.887573 
L 223.083254 172.13846 
L 224.878073 175.717945 
L 226.672892 182.247225 
L 228.467711 186.745071 
L 230.26253 186.894882 
L 232.057349 186.20759 
L 235.646987 197.13528 
L 237.441806 200.013236 
L 239.236625 201.963412 
L 241.031444 201.20866 
L 242.826263 204.051135 
L 244.621082 208.086405 
L 246.415901 214.472226 
L 248.21072 215.202447 
L 250.005539 212.850145 
L 251.800358 213.446105 
L 253.595177 218.52458 
L 255.389996 222.838886 
L 257.184815 225.152858 
L 258.979635 224.108559 
L 260.774454 224.708024 
L 262.569273 228.254217 
L 264.364092 232.218087 
L 266.158911 234.008377 
L 269.748549 234.358375 
L 273.338187 239.465104 
L 276.030415 242.642901 
L 277.825235 242.630636 
L 279.620054 243.073499 
L 283.209692 247.636614 
L 285.004511 248.410202 
L 286.79933 248.268056 
L 288.594149 248.292806 
L 292.183787 252.542346 
L 293.978606 254.027647 
L 295.773425 253.716351 
L 297.568244 253.232464 
L 301.157882 256.555934 
L 302.952701 258.067759 
L 306.542339 258.527268 
L 308.337158 258.591003 
L 310.131977 259.213816 
L 311.926796 260.765722 
L 313.721615 261.128598 
L 315.516435 261.311132 
L 317.311254 261.79596 
L 319.106073 262.153886 
L 320.900892 263.095596 
L 324.49053 263.700623 
L 326.285349 263.854749 
L 328.080168 264.476708 
L 329.874987 265.984393 
L 335.259444 266.052268 
L 337.054263 266.855511 
L 338.849082 267.162909 
L 340.643901 267.309676 
L 342.43872 267.83498 
L 344.233539 267.479857 
L 346.028358 267.330396 
L 347.823177 268.22392 
L 349.617996 268.986425 
L 355.002454 268.647115 
L 356.797273 269.15332 
L 358.592092 269.922505 
L 360.386911 270.253602 
L 362.18173 270.270182 
L 363.976549 270.114172 
L 365.771368 270.13695 
L 367.566187 270.567045 
L 369.361006 270.826389 
L 371.155825 270.796931 
L 372.950644 271.186024 
L 378.335101 271.433104 
L 380.12992 271.715007 
L 383.719558 271.44331 
L 385.514377 272.044115 
L 387.309196 272.325809 
L 389.104015 272.182778 
L 396.283292 272.348955 
L 398.078111 272.673139 
L 401.667749 272.446827 
L 408.847025 272.815225 
L 410.641844 273.026733 
L 412.436663 273.085826 
L 414.231482 273.020629 
L 417.82112 273.066146 
L 423.205577 273.126007 
L 425.000396 273.422316 
L 430.384854 273.173047 
L 435.769311 273.466616 
L 439.358949 273.490667 
L 441.153768 273.619338 
L 444.743406 273.593329 
L 446.538225 273.664623 
L 450.127863 273.664601 
L 451.922682 273.739058 
L 455.51232 273.556404 
L 459.101958 273.738537 
L 464.486415 273.781539 
L 468.076054 273.813055 
L 471.665692 273.729758 
L 473.460511 273.838722 
L 482.434606 273.801679 
L 486.024244 273.901344 
L 500.382796 273.934518 
L 525.510263 273.952343 
L 557.817006 273.951814 
L 575.765196 273.976877 
L 595.508206 273.980626 
L 602.687482 273.978658 
L 627.814949 273.971757 
L 669.095787 273.986831 
L 683.454339 273.966794 
L 694.223254 273.987394 
L 715.761082 273.989333 
L 750.760054 273.962767 
L 757.93933 273.955202 
L 768.708244 273.977192 
L 808.194263 273.985708 
L 831.526911 273.964348 
L 842.295825 273.96927 
L 862.038835 273.989958 
L 869.218111 273.989584 
L 899.730035 273.974678 
L 910.498949 273.973596 
L 919.473044 273.983703 
L 948.190149 273.984751 
L 948.190149 273.984751 
" clip-path="url(#p377edd36cb)" style="fill: none; stroke: #7cb5ec; stroke-linecap: square"/>
   </g>
   <g id="line2d_18">
    <path d="M 50.780625 273.99006 
L 84.882187 273.943178 
L 92.061463 273.668697 
L 93.856282 273.618363 
L 95.651101 273.344226 
L 97.44592 272.747138 
L 99.240739 272.29858 
L 101.035558 272.320795 
L 102.830377 271.538672 
L 108.214835 268.515373 
L 110.009654 267.084631 
L 111.804473 265.838393 
L 113.599292 264.250764 
L 115.394111 261.426513 
L 120.778568 251.323201 
L 122.573387 248.12372 
L 124.368206 244.167736 
L 126.163025 237.122001 
L 127.957844 229.58456 
L 129.752663 222.904373 
L 131.547482 215.181859 
L 135.13712 201.280062 
L 136.931939 190.232347 
L 138.726758 177.088806 
L 140.521577 165.290721 
L 142.316396 157.39715 
L 144.111215 152.238731 
L 145.906035 137.533341 
L 147.700854 121.837531 
L 149.495673 113.116492 
L 151.290492 108.329317 
L 153.085311 102.538581 
L 154.88013 91.895401 
L 156.674949 77.206657 
L 158.469768 69.958983 
L 160.264587 69.382077 
L 162.059406 71.713572 
L 163.854225 65.14881 
L 165.649044 53.885578 
L 167.443863 50.420641 
L 169.238682 59.977032 
L 171.033501 67.608652 
L 172.82832 70.901655 
L 174.623139 63.054736 
L 176.417958 57.010372 
L 178.212777 64.788956 
L 180.007596 79.827699 
L 181.802415 81.701436 
L 183.597235 79.426231 
L 185.392054 76.871333 
L 187.186873 82.357409 
L 188.981692 97.574655 
L 190.776511 107.071252 
L 192.57133 107.083298 
L 194.366149 103.303408 
L 196.160968 109.332659 
L 199.750606 131.33588 
L 201.545425 133.122009 
L 203.340244 127.357993 
L 205.135063 130.712323 
L 206.929882 141.68316 
L 208.724701 151.839672 
L 210.51952 158.35603 
L 212.314339 154.142913 
L 214.109158 153.270327 
L 215.903977 160.590936 
L 217.698796 169.525521 
L 219.493615 177.347691 
L 221.288435 175.393353 
L 223.083254 171.291281 
L 224.878073 177.665931 
L 226.672892 184.464828 
L 228.467711 191.776675 
L 230.26253 192.535807 
L 232.057349 187.976854 
L 233.852168 188.505355 
L 235.646987 197.316411 
L 237.441806 204.313524 
L 241.031444 203.736618 
L 242.826263 204.756387 
L 244.621082 209.013747 
L 246.415901 214.20458 
L 248.21072 216.697932 
L 250.005539 214.119819 
L 251.800358 214.465655 
L 253.595177 218.290226 
L 255.389996 223.815726 
L 257.184815 225.068535 
L 258.979635 224.610559 
L 260.774454 223.466166 
L 262.569273 226.129699 
L 264.364092 230.935929 
L 266.158911 234.055467 
L 267.95373 234.663692 
L 269.748549 232.430319 
L 271.543368 233.533974 
L 273.338187 238.448182 
L 276.030415 242.122723 
L 277.825235 240.995852 
L 279.620054 240.499328 
L 281.414873 242.691305 
L 283.209692 246.545006 
L 285.004511 247.135272 
L 286.79933 247.108989 
L 288.594149 246.09382 
L 290.388968 247.313994 
L 292.183787 249.946864 
L 293.978606 251.721603 
L 295.773425 252.730092 
L 297.568244 251.662467 
L 299.363063 252.615259 
L 301.157882 254.085732 
L 302.952701 256.431069 
L 306.542339 257.232691 
L 308.337158 257.395973 
L 310.131977 257.765748 
L 311.926796 259.686817 
L 313.721615 260.816601 
L 315.516435 261.286864 
L 317.311254 260.282186 
L 319.106073 260.747959 
L 320.900892 261.946341 
L 322.695711 262.775319 
L 324.49053 263.326883 
L 326.285349 262.867265 
L 328.080168 263.179919 
L 329.874987 263.743114 
L 331.669806 264.875745 
L 333.464625 264.822763 
L 335.259444 265.768656 
L 337.054263 265.738343 
L 338.849082 265.995235 
L 340.643901 266.866878 
L 342.43872 267.161705 
L 344.233539 266.843574 
L 346.028358 266.988589 
L 349.617996 268.369855 
L 351.412815 268.73571 
L 353.207635 268.761248 
L 355.002454 268.359276 
L 358.592092 269.253961 
L 362.18173 269.678317 
L 363.976549 269.572639 
L 365.771368 269.739972 
L 367.566187 270.092313 
L 369.361006 270.612207 
L 372.950644 270.599175 
L 374.745463 270.649266 
L 376.540282 270.921314 
L 378.335101 271.381611 
L 380.12992 271.484552 
L 381.924739 271.185061 
L 383.719558 271.049354 
L 385.514377 271.726681 
L 387.309196 272.083215 
L 390.898835 271.784722 
L 392.693654 271.682461 
L 396.283292 272.184265 
L 399.87293 272.540635 
L 401.667749 272.442999 
L 403.462568 272.175509 
L 405.257387 272.617461 
L 407.052206 272.539774 
L 408.847025 272.593564 
L 410.641844 272.780046 
L 414.231482 272.855545 
L 416.026301 273.049483 
L 417.82112 273.127792 
L 421.410758 272.899856 
L 430.384854 273.25898 
L 432.179673 273.245975 
L 435.769311 273.547096 
L 437.56413 273.415844 
L 439.358949 273.469538 
L 442.948587 273.304769 
L 448.333044 273.589483 
L 450.127863 273.50788 
L 466.281235 273.699879 
L 469.870873 273.608124 
L 475.25533 273.783342 
L 480.639787 273.797402 
L 484.229425 273.848044 
L 487.819063 273.822091 
L 494.998339 273.82408 
L 498.587977 273.873945 
L 642.173501 273.973797 
L 656.532054 273.987624 
L 790.246073 273.986065 
L 890.755939 273.986681 
L 903.319673 273.990055 
L 948.190149 273.954901 
L 948.190149 273.954901 
" clip-path="url(#p377edd36cb)" style="fill: none; stroke: #434348; stroke-linecap: square"/>
   </g>
   <g id="line2d_19">
    <path d="M 50.780625 273.99006 
L 993.060625 273.99006 
" clip-path="url(#p377edd36cb)" style="fill: none; stroke: #dedede; stroke-width: 2; stroke-linecap: square"/>
   </g>
   <g id="text_15">
    <!-- Salmon: Fragment Length Distribution -->
    <g transform="translate(369.159375 19.3575) scale(0.16 -0.16)">
     <defs>
      <path id="DejaVuSans-53" d="M 3425 4513 
L 3425 3897 
Q 3066 4069 2747 4153 
Q 2428 4238 2131 4238 
Q 1616 4238 1336 4038 
Q 1056 3838 1056 3469 
Q 1056 3159 1242 3001 
Q 1428 2844 1947 2747 
L 2328 2669 
Q 3034 2534 3370 2195 
Q 3706 1856 3706 1288 
Q 3706 609 3251 259 
Q 2797 -91 1919 -91 
Q 1588 -91 1214 -16 
Q 841 59 441 206 
L 441 856 
Q 825 641 1194 531 
Q 1563 422 1919 422 
Q 2459 422 2753 634 
Q 3047 847 3047 1241 
Q 3047 1584 2836 1778 
Q 2625 1972 2144 2069 
L 1759 2144 
Q 1053 2284 737 2584 
Q 422 2884 422 3419 
Q 422 4038 858 4394 
Q 1294 4750 2059 4750 
Q 2388 4750 2728 4690 
Q 3069 4631 3425 4513 
z
" transform="scale(0.015625)"/>
      <path id="DejaVuSans-6c" d="M 603 4863 
L 1178 4863 
L 1178 0 
L 603 0 
L 603 4863 
z
" transform="scale(0.015625)"/>
      <path id="DejaVuSans-3a" d="M 750 794 
L 1409 794 
L 1409 0 
L 750 0 
L 750 794 
z
M 750 3309 
L 1409 3309 
L 1409 2516 
L 750 2516 
L 750 3309 
z
" transform="scale(0.015625)"/>
      <path id="DejaVuSans-44" d="M 1259 4147 
L 1259 519 
L 2022 519 
Q 2988 519 3436 956 
Q 3884 1394 3884 2338 
Q 3884 3275 3436 3711 
Q 2988 4147 2022 4147 
L 1259 4147 
z
M 628 4666 
L 1925 4666 
Q 3281 4666 3915 4102 
Q 4550 3538 4550 2338 
Q 4550 1131 3912 565 
Q 3275 0 1925 0 
L 628 0 
L 628 4666 
z
" transform="scale(0.015625)"/>
      <path id="DejaVuSans-73" d="M 2834 3397 
L 2834 2853 
Q 2591 2978 2328 3040 
Q 2066 3103 1784 3103 
Q 1356 3103 1142 2972 
Q 928 2841 928 2578 
Q 928 2378 1081 2264 
Q 1234 2150 1697 2047 
L 1894 2003 
Q 2506 1872 2764 1633 
Q 3022 1394 3022 966 
Q 3022 478 2636 193 
Q 2250 -91 1575 -91 
Q 1294 -91 989 -36 
Q 684 19 347 128 
L 347 722 
Q 666 556 975 473 
Q 1284 391 1588 391 
Q 1994 391 2212 530 
Q 2431 669 2431 922 
Q 2431 1156 2273 1281 
Q 2116 1406 1581 1522 
L 1381 1569 
Q 847 1681 609 1914 
Q 372 2147 372 2553 
Q 372 3047 722 3315 
Q 1072 3584 1716 3584 
Q 2034 3584 2315 3537 
Q 2597 3491 2834 3397 
z
" transform="scale(0.015625)"/>
      <path id="DejaVuSans-75" d="M 544 1381 
L 544 3500 
L 1119 3500 
L 1119 1403 
Q 1119 906 1312 657 
Q 1506 409 1894 409 
Q 2359 409 2629 706 
Q 2900 1003 2900 1516 
L 2900 3500 
L 3475 3500 
L 3475 0 
L 2900 0 
L 2900 538 
Q 2691 219 2414 64 
Q 2138 -91 1772 -91 
Q 1169 -91 856 284 
Q 544 659 544 1381 
z
M 1991 3584 
L 1991 3584 
z
" transform="scale(0.015625)"/>
     </defs>
     <use xlink:href="#DejaVuSans-53"/>
     <use xlink:href="#DejaVuSans-61" x="63.476562"/>
     <use xlink:href="#DejaVuSans-6c" x="124.755859"/>
     <use xlink:href="#DejaVuSans-6d" x="152.539062"/>
     <use xlink:href="#DejaVuSans-6f" x="249.951172"/>
     <use xlink:href="#DejaVuSans-6e" x="311.132812"/>
     <use xlink:href="#DejaVuSans-3a" x="374.511719"/>
     <use xlink:href="#DejaVuSans-20" x="408.203125"/>
     <use xlink:href="#DejaVuSans-46" x="439.990234"/>
     <use xlink:href="#DejaVuSans-72" x="490.259766"/>
     <use xlink:href="#DejaVuSans-61" x="531.373047"/>
     <use xlink:href="#DejaVuSans-67" x="592.652344"/>
     <use xlink:href="#DejaVuSans-6d" x="656.128906"/>
     <use xlink:href="#DejaVuSans-65" x="753.541016"/>
     <use xlink:href="#DejaVuSans-6e" x="815.064453"/>
     <use xlink:href="#DejaVuSans-74" x="878.443359"/>
     <use xlink:href="#DejaVuSans-20" x="917.652344"/>
     <use xlink:href="#DejaVuSans-4c" x="949.439453"/>
     <use xlink:href="#DejaVuSans-65" x="1003.402344"/>
     <use xlink:href="#DejaVuSans-6e" x="1064.925781"/>
     <use xlink:href="#DejaVuSans-67" x="1128.304688"/>
     <use xlink:href="#DejaVuSans-74" x="1191.78125"/>
     <use xlink:href="#DejaVuSans-68" x="1230.990234"/>
     <use xlink:href="#DejaVuSans-20" x="1294.369141"/>
     <use xlink:href="#DejaVuSans-44" x="1326.15625"/>
     <use xlink:href="#DejaVuSans-69" x="1403.158203"/>
     <use xlink:href="#DejaVuSans-73" x="1430.941406"/>
     <use xlink:href="#DejaVuSans-74" x="1483.041016"/>
     <use xlink:href="#DejaVuSans-72" x="1522.25"/>
     <use xlink:href="#DejaVuSans-69" x="1563.363281"/>
     <use xlink:href="#DejaVuSans-62" x="1591.146484"/>
     <use xlink:href="#DejaVuSans-75" x="1654.623047"/>
     <use xlink:href="#DejaVuSans-74" x="1718.001953"/>
     <use xlink:href="#DejaVuSans-69" x="1757.210938"/>
     <use xlink:href="#DejaVuSans-6f" x="1784.994141"/>
     <use xlink:href="#DejaVuSans-6e" x="1846.175781"/>
    </g>
   </g>
   <g id="legend_1">
    <g id="line2d_20">
     <path d="M 57.980625 292.192894 
L 65.980625 292.192894 
L 73.980625 292.192894 
" style="fill: none; stroke: #7cb5ec; stroke-linecap: square"/>
    </g>
    <g id="text_16">
     <!-- SRR17866817 -->
     <g transform="translate(80.380625 294.992894) scale(0.08 -0.08)">
      <defs>
       <path id="DejaVuSans-52" d="M 2841 2188 
Q 3044 2119 3236 1894 
Q 3428 1669 3622 1275 
L 4263 0 
L 3584 0 
L 2988 1197 
Q 2756 1666 2539 1819 
Q 2322 1972 1947 1972 
L 1259 1972 
L 1259 0 
L 628 0 
L 628 4666 
L 2053 4666 
Q 2853 4666 3247 4331 
Q 3641 3997 3641 3322 
Q 3641 2881 3436 2590 
Q 3231 2300 2841 2188 
z
M 1259 4147 
L 1259 2491 
L 2053 2491 
Q 2509 2491 2742 2702 
Q 2975 2913 2975 3322 
Q 2975 3731 2742 3939 
Q 2509 4147 2053 4147 
L 1259 4147 
z
" transform="scale(0.015625)"/>
       <path id="DejaVuSans-37" d="M 525 4666 
L 3525 4666 
L 3525 4397 
L 1831 0 
L 1172 0 
L 2766 4134 
L 525 4134 
L 525 4666 
z
" transform="scale(0.015625)"/>
      </defs>
      <use xlink:href="#DejaVuSans-53"/>
      <use xlink:href="#DejaVuSans-52" x="63.476562"/>
      <use xlink:href="#DejaVuSans-52" x="132.958984"/>
      <use xlink:href="#DejaVuSans-31" x="202.441406"/>
      <use xlink:href="#DejaVuSans-37" x="266.064453"/>
      <use xlink:href="#DejaVuSans-38" x="329.6875"/>
      <use xlink:href="#DejaVuSans-36" x="393.310547"/>
      <use xlink:href="#DejaVuSans-36" x="456.933594"/>
      <use xlink:href="#DejaVuSans-38" x="520.556641"/>
      <use xlink:href="#DejaVuSans-31" x="584.179688"/>
      <use xlink:href="#DejaVuSans-37" x="647.802734"/>
     </g>
    </g>
    <g id="line2d_21">
     <path d="M 57.980625 303.935394 
L 65.980625 303.935394 
L 73.980625 303.935394 
" style="fill: none; stroke: #434348; stroke-linecap: square"/>
    </g>
    <g id="text_17">
     <!-- SRR17866818 -->
     <g transform="translate(80.380625 306.735394) scale(0.08 -0.08)">
      <use xlink:href="#DejaVuSans-53"/>
      <use xlink:href="#DejaVuSans-52" x="63.476562"/>
      <use xlink:href="#DejaVuSans-52" x="132.958984"/>
      <use xlink:href="#DejaVuSans-31" x="202.441406"/>
      <use xlink:href="#DejaVuSans-37" x="266.064453"/>
      <use xlink:href="#DejaVuSans-38" x="329.6875"/>
      <use xlink:href="#DejaVuSans-36" x="393.310547"/>
      <use xlink:href="#DejaVuSans-36" x="456.933594"/>
      <use xlink:href="#DejaVuSans-38" x="520.556641"/>
      <use xlink:href="#DejaVuSans-31" x="584.179688"/>
      <use xlink:href="#DejaVuSans-38" x="647.802734"/>
     </g>
    </g>
    <g id="line2d_22">
     <path d="M 57.980625 315.677894 
L 65.980625 315.677894 
L 73.980625 315.677894 
" style="fill: none; stroke: #90ed7d; stroke-linecap: square"/>
    </g>
    <g id="text_18">
     <!-- SRR17866819 -->
     <g transform="translate(80.380625 318.477894) scale(0.08 -0.08)">
      <defs>
       <path id="DejaVuSans-39" d="M 703 97 
L 703 672 
Q 941 559 1184 500 
Q 1428 441 1663 441 
Q 2288 441 2617 861 
Q 2947 1281 2994 2138 
Q 2813 1869 2534 1725 
Q 2256 1581 1919 1581 
Q 1219 1581 811 2004 
Q 403 2428 403 3163 
Q 403 3881 828 4315 
Q 1253 4750 1959 4750 
Q 2769 4750 3195 4129 
Q 3622 3509 3622 2328 
Q 3622 1225 3098 567 
Q 2575 -91 1691 -91 
Q 1453 -91 1209 -44 
Q 966 3 703 97 
z
M 1959 2075 
Q 2384 2075 2632 2365 
Q 2881 2656 2881 3163 
Q 2881 3666 2632 3958 
Q 2384 4250 1959 4250 
Q 1534 4250 1286 3958 
Q 1038 3666 1038 3163 
Q 1038 2656 1286 2365 
Q 1534 2075 1959 2075 
z
" transform="scale(0.015625)"/>
      </defs>
      <use xlink:href="#DejaVuSans-53"/>
      <use xlink:href="#DejaVuSans-52" x="63.476562"/>
      <use xlink:href="#DejaVuSans-52" x="132.958984"/>
      <use xlink:href="#DejaVuSans-31" x="202.441406"/>
      <use xlink:href="#DejaVuSans-37" x="266.064453"/>
      <use xlink:href="#DejaVuSans-38" x="329.6875"/>
      <use xlink:href="#DejaVuSans-36" x="393.310547"/>
      <use xlink:href="#DejaVuSans-36" x="456.933594"/>
      <use xlink:href="#DejaVuSans-38" x="520.556641"/>
      <use xlink:href="#DejaVuSans-31" x="584.179688"/>
      <use xlink:href="#DejaVuSans-39" x="647.802734"/>
     </g>
    </g>
    <g id="line2d_23">
     <path d="M 270.121562 292.192894 
L 278.121562 292.192894 
L 286.121562 292.192894 
" style="fill: none; stroke: #f7a35c; stroke-linecap: square"/>
    </g>
    <g id="text_19">
     <!-- SRR17866820 -->
     <g transform="translate(292.521562 294.992894) scale(0.08 -0.08)">
      <use xlink:href="#DejaVuSans-53"/>
      <use xlink:href="#DejaVuSans-52" x="63.476562"/>
      <use xlink:href="#DejaVuSans-52" x="132.958984"/>
      <use xlink:href="#DejaVuSans-31" x="202.441406"/>
      <use xlink:href="#DejaVuSans-37" x="266.064453"/>
      <use xlink:href="#DejaVuSans-38" x="329.6875"/>
      <use xlink:href="#DejaVuSans-36" x="393.310547"/>
      <use xlink:href="#DejaVuSans-36" x="456.933594"/>
      <use xlink:href="#DejaVuSans-38" x="520.556641"/>
      <use xlink:href="#DejaVuSans-32" x="584.179688"/>
      <use xlink:href="#DejaVuSans-30" x="647.802734"/>
     </g>
    </g>
    <g id="line2d_24">
     <path d="M 270.121562 303.935394 
L 278.121562 303.935394 
L 286.121562 303.935394 
" style="fill: none; stroke: #8085e9; stroke-linecap: square"/>
    </g>
    <g id="text_20">
     <!-- SRR17866821 -->
     <g transform="translate(292.521562 306.735394) scale(0.08 -0.08)">
      <use xlink:href="#DejaVuSans-53"/>
      <use xlink:href="#DejaVuSans-52" x="63.476562"/>
      <use xlink:href="#DejaVuSans-52" x="132.958984"/>
      <use xlink:href="#DejaVuSans-31" x="202.441406"/>
      <use xlink:href="#DejaVuSans-37" x="266.064453"/>
      <use xlink:href="#DejaVuSans-38" x="329.6875"/>
      <use xlink:href="#DejaVuSans-36" x="393.310547"/>
      <use xlink:href="#DejaVuSans-36" x="456.933594"/>
      <use xlink:href="#DejaVuSans-38" x="520.556641"/>
      <use xlink:href="#DejaVuSans-32" x="584.179688"/>
      <use xlink:href="#DejaVuSans-31" x="647.802734"/>
     </g>
    </g>
    <g id="line2d_25">
     <path d="M 270.121562 315.677894 
L 278.121562 315.677894 
L 286.121562 315.677894 
" style="fill: none; stroke: #f15c80; stroke-linecap: square"/>
    </g>
    <g id="text_21">
     <!-- SRR17866822 -->
     <g transform="translate(292.521562 318.477894) scale(0.08 -0.08)">
      <use xlink:href="#DejaVuSans-53"/>
      <use xlink:href="#DejaVuSans-52" x="63.476562"/>
      <use xlink:href="#DejaVuSans-52" x="132.958984"/>
      <use xlink:href="#DejaVuSans-31" x="202.441406"/>
      <use xlink:href="#DejaVuSans-37" x="266.064453"/>
      <use xlink:href="#DejaVuSans-38" x="329.6875"/>
      <use xlink:href="#DejaVuSans-36" x="393.310547"/>
      <use xlink:href="#DejaVuSans-36" x="456.933594"/>
      <use xlink:href="#DejaVuSans-38" x="520.556641"/>
      <use xlink:href="#DejaVuSans-32" x="584.179688"/>
      <use xlink:href="#DejaVuSans-32" x="647.802734"/>
     </g>
    </g>
    <g id="line2d_26">
     <path d="M 482.2625 292.192894 
L 490.2625 292.192894 
L 498.2625 292.192894 
" style="fill: none; stroke: #e4d354; stroke-linecap: square"/>
    </g>
    <g id="text_22">
     <!-- SRR27320655 -->
     <g transform="translate(504.6625 294.992894) scale(0.08 -0.08)">
      <defs>
       <path id="DejaVuSans-33" d="M 2597 2516 
Q 3050 2419 3304 2112 
Q 3559 1806 3559 1356 
Q 3559 666 3084 287 
Q 2609 -91 1734 -91 
Q 1441 -91 1130 -33 
Q 819 25 488 141 
L 488 750 
Q 750 597 1062 519 
Q 1375 441 1716 441 
Q 2309 441 2620 675 
Q 2931 909 2931 1356 
Q 2931 1769 2642 2001 
Q 2353 2234 1838 2234 
L 1294 2234 
L 1294 2753 
L 1863 2753 
Q 2328 2753 2575 2939 
Q 2822 3125 2822 3475 
Q 2822 3834 2567 4026 
Q 2313 4219 1838 4219 
Q 1578 4219 1281 4162 
Q 984 4106 628 3988 
L 628 4550 
Q 988 4650 1302 4700 
Q 1616 4750 1894 4750 
Q 2613 4750 3031 4423 
Q 3450 4097 3450 3541 
Q 3450 3153 3228 2886 
Q 3006 2619 2597 2516 
z
" transform="scale(0.015625)"/>
       <path id="DejaVuSans-35" d="M 691 4666 
L 3169 4666 
L 3169 4134 
L 1269 4134 
L 1269 2991 
Q 1406 3038 1543 3061 
Q 1681 3084 1819 3084 
Q 2600 3084 3056 2656 
Q 3513 2228 3513 1497 
Q 3513 744 3044 326 
Q 2575 -91 1722 -91 
Q 1428 -91 1123 -41 
Q 819 9 494 109 
L 494 744 
Q 775 591 1075 516 
Q 1375 441 1709 441 
Q 2250 441 2565 725 
Q 2881 1009 2881 1497 
Q 2881 1984 2565 2268 
Q 2250 2553 1709 2553 
Q 1456 2553 1204 2497 
Q 953 2441 691 2322 
L 691 4666 
z
" transform="scale(0.015625)"/>
      </defs>
      <use xlink:href="#DejaVuSans-53"/>
      <use xlink:href="#DejaVuSans-52" x="63.476562"/>
      <use xlink:href="#DejaVuSans-52" x="132.958984"/>
      <use xlink:href="#DejaVuSans-32" x="202.441406"/>
      <use xlink:href="#DejaVuSans-37" x="266.064453"/>
      <use xlink:href="#DejaVuSans-33" x="329.6875"/>
      <use xlink:href="#DejaVuSans-32" x="393.310547"/>
      <use xlink:href="#DejaVuSans-30" x="456.933594"/>
      <use xlink:href="#DejaVuSans-36" x="520.556641"/>
      <use xlink:href="#DejaVuSans-35" x="584.179688"/>
      <use xlink:href="#DejaVuSans-35" x="647.802734"/>
     </g>
    </g>
    <g id="line2d_27">
     <path d="M 482.2625 303.935394 
L 490.2625 303.935394 
L 498.2625 303.935394 
" style="fill: none; stroke: #2b908f; stroke-linecap: square"/>
    </g>
    <g id="text_23">
     <!-- SRR27320656 -->
     <g transform="translate(504.6625 306.735394) scale(0.08 -0.08)">
      <use xlink:href="#DejaVuSans-53"/>
      <use xlink:href="#DejaVuSans-52" x="63.476562"/>
      <use xlink:href="#DejaVuSans-52" x="132.958984"/>
      <use xlink:href="#DejaVuSans-32" x="202.441406"/>
      <use xlink:href="#DejaVuSans-37" x="266.064453"/>
      <use xlink:href="#DejaVuSans-33" x="329.6875"/>
      <use xlink:href="#DejaVuSans-32" x="393.310547"/>
      <use xlink:href="#DejaVuSans-30" x="456.933594"/>
      <use xlink:href="#DejaVuSans-36" x="520.556641"/>
      <use xlink:href="#DejaVuSans-35" x="584.179688"/>
      <use xlink:href="#DejaVuSans-36" x="647.802734"/>
     </g>
    </g>
    <g id="line2d_28">
     <path d="M 694.403437 292.192894 
L 702.403437 292.192894 
L 710.403437 292.192894 
" style="fill: none; stroke: #f45b5b; stroke-linecap: square"/>
    </g>
    <g id="text_24">
     <!-- SRR27320657 -->
     <g transform="translate(716.803437 294.992894) scale(0.08 -0.08)">
      <use xlink:href="#DejaVuSans-53"/>
      <use xlink:href="#DejaVuSans-52" x="63.476562"/>
      <use xlink:href="#DejaVuSans-52" x="132.958984"/>
      <use xlink:href="#DejaVuSans-32" x="202.441406"/>
      <use xlink:href="#DejaVuSans-37" x="266.064453"/>
      <use xlink:href="#DejaVuSans-33" x="329.6875"/>
      <use xlink:href="#DejaVuSans-32" x="393.310547"/>
      <use xlink:href="#DejaVuSans-30" x="456.933594"/>
      <use xlink:href="#DejaVuSans-36" x="520.556641"/>
      <use xlink:href="#DejaVuSans-35" x="584.179688"/>
      <use xlink:href="#DejaVuSans-37" x="647.802734"/>
     </g>
    </g>
    <g id="line2d_29">
     <path d="M 694.403437 303.935394 
L 702.403437 303.935394 
L 710.403437 303.935394 
" style="fill: none; stroke: #91e8e1; stroke-linecap: square"/>
    </g>
    <g id="text_25">
     <!-- SRR27320658 -->
     <g transform="translate(716.803437 306.735394) scale(0.08 -0.08)">
      <use xlink:href="#DejaVuSans-53"/>
      <use xlink:href="#DejaVuSans-52" x="63.476562"/>
      <use xlink:href="#DejaVuSans-52" x="132.958984"/>
      <use xlink:href="#DejaVuSans-32" x="202.441406"/>
      <use xlink:href="#DejaVuSans-37" x="266.064453"/>
      <use xlink:href="#DejaVuSans-33" x="329.6875"/>
      <use xlink:href="#DejaVuSans-32" x="393.310547"/>
      <use xlink:href="#DejaVuSans-30" x="456.933594"/>
      <use xlink:href="#DejaVuSans-36" x="520.556641"/>
      <use xlink:href="#DejaVuSans-35" x="584.179688"/>
      <use xlink:href="#DejaVuSans-38" x="647.802734"/>
     </g>
    </g>
    <g id="line2d_30">
     <path d="M 906.544375 292.192894 
L 914.544375 292.192894 
L 922.544375 292.192894 
" style="fill: none; stroke: #7cb5ec; stroke-linecap: square"/>
    </g>
    <g id="text_26">
     <!-- SRR27320659 -->
     <g transform="translate(928.944375 294.992894) scale(0.08 -0.08)">
      <use xlink:href="#DejaVuSans-53"/>
      <use xlink:href="#DejaVuSans-52" x="63.476562"/>
      <use xlink:href="#DejaVuSans-52" x="132.958984"/>
      <use xlink:href="#DejaVuSans-32" x="202.441406"/>
      <use xlink:href="#DejaVuSans-37" x="266.064453"/>
      <use xlink:href="#DejaVuSans-33" x="329.6875"/>
      <use xlink:href="#DejaVuSans-32" x="393.310547"/>
      <use xlink:href="#DejaVuSans-30" x="456.933594"/>
      <use xlink:href="#DejaVuSans-36" x="520.556641"/>
      <use xlink:href="#DejaVuSans-35" x="584.179688"/>
      <use xlink:href="#DejaVuSans-39" x="647.802734"/>
     </g>
    </g>
    <g id="line2d_31">
     <path d="M 906.544375 303.935394 
L 914.544375 303.935394 
L 922.544375 303.935394 
" style="fill: none; stroke: #434348; stroke-linecap: square"/>
    </g>
    <g id="text_27">
     <!-- SRR27320660 -->
     <g transform="translate(928.944375 306.735394) scale(0.08 -0.08)">
      <use xlink:href="#DejaVuSans-53"/>
      <use xlink:href="#DejaVuSans-52" x="63.476562"/>
      <use xlink:href="#DejaVuSans-52" x="132.958984"/>
      <use xlink:href="#DejaVuSans-32" x="202.441406"/>
      <use xlink:href="#DejaVuSans-37" x="266.064453"/>
      <use xlink:href="#DejaVuSans-33" x="329.6875"/>
      <use xlink:href="#DejaVuSans-32" x="393.310547"/>
      <use xlink:href="#DejaVuSans-30" x="456.933594"/>
      <use xlink:href="#DejaVuSans-36" x="520.556641"/>
      <use xlink:href="#DejaVuSans-36" x="584.179688"/>
      <use xlink:href="#DejaVuSans-30" x="647.802734"/>
     </g>
    </g>
   </g>
  </g>
 </g>
 <defs>
  <clipPath id="p377edd36cb">
   <rect x="50.780625" y="31.48286" width="942.28" height="242.5072"/>
  </clipPath>
 </defs>
</svg>
