<?xml version="1.0" encoding="utf-8" standalone="no"?>
<!DOCTYPE svg PUBLIC "-//W3C//DTD SVG 1.1//EN"
  "http://www.w3.org/Graphics/SVG/1.1/DTD/svg11.dtd">
<svg xmlns:xlink="http://www.w3.org/1999/xlink" width="1000.318125pt" height="388.844525pt" viewBox="0 0 1000.318125 388.844525" xmlns="http://www.w3.org/2000/svg" version="1.1">
 <metadata>
  <rdf:RDF xmlns:dc="http://purl.org/dc/elements/1.1/" xmlns:cc="http://creativecommons.org/ns#" xmlns:rdf="http://www.w3.org/1999/02/22-rdf-syntax-ns#">
   <cc:Work>
    <dc:type rdf:resource="http://purl.org/dc/dcmitype/StillImage"/>
    <dc:date>2026-03-23T21:33:09.245318</dc:date>
    <dc:format>image/svg+xml</dc:format>
    <dc:creator>
     <cc:Agent>
      <dc:title>Matplotlib v3.8.1, https://matplotlib.org/</dc:title>
     </cc:Agent>
    </dc:creator>
   </cc:Work>
  </rdf:RDF>
 </metadata>
 <defs>
  <style type="text/css">*{stroke-linejoin: round; stroke-linecap: butt}</style>
 </defs>
 <g id="figure_1">
  <g id="axes_1">
   <g id="patch_1">
    <path d="M 38.058125 353.2239 
L 993.118125 353.2239 
L 993.118125 35.2559 
L 38.058125 35.2559 
z
" style="fill: #ffffff"/>
   </g>
   <g id="patch_2">
    <path d="M 38.058125 114.970488 
L 964.675899 114.970488 
L 964.675899 -497.681144 
L 38.058125 -497.681144 
z
" clip-path="url(#p5f4114340c)" style="fill: #c3e6c3"/>
   </g>
   <g id="patch_3">
    <path d="M 38.058125 183.042891 
L 964.675899 183.042891 
L 964.675899 114.970488 
L 38.058125 114.970488 
z
" clip-path="url(#p5f4114340c)" style="fill: #e6dcc3"/>
   </g>
   <g id="patch_4">
    <path d="M 38.058125 353.2239 
L 964.675899 353.2239 
L 964.675899 183.042891 
L 38.058125 183.042891 
z
" clip-path="url(#p5f4114340c)" style="fill: #e6c3c3"/>
   </g>
   <g id="matplotlib.axis_1">
    <g id="xtick_1">
     <g id="text_1">
      <!-- 0 -->
      <g transform="translate(63.955351 366.30265) scale(0.08 -0.08)">
       <defs>
        <path id="DejaVuSans-30" d="M 2034 4250 
Q 1547 4250 1301 3770 
Q 1056 3291 1056 2328 
Q 1056 1369 1301 889 
Q 1547 409 2034 409 
Q 2525 409 2770 889 
Q 3016 1369 3016 2328 
Q 3016 3291 2770 3770 
Q 2525 4250 2034 4250 
z
M 2034 4750 
Q 2819 4750 3233 4129 
Q 3647 3509 3647 2328 
Q 3647 1150 3233 529 
Q 2819 -91 2034 -91 
Q 1250 -91 836 529 
Q 422 1150 422 2328 
Q 422 3509 836 4129 
Q 1250 4750 2034 4750 
z
" transform="scale(0.015625)"/>
       </defs>
       <use xlink:href="#DejaVuSans-30"/>
      </g>
     </g>
    </g>
    <g id="xtick_2">
     <g id="text_2">
      <!-- 10 -->
      <g transform="translate(211.106275 366.30265) scale(0.08 -0.08)">
       <defs>
        <path id="DejaVuSans-31" d="M 794 531 
L 1825 531 
L 1825 4091 
L 703 3866 
L 703 4441 
L 1819 4666 
L 2450 4666 
L 2450 531 
L 3481 531 
L 3481 0 
L 794 0 
L 794 531 
z
" transform="scale(0.015625)"/>
       </defs>
       <use xlink:href="#DejaVuSans-31"/>
       <use xlink:href="#DejaVuSans-30" x="63.623047"/>
      </g>
     </g>
    </g>
    <g id="xtick_3">
     <g id="text_3">
      <!-- 20 -->
      <g transform="translate(360.8022 366.30265) scale(0.08 -0.08)">
       <defs>
        <path id="DejaVuSans-32" d="M 1228 531 
L 3431 531 
L 3431 0 
L 469 0 
L 469 531 
Q 828 903 1448 1529 
Q 2069 2156 2228 2338 
Q 2531 2678 2651 2914 
Q 2772 3150 2772 3378 
Q 2772 3750 2511 3984 
Q 2250 4219 1831 4219 
Q 1534 4219 1204 4116 
Q 875 4013 500 3803 
L 500 4441 
Q 881 4594 1212 4672 
Q 1544 4750 1819 4750 
Q 2544 4750 2975 4387 
Q 3406 4025 3406 3419 
Q 3406 3131 3298 2873 
Q 3191 2616 2906 2266 
Q 2828 2175 2409 1742 
Q 1991 1309 1228 531 
z
" transform="scale(0.015625)"/>
       </defs>
       <use xlink:href="#DejaVuSans-32"/>
       <use xlink:href="#DejaVuSans-30" x="63.623047"/>
      </g>
     </g>
    </g>
    <g id="xtick_4">
     <g id="text_4">
      <!-- 30 -->
      <g transform="translate(510.498125 366.30265) scale(0.08 -0.08)">
       <defs>
        <path id="DejaVuSans-33" d="M 2597 2516 
Q 3050 2419 3304 2112 
Q 3559 1806 3559 1356 
Q 3559 666 3084 287 
Q 2609 -91 1734 -91 
Q 1441 -91 1130 -33 
Q 819 25 488 141 
L 488 750 
Q 750 597 1062 519 
Q 1375 441 1716 441 
Q 2309 441 2620 675 
Q 2931 909 2931 1356 
Q 2931 1769 2642 2001 
Q 2353 2234 1838 2234 
L 1294 2234 
L 1294 2753 
L 1863 2753 
Q 2328 2753 2575 2939 
Q 2822 3125 2822 3475 
Q 2822 3834 2567 4026 
Q 2313 4219 1838 4219 
Q 1578 4219 1281 4162 
Q 984 4106 628 3988 
L 628 4550 
Q 988 4650 1302 4700 
Q 1616 4750 1894 4750 
Q 2613 4750 3031 4423 
Q 3450 4097 3450 3541 
Q 3450 3153 3228 2886 
Q 3006 2619 2597 2516 
z
" transform="scale(0.015625)"/>
       </defs>
       <use xlink:href="#DejaVuSans-33"/>
       <use xlink:href="#DejaVuSans-30" x="63.623047"/>
      </g>
     </g>
    </g>
    <g id="xtick_5">
     <g id="text_5">
      <!-- 40 -->
      <g transform="translate(660.19405 366.30265) scale(0.08 -0.08)">
       <defs>
        <path id="DejaVuSans-34" d="M 2419 4116 
L 825 1625 
L 2419 1625 
L 2419 4116 
z
M 2253 4666 
L 3047 4666 
L 3047 1625 
L 3713 1625 
L 3713 1100 
L 3047 1100 
L 3047 0 
L 2419 0 
L 2419 1100 
L 313 1100 
L 313 1709 
L 2253 4666 
z
" transform="scale(0.015625)"/>
       </defs>
       <use xlink:href="#DejaVuSans-34"/>
       <use xlink:href="#DejaVuSans-30" x="63.623047"/>
      </g>
     </g>
    </g>
    <g id="xtick_6">
     <g id="text_6">
      <!-- 50 -->
      <g transform="translate(809.889975 366.30265) scale(0.08 -0.08)">
       <defs>
        <path id="DejaVuSans-35" d="M 691 4666 
L 3169 4666 
L 3169 4134 
L 1269 4134 
L 1269 2991 
Q 1406 3038 1543 3061 
Q 1681 3084 1819 3084 
Q 2600 3084 3056 2656 
Q 3513 2228 3513 1497 
Q 3513 744 3044 326 
Q 2575 -91 1722 -91 
Q 1428 -91 1123 -41 
Q 819 9 494 109 
L 494 744 
Q 775 591 1075 516 
Q 1375 441 1709 441 
Q 2250 441 2565 725 
Q 2881 1009 2881 1497 
Q 2881 1984 2565 2268 
Q 2250 2553 1709 2553 
Q 1456 2553 1204 2497 
Q 953 2441 691 2322 
L 691 4666 
z
" transform="scale(0.015625)"/>
       </defs>
       <use xlink:href="#DejaVuSans-35"/>
       <use xlink:href="#DejaVuSans-30" x="63.623047"/>
      </g>
     </g>
    </g>
    <g id="xtick_7">
     <g id="text_7">
      <!-- 60 -->
      <g transform="translate(959.585899 366.30265) scale(0.08 -0.08)">
       <defs>
        <path id="DejaVuSans-36" d="M 2113 2584 
Q 1688 2584 1439 2293 
Q 1191 2003 1191 1497 
Q 1191 994 1439 701 
Q 1688 409 2113 409 
Q 2538 409 2786 701 
Q 3034 994 3034 1497 
Q 3034 2003 2786 2293 
Q 2538 2584 2113 2584 
z
M 3366 4563 
L 3366 3988 
Q 3128 4100 2886 4159 
Q 2644 4219 2406 4219 
Q 1781 4219 1451 3797 
Q 1122 3375 1075 2522 
Q 1259 2794 1537 2939 
Q 1816 3084 2150 3084 
Q 2853 3084 3261 2657 
Q 3669 2231 3669 1497 
Q 3669 778 3244 343 
Q 2819 -91 2113 -91 
Q 1303 -91 875 529 
Q 447 1150 447 2328 
Q 447 3434 972 4092 
Q 1497 4750 2381 4750 
Q 2619 4750 2861 4703 
Q 3103 4656 3366 4563 
z
" transform="scale(0.015625)"/>
       </defs>
       <use xlink:href="#DejaVuSans-36"/>
       <use xlink:href="#DejaVuSans-30" x="63.623047"/>
      </g>
     </g>
    </g>
    <g id="text_8">
     <!-- Position (bp) -->
     <g transform="translate(484.285 379.564837) scale(0.1 -0.1)">
      <defs>
       <path id="DejaVuSans-50" d="M 1259 4147 
L 1259 2394 
L 2053 2394 
Q 2494 2394 2734 2622 
Q 2975 2850 2975 3272 
Q 2975 3691 2734 3919 
Q 2494 4147 2053 4147 
L 1259 4147 
z
M 628 4666 
L 2053 4666 
Q 2838 4666 3239 4311 
Q 3641 3956 3641 3272 
Q 3641 2581 3239 2228 
Q 2838 1875 2053 1875 
L 1259 1875 
L 1259 0 
L 628 0 
L 628 4666 
z
" transform="scale(0.015625)"/>
       <path id="DejaVuSans-6f" d="M 1959 3097 
Q 1497 3097 1228 2736 
Q 959 2375 959 1747 
Q 959 1119 1226 758 
Q 1494 397 1959 397 
Q 2419 397 2687 759 
Q 2956 1122 2956 1747 
Q 2956 2369 2687 2733 
Q 2419 3097 1959 3097 
z
M 1959 3584 
Q 2709 3584 3137 3096 
Q 3566 2609 3566 1747 
Q 3566 888 3137 398 
Q 2709 -91 1959 -91 
Q 1206 -91 779 398 
Q 353 888 353 1747 
Q 353 2609 779 3096 
Q 1206 3584 1959 3584 
z
" transform="scale(0.015625)"/>
       <path id="DejaVuSans-73" d="M 2834 3397 
L 2834 2853 
Q 2591 2978 2328 3040 
Q 2066 3103 1784 3103 
Q 1356 3103 1142 2972 
Q 928 2841 928 2578 
Q 928 2378 1081 2264 
Q 1234 2150 1697 2047 
L 1894 2003 
Q 2506 1872 2764 1633 
Q 3022 1394 3022 966 
Q 3022 478 2636 193 
Q 2250 -91 1575 -91 
Q 1294 -91 989 -36 
Q 684 19 347 128 
L 347 722 
Q 666 556 975 473 
Q 1284 391 1588 391 
Q 1994 391 2212 530 
Q 2431 669 2431 922 
Q 2431 1156 2273 1281 
Q 2116 1406 1581 1522 
L 1381 1569 
Q 847 1681 609 1914 
Q 372 2147 372 2553 
Q 372 3047 722 3315 
Q 1072 3584 1716 3584 
Q 2034 3584 2315 3537 
Q 2597 3491 2834 3397 
z
" transform="scale(0.015625)"/>
       <path id="DejaVuSans-69" d="M 603 3500 
L 1178 3500 
L 1178 0 
L 603 0 
L 603 3500 
z
M 603 4863 
L 1178 4863 
L 1178 4134 
L 603 4134 
L 603 4863 
z
" transform="scale(0.015625)"/>
       <path id="DejaVuSans-74" d="M 1172 4494 
L 1172 3500 
L 2356 3500 
L 2356 3053 
L 1172 3053 
L 1172 1153 
Q 1172 725 1289 603 
Q 1406 481 1766 481 
L 2356 481 
L 2356 0 
L 1766 0 
Q 1100 0 847 248 
Q 594 497 594 1153 
L 594 3053 
L 172 3053 
L 172 3500 
L 594 3500 
L 594 4494 
L 1172 4494 
z
" transform="scale(0.015625)"/>
       <path id="DejaVuSans-6e" d="M 3513 2113 
L 3513 0 
L 2938 0 
L 2938 2094 
Q 2938 2591 2744 2837 
Q 2550 3084 2163 3084 
Q 1697 3084 1428 2787 
Q 1159 2491 1159 1978 
L 1159 0 
L 581 0 
L 581 3500 
L 1159 3500 
L 1159 2956 
Q 1366 3272 1645 3428 
Q 1925 3584 2291 3584 
Q 2894 3584 3203 3211 
Q 3513 2838 3513 2113 
z
" transform="scale(0.015625)"/>
       <path id="DejaVuSans-20" transform="scale(0.015625)"/>
       <path id="DejaVuSans-28" d="M 1984 4856 
Q 1566 4138 1362 3434 
Q 1159 2731 1159 2009 
Q 1159 1288 1364 580 
Q 1569 -128 1984 -844 
L 1484 -844 
Q 1016 -109 783 600 
Q 550 1309 550 2009 
Q 550 2706 781 3412 
Q 1013 4119 1484 4856 
L 1984 4856 
z
" transform="scale(0.015625)"/>
       <path id="DejaVuSans-62" d="M 3116 1747 
Q 3116 2381 2855 2742 
Q 2594 3103 2138 3103 
Q 1681 3103 1420 2742 
Q 1159 2381 1159 1747 
Q 1159 1113 1420 752 
Q 1681 391 2138 391 
Q 2594 391 2855 752 
Q 3116 1113 3116 1747 
z
M 1159 2969 
Q 1341 3281 1617 3432 
Q 1894 3584 2278 3584 
Q 2916 3584 3314 3078 
Q 3713 2572 3713 1747 
Q 3713 922 3314 415 
Q 2916 -91 2278 -91 
Q 1894 -91 1617 61 
Q 1341 213 1159 525 
L 1159 0 
L 581 0 
L 581 4863 
L 1159 4863 
L 1159 2969 
z
" transform="scale(0.015625)"/>
       <path id="DejaVuSans-70" d="M 1159 525 
L 1159 -1331 
L 581 -1331 
L 581 3500 
L 1159 3500 
L 1159 2969 
Q 1341 3281 1617 3432 
Q 1894 3584 2278 3584 
Q 2916 3584 3314 3078 
Q 3713 2572 3713 1747 
Q 3713 922 3314 415 
Q 2916 -91 2278 -91 
Q 1894 -91 1617 61 
Q 1341 213 1159 525 
z
M 3116 1747 
Q 3116 2381 2855 2742 
Q 2594 3103 2138 3103 
Q 1681 3103 1420 2742 
Q 1159 2381 1159 1747 
Q 1159 1113 1420 752 
Q 1681 391 2138 391 
Q 2594 391 2855 752 
Q 3116 1113 3116 1747 
z
" transform="scale(0.015625)"/>
       <path id="DejaVuSans-29" d="M 513 4856 
L 1013 4856 
Q 1481 4119 1714 3412 
Q 1947 2706 1947 2009 
Q 1947 1309 1714 600 
Q 1481 -109 1013 -844 
L 513 -844 
Q 928 -128 1133 580 
Q 1338 1288 1338 2009 
Q 1338 2731 1133 3434 
Q 928 4138 513 4856 
z
" transform="scale(0.015625)"/>
      </defs>
      <use xlink:href="#DejaVuSans-50"/>
      <use xlink:href="#DejaVuSans-6f" x="56.677734"/>
      <use xlink:href="#DejaVuSans-73" x="117.859375"/>
      <use xlink:href="#DejaVuSans-69" x="169.958984"/>
      <use xlink:href="#DejaVuSans-74" x="197.742188"/>
      <use xlink:href="#DejaVuSans-69" x="236.951172"/>
      <use xlink:href="#DejaVuSans-6f" x="264.734375"/>
      <use xlink:href="#DejaVuSans-6e" x="325.916016"/>
      <use xlink:href="#DejaVuSans-20" x="389.294922"/>
      <use xlink:href="#DejaVuSans-28" x="421.082031"/>
      <use xlink:href="#DejaVuSans-62" x="460.095703"/>
      <use xlink:href="#DejaVuSans-70" x="523.572266"/>
      <use xlink:href="#DejaVuSans-29" x="587.048828"/>
     </g>
    </g>
   </g>
   <g id="matplotlib.axis_2">
    <g id="ytick_1">
     <g id="line2d_1">
      <path d="M 38.058125 353.2239 
L 993.118125 353.2239 
" clip-path="url(#p5f4114340c)" style="fill: none; stroke: #dedede; stroke-linecap: square"/>
     </g>
     <g id="text_9">
      <!-- 0 -->
      <g transform="translate(25.968125 356.263275) scale(0.08 -0.08)">
       <use xlink:href="#DejaVuSans-30"/>
      </g>
     </g>
    </g>
    <g id="ytick_2">
     <g id="line2d_2">
      <path d="M 38.058125 310.678648 
L 993.118125 310.678648 
" clip-path="url(#p5f4114340c)" style="fill: none; stroke: #dedede; stroke-linecap: square"/>
     </g>
     <g id="text_10">
      <!-- 5 -->
      <g transform="translate(25.968125 313.718023) scale(0.08 -0.08)">
       <use xlink:href="#DejaVuSans-35"/>
      </g>
     </g>
    </g>
    <g id="ytick_3">
     <g id="line2d_3">
      <path d="M 38.058125 268.133396 
L 993.118125 268.133396 
" clip-path="url(#p5f4114340c)" style="fill: none; stroke: #dedede; stroke-linecap: square"/>
     </g>
     <g id="text_11">
      <!-- 10 -->
      <g transform="translate(20.878125 271.172771) scale(0.08 -0.08)">
       <use xlink:href="#DejaVuSans-31"/>
       <use xlink:href="#DejaVuSans-30" x="63.623047"/>
      </g>
     </g>
    </g>
    <g id="ytick_4">
     <g id="line2d_4">
      <path d="M 38.058125 225.588143 
L 993.118125 225.588143 
" clip-path="url(#p5f4114340c)" style="fill: none; stroke: #dedede; stroke-linecap: square"/>
     </g>
     <g id="text_12">
      <!-- 15 -->
      <g transform="translate(20.878125 228.627518) scale(0.08 -0.08)">
       <use xlink:href="#DejaVuSans-31"/>
       <use xlink:href="#DejaVuSans-35" x="63.623047"/>
      </g>
     </g>
    </g>
    <g id="ytick_5">
     <g id="line2d_5">
      <path d="M 38.058125 183.042891 
L 993.118125 183.042891 
" clip-path="url(#p5f4114340c)" style="fill: none; stroke: #dedede; stroke-linecap: square"/>
     </g>
     <g id="text_13">
      <!-- 20 -->
      <g transform="translate(20.878125 186.082266) scale(0.08 -0.08)">
       <use xlink:href="#DejaVuSans-32"/>
       <use xlink:href="#DejaVuSans-30" x="63.623047"/>
      </g>
     </g>
    </g>
    <g id="ytick_6">
     <g id="line2d_6">
      <path d="M 38.058125 140.497639 
L 993.118125 140.497639 
" clip-path="url(#p5f4114340c)" style="fill: none; stroke: #dedede; stroke-linecap: square"/>
     </g>
     <g id="text_14">
      <!-- 25 -->
      <g transform="translate(20.878125 143.537014) scale(0.08 -0.08)">
       <use xlink:href="#DejaVuSans-32"/>
       <use xlink:href="#DejaVuSans-35" x="63.623047"/>
      </g>
     </g>
    </g>
    <g id="ytick_7">
     <g id="line2d_7">
      <path d="M 38.058125 97.952387 
L 993.118125 97.952387 
" clip-path="url(#p5f4114340c)" style="fill: none; stroke: #dedede; stroke-linecap: square"/>
     </g>
     <g id="text_15">
      <!-- 30 -->
      <g transform="translate(20.878125 100.991762) scale(0.08 -0.08)">
       <use xlink:href="#DejaVuSans-33"/>
       <use xlink:href="#DejaVuSans-30" x="63.623047"/>
      </g>
     </g>
    </g>
    <g id="ytick_8">
     <g id="line2d_8">
      <path d="M 38.058125 55.407135 
L 993.118125 55.407135 
" clip-path="url(#p5f4114340c)" style="fill: none; stroke: #dedede; stroke-linecap: square"/>
     </g>
     <g id="text_16">
      <!-- 35 -->
      <g transform="translate(20.878125 58.44651) scale(0.08 -0.08)">
       <use xlink:href="#DejaVuSans-33"/>
       <use xlink:href="#DejaVuSans-35" x="63.623047"/>
      </g>
     </g>
    </g>
    <g id="text_17">
     <!-- Phred Score -->
     <g transform="translate(14.798438 224.20865) rotate(-90) scale(0.1 -0.1)">
      <defs>
       <path id="DejaVuSans-68" d="M 3513 2113 
L 3513 0 
L 2938 0 
L 2938 2094 
Q 2938 2591 2744 2837 
Q 2550 3084 2163 3084 
Q 1697 3084 1428 2787 
Q 1159 2491 1159 1978 
L 1159 0 
L 581 0 
L 581 4863 
L 1159 4863 
L 1159 2956 
Q 1366 3272 1645 3428 
Q 1925 3584 2291 3584 
Q 2894 3584 3203 3211 
Q 3513 2838 3513 2113 
z
" transform="scale(0.015625)"/>
       <path id="DejaVuSans-72" d="M 2631 2963 
Q 2534 3019 2420 3045 
Q 2306 3072 2169 3072 
Q 1681 3072 1420 2755 
Q 1159 2438 1159 1844 
L 1159 0 
L 581 0 
L 581 3500 
L 1159 3500 
L 1159 2956 
Q 1341 3275 1631 3429 
Q 1922 3584 2338 3584 
Q 2397 3584 2469 3576 
Q 2541 3569 2628 3553 
L 2631 2963 
z
" transform="scale(0.015625)"/>
       <path id="DejaVuSans-65" d="M 3597 1894 
L 3597 1613 
L 953 1613 
Q 991 1019 1311 708 
Q 1631 397 2203 397 
Q 2534 397 2845 478 
Q 3156 559 3463 722 
L 3463 178 
Q 3153 47 2828 -22 
Q 2503 -91 2169 -91 
Q 1331 -91 842 396 
Q 353 884 353 1716 
Q 353 2575 817 3079 
Q 1281 3584 2069 3584 
Q 2775 3584 3186 3129 
Q 3597 2675 3597 1894 
z
M 3022 2063 
Q 3016 2534 2758 2815 
Q 2500 3097 2075 3097 
Q 1594 3097 1305 2825 
Q 1016 2553 972 2059 
L 3022 2063 
z
" transform="scale(0.015625)"/>
       <path id="DejaVuSans-64" d="M 2906 2969 
L 2906 4863 
L 3481 4863 
L 3481 0 
L 2906 0 
L 2906 525 
Q 2725 213 2448 61 
Q 2172 -91 1784 -91 
Q 1150 -91 751 415 
Q 353 922 353 1747 
Q 353 2572 751 3078 
Q 1150 3584 1784 3584 
Q 2172 3584 2448 3432 
Q 2725 3281 2906 2969 
z
M 947 1747 
Q 947 1113 1208 752 
Q 1469 391 1925 391 
Q 2381 391 2643 752 
Q 2906 1113 2906 1747 
Q 2906 2381 2643 2742 
Q 2381 3103 1925 3103 
Q 1469 3103 1208 2742 
Q 947 2381 947 1747 
z
" transform="scale(0.015625)"/>
       <path id="DejaVuSans-53" d="M 3425 4513 
L 3425 3897 
Q 3066 4069 2747 4153 
Q 2428 4238 2131 4238 
Q 1616 4238 1336 4038 
Q 1056 3838 1056 3469 
Q 1056 3159 1242 3001 
Q 1428 2844 1947 2747 
L 2328 2669 
Q 3034 2534 3370 2195 
Q 3706 1856 3706 1288 
Q 3706 609 3251 259 
Q 2797 -91 1919 -91 
Q 1588 -91 1214 -16 
Q 841 59 441 206 
L 441 856 
Q 825 641 1194 531 
Q 1563 422 1919 422 
Q 2459 422 2753 634 
Q 3047 847 3047 1241 
Q 3047 1584 2836 1778 
Q 2625 1972 2144 2069 
L 1759 2144 
Q 1053 2284 737 2584 
Q 422 2884 422 3419 
Q 422 4038 858 4394 
Q 1294 4750 2059 4750 
Q 2388 4750 2728 4690 
Q 3069 4631 3425 4513 
z
" transform="scale(0.015625)"/>
       <path id="DejaVuSans-63" d="M 3122 3366 
L 3122 2828 
Q 2878 2963 2633 3030 
Q 2388 3097 2138 3097 
Q 1578 3097 1268 2742 
Q 959 2388 959 1747 
Q 959 1106 1268 751 
Q 1578 397 2138 397 
Q 2388 397 2633 464 
Q 2878 531 3122 666 
L 3122 134 
Q 2881 22 2623 -34 
Q 2366 -91 2075 -91 
Q 1284 -91 818 406 
Q 353 903 353 1747 
Q 353 2603 823 3093 
Q 1294 3584 2113 3584 
Q 2378 3584 2631 3529 
Q 2884 3475 3122 3366 
z
" transform="scale(0.015625)"/>
      </defs>
      <use xlink:href="#DejaVuSans-50"/>
      <use xlink:href="#DejaVuSans-68" x="60.302734"/>
      <use xlink:href="#DejaVuSans-72" x="123.681641"/>
      <use xlink:href="#DejaVuSans-65" x="162.544922"/>
      <use xlink:href="#DejaVuSans-64" x="224.068359"/>
      <use xlink:href="#DejaVuSans-20" x="287.544922"/>
      <use xlink:href="#DejaVuSans-53" x="319.332031"/>
      <use xlink:href="#DejaVuSans-63" x="382.808594"/>
      <use xlink:href="#DejaVuSans-6f" x="437.789062"/>
      <use xlink:href="#DejaVuSans-72" x="498.970703"/>
      <use xlink:href="#DejaVuSans-65" x="537.833984"/>
     </g>
    </g>
   </g>
   <g id="line2d_9">
    <path d="M 81.469943 61.244813 
L 96.439536 45.021938 
L 111.409128 45.712544 
L 126.378721 44.75061 
L 141.348313 44.677138 
L 156.317906 44.723144 
L 171.287498 44.962904 
L 186.257091 45.654098 
L 201.226683 45.028501 
L 216.196275 45.119365 
L 231.165868 44.916157 
L 246.13546 44.522812 
L 261.105053 44.955517 
L 276.074645 44.855497 
L 291.044238 44.910159 
L 306.01383 44.832931 
L 320.983423 44.86737 
L 335.953015 44.8863 
L 350.922608 44.998337 
L 365.8922 45.021521 
L 380.861793 45.021468 
L 395.831385 45.224578 
L 410.800978 45.189711 
L 425.77057 45.330432 
L 440.740163 45.523679 
L 455.709755 45.727533 
L 470.679348 45.820651 
L 485.64894 46.033729 
L 500.618533 45.964184 
L 515.588125 46.007052 
L 530.557717 46.031385 
L 545.52731 46.177245 
L 560.496902 46.069746 
L 575.466495 46.223285 
L 590.436087 46.175616 
L 605.40568 46.26737 
L 620.375272 46.335207 
L 635.344865 46.534144 
L 650.314457 46.550316 
L 665.28405 46.582321 
L 680.253642 46.632244 
L 695.223235 46.610679 
L 710.192827 46.67322 
L 725.16242 46.539318 
L 740.132012 46.640795 
L 755.101605 46.607055 
L 770.071197 46.69801 
L 785.04079 46.750254 
L 800.010382 46.859649 
L 814.979975 46.749971 
L 829.949567 46.673589 
L 844.919159 46.749692 
L 859.888752 46.715539 
L 874.858344 46.828294 
L 889.827937 46.949852 
L 904.797529 47.013496 
L 919.767122 47.526302 
" clip-path="url(#p5f4114340c)" style="fill: none; stroke: #5cb85c; stroke-linecap: square"/>
   </g>
   <g id="line2d_10">
    <path d="M 81.469943 61.238868 
L 96.439536 45.020258 
L 111.409128 45.7107 
L 126.378721 44.748115 
L 141.348313 44.675061 
L 156.317906 44.721812 
L 171.287498 44.961135 
L 186.257091 45.652947 
L 201.226683 45.026831 
L 216.196275 45.117028 
L 231.165868 44.914919 
L 246.13546 44.521619 
L 261.105053 44.954953 
L 276.074645 44.854865 
L 291.044238 44.909654 
L 306.01383 44.832334 
L 320.983423 44.862056 
L 335.953015 44.87257 
L 350.922608 44.997331 
L 365.8922 45.020338 
L 380.861793 45.021001 
L 395.831385 45.224019 
L 410.800978 45.189037 
L 425.77057 45.32857 
L 440.740163 45.520231 
L 455.709755 45.725109 
L 470.679348 45.818351 
L 485.64894 46.030891 
L 500.618533 45.961136 
L 515.588125 46.00326 
L 530.557717 46.027166 
L 545.52731 46.171654 
L 560.496902 46.063025 
L 575.466495 46.217168 
L 590.436087 46.168876 
L 605.40568 46.258569 
L 620.375272 46.32648 
L 635.344865 46.524495 
L 650.314457 46.539787 
L 665.28405 46.569381 
L 680.253642 46.615522 
L 695.223235 46.586242 
L 710.192827 46.654504 
L 725.16242 46.516872 
L 740.132012 46.608569 
L 755.101605 46.570232 
L 770.071197 46.659578 
L 785.04079 46.696624 
L 800.010382 46.7715 
L 814.979975 46.67198 
L 829.949567 46.595106 
L 844.919159 46.616466 
L 859.888752 46.514909 
L 874.858344 46.539864 
L 889.827937 46.402602 
L 904.797529 45.758337 
L 919.767122 43.040172 
" clip-path="url(#p5f4114340c)" style="fill: none; stroke: #5cb85c; stroke-linecap: square"/>
   </g>
   <g id="line2d_11">
    <path d="M 81.469943 112.023071 
L 96.439536 47.386552 
L 111.409128 48.782479 
L 126.378721 48.221651 
L 141.348313 48.216007 
L 156.317906 47.873323 
L 171.287498 48.168387 
L 186.257091 48.557961 
L 201.226683 47.710733 
L 216.196275 47.989943 
L 231.165868 47.843098 
L 246.13546 47.416268 
L 261.105053 47.75388 
L 276.074645 47.946647 
L 291.044238 48.16371 
L 306.01383 48.040987 
L 320.983423 47.910105 
L 335.953015 47.718032 
L 350.922608 47.831646 
L 365.8922 48.034285 
L 380.861793 48.122634 
L 395.831385 48.169626 
L 410.800978 48.310185 
L 425.77057 48.496206 
L 440.740163 48.727678 
L 455.709755 48.781974 
L 470.679348 48.635046 
L 485.64894 48.673347 
L 500.618533 48.779645 
L 515.588125 48.803664 
L 530.557717 48.95306 
L 545.52731 49.328207 
L 560.496902 49.21038 
L 575.466495 49.304063 
L 590.436087 49.177671 
L 605.40568 49.17923 
L 620.375272 49.300083 
L 635.344865 49.282431 
L 650.314457 49.475491 
L 665.28405 49.561219 
L 680.253642 49.619044 
L 695.223235 49.493109 
L 710.192827 49.683611 
L 725.16242 49.748608 
L 740.132012 49.979951 
L 755.101605 49.820099 
L 770.071197 49.761855 
L 785.04079 49.963504 
L 800.010382 50.20735 
L 814.979975 50.127182 
L 829.949567 50.438407 
L 844.919159 50.351959 
L 859.888752 50.35771 
L 874.858344 50.251064 
L 889.827937 50.486031 
L 904.797529 50.427268 
L 919.767122 51.085878 
" clip-path="url(#p5f4114340c)" style="fill: none; stroke: #5cb85c; stroke-linecap: square"/>
   </g>
   <g id="line2d_12">
    <path d="M 81.469943 112.035373 
L 96.439536 47.368114 
L 111.409128 48.762758 
L 126.378721 48.198171 
L 141.348313 48.187349 
L 156.317906 47.839285 
L 171.287498 48.128988 
L 186.257091 48.513809 
L 201.226683 47.664439 
L 216.196275 47.940248 
L 231.165868 47.793063 
L 246.13546 47.361876 
L 261.105053 47.698147 
L 276.074645 47.889346 
L 291.044238 48.104895 
L 306.01383 47.980843 
L 320.983423 47.847875 
L 335.953015 47.652976 
L 350.922608 47.766341 
L 365.8922 47.965967 
L 380.861793 48.051331 
L 395.831385 48.096776 
L 410.800978 48.234063 
L 425.77057 48.41744 
L 440.740163 48.646458 
L 455.709755 48.698469 
L 470.679348 48.547283 
L 485.64894 48.582178 
L 500.618533 48.685198 
L 515.588125 48.704767 
L 530.557717 48.853668 
L 545.52731 49.225797 
L 560.496902 49.102875 
L 575.466495 49.190753 
L 590.436087 49.059873 
L 605.40568 49.058574 
L 620.375272 49.175927 
L 635.344865 49.156142 
L 650.314457 49.341821 
L 665.28405 49.417456 
L 680.253642 49.469881 
L 695.223235 49.337561 
L 710.192827 49.516553 
L 725.16242 49.57465 
L 740.132012 49.794658 
L 755.101605 49.620275 
L 770.071197 49.54773 
L 785.04079 49.73075 
L 800.010382 49.953799 
L 814.979975 49.841318 
L 829.949567 50.105696 
L 844.919159 49.94943 
L 859.888752 49.826155 
L 874.858344 49.502084 
L 889.827937 49.311508 
L 904.797529 48.141663 
L 919.767122 44.227773 
" clip-path="url(#p5f4114340c)" style="fill: none; stroke: #5cb85c; stroke-linecap: square"/>
   </g>
   <g id="line2d_13">
    <path d="M 81.469943 63.189643 
L 96.439536 45.16526 
L 111.409128 46.00221 
L 126.378721 45.027436 
L 141.348313 44.876666 
L 156.317906 44.989063 
L 171.287498 45.172383 
L 186.257091 45.959071 
L 201.226683 45.279306 
L 216.196275 45.376471 
L 231.165868 45.051431 
L 246.13546 44.750298 
L 261.105053 45.213978 
L 276.074645 45.081452 
L 291.044238 45.103435 
L 306.01383 44.979772 
L 320.983423 45.005045 
L 335.953015 45.039896 
L 350.922608 45.125297 
L 365.8922 45.150573 
L 380.861793 45.13768 
L 395.831385 45.345359 
L 410.800978 45.316797 
L 425.77057 45.475666 
L 440.740163 45.650436 
L 455.709755 45.871359 
L 470.679348 46.006744 
L 485.64894 46.173577 
L 500.618533 46.12332 
L 515.588125 46.152459 
L 530.557717 46.143125 
L 545.52731 46.30398 
L 560.496902 46.204613 
L 575.466495 46.338283 
L 590.436087 46.300333 
L 605.40568 46.384345 
L 620.375272 46.485227 
L 635.344865 46.656942 
L 650.314457 46.679351 
L 665.28405 46.678726 
L 680.253642 46.738077 
L 695.223235 46.650119 
L 710.192827 46.727448 
L 725.16242 46.617397 
L 740.132012 46.71675 
L 755.101605 46.69743 
L 770.071197 46.784241 
L 785.04079 46.876837 
L 800.010382 46.949314 
L 814.979975 46.801403 
L 829.949567 46.771613 
L 844.919159 46.860649 
L 859.888752 46.764636 
L 874.858344 46.897362 
L 889.827937 47.035001 
L 904.797529 47.133141 
L 919.767122 47.632012 
" clip-path="url(#p5f4114340c)" style="fill: none; stroke: #5cb85c; stroke-linecap: square"/>
   </g>
   <g id="line2d_14">
    <path d="M 81.469943 63.184435 
L 96.439536 45.163708 
L 111.409128 45.9998 
L 126.378721 45.024064 
L 141.348313 44.874422 
L 156.317906 44.986166 
L 171.287498 45.171182 
L 186.257091 45.956885 
L 201.226683 45.277619 
L 216.196275 45.37462 
L 231.165868 45.04843 
L 246.13546 44.749825 
L 261.105053 45.212735 
L 276.074645 45.080883 
L 291.044238 45.102908 
L 306.01383 44.979005 
L 320.983423 44.991709 
L 335.953015 45.036755 
L 350.922608 45.123324 
L 365.8922 45.1497 
L 380.861793 45.137135 
L 395.831385 45.343912 
L 410.800978 45.316874 
L 425.77057 45.47091 
L 440.740163 45.64848 
L 455.709755 45.868888 
L 470.679348 46.004208 
L 485.64894 46.171464 
L 500.618533 46.120446 
L 515.588125 46.147886 
L 530.557717 46.139182 
L 545.52731 46.287355 
L 560.496902 46.197184 
L 575.466495 46.332618 
L 590.436087 46.292783 
L 605.40568 46.375503 
L 620.375272 46.476668 
L 635.344865 46.648227 
L 650.314457 46.66847 
L 665.28405 46.663782 
L 680.253642 46.723623 
L 695.223235 46.633602 
L 710.192827 46.705408 
L 725.16242 46.595812 
L 740.132012 46.692094 
L 755.101605 46.664421 
L 770.071197 46.747831 
L 785.04079 46.785076 
L 800.010382 46.843349 
L 814.979975 46.732073 
L 829.949567 46.652941 
L 844.919159 46.7 
L 859.888752 46.573328 
L 874.858344 46.581251 
L 889.827937 46.435828 
L 904.797529 45.866801 
L 919.767122 43.075441 
" clip-path="url(#p5f4114340c)" style="fill: none; stroke: #5cb85c; stroke-linecap: square"/>
   </g>
   <g id="line2d_15">
    <path d="M 81.469943 117.008771 
L 96.439536 47.809987 
L 111.409128 49.242642 
L 126.378721 48.91563 
L 141.348313 48.965895 
L 156.317906 48.62713 
L 171.287498 48.968179 
L 186.257091 49.348503 
L 201.226683 48.611078 
L 216.196275 48.946675 
L 231.165868 48.756268 
L 246.13546 48.26713 
L 261.105053 48.647437 
L 276.074645 48.857504 
L 291.044238 49.177746 
L 306.01383 48.993318 
L 320.983423 48.856266 
L 335.953015 48.706357 
L 350.922608 48.861546 
L 365.8922 49.057057 
L 380.861793 49.201427 
L 395.831385 49.228318 
L 410.800978 49.335352 
L 425.77057 49.493842 
L 440.740163 49.792047 
L 455.709755 49.905722 
L 470.679348 49.685348 
L 485.64894 49.78925 
L 500.618533 49.833242 
L 515.588125 49.87711 
L 530.557717 50.013073 
L 545.52731 50.42719 
L 560.496902 50.27945 
L 575.466495 50.370242 
L 590.436087 50.208482 
L 605.40568 50.223677 
L 620.375272 50.325532 
L 635.344865 50.347281 
L 650.314457 50.518953 
L 665.28405 50.673666 
L 680.253642 50.745852 
L 695.223235 50.647779 
L 710.192827 50.852743 
L 725.16242 50.886054 
L 740.132012 51.23176 
L 755.101605 50.985507 
L 770.071197 50.875261 
L 785.04079 51.065722 
L 800.010382 51.392605 
L 814.979975 51.205839 
L 829.949567 51.568686 
L 844.919159 51.457191 
L 859.888752 51.488225 
L 874.858344 51.335349 
L 889.827937 51.6767 
L 904.797529 51.561244 
L 919.767122 52.233579 
" clip-path="url(#p5f4114340c)" style="fill: none; stroke: #5cb85c; stroke-linecap: square"/>
   </g>
   <g id="line2d_16">
    <path d="M 81.469943 117.014127 
L 96.439536 47.784796 
L 111.409128 49.224027 
L 126.378721 48.874345 
L 141.348313 48.930778 
L 156.317906 48.585819 
L 171.287498 48.925994 
L 186.257091 49.296288 
L 201.226683 48.559919 
L 216.196275 48.894262 
L 231.165868 48.700164 
L 246.13546 48.207712 
L 261.105053 48.585402 
L 276.074645 48.793461 
L 291.044238 49.113371 
L 306.01383 48.927387 
L 320.983423 48.78693 
L 335.953015 48.634699 
L 350.922608 48.787666 
L 365.8922 48.981153 
L 380.861793 49.119995 
L 395.831385 49.147648 
L 410.800978 49.249396 
L 425.77057 49.403812 
L 440.740163 49.700033 
L 455.709755 49.81231 
L 470.679348 49.587357 
L 485.64894 49.687594 
L 500.618533 49.728734 
L 515.588125 49.768666 
L 530.557717 49.90354 
L 545.52731 50.314214 
L 560.496902 50.15865 
L 575.466495 50.247634 
L 590.436087 50.082286 
L 605.40568 50.091822 
L 620.375272 50.186763 
L 635.344865 50.195612 
L 650.314457 50.36917 
L 665.28405 50.50736 
L 680.253642 50.55951 
L 695.223235 50.457416 
L 710.192827 50.663843 
L 725.16242 50.692238 
L 740.132012 51.021607 
L 755.101605 50.764242 
L 770.071197 50.635503 
L 785.04079 50.808818 
L 800.010382 51.108945 
L 814.979975 50.890848 
L 829.949567 51.205171 
L 844.919159 51.021661 
L 859.888752 50.916552 
L 874.858344 50.541019 
L 889.827937 50.429344 
L 904.797529 49.144709 
L 919.767122 44.824942 
" clip-path="url(#p5f4114340c)" style="fill: none; stroke: #5cb85c; stroke-linecap: square"/>
   </g>
   <g id="line2d_17">
    <path d="M 81.469943 61.152427 
L 96.439536 44.868867 
L 111.409128 45.592673 
L 126.378721 44.674797 
L 141.348313 44.603918 
L 156.317906 44.698367 
L 171.287498 44.955596 
L 186.257091 45.68424 
L 201.226683 45.019323 
L 216.196275 45.085381 
L 231.165868 44.832364 
L 246.13546 44.535259 
L 261.105053 44.889817 
L 276.074645 44.833621 
L 291.044238 44.897446 
L 306.01383 44.79628 
L 320.983423 44.819442 
L 335.953015 44.831635 
L 350.922608 44.961006 
L 365.8922 44.970442 
L 380.861793 44.961757 
L 395.831385 45.154296 
L 410.800978 45.130579 
L 425.77057 45.291853 
L 440.740163 45.463576 
L 455.709755 45.661328 
L 470.679348 45.772239 
L 485.64894 45.983843 
L 500.618533 45.873051 
L 515.588125 45.922578 
L 530.557717 45.951625 
L 545.52731 46.098658 
L 560.496902 46.000781 
L 575.466495 46.160529 
L 590.436087 46.082476 
L 605.40568 46.16706 
L 620.375272 46.231404 
L 635.344865 46.435161 
L 650.314457 46.440726 
L 665.28405 46.458851 
L 680.253642 46.518639 
L 695.223235 46.50697 
L 710.192827 46.535592 
L 725.16242 46.422812 
L 740.132012 46.520032 
L 755.101605 46.488473 
L 770.071197 46.546213 
L 785.04079 46.622381 
L 800.010382 46.708273 
L 814.979975 46.586873 
L 829.949567 46.534644 
L 844.919159 46.630061 
L 859.888752 46.572959 
L 874.858344 46.722354 
L 889.827937 46.806183 
L 904.797529 46.873565 
L 919.767122 47.294767 
" clip-path="url(#p5f4114340c)" style="fill: none; stroke: #5cb85c; stroke-linecap: square"/>
   </g>
   <g id="line2d_18">
    <path d="M 81.469943 61.149202 
L 96.439536 44.867356 
L 111.409128 45.591304 
L 126.378721 44.673195 
L 141.348313 44.602396 
L 156.317906 44.69677 
L 171.287498 44.954369 
L 186.257091 45.683207 
L 201.226683 45.017691 
L 216.196275 45.083822 
L 231.165868 44.831068 
L 246.13546 44.53368 
L 261.105053 44.88896 
L 276.074645 44.832391 
L 291.044238 44.896534 
L 306.01383 44.79546 
L 320.983423 44.812533 
L 335.953015 44.823941 
L 350.922608 44.959725 
L 365.8922 44.969145 
L 380.861793 44.961203 
L 395.831385 45.153103 
L 410.800978 45.129498 
L 425.77057 45.289926 
L 440.740163 45.461186 
L 455.709755 45.658845 
L 470.679348 45.769633 
L 485.64894 45.980456 
L 500.618533 45.869372 
L 515.588125 45.917899 
L 530.557717 45.946322 
L 545.52731 46.092732 
L 560.496902 45.993422 
L 575.466495 46.152994 
L 590.436087 46.073855 
L 605.40568 46.157435 
L 620.375272 46.2214 
L 635.344865 46.423655 
L 650.314457 46.427292 
L 665.28405 46.443445 
L 680.253642 46.502756 
L 695.223235 46.488399 
L 710.192827 46.514658 
L 725.16242 46.399324 
L 740.132012 46.493307 
L 755.101605 46.457723 
L 770.071197 46.510519 
L 785.04079 46.573961 
L 800.010382 46.645592 
L 814.979975 46.523406 
L 829.949567 46.449444 
L 844.919159 46.502066 
L 859.888752 46.386035 
L 874.858344 46.428474 
L 889.827937 46.285072 
L 904.797529 45.710192 
L 919.767122 42.934917 
" clip-path="url(#p5f4114340c)" style="fill: none; stroke: #5cb85c; stroke-linecap: square"/>
   </g>
   <g id="line2d_19">
    <path d="M 81.469943 96.14698 
L 96.439536 46.690262 
L 111.409128 47.750384 
L 126.378721 47.151071 
L 141.348313 47.376837 
L 156.317906 47.110921 
L 171.287498 47.423768 
L 186.257091 47.830996 
L 201.226683 46.99705 
L 216.196275 47.226552 
L 231.165868 47.100653 
L 246.13546 46.756191 
L 261.105053 47.034956 
L 276.074645 47.219116 
L 291.044238 47.402984 
L 306.01383 47.323527 
L 320.983423 47.199647 
L 335.953015 47.060663 
L 350.922608 47.17605 
L 365.8922 47.368071 
L 380.861793 47.438066 
L 395.831385 47.480379 
L 410.800978 47.55735 
L 425.77057 47.74786 
L 440.740163 47.963011 
L 455.709755 48.026067 
L 470.679348 47.892779 
L 485.64894 47.970358 
L 500.618533 48.037431 
L 515.588125 48.053089 
L 530.557717 48.171356 
L 545.52731 48.536866 
L 560.496902 48.417428 
L 575.466495 48.503451 
L 590.436087 48.352077 
L 605.40568 48.377181 
L 620.375272 48.464641 
L 635.344865 48.488688 
L 650.314457 48.679039 
L 665.28405 48.765353 
L 680.253642 48.831218 
L 695.223235 48.716142 
L 710.192827 48.872667 
L 725.16242 48.974085 
L 740.132012 49.193333 
L 755.101605 49.041049 
L 770.071197 48.994221 
L 785.04079 49.153408 
L 800.010382 49.367386 
L 814.979975 49.293356 
L 829.949567 49.543778 
L 844.919159 49.460687 
L 859.888752 49.475922 
L 874.858344 49.390476 
L 889.827937 49.600442 
L 904.797529 49.511693 
L 919.767122 50.012698 
" clip-path="url(#p5f4114340c)" style="fill: none; stroke: #5cb85c; stroke-linecap: square"/>
   </g>
   <g id="line2d_20">
    <path d="M 81.469943 96.145722 
L 96.439536 46.672219 
L 111.409128 47.730943 
L 126.378721 47.126365 
L 141.348313 47.348158 
L 156.317906 47.077739 
L 171.287498 47.385923 
L 186.257091 47.788446 
L 201.226683 46.952765 
L 216.196275 47.179045 
L 231.165868 47.051465 
L 246.13546 46.703773 
L 261.105053 46.98017 
L 276.074645 47.162354 
L 291.044238 47.344612 
L 306.01383 47.264118 
L 320.983423 47.138301 
L 335.953015 46.997261 
L 350.922608 47.111596 
L 365.8922 47.301712 
L 380.861793 47.368708 
L 395.831385 47.409024 
L 410.800978 47.482838 
L 425.77057 47.670198 
L 440.740163 47.883594 
L 455.709755 47.943751 
L 470.679348 47.807406 
L 485.64894 47.881215 
L 500.618533 47.945575 
L 515.588125 47.957862 
L 530.557717 48.074309 
L 545.52731 48.438198 
L 560.496902 48.313111 
L 575.466495 48.396879 
L 590.436087 48.241134 
L 605.40568 48.26294 
L 620.375272 48.346511 
L 635.344865 48.366841 
L 650.314457 48.552121 
L 665.28405 48.631316 
L 680.253642 48.690608 
L 695.223235 48.566941 
L 710.192827 48.715608 
L 725.16242 48.812221 
L 740.132012 49.022589 
L 755.101605 48.860503 
L 770.071197 48.799449 
L 785.04079 48.943885 
L 800.010382 49.13636 
L 814.979975 49.034756 
L 829.949567 49.245285 
L 844.919159 49.100128 
L 859.888752 48.997143 
L 874.858344 48.717245 
L 889.827937 48.553871 
L 904.797529 47.507384 
L 919.767122 43.851133 
" clip-path="url(#p5f4114340c)" style="fill: none; stroke: #5cb85c; stroke-linecap: square"/>
   </g>
   <g id="line2d_21">
    <path d="M 81.469943 60.186599 
L 96.439536 45.074265 
L 111.409128 45.754595 
L 126.378721 44.82377 
L 141.348313 44.730397 
L 156.317906 44.735642 
L 171.287498 44.923697 
L 186.257091 45.540902 
L 201.226683 44.975446 
L 216.196275 45.054482 
L 231.165868 44.866015 
L 246.13546 44.536028 
L 261.105053 44.995665 
L 276.074645 44.902533 
L 291.044238 44.912121 
L 306.01383 44.82615 
L 320.983423 44.885281 
L 335.953015 44.870845 
L 350.922608 44.974661 
L 365.8922 44.982888 
L 380.861793 44.988261 
L 395.831385 45.146182 
L 410.800978 45.144371 
L 425.77057 45.297189 
L 440.740163 45.458594 
L 455.709755 45.690642 
L 470.679348 45.779633 
L 485.64894 45.973669 
L 500.618533 45.935131 
L 515.588125 45.968914 
L 530.557717 45.977051 
L 545.52731 46.13734 
L 560.496902 46.019553 
L 575.466495 46.155299 
L 590.436087 46.122587 
L 605.40568 46.18435 
L 620.375272 46.263525 
L 635.344865 46.477171 
L 650.314457 46.478874 
L 665.28405 46.494925 
L 680.253642 46.525936 
L 695.223235 46.547246 
L 710.192827 46.560018 
L 725.16242 46.429619 
L 740.132012 46.501027 
L 755.101605 46.464616 
L 770.071197 46.538541 
L 785.04079 46.576142 
L 800.010382 46.622807 
L 814.979975 46.56599 
L 829.949567 46.512087 
L 844.919159 46.554383 
L 859.888752 46.482787 
L 874.858344 46.627938 
L 889.827937 46.714936 
L 904.797529 46.812253 
L 919.767122 47.315793 
" clip-path="url(#p5f4114340c)" style="fill: none; stroke: #5cb85c; stroke-linecap: square"/>
   </g>
   <g id="line2d_22">
    <path d="M 81.469943 60.180645 
L 96.439536 45.072961 
L 111.409128 45.752958 
L 126.378721 44.821877 
L 141.348313 44.728846 
L 156.317906 44.73406 
L 171.287498 44.922351 
L 186.257091 45.539128 
L 201.226683 44.973555 
L 216.196275 45.052197 
L 231.165868 44.863828 
L 246.13546 44.535119 
L 261.105053 44.994539 
L 276.074645 44.90093 
L 291.044238 44.910577 
L 306.01383 44.824717 
L 320.983423 44.879963 
L 335.953015 44.865846 
L 350.922608 44.973654 
L 365.8922 44.981644 
L 380.861793 44.987345 
L 395.831385 45.1446 
L 410.800978 45.142863 
L 425.77057 45.294721 
L 440.740163 45.456003 
L 455.709755 45.687514 
L 470.679348 45.777421 
L 485.64894 45.970541 
L 500.618533 45.932077 
L 515.588125 45.96506 
L 530.557717 45.972721 
L 545.52731 46.132356 
L 560.496902 46.013724 
L 575.466495 46.14932 
L 590.436087 46.116545 
L 605.40568 46.176817 
L 620.375272 46.256093 
L 635.344865 46.46857 
L 650.314457 46.468298 
L 665.28405 46.483472 
L 680.253642 46.513257 
L 695.223235 46.533132 
L 710.192827 46.543866 
L 725.16242 46.411511 
L 740.132012 46.480118 
L 755.101605 46.440015 
L 770.071197 46.509461 
L 785.04079 46.537063 
L 800.010382 46.571786 
L 814.979975 46.5118 
L 829.949567 46.444343 
L 844.919159 46.454278 
L 859.888752 46.321085 
L 874.858344 46.355853 
L 889.827937 46.187063 
L 904.797529 45.617823 
L 919.767122 42.973989 
" clip-path="url(#p5f4114340c)" style="fill: none; stroke: #5cb85c; stroke-linecap: square"/>
   </g>
   <g id="line2d_23">
    <path d="M 81.469943 90.808902 
L 96.439536 46.080653 
L 111.409128 47.112237 
L 126.378721 46.744625 
L 141.348313 46.904879 
L 156.317906 46.719824 
L 171.287498 46.91483 
L 186.257091 47.396552 
L 201.226683 46.726663 
L 216.196275 47.027127 
L 231.165868 46.736624 
L 246.13546 46.490622 
L 261.105053 46.847096 
L 276.074645 46.950741 
L 291.044238 47.176741 
L 306.01383 47.090435 
L 320.983423 46.980769 
L 335.953015 46.841081 
L 350.922608 46.981477 
L 365.8922 47.186599 
L 380.861793 47.268219 
L 395.831385 47.26372 
L 410.800978 47.37561 
L 425.77057 47.590609 
L 440.740163 47.788928 
L 455.709755 47.917638 
L 470.679348 47.814454 
L 485.64894 47.827531 
L 500.618533 47.913677 
L 515.588125 47.948983 
L 530.557717 48.017222 
L 545.52731 48.384437 
L 560.496902 48.275136 
L 575.466495 48.356424 
L 590.436087 48.22966 
L 605.40568 48.272655 
L 620.375272 48.30916 
L 635.344865 48.383765 
L 650.314457 48.506841 
L 665.28405 48.576983 
L 680.253642 48.603059 
L 695.223235 48.546976 
L 710.192827 48.68091 
L 725.16242 48.782364 
L 740.132012 49.027044 
L 755.101605 48.858025 
L 770.071197 48.848875 
L 785.04079 49.016443 
L 800.010382 49.228341 
L 814.979975 49.222042 
L 829.949567 49.452142 
L 844.919159 49.356773 
L 859.888752 49.337072 
L 874.858344 49.2601 
L 889.827937 49.493397 
L 904.797529 49.47312 
L 919.767122 50.078368 
" clip-path="url(#p5f4114340c)" style="fill: none; stroke: #5cb85c; stroke-linecap: square"/>
   </g>
   <g id="line2d_24">
    <path d="M 81.469943 90.805251 
L 96.439536 46.0646 
L 111.409128 47.094322 
L 126.378721 46.721484 
L 141.348313 46.877039 
L 156.317906 46.686871 
L 171.287498 46.87803 
L 186.257091 47.354291 
L 201.226683 46.683092 
L 216.196275 46.97956 
L 231.165868 46.687141 
L 246.13546 46.438606 
L 261.105053 46.791696 
L 276.074645 46.8936 
L 291.044238 47.118463 
L 306.01383 47.0307 
L 320.983423 46.918559 
L 335.953015 46.776713 
L 350.922608 46.916126 
L 365.8922 47.119843 
L 380.861793 47.197998 
L 395.831385 47.192512 
L 410.800978 47.300033 
L 425.77057 47.511509 
L 440.740163 47.708049 
L 455.709755 47.834804 
L 470.679348 47.729168 
L 485.64894 47.737313 
L 500.618533 47.82195 
L 515.588125 47.853552 
L 530.557717 47.919709 
L 545.52731 48.284862 
L 560.496902 48.168329 
L 575.466495 48.248066 
L 590.436087 48.11723 
L 605.40568 48.154652 
L 620.375272 48.184561 
L 635.344865 48.253294 
L 650.314457 48.372408 
L 665.28405 48.430528 
L 680.253642 48.450419 
L 695.223235 48.388792 
L 710.192827 48.507296 
L 725.16242 48.602653 
L 740.132012 48.8328 
L 755.101605 48.652942 
L 770.071197 48.627116 
L 785.04079 48.778313 
L 800.010382 48.970267 
L 814.979975 48.934076 
L 829.949567 49.120465 
L 844.919159 48.958968 
L 859.888752 48.820141 
L 874.858344 48.558508 
L 889.827937 48.406334 
L 904.797529 47.406062 
L 919.767122 43.909744 
" clip-path="url(#p5f4114340c)" style="fill: none; stroke: #5cb85c; stroke-linecap: square"/>
   </g>
   <g id="line2d_25">
    <path d="M 81.469943 138.091909 
L 96.439536 52.340475 
L 111.409128 52.976526 
L 126.378721 50.623145 
L 141.348313 50.307874 
L 156.317906 50.521778 
L 171.287498 50.982825 
L 186.257091 52.508975 
L 201.226683 50.671289 
L 216.196275 50.767423 
L 231.165868 50.487364 
L 246.13546 49.57422 
L 261.105053 50.374225 
L 276.074645 50.250792 
L 291.044238 50.306301 
L 306.01383 50.163416 
L 320.983423 50.160191 
L 335.953015 50.13731 
L 350.922608 50.278327 
L 365.8922 50.312024 
L 380.861793 50.27796 
L 395.831385 50.587094 
L 410.800978 50.49642 
L 425.77057 50.750839 
L 440.740163 51.085132 
L 455.709755 51.450363 
L 470.679348 51.604074 
L 485.64894 51.981934 
L 500.618533 51.849991 
L 515.588125 51.952298 
L 530.557717 51.961912 
L 545.52731 52.254932 
L 560.496902 51.99607 
L 575.466495 52.251007 
L 590.436087 52.152399 
L 605.40568 52.196412 
L 620.375272 52.341909 
L 635.344865 52.619742 
L 650.314457 52.703367 
L 665.28405 52.72074 
L 680.253642 52.842485 
L 695.223235 52.803968 
L 710.192827 52.823713 
L 725.16242 52.580875 
L 740.132012 52.767627 
L 755.101605 52.656005 
L 770.071197 52.774799 
L 785.04079 52.849563 
L 800.010382 52.94971 
L 814.979975 52.670836 
L 829.949567 52.725673 
L 844.919159 52.754263 
L 859.888752 52.666781 
L 874.858344 52.931938 
L 889.827937 53.091828 
L 904.797529 53.165992 
L 919.767122 53.585376 
" clip-path="url(#p5f4114340c)" style="fill: none; stroke: #5cb85c; stroke-linecap: square"/>
   </g>
   <g id="line2d_26">
    <path d="M 81.469943 138.102799 
L 96.439536 52.339814 
L 111.409128 52.976403 
L 126.378721 50.621416 
L 141.348313 50.307191 
L 156.317906 50.520374 
L 171.287498 50.982952 
L 186.257091 52.508508 
L 201.226683 50.670246 
L 216.196275 50.766396 
L 231.165868 50.486559 
L 246.13546 49.574177 
L 261.105053 50.374434 
L 276.074645 50.250172 
L 291.044238 50.305875 
L 306.01383 50.163513 
L 320.983423 50.153132 
L 335.953015 50.132504 
L 350.922608 50.278309 
L 365.8922 50.311461 
L 380.861793 50.278599 
L 395.831385 50.586802 
L 410.800978 50.496306 
L 425.77057 50.74885 
L 440.740163 51.082812 
L 455.709755 51.448815 
L 470.679348 51.602836 
L 485.64894 51.980221 
L 500.618533 51.848844 
L 515.588125 51.949414 
L 530.557717 51.958332 
L 545.52731 52.249515 
L 560.496902 51.989482 
L 575.466495 52.244474 
L 590.436087 52.145425 
L 605.40568 52.188143 
L 620.375272 52.333406 
L 635.344865 52.610248 
L 650.314457 52.692817 
L 665.28405 52.708512 
L 680.253642 52.828191 
L 695.223235 52.786854 
L 710.192827 52.803765 
L 725.16242 52.557087 
L 740.132012 52.741122 
L 755.101605 52.623702 
L 770.071197 52.737086 
L 785.04079 52.800815 
L 800.010382 52.891166 
L 814.979975 52.604152 
L 829.949567 52.633938 
L 844.919159 52.617217 
L 859.888752 52.442797 
L 874.858344 52.553123 
L 889.827937 52.350948 
L 904.797529 51.34584 
L 919.767122 46.355911 
" clip-path="url(#p5f4114340c)" style="fill: none; stroke: #5cb85c; stroke-linecap: square"/>
   </g>
   <g id="line2d_27">
    <path d="M 81.469943 92.495726 
L 96.439536 43.125713 
L 111.409128 44.23134 
L 126.378721 43.832369 
L 141.348313 44.146988 
L 156.317906 44.001097 
L 171.287498 44.374821 
L 186.257091 44.40906 
L 201.226683 43.845926 
L 216.196275 44.039185 
L 231.165868 44.160661 
L 246.13546 43.65781 
L 261.105053 43.867469 
L 276.074645 44.080011 
L 291.044238 44.261702 
L 306.01383 44.197342 
L 320.983423 44.114935 
L 335.953015 44.0008 
L 350.922608 44.143678 
L 365.8922 44.278617 
L 380.861793 44.345228 
L 395.831385 44.363821 
L 410.800978 44.453591 
L 425.77057 44.591293 
L 440.740163 44.795595 
L 455.709755 44.815174 
L 470.679348 44.703598 
L 485.64894 44.780057 
L 500.618533 44.854957 
L 515.588125 44.885887 
L 530.557717 44.985526 
L 545.52731 45.272965 
L 560.496902 45.205852 
L 575.466495 45.252747 
L 590.436087 45.121541 
L 605.40568 45.163761 
L 620.375272 45.255755 
L 635.344865 45.231926 
L 650.314457 45.417604 
L 665.28405 45.500927 
L 680.253642 45.549654 
L 695.223235 45.447588 
L 710.192827 45.594278 
L 725.16242 45.632328 
L 740.132012 45.853718 
L 755.101605 45.702964 
L 770.071197 45.649808 
L 785.04079 45.808387 
L 800.010382 46.042957 
L 814.979975 45.919583 
L 829.949567 46.20924 
L 844.919159 46.125149 
L 859.888752 46.137787 
L 874.858344 46.061214 
L 889.827937 46.246138 
L 904.797529 46.06228 
L 919.767122 46.316023 
" clip-path="url(#p5f4114340c)" style="fill: none; stroke: #5cb85c; stroke-linecap: square"/>
   </g>
   <g id="line2d_28">
    <path d="M 81.469943 92.489815 
L 96.439536 43.110225 
L 111.409128 44.214934 
L 126.378721 43.810373 
L 141.348313 44.121186 
L 156.317906 43.970865 
L 171.287498 44.340206 
L 186.257091 44.367859 
L 201.226683 43.804047 
L 216.196275 43.993663 
L 231.165868 44.112985 
L 246.13546 43.608074 
L 261.105053 43.814257 
L 276.074645 44.02502 
L 291.044238 44.206066 
L 306.01383 44.140967 
L 320.983423 44.055841 
L 335.953015 43.940433 
L 350.922608 44.082695 
L 365.8922 44.215774 
L 380.861793 44.278906 
L 395.831385 44.296329 
L 410.800978 44.383156 
L 425.77057 44.518313 
L 440.740163 44.72032 
L 455.709755 44.738234 
L 470.679348 44.624877 
L 485.64894 44.698133 
L 500.618533 44.770413 
L 515.588125 44.798998 
L 530.557717 44.897818 
L 545.52731 45.182872 
L 560.496902 45.112545 
L 575.466495 45.157555 
L 590.436087 45.023471 
L 605.40568 45.062229 
L 620.375272 45.153203 
L 635.344865 45.12605 
L 650.314457 45.307498 
L 665.28405 45.385233 
L 680.253642 45.428464 
L 695.223235 45.32257 
L 710.192827 45.461472 
L 725.16242 45.49552 
L 740.132012 45.710053 
L 755.101605 45.552944 
L 770.071197 45.491945 
L 785.04079 45.640329 
L 800.010382 45.863965 
L 814.979975 45.726196 
L 829.949567 45.994107 
L 844.919159 45.88033 
L 859.888752 45.838873 
L 874.858344 45.67199 
L 889.827937 45.676796 
L 904.797529 45.001391 
L 919.767122 42.608442 
" clip-path="url(#p5f4114340c)" style="fill: none; stroke: #5cb85c; stroke-linecap: square"/>
   </g>
   <g id="line2d_29">
    <path d="M 81.469943 109.056486 
L 96.439536 49.619279 
L 111.409128 50.465189 
L 126.378721 48.593107 
L 141.348313 48.421229 
L 156.317906 48.528926 
L 171.287498 48.833045 
L 186.257091 50.00456 
L 201.226683 48.73371 
L 216.196275 48.847864 
L 231.165868 48.592692 
L 246.13546 47.890783 
L 261.105053 48.56192 
L 276.074645 48.37574 
L 291.044238 48.463142 
L 306.01383 48.297815 
L 320.983423 48.359431 
L 335.953015 48.292133 
L 350.922608 48.45367 
L 365.8922 48.482153 
L 380.861793 48.431728 
L 395.831385 48.732513 
L 410.800978 48.668051 
L 425.77057 48.881648 
L 440.740163 49.139737 
L 455.709755 49.490663 
L 470.679348 49.635249 
L 485.64894 49.929642 
L 500.618533 49.85963 
L 515.588125 49.918207 
L 530.557717 49.90894 
L 545.52731 50.17909 
L 560.496902 49.97867 
L 575.466495 50.149431 
L 590.436087 50.110577 
L 605.40568 50.151638 
L 620.375272 50.259915 
L 635.344865 50.529846 
L 650.314457 50.611373 
L 665.28405 50.615999 
L 680.253642 50.725421 
L 695.223235 50.672905 
L 710.192827 50.689398 
L 725.16242 50.498324 
L 740.132012 50.589378 
L 755.101605 50.52832 
L 770.071197 50.624816 
L 785.04079 50.640924 
L 800.010382 50.771329 
L 814.979975 50.611544 
L 829.949567 50.550547 
L 844.919159 50.549007 
L 859.888752 50.514056 
L 874.858344 50.720717 
L 889.827937 50.797085 
L 904.797529 50.92003 
L 919.767122 51.292226 
" clip-path="url(#p5f4114340c)" style="fill: none; stroke: #5cb85c; stroke-linecap: square"/>
   </g>
   <g id="line2d_30">
    <path d="M 81.469943 109.056242 
L 96.439536 49.618497 
L 111.409128 50.464964 
L 126.378721 48.59082 
L 141.348313 48.418765 
L 156.317906 48.527264 
L 171.287498 48.832726 
L 186.257091 50.003445 
L 201.226683 48.731819 
L 216.196275 48.845867 
L 231.165868 48.591583 
L 246.13546 47.890096 
L 261.105053 48.561945 
L 276.074645 48.375465 
L 291.044238 48.462073 
L 306.01383 48.297601 
L 320.983423 48.350783 
L 335.953015 48.284548 
L 350.922608 48.453735 
L 365.8922 48.480717 
L 380.861793 48.431564 
L 395.831385 48.731547 
L 410.800978 48.667538 
L 425.77057 48.878921 
L 440.740163 49.136632 
L 455.709755 49.487968 
L 470.679348 49.63316 
L 485.64894 49.927398 
L 500.618533 49.856845 
L 515.588125 49.9144 
L 530.557717 49.903663 
L 545.52731 50.172072 
L 560.496902 49.971227 
L 575.466495 50.142288 
L 590.436087 50.103542 
L 605.40568 50.142927 
L 620.375272 50.250536 
L 635.344865 50.518355 
L 650.314457 50.598511 
L 665.28405 50.60123 
L 680.253642 50.709089 
L 695.223235 50.654314 
L 710.192827 50.666914 
L 725.16242 50.471885 
L 740.132012 50.559396 
L 755.101605 50.492215 
L 770.071197 50.583168 
L 785.04079 50.586471 
L 800.010382 50.704341 
L 814.979975 50.539421 
L 829.949567 50.454775 
L 844.919159 50.408329 
L 859.888752 50.288383 
L 874.858344 50.345431 
L 889.827937 50.068841 
L 904.797529 49.211036 
L 919.767122 45.133108 
" clip-path="url(#p5f4114340c)" style="fill: none; stroke: #5cb85c; stroke-linecap: square"/>
   </g>
   <g id="line2d_31">
    <path d="M 81.469943 92.831199 
L 96.439536 44.163231 
L 111.409128 44.529795 
L 126.378721 44.350916 
L 141.348313 44.487517 
L 156.317906 44.329435 
L 171.287498 44.658575 
L 186.257091 44.698606 
L 201.226683 44.237974 
L 216.196275 44.459734 
L 231.165868 44.423345 
L 246.13546 44.11234 
L 261.105053 44.358118 
L 276.074645 44.528187 
L 291.044238 44.696398 
L 306.01383 44.625921 
L 320.983423 44.530195 
L 335.953015 44.432458 
L 350.922608 44.536053 
L 365.8922 44.701125 
L 380.861793 44.767528 
L 395.831385 44.79046 
L 410.800978 44.875952 
L 425.77057 45.056926 
L 440.740163 45.229373 
L 455.709755 45.346524 
L 470.679348 45.190477 
L 485.64894 45.252574 
L 500.618533 45.300512 
L 515.588125 45.387424 
L 530.557717 45.465587 
L 545.52731 45.802998 
L 560.496902 45.683002 
L 575.466495 45.769911 
L 590.436087 45.632698 
L 605.40568 45.700098 
L 620.375272 45.783647 
L 635.344865 45.796628 
L 650.314457 45.986274 
L 665.28405 46.072713 
L 680.253642 46.095558 
L 695.223235 46.05332 
L 710.192827 46.130792 
L 725.16242 46.203366 
L 740.132012 46.42156 
L 755.101605 46.294604 
L 770.071197 46.234401 
L 785.04079 46.452342 
L 800.010382 46.629035 
L 814.979975 46.569848 
L 829.949567 46.845909 
L 844.919159 46.786943 
L 859.888752 46.79282 
L 874.858344 46.772768 
L 889.827937 46.916245 
L 904.797529 46.854015 
L 919.767122 47.212784 
" clip-path="url(#p5f4114340c)" style="fill: none; stroke: #5cb85c; stroke-linecap: square"/>
   </g>
   <g id="line2d_32">
    <path d="M 81.469943 92.819034 
L 96.439536 44.145702 
L 111.409128 44.51373 
L 126.378721 44.327069 
L 141.348313 44.461459 
L 156.317906 44.29776 
L 171.287498 44.62368 
L 186.257091 44.657614 
L 201.226683 44.196029 
L 216.196275 44.413379 
L 231.165868 44.374546 
L 246.13546 44.061228 
L 261.105053 44.304322 
L 276.074645 44.472954 
L 291.044238 44.639301 
L 306.01383 44.568018 
L 320.983423 44.469638 
L 335.953015 44.37054 
L 350.922608 44.473148 
L 365.8922 44.636105 
L 380.861793 44.70001 
L 395.831385 44.720609 
L 410.800978 44.802828 
L 425.77057 44.980635 
L 440.740163 45.150474 
L 455.709755 45.26578 
L 470.679348 45.107358 
L 485.64894 45.164954 
L 500.618533 45.210929 
L 515.588125 45.294456 
L 530.557717 45.370196 
L 545.52731 45.70535 
L 560.496902 45.580724 
L 575.466495 45.664512 
L 590.436087 45.523854 
L 605.40568 45.585579 
L 620.375272 45.666515 
L 635.344865 45.67657 
L 650.314457 45.860241 
L 665.28405 45.936692 
L 680.253642 45.954139 
L 695.223235 45.906988 
L 710.192827 45.972854 
L 725.16242 46.040857 
L 740.132012 46.248348 
L 755.101605 46.113426 
L 770.071197 46.04182 
L 785.04079 46.248792 
L 800.010382 46.407942 
L 814.979975 46.328522 
L 829.949567 46.5764 
L 844.919159 46.477031 
L 859.888752 46.41499 
L 874.858344 46.279192 
L 889.827937 46.201329 
L 904.797529 45.532991 
L 919.767122 42.973096 
" clip-path="url(#p5f4114340c)" style="fill: none; stroke: #5cb85c; stroke-linecap: square"/>
   </g>
   <g id="line2d_33">
    <path d="M 81.469943 184.234717 
L 96.439536 55.094576 
L 111.409128 53.957247 
L 126.378721 51.409094 
L 141.348313 49.805671 
L 156.317906 49.401836 
L 171.287498 49.115597 
L 186.257091 51.345952 
L 201.226683 49.282983 
L 216.196275 49.448492 
L 231.165868 47.944465 
L 246.13546 47.957306 
L 261.105053 48.26224 
L 276.074645 48.027082 
L 291.044238 48.208008 
L 306.01383 48.057802 
L 320.983423 48.238149 
L 335.953015 48.347642 
L 350.922608 48.233822 
L 365.8922 48.423751 
L 380.861793 48.404288 
L 395.831385 48.624396 
L 410.800978 48.661484 
L 425.77057 48.879601 
L 440.740163 48.95758 
L 455.709755 49.760783 
L 470.679348 49.896112 
L 485.64894 49.970468 
L 500.618533 50.011544 
L 515.588125 50.08174 
L 530.557717 50.400359 
L 545.52731 50.316189 
L 560.496902 50.375113 
L 575.466495 50.568748 
L 590.436087 50.516255 
L 605.40568 50.582264 
L 620.375272 50.762612 
L 635.344865 50.82581 
L 650.314457 50.874545 
L 665.28405 50.862435 
L 680.253642 50.851631 
L 695.223235 50.988425 
L 710.192827 51.104471 
L 725.16242 51.08058 
L 740.132012 51.097552 
L 755.101605 51.170853 
L 770.071197 51.24998 
L 785.04079 51.42936 
L 800.010382 51.546851 
L 814.979975 51.523524 
L 829.949567 51.617583 
L 844.919159 51.615815 
L 859.888752 51.523689 
L 874.858344 51.525597 
L 889.827937 51.613275 
L 904.797529 51.801085 
L 919.767122 51.907576 
L 934.736714 51.979318 
L 949.706307 52.860535 
" clip-path="url(#p5f4114340c)" style="fill: none; stroke: #d9534f; stroke-linecap: square"/>
   </g>
   <g id="line2d_34">
    <path d="M 81.469943 184.231604 
L 96.439536 55.089011 
L 111.409128 53.953853 
L 126.378721 51.404826 
L 141.348313 49.80136 
L 156.317906 49.39902 
L 171.287498 49.113039 
L 186.257091 51.344395 
L 201.226683 49.279923 
L 216.196275 49.445685 
L 231.165868 47.942756 
L 246.13546 47.955217 
L 261.105053 48.261562 
L 276.074645 48.025331 
L 291.044238 48.207807 
L 306.01383 48.056453 
L 320.983423 48.236921 
L 335.953015 48.32606 
L 350.922608 48.233355 
L 365.8922 48.422046 
L 380.861793 48.403933 
L 395.831385 48.623641 
L 410.800978 48.659757 
L 425.77057 48.877875 
L 440.740163 48.95296 
L 455.709755 49.758031 
L 470.679348 49.894106 
L 485.64894 49.966511 
L 500.618533 50.009049 
L 515.588125 50.077797 
L 530.557717 50.394681 
L 545.52731 50.311069 
L 560.496902 50.365537 
L 575.466495 50.562261 
L 590.436087 50.509191 
L 605.40568 50.573761 
L 620.375272 50.752592 
L 635.344865 50.811857 
L 650.314457 50.860872 
L 665.28405 50.845874 
L 680.253642 50.832479 
L 695.223235 50.96993 
L 710.192827 51.082738 
L 725.16242 51.056776 
L 740.132012 51.06598 
L 755.101605 51.136762 
L 770.071197 51.211993 
L 785.04079 51.384799 
L 800.010382 51.459054 
L 814.979975 51.452354 
L 829.949567 51.554508 
L 844.919159 51.502719 
L 859.888752 51.377412 
L 874.858344 51.369206 
L 889.827937 51.336361 
L 904.797529 51.335731 
L 919.767122 51.035175 
L 934.736714 49.959468 
L 949.706307 45.413238 
" clip-path="url(#p5f4114340c)" style="fill: none; stroke: #d9534f; stroke-linecap: square"/>
   </g>
   <g id="line2d_35">
    <path d="M 81.469943 188.568106 
L 96.439536 53.87369 
L 111.409128 54.244358 
L 126.378721 54.388746 
L 141.348313 54.140281 
L 156.317906 53.173499 
L 171.287498 53.911835 
L 186.257091 53.408279 
L 201.226683 52.308258 
L 216.196275 52.428348 
L 231.165868 52.897683 
L 246.13546 52.003012 
L 261.105053 52.002702 
L 276.074645 52.339324 
L 291.044238 52.56988 
L 306.01383 52.708386 
L 320.983423 52.53597 
L 335.953015 52.268289 
L 350.922608 52.423445 
L 365.8922 52.524515 
L 380.861793 52.670175 
L 395.831385 52.77337 
L 410.800978 53.045386 
L 425.77057 53.122178 
L 440.740163 53.37623 
L 455.709755 53.493972 
L 470.679348 53.79094 
L 485.64894 53.61295 
L 500.618533 53.658229 
L 515.588125 53.771792 
L 530.557717 53.732525 
L 545.52731 53.821347 
L 560.496902 53.949147 
L 575.466495 54.238052 
L 590.436087 54.124365 
L 605.40568 54.416854 
L 620.375272 54.519993 
L 635.344865 54.480847 
L 650.314457 54.897775 
L 665.28405 54.91526 
L 680.253642 54.794533 
L 695.223235 54.834976 
L 710.192827 55.035479 
L 725.16242 55.134826 
L 740.132012 55.263744 
L 755.101605 55.256767 
L 770.071197 55.21567 
L 785.04079 55.024644 
L 800.010382 55.326009 
L 814.979975 55.340677 
L 829.949567 55.780992 
L 844.919159 55.609648 
L 859.888752 55.6411 
L 874.858344 55.689845 
L 889.827937 55.990568 
L 904.797529 56.032692 
L 919.767122 56.073073 
L 934.736714 56.355265 
L 949.706307 56.920153 
" clip-path="url(#p5f4114340c)" style="fill: none; stroke: #d9534f; stroke-linecap: square"/>
   </g>
   <g id="line2d_36">
    <path d="M 81.469943 188.541795 
L 96.439536 53.81608 
L 111.409128 54.21424 
L 126.378721 54.370494 
L 141.348313 54.095176 
L 156.317906 53.134137 
L 171.287498 53.870613 
L 186.257091 53.367083 
L 201.226683 52.265579 
L 216.196275 52.384949 
L 231.165868 52.854769 
L 246.13546 51.957607 
L 261.105053 51.955766 
L 276.074645 52.293226 
L 291.044238 52.522697 
L 306.01383 52.661025 
L 320.983423 52.484615 
L 335.953015 52.216623 
L 350.922608 52.372058 
L 365.8922 52.471579 
L 380.861793 52.617795 
L 395.831385 52.714018 
L 410.800978 52.983436 
L 425.77057 53.061859 
L 440.740163 53.310268 
L 455.709755 53.427811 
L 470.679348 53.725436 
L 485.64894 53.539009 
L 500.618533 53.583302 
L 515.588125 53.695307 
L 530.557717 53.648583 
L 545.52731 53.735094 
L 560.496902 53.863371 
L 575.466495 54.141646 
L 590.436087 54.025852 
L 605.40568 54.309127 
L 620.375272 54.402964 
L 635.344865 54.361862 
L 650.314457 54.768086 
L 665.28405 54.764667 
L 680.253642 54.644074 
L 695.223235 54.677424 
L 710.192827 54.883811 
L 725.16242 54.973132 
L 740.132012 55.093176 
L 755.101605 55.069416 
L 770.071197 55.01968 
L 785.04079 54.811142 
L 800.010382 55.094801 
L 814.979975 55.092987 
L 829.949567 55.500048 
L 844.919159 55.296516 
L 859.888752 55.278621 
L 874.858344 55.243692 
L 889.827937 55.38299 
L 904.797529 55.130005 
L 919.767122 54.624445 
L 934.736714 53.240454 
L 949.706307 46.630637 
" clip-path="url(#p5f4114340c)" style="fill: none; stroke: #d9534f; stroke-linecap: square"/>
   </g>
   <g id="line2d_37">
    <path d="M 81.469943 172.393768 
L 96.439536 54.039656 
L 111.409128 52.890867 
L 126.378721 50.46162 
L 141.348313 48.840627 
L 156.317906 48.213894 
L 171.287498 47.891702 
L 186.257091 49.587937 
L 201.226683 47.828942 
L 216.196275 47.967098 
L 231.165868 46.461375 
L 246.13546 46.536048 
L 261.105053 46.777161 
L 276.074645 46.829526 
L 291.044238 46.899205 
L 306.01383 46.757634 
L 320.983423 46.949798 
L 335.953015 46.891456 
L 350.922608 46.792697 
L 365.8922 46.946966 
L 380.861793 46.925213 
L 395.831385 47.114539 
L 410.800978 47.171889 
L 425.77057 47.332634 
L 440.740163 47.384005 
L 455.709755 48.051173 
L 470.679348 48.191205 
L 485.64894 48.269555 
L 500.618533 48.324329 
L 515.588125 48.376363 
L 530.557717 48.663289 
L 545.52731 48.55684 
L 560.496902 48.646045 
L 575.466495 48.786193 
L 590.436087 48.720839 
L 605.40568 48.791436 
L 620.375272 48.929991 
L 635.344865 49.008704 
L 650.314457 49.049507 
L 665.28405 49.034945 
L 680.253642 49.083873 
L 695.223235 49.2061 
L 710.192827 49.330038 
L 725.16242 49.304069 
L 740.132012 49.27254 
L 755.101605 49.349084 
L 770.071197 49.371496 
L 785.04079 49.540406 
L 800.010382 49.658371 
L 814.979975 49.698553 
L 829.949567 49.793119 
L 844.919159 49.812969 
L 859.888752 49.735394 
L 874.858344 49.743668 
L 889.827937 49.787953 
L 904.797529 49.915319 
L 919.767122 50.031226 
L 934.736714 50.125141 
L 949.706307 50.85897 
" clip-path="url(#p5f4114340c)" style="fill: none; stroke: #d9534f; stroke-linecap: square"/>
   </g>
   <g id="line2d_38">
    <path d="M 81.469943 172.389154 
L 96.439536 54.036955 
L 111.409128 52.888575 
L 126.378721 50.458574 
L 141.348313 48.837269 
L 156.317906 48.211312 
L 171.287498 47.889059 
L 186.257091 49.585779 
L 201.226683 47.826186 
L 216.196275 47.963198 
L 231.165868 46.458173 
L 246.13546 46.533637 
L 261.105053 46.775626 
L 276.074645 46.826971 
L 291.044238 46.897029 
L 306.01383 46.755321 
L 320.983423 46.947592 
L 335.953015 46.884465 
L 350.922608 46.790814 
L 365.8922 46.943995 
L 380.861793 46.923753 
L 395.831385 47.112277 
L 410.800978 47.169566 
L 425.77057 47.330373 
L 440.740163 47.379716 
L 455.709755 48.047116 
L 470.679348 48.187704 
L 485.64894 48.265368 
L 500.618533 48.320263 
L 515.588125 48.3722 
L 530.557717 48.657315 
L 545.52731 48.550851 
L 560.496902 48.638745 
L 575.466495 48.779602 
L 590.436087 48.713425 
L 605.40568 48.778858 
L 620.375272 48.920767 
L 635.344865 48.997696 
L 650.314457 49.037241 
L 665.28405 49.022353 
L 680.253642 49.06928 
L 695.223235 49.189164 
L 710.192827 49.309134 
L 725.16242 49.284415 
L 740.132012 49.249414 
L 755.101605 49.322305 
L 770.071197 49.341259 
L 785.04079 49.505222 
L 800.010382 49.595865 
L 814.979975 49.643227 
L 829.949567 49.73865 
L 844.919159 49.733163 
L 859.888752 49.629631 
L 874.858344 49.612375 
L 889.827937 49.56494 
L 904.797529 49.538578 
L 919.767122 49.298287 
L 934.736714 48.419762 
L 949.706307 44.52574 
" clip-path="url(#p5f4114340c)" style="fill: none; stroke: #d9534f; stroke-linecap: square"/>
   </g>
   <g id="line2d_39">
    <path d="M 81.469943 184.045679 
L 96.439536 51.429257 
L 111.409128 52.106993 
L 126.378721 52.0024 
L 141.348313 52.045307 
L 156.317906 51.159958 
L 171.287498 51.886203 
L 186.257091 51.493849 
L 201.226683 50.638843 
L 216.196275 50.710556 
L 231.165868 50.982289 
L 246.13546 50.370682 
L 261.105053 50.388081 
L 276.074645 50.636082 
L 291.044238 50.825774 
L 306.01383 50.927526 
L 320.983423 50.846003 
L 335.953015 50.602585 
L 350.922608 50.709467 
L 365.8922 50.831321 
L 380.861793 50.866551 
L 395.831385 50.977588 
L 410.800978 51.190382 
L 425.77057 51.279816 
L 440.740163 51.543671 
L 455.709755 51.653031 
L 470.679348 51.914243 
L 485.64894 51.72537 
L 500.618533 51.722523 
L 515.588125 51.835587 
L 530.557717 51.78256 
L 545.52731 51.890571 
L 560.496902 52.058808 
L 575.466495 52.319334 
L 590.436087 52.258468 
L 605.40568 52.512434 
L 620.375272 52.581198 
L 635.344865 52.513642 
L 650.314457 52.874613 
L 665.28405 52.852942 
L 680.253642 52.753389 
L 695.223235 52.758987 
L 710.192827 52.922326 
L 725.16242 53.114988 
L 740.132012 53.227818 
L 755.101605 53.243245 
L 770.071197 53.247501 
L 785.04079 53.057542 
L 800.010382 53.302268 
L 814.979975 53.273668 
L 829.949567 53.615599 
L 844.919159 53.450424 
L 859.888752 53.509748 
L 874.858344 53.55766 
L 889.827937 53.785445 
L 904.797529 53.902906 
L 919.767122 53.947218 
L 934.736714 54.236544 
L 949.706307 54.919477 
" clip-path="url(#p5f4114340c)" style="fill: none; stroke: #d9534f; stroke-linecap: square"/>
   </g>
   <g id="line2d_40">
    <path d="M 81.469943 184.027867 
L 96.439536 51.400835 
L 111.409128 52.090106 
L 126.378721 51.990277 
L 141.348313 52.024379 
L 156.317906 51.136733 
L 171.287498 51.859248 
L 186.257091 51.465887 
L 201.226683 50.610403 
L 216.196275 50.679145 
L 231.165868 50.950827 
L 246.13546 50.337248 
L 261.105053 50.351694 
L 276.074645 50.599972 
L 291.044238 50.789624 
L 306.01383 50.890902 
L 320.983423 50.80505 
L 335.953015 50.561292 
L 350.922608 50.668794 
L 365.8922 50.788912 
L 380.861793 50.821667 
L 395.831385 50.931208 
L 410.800978 51.140721 
L 425.77057 51.227614 
L 440.740163 51.488462 
L 455.709755 51.597197 
L 470.679348 51.857995 
L 485.64894 51.663713 
L 500.618533 51.659771 
L 515.588125 51.767464 
L 530.557717 51.712414 
L 545.52731 51.817488 
L 560.496902 51.982199 
L 575.466495 52.233466 
L 590.436087 52.165535 
L 605.40568 52.422175 
L 620.375272 52.486145 
L 635.344865 52.414249 
L 650.314457 52.769265 
L 665.28405 52.734754 
L 680.253642 52.62728 
L 695.223235 52.631565 
L 710.192827 52.77842 
L 725.16242 52.957366 
L 740.132012 53.069738 
L 755.101605 53.073835 
L 770.071197 53.065431 
L 785.04079 52.859669 
L 800.010382 53.094032 
L 814.979975 53.043093 
L 829.949567 53.359642 
L 844.919159 53.163027 
L 859.888752 53.175675 
L 874.858344 53.142123 
L 889.827937 53.217114 
L 904.797529 53.059963 
L 919.767122 52.584989 
L 934.736714 51.417752 
L 949.706307 45.794871 
" clip-path="url(#p5f4114340c)" style="fill: none; stroke: #d9534f; stroke-linecap: square"/>
   </g>
   <g id="line2d_41">
    <path d="M 81.469943 176.347883 
L 96.439536 54.323282 
L 111.409128 53.491422 
L 126.378721 50.837365 
L 141.348313 49.1943 
L 156.317906 48.554905 
L 171.287498 48.1986 
L 186.257091 49.553074 
L 201.226683 48.139208 
L 216.196275 48.154438 
L 231.165868 46.729662 
L 246.13546 46.792208 
L 261.105053 46.952805 
L 276.074645 46.822841 
L 291.044238 46.861789 
L 306.01383 46.833094 
L 320.983423 46.990105 
L 335.953015 46.919899 
L 350.922608 46.84065 
L 365.8922 46.986751 
L 380.861793 46.98254 
L 395.831385 47.15359 
L 410.800978 47.230451 
L 425.77057 47.396554 
L 440.740163 47.421414 
L 455.709755 48.073191 
L 470.679348 48.19861 
L 485.64894 48.219347 
L 500.618533 48.311182 
L 515.588125 48.338457 
L 530.557717 48.580589 
L 545.52731 48.50593 
L 560.496902 48.605982 
L 575.466495 48.722263 
L 590.436087 48.719392 
L 605.40568 48.784245 
L 620.375272 48.876583 
L 635.344865 48.957973 
L 650.314457 49.057483 
L 665.28405 49.022875 
L 680.253642 49.030361 
L 695.223235 49.145384 
L 710.192827 49.270105 
L 725.16242 49.240523 
L 740.132012 49.205567 
L 755.101605 49.232476 
L 770.071197 49.304831 
L 785.04079 49.459276 
L 800.010382 49.516529 
L 814.979975 49.576585 
L 829.949567 49.677858 
L 844.919159 49.648315 
L 859.888752 49.547737 
L 874.858344 49.548457 
L 889.827937 49.559753 
L 904.797529 49.72242 
L 919.767122 49.822988 
L 934.736714 49.895583 
L 949.706307 50.628845 
" clip-path="url(#p5f4114340c)" style="fill: none; stroke: #d9534f; stroke-linecap: square"/>
   </g>
   <g id="line2d_42">
    <path d="M 81.469943 176.341483 
L 96.439536 54.321308 
L 111.409128 53.490135 
L 126.378721 50.834156 
L 141.348313 49.190374 
L 156.317906 48.551484 
L 171.287498 48.195616 
L 186.257091 49.550255 
L 201.226683 48.136142 
L 216.196275 48.150095 
L 231.165868 46.726225 
L 246.13546 46.789498 
L 261.105053 46.950298 
L 276.074645 46.819869 
L 291.044238 46.859854 
L 306.01383 46.830924 
L 320.983423 46.987441 
L 335.953015 46.914891 
L 350.922608 46.838386 
L 365.8922 46.983439 
L 380.861793 46.980385 
L 395.831385 47.151379 
L 410.800978 47.227224 
L 425.77057 47.392847 
L 440.740163 47.416619 
L 455.709755 48.068967 
L 470.679348 48.195539 
L 485.64894 48.215296 
L 500.618533 48.30705 
L 515.588125 48.333824 
L 530.557717 48.574329 
L 545.52731 48.499307 
L 560.496902 48.59903 
L 575.466495 48.715477 
L 590.436087 48.712709 
L 605.40568 48.776106 
L 620.375272 48.867461 
L 635.344865 48.946397 
L 650.314457 49.046846 
L 665.28405 49.010309 
L 680.253642 49.015937 
L 695.223235 49.128813 
L 710.192827 49.250341 
L 725.16242 49.217995 
L 740.132012 49.183544 
L 755.101605 49.207292 
L 770.071197 49.276015 
L 785.04079 49.424206 
L 800.010382 49.460208 
L 814.979975 49.526092 
L 829.949567 49.624931 
L 844.919159 49.578512 
L 859.888752 49.458324 
L 874.858344 49.427199 
L 889.827937 49.354354 
L 904.797529 49.367471 
L 919.767122 49.101752 
L 934.736714 48.215435 
L 949.706307 44.492709 
" clip-path="url(#p5f4114340c)" style="fill: none; stroke: #d9534f; stroke-linecap: square"/>
   </g>
   <g id="line2d_43">
    <path d="M 81.469943 183.95126 
L 96.439536 52.108727 
L 111.409128 53.040646 
L 126.378721 52.502091 
L 141.348313 52.57008 
L 156.317906 51.778119 
L 171.287498 52.399489 
L 186.257091 52.256701 
L 201.226683 51.183439 
L 216.196275 51.306305 
L 231.165868 51.572629 
L 246.13546 50.957326 
L 261.105053 51.006835 
L 276.074645 51.2659 
L 291.044238 51.515908 
L 306.01383 51.595265 
L 320.983423 51.448732 
L 335.953015 51.22536 
L 350.922608 51.389373 
L 365.8922 51.49288 
L 380.861793 51.576639 
L 395.831385 51.686029 
L 410.800978 51.897448 
L 425.77057 52.032452 
L 440.740163 52.297989 
L 455.709755 52.364223 
L 470.679348 52.621953 
L 485.64894 52.452687 
L 500.618533 52.481854 
L 515.588125 52.643849 
L 530.557717 52.599918 
L 545.52731 52.739503 
L 560.496902 52.912412 
L 575.466495 53.163116 
L 590.436087 53.079113 
L 605.40568 53.407387 
L 620.375272 53.443292 
L 635.344865 53.349948 
L 650.314457 53.742433 
L 665.28405 53.808634 
L 680.253642 53.688668 
L 695.223235 53.775825 
L 710.192827 53.995117 
L 725.16242 54.105073 
L 740.132012 54.224371 
L 755.101605 54.198413 
L 770.071197 54.190687 
L 785.04079 54.039279 
L 800.010382 54.297476 
L 814.979975 54.303863 
L 829.949567 54.683013 
L 844.919159 54.528504 
L 859.888752 54.564661 
L 874.858344 54.617911 
L 889.827937 54.888145 
L 904.797529 54.979044 
L 919.767122 54.994502 
L 934.736714 55.346132 
L 949.706307 55.905027 
" clip-path="url(#p5f4114340c)" style="fill: none; stroke: #d9534f; stroke-linecap: square"/>
   </g>
   <g id="line2d_44">
    <path d="M 81.469943 183.934338 
L 96.439536 52.077404 
L 111.409128 53.021448 
L 126.378721 52.481218 
L 141.348313 52.541239 
L 156.317906 51.748284 
L 171.287498 52.366875 
L 186.257091 52.220843 
L 201.226683 51.147725 
L 216.196275 51.268281 
L 231.165868 51.533634 
L 246.13546 50.916494 
L 261.105053 50.963393 
L 276.074645 51.222305 
L 291.044238 51.472092 
L 306.01383 51.551315 
L 320.983423 51.400164 
L 335.953015 51.175373 
L 350.922608 51.339455 
L 365.8922 51.441384 
L 380.861793 51.522821 
L 395.831385 51.63097 
L 410.800978 51.839284 
L 425.77057 51.971249 
L 440.740163 52.233996 
L 455.709755 52.299214 
L 470.679348 52.555828 
L 485.64894 52.381028 
L 500.618533 52.408657 
L 515.588125 52.565038 
L 530.557717 52.521325 
L 545.52731 52.655079 
L 560.496902 52.825099 
L 575.466495 53.065027 
L 590.436087 52.975741 
L 605.40568 53.298839 
L 620.375272 53.331705 
L 635.344865 53.232242 
L 650.314457 53.620122 
L 665.28405 53.659162 
L 680.253642 53.533977 
L 695.223235 53.62388 
L 710.192827 53.819141 
L 725.16242 53.922242 
L 740.132012 54.028965 
L 755.101605 53.992042 
L 770.071197 53.967591 
L 785.04079 53.801072 
L 800.010382 54.043664 
L 814.979975 54.024215 
L 829.949567 54.377018 
L 844.919159 54.184487 
L 859.888752 54.166995 
L 874.858344 54.139586 
L 889.827937 54.246746 
L 904.797529 54.05053 
L 919.767122 53.547536 
L 934.736714 52.356433 
L 949.706307 46.225009 
" clip-path="url(#p5f4114340c)" style="fill: none; stroke: #d9534f; stroke-linecap: square"/>
   </g>
   <g id="line2d_45">
    <path d="M 81.469943 177.236285 
L 96.439536 54.944301 
L 111.409128 53.733197 
L 126.378721 51.178787 
L 141.348313 49.504339 
L 156.317906 48.992322 
L 171.287498 48.677959 
L 186.257091 50.371625 
L 201.226683 48.467431 
L 216.196275 48.531878 
L 231.165868 47.219322 
L 246.13546 47.138474 
L 261.105053 47.479679 
L 276.074645 47.471582 
L 291.044238 47.68551 
L 306.01383 47.363181 
L 320.983423 47.495349 
L 335.953015 47.617391 
L 350.922608 47.49089 
L 365.8922 47.652062 
L 380.861793 47.651583 
L 395.831385 47.810034 
L 410.800978 47.863349 
L 425.77057 48.065281 
L 440.740163 48.133277 
L 455.709755 48.79086 
L 470.679348 48.943934 
L 485.64894 49.017742 
L 500.618533 49.114343 
L 515.588125 49.145885 
L 530.557717 49.42821 
L 545.52731 49.316717 
L 560.496902 49.411109 
L 575.466495 49.570903 
L 590.436087 49.480752 
L 605.40568 49.593617 
L 620.375272 49.732498 
L 635.344865 49.830135 
L 650.314457 49.855937 
L 665.28405 49.80695 
L 680.253642 49.818842 
L 695.223235 49.938172 
L 710.192827 50.054458 
L 725.16242 50.069861 
L 740.132012 50.056676 
L 755.101605 50.095969 
L 770.071197 50.144369 
L 785.04079 50.320562 
L 800.010382 50.403491 
L 814.979975 50.439612 
L 829.949567 50.540642 
L 844.919159 50.57847 
L 859.888752 50.483683 
L 874.858344 50.469976 
L 889.827937 50.511311 
L 904.797529 50.648449 
L 919.767122 50.770943 
L 934.736714 50.831583 
L 949.706307 51.550917 
" clip-path="url(#p5f4114340c)" style="fill: none; stroke: #d9534f; stroke-linecap: square"/>
   </g>
   <g id="line2d_46">
    <path d="M 81.469943 177.233024 
L 96.439536 54.94005 
L 111.409128 53.730656 
L 126.378721 51.174687 
L 141.348313 49.500886 
L 156.317906 48.989501 
L 171.287498 48.675406 
L 186.257091 50.369026 
L 201.226683 48.464466 
L 216.196275 48.52914 
L 231.165868 47.216868 
L 246.13546 47.135919 
L 261.105053 47.477923 
L 276.074645 47.469045 
L 291.044238 47.683952 
L 306.01383 47.361162 
L 320.983423 47.492631 
L 335.953015 47.608261 
L 350.922608 47.488928 
L 365.8922 47.649315 
L 380.861793 47.649 
L 395.831385 47.807555 
L 410.800978 47.860794 
L 425.77057 48.062261 
L 440.740163 48.128185 
L 455.709755 48.786576 
L 470.679348 48.940033 
L 485.64894 49.013517 
L 500.618533 49.110195 
L 515.588125 49.140819 
L 530.557717 49.42179 
L 545.52731 49.310144 
L 560.496902 49.402721 
L 575.466495 49.564055 
L 590.436087 49.472401 
L 605.40568 49.584081 
L 620.375272 49.721495 
L 635.344865 49.818714 
L 650.314457 49.842556 
L 665.28405 49.794238 
L 680.253642 49.804448 
L 695.223235 49.921451 
L 710.192827 50.035121 
L 725.16242 50.049351 
L 740.132012 50.033223 
L 755.101605 50.065795 
L 770.071197 50.11229 
L 785.04079 50.283126 
L 800.010382 50.338478 
L 814.979975 50.381567 
L 829.949567 50.485521 
L 844.919159 50.487933 
L 859.888752 50.369059 
L 874.858344 50.336451 
L 889.827937 50.281529 
L 904.797529 50.260856 
L 919.767122 50.043754 
L 934.736714 49.084127 
L 949.706307 44.875283 
" clip-path="url(#p5f4114340c)" style="fill: none; stroke: #d9534f; stroke-linecap: square"/>
   </g>
   <g id="line2d_47">
    <path d="M 81.469943 188.302871 
L 96.439536 52.639636 
L 111.409128 53.979124 
L 126.378721 53.918639 
L 141.348313 53.99839 
L 156.317906 53.216478 
L 171.287498 53.949418 
L 186.257091 53.437675 
L 201.226683 52.40508 
L 216.196275 52.574733 
L 231.165868 52.991106 
L 246.13546 52.012909 
L 261.105053 52.030373 
L 276.074645 52.468508 
L 291.044238 52.725387 
L 306.01383 52.81766 
L 320.983423 52.64738 
L 335.953015 52.390474 
L 350.922608 52.602187 
L 365.8922 52.672794 
L 380.861793 52.761261 
L 395.831385 52.898059 
L 410.800978 53.053712 
L 425.77057 53.127323 
L 440.740163 53.446344 
L 455.709755 53.471849 
L 470.679348 53.790639 
L 485.64894 53.675448 
L 500.618533 53.664385 
L 515.588125 53.722619 
L 530.557717 53.715898 
L 545.52731 53.828732 
L 560.496902 53.99076 
L 575.466495 54.23156 
L 590.436087 54.146159 
L 605.40568 54.42093 
L 620.375272 54.510275 
L 635.344865 54.48992 
L 650.314457 54.838058 
L 665.28405 54.891482 
L 680.253642 54.710332 
L 695.223235 54.794157 
L 710.192827 54.925466 
L 725.16242 55.046255 
L 740.132012 55.176038 
L 755.101605 55.204821 
L 770.071197 55.185751 
L 785.04079 54.953637 
L 800.010382 55.285505 
L 814.979975 55.248822 
L 829.949567 55.655453 
L 844.919159 55.540527 
L 859.888752 55.527153 
L 874.858344 55.573352 
L 889.827937 55.890672 
L 904.797529 55.97731 
L 919.767122 55.968234 
L 934.736714 56.27812 
L 949.706307 56.573099 
" clip-path="url(#p5f4114340c)" style="fill: none; stroke: #d9534f; stroke-linecap: square"/>
   </g>
   <g id="line2d_48">
    <path d="M 81.469943 188.283843 
L 96.439536 52.600994 
L 111.409128 53.957521 
L 126.378721 53.897124 
L 141.348313 53.96294 
L 156.317906 53.184057 
L 171.287498 53.913505 
L 186.257091 53.399464 
L 201.226683 52.365782 
L 216.196275 52.532145 
L 231.165868 52.949491 
L 246.13546 51.966697 
L 261.105053 51.983116 
L 276.074645 52.420106 
L 291.044238 52.677195 
L 306.01383 52.768378 
L 320.983423 52.594092 
L 335.953015 52.335515 
L 350.922608 52.546302 
L 365.8922 52.615538 
L 380.861793 52.702064 
L 395.831385 52.836095 
L 410.800978 52.988916 
L 425.77057 53.059357 
L 440.740163 53.374136 
L 455.709755 53.398217 
L 470.679348 53.716285 
L 485.64894 53.594694 
L 500.618533 53.582091 
L 515.588125 53.636137 
L 530.557717 53.627554 
L 545.52731 53.735888 
L 560.496902 53.896195 
L 575.466495 54.128946 
L 590.436087 54.039742 
L 605.40568 54.309581 
L 620.375272 54.392468 
L 635.344865 54.368768 
L 650.314457 54.709501 
L 665.28405 54.74962 
L 680.253642 54.560016 
L 695.223235 54.640721 
L 710.192827 54.757103 
L 725.16242 54.866678 
L 740.132012 54.990442 
L 755.101605 55.009848 
L 770.071197 54.976518 
L 785.04079 54.728625 
L 800.010382 55.043825 
L 814.979975 54.983057 
L 829.949567 55.363183 
L 844.919159 55.202031 
L 859.888752 55.128599 
L 874.858344 55.084673 
L 889.827937 55.227879 
L 904.797529 54.998393 
L 919.767122 54.450981 
L 934.736714 53.160935 
L 949.706307 46.327987 
" clip-path="url(#p5f4114340c)" style="fill: none; stroke: #d9534f; stroke-linecap: square"/>
   </g>
   <g id="line2d_49">
    <path d="M 81.469943 178.666629 
L 96.439536 55.528697 
L 111.409128 54.47657 
L 126.378721 51.80461 
L 141.348313 50.159618 
L 156.317906 49.568859 
L 171.287498 49.258097 
L 186.257091 50.7617 
L 201.226683 49.218762 
L 216.196275 49.194769 
L 231.165868 47.805527 
L 246.13546 47.812874 
L 261.105053 48.211054 
L 276.074645 47.968139 
L 291.044238 48.104076 
L 306.01383 48.117091 
L 320.983423 48.262873 
L 335.953015 48.21937 
L 350.922608 48.102255 
L 365.8922 48.294088 
L 380.861793 48.262211 
L 395.831385 48.465679 
L 410.800978 48.527988 
L 425.77057 48.703287 
L 440.740163 48.781245 
L 455.709755 49.58048 
L 470.679348 49.696428 
L 485.64894 49.769591 
L 500.618533 49.849057 
L 515.588125 49.896468 
L 530.557717 50.238553 
L 545.52731 50.140792 
L 560.496902 50.221214 
L 575.466495 50.376054 
L 590.436087 50.323353 
L 605.40568 50.37501 
L 620.375272 50.484685 
L 635.344865 50.58797 
L 650.314457 50.669901 
L 665.28405 50.667647 
L 680.253642 50.71861 
L 695.223235 50.831823 
L 710.192827 50.967093 
L 725.16242 50.933678 
L 740.132012 50.859459 
L 755.101605 50.940813 
L 770.071197 51.017879 
L 785.04079 51.172919 
L 800.010382 51.327003 
L 814.979975 51.364942 
L 829.949567 51.430408 
L 844.919159 51.472179 
L 859.888752 51.379235 
L 874.858344 51.367529 
L 889.827937 51.407531 
L 904.797529 51.548408 
L 919.767122 51.64741 
L 934.736714 51.732908 
L 949.706307 52.566646 
" clip-path="url(#p5f4114340c)" style="fill: none; stroke: #d9534f; stroke-linecap: square"/>
   </g>
   <g id="line2d_50">
    <path d="M 81.469943 178.659005 
L 96.439536 55.522534 
L 111.409128 54.474563 
L 126.378721 51.79999 
L 141.348313 50.155363 
L 156.317906 49.56629 
L 171.287498 49.255106 
L 186.257091 50.759397 
L 201.226683 49.215853 
L 216.196275 49.191297 
L 231.165868 47.803399 
L 246.13546 47.810155 
L 261.105053 48.209798 
L 276.074645 47.966136 
L 291.044238 48.102971 
L 306.01383 48.115625 
L 320.983423 48.26145 
L 335.953015 48.202101 
L 350.922608 48.100778 
L 365.8922 48.291466 
L 380.861793 48.261952 
L 395.831385 48.463885 
L 410.800978 48.526595 
L 425.77057 48.701813 
L 440.740163 48.774922 
L 455.709755 49.576547 
L 470.679348 49.693876 
L 485.64894 49.766403 
L 500.618533 49.845346 
L 515.588125 49.888083 
L 530.557717 50.231679 
L 545.52731 50.134404 
L 560.496902 50.209447 
L 575.466495 50.368476 
L 590.436087 50.314918 
L 605.40568 50.364211 
L 620.375272 50.47422 
L 635.344865 50.575527 
L 650.314457 50.653399 
L 665.28405 50.651353 
L 680.253642 50.698213 
L 695.223235 50.807902 
L 710.192827 50.939158 
L 725.16242 50.902334 
L 740.132012 50.828029 
L 755.101605 50.900972 
L 770.071197 50.967404 
L 785.04079 51.1158 
L 800.010382 51.211602 
L 814.979975 51.269085 
L 829.949567 51.353752 
L 844.919159 51.353552 
L 859.888752 51.230367 
L 874.858344 51.196619 
L 889.827937 51.119125 
L 904.797529 51.06733 
L 919.767122 50.72894 
L 934.736714 49.636448 
L 949.706307 45.153707 
" clip-path="url(#p5f4114340c)" style="fill: none; stroke: #d9534f; stroke-linecap: square"/>
   </g>
   <g id="line2d_51">
    <path d="M 81.469943 189.659286 
L 96.439536 52.167935 
L 111.409128 53.459701 
L 126.378721 53.303039 
L 141.348313 53.345648 
L 156.317906 52.292303 
L 171.287498 53.029835 
L 186.257091 52.454397 
L 201.226683 51.531944 
L 216.196275 51.61698 
L 231.165868 52.059108 
L 246.13546 51.182205 
L 261.105053 51.226556 
L 276.074645 51.639963 
L 291.044238 51.844939 
L 306.01383 51.912191 
L 320.983423 51.782657 
L 335.953015 51.532929 
L 350.922608 51.6677 
L 365.8922 51.760819 
L 380.861793 51.859048 
L 395.831385 52.007407 
L 410.800978 52.204864 
L 425.77057 52.312342 
L 440.740163 52.585989 
L 455.709755 52.678959 
L 470.679348 52.935577 
L 485.64894 52.815852 
L 500.618533 52.79974 
L 515.588125 52.913358 
L 530.557717 52.901179 
L 545.52731 53.022069 
L 560.496902 53.169133 
L 575.466495 53.419614 
L 590.436087 53.336264 
L 605.40568 53.61035 
L 620.375272 53.678079 
L 635.344865 53.616424 
L 650.314457 53.971803 
L 665.28405 54.026839 
L 680.253642 53.902016 
L 695.223235 53.972267 
L 710.192827 54.16093 
L 725.16242 54.314325 
L 740.132012 54.454083 
L 755.101605 54.466054 
L 770.071197 54.468425 
L 785.04079 54.322335 
L 800.010382 54.605803 
L 814.979975 54.613964 
L 829.949567 54.988454 
L 844.919159 54.868147 
L 859.888752 54.908601 
L 874.858344 54.956027 
L 889.827937 55.20107 
L 904.797529 55.291617 
L 919.767122 55.294963 
L 934.736714 55.609744 
L 949.706307 56.188903 
" clip-path="url(#p5f4114340c)" style="fill: none; stroke: #d9534f; stroke-linecap: square"/>
   </g>
   <g id="line2d_52">
    <path d="M 81.469943 189.629436 
L 96.439536 52.10338 
L 111.409128 53.430245 
L 126.378721 53.282802 
L 141.348313 53.300465 
L 156.317906 52.254064 
L 171.287498 52.989017 
L 186.257091 52.413722 
L 201.226683 51.490432 
L 216.196275 51.574703 
L 231.165868 52.015372 
L 246.13546 51.137322 
L 261.105053 51.178976 
L 276.074645 51.59262 
L 291.044238 51.797796 
L 306.01383 51.865345 
L 320.983423 51.730707 
L 335.953015 51.479183 
L 350.922608 51.614029 
L 365.8922 51.70435 
L 380.861793 51.801951 
L 395.831385 51.945446 
L 410.800978 52.140068 
L 425.77057 52.245482 
L 440.740163 52.514378 
L 455.709755 52.60696 
L 470.679348 52.862829 
L 485.64894 52.736291 
L 500.618533 52.71839 
L 515.588125 52.827125 
L 530.557717 52.810696 
L 545.52731 52.928363 
L 560.496902 53.072642 
L 575.466495 53.313975 
L 590.436087 53.22318 
L 605.40568 53.492976 
L 620.375272 53.556275 
L 635.344865 53.488439 
L 650.314457 53.837311 
L 665.28405 53.87059 
L 680.253642 53.736919 
L 695.223235 53.802691 
L 710.192827 53.979118 
L 725.16242 54.118977 
L 740.132012 54.247832 
L 755.101605 54.246185 
L 770.071197 54.234662 
L 785.04079 54.069275 
L 800.010382 54.337049 
L 814.979975 54.318139 
L 829.949567 54.659637 
L 844.919159 54.502647 
L 859.888752 54.487269 
L 874.858344 54.442664 
L 889.827937 54.522585 
L 904.797529 54.31727 
L 919.767122 53.77592 
L 934.736714 52.498263 
L 949.706307 46.194743 
" clip-path="url(#p5f4114340c)" style="fill: none; stroke: #d9534f; stroke-linecap: square"/>
   </g>
   <g id="line2d_53">
    <path d="M 81.469943 175.403385 
L 96.439536 54.181323 
L 111.409128 53.047584 
L 126.378721 50.585904 
L 141.348313 48.93174 
L 156.317906 48.328731 
L 171.287498 48.007968 
L 186.257091 49.876835 
L 201.226683 47.89785 
L 216.196275 48.138421 
L 231.165868 46.691807 
L 246.13546 46.674378 
L 261.105053 46.907817 
L 276.074645 46.952059 
L 291.044238 47.060321 
L 306.01383 46.815221 
L 320.983423 46.900961 
L 335.953015 47.034119 
L 350.922608 46.916458 
L 365.8922 47.09045 
L 380.861793 47.067887 
L 395.831385 47.266791 
L 410.800978 47.321918 
L 425.77057 47.495017 
L 440.740163 47.566391 
L 455.709755 48.214472 
L 470.679348 48.333059 
L 485.64894 48.422743 
L 500.618533 48.474531 
L 515.588125 48.524825 
L 530.557717 48.802723 
L 545.52731 48.698694 
L 560.496902 48.781632 
L 575.466495 48.94073 
L 590.436087 48.880839 
L 605.40568 48.999857 
L 620.375272 49.113166 
L 635.344865 49.209995 
L 650.314457 49.215513 
L 665.28405 49.20548 
L 680.253642 49.254827 
L 695.223235 49.33948 
L 710.192827 49.493711 
L 725.16242 49.470432 
L 740.132012 49.442066 
L 755.101605 49.52213 
L 770.071197 49.590252 
L 785.04079 49.766339 
L 800.010382 49.846111 
L 814.979975 49.870929 
L 829.949567 49.982244 
L 844.919159 49.978598 
L 859.888752 49.880487 
L 874.858344 49.904463 
L 889.827937 49.950425 
L 904.797529 50.126878 
L 919.767122 50.275567 
L 934.736714 50.351808 
L 949.706307 51.09321 
" clip-path="url(#p5f4114340c)" style="fill: none; stroke: #d9534f; stroke-linecap: square"/>
   </g>
   <g id="line2d_54">
    <path d="M 81.469943 175.397924 
L 96.439536 54.177159 
L 111.409128 53.045558 
L 126.378721 50.582426 
L 141.348313 48.927993 
L 156.317906 48.325756 
L 171.287498 48.005445 
L 186.257091 49.875339 
L 201.226683 47.895077 
L 216.196275 48.134861 
L 231.165868 46.688922 
L 246.13546 46.671901 
L 261.105053 46.905634 
L 276.074645 46.949346 
L 291.044238 47.058134 
L 306.01383 46.813675 
L 320.983423 46.899356 
L 335.953015 47.024438 
L 350.922608 46.914804 
L 365.8922 47.087948 
L 380.861793 47.06632 
L 395.831385 47.264452 
L 410.800978 47.320083 
L 425.77057 47.492797 
L 440.740163 47.562564 
L 455.709755 48.210225 
L 470.679348 48.330169 
L 485.64894 48.418617 
L 500.618533 48.469748 
L 515.588125 48.520212 
L 530.557717 48.796927 
L 545.52731 48.693334 
L 560.496902 48.774162 
L 575.466495 48.933675 
L 590.436087 48.873248 
L 605.40568 48.988324 
L 620.375272 49.102121 
L 635.344865 49.197608 
L 650.314457 49.203848 
L 665.28405 49.193575 
L 680.253642 49.241763 
L 695.223235 49.322949 
L 710.192827 49.476705 
L 725.16242 49.451257 
L 740.132012 49.41776 
L 755.101605 49.493148 
L 770.071197 49.558776 
L 785.04079 49.731214 
L 800.010382 49.779167 
L 814.979975 49.814211 
L 829.949567 49.928747 
L 844.919159 49.888013 
L 859.888752 49.76426 
L 874.858344 49.775128 
L 889.827937 49.723594 
L 904.797529 49.749718 
L 919.767122 49.556776 
L 934.736714 48.684987 
L 949.706307 44.698408 
" clip-path="url(#p5f4114340c)" style="fill: none; stroke: #d9534f; stroke-linecap: square"/>
   </g>
   <g id="line2d_55">
    <path d="M 81.469943 187.761113 
L 96.439536 51.004791 
L 111.409128 52.035419 
L 126.378721 51.578193 
L 141.348313 51.782128 
L 156.317906 50.859781 
L 171.287498 51.514963 
L 186.257091 51.443493 
L 201.226683 50.38285 
L 216.196275 50.513052 
L 231.165868 50.700253 
L 246.13546 50.024868 
L 261.105053 50.062442 
L 276.074645 50.343589 
L 291.044238 50.562844 
L 306.01383 50.672253 
L 320.983423 50.561463 
L 335.953015 50.327061 
L 350.922608 50.476285 
L 365.8922 50.570915 
L 380.861793 50.630625 
L 395.831385 50.723229 
L 410.800978 50.900081 
L 425.77057 51.025159 
L 440.740163 51.248661 
L 455.709755 51.372064 
L 470.679348 51.649088 
L 485.64894 51.48666 
L 500.618533 51.510992 
L 515.588125 51.627039 
L 530.557717 51.569276 
L 545.52731 51.683689 
L 560.496902 51.834 
L 575.466495 52.070701 
L 590.436087 51.968878 
L 605.40568 52.24904 
L 620.375272 52.3009 
L 635.344865 52.245039 
L 650.314457 52.602908 
L 665.28405 52.627109 
L 680.253642 52.54388 
L 695.223235 52.59052 
L 710.192827 52.792758 
L 725.16242 52.922535 
L 740.132012 53.038004 
L 755.101605 53.054966 
L 770.071197 53.017757 
L 785.04079 52.829186 
L 800.010382 53.062915 
L 814.979975 53.082118 
L 829.949567 53.408878 
L 844.919159 53.301137 
L 859.888752 53.346705 
L 874.858344 53.386895 
L 889.827937 53.604333 
L 904.797529 53.682206 
L 919.767122 53.69562 
L 934.736714 54.018333 
L 949.706307 54.495404 
" clip-path="url(#p5f4114340c)" style="fill: none; stroke: #d9534f; stroke-linecap: square"/>
   </g>
   <g id="line2d_56">
    <path d="M 81.469943 187.742458 
L 96.439536 50.976702 
L 111.409128 52.02214 
L 126.378721 51.565172 
L 141.348313 51.756289 
L 156.317906 50.836775 
L 171.287498 51.488851 
L 186.257091 51.41726 
L 201.226683 50.354368 
L 216.196275 50.483453 
L 231.165868 50.670655 
L 246.13546 49.994571 
L 261.105053 50.029198 
L 276.074645 50.309752 
L 291.044238 50.529374 
L 306.01383 50.637967 
L 320.983423 50.523543 
L 335.953015 50.287129 
L 350.922608 50.436708 
L 365.8922 50.52874 
L 380.861793 50.587143 
L 395.831385 50.678413 
L 410.800978 50.851997 
L 425.77057 50.974666 
L 440.740163 51.195916 
L 455.709755 51.317703 
L 470.679348 51.59326 
L 485.64894 51.426343 
L 500.618533 51.449354 
L 515.588125 51.559459 
L 530.557717 51.50152 
L 545.52731 51.610346 
L 560.496902 51.757791 
L 575.466495 51.987728 
L 590.436087 51.882075 
L 605.40568 52.153894 
L 620.375272 52.194289 
L 635.344865 52.141939 
L 650.314457 52.494114 
L 665.28405 52.506729 
L 680.253642 52.413035 
L 695.223235 52.462868 
L 710.192827 52.648373 
L 725.16242 52.771943 
L 740.132012 52.875354 
L 755.101605 52.883177 
L 770.071197 52.833234 
L 785.04079 52.631361 
L 800.010382 52.848658 
L 814.979975 52.850815 
L 829.949567 53.154276 
L 844.919159 53.01789 
L 859.888752 53.020581 
L 874.858344 52.9841 
L 889.827937 53.065885 
L 904.797529 52.879383 
L 919.767122 52.419629 
L 934.736714 51.401169 
L 949.706307 45.75445 
" clip-path="url(#p5f4114340c)" style="fill: none; stroke: #d9534f; stroke-linecap: square"/>
   </g>
   <g id="line2d_57">
    <path d="M 38.058125 353.2239 
L 993.118125 353.2239 
" clip-path="url(#p5f4114340c)" style="fill: none; stroke: #dedede; stroke-width: 2; stroke-linecap: square"/>
   </g>
   <g id="text_18">
    <!-- FastQC: Mean Quality Scores -->
    <g transform="translate(400.349375 19.3575) scale(0.16 -0.16)">
     <defs>
      <path id="DejaVuSans-46" d="M 628 4666 
L 3309 4666 
L 3309 4134 
L 1259 4134 
L 1259 2759 
L 3109 2759 
L 3109 2228 
L 1259 2228 
L 1259 0 
L 628 0 
L 628 4666 
z
" transform="scale(0.015625)"/>
      <path id="DejaVuSans-61" d="M 2194 1759 
Q 1497 1759 1228 1600 
Q 959 1441 959 1056 
Q 959 750 1161 570 
Q 1363 391 1709 391 
Q 2188 391 2477 730 
Q 2766 1069 2766 1631 
L 2766 1759 
L 2194 1759 
z
M 3341 1997 
L 3341 0 
L 2766 0 
L 2766 531 
Q 2569 213 2275 61 
Q 1981 -91 1556 -91 
Q 1019 -91 701 211 
Q 384 513 384 1019 
Q 384 1609 779 1909 
Q 1175 2209 1959 2209 
L 2766 2209 
L 2766 2266 
Q 2766 2663 2505 2880 
Q 2244 3097 1772 3097 
Q 1472 3097 1187 3025 
Q 903 2953 641 2809 
L 641 3341 
Q 956 3463 1253 3523 
Q 1550 3584 1831 3584 
Q 2591 3584 2966 3190 
Q 3341 2797 3341 1997 
z
" transform="scale(0.015625)"/>
      <path id="DejaVuSans-51" d="M 2522 4238 
Q 1834 4238 1429 3725 
Q 1025 3213 1025 2328 
Q 1025 1447 1429 934 
Q 1834 422 2522 422 
Q 3209 422 3611 934 
Q 4013 1447 4013 2328 
Q 4013 3213 3611 3725 
Q 3209 4238 2522 4238 
z
M 3406 84 
L 4238 -825 
L 3475 -825 
L 2784 -78 
Q 2681 -84 2626 -87 
Q 2572 -91 2522 -91 
Q 1538 -91 948 567 
Q 359 1225 359 2328 
Q 359 3434 948 4092 
Q 1538 4750 2522 4750 
Q 3503 4750 4090 4092 
Q 4678 3434 4678 2328 
Q 4678 1516 4351 937 
Q 4025 359 3406 84 
z
" transform="scale(0.015625)"/>
      <path id="DejaVuSans-43" d="M 4122 4306 
L 4122 3641 
Q 3803 3938 3442 4084 
Q 3081 4231 2675 4231 
Q 1875 4231 1450 3742 
Q 1025 3253 1025 2328 
Q 1025 1406 1450 917 
Q 1875 428 2675 428 
Q 3081 428 3442 575 
Q 3803 722 4122 1019 
L 4122 359 
Q 3791 134 3420 21 
Q 3050 -91 2638 -91 
Q 1578 -91 968 557 
Q 359 1206 359 2328 
Q 359 3453 968 4101 
Q 1578 4750 2638 4750 
Q 3056 4750 3426 4639 
Q 3797 4528 4122 4306 
z
" transform="scale(0.015625)"/>
      <path id="DejaVuSans-3a" d="M 750 794 
L 1409 794 
L 1409 0 
L 750 0 
L 750 794 
z
M 750 3309 
L 1409 3309 
L 1409 2516 
L 750 2516 
L 750 3309 
z
" transform="scale(0.015625)"/>
      <path id="DejaVuSans-4d" d="M 628 4666 
L 1569 4666 
L 2759 1491 
L 3956 4666 
L 4897 4666 
L 4897 0 
L 4281 0 
L 4281 4097 
L 3078 897 
L 2444 897 
L 1241 4097 
L 1241 0 
L 628 0 
L 628 4666 
z
" transform="scale(0.015625)"/>
      <path id="DejaVuSans-75" d="M 544 1381 
L 544 3500 
L 1119 3500 
L 1119 1403 
Q 1119 906 1312 657 
Q 1506 409 1894 409 
Q 2359 409 2629 706 
Q 2900 1003 2900 1516 
L 2900 3500 
L 3475 3500 
L 3475 0 
L 2900 0 
L 2900 538 
Q 2691 219 2414 64 
Q 2138 -91 1772 -91 
Q 1169 -91 856 284 
Q 544 659 544 1381 
z
M 1991 3584 
L 1991 3584 
z
" transform="scale(0.015625)"/>
      <path id="DejaVuSans-6c" d="M 603 4863 
L 1178 4863 
L 1178 0 
L 603 0 
L 603 4863 
z
" transform="scale(0.015625)"/>
      <path id="DejaVuSans-79" d="M 2059 -325 
Q 1816 -950 1584 -1140 
Q 1353 -1331 966 -1331 
L 506 -1331 
L 506 -850 
L 844 -850 
Q 1081 -850 1212 -737 
Q 1344 -625 1503 -206 
L 1606 56 
L 191 3500 
L 800 3500 
L 1894 763 
L 2988 3500 
L 3597 3500 
L 2059 -325 
z
" transform="scale(0.015625)"/>
     </defs>
     <use xlink:href="#DejaVuSans-46"/>
     <use xlink:href="#DejaVuSans-61" x="48.394531"/>
     <use xlink:href="#DejaVuSans-73" x="109.673828"/>
     <use xlink:href="#DejaVuSans-74" x="161.773438"/>
     <use xlink:href="#DejaVuSans-51" x="200.982422"/>
     <use xlink:href="#DejaVuSans-43" x="279.693359"/>
     <use xlink:href="#DejaVuSans-3a" x="349.517578"/>
     <use xlink:href="#DejaVuSans-20" x="383.208984"/>
     <use xlink:href="#DejaVuSans-4d" x="414.996094"/>
     <use xlink:href="#DejaVuSans-65" x="501.275391"/>
     <use xlink:href="#DejaVuSans-61" x="562.798828"/>
     <use xlink:href="#DejaVuSans-6e" x="624.078125"/>
     <use xlink:href="#DejaVuSans-20" x="687.457031"/>
     <use xlink:href="#DejaVuSans-51" x="719.244141"/>
     <use xlink:href="#DejaVuSans-75" x="797.955078"/>
     <use xlink:href="#DejaVuSans-61" x="861.333984"/>
     <use xlink:href="#DejaVuSans-6c" x="922.613281"/>
     <use xlink:href="#DejaVuSans-69" x="950.396484"/>
     <use xlink:href="#DejaVuSans-74" x="978.179688"/>
     <use xlink:href="#DejaVuSans-79" x="1017.388672"/>
     <use xlink:href="#DejaVuSans-20" x="1076.568359"/>
     <use xlink:href="#DejaVuSans-53" x="1108.355469"/>
     <use xlink:href="#DejaVuSans-63" x="1171.832031"/>
     <use xlink:href="#DejaVuSans-6f" x="1226.8125"/>
     <use xlink:href="#DejaVuSans-72" x="1287.994141"/>
     <use xlink:href="#DejaVuSans-65" x="1326.857422"/>
     <use xlink:href="#DejaVuSans-73" x="1388.380859"/>
    </g>
   </g>
  </g>
 </g>
 <defs>
  <clipPath id="p5f4114340c">
   <rect x="38.058125" y="35.2559" width="955.06" height="317.968"/>
  </clipPath>
 </defs>
</svg>
