<?xml version="1.0" encoding="utf-8" standalone="no"?>
<!DOCTYPE svg PUBLIC "-//W3C//DTD SVG 1.1//EN"
  "http://www.w3.org/Graphics/SVG/1.1/DTD/svg11.dtd">
<svg xmlns:xlink="http://www.w3.org/1999/xlink" width="1000.340625pt" height="388.844525pt" viewBox="0 0 1000.340625 388.844525" xmlns="http://www.w3.org/2000/svg" version="1.1">
 <metadata>
  <rdf:RDF xmlns:dc="http://purl.org/dc/elements/1.1/" xmlns:cc="http://creativecommons.org/ns#" xmlns:rdf="http://www.w3.org/1999/02/22-rdf-syntax-ns#">
   <cc:Work>
    <dc:type rdf:resource="http://purl.org/dc/dcmitype/StillImage"/>
    <dc:date>2026-03-23T21:33:12.556875</dc:date>
    <dc:format>image/svg+xml</dc:format>
    <dc:creator>
     <cc:Agent>
      <dc:title>Matplotlib v3.8.1, https://matplotlib.org/</dc:title>
     </cc:Agent>
    </dc:creator>
   </cc:Work>
  </rdf:RDF>
 </metadata>
 <defs>
  <style type="text/css">*{stroke-linejoin: round; stroke-linecap: butt}</style>
 </defs>
 <g id="figure_1">
  <g id="axes_1">
   <g id="patch_1">
    <path d="M 40.600625 353.2239 
L 993.140625 353.2239 
L 993.140625 35.2559 
L 40.600625 35.2559 
z
" style="fill: #ffffff"/>
   </g>
   <g id="matplotlib.axis_1">
    <g id="xtick_1">
     <g id="text_1">
      <!-- 20 -->
      <g transform="translate(78.807898 366.30265) scale(0.08 -0.08)">
       <defs>
        <path id="DejaVuSans-32" d="M 1228 531 
L 3431 531 
L 3431 0 
L 469 0 
L 469 531 
Q 828 903 1448 1529 
Q 2069 2156 2228 2338 
Q 2531 2678 2651 2914 
Q 2772 3150 2772 3378 
Q 2772 3750 2511 3984 
Q 2250 4219 1831 4219 
Q 1534 4219 1204 4116 
Q 875 4013 500 3803 
L 500 4441 
Q 881 4594 1212 4672 
Q 1544 4750 1819 4750 
Q 2544 4750 2975 4387 
Q 3406 4025 3406 3419 
Q 3406 3131 3298 2873 
Q 3191 2616 2906 2266 
Q 2828 2175 2409 1742 
Q 1991 1309 1228 531 
z
" transform="scale(0.015625)"/>
        <path id="DejaVuSans-30" d="M 2034 4250 
Q 1547 4250 1301 3770 
Q 1056 3291 1056 2328 
Q 1056 1369 1301 889 
Q 1547 409 2034 409 
Q 2525 409 2770 889 
Q 3016 1369 3016 2328 
Q 3016 3291 2770 3770 
Q 2525 4250 2034 4250 
z
M 2034 4750 
Q 2819 4750 3233 4129 
Q 3647 3509 3647 2328 
Q 3647 1150 3233 529 
Q 2819 -91 2034 -91 
Q 1250 -91 836 529 
Q 422 1150 422 2328 
Q 422 3509 836 4129 
Q 1250 4750 2034 4750 
z
" transform="scale(0.015625)"/>
       </defs>
       <use xlink:href="#DejaVuSans-32"/>
       <use xlink:href="#DejaVuSans-30" x="63.623047"/>
      </g>
     </g>
    </g>
    <g id="xtick_2">
     <g id="text_2">
      <!-- 25 -->
      <g transform="translate(189.826546 366.30265) scale(0.08 -0.08)">
       <defs>
        <path id="DejaVuSans-35" d="M 691 4666 
L 3169 4666 
L 3169 4134 
L 1269 4134 
L 1269 2991 
Q 1406 3038 1543 3061 
Q 1681 3084 1819 3084 
Q 2600 3084 3056 2656 
Q 3513 2228 3513 1497 
Q 3513 744 3044 326 
Q 2575 -91 1722 -91 
Q 1428 -91 1123 -41 
Q 819 9 494 109 
L 494 744 
Q 775 591 1075 516 
Q 1375 441 1709 441 
Q 2250 441 2565 725 
Q 2881 1009 2881 1497 
Q 2881 1984 2565 2268 
Q 2250 2553 1709 2553 
Q 1456 2553 1204 2497 
Q 953 2441 691 2322 
L 691 4666 
z
" transform="scale(0.015625)"/>
       </defs>
       <use xlink:href="#DejaVuSans-32"/>
       <use xlink:href="#DejaVuSans-35" x="63.623047"/>
      </g>
     </g>
    </g>
    <g id="xtick_3">
     <g id="text_3">
      <!-- 30 -->
      <g transform="translate(300.845194 366.30265) scale(0.08 -0.08)">
       <defs>
        <path id="DejaVuSans-33" d="M 2597 2516 
Q 3050 2419 3304 2112 
Q 3559 1806 3559 1356 
Q 3559 666 3084 287 
Q 2609 -91 1734 -91 
Q 1441 -91 1130 -33 
Q 819 25 488 141 
L 488 750 
Q 750 597 1062 519 
Q 1375 441 1716 441 
Q 2309 441 2620 675 
Q 2931 909 2931 1356 
Q 2931 1769 2642 2001 
Q 2353 2234 1838 2234 
L 1294 2234 
L 1294 2753 
L 1863 2753 
Q 2328 2753 2575 2939 
Q 2822 3125 2822 3475 
Q 2822 3834 2567 4026 
Q 2313 4219 1838 4219 
Q 1578 4219 1281 4162 
Q 984 4106 628 3988 
L 628 4550 
Q 988 4650 1302 4700 
Q 1616 4750 1894 4750 
Q 2613 4750 3031 4423 
Q 3450 4097 3450 3541 
Q 3450 3153 3228 2886 
Q 3006 2619 2597 2516 
z
" transform="scale(0.015625)"/>
       </defs>
       <use xlink:href="#DejaVuSans-33"/>
       <use xlink:href="#DejaVuSans-30" x="63.623047"/>
      </g>
     </g>
    </g>
    <g id="xtick_4">
     <g id="text_4">
      <!-- 35 -->
      <g transform="translate(411.863842 366.30265) scale(0.08 -0.08)">
       <use xlink:href="#DejaVuSans-33"/>
       <use xlink:href="#DejaVuSans-35" x="63.623047"/>
      </g>
     </g>
    </g>
    <g id="xtick_5">
     <g id="text_5">
      <!-- 40 -->
      <g transform="translate(522.88249 366.30265) scale(0.08 -0.08)">
       <defs>
        <path id="DejaVuSans-34" d="M 2419 4116 
L 825 1625 
L 2419 1625 
L 2419 4116 
z
M 2253 4666 
L 3047 4666 
L 3047 1625 
L 3713 1625 
L 3713 1100 
L 3047 1100 
L 3047 0 
L 2419 0 
L 2419 1100 
L 313 1100 
L 313 1709 
L 2253 4666 
z
" transform="scale(0.015625)"/>
       </defs>
       <use xlink:href="#DejaVuSans-34"/>
       <use xlink:href="#DejaVuSans-30" x="63.623047"/>
      </g>
     </g>
    </g>
    <g id="xtick_6">
     <g id="text_6">
      <!-- 45 -->
      <g transform="translate(633.901138 366.30265) scale(0.08 -0.08)">
       <use xlink:href="#DejaVuSans-34"/>
       <use xlink:href="#DejaVuSans-35" x="63.623047"/>
      </g>
     </g>
    </g>
    <g id="xtick_7">
     <g id="text_7">
      <!-- 50 -->
      <g transform="translate(744.919786 366.30265) scale(0.08 -0.08)">
       <use xlink:href="#DejaVuSans-35"/>
       <use xlink:href="#DejaVuSans-30" x="63.623047"/>
      </g>
     </g>
    </g>
    <g id="xtick_8">
     <g id="text_8">
      <!-- 55 -->
      <g transform="translate(855.938434 366.30265) scale(0.08 -0.08)">
       <use xlink:href="#DejaVuSans-35"/>
       <use xlink:href="#DejaVuSans-35" x="63.623047"/>
      </g>
     </g>
    </g>
    <g id="xtick_9">
     <g id="text_9">
      <!-- 60 -->
      <g transform="translate(966.957082 366.30265) scale(0.08 -0.08)">
       <defs>
        <path id="DejaVuSans-36" d="M 2113 2584 
Q 1688 2584 1439 2293 
Q 1191 2003 1191 1497 
Q 1191 994 1439 701 
Q 1688 409 2113 409 
Q 2538 409 2786 701 
Q 3034 994 3034 1497 
Q 3034 2003 2786 2293 
Q 2538 2584 2113 2584 
z
M 3366 4563 
L 3366 3988 
Q 3128 4100 2886 4159 
Q 2644 4219 2406 4219 
Q 1781 4219 1451 3797 
Q 1122 3375 1075 2522 
Q 1259 2794 1537 2939 
Q 1816 3084 2150 3084 
Q 2853 3084 3261 2657 
Q 3669 2231 3669 1497 
Q 3669 778 3244 343 
Q 2819 -91 2113 -91 
Q 1303 -91 875 529 
Q 447 1150 447 2328 
Q 447 3434 972 4092 
Q 1497 4750 2381 4750 
Q 2619 4750 2861 4703 
Q 3103 4656 3366 4563 
z
" transform="scale(0.015625)"/>
       </defs>
       <use xlink:href="#DejaVuSans-36"/>
       <use xlink:href="#DejaVuSans-30" x="63.623047"/>
      </g>
     </g>
    </g>
    <g id="text_10">
     <!-- Sequence Length (bp) -->
     <g transform="translate(461.530781 379.564837) scale(0.1 -0.1)">
      <defs>
       <path id="DejaVuSans-53" d="M 3425 4513 
L 3425 3897 
Q 3066 4069 2747 4153 
Q 2428 4238 2131 4238 
Q 1616 4238 1336 4038 
Q 1056 3838 1056 3469 
Q 1056 3159 1242 3001 
Q 1428 2844 1947 2747 
L 2328 2669 
Q 3034 2534 3370 2195 
Q 3706 1856 3706 1288 
Q 3706 609 3251 259 
Q 2797 -91 1919 -91 
Q 1588 -91 1214 -16 
Q 841 59 441 206 
L 441 856 
Q 825 641 1194 531 
Q 1563 422 1919 422 
Q 2459 422 2753 634 
Q 3047 847 3047 1241 
Q 3047 1584 2836 1778 
Q 2625 1972 2144 2069 
L 1759 2144 
Q 1053 2284 737 2584 
Q 422 2884 422 3419 
Q 422 4038 858 4394 
Q 1294 4750 2059 4750 
Q 2388 4750 2728 4690 
Q 3069 4631 3425 4513 
z
" transform="scale(0.015625)"/>
       <path id="DejaVuSans-65" d="M 3597 1894 
L 3597 1613 
L 953 1613 
Q 991 1019 1311 708 
Q 1631 397 2203 397 
Q 2534 397 2845 478 
Q 3156 559 3463 722 
L 3463 178 
Q 3153 47 2828 -22 
Q 2503 -91 2169 -91 
Q 1331 -91 842 396 
Q 353 884 353 1716 
Q 353 2575 817 3079 
Q 1281 3584 2069 3584 
Q 2775 3584 3186 3129 
Q 3597 2675 3597 1894 
z
M 3022 2063 
Q 3016 2534 2758 2815 
Q 2500 3097 2075 3097 
Q 1594 3097 1305 2825 
Q 1016 2553 972 2059 
L 3022 2063 
z
" transform="scale(0.015625)"/>
       <path id="DejaVuSans-71" d="M 947 1747 
Q 947 1113 1208 752 
Q 1469 391 1925 391 
Q 2381 391 2643 752 
Q 2906 1113 2906 1747 
Q 2906 2381 2643 2742 
Q 2381 3103 1925 3103 
Q 1469 3103 1208 2742 
Q 947 2381 947 1747 
z
M 2906 525 
Q 2725 213 2448 61 
Q 2172 -91 1784 -91 
Q 1150 -91 751 415 
Q 353 922 353 1747 
Q 353 2572 751 3078 
Q 1150 3584 1784 3584 
Q 2172 3584 2448 3432 
Q 2725 3281 2906 2969 
L 2906 3500 
L 3481 3500 
L 3481 -1331 
L 2906 -1331 
L 2906 525 
z
" transform="scale(0.015625)"/>
       <path id="DejaVuSans-75" d="M 544 1381 
L 544 3500 
L 1119 3500 
L 1119 1403 
Q 1119 906 1312 657 
Q 1506 409 1894 409 
Q 2359 409 2629 706 
Q 2900 1003 2900 1516 
L 2900 3500 
L 3475 3500 
L 3475 0 
L 2900 0 
L 2900 538 
Q 2691 219 2414 64 
Q 2138 -91 1772 -91 
Q 1169 -91 856 284 
Q 544 659 544 1381 
z
M 1991 3584 
L 1991 3584 
z
" transform="scale(0.015625)"/>
       <path id="DejaVuSans-6e" d="M 3513 2113 
L 3513 0 
L 2938 0 
L 2938 2094 
Q 2938 2591 2744 2837 
Q 2550 3084 2163 3084 
Q 1697 3084 1428 2787 
Q 1159 2491 1159 1978 
L 1159 0 
L 581 0 
L 581 3500 
L 1159 3500 
L 1159 2956 
Q 1366 3272 1645 3428 
Q 1925 3584 2291 3584 
Q 2894 3584 3203 3211 
Q 3513 2838 3513 2113 
z
" transform="scale(0.015625)"/>
       <path id="DejaVuSans-63" d="M 3122 3366 
L 3122 2828 
Q 2878 2963 2633 3030 
Q 2388 3097 2138 3097 
Q 1578 3097 1268 2742 
Q 959 2388 959 1747 
Q 959 1106 1268 751 
Q 1578 397 2138 397 
Q 2388 397 2633 464 
Q 2878 531 3122 666 
L 3122 134 
Q 2881 22 2623 -34 
Q 2366 -91 2075 -91 
Q 1284 -91 818 406 
Q 353 903 353 1747 
Q 353 2603 823 3093 
Q 1294 3584 2113 3584 
Q 2378 3584 2631 3529 
Q 2884 3475 3122 3366 
z
" transform="scale(0.015625)"/>
       <path id="DejaVuSans-20" transform="scale(0.015625)"/>
       <path id="DejaVuSans-4c" d="M 628 4666 
L 1259 4666 
L 1259 531 
L 3531 531 
L 3531 0 
L 628 0 
L 628 4666 
z
" transform="scale(0.015625)"/>
       <path id="DejaVuSans-67" d="M 2906 1791 
Q 2906 2416 2648 2759 
Q 2391 3103 1925 3103 
Q 1463 3103 1205 2759 
Q 947 2416 947 1791 
Q 947 1169 1205 825 
Q 1463 481 1925 481 
Q 2391 481 2648 825 
Q 2906 1169 2906 1791 
z
M 3481 434 
Q 3481 -459 3084 -895 
Q 2688 -1331 1869 -1331 
Q 1566 -1331 1297 -1286 
Q 1028 -1241 775 -1147 
L 775 -588 
Q 1028 -725 1275 -790 
Q 1522 -856 1778 -856 
Q 2344 -856 2625 -561 
Q 2906 -266 2906 331 
L 2906 616 
Q 2728 306 2450 153 
Q 2172 0 1784 0 
Q 1141 0 747 490 
Q 353 981 353 1791 
Q 353 2603 747 3093 
Q 1141 3584 1784 3584 
Q 2172 3584 2450 3431 
Q 2728 3278 2906 2969 
L 2906 3500 
L 3481 3500 
L 3481 434 
z
" transform="scale(0.015625)"/>
       <path id="DejaVuSans-74" d="M 1172 4494 
L 1172 3500 
L 2356 3500 
L 2356 3053 
L 1172 3053 
L 1172 1153 
Q 1172 725 1289 603 
Q 1406 481 1766 481 
L 2356 481 
L 2356 0 
L 1766 0 
Q 1100 0 847 248 
Q 594 497 594 1153 
L 594 3053 
L 172 3053 
L 172 3500 
L 594 3500 
L 594 4494 
L 1172 4494 
z
" transform="scale(0.015625)"/>
       <path id="DejaVuSans-68" d="M 3513 2113 
L 3513 0 
L 2938 0 
L 2938 2094 
Q 2938 2591 2744 2837 
Q 2550 3084 2163 3084 
Q 1697 3084 1428 2787 
Q 1159 2491 1159 1978 
L 1159 0 
L 581 0 
L 581 4863 
L 1159 4863 
L 1159 2956 
Q 1366 3272 1645 3428 
Q 1925 3584 2291 3584 
Q 2894 3584 3203 3211 
Q 3513 2838 3513 2113 
z
" transform="scale(0.015625)"/>
       <path id="DejaVuSans-28" d="M 1984 4856 
Q 1566 4138 1362 3434 
Q 1159 2731 1159 2009 
Q 1159 1288 1364 580 
Q 1569 -128 1984 -844 
L 1484 -844 
Q 1016 -109 783 600 
Q 550 1309 550 2009 
Q 550 2706 781 3412 
Q 1013 4119 1484 4856 
L 1984 4856 
z
" transform="scale(0.015625)"/>
       <path id="DejaVuSans-62" d="M 3116 1747 
Q 3116 2381 2855 2742 
Q 2594 3103 2138 3103 
Q 1681 3103 1420 2742 
Q 1159 2381 1159 1747 
Q 1159 1113 1420 752 
Q 1681 391 2138 391 
Q 2594 391 2855 752 
Q 3116 1113 3116 1747 
z
M 1159 2969 
Q 1341 3281 1617 3432 
Q 1894 3584 2278 3584 
Q 2916 3584 3314 3078 
Q 3713 2572 3713 1747 
Q 3713 922 3314 415 
Q 2916 -91 2278 -91 
Q 1894 -91 1617 61 
Q 1341 213 1159 525 
L 1159 0 
L 581 0 
L 581 4863 
L 1159 4863 
L 1159 2969 
z
" transform="scale(0.015625)"/>
       <path id="DejaVuSans-70" d="M 1159 525 
L 1159 -1331 
L 581 -1331 
L 581 3500 
L 1159 3500 
L 1159 2969 
Q 1341 3281 1617 3432 
Q 1894 3584 2278 3584 
Q 2916 3584 3314 3078 
Q 3713 2572 3713 1747 
Q 3713 922 3314 415 
Q 2916 -91 2278 -91 
Q 1894 -91 1617 61 
Q 1341 213 1159 525 
z
M 3116 1747 
Q 3116 2381 2855 2742 
Q 2594 3103 2138 3103 
Q 1681 3103 1420 2742 
Q 1159 2381 1159 1747 
Q 1159 1113 1420 752 
Q 1681 391 2138 391 
Q 2594 391 2855 752 
Q 3116 1113 3116 1747 
z
" transform="scale(0.015625)"/>
       <path id="DejaVuSans-29" d="M 513 4856 
L 1013 4856 
Q 1481 4119 1714 3412 
Q 1947 2706 1947 2009 
Q 1947 1309 1714 600 
Q 1481 -109 1013 -844 
L 513 -844 
Q 928 -128 1133 580 
Q 1338 1288 1338 2009 
Q 1338 2731 1133 3434 
Q 928 4138 513 4856 
z
" transform="scale(0.015625)"/>
      </defs>
      <use xlink:href="#DejaVuSans-53"/>
      <use xlink:href="#DejaVuSans-65" x="63.476562"/>
      <use xlink:href="#DejaVuSans-71" x="125"/>
      <use xlink:href="#DejaVuSans-75" x="188.476562"/>
      <use xlink:href="#DejaVuSans-65" x="251.855469"/>
      <use xlink:href="#DejaVuSans-6e" x="313.378906"/>
      <use xlink:href="#DejaVuSans-63" x="376.757812"/>
      <use xlink:href="#DejaVuSans-65" x="431.738281"/>
      <use xlink:href="#DejaVuSans-20" x="493.261719"/>
      <use xlink:href="#DejaVuSans-4c" x="525.048828"/>
      <use xlink:href="#DejaVuSans-65" x="579.011719"/>
      <use xlink:href="#DejaVuSans-6e" x="640.535156"/>
      <use xlink:href="#DejaVuSans-67" x="703.914062"/>
      <use xlink:href="#DejaVuSans-74" x="767.390625"/>
      <use xlink:href="#DejaVuSans-68" x="806.599609"/>
      <use xlink:href="#DejaVuSans-20" x="869.978516"/>
      <use xlink:href="#DejaVuSans-28" x="901.765625"/>
      <use xlink:href="#DejaVuSans-62" x="940.779297"/>
      <use xlink:href="#DejaVuSans-70" x="1004.255859"/>
      <use xlink:href="#DejaVuSans-29" x="1067.732422"/>
     </g>
    </g>
   </g>
   <g id="matplotlib.axis_2">
    <g id="ytick_1">
     <g id="line2d_1">
      <path d="M 40.600625 353.2239 
L 993.140625 353.2239 
" clip-path="url(#p61ed61e14f)" style="fill: none; stroke: #dedede; stroke-linecap: square"/>
     </g>
     <g id="text_11">
      <!-- 0.0 -->
      <g transform="translate(20.878125 356.263275) scale(0.08 -0.08)">
       <defs>
        <path id="DejaVuSans-2e" d="M 684 794 
L 1344 794 
L 1344 0 
L 684 0 
L 684 794 
z
" transform="scale(0.015625)"/>
       </defs>
       <use xlink:href="#DejaVuSans-30"/>
       <use xlink:href="#DejaVuSans-2e" x="63.623047"/>
       <use xlink:href="#DejaVuSans-30" x="95.410156"/>
      </g>
     </g>
    </g>
    <g id="ytick_2">
     <g id="line2d_2">
      <path d="M 40.600625 297.585594 
L 993.140625 297.585594 
" clip-path="url(#p61ed61e14f)" style="fill: none; stroke: #dedede; stroke-linecap: square"/>
     </g>
     <g id="text_12">
      <!-- 0.5 -->
      <g transform="translate(20.878125 300.624969) scale(0.08 -0.08)">
       <use xlink:href="#DejaVuSans-30"/>
       <use xlink:href="#DejaVuSans-2e" x="63.623047"/>
       <use xlink:href="#DejaVuSans-35" x="95.410156"/>
      </g>
     </g>
    </g>
    <g id="ytick_3">
     <g id="line2d_3">
      <path d="M 40.600625 241.947289 
L 993.140625 241.947289 
" clip-path="url(#p61ed61e14f)" style="fill: none; stroke: #dedede; stroke-linecap: square"/>
     </g>
     <g id="text_13">
      <!-- 1.0 -->
      <g transform="translate(20.878125 244.986664) scale(0.08 -0.08)">
       <defs>
        <path id="DejaVuSans-31" d="M 794 531 
L 1825 531 
L 1825 4091 
L 703 3866 
L 703 4441 
L 1819 4666 
L 2450 4666 
L 2450 531 
L 3481 531 
L 3481 0 
L 794 0 
L 794 531 
z
" transform="scale(0.015625)"/>
       </defs>
       <use xlink:href="#DejaVuSans-31"/>
       <use xlink:href="#DejaVuSans-2e" x="63.623047"/>
       <use xlink:href="#DejaVuSans-30" x="95.410156"/>
      </g>
     </g>
    </g>
    <g id="ytick_4">
     <g id="line2d_4">
      <path d="M 40.600625 186.308983 
L 993.140625 186.308983 
" clip-path="url(#p61ed61e14f)" style="fill: none; stroke: #dedede; stroke-linecap: square"/>
     </g>
     <g id="text_14">
      <!-- 1.5 -->
      <g transform="translate(20.878125 189.348358) scale(0.08 -0.08)">
       <use xlink:href="#DejaVuSans-31"/>
       <use xlink:href="#DejaVuSans-2e" x="63.623047"/>
       <use xlink:href="#DejaVuSans-35" x="95.410156"/>
      </g>
     </g>
    </g>
    <g id="ytick_5">
     <g id="line2d_5">
      <path d="M 40.600625 130.670678 
L 993.140625 130.670678 
" clip-path="url(#p61ed61e14f)" style="fill: none; stroke: #dedede; stroke-linecap: square"/>
     </g>
     <g id="text_15">
      <!-- 2.0 -->
      <g transform="translate(20.878125 133.710053) scale(0.08 -0.08)">
       <use xlink:href="#DejaVuSans-32"/>
       <use xlink:href="#DejaVuSans-2e" x="63.623047"/>
       <use xlink:href="#DejaVuSans-30" x="95.410156"/>
      </g>
     </g>
    </g>
    <g id="ytick_6">
     <g id="line2d_6">
      <path d="M 40.600625 75.032372 
L 993.140625 75.032372 
" clip-path="url(#p61ed61e14f)" style="fill: none; stroke: #dedede; stroke-linecap: square"/>
     </g>
     <g id="text_16">
      <!-- 2.5 -->
      <g transform="translate(20.878125 78.071747) scale(0.08 -0.08)">
       <use xlink:href="#DejaVuSans-32"/>
       <use xlink:href="#DejaVuSans-2e" x="63.623047"/>
       <use xlink:href="#DejaVuSans-35" x="95.410156"/>
      </g>
     </g>
    </g>
    <g id="text_17">
     <!-- Read Count -->
     <g transform="translate(14.798438 223.241463) rotate(-90) scale(0.1 -0.1)">
      <defs>
       <path id="DejaVuSans-52" d="M 2841 2188 
Q 3044 2119 3236 1894 
Q 3428 1669 3622 1275 
L 4263 0 
L 3584 0 
L 2988 1197 
Q 2756 1666 2539 1819 
Q 2322 1972 1947 1972 
L 1259 1972 
L 1259 0 
L 628 0 
L 628 4666 
L 2053 4666 
Q 2853 4666 3247 4331 
Q 3641 3997 3641 3322 
Q 3641 2881 3436 2590 
Q 3231 2300 2841 2188 
z
M 1259 4147 
L 1259 2491 
L 2053 2491 
Q 2509 2491 2742 2702 
Q 2975 2913 2975 3322 
Q 2975 3731 2742 3939 
Q 2509 4147 2053 4147 
L 1259 4147 
z
" transform="scale(0.015625)"/>
       <path id="DejaVuSans-61" d="M 2194 1759 
Q 1497 1759 1228 1600 
Q 959 1441 959 1056 
Q 959 750 1161 570 
Q 1363 391 1709 391 
Q 2188 391 2477 730 
Q 2766 1069 2766 1631 
L 2766 1759 
L 2194 1759 
z
M 3341 1997 
L 3341 0 
L 2766 0 
L 2766 531 
Q 2569 213 2275 61 
Q 1981 -91 1556 -91 
Q 1019 -91 701 211 
Q 384 513 384 1019 
Q 384 1609 779 1909 
Q 1175 2209 1959 2209 
L 2766 2209 
L 2766 2266 
Q 2766 2663 2505 2880 
Q 2244 3097 1772 3097 
Q 1472 3097 1187 3025 
Q 903 2953 641 2809 
L 641 3341 
Q 956 3463 1253 3523 
Q 1550 3584 1831 3584 
Q 2591 3584 2966 3190 
Q 3341 2797 3341 1997 
z
" transform="scale(0.015625)"/>
       <path id="DejaVuSans-64" d="M 2906 2969 
L 2906 4863 
L 3481 4863 
L 3481 0 
L 2906 0 
L 2906 525 
Q 2725 213 2448 61 
Q 2172 -91 1784 -91 
Q 1150 -91 751 415 
Q 353 922 353 1747 
Q 353 2572 751 3078 
Q 1150 3584 1784 3584 
Q 2172 3584 2448 3432 
Q 2725 3281 2906 2969 
z
M 947 1747 
Q 947 1113 1208 752 
Q 1469 391 1925 391 
Q 2381 391 2643 752 
Q 2906 1113 2906 1747 
Q 2906 2381 2643 2742 
Q 2381 3103 1925 3103 
Q 1469 3103 1208 2742 
Q 947 2381 947 1747 
z
" transform="scale(0.015625)"/>
       <path id="DejaVuSans-43" d="M 4122 4306 
L 4122 3641 
Q 3803 3938 3442 4084 
Q 3081 4231 2675 4231 
Q 1875 4231 1450 3742 
Q 1025 3253 1025 2328 
Q 1025 1406 1450 917 
Q 1875 428 2675 428 
Q 3081 428 3442 575 
Q 3803 722 4122 1019 
L 4122 359 
Q 3791 134 3420 21 
Q 3050 -91 2638 -91 
Q 1578 -91 968 557 
Q 359 1206 359 2328 
Q 359 3453 968 4101 
Q 1578 4750 2638 4750 
Q 3056 4750 3426 4639 
Q 3797 4528 4122 4306 
z
" transform="scale(0.015625)"/>
       <path id="DejaVuSans-6f" d="M 1959 3097 
Q 1497 3097 1228 2736 
Q 959 2375 959 1747 
Q 959 1119 1226 758 
Q 1494 397 1959 397 
Q 2419 397 2687 759 
Q 2956 1122 2956 1747 
Q 2956 2369 2687 2733 
Q 2419 3097 1959 3097 
z
M 1959 3584 
Q 2709 3584 3137 3096 
Q 3566 2609 3566 1747 
Q 3566 888 3137 398 
Q 2709 -91 1959 -91 
Q 1206 -91 779 398 
Q 353 888 353 1747 
Q 353 2609 779 3096 
Q 1206 3584 1959 3584 
z
" transform="scale(0.015625)"/>
      </defs>
      <use xlink:href="#DejaVuSans-52"/>
      <use xlink:href="#DejaVuSans-65" x="64.982422"/>
      <use xlink:href="#DejaVuSans-61" x="126.505859"/>
      <use xlink:href="#DejaVuSans-64" x="187.785156"/>
      <use xlink:href="#DejaVuSans-20" x="251.261719"/>
      <use xlink:href="#DejaVuSans-43" x="283.048828"/>
      <use xlink:href="#DejaVuSans-6f" x="352.873047"/>
      <use xlink:href="#DejaVuSans-75" x="414.054688"/>
      <use xlink:href="#DejaVuSans-6e" x="477.433594"/>
      <use xlink:href="#DejaVuSans-74" x="540.8125"/>
     </g>
    </g>
    <g id="text_18">
     <!-- 1e7 -->
     <g transform="translate(40.600625 32.2559) scale(0.1 -0.1)">
      <defs>
       <path id="DejaVuSans-37" d="M 525 4666 
L 3525 4666 
L 3525 4397 
L 1831 0 
L 1172 0 
L 2766 4134 
L 525 4134 
L 525 4666 
z
" transform="scale(0.015625)"/>
      </defs>
      <use xlink:href="#DejaVuSans-31"/>
      <use xlink:href="#DejaVuSans-65" x="63.623047"/>
      <use xlink:href="#DejaVuSans-37" x="125.146484"/>
     </g>
    </g>
   </g>
   <g id="line2d_7">
    <path d="M 616.787408 353.223867 
L 638.991138 353.223711 
L 661.194867 353.223021 
L 683.398597 353.220996 
L 705.602327 353.223833 
L 727.806056 353.223299 
L 750.009786 353.221741 
L 772.213515 353.212082 
L 794.417245 352.969455 
L 816.620975 351.963581 
L 838.824704 347.745663 
L 861.028434 330.073235 
L 883.232163 282.8122 
L 905.435893 142.894235 
" clip-path="url(#p61ed61e14f)" style="fill: none; stroke: #f0ad4e; stroke-linecap: square"/>
   </g>
   <g id="line2d_8">
    <path d="M 83.897898 353.222609 
L 106.101627 353.222542 
L 128.305357 353.222654 
L 150.509087 353.222431 
L 172.712816 353.222431 
L 194.916546 353.222364 
L 217.120275 353.221597 
L 239.324005 353.22124 
L 261.527735 353.222108 
L 283.731464 353.221942 
L 305.935194 353.221296 
L 328.138923 353.221597 
L 350.342653 353.221396 
L 372.546383 353.221508 
L 394.750112 353.220673 
L 416.953842 353.221096 
L 439.157571 353.221307 
L 461.361301 353.22005 
L 483.565031 353.220072 
L 505.76876 353.219438 
L 527.97249 353.218648 
L 550.176219 353.218926 
L 572.379949 353.217268 
L 594.583679 353.21601 
L 616.787408 353.216322 
L 638.991138 353.213752 
L 661.194867 353.206819 
L 683.398597 353.201289 
L 705.602327 353.194167 
L 727.806056 353.158625 
L 750.009786 353.035175 
L 772.213515 352.504641 
L 794.417245 351.257854 
L 816.620975 346.760031 
L 838.824704 331.482731 
L 861.028434 293.464142 
L 883.232163 238.361867 
L 905.435893 248.636938 
" clip-path="url(#p61ed61e14f)" style="fill: none; stroke: #f0ad4e; stroke-linecap: square"/>
   </g>
   <g id="line2d_9">
    <path d="M 616.787408 353.223844 
L 638.991138 353.223577 
L 661.194867 353.222298 
L 683.398597 353.219493 
L 705.602327 353.223677 
L 727.806056 353.222743 
L 750.009786 353.217324 
L 772.213515 353.179968 
L 794.417245 352.904937 
L 816.620975 352.006133 
L 838.824704 346.472192 
L 861.028434 330.911115 
L 883.232163 276.857388 
L 905.435893 149.346231 
" clip-path="url(#p61ed61e14f)" style="fill: none; stroke: #f0ad4e; stroke-linecap: square"/>
   </g>
   <g id="line2d_10">
    <path d="M 83.897898 353.213318 
L 106.101627 353.206741 
L 128.305357 353.215933 
L 150.509087 353.216678 
L 172.712816 353.209011 
L 194.916546 353.195046 
L 217.120275 353.213384 
L 239.324005 353.207809 
L 261.527735 353.215321 
L 283.731464 353.207264 
L 305.935194 353.216712 
L 328.138923 353.207709 
L 350.342653 353.207008 
L 372.546383 353.213395 
L 394.750112 353.214308 
L 416.953842 353.208043 
L 439.157571 353.202824 
L 461.361301 353.212227 
L 483.565031 353.203915 
L 505.76876 353.199731 
L 527.97249 353.20703 
L 550.176219 353.20377 
L 572.379949 353.202379 
L 594.583679 353.194467 
L 616.787408 353.195157 
L 638.991138 353.195435 
L 661.194867 353.185654 
L 683.398597 353.172446 
L 705.602327 353.16193 
L 727.806056 353.098814 
L 750.009786 352.970256 
L 772.213515 352.496663 
L 794.417245 350.96237 
L 816.620975 345.749862 
L 838.824704 328.836195 
L 861.028434 290.553425 
L 883.232163 228.952829 
L 905.435893 265.470497 
" clip-path="url(#p61ed61e14f)" style="fill: none; stroke: #f0ad4e; stroke-linecap: square"/>
   </g>
   <g id="line2d_11">
    <path d="M 616.787408 353.223878 
L 638.991138 353.223789 
L 661.194867 353.22341 
L 683.398597 353.222286 
L 705.602327 353.223833 
L 727.806056 353.223644 
L 750.009786 353.221385 
L 772.213515 353.216378 
L 794.417245 353.030234 
L 816.620975 352.30441 
L 838.824704 349.156462 
L 861.028434 335.264189 
L 883.232163 300.711087 
L 905.435893 195.344767 
" clip-path="url(#p61ed61e14f)" style="fill: none; stroke: #f0ad4e; stroke-linecap: square"/>
   </g>
   <g id="line2d_12">
    <path d="M 83.897898 353.223088 
L 106.101627 353.223054 
L 128.305357 353.222709 
L 150.509087 353.222899 
L 172.712816 353.222676 
L 194.916546 353.222387 
L 217.120275 353.222453 
L 239.324005 353.222264 
L 261.527735 353.222698 
L 283.731464 353.222576 
L 305.935194 353.22222 
L 328.138923 353.22193 
L 350.342653 353.222275 
L 372.546383 353.222108 
L 394.750112 353.221808 
L 416.953842 353.221908 
L 439.157571 353.221619 
L 461.361301 353.221163 
L 483.565031 353.22074 
L 505.76876 353.220339 
L 527.97249 353.218403 
L 550.176219 353.219015 
L 572.379949 353.218258 
L 594.583679 353.217446 
L 616.787408 353.217223 
L 638.991138 353.215009 
L 661.194867 353.210224 
L 683.398597 353.207442 
L 705.602327 353.200421 
L 727.806056 353.170932 
L 750.009786 353.086006 
L 772.213515 352.656189 
L 794.417245 351.762337 
L 816.620975 348.46332 
L 838.824704 336.81435 
L 861.028434 308.582183 
L 883.232163 268.147322 
L 905.435893 273.291028 
" clip-path="url(#p61ed61e14f)" style="fill: none; stroke: #f0ad4e; stroke-linecap: square"/>
   </g>
   <g id="line2d_13">
    <path d="M 616.787408 353.223867 
L 638.991138 353.223666 
L 661.194867 353.223032 
L 683.398597 353.22025 
L 705.602327 353.223722 
L 727.806056 353.223243 
L 750.009786 353.219794 
L 772.213515 353.1941 
L 794.417245 353.009815 
L 816.620975 352.370631 
L 838.824704 348.517656 
L 861.028434 336.719108 
L 883.232163 295.935952 
L 905.435893 199.284916 
" clip-path="url(#p61ed61e14f)" style="fill: none; stroke: #f0ad4e; stroke-linecap: square"/>
   </g>
   <g id="line2d_14">
    <path d="M 83.897898 353.214408 
L 106.101627 353.206218 
L 128.305357 353.217924 
L 150.509087 353.217312 
L 172.712816 353.211426 
L 194.916546 353.194912 
L 217.120275 353.214675 
L 239.324005 353.209768 
L 261.527735 353.217056 
L 283.731464 353.207553 
L 305.935194 353.217835 
L 328.138923 353.210714 
L 350.342653 353.20811 
L 372.546383 353.215565 
L 394.750112 353.215999 
L 416.953842 353.210525 
L 439.157571 353.204749 
L 461.361301 353.213251 
L 483.565031 353.207264 
L 505.76876 353.197728 
L 527.97249 353.208299 
L 550.176219 353.204627 
L 572.379949 353.203503 
L 594.583679 353.197138 
L 616.787408 353.197683 
L 638.991138 353.199964 
L 661.194867 353.192464 
L 683.398597 353.182972 
L 705.602327 353.174649 
L 727.806056 353.126678 
L 750.009786 353.031681 
L 772.213515 352.675707 
L 794.417245 351.509383 
L 816.620975 347.578782 
L 838.824704 334.89011 
L 861.028434 305.636212 
L 883.232163 259.239685 
L 905.435893 288.67749 
" clip-path="url(#p61ed61e14f)" style="fill: none; stroke: #f0ad4e; stroke-linecap: square"/>
   </g>
   <g id="line2d_15">
    <path d="M 616.787408 353.223867 
L 638.991138 353.223755 
L 661.194867 353.222665 
L 683.398597 353.221686 
L 705.602327 353.223855 
L 727.806056 353.223511 
L 750.009786 353.221986 
L 772.213515 353.212316 
L 794.417245 352.951495 
L 816.620975 352.023837 
L 838.824704 348.031155 
L 861.028434 331.522368 
L 883.232163 287.396474 
L 905.435893 148.628175 
" clip-path="url(#p61ed61e14f)" style="fill: none; stroke: #f0ad4e; stroke-linecap: square"/>
   </g>
   <g id="line2d_16">
    <path d="M 83.897898 353.222743 
L 106.101627 353.222743 
L 128.305357 353.22272 
L 150.509087 353.222242 
L 172.712816 353.222042 
L 194.916546 353.222398 
L 217.120275 353.22212 
L 239.324005 353.222164 
L 261.527735 353.222031 
L 283.731464 353.222031 
L 305.935194 353.221864 
L 328.138923 353.221719 
L 350.342653 353.221786 
L 372.546383 353.221474 
L 394.750112 353.221085 
L 416.953842 353.22153 
L 439.157571 353.220729 
L 461.361301 353.220695 
L 483.565031 353.220194 
L 505.76876 353.219549 
L 527.97249 353.21897 
L 550.176219 353.218848 
L 572.379949 353.217824 
L 594.583679 353.216923 
L 616.787408 353.216177 
L 638.991138 353.213128 
L 661.194867 353.20772 
L 683.398597 353.202602 
L 705.602327 353.193544 
L 727.806056 353.148989 
L 750.009786 353.034819 
L 772.213515 352.579108 
L 794.417245 351.266678 
L 816.620975 347.045734 
L 838.824704 331.910968 
L 861.028434 294.197544 
L 883.232163 241.186647 
L 905.435893 256.26071 
" clip-path="url(#p61ed61e14f)" style="fill: none; stroke: #f0ad4e; stroke-linecap: square"/>
   </g>
   <g id="line2d_17">
    <path d="M 616.787408 353.223855 
L 638.991138 353.223622 
L 661.194867 353.222409 
L 683.398597 353.217936 
L 705.602327 353.223789 
L 727.806056 353.223166 
L 750.009786 353.216467 
L 772.213515 353.178744 
L 794.417245 352.868104 
L 816.620975 351.98015 
L 838.824704 346.565052 
L 861.028434 331.333955 
L 883.232163 283.07133 
L 905.435893 154.778566 
" clip-path="url(#p61ed61e14f)" style="fill: none; stroke: #f0ad4e; stroke-linecap: square"/>
   </g>
   <g id="line2d_18">
    <path d="M 83.897898 353.216244 
L 106.101627 353.209879 
L 128.305357 353.217602 
L 150.509087 353.217435 
L 172.712816 353.214241 
L 194.916546 353.204783 
L 217.120275 353.216545 
L 239.324005 353.212895 
L 261.527735 353.217101 
L 283.731464 353.212427 
L 305.935194 353.217424 
L 328.138923 353.213952 
L 350.342653 353.211782 
L 372.546383 353.215877 
L 394.750112 353.215955 
L 416.953842 353.212082 
L 439.157571 353.208566 
L 461.361301 353.213729 
L 483.565031 353.2088 
L 505.76876 353.206941 
L 527.97249 353.210168 
L 550.176219 353.206474 
L 572.379949 353.204883 
L 594.583679 353.201155 
L 616.787408 353.200565 
L 638.991138 353.200743 
L 661.194867 353.192565 
L 683.398597 353.178911 
L 705.602327 353.16815 
L 727.806056 353.110476 
L 750.009786 352.995193 
L 772.213515 352.499389 
L 794.417245 351.053439 
L 816.620975 345.932166 
L 838.824704 329.213523 
L 861.028434 293.199482 
L 883.232163 235.678677 
L 905.435893 267.26057 
" clip-path="url(#p61ed61e14f)" style="fill: none; stroke: #f0ad4e; stroke-linecap: square"/>
   </g>
   <g id="line2d_19">
    <path d="M 616.787408 353.223833 
L 638.991138 353.223811 
L 661.194867 353.222899 
L 683.398597 353.220795 
L 705.602327 353.223766 
L 727.806056 353.223499 
L 750.009786 353.221608 
L 772.213515 353.212227 
L 794.417245 352.975208 
L 816.620975 351.905383 
L 838.824704 347.658823 
L 861.028434 328.515541 
L 883.232163 281.820659 
L 905.435893 131.20732 
" clip-path="url(#p61ed61e14f)" style="fill: none; stroke: #f0ad4e; stroke-linecap: square"/>
   </g>
   <g id="line2d_20">
    <path d="M 83.897898 353.222431 
L 106.101627 353.222665 
L 128.305357 353.222643 
L 150.509087 353.222387 
L 172.712816 353.222242 
L 194.916546 353.22232 
L 217.120275 353.22222 
L 239.324005 353.221997 
L 261.527735 353.222197 
L 283.731464 353.222053 
L 305.935194 353.221563 
L 328.138923 353.221407 
L 350.342653 353.221597 
L 372.546383 353.221674 
L 394.750112 353.221552 
L 416.953842 353.221563 
L 439.157571 353.220873 
L 461.361301 353.220985 
L 483.565031 353.220528 
L 505.76876 353.219471 
L 527.97249 353.219182 
L 550.176219 353.219137 
L 572.379949 353.217936 
L 594.583679 353.217179 
L 616.787408 353.216656 
L 638.991138 353.212895 
L 661.194867 353.207264 
L 683.398597 353.201967 
L 705.602327 353.19449 
L 727.806056 353.155242 
L 750.009786 353.043943 
L 772.213515 352.522613 
L 794.417245 351.198766 
L 816.620975 346.55941 
L 838.824704 330.583917 
L 861.028434 291.739978 
L 883.232163 234.545525 
L 905.435893 240.934794 
" clip-path="url(#p61ed61e14f)" style="fill: none; stroke: #f0ad4e; stroke-linecap: square"/>
   </g>
   <g id="line2d_21">
    <path d="M 616.787408 353.223822 
L 638.991138 353.223522 
L 661.194867 353.222108 
L 683.398597 353.218303 
L 705.602327 353.2237 
L 727.806056 353.222754 
L 750.009786 353.216934 
L 772.213515 353.183228 
L 794.417245 352.932444 
L 816.620975 352.072321 
L 838.824704 346.786804 
L 861.028434 330.665939 
L 883.232163 273.673508 
L 905.435893 137.989986 
" clip-path="url(#p61ed61e14f)" style="fill: none; stroke: #f0ad4e; stroke-linecap: square"/>
   </g>
   <g id="line2d_22">
    <path d="M 83.897898 353.212027 
L 106.101627 353.195146 
L 128.305357 353.215487 
L 150.509087 353.215087 
L 172.712816 353.205439 
L 194.916546 353.188102 
L 217.120275 353.213295 
L 239.324005 353.205762 
L 261.527735 353.216456 
L 283.731464 353.204293 
L 305.935194 353.216255 
L 328.138923 353.208466 
L 350.342653 353.203303 
L 372.546383 353.213451 
L 394.750112 353.214341 
L 416.953842 353.204849 
L 439.157571 353.194044 
L 461.361301 353.20979 
L 483.565031 353.201344 
L 505.76876 353.18986 
L 527.97249 353.206341 
L 550.176219 353.201533 
L 572.379949 353.19301 
L 594.583679 353.185576 
L 616.787408 353.191507 
L 638.991138 353.19479 
L 661.194867 353.185465 
L 683.398597 353.17288 
L 705.602327 353.164745 
L 727.806056 353.105212 
L 750.009786 352.993435 
L 772.213515 352.504419 
L 794.417245 350.962437 
L 816.620975 345.510606 
L 838.824704 328.125227 
L 861.028434 287.52156 
L 883.232163 221.09216 
L 905.435893 262.98756 
" clip-path="url(#p61ed61e14f)" style="fill: none; stroke: #f0ad4e; stroke-linecap: square"/>
   </g>
   <g id="line2d_23">
    <path d="M 616.787408 353.223867 
L 638.991138 353.223789 
L 661.194867 353.223177 
L 683.398597 353.22153 
L 705.602327 353.223833 
L 727.806056 353.223633 
L 750.009786 353.221875 
L 772.213515 353.211315 
L 794.417245 352.983353 
L 816.620975 352.007157 
L 838.824704 348.151667 
L 861.028434 331.751887 
L 883.232163 287.687239 
L 905.435893 153.282931 
" clip-path="url(#p61ed61e14f)" style="fill: none; stroke: #f0ad4e; stroke-linecap: square"/>
   </g>
   <g id="line2d_24">
    <path d="M 83.897898 353.222899 
L 106.101627 353.222821 
L 128.305357 353.222665 
L 150.509087 353.222643 
L 172.712816 353.222487 
L 194.916546 353.222309 
L 217.120275 353.222097 
L 239.324005 353.222242 
L 261.527735 353.22242 
L 283.731464 353.221897 
L 305.935194 353.221419 
L 328.138923 353.221318 
L 350.342653 353.221552 
L 372.546383 353.22153 
L 394.750112 353.220884 
L 416.953842 353.221396 
L 439.157571 353.221096 
L 461.361301 353.220306 
L 483.565031 353.220562 
L 505.76876 353.219171 
L 527.97249 353.218804 
L 550.176219 353.219026 
L 572.379949 353.217424 
L 594.583679 353.215955 
L 616.787408 353.215599 
L 638.991138 353.213117 
L 661.194867 353.205895 
L 683.398597 353.199675 
L 705.602327 353.192353 
L 727.806056 353.1495 
L 750.009786 353.022389 
L 772.213515 352.500736 
L 794.417245 351.286496 
L 816.620975 347.01688 
L 838.824704 332.355897 
L 861.028434 295.963549 
L 883.232163 244.140228 
L 905.435893 256.557585 
" clip-path="url(#p61ed61e14f)" style="fill: none; stroke: #f0ad4e; stroke-linecap: square"/>
   </g>
   <g id="line2d_25">
    <path d="M 616.787408 353.223878 
L 638.991138 353.223388 
L 661.194867 353.222698 
L 683.398597 353.22015 
L 705.602327 353.223622 
L 727.806056 353.222865 
L 750.009786 353.214464 
L 772.213515 353.169864 
L 794.417245 352.883672 
L 816.620975 352.018418 
L 838.824704 346.598791 
L 861.028434 332.027965 
L 883.232163 281.767279 
L 905.435893 160.620199 
" clip-path="url(#p61ed61e14f)" style="fill: none; stroke: #f0ad4e; stroke-linecap: square"/>
   </g>
   <g id="line2d_26">
    <path d="M 83.897898 353.214575 
L 106.101627 353.203525 
L 128.305357 353.217279 
L 150.509087 353.217513 
L 172.712816 353.210636 
L 194.916546 353.195725 
L 217.120275 353.216222 
L 239.324005 353.211927 
L 261.527735 353.218358 
L 283.731464 353.211181 
L 305.935194 353.218737 
L 328.138923 353.211059 
L 350.342653 353.210591 
L 372.546383 353.217179 
L 394.750112 353.218158 
L 416.953842 353.211849 
L 439.157571 353.206285 
L 461.361301 353.21601 
L 483.565031 353.208944 
L 505.76876 353.205306 
L 527.97249 353.213351 
L 550.176219 353.210502 
L 572.379949 353.208711 
L 594.583679 353.201934 
L 616.787408 353.206285 
L 638.991138 353.208332 
L 661.194867 353.203203 
L 683.398597 353.193978 
L 705.602327 353.186021 
L 727.806056 353.12946 
L 750.009786 353.03493 
L 772.213515 352.611545 
L 794.417245 351.251422 
L 816.620975 346.444028 
L 838.824704 330.649214 
L 861.028434 294.495454 
L 883.232163 236.343933 
L 905.435893 268.291459 
" clip-path="url(#p61ed61e14f)" style="fill: none; stroke: #f0ad4e; stroke-linecap: square"/>
   </g>
   <g id="line2d_27">
    <path d="M 594.583679 353.223889 
L 616.787408 353.223878 
L 638.991138 353.223822 
L 661.194867 353.22321 
L 683.398597 353.221441 
L 705.602327 353.223822 
L 727.806056 353.223722 
L 750.009786 353.221552 
L 772.213515 353.21502 
L 794.417245 352.996284 
L 816.620975 352.098626 
L 838.824704 348.72709 
L 861.028434 333.198027 
L 883.232163 295.159453 
L 905.435893 177.878523 
" clip-path="url(#p61ed61e14f)" style="fill: none; stroke: #f0ad4e; stroke-linecap: square"/>
   </g>
   <g id="line2d_28">
    <path d="M 83.897898 353.222899 
L 106.101627 353.222843 
L 128.305357 353.222876 
L 150.509087 353.222732 
L 172.712816 353.222665 
L 194.916546 353.222531 
L 217.120275 353.222376 
L 239.324005 353.222242 
L 261.527735 353.222554 
L 283.731464 353.222298 
L 305.935194 353.221663 
L 328.138923 353.221875 
L 350.342653 353.221908 
L 372.546383 353.221508 
L 394.750112 353.221519 
L 416.953842 353.221441 
L 439.157571 353.220907 
L 461.361301 353.220573 
L 483.565031 353.220306 
L 505.76876 353.219215 
L 527.97249 353.218236 
L 550.176219 353.218158 
L 572.379949 353.218325 
L 594.583679 353.216678 
L 616.787408 353.216667 
L 638.991138 353.213774 
L 661.194867 353.207776 
L 683.398597 353.203981 
L 705.602327 353.195391 
L 727.806056 353.161095 
L 750.009786 353.060913 
L 772.213515 352.562783 
L 794.417245 351.52593 
L 816.620975 347.860979 
L 838.824704 334.766015 
L 861.028434 304.204817 
L 883.232163 258.676915 
L 905.435893 264.349251 
" clip-path="url(#p61ed61e14f)" style="fill: none; stroke: #f0ad4e; stroke-linecap: square"/>
   </g>
   <g id="line2d_29">
    <path d="M 616.787408 353.223833 
L 638.991138 353.223566 
L 661.194867 353.222398 
L 683.398597 353.220439 
L 705.602327 353.223677 
L 727.806056 353.223288 
L 750.009786 353.219582 
L 772.213515 353.190862 
L 794.417245 352.983531 
L 816.620975 352.319321 
L 838.824704 348.132606 
L 861.028434 335.410072 
L 883.232163 289.939267 
L 905.435893 181.302014 
" clip-path="url(#p61ed61e14f)" style="fill: none; stroke: #f0ad4e; stroke-linecap: square"/>
   </g>
   <g id="line2d_30">
    <path d="M 83.897898 353.214731 
L 106.101627 353.203203 
L 128.305357 353.217435 
L 150.509087 353.217824 
L 172.712816 353.211426 
L 194.916546 353.19647 
L 217.120275 353.216211 
L 239.324005 353.21097 
L 261.527735 353.218136 
L 283.731464 353.209334 
L 305.935194 353.217802 
L 328.138923 353.212672 
L 350.342653 353.209423 
L 372.546383 353.216122 
L 394.750112 353.216912 
L 416.953842 353.211493 
L 439.157571 353.203948 
L 461.361301 353.21403 
L 483.565031 353.207286 
L 505.76876 353.203269 
L 527.97249 353.211771 
L 550.176219 353.208355 
L 572.379949 353.206786 
L 594.583679 353.200821 
L 616.787408 353.203737 
L 638.991138 353.206196 
L 661.194867 353.198852 
L 683.398597 353.191852 
L 705.602327 353.184786 
L 727.806056 353.142012 
L 750.009786 353.057942 
L 772.213515 352.700277 
L 794.417245 351.442072 
L 816.620975 347.270946 
L 838.824704 333.446419 
L 861.028434 301.141183 
L 883.232163 248.121672 
L 905.435893 280.150241 
" clip-path="url(#p61ed61e14f)" style="fill: none; stroke: #f0ad4e; stroke-linecap: square"/>
   </g>
   <g id="line2d_31">
    <path d="M 638.991138 353.223889 
L 661.194867 353.223766 
L 683.398597 353.223455 
L 705.602327 353.222654 
L 727.806056 353.220005 
L 750.009786 353.221552 
L 772.213515 353.223566 
L 794.417245 353.222364 
L 816.620975 353.214453 
L 838.824704 353.056952 
L 861.028434 352.117744 
L 883.232163 349.068753 
L 905.435893 336.947159 
L 927.639623 302.749975 
L 949.843352 206.400309 
" clip-path="url(#p61ed61e14f)" style="fill: none; stroke: #f0ad4e; stroke-linecap: square"/>
   </g>
   <g id="line2d_32">
    <path d="M 83.897898 353.222821 
L 106.101627 353.222754 
L 128.305357 353.222754 
L 150.509087 353.222465 
L 172.712816 353.222598 
L 194.916546 353.222131 
L 217.120275 353.221741 
L 239.324005 353.222231 
L 261.527735 353.221997 
L 283.731464 353.22183 
L 305.935194 353.22153 
L 328.138923 353.221641 
L 350.342653 353.22163 
L 372.546383 353.221185 
L 394.750112 353.220762 
L 416.953842 353.220996 
L 439.157571 353.220061 
L 461.361301 353.219193 
L 483.565031 353.217913 
L 505.76876 353.217324 
L 527.97249 353.215821 
L 550.176219 353.214953 
L 572.379949 353.212405 
L 594.583679 353.211248 
L 616.787408 353.209701 
L 638.991138 353.209145 
L 661.194867 353.207387 
L 683.398597 353.202357 
L 705.602327 353.195358 
L 727.806056 353.186133 
L 750.009786 353.176952 
L 772.213515 353.142724 
L 794.417245 353.026595 
L 816.620975 352.700878 
L 838.824704 351.712241 
L 861.028434 348.054133 
L 883.232163 337.854141 
L 905.435893 311.595431 
L 927.639623 272.206515 
L 949.843352 280.25414 
" clip-path="url(#p61ed61e14f)" style="fill: none; stroke: #f0ad4e; stroke-linecap: square"/>
   </g>
   <g id="line2d_33">
    <path d="M 638.991138 353.223889 
L 661.194867 353.223755 
L 683.398597 353.223099 
L 705.602327 353.220962 
L 727.806056 353.217958 
L 750.009786 353.220194 
L 772.213515 353.223455 
L 794.417245 353.22045 
L 816.620975 353.204148 
L 838.824704 353.017193 
L 861.028434 352.345894 
L 883.232163 349.151554 
L 905.435893 338.110466 
L 927.639623 298.750115 
L 949.843352 208.983462 
" clip-path="url(#p61ed61e14f)" style="fill: none; stroke: #f0ad4e; stroke-linecap: square"/>
   </g>
   <g id="line2d_34">
    <path d="M 83.897898 353.216923 
L 106.101627 353.208332 
L 128.305357 353.218069 
L 150.509087 353.217847 
L 172.712816 353.213507 
L 194.916546 353.197049 
L 217.120275 353.2165 
L 239.324005 353.211571 
L 261.527735 353.217335 
L 283.731464 353.210035 
L 305.935194 353.216845 
L 328.138923 353.212806 
L 350.342653 353.208566 
L 372.546383 353.213841 
L 394.750112 353.215832 
L 416.953842 353.210992 
L 439.157571 353.201901 
L 461.361301 353.212338 
L 483.565031 353.206941 
L 505.76876 353.199341 
L 527.97249 353.207999 
L 550.176219 353.204382 
L 572.379949 353.198228 
L 594.583679 353.191752 
L 616.787408 353.19252 
L 638.991138 353.19726 
L 661.194867 353.194156 
L 683.398597 353.186511 
L 705.602327 353.178354 
L 727.806056 353.162364 
L 750.009786 353.150502 
L 772.213515 353.11022 
L 794.417245 353.003361 
L 816.620975 352.633733 
L 838.824704 351.53757 
L 861.028434 347.859544 
L 883.232163 335.858462 
L 905.435893 309.314706 
L 927.639623 264.551452 
L 949.843352 293.054166 
" clip-path="url(#p61ed61e14f)" style="fill: none; stroke: #f0ad4e; stroke-linecap: square"/>
   </g>
   <g id="line2d_35">
    <path d="M 661.194867 353.223833 
L 683.398597 353.223243 
L 705.602327 353.221641 
L 727.806056 353.217257 
L 750.009786 353.220717 
L 772.213515 353.22341 
L 794.417245 353.221374 
L 816.620975 353.207375 
L 838.824704 352.96763 
L 861.028434 351.670033 
L 883.232163 347.366399 
L 905.435893 329.832177 
L 927.639623 278.785255 
L 949.843352 135.681452 
" clip-path="url(#p61ed61e14f)" style="fill: none; stroke: #f0ad4e; stroke-linecap: square"/>
   </g>
   <g id="line2d_36">
    <path d="M 83.897898 353.222275 
L 106.101627 353.222131 
L 128.305357 353.221997 
L 150.509087 353.222164 
L 172.712816 353.221942 
L 194.916546 353.221419 
L 217.120275 353.220929 
L 239.324005 353.220439 
L 261.527735 353.221196 
L 283.731464 353.221763 
L 305.935194 353.220907 
L 328.138923 353.221274 
L 350.342653 353.221163 
L 372.546383 353.220807 
L 394.750112 353.220284 
L 416.953842 353.220784 
L 439.157571 353.220261 
L 461.361301 353.219416 
L 483.565031 353.219071 
L 505.76876 353.21847 
L 527.97249 353.216867 
L 550.176219 353.217101 
L 572.379949 353.214786 
L 594.583679 353.213562 
L 616.787408 353.212171 
L 638.991138 353.210636 
L 661.194867 353.208989 
L 683.398597 353.204382 
L 705.602327 353.192932 
L 727.806056 353.182394 
L 750.009786 353.171311 
L 772.213515 353.126155 
L 794.417245 352.968643 
L 816.620975 352.50887 
L 838.824704 351.019822 
L 861.028434 345.891294 
L 883.232163 331.099194 
L 905.435893 291.136469 
L 927.639623 232.432983 
L 949.843352 246.423546 
" clip-path="url(#p61ed61e14f)" style="fill: none; stroke: #f0ad4e; stroke-linecap: square"/>
   </g>
   <g id="line2d_37">
    <path d="M 638.991138 353.223867 
L 661.194867 353.223588 
L 683.398597 353.222865 
L 705.602327 353.217557 
L 727.806056 353.211036 
L 750.009786 353.216211 
L 772.213515 353.223266 
L 794.417245 353.216645 
L 816.620975 353.186099 
L 838.824704 352.870764 
L 861.028434 351.733672 
L 883.232163 346.704003 
L 905.435893 329.993605 
L 927.639623 272.934042 
L 949.843352 142.108478 
" clip-path="url(#p61ed61e14f)" style="fill: none; stroke: #f0ad4e; stroke-linecap: square"/>
   </g>
   <g id="line2d_38">
    <path d="M 83.897898 353.212973 
L 106.101627 353.197995 
L 128.305357 353.215799 
L 150.509087 353.215321 
L 172.712816 353.206474 
L 194.916546 353.179434 
L 217.120275 353.211815 
L 239.324005 353.203637 
L 261.527735 353.215821 
L 283.731464 353.202068 
L 305.935194 353.215198 
L 328.138923 353.206463 
L 350.342653 353.19903 
L 372.546383 353.210235 
L 394.750112 353.213596 
L 416.953842 353.206274 
L 439.157571 353.190283 
L 461.361301 353.210502 
L 483.565031 353.201656 
L 505.76876 353.187913 
L 527.97249 353.204994 
L 550.176219 353.199453 
L 572.379949 353.193688 
L 594.583679 353.184052 
L 616.787408 353.188002 
L 638.991138 353.194846 
L 661.194867 353.191496 
L 683.398597 353.180725 
L 705.602327 353.171155 
L 727.806056 353.148766 
L 750.009786 353.136626 
L 772.213515 353.085572 
L 794.417245 352.931365 
L 816.620975 352.406384 
L 838.824704 350.804223 
L 861.028434 345.285059 
L 883.232163 327.776085 
L 905.435893 288.90692 
L 927.639623 223.56733 
L 949.843352 262.41157 
" clip-path="url(#p61ed61e14f)" style="fill: none; stroke: #f0ad4e; stroke-linecap: square"/>
   </g>
   <g id="line2d_39">
    <path d="M 638.991138 353.223878 
L 661.194867 353.223755 
L 683.398597 353.223143 
L 705.602327 353.221864 
L 727.806056 353.217579 
L 750.009786 353.220818 
L 772.213515 353.223344 
L 794.417245 353.221385 
L 816.620975 353.208855 
L 838.824704 352.91888 
L 861.028434 350.686548 
L 883.232163 344.575404 
L 905.435893 318.924921 
L 927.639623 251.40283 
L 949.843352 50.397233 
" clip-path="url(#p61ed61e14f)" style="fill: none; stroke: #f0ad4e; stroke-linecap: square"/>
   </g>
   <g id="line2d_40">
    <path d="M 83.897898 353.222086 
L 106.101627 353.222086 
L 128.305357 353.221953 
L 150.509087 353.221841 
L 172.712816 353.222008 
L 194.916546 353.221508 
L 217.120275 353.220951 
L 239.324005 353.220695 
L 261.527735 353.22133 
L 283.731464 353.220784 
L 305.935194 353.220306 
L 328.138923 353.220217 
L 350.342653 353.220239 
L 372.546383 353.220028 
L 394.750112 353.219616 
L 416.953842 353.22005 
L 439.157571 353.219193 
L 461.361301 353.218492 
L 483.565031 353.218025 
L 505.76876 353.217379 
L 527.97249 353.216578 
L 550.176219 353.215554 
L 572.379949 353.213952 
L 594.583679 353.213585 
L 616.787408 353.212928 
L 638.991138 353.211493 
L 661.194867 353.208922 
L 683.398597 353.202112 
L 705.602327 353.193777 
L 727.806056 353.183173 
L 750.009786 353.171066 
L 772.213515 353.116629 
L 794.417245 352.911113 
L 816.620975 352.295096 
L 838.824704 350.438546 
L 861.028434 342.616123 
L 883.232163 322.690967 
L 905.435893 270.289063 
L 927.639623 190.648771 
L 949.843352 194.486145 
" clip-path="url(#p61ed61e14f)" style="fill: none; stroke: #f0ad4e; stroke-linecap: square"/>
   </g>
   <g id="line2d_41">
    <path d="M 638.991138 353.223889 
L 661.194867 353.223655 
L 683.398597 353.222576 
L 705.602327 353.219382 
L 727.806056 353.212872 
L 750.009786 353.217524 
L 772.213515 353.223177 
L 794.417245 353.217513 
L 816.620975 353.189037 
L 838.824704 352.884473 
L 861.028434 351.673416 
L 883.232163 345.610766 
L 905.435893 323.491869 
L 927.639623 238.515596 
L 949.843352 56.764692 
" clip-path="url(#p61ed61e14f)" style="fill: none; stroke: #f0ad4e; stroke-linecap: square"/>
   </g>
   <g id="line2d_42">
    <path d="M 83.897898 353.202691 
L 106.101627 353.170543 
L 128.305357 353.209223 
L 150.509087 353.210079 
L 172.712816 353.188414 
L 194.916546 353.128647 
L 217.120275 353.203815 
L 239.324005 353.19183 
L 261.527735 353.210914 
L 283.731464 353.190094 
L 305.935194 353.21018 
L 328.138923 353.187646 
L 350.342653 353.174794 
L 372.546383 353.200176 
L 394.750112 353.206363 
L 416.953842 353.188714 
L 439.157571 353.165324 
L 461.361301 353.201956 
L 483.565031 353.185209 
L 505.76876 353.159003 
L 527.97249 353.194145 
L 550.176219 353.186812 
L 572.379949 353.168618 
L 594.583679 353.145617 
L 616.787408 353.16519 
L 638.991138 353.181659 
L 661.194867 353.175495 
L 683.398597 353.161641 
L 705.602327 353.151437 
L 727.806056 353.116429 
L 750.009786 353.099103 
L 772.213515 353.019585 
L 794.417245 352.822069 
L 816.620975 352.132766 
L 838.824704 350.047264 
L 861.028434 342.560107 
L 883.232163 317.912081 
L 905.435893 262.014423 
L 927.639623 166.316605 
L 949.843352 233.78772 
" clip-path="url(#p61ed61e14f)" style="fill: none; stroke: #f0ad4e; stroke-linecap: square"/>
   </g>
   <g id="line2d_43">
    <path d="M 638.991138 353.223889 
L 661.194867 353.223833 
L 683.398597 353.223444 
L 705.602327 353.222153 
L 727.806056 353.218948 
L 750.009786 353.221341 
L 772.213515 353.223544 
L 794.417245 353.222042 
L 816.620975 353.211671 
L 838.824704 353.005509 
L 861.028434 351.906808 
L 883.232163 347.93855 
L 905.435893 331.793994 
L 927.639623 288.430678 
L 949.843352 155.71082 
" clip-path="url(#p61ed61e14f)" style="fill: none; stroke: #f0ad4e; stroke-linecap: square"/>
   </g>
   <g id="line2d_44">
    <path d="M 83.897898 353.221775 
L 106.101627 353.222153 
L 128.305357 353.222387 
L 150.509087 353.221719 
L 172.712816 353.222064 
L 194.916546 353.221752 
L 217.120275 353.221496 
L 239.324005 353.221541 
L 261.527735 353.22173 
L 283.731464 353.221752 
L 305.935194 353.220595 
L 328.138923 353.220361 
L 350.342653 353.221274 
L 372.546383 353.221051 
L 394.750112 353.221218 
L 416.953842 353.221274 
L 439.157571 353.220684 
L 461.361301 353.220039 
L 483.565031 353.219883 
L 505.76876 353.219304 
L 527.97249 353.218247 
L 550.176219 353.21847 
L 572.379949 353.217479 
L 594.583679 353.216489 
L 616.787408 353.216155 
L 638.991138 353.215109 
L 661.194867 353.213507 
L 683.398597 353.209367 
L 705.602327 353.200098 
L 727.806056 353.190517 
L 750.009786 353.183518 
L 772.213515 353.14427 
L 794.417245 353.008446 
L 816.620975 352.563251 
L 838.824704 351.141258 
L 861.028434 346.465014 
L 883.232163 332.267832 
L 905.435893 297.26563 
L 927.639623 244.75956 
L 949.843352 258.351998 
" clip-path="url(#p61ed61e14f)" style="fill: none; stroke: #f0ad4e; stroke-linecap: square"/>
   </g>
   <g id="line2d_45">
    <path d="M 661.194867 353.223722 
L 683.398597 353.223143 
L 705.602327 353.219493 
L 727.806056 353.214108 
L 750.009786 353.218158 
L 772.213515 353.223032 
L 794.417245 353.218959 
L 816.620975 353.194523 
L 838.824704 352.950015 
L 861.028434 351.975076 
L 883.232163 347.353146 
L 905.435893 331.766954 
L 927.639623 283.173003 
L 949.843352 161.59999 
" clip-path="url(#p61ed61e14f)" style="fill: none; stroke: #f0ad4e; stroke-linecap: square"/>
   </g>
   <g id="line2d_46">
    <path d="M 83.897898 353.215209 
L 106.101627 353.205895 
L 128.305357 353.216444 
L 150.509087 353.216367 
L 172.712816 353.21137 
L 194.916546 353.193789 
L 217.120275 353.214197 
L 239.324005 353.210269 
L 261.527735 353.2164 
L 283.731464 353.209312 
L 305.935194 353.215732 
L 328.138923 353.210224 
L 350.342653 353.20614 
L 372.546383 353.211348 
L 394.750112 353.214019 
L 416.953842 353.208911 
L 439.157571 353.198829 
L 461.361301 353.210936 
L 483.565031 353.206407 
L 505.76876 353.196593 
L 527.97249 353.207765 
L 550.176219 353.20436 
L 572.379949 353.196559 
L 594.583679 353.192119 
L 616.787408 353.197004 
L 638.991138 353.198228 
L 661.194867 353.193978 
L 683.398597 353.185944 
L 705.602327 353.173926 
L 727.806056 353.156277 
L 750.009786 353.135669 
L 772.213515 353.08101 
L 794.417245 352.918045 
L 816.620975 352.415932 
L 838.824704 350.909436 
L 861.028434 345.887433 
L 883.232163 329.116746 
L 905.435893 294.704153 
L 927.639623 236.612154 
L 949.843352 273.815141 
" clip-path="url(#p61ed61e14f)" style="fill: none; stroke: #f0ad4e; stroke-linecap: square"/>
   </g>
   <g id="line2d_47">
    <path d="M 661.194867 353.223833 
L 683.398597 353.223444 
L 705.602327 353.222309 
L 727.806056 353.218915 
L 750.009786 353.22173 
L 772.213515 353.223299 
L 794.417245 353.222275 
L 816.620975 353.211826 
L 838.824704 353.010905 
L 861.028434 351.859805 
L 883.232163 348.048681 
L 905.435893 332.016848 
L 927.639623 288.362143 
L 949.843352 165.171813 
" clip-path="url(#p61ed61e14f)" style="fill: none; stroke: #f0ad4e; stroke-linecap: square"/>
   </g>
   <g id="line2d_48">
    <path d="M 83.897898 353.222876 
L 106.101627 353.222498 
L 128.305357 353.222687 
L 150.509087 353.22252 
L 172.712816 353.222108 
L 194.916546 353.222042 
L 217.120275 353.221663 
L 239.324005 353.221853 
L 261.527735 353.221674 
L 283.731464 353.221419 
L 305.935194 353.22133 
L 328.138923 353.221129 
L 350.342653 353.220807 
L 372.546383 353.220016 
L 394.750112 353.219772 
L 416.953842 353.219939 
L 439.157571 353.218726 
L 461.361301 353.21847 
L 483.565031 353.217212 
L 505.76876 353.216433 
L 527.97249 353.21364 
L 550.176219 353.212483 
L 572.379949 353.209968 
L 594.583679 353.208199 
L 616.787408 353.206396 
L 638.991138 353.204605 
L 661.194867 353.202735 
L 683.398597 353.196882 
L 705.602327 353.18887 
L 727.806056 353.178288 
L 750.009786 353.163688 
L 772.213515 353.124174 
L 794.417245 352.987938 
L 816.620975 352.552179 
L 838.824704 351.368363 
L 861.028434 346.844612 
L 883.232163 333.792967 
L 905.435893 300.224553 
L 927.639623 249.243374 
L 949.843352 258.76479 
" clip-path="url(#p61ed61e14f)" style="fill: none; stroke: #f0ad4e; stroke-linecap: square"/>
   </g>
   <g id="line2d_49">
    <path d="M 661.194867 353.223711 
L 683.398597 353.222765 
L 705.602327 353.220484 
L 727.806056 353.215465 
L 750.009786 353.219527 
L 772.213515 353.223266 
L 794.417245 353.218948 
L 816.620975 353.199831 
L 838.824704 352.986068 
L 861.028434 352.164636 
L 883.232163 348.165399 
L 905.435893 334.114345 
L 927.639623 283.861082 
L 949.843352 167.2023 
" clip-path="url(#p61ed61e14f)" style="fill: none; stroke: #f0ad4e; stroke-linecap: square"/>
   </g>
   <g id="line2d_50">
    <path d="M 83.897898 353.212127 
L 106.101627 353.19755 
L 128.305357 353.213796 
L 150.509087 353.213907 
L 172.712816 353.204171 
L 194.916546 353.180569 
L 217.120275 353.211504 
L 239.324005 353.205083 
L 261.527735 353.214397 
L 283.731464 353.203136 
L 305.935194 353.213351 
L 328.138923 353.205072 
L 350.342653 353.199141 
L 372.546383 353.208544 
L 394.750112 353.211181 
L 416.953842 353.201378 
L 439.157571 353.193533 
L 461.361301 353.20624 
L 483.565031 353.199141 
L 505.76876 353.185398 
L 527.97249 353.200677 
L 550.176219 353.193533 
L 572.379949 353.18699 
L 594.583679 353.177409 
L 616.787408 353.182283 
L 638.991138 353.187168 
L 661.194867 353.183039 
L 683.398597 353.172724 
L 705.602327 353.163366 
L 727.806056 353.140365 
L 750.009786 353.128035 
L 772.213515 353.073287 
L 794.417245 352.935961 
L 816.620975 352.491711 
L 838.824704 351.079856 
L 861.028434 346.50168 
L 883.232163 331.369908 
L 905.435893 297.032839 
L 927.639623 239.069798 
L 949.843352 275.954033 
" clip-path="url(#p61ed61e14f)" style="fill: none; stroke: #f0ad4e; stroke-linecap: square"/>
   </g>
   <g id="line2d_51">
    <path d="M 638.991138 353.223867 
L 661.194867 353.223844 
L 683.398597 353.223577 
L 705.602327 353.222554 
L 727.806056 353.219749 
L 750.009786 353.221341 
L 772.213515 353.223633 
L 794.417245 353.22222 
L 816.620975 353.21285 
L 838.824704 353.045435 
L 861.028434 352.243241 
L 883.232163 349.370747 
L 905.435893 337.436865 
L 927.639623 303.83105 
L 949.843352 207.540639 
" clip-path="url(#p61ed61e14f)" style="fill: none; stroke: #f0ad4e; stroke-linecap: square"/>
   </g>
   <g id="line2d_52">
    <path d="M 83.897898 353.222954 
L 106.101627 353.222765 
L 128.305357 353.222854 
L 150.509087 353.222709 
L 172.712816 353.22262 
L 194.916546 353.222409 
L 217.120275 353.221841 
L 239.324005 353.221674 
L 261.527735 353.222576 
L 283.731464 353.222364 
L 305.935194 353.222286 
L 328.138923 353.222108 
L 350.342653 353.222108 
L 372.546383 353.221808 
L 394.750112 353.221608 
L 416.953842 353.221875 
L 439.157571 353.221663 
L 461.361301 353.221396 
L 483.565031 353.22094 
L 505.76876 353.220272 
L 527.97249 353.219649 
L 550.176219 353.218826 
L 572.379949 353.218804 
L 594.583679 353.217101 
L 616.787408 353.21689 
L 638.991138 353.215866 
L 661.194867 353.214497 
L 683.398597 353.211904 
L 705.602327 353.205061 
L 727.806056 353.199341 
L 750.009786 353.191485 
L 772.213515 353.163755 
L 794.417245 353.062427 
L 816.620975 352.743797 
L 838.824704 351.788944 
L 861.028434 348.400749 
L 883.232163 338.441347 
L 905.435893 311.900796 
L 927.639623 272.619062 
L 949.843352 281.437656 
" clip-path="url(#p61ed61e14f)" style="fill: none; stroke: #f0ad4e; stroke-linecap: square"/>
   </g>
   <g id="line2d_53">
    <path d="M 661.194867 353.223766 
L 683.398597 353.223422 
L 705.602327 353.219827 
L 727.806056 353.216656 
L 750.009786 353.219193 
L 772.213515 353.223366 
L 794.417245 353.217835 
L 816.620975 353.197572 
L 838.824704 352.996584 
L 861.028434 352.29365 
L 883.232163 348.969417 
L 905.435893 337.873648 
L 927.639623 300.053954 
L 949.843352 211.308821 
" clip-path="url(#p61ed61e14f)" style="fill: none; stroke: #f0ad4e; stroke-linecap: square"/>
   </g>
   <g id="line2d_54">
    <path d="M 83.897898 353.21571 
L 106.101627 353.203514 
L 128.305357 353.218358 
L 150.509087 353.218525 
L 172.712816 353.211559 
L 194.916546 353.191919 
L 217.120275 353.215254 
L 239.324005 353.208755 
L 261.527735 353.217724 
L 283.731464 353.208922 
L 305.935194 353.217591 
L 328.138923 353.212439 
L 350.342653 353.206307 
L 372.546383 353.214208 
L 394.750112 353.216623 
L 416.953842 353.210703 
L 439.157571 353.199875 
L 461.361301 353.215198 
L 483.565031 353.208065 
L 505.76876 353.200499 
L 527.97249 353.211214 
L 550.176219 353.207398 
L 572.379949 353.20347 
L 594.583679 353.195669 
L 616.787408 353.198251 
L 638.991138 353.205105 
L 661.194867 353.203581 
L 683.398597 353.196782 
L 705.602327 353.190005 
L 727.806056 353.177609 
L 750.009786 353.171255 
L 772.213515 353.134211 
L 794.417245 353.040861 
L 816.620975 352.701879 
L 838.824704 351.66201 
L 861.028434 348.017323 
L 883.232163 336.364203 
L 905.435893 310.309574 
L 927.639623 266.105964 
L 949.843352 292.620677 
" clip-path="url(#p61ed61e14f)" style="fill: none; stroke: #f0ad4e; stroke-linecap: square"/>
   </g>
   <g id="line2d_55">
    <path d="M 40.600625 353.2239 
L 993.140625 353.2239 
" clip-path="url(#p61ed61e14f)" style="fill: none; stroke: #dedede; stroke-width: 2; stroke-linecap: square"/>
   </g>
   <g id="text_19">
    <!-- FastQC: Sequence Length Distribution -->
    <g transform="translate(364.858125 19.3575) scale(0.16 -0.16)">
     <defs>
      <path id="DejaVuSans-46" d="M 628 4666 
L 3309 4666 
L 3309 4134 
L 1259 4134 
L 1259 2759 
L 3109 2759 
L 3109 2228 
L 1259 2228 
L 1259 0 
L 628 0 
L 628 4666 
z
" transform="scale(0.015625)"/>
      <path id="DejaVuSans-73" d="M 2834 3397 
L 2834 2853 
Q 2591 2978 2328 3040 
Q 2066 3103 1784 3103 
Q 1356 3103 1142 2972 
Q 928 2841 928 2578 
Q 928 2378 1081 2264 
Q 1234 2150 1697 2047 
L 1894 2003 
Q 2506 1872 2764 1633 
Q 3022 1394 3022 966 
Q 3022 478 2636 193 
Q 2250 -91 1575 -91 
Q 1294 -91 989 -36 
Q 684 19 347 128 
L 347 722 
Q 666 556 975 473 
Q 1284 391 1588 391 
Q 1994 391 2212 530 
Q 2431 669 2431 922 
Q 2431 1156 2273 1281 
Q 2116 1406 1581 1522 
L 1381 1569 
Q 847 1681 609 1914 
Q 372 2147 372 2553 
Q 372 3047 722 3315 
Q 1072 3584 1716 3584 
Q 2034 3584 2315 3537 
Q 2597 3491 2834 3397 
z
" transform="scale(0.015625)"/>
      <path id="DejaVuSans-51" d="M 2522 4238 
Q 1834 4238 1429 3725 
Q 1025 3213 1025 2328 
Q 1025 1447 1429 934 
Q 1834 422 2522 422 
Q 3209 422 3611 934 
Q 4013 1447 4013 2328 
Q 4013 3213 3611 3725 
Q 3209 4238 2522 4238 
z
M 3406 84 
L 4238 -825 
L 3475 -825 
L 2784 -78 
Q 2681 -84 2626 -87 
Q 2572 -91 2522 -91 
Q 1538 -91 948 567 
Q 359 1225 359 2328 
Q 359 3434 948 4092 
Q 1538 4750 2522 4750 
Q 3503 4750 4090 4092 
Q 4678 3434 4678 2328 
Q 4678 1516 4351 937 
Q 4025 359 3406 84 
z
" transform="scale(0.015625)"/>
      <path id="DejaVuSans-3a" d="M 750 794 
L 1409 794 
L 1409 0 
L 750 0 
L 750 794 
z
M 750 3309 
L 1409 3309 
L 1409 2516 
L 750 2516 
L 750 3309 
z
" transform="scale(0.015625)"/>
      <path id="DejaVuSans-44" d="M 1259 4147 
L 1259 519 
L 2022 519 
Q 2988 519 3436 956 
Q 3884 1394 3884 2338 
Q 3884 3275 3436 3711 
Q 2988 4147 2022 4147 
L 1259 4147 
z
M 628 4666 
L 1925 4666 
Q 3281 4666 3915 4102 
Q 4550 3538 4550 2338 
Q 4550 1131 3912 565 
Q 3275 0 1925 0 
L 628 0 
L 628 4666 
z
" transform="scale(0.015625)"/>
      <path id="DejaVuSans-69" d="M 603 3500 
L 1178 3500 
L 1178 0 
L 603 0 
L 603 3500 
z
M 603 4863 
L 1178 4863 
L 1178 4134 
L 603 4134 
L 603 4863 
z
" transform="scale(0.015625)"/>
      <path id="DejaVuSans-72" d="M 2631 2963 
Q 2534 3019 2420 3045 
Q 2306 3072 2169 3072 
Q 1681 3072 1420 2755 
Q 1159 2438 1159 1844 
L 1159 0 
L 581 0 
L 581 3500 
L 1159 3500 
L 1159 2956 
Q 1341 3275 1631 3429 
Q 1922 3584 2338 3584 
Q 2397 3584 2469 3576 
Q 2541 3569 2628 3553 
L 2631 2963 
z
" transform="scale(0.015625)"/>
     </defs>
     <use xlink:href="#DejaVuSans-46"/>
     <use xlink:href="#DejaVuSans-61" x="48.394531"/>
     <use xlink:href="#DejaVuSans-73" x="109.673828"/>
     <use xlink:href="#DejaVuSans-74" x="161.773438"/>
     <use xlink:href="#DejaVuSans-51" x="200.982422"/>
     <use xlink:href="#DejaVuSans-43" x="279.693359"/>
     <use xlink:href="#DejaVuSans-3a" x="349.517578"/>
     <use xlink:href="#DejaVuSans-20" x="383.208984"/>
     <use xlink:href="#DejaVuSans-53" x="414.996094"/>
     <use xlink:href="#DejaVuSans-65" x="478.472656"/>
     <use xlink:href="#DejaVuSans-71" x="539.996094"/>
     <use xlink:href="#DejaVuSans-75" x="603.472656"/>
     <use xlink:href="#DejaVuSans-65" x="666.851562"/>
     <use xlink:href="#DejaVuSans-6e" x="728.375"/>
     <use xlink:href="#DejaVuSans-63" x="791.753906"/>
     <use xlink:href="#DejaVuSans-65" x="846.734375"/>
     <use xlink:href="#DejaVuSans-20" x="908.257812"/>
     <use xlink:href="#DejaVuSans-4c" x="940.044922"/>
     <use xlink:href="#DejaVuSans-65" x="994.007812"/>
     <use xlink:href="#DejaVuSans-6e" x="1055.53125"/>
     <use xlink:href="#DejaVuSans-67" x="1118.910156"/>
     <use xlink:href="#DejaVuSans-74" x="1182.386719"/>
     <use xlink:href="#DejaVuSans-68" x="1221.595703"/>
     <use xlink:href="#DejaVuSans-20" x="1284.974609"/>
     <use xlink:href="#DejaVuSans-44" x="1316.761719"/>
     <use xlink:href="#DejaVuSans-69" x="1393.763672"/>
     <use xlink:href="#DejaVuSans-73" x="1421.546875"/>
     <use xlink:href="#DejaVuSans-74" x="1473.646484"/>
     <use xlink:href="#DejaVuSans-72" x="1512.855469"/>
     <use xlink:href="#DejaVuSans-69" x="1553.96875"/>
     <use xlink:href="#DejaVuSans-62" x="1581.751953"/>
     <use xlink:href="#DejaVuSans-75" x="1645.228516"/>
     <use xlink:href="#DejaVuSans-74" x="1708.607422"/>
     <use xlink:href="#DejaVuSans-69" x="1747.816406"/>
     <use xlink:href="#DejaVuSans-6f" x="1775.599609"/>
     <use xlink:href="#DejaVuSans-6e" x="1836.78125"/>
    </g>
   </g>
  </g>
 </g>
 <defs>
  <clipPath id="p61ed61e14f">
   <rect x="40.600625" y="35.2559" width="952.54" height="317.968"/>
  </clipPath>
 </defs>
</svg>
