<?xml version="1.0" encoding="utf-8" standalone="no"?>
<!DOCTYPE svg PUBLIC "-//W3C//DTD SVG 1.1//EN"
  "http://www.w3.org/Graphics/SVG/1.1/DTD/svg11.dtd">
<svg xmlns:xlink="http://www.w3.org/1999/xlink" width="1000.358125pt" height="388.844525pt" viewBox="0 0 1000.358125 388.844525" xmlns="http://www.w3.org/2000/svg" version="1.1">
 <metadata>
  <rdf:RDF xmlns:dc="http://purl.org/dc/elements/1.1/" xmlns:cc="http://creativecommons.org/ns#" xmlns:rdf="http://www.w3.org/1999/02/22-rdf-syntax-ns#">
   <cc:Work>
    <dc:type rdf:resource="http://purl.org/dc/dcmitype/StillImage"/>
    <dc:date>2026-03-23T21:33:13.943491</dc:date>
    <dc:format>image/svg+xml</dc:format>
    <dc:creator>
     <cc:Agent>
      <dc:title>Matplotlib v3.8.1, https://matplotlib.org/</dc:title>
     </cc:Agent>
    </dc:creator>
   </cc:Work>
  </rdf:RDF>
 </metadata>
 <defs>
  <style type="text/css">*{stroke-linejoin: round; stroke-linecap: butt}</style>
 </defs>
 <g id="figure_1">
  <g id="axes_1">
   <g id="patch_1">
    <path d="M 32.968125 353.2239 
L 993.158125 353.2239 
L 993.158125 35.2559 
L 32.968125 35.2559 
z
" style="fill: #ffffff"/>
   </g>
   <g id="patch_2">
    <path d="M 32.968125 -918.6481 
L 968.085465 -918.6481 
L 968.085465 -6006.1361 
L 32.968125 -6006.1361 
z
" clip-path="url(#pb65be01031)" style="fill: #e6c3c3"/>
   </g>
   <g id="patch_3">
    <path d="M 32.968125 35.2559 
L 968.085465 35.2559 
L 968.085465 -918.6481 
L 32.968125 -918.6481 
z
" clip-path="url(#pb65be01031)" style="fill: #e6dcc3"/>
   </g>
   <g id="patch_4">
    <path d="M 32.968125 353.2239 
L 968.085465 353.2239 
L 968.085465 35.2559 
L 32.968125 35.2559 
z
" clip-path="url(#pb65be01031)" style="fill: #c3e6c3"/>
   </g>
   <g id="matplotlib.axis_1">
    <g id="xtick_1">
     <g id="text_1">
      <!-- 0 -->
      <g transform="translate(55.495785 366.30265) scale(0.08 -0.08)">
       <defs>
        <path id="DejaVuSans-30" d="M 2034 4250 
Q 1547 4250 1301 3770 
Q 1056 3291 1056 2328 
Q 1056 1369 1301 889 
Q 1547 409 2034 409 
Q 2525 409 2770 889 
Q 3016 1369 3016 2328 
Q 3016 3291 2770 3770 
Q 2525 4250 2034 4250 
z
M 2034 4750 
Q 2819 4750 3233 4129 
Q 3647 3509 3647 2328 
Q 3647 1150 3233 529 
Q 2819 -91 2034 -91 
Q 1250 -91 836 529 
Q 422 1150 422 2328 
Q 422 3509 836 4129 
Q 1250 4750 2034 4750 
z
" transform="scale(0.015625)"/>
       </defs>
       <use xlink:href="#DejaVuSans-30"/>
      </g>
     </g>
    </g>
    <g id="xtick_2">
     <g id="text_2">
      <!-- 10 -->
      <g transform="translate(238.674189 366.30265) scale(0.08 -0.08)">
       <defs>
        <path id="DejaVuSans-31" d="M 794 531 
L 1825 531 
L 1825 4091 
L 703 3866 
L 703 4441 
L 1819 4666 
L 2450 4666 
L 2450 531 
L 3481 531 
L 3481 0 
L 794 0 
L 794 531 
z
" transform="scale(0.015625)"/>
       </defs>
       <use xlink:href="#DejaVuSans-31"/>
       <use xlink:href="#DejaVuSans-30" x="63.623047"/>
      </g>
     </g>
    </g>
    <g id="xtick_3">
     <g id="text_3">
      <!-- 20 -->
      <g transform="translate(424.397593 366.30265) scale(0.08 -0.08)">
       <defs>
        <path id="DejaVuSans-32" d="M 1228 531 
L 3431 531 
L 3431 0 
L 469 0 
L 469 531 
Q 828 903 1448 1529 
Q 2069 2156 2228 2338 
Q 2531 2678 2651 2914 
Q 2772 3150 2772 3378 
Q 2772 3750 2511 3984 
Q 2250 4219 1831 4219 
Q 1534 4219 1204 4116 
Q 875 4013 500 3803 
L 500 4441 
Q 881 4594 1212 4672 
Q 1544 4750 1819 4750 
Q 2544 4750 2975 4387 
Q 3406 4025 3406 3419 
Q 3406 3131 3298 2873 
Q 3191 2616 2906 2266 
Q 2828 2175 2409 1742 
Q 1991 1309 1228 531 
z
" transform="scale(0.015625)"/>
       </defs>
       <use xlink:href="#DejaVuSans-32"/>
       <use xlink:href="#DejaVuSans-30" x="63.623047"/>
      </g>
     </g>
    </g>
    <g id="xtick_4">
     <g id="text_4">
      <!-- 30 -->
      <g transform="translate(610.120997 366.30265) scale(0.08 -0.08)">
       <defs>
        <path id="DejaVuSans-33" d="M 2597 2516 
Q 3050 2419 3304 2112 
Q 3559 1806 3559 1356 
Q 3559 666 3084 287 
Q 2609 -91 1734 -91 
Q 1441 -91 1130 -33 
Q 819 25 488 141 
L 488 750 
Q 750 597 1062 519 
Q 1375 441 1716 441 
Q 2309 441 2620 675 
Q 2931 909 2931 1356 
Q 2931 1769 2642 2001 
Q 2353 2234 1838 2234 
L 1294 2234 
L 1294 2753 
L 1863 2753 
Q 2328 2753 2575 2939 
Q 2822 3125 2822 3475 
Q 2822 3834 2567 4026 
Q 2313 4219 1838 4219 
Q 1578 4219 1281 4162 
Q 984 4106 628 3988 
L 628 4550 
Q 988 4650 1302 4700 
Q 1616 4750 1894 4750 
Q 2613 4750 3031 4423 
Q 3450 4097 3450 3541 
Q 3450 3153 3228 2886 
Q 3006 2619 2597 2516 
z
" transform="scale(0.015625)"/>
       </defs>
       <use xlink:href="#DejaVuSans-33"/>
       <use xlink:href="#DejaVuSans-30" x="63.623047"/>
      </g>
     </g>
    </g>
    <g id="xtick_5">
     <g id="text_5">
      <!-- 40 -->
      <g transform="translate(795.844402 366.30265) scale(0.08 -0.08)">
       <defs>
        <path id="DejaVuSans-34" d="M 2419 4116 
L 825 1625 
L 2419 1625 
L 2419 4116 
z
M 2253 4666 
L 3047 4666 
L 3047 1625 
L 3713 1625 
L 3713 1100 
L 3047 1100 
L 3047 0 
L 2419 0 
L 2419 1100 
L 313 1100 
L 313 1709 
L 2253 4666 
z
" transform="scale(0.015625)"/>
       </defs>
       <use xlink:href="#DejaVuSans-34"/>
       <use xlink:href="#DejaVuSans-30" x="63.623047"/>
      </g>
     </g>
    </g>
    <g id="xtick_6">
     <g id="text_6">
      <!-- 50 -->
      <g transform="translate(981.567806 366.30265) scale(0.08 -0.08)">
       <defs>
        <path id="DejaVuSans-35" d="M 691 4666 
L 3169 4666 
L 3169 4134 
L 1269 4134 
L 1269 2991 
Q 1406 3038 1543 3061 
Q 1681 3084 1819 3084 
Q 2600 3084 3056 2656 
Q 3513 2228 3513 1497 
Q 3513 744 3044 326 
Q 2575 -91 1722 -91 
Q 1428 -91 1123 -41 
Q 819 9 494 109 
L 494 744 
Q 775 591 1075 516 
Q 1375 441 1709 441 
Q 2250 441 2565 725 
Q 2881 1009 2881 1497 
Q 2881 1984 2565 2268 
Q 2250 2553 1709 2553 
Q 1456 2553 1204 2497 
Q 953 2441 691 2322 
L 691 4666 
z
" transform="scale(0.015625)"/>
       </defs>
       <use xlink:href="#DejaVuSans-35"/>
       <use xlink:href="#DejaVuSans-30" x="63.623047"/>
      </g>
     </g>
    </g>
    <g id="text_7">
     <!-- Position (bp) -->
     <g transform="translate(481.76 379.564837) scale(0.1 -0.1)">
      <defs>
       <path id="DejaVuSans-50" d="M 1259 4147 
L 1259 2394 
L 2053 2394 
Q 2494 2394 2734 2622 
Q 2975 2850 2975 3272 
Q 2975 3691 2734 3919 
Q 2494 4147 2053 4147 
L 1259 4147 
z
M 628 4666 
L 2053 4666 
Q 2838 4666 3239 4311 
Q 3641 3956 3641 3272 
Q 3641 2581 3239 2228 
Q 2838 1875 2053 1875 
L 1259 1875 
L 1259 0 
L 628 0 
L 628 4666 
z
" transform="scale(0.015625)"/>
       <path id="DejaVuSans-6f" d="M 1959 3097 
Q 1497 3097 1228 2736 
Q 959 2375 959 1747 
Q 959 1119 1226 758 
Q 1494 397 1959 397 
Q 2419 397 2687 759 
Q 2956 1122 2956 1747 
Q 2956 2369 2687 2733 
Q 2419 3097 1959 3097 
z
M 1959 3584 
Q 2709 3584 3137 3096 
Q 3566 2609 3566 1747 
Q 3566 888 3137 398 
Q 2709 -91 1959 -91 
Q 1206 -91 779 398 
Q 353 888 353 1747 
Q 353 2609 779 3096 
Q 1206 3584 1959 3584 
z
" transform="scale(0.015625)"/>
       <path id="DejaVuSans-73" d="M 2834 3397 
L 2834 2853 
Q 2591 2978 2328 3040 
Q 2066 3103 1784 3103 
Q 1356 3103 1142 2972 
Q 928 2841 928 2578 
Q 928 2378 1081 2264 
Q 1234 2150 1697 2047 
L 1894 2003 
Q 2506 1872 2764 1633 
Q 3022 1394 3022 966 
Q 3022 478 2636 193 
Q 2250 -91 1575 -91 
Q 1294 -91 989 -36 
Q 684 19 347 128 
L 347 722 
Q 666 556 975 473 
Q 1284 391 1588 391 
Q 1994 391 2212 530 
Q 2431 669 2431 922 
Q 2431 1156 2273 1281 
Q 2116 1406 1581 1522 
L 1381 1569 
Q 847 1681 609 1914 
Q 372 2147 372 2553 
Q 372 3047 722 3315 
Q 1072 3584 1716 3584 
Q 2034 3584 2315 3537 
Q 2597 3491 2834 3397 
z
" transform="scale(0.015625)"/>
       <path id="DejaVuSans-69" d="M 603 3500 
L 1178 3500 
L 1178 0 
L 603 0 
L 603 3500 
z
M 603 4863 
L 1178 4863 
L 1178 4134 
L 603 4134 
L 603 4863 
z
" transform="scale(0.015625)"/>
       <path id="DejaVuSans-74" d="M 1172 4494 
L 1172 3500 
L 2356 3500 
L 2356 3053 
L 1172 3053 
L 1172 1153 
Q 1172 725 1289 603 
Q 1406 481 1766 481 
L 2356 481 
L 2356 0 
L 1766 0 
Q 1100 0 847 248 
Q 594 497 594 1153 
L 594 3053 
L 172 3053 
L 172 3500 
L 594 3500 
L 594 4494 
L 1172 4494 
z
" transform="scale(0.015625)"/>
       <path id="DejaVuSans-6e" d="M 3513 2113 
L 3513 0 
L 2938 0 
L 2938 2094 
Q 2938 2591 2744 2837 
Q 2550 3084 2163 3084 
Q 1697 3084 1428 2787 
Q 1159 2491 1159 1978 
L 1159 0 
L 581 0 
L 581 3500 
L 1159 3500 
L 1159 2956 
Q 1366 3272 1645 3428 
Q 1925 3584 2291 3584 
Q 2894 3584 3203 3211 
Q 3513 2838 3513 2113 
z
" transform="scale(0.015625)"/>
       <path id="DejaVuSans-20" transform="scale(0.015625)"/>
       <path id="DejaVuSans-28" d="M 1984 4856 
Q 1566 4138 1362 3434 
Q 1159 2731 1159 2009 
Q 1159 1288 1364 580 
Q 1569 -128 1984 -844 
L 1484 -844 
Q 1016 -109 783 600 
Q 550 1309 550 2009 
Q 550 2706 781 3412 
Q 1013 4119 1484 4856 
L 1984 4856 
z
" transform="scale(0.015625)"/>
       <path id="DejaVuSans-62" d="M 3116 1747 
Q 3116 2381 2855 2742 
Q 2594 3103 2138 3103 
Q 1681 3103 1420 2742 
Q 1159 2381 1159 1747 
Q 1159 1113 1420 752 
Q 1681 391 2138 391 
Q 2594 391 2855 752 
Q 3116 1113 3116 1747 
z
M 1159 2969 
Q 1341 3281 1617 3432 
Q 1894 3584 2278 3584 
Q 2916 3584 3314 3078 
Q 3713 2572 3713 1747 
Q 3713 922 3314 415 
Q 2916 -91 2278 -91 
Q 1894 -91 1617 61 
Q 1341 213 1159 525 
L 1159 0 
L 581 0 
L 581 4863 
L 1159 4863 
L 1159 2969 
z
" transform="scale(0.015625)"/>
       <path id="DejaVuSans-70" d="M 1159 525 
L 1159 -1331 
L 581 -1331 
L 581 3500 
L 1159 3500 
L 1159 2969 
Q 1341 3281 1617 3432 
Q 1894 3584 2278 3584 
Q 2916 3584 3314 3078 
Q 3713 2572 3713 1747 
Q 3713 922 3314 415 
Q 2916 -91 2278 -91 
Q 1894 -91 1617 61 
Q 1341 213 1159 525 
z
M 3116 1747 
Q 3116 2381 2855 2742 
Q 2594 3103 2138 3103 
Q 1681 3103 1420 2742 
Q 1159 2381 1159 1747 
Q 1159 1113 1420 752 
Q 1681 391 2138 391 
Q 2594 391 2855 752 
Q 3116 1113 3116 1747 
z
" transform="scale(0.015625)"/>
       <path id="DejaVuSans-29" d="M 513 4856 
L 1013 4856 
Q 1481 4119 1714 3412 
Q 1947 2706 1947 2009 
Q 1947 1309 1714 600 
Q 1481 -109 1013 -844 
L 513 -844 
Q 928 -128 1133 580 
Q 1338 1288 1338 2009 
Q 1338 2731 1133 3434 
Q 928 4138 513 4856 
z
" transform="scale(0.015625)"/>
      </defs>
      <use xlink:href="#DejaVuSans-50"/>
      <use xlink:href="#DejaVuSans-6f" x="56.677734"/>
      <use xlink:href="#DejaVuSans-73" x="117.859375"/>
      <use xlink:href="#DejaVuSans-69" x="169.958984"/>
      <use xlink:href="#DejaVuSans-74" x="197.742188"/>
      <use xlink:href="#DejaVuSans-69" x="236.951172"/>
      <use xlink:href="#DejaVuSans-6f" x="264.734375"/>
      <use xlink:href="#DejaVuSans-6e" x="325.916016"/>
      <use xlink:href="#DejaVuSans-20" x="389.294922"/>
      <use xlink:href="#DejaVuSans-28" x="421.082031"/>
      <use xlink:href="#DejaVuSans-62" x="460.095703"/>
      <use xlink:href="#DejaVuSans-70" x="523.572266"/>
      <use xlink:href="#DejaVuSans-29" x="587.048828"/>
     </g>
    </g>
   </g>
   <g id="matplotlib.axis_2">
    <g id="ytick_1">
     <g id="line2d_1">
      <path d="M 32.968125 353.2239 
L 993.158125 353.2239 
" clip-path="url(#pb65be01031)" style="fill: none; stroke: #dedede; stroke-linecap: square"/>
     </g>
     <g id="text_8">
      <!-- 0 -->
      <g transform="translate(20.878125 356.263275) scale(0.08 -0.08)">
       <use xlink:href="#DejaVuSans-30"/>
      </g>
     </g>
    </g>
    <g id="ytick_2">
     <g id="line2d_2">
      <path d="M 32.968125 289.6303 
L 993.158125 289.6303 
" clip-path="url(#pb65be01031)" style="fill: none; stroke: #dedede; stroke-linecap: square"/>
     </g>
     <g id="text_9">
      <!-- 1 -->
      <g transform="translate(20.878125 292.669675) scale(0.08 -0.08)">
       <use xlink:href="#DejaVuSans-31"/>
      </g>
     </g>
    </g>
    <g id="ytick_3">
     <g id="line2d_3">
      <path d="M 32.968125 226.0367 
L 993.158125 226.0367 
" clip-path="url(#pb65be01031)" style="fill: none; stroke: #dedede; stroke-linecap: square"/>
     </g>
     <g id="text_10">
      <!-- 2 -->
      <g transform="translate(20.878125 229.076075) scale(0.08 -0.08)">
       <use xlink:href="#DejaVuSans-32"/>
      </g>
     </g>
    </g>
    <g id="ytick_4">
     <g id="line2d_4">
      <path d="M 32.968125 162.4431 
L 993.158125 162.4431 
" clip-path="url(#pb65be01031)" style="fill: none; stroke: #dedede; stroke-linecap: square"/>
     </g>
     <g id="text_11">
      <!-- 3 -->
      <g transform="translate(20.878125 165.482475) scale(0.08 -0.08)">
       <use xlink:href="#DejaVuSans-33"/>
      </g>
     </g>
    </g>
    <g id="ytick_5">
     <g id="line2d_5">
      <path d="M 32.968125 98.8495 
L 993.158125 98.8495 
" clip-path="url(#pb65be01031)" style="fill: none; stroke: #dedede; stroke-linecap: square"/>
     </g>
     <g id="text_12">
      <!-- 4 -->
      <g transform="translate(20.878125 101.888875) scale(0.08 -0.08)">
       <use xlink:href="#DejaVuSans-34"/>
      </g>
     </g>
    </g>
    <g id="ytick_6">
     <g id="line2d_6">
      <path d="M 32.968125 35.2559 
L 993.158125 35.2559 
" clip-path="url(#pb65be01031)" style="fill: none; stroke: #dedede; stroke-linecap: square"/>
     </g>
     <g id="text_13">
      <!-- 5 -->
      <g transform="translate(20.878125 38.295275) scale(0.08 -0.08)">
       <use xlink:href="#DejaVuSans-35"/>
      </g>
     </g>
    </g>
    <g id="text_14">
     <!-- % of Sequences -->
     <g transform="translate(14.798437 234.257869) rotate(-90) scale(0.1 -0.1)">
      <defs>
       <path id="DejaVuSans-25" d="M 4653 2053 
Q 4381 2053 4226 1822 
Q 4072 1591 4072 1178 
Q 4072 772 4226 539 
Q 4381 306 4653 306 
Q 4919 306 5073 539 
Q 5228 772 5228 1178 
Q 5228 1588 5073 1820 
Q 4919 2053 4653 2053 
z
M 4653 2450 
Q 5147 2450 5437 2106 
Q 5728 1763 5728 1178 
Q 5728 594 5436 251 
Q 5144 -91 4653 -91 
Q 4153 -91 3862 251 
Q 3572 594 3572 1178 
Q 3572 1766 3864 2108 
Q 4156 2450 4653 2450 
z
M 1428 4353 
Q 1159 4353 1004 4120 
Q 850 3888 850 3481 
Q 850 3069 1003 2837 
Q 1156 2606 1428 2606 
Q 1700 2606 1854 2837 
Q 2009 3069 2009 3481 
Q 2009 3884 1853 4118 
Q 1697 4353 1428 4353 
z
M 4250 4750 
L 4750 4750 
L 1831 -91 
L 1331 -91 
L 4250 4750 
z
M 1428 4750 
Q 1922 4750 2215 4408 
Q 2509 4066 2509 3481 
Q 2509 2891 2217 2550 
Q 1925 2209 1428 2209 
Q 931 2209 642 2551 
Q 353 2894 353 3481 
Q 353 4063 643 4406 
Q 934 4750 1428 4750 
z
" transform="scale(0.015625)"/>
       <path id="DejaVuSans-66" d="M 2375 4863 
L 2375 4384 
L 1825 4384 
Q 1516 4384 1395 4259 
Q 1275 4134 1275 3809 
L 1275 3500 
L 2222 3500 
L 2222 3053 
L 1275 3053 
L 1275 0 
L 697 0 
L 697 3053 
L 147 3053 
L 147 3500 
L 697 3500 
L 697 3744 
Q 697 4328 969 4595 
Q 1241 4863 1831 4863 
L 2375 4863 
z
" transform="scale(0.015625)"/>
       <path id="DejaVuSans-53" d="M 3425 4513 
L 3425 3897 
Q 3066 4069 2747 4153 
Q 2428 4238 2131 4238 
Q 1616 4238 1336 4038 
Q 1056 3838 1056 3469 
Q 1056 3159 1242 3001 
Q 1428 2844 1947 2747 
L 2328 2669 
Q 3034 2534 3370 2195 
Q 3706 1856 3706 1288 
Q 3706 609 3251 259 
Q 2797 -91 1919 -91 
Q 1588 -91 1214 -16 
Q 841 59 441 206 
L 441 856 
Q 825 641 1194 531 
Q 1563 422 1919 422 
Q 2459 422 2753 634 
Q 3047 847 3047 1241 
Q 3047 1584 2836 1778 
Q 2625 1972 2144 2069 
L 1759 2144 
Q 1053 2284 737 2584 
Q 422 2884 422 3419 
Q 422 4038 858 4394 
Q 1294 4750 2059 4750 
Q 2388 4750 2728 4690 
Q 3069 4631 3425 4513 
z
" transform="scale(0.015625)"/>
       <path id="DejaVuSans-65" d="M 3597 1894 
L 3597 1613 
L 953 1613 
Q 991 1019 1311 708 
Q 1631 397 2203 397 
Q 2534 397 2845 478 
Q 3156 559 3463 722 
L 3463 178 
Q 3153 47 2828 -22 
Q 2503 -91 2169 -91 
Q 1331 -91 842 396 
Q 353 884 353 1716 
Q 353 2575 817 3079 
Q 1281 3584 2069 3584 
Q 2775 3584 3186 3129 
Q 3597 2675 3597 1894 
z
M 3022 2063 
Q 3016 2534 2758 2815 
Q 2500 3097 2075 3097 
Q 1594 3097 1305 2825 
Q 1016 2553 972 2059 
L 3022 2063 
z
" transform="scale(0.015625)"/>
       <path id="DejaVuSans-71" d="M 947 1747 
Q 947 1113 1208 752 
Q 1469 391 1925 391 
Q 2381 391 2643 752 
Q 2906 1113 2906 1747 
Q 2906 2381 2643 2742 
Q 2381 3103 1925 3103 
Q 1469 3103 1208 2742 
Q 947 2381 947 1747 
z
M 2906 525 
Q 2725 213 2448 61 
Q 2172 -91 1784 -91 
Q 1150 -91 751 415 
Q 353 922 353 1747 
Q 353 2572 751 3078 
Q 1150 3584 1784 3584 
Q 2172 3584 2448 3432 
Q 2725 3281 2906 2969 
L 2906 3500 
L 3481 3500 
L 3481 -1331 
L 2906 -1331 
L 2906 525 
z
" transform="scale(0.015625)"/>
       <path id="DejaVuSans-75" d="M 544 1381 
L 544 3500 
L 1119 3500 
L 1119 1403 
Q 1119 906 1312 657 
Q 1506 409 1894 409 
Q 2359 409 2629 706 
Q 2900 1003 2900 1516 
L 2900 3500 
L 3475 3500 
L 3475 0 
L 2900 0 
L 2900 538 
Q 2691 219 2414 64 
Q 2138 -91 1772 -91 
Q 1169 -91 856 284 
Q 544 659 544 1381 
z
M 1991 3584 
L 1991 3584 
z
" transform="scale(0.015625)"/>
       <path id="DejaVuSans-63" d="M 3122 3366 
L 3122 2828 
Q 2878 2963 2633 3030 
Q 2388 3097 2138 3097 
Q 1578 3097 1268 2742 
Q 959 2388 959 1747 
Q 959 1106 1268 751 
Q 1578 397 2138 397 
Q 2388 397 2633 464 
Q 2878 531 3122 666 
L 3122 134 
Q 2881 22 2623 -34 
Q 2366 -91 2075 -91 
Q 1284 -91 818 406 
Q 353 903 353 1747 
Q 353 2603 823 3093 
Q 1294 3584 2113 3584 
Q 2378 3584 2631 3529 
Q 2884 3475 3122 3366 
z
" transform="scale(0.015625)"/>
      </defs>
      <use xlink:href="#DejaVuSans-25"/>
      <use xlink:href="#DejaVuSans-20" x="95.019531"/>
      <use xlink:href="#DejaVuSans-6f" x="126.806641"/>
      <use xlink:href="#DejaVuSans-66" x="187.988281"/>
      <use xlink:href="#DejaVuSans-20" x="223.193359"/>
      <use xlink:href="#DejaVuSans-53" x="254.980469"/>
      <use xlink:href="#DejaVuSans-65" x="318.457031"/>
      <use xlink:href="#DejaVuSans-71" x="379.980469"/>
      <use xlink:href="#DejaVuSans-75" x="443.457031"/>
      <use xlink:href="#DejaVuSans-65" x="506.835938"/>
      <use xlink:href="#DejaVuSans-6e" x="568.359375"/>
      <use xlink:href="#DejaVuSans-63" x="631.738281"/>
      <use xlink:href="#DejaVuSans-65" x="686.71875"/>
      <use xlink:href="#DejaVuSans-73" x="748.242188"/>
     </g>
    </g>
   </g>
   <g id="line2d_7">
    <path d="M 76.613125 353.221169 
L 95.185465 353.041584 
L 113.757806 352.75343 
L 132.330146 352.583178 
L 150.902487 352.264068 
L 169.474827 352.037596 
L 188.047168 351.830926 
L 206.619508 351.576231 
L 225.191848 351.171768 
L 243.764189 350.550392 
L 262.336529 349.94677 
L 280.90887 349.764227 
L 299.48121 349.481763 
L 318.053551 349.252332 
L 336.625891 348.946197 
L 355.198231 348.743624 
L 373.770572 348.480051 
L 392.342912 348.262001 
L 410.915253 348.050324 
L 429.487593 347.775598 
L 448.059934 347.566425 
L 466.632274 347.309908 
L 485.204614 347.080477 
L 503.776955 346.739745 
L 522.349295 346.387177 
L 540.921636 346.11359 
L 559.493976 345.644485 
L 578.066316 345.297835 
L 596.638657 344.996935 
L 615.210997 344.687613 
L 633.783338 344.418122 
L 652.355678 344.032096 
L 670.928019 343.776717 
L 689.500359 343.561626 
L 708.072699 343.340616 
L 726.64504 343.14123 
L 745.21738 342.96119 
L 763.789721 342.740409 
L 782.362061 342.57175 
L 800.934402 342.39262 
L 819.506742 342.21076 
L 838.079082 342.046653 
L 856.651423 341.825189 
L 875.223763 341.651522 
L 893.796104 341.478311 
L 912.368444 341.478311 
" clip-path="url(#pb65be01031)" style="fill: none; stroke: #7cb5ec; stroke-linecap: square"/>
   </g>
   <g id="line2d_8">
    <path d="M 76.613125 353.218893 
L 95.185465 352.65442 
L 113.757806 352.462089 
L 132.330146 352.377418 
L 150.902487 352.23539 
L 169.474827 352.130234 
L 188.047168 352.049887 
L 206.619508 351.956795 
L 225.191848 351.758091 
L 243.764189 351.49725 
L 262.336529 351.211144 
L 280.90887 351.101664 
L 299.48121 350.956904 
L 318.053551 350.802129 
L 336.625891 350.650541 
L 355.198231 350.445919 
L 373.770572 350.179616 
L 392.342912 349.958606 
L 410.915253 349.700041 
L 429.487593 349.504752 
L 448.059934 349.200437 
L 466.632274 348.974648 
L 485.204614 348.745217 
L 503.776955 348.554935 
L 522.349295 348.365563 
L 540.921636 348.192352 
L 559.493976 347.935153 
L 578.066316 347.74874 
L 596.638657 347.570977 
L 615.210997 347.410056 
L 633.783338 347.238211 
L 652.355678 347.079339 
L 670.928019 346.941863 
L 689.500359 346.774114 
L 708.072699 346.607276 
L 726.64504 346.432016 
L 745.21738 346.276331 
L 763.789721 346.149097 
L 782.362061 345.994322 
L 800.934402 345.858439 
L 819.506742 345.670205 
L 838.079082 345.507919 
L 856.651423 345.339488 
L 875.223763 345.185168 
L 893.796104 345.046781 
L 912.368444 345.046781 
" clip-path="url(#pb65be01031)" style="fill: none; stroke: #434348; stroke-linecap: square"/>
   </g>
   <g id="line2d_9">
    <path d="M 76.613125 353.221173 
L 95.185465 353.034826 
L 113.757806 352.74667 
L 132.330146 352.600623 
L 150.902487 352.311558 
L 169.474827 352.093396 
L 188.047168 351.89099 
L 206.619508 351.58435 
L 225.191848 351.253471 
L 243.764189 350.614741 
L 262.336529 350.051155 
L 280.90887 349.906623 
L 299.48121 349.537262 
L 318.053551 349.302131 
L 336.625891 348.93974 
L 355.198231 348.733092 
L 373.770572 348.491295 
L 392.342912 348.333431 
L 410.915253 348.170112 
L 429.487593 347.983765 
L 448.059934 347.784692 
L 466.632274 347.566227 
L 485.204614 347.401999 
L 503.776955 347.130509 
L 522.349295 346.898105 
L 540.921636 346.678428 
L 559.493976 346.359366 
L 578.066316 346.074846 
L 596.638657 345.817293 
L 615.210997 345.610948 
L 633.783338 345.386726 
L 652.355678 345.120992 
L 670.928019 344.871924 
L 689.500359 344.650125 
L 708.072699 344.392573 
L 726.64504 344.196833 
L 745.21738 344.048664 
L 763.789721 343.823533 
L 782.362061 343.684455 
L 800.934402 343.513561 
L 819.506742 343.337213 
L 838.079082 343.199953 
L 856.651423 342.996335 
L 875.223763 342.854226 
L 893.796104 342.727874 
L 912.368444 342.727874 
" clip-path="url(#pb65be01031)" style="fill: none; stroke: #90ed7d; stroke-linecap: square"/>
   </g>
   <g id="line2d_10">
    <path d="M 76.613125 353.221173 
L 95.185465 352.737277 
L 113.757806 352.570019 
L 132.330146 352.511843 
L 150.902487 352.406398 
L 169.474827 352.324284 
L 188.047168 352.264289 
L 206.619508 352.19066 
L 225.191848 352.006131 
L 243.764189 351.783423 
L 262.336529 351.521629 
L 280.90887 351.432849 
L 299.48121 351.310133 
L 318.053551 351.18075 
L 336.625891 351.05258 
L 355.198231 350.875323 
L 373.770572 350.675947 
L 392.342912 350.476874 
L 410.915253 350.246592 
L 429.487593 350.080243 
L 448.059934 349.789966 
L 466.632274 349.59665 
L 485.204614 349.412728 
L 503.776955 349.238198 
L 522.349295 349.093665 
L 540.921636 348.950648 
L 559.493976 348.726123 
L 578.066316 348.528565 
L 596.638657 348.384941 
L 615.210997 348.238894 
L 633.783338 348.093149 
L 652.355678 347.968009 
L 670.928019 347.858625 
L 689.500359 347.711062 
L 708.072699 347.581983 
L 726.64504 347.431088 
L 745.21738 347.285343 
L 763.789721 347.152931 
L 782.362061 347.027487 
L 800.934402 346.901438 
L 819.506742 346.750543 
L 838.079082 346.59995 
L 856.651423 346.467538 
L 875.223763 346.335125 
L 893.796104 346.212106 
L 912.368444 346.212106 
" clip-path="url(#pb65be01031)" style="fill: none; stroke: #f7a35c; stroke-linecap: square"/>
   </g>
   <g id="line2d_11">
    <path d="M 76.613125 353.220584 
L 95.185465 353.052913 
L 113.757806 352.785302 
L 132.330146 352.631366 
L 150.902487 352.34694 
L 169.474827 352.15014 
L 188.047168 352.016571 
L 206.619508 351.80035 
L 225.191848 351.445351 
L 243.764189 350.880762 
L 262.336529 350.374669 
L 280.90887 350.230444 
L 299.48121 350.002619 
L 318.053551 349.758216 
L 336.625891 349.393507 
L 355.198231 349.19718 
L 373.770572 349.018378 
L 392.342912 348.869889 
L 410.915253 348.715006 
L 429.487593 348.589489 
L 448.059934 348.442659 
L 466.632274 348.266935 
L 485.204614 348.091922 
L 503.776955 347.871439 
L 522.349295 347.660192 
L 540.921636 347.454392 
L 559.493976 347.160256 
L 578.066316 346.911591 
L 596.638657 346.630717 
L 615.210997 346.35837 
L 633.783338 346.158017 
L 652.355678 345.894195 
L 670.928019 345.702367 
L 689.500359 345.51196 
L 708.072699 345.260927 
L 726.64504 345.076915 
L 745.21738 344.904507 
L 763.789721 344.68876 
L 782.362061 344.534587 
L 800.934402 344.381836 
L 819.506742 344.203271 
L 838.079082 344.075859 
L 856.651423 343.892557 
L 875.223763 343.717071 
L 893.796104 343.562898 
L 912.368444 343.562898 
" clip-path="url(#pb65be01031)" style="fill: none; stroke: #8085e9; stroke-linecap: square"/>
   </g>
   <g id="line2d_12">
    <path d="M 76.613125 353.222005 
L 95.185465 352.791933 
L 113.757806 352.608631 
L 132.330146 352.540426 
L 150.902487 352.423908 
L 169.474827 352.33131 
L 188.047168 352.262394 
L 206.619508 352.175243 
L 225.191848 351.977021 
L 243.764189 351.701121 
L 262.336529 351.430431 
L 280.90887 351.32836 
L 299.48121 351.226052 
L 318.053551 351.089168 
L 336.625891 350.945889 
L 355.198231 350.755956 
L 373.770572 350.517948 
L 392.342912 350.333462 
L 410.915253 350.1099 
L 429.487593 349.933466 
L 448.059934 349.654251 
L 466.632274 349.443003 
L 485.204614 349.246439 
L 503.776955 349.061717 
L 522.349295 348.88623 
L 540.921636 348.734189 
L 559.493976 348.501628 
L 578.066316 348.314774 
L 596.638657 348.152549 
L 615.210997 348.010455 
L 633.783338 347.833784 
L 652.355678 347.67227 
L 670.928019 347.537043 
L 689.500359 347.358478 
L 708.072699 347.188912 
L 726.64504 347.019819 
L 745.21738 346.863279 
L 763.789721 346.722132 
L 782.362061 346.57388 
L 800.934402 346.431785 
L 819.506742 346.237826 
L 838.079082 346.059261 
L 856.651423 345.897036 
L 875.223763 345.750205 
L 893.796104 345.621373 
L 912.368444 345.621373 
" clip-path="url(#pb65be01031)" style="fill: none; stroke: #f15c80; stroke-linecap: square"/>
   </g>
   <g id="line2d_13">
    <path d="M 76.613125 353.220854 
L 95.185465 353.01157 
L 113.757806 352.708304 
L 132.330146 352.547099 
L 150.902487 352.281034 
L 169.474827 352.116348 
L 188.047168 351.981467 
L 206.619508 351.788716 
L 225.191848 351.485233 
L 243.764189 351.014888 
L 262.336529 350.562382 
L 280.90887 350.442946 
L 299.48121 350.245628 
L 318.053551 350.047004 
L 336.625891 349.751134 
L 355.198231 349.522271 
L 373.770572 349.242283 
L 392.342912 349.086081 
L 410.915253 348.908124 
L 429.487593 348.612908 
L 448.059934 348.427989 
L 466.632274 348.179764 
L 485.204614 347.993105 
L 503.776955 347.647634 
L 522.349295 347.284977 
L 540.921636 347.020652 
L 559.493976 346.525289 
L 578.066316 346.227897 
L 596.638657 345.964225 
L 615.210997 345.692286 
L 633.783338 345.471472 
L 652.355678 345.113166 
L 670.928019 344.841227 
L 689.500359 344.658919 
L 708.072699 344.451593 
L 726.64504 344.299308 
L 745.21738 344.175086 
L 763.789721 343.988645 
L 782.362061 343.841798 
L 800.934402 343.694516 
L 819.506742 343.549627 
L 838.079082 343.429756 
L 856.651423 343.269857 
L 875.223763 343.114743 
L 893.796104 342.96224 
L 912.368444 342.96224 
" clip-path="url(#pb65be01031)" style="fill: none; stroke: #e4d354; stroke-linecap: square"/>
   </g>
   <g id="line2d_14">
    <path d="M 76.613125 353.222212 
L 95.185465 353.065733 
L 113.757806 352.822213 
L 132.330146 352.687433 
L 150.902487 352.468747 
L 169.474827 352.305516 
L 188.047168 352.188579 
L 206.619508 352.014257 
L 225.191848 351.721069 
L 243.764189 351.233788 
L 262.336529 350.798586 
L 280.90887 350.672727 
L 299.48121 350.494307 
L 318.053551 350.320709 
L 336.625891 350.030896 
L 355.198231 349.854404 
L 373.770572 349.634995 
L 392.342912 349.478756 
L 410.915253 349.313356 
L 429.487593 349.068871 
L 448.059934 348.914321 
L 466.632274 348.710825 
L 485.204614 348.528064 
L 503.776955 348.167607 
L 522.349295 347.872489 
L 540.921636 347.617155 
L 559.493976 347.208958 
L 578.066316 346.931201 
L 596.638657 346.682617 
L 615.210997 346.426078 
L 633.783338 346.206669 
L 652.355678 345.784969 
L 670.928019 345.543619 
L 689.500359 345.373879 
L 708.072699 345.186296 
L 726.64504 345.032951 
L 745.21738 344.900341 
L 763.789721 344.717339 
L 782.362061 344.579907 
L 800.934402 344.446815 
L 819.506742 344.275628 
L 838.079082 344.13699 
L 856.651423 343.962669 
L 875.223763 343.818968 
L 893.796104 343.671409 
L 912.368444 343.671409 
" clip-path="url(#pb65be01031)" style="fill: none; stroke: #2b908f; stroke-linecap: square"/>
   </g>
   <g id="line2d_15">
    <path d="M 76.613125 353.221717 
L 95.185465 352.999571 
L 113.757806 352.634421 
L 132.330146 352.451028 
L 150.902487 352.14428 
L 169.474827 351.908216 
L 188.047168 351.742015 
L 206.619508 351.492033 
L 225.191848 351.162088 
L 243.764189 350.579432 
L 262.336529 350.048901 
L 280.90887 349.9089 
L 299.48121 349.557941 
L 318.053551 349.321877 
L 336.625891 348.946357 
L 355.198231 348.729123 
L 373.770572 348.48569 
L 392.342912 348.303388 
L 410.915253 348.117266 
L 429.487593 347.870831 
L 448.059934 347.674611 
L 466.632274 347.468839 
L 485.204614 347.296089 
L 503.776955 346.955501 
L 522.349295 346.606453 
L 540.921636 346.311168 
L 559.493976 345.882704 
L 578.066316 345.58851 
L 596.638657 345.301958 
L 615.210997 345.037784 
L 633.783338 344.78207 
L 652.355678 344.414465 
L 670.928019 344.152474 
L 689.500359 343.931965 
L 708.072699 343.668064 
L 726.64504 343.463657 
L 745.21738 343.300459 
L 763.789721 343.059209 
L 782.362061 342.897648 
L 800.934402 342.715892 
L 819.506742 342.535501 
L 838.079082 342.396318 
L 856.651423 342.191092 
L 875.223763 342.047816 
L 893.796104 341.895534 
L 912.368444 341.895534 
" clip-path="url(#pb65be01031)" style="fill: none; stroke: #f45b5b; stroke-linecap: square"/>
   </g>
   <g id="line2d_16">
    <path d="M 76.613125 353.221444 
L 95.185465 352.821089 
L 113.757806 352.666078 
L 132.330146 352.602491 
L 150.902487 352.486506 
L 169.474827 352.405179 
L 188.047168 352.337225 
L 206.619508 352.248531 
L 225.191848 352.048217 
L 243.764189 351.793868 
L 262.336529 351.526419 
L 280.90887 351.407704 
L 299.48121 351.281894 
L 318.053551 351.153355 
L 336.625891 350.999982 
L 355.198231 350.793937 
L 373.770572 350.539315 
L 392.342912 350.35019 
L 410.915253 350.108668 
L 429.487593 349.94465 
L 448.059934 349.685116 
L 466.632274 349.472521 
L 485.204614 349.273299 
L 503.776955 349.084994 
L 522.349295 348.912516 
L 540.921636 348.763782 
L 559.493976 348.520076 
L 578.066316 348.35797 
L 596.638657 348.198592 
L 615.210997 348.032665 
L 633.783338 347.887478 
L 652.355678 347.745294 
L 670.928019 347.598743 
L 689.500359 347.415622 
L 708.072699 347.252151 
L 726.64504 347.091409 
L 745.21738 346.94322 
L 763.789721 346.802673 
L 782.362061 346.663218 
L 800.934402 346.517212 
L 819.506742 346.346646 
L 838.079082 346.194909 
L 856.651423 346.038261 
L 875.223763 345.90672 
L 893.796104 345.767537 
L 912.368444 345.767537 
" clip-path="url(#pb65be01031)" style="fill: none; stroke: #91e8e1; stroke-linecap: square"/>
   </g>
   <g id="line2d_17">
    <path d="M 76.613125 353.123418 
L 95.185465 352.844264 
L 113.757806 352.288864 
L 132.330146 352.027804 
L 150.902487 351.540577 
L 169.474827 351.284363 
L 188.047168 351.095676 
L 206.619508 350.760626 
L 225.191848 350.337049 
L 243.764189 349.474064 
L 262.336529 348.63531 
L 280.90887 348.414959 
L 299.48121 347.947765 
L 318.053551 347.626285 
L 336.625891 347.212724 
L 355.198231 346.872182 
L 373.770572 346.504501 
L 392.342912 346.232455 
L 410.915253 345.986903 
L 429.487593 345.604682 
L 448.059934 345.339422 
L 466.632274 344.988541 
L 485.204614 344.682893 
L 503.776955 344.131048 
L 522.349295 343.62282 
L 540.921636 343.208935 
L 559.493976 342.582132 
L 578.066316 342.148539 
L 596.638657 341.712038 
L 615.210997 341.378604 
L 633.783338 341.035478 
L 652.355678 340.673935 
L 670.928019 340.350194 
L 689.500359 340.04487 
L 708.072699 339.683327 
L 726.64504 339.35797 
L 745.21738 339.124696 
L 763.789721 338.852004 
L 782.362061 338.633915 
L 800.934402 338.392241 
L 819.506742 338.120195 
L 838.079082 337.911476 
L 856.651423 337.631999 
L 875.223763 337.395171 
L 893.796104 337.152526 
L 912.368444 336.935407 
L 930.940785 336.688563 
L 949.513125 336.688563 
" clip-path="url(#pb65be01031)" style="fill: none; stroke: #7cb5ec; stroke-linecap: square"/>
   </g>
   <g id="line2d_18">
    <path d="M 76.613125 353.10177 
L 95.185465 352.653638 
L 113.757806 352.466566 
L 132.330146 352.389993 
L 150.902487 352.245893 
L 169.474827 352.157042 
L 188.047168 352.088545 
L 206.619508 352.004864 
L 225.191848 351.769651 
L 243.764189 351.372891 
L 262.336529 351.03138 
L 280.90887 350.906665 
L 299.48121 350.775812 
L 318.053551 350.621696 
L 336.625891 350.452071 
L 355.198231 350.197796 
L 373.770572 349.916057 
L 392.342912 349.689891 
L 410.915253 349.41106 
L 429.487593 349.217526 
L 448.059934 348.885062 
L 466.632274 348.625617 
L 485.204614 348.40559 
L 503.776955 348.177162 
L 522.349295 347.969412 
L 540.921636 347.809803 
L 559.493976 347.532265 
L 578.066316 347.31773 
L 596.638657 347.119673 
L 615.210997 346.932601 
L 633.783338 346.760715 
L 652.355678 346.589798 
L 670.928019 346.425989 
L 689.500359 346.217593 
L 708.072699 346.026321 
L 726.64504 345.826971 
L 745.21738 345.650885 
L 763.789721 345.482876 
L 782.362061 345.324559 
L 800.934402 345.158812 
L 819.506742 344.949446 
L 838.079082 344.778206 
L 856.651423 344.59275 
L 875.223763 344.424741 
L 893.796104 344.255762 
L 912.368444 344.027657 
L 930.940785 343.853832 
L 949.513125 343.853832 
" clip-path="url(#pb65be01031)" style="fill: none; stroke: #434348; stroke-linecap: square"/>
   </g>
   <g id="line2d_19">
    <path d="M 76.613125 353.080869 
L 95.185465 352.926448 
L 113.757806 352.490346 
L 132.330146 352.257948 
L 150.902487 351.842435 
L 169.474827 351.599086 
L 188.047168 351.432618 
L 206.619508 351.156193 
L 225.191848 350.72732 
L 243.764189 349.960472 
L 262.336529 349.264373 
L 280.90887 349.044899 
L 299.48121 348.736714 
L 318.053551 348.430282 
L 336.625891 347.965924 
L 355.198231 347.682709 
L 373.770572 347.417456 
L 392.342912 347.144536 
L 410.915253 346.888263 
L 429.487593 346.695949 
L 448.059934 346.492464 
L 466.632274 346.238162 
L 485.204614 345.998098 
L 503.776955 345.631431 
L 522.349295 345.34734 
L 540.921636 345.069163 
L 559.493976 344.682783 
L 578.066316 344.308887 
L 596.638657 343.950324 
L 615.210997 343.669957 
L 633.783338 343.406675 
L 652.355678 343.073739 
L 670.928019 342.816809 
L 689.500359 342.541918 
L 708.072699 342.176127 
L 726.64504 341.90014 
L 745.21738 341.680885 
L 763.789721 341.362843 
L 782.362061 341.144464 
L 800.934402 340.923894 
L 819.506742 340.657107 
L 838.079082 340.423614 
L 856.651423 340.159894 
L 875.223763 339.915887 
L 893.796104 339.690717 
L 912.368444 339.46708 
L 930.940785 339.212341 
L 949.513125 339.212341 
" clip-path="url(#pb65be01031)" style="fill: none; stroke: #90ed7d; stroke-linecap: square"/>
   </g>
   <g id="line2d_20">
    <path d="M 76.613125 353.067508 
L 95.185465 352.684632 
L 113.757806 352.491441 
L 132.330146 352.414121 
L 150.902487 352.289927 
L 169.474827 352.183038 
L 188.047168 352.119955 
L 206.619508 352.032997 
L 225.191848 351.804323 
L 243.764189 351.489567 
L 262.336529 351.140423 
L 280.90887 351.009658 
L 299.48121 350.874731 
L 318.053551 350.71593 
L 336.625891 350.556471 
L 355.198231 350.343129 
L 373.770572 350.094742 
L 392.342912 349.89038 
L 410.915253 349.643526 
L 429.487593 349.440479 
L 448.059934 349.145656 
L 466.632274 348.903182 
L 485.204614 348.687212 
L 503.776955 348.481317 
L 522.349295 348.307402 
L 540.921636 348.122535 
L 559.493976 347.854872 
L 578.066316 347.653139 
L 596.638657 347.467615 
L 615.210997 347.290853 
L 633.783338 347.122413 
L 652.355678 346.959231 
L 670.928019 346.807658 
L 689.500359 346.61381 
L 708.072699 346.433543 
L 726.64504 346.224363 
L 745.21738 346.055486 
L 763.789721 345.901722 
L 782.362061 345.74292 
L 800.934402 345.565281 
L 819.506742 345.37231 
L 838.079082 345.198614 
L 856.651423 345.009366 
L 875.223763 344.837203 
L 893.796104 344.675773 
L 912.368444 344.485431 
L 930.940785 344.326848 
L 949.513125 344.326848 
" clip-path="url(#pb65be01031)" style="fill: none; stroke: #f7a35c; stroke-linecap: square"/>
   </g>
   <g id="line2d_21">
    <path d="M 76.613125 353.030991 
L 95.185465 352.749483 
L 113.757806 352.121902 
L 132.330146 351.87731 
L 150.902487 351.470599 
L 169.474827 351.224437 
L 188.047168 351.032628 
L 206.619508 350.737452 
L 225.191848 350.400648 
L 243.764189 349.672842 
L 262.336529 348.901207 
L 280.90887 348.714896 
L 299.48121 348.207176 
L 318.053551 347.908702 
L 336.625891 347.488481 
L 355.198231 347.070932 
L 373.770572 346.654167 
L 392.342912 346.384441 
L 410.915253 346.156029 
L 429.487593 345.605737 
L 448.059934 345.344965 
L 466.632274 344.949722 
L 485.204614 344.619986 
L 503.776955 343.948262 
L 522.349295 343.281879 
L 540.921636 342.829769 
L 559.493976 342.211928 
L 578.066316 341.749449 
L 596.638657 341.366303 
L 615.210997 340.998551 
L 633.783338 340.644623 
L 652.355678 340.270274 
L 670.928019 339.948707 
L 689.500359 339.698303 
L 708.072699 339.381763 
L 726.64504 339.131516 
L 745.21738 338.945991 
L 763.789721 338.676264 
L 782.362061 338.471417 
L 800.934402 338.269711 
L 819.506742 338.013808 
L 838.079082 337.830011 
L 856.651423 337.561855 
L 875.223763 337.353866 
L 893.796104 337.126083 
L 912.368444 336.924063 
L 930.940785 336.694866 
L 949.513125 336.694866 
" clip-path="url(#pb65be01031)" style="fill: none; stroke: #8085e9; stroke-linecap: square"/>
   </g>
   <g id="line2d_22">
    <path d="M 76.613125 353.045444 
L 95.185465 352.773989 
L 113.757806 352.619725 
L 132.330146 352.55249 
L 150.902487 352.413307 
L 169.474827 352.327535 
L 188.047168 352.260771 
L 206.619508 352.167772 
L 225.191848 351.938733 
L 243.764189 351.601143 
L 262.336529 351.310209 
L 280.90887 351.205586 
L 299.48121 351.085253 
L 318.053551 350.946541 
L 336.625891 350.788036 
L 355.198231 350.520509 
L 373.770572 350.27466 
L 392.342912 350.059916 
L 410.915253 349.809197 
L 429.487593 349.629799 
L 448.059934 349.351432 
L 466.632274 349.136845 
L 485.204614 348.938281 
L 503.776955 348.74443 
L 522.349295 348.584196 
L 540.921636 348.420506 
L 559.493976 348.173872 
L 578.066316 347.974052 
L 596.638657 347.811776 
L 615.210997 347.631749 
L 633.783338 347.475443 
L 652.355678 347.330447 
L 670.928019 347.187494 
L 689.500359 347.018306 
L 708.072699 346.85603 
L 726.64504 346.690141 
L 745.21738 346.534777 
L 763.789721 346.391196 
L 782.362061 346.245729 
L 800.934402 346.097905 
L 819.506742 345.929346 
L 838.079082 345.771783 
L 856.651423 345.606837 
L 875.223763 345.449588 
L 893.796104 345.304278 
L 912.368444 345.127236 
L 930.940785 344.991823 
L 949.513125 344.991823 
" clip-path="url(#pb65be01031)" style="fill: none; stroke: #f15c80; stroke-linecap: square"/>
   </g>
   <g id="line2d_23">
    <path d="M 76.613125 353.084602 
L 95.185465 352.833037 
L 113.757806 352.257092 
L 132.330146 352.027445 
L 150.902487 351.588607 
L 169.474827 351.356768 
L 188.047168 351.204806 
L 206.619508 350.931567 
L 225.191848 350.573824 
L 243.764189 349.87855 
L 262.336529 349.219318 
L 280.90887 349.042517 
L 299.48121 348.652628 
L 318.053551 348.370135 
L 336.625891 347.953214 
L 355.198231 347.589139 
L 373.770572 347.250878 
L 392.342912 347.008811 
L 410.915253 346.786713 
L 429.487593 346.314024 
L 448.059934 346.083159 
L 466.632274 345.768764 
L 485.204614 345.46411 
L 503.776955 344.905699 
L 522.349295 344.368963 
L 540.921636 343.936943 
L 559.493976 343.319112 
L 578.066316 342.849832 
L 596.638657 342.429259 
L 615.210997 342.08978 
L 633.783338 341.765644 
L 652.355678 341.397672 
L 670.928019 341.063308 
L 689.500359 340.80809 
L 708.072699 340.490772 
L 726.64504 340.236285 
L 745.21738 340.052421 
L 763.789721 339.780887 
L 782.362061 339.59751 
L 800.934402 339.402444 
L 819.506742 339.150148 
L 838.079082 338.962144 
L 856.651423 338.692558 
L 875.223763 338.460963 
L 893.796104 338.213782 
L 912.368444 337.995824 
L 930.940785 337.736709 
L 949.513125 337.736709 
" clip-path="url(#pb65be01031)" style="fill: none; stroke: #e4d354; stroke-linecap: square"/>
   </g>
   <g id="line2d_24">
    <path d="M 76.613125 353.159365 
L 95.185465 352.900981 
L 113.757806 352.775564 
L 132.330146 352.723936 
L 150.902487 352.617514 
L 169.474827 352.548109 
L 188.047168 352.497455 
L 206.619508 352.436816 
L 225.191848 352.268051 
L 243.764189 352.011615 
L 262.336529 351.750309 
L 280.90887 351.661178 
L 299.48121 351.566445 
L 318.053551 351.451257 
L 336.625891 351.326814 
L 355.198231 351.141488 
L 373.770572 350.949101 
L 392.342912 350.790077 
L 410.915253 350.574798 
L 429.487593 350.439639 
L 448.059934 350.206339 
L 466.632274 350.0366 
L 485.204614 349.888778 
L 503.776955 349.729023 
L 522.349295 349.589238 
L 540.921636 349.453349 
L 559.493976 349.255117 
L 578.066316 349.086839 
L 596.638657 348.953629 
L 615.210997 348.820175 
L 633.783338 348.674789 
L 652.355678 348.561792 
L 670.928019 348.450743 
L 689.500359 348.305356 
L 708.072699 348.181157 
L 726.64504 348.045024 
L 745.21738 347.917172 
L 763.789721 347.792729 
L 782.362061 347.658788 
L 800.934402 347.539703 
L 819.506742 347.401866 
L 838.079082 347.258671 
L 856.651423 347.118399 
L 875.223763 346.993956 
L 893.796104 346.880715 
L 912.368444 346.729727 
L 930.940785 346.614051 
L 949.513125 346.614051 
" clip-path="url(#pb65be01031)" style="fill: none; stroke: #2b908f; stroke-linecap: square"/>
   </g>
   <g id="line2d_25">
    <path d="M 76.613125 353.103228 
L 95.185465 352.847525 
L 113.757806 352.347454 
L 132.330146 352.055222 
L 150.902487 351.594452 
L 169.474827 351.309021 
L 188.047168 351.065914 
L 206.619508 350.710196 
L 225.191848 350.201309 
L 243.764189 349.321336 
L 262.336529 348.398537 
L 280.90887 348.148375 
L 299.48121 347.761419 
L 318.053551 347.422077 
L 336.625891 346.798312 
L 355.198231 346.407828 
L 373.770572 346.059165 
L 392.342912 345.786079 
L 410.915253 345.496869 
L 429.487593 345.242425 
L 448.059934 344.948429 
L 466.632274 344.650654 
L 485.204614 344.333985 
L 503.776955 343.923348 
L 522.349295 343.580731 
L 540.921636 343.26381 
L 559.493976 342.837301 
L 578.066316 342.435985 
L 596.638657 342.025852 
L 615.210997 341.651744 
L 633.783338 341.300561 
L 652.355678 340.900253 
L 670.928019 340.608021 
L 689.500359 340.326117 
L 708.072699 339.862828 
L 726.64504 339.554724 
L 745.21738 339.297509 
L 763.789721 338.886872 
L 782.362061 338.625122 
L 800.934402 338.307193 
L 819.506742 338.031084 
L 838.079082 337.800069 
L 856.651423 337.49121 
L 875.223763 337.225429 
L 893.796104 336.977284 
L 912.368444 336.740474 
L 930.940785 336.492581 
L 949.513125 336.492581 
" clip-path="url(#pb65be01031)" style="fill: none; stroke: #f45b5b; stroke-linecap: square"/>
   </g>
   <g id="line2d_26">
    <path d="M 76.613125 353.031178 
L 95.185465 352.334858 
L 113.757806 352.064039 
L 132.330146 351.946894 
L 150.902487 351.742583 
L 169.474827 351.61914 
L 188.047168 351.517615 
L 206.619508 351.393416 
L 225.191848 351.035431 
L 243.764189 350.588517 
L 262.336529 350.127495 
L 280.90887 349.968782 
L 299.48121 349.798481 
L 318.053551 349.584346 
L 336.625891 349.353079 
L 355.198231 349.016759 
L 373.770572 348.65424 
L 392.342912 348.370069 
L 410.915253 348.008053 
L 429.487593 347.743281 
L 448.059934 347.279991 
L 466.632274 346.939893 
L 485.204614 346.636324 
L 503.776955 346.360467 
L 522.349295 346.101488 
L 540.921636 345.876771 
L 559.493976 345.520802 
L 578.066316 345.211691 
L 596.638657 344.964552 
L 615.210997 344.716407 
L 633.783338 344.47859 
L 652.355678 344.276798 
L 670.928019 344.065434 
L 689.500359 343.81099 
L 708.072699 343.590556 
L 726.64504 343.340395 
L 745.21738 343.139359 
L 763.789721 342.935804 
L 782.362061 342.708064 
L 800.934402 342.484355 
L 819.506742 342.239484 
L 838.079082 341.993606 
L 856.651423 341.769393 
L 875.223763 341.55299 
L 893.796104 341.3318 
L 912.368444 341.051156 
L 930.940785 340.83828 
L 949.513125 340.83828 
" clip-path="url(#pb65be01031)" style="fill: none; stroke: #91e8e1; stroke-linecap: square"/>
   </g>
   <g id="line2d_27">
    <path d="M 76.613125 353.077058 
L 95.185465 352.870563 
L 113.757806 352.389722 
L 132.330146 352.133077 
L 150.902487 351.66502 
L 169.474827 351.423125 
L 188.047168 351.241867 
L 206.619508 350.949823 
L 225.191848 350.492254 
L 243.764189 349.696098 
L 262.336529 348.93534 
L 280.90887 348.707867 
L 299.48121 348.461383 
L 318.053551 348.15295 
L 336.625891 347.695709 
L 355.198231 347.435131 
L 373.770572 347.150953 
L 392.342912 346.886442 
L 410.915253 346.618981 
L 429.487593 346.428873 
L 448.059934 346.210905 
L 466.632274 345.941477 
L 485.204614 345.693027 
L 503.776955 345.367878 
L 522.349295 345.110905 
L 540.921636 344.831316 
L 559.493976 344.335726 
L 578.066316 343.932895 
L 596.638657 343.540225 
L 615.210997 343.254736 
L 633.783338 342.974164 
L 652.355678 342.652292 
L 670.928019 342.368115 
L 689.500359 342.077054 
L 708.072699 341.69225 
L 726.64504 341.369723 
L 745.21738 341.117339 
L 763.789721 340.796779 
L 782.362061 340.549967 
L 800.934402 340.313316 
L 819.506742 340.040283 
L 838.079082 339.824282 
L 856.651423 339.548954 
L 875.223763 339.290342 
L 893.796104 339.059263 
L 912.368444 338.810485 
L 930.940785 338.557773 
L 949.513125 338.557773 
" clip-path="url(#pb65be01031)" style="fill: none; stroke: #7cb5ec; stroke-linecap: square"/>
   </g>
   <g id="line2d_28">
    <path d="M 76.613125 352.995443 
L 95.185465 352.588351 
L 113.757806 352.387428 
L 132.330146 352.308435 
L 150.902487 352.156349 
L 169.474827 352.049495 
L 188.047168 351.985908 
L 206.619508 351.897082 
L 225.191848 351.651581 
L 243.764189 351.293655 
L 262.336529 350.909507 
L 280.90887 350.763649 
L 299.48121 350.602713 
L 318.053551 350.437844 
L 336.625891 350.26052 
L 355.198231 350.013052 
L 373.770572 349.721664 
L 392.342912 349.480752 
L 410.915253 349.174941 
L 429.487593 348.934357 
L 448.059934 348.595769 
L 466.632274 348.318803 
L 485.204614 348.075268 
L 503.776955 347.821574 
L 522.349295 347.634744 
L 540.921636 347.420054 
L 559.493976 347.11621 
L 578.066316 346.880542 
L 596.638657 346.687485 
L 615.210997 346.488528 
L 633.783338 346.288259 
L 652.355678 346.099135 
L 670.928019 345.927055 
L 689.500359 345.716954 
L 708.072699 345.513736 
L 726.64504 345.298718 
L 745.21738 345.09845 
L 763.789721 344.922436 
L 782.362061 344.73954 
L 800.934402 344.569427 
L 819.506742 344.344248 
L 838.079082 344.153485 
L 856.651423 343.943056 
L 875.223763 343.75426 
L 893.796104 343.584474 
L 912.368444 343.367817 
L 930.940785 343.186887 
L 949.513125 343.186887 
" clip-path="url(#pb65be01031)" style="fill: none; stroke: #434348; stroke-linecap: square"/>
   </g>
   <g id="line2d_29">
    <path d="M 32.968125 353.2239 
L 993.158125 353.2239 
" clip-path="url(#pb65be01031)" style="fill: none; stroke: #dedede; stroke-width: 2; stroke-linecap: square"/>
   </g>
   <g id="text_15">
    <!-- FastQC: Adapter Content -->
    <g transform="translate(413.765625 19.3575) scale(0.16 -0.16)">
     <defs>
      <path id="DejaVuSans-46" d="M 628 4666 
L 3309 4666 
L 3309 4134 
L 1259 4134 
L 1259 2759 
L 3109 2759 
L 3109 2228 
L 1259 2228 
L 1259 0 
L 628 0 
L 628 4666 
z
" transform="scale(0.015625)"/>
      <path id="DejaVuSans-61" d="M 2194 1759 
Q 1497 1759 1228 1600 
Q 959 1441 959 1056 
Q 959 750 1161 570 
Q 1363 391 1709 391 
Q 2188 391 2477 730 
Q 2766 1069 2766 1631 
L 2766 1759 
L 2194 1759 
z
M 3341 1997 
L 3341 0 
L 2766 0 
L 2766 531 
Q 2569 213 2275 61 
Q 1981 -91 1556 -91 
Q 1019 -91 701 211 
Q 384 513 384 1019 
Q 384 1609 779 1909 
Q 1175 2209 1959 2209 
L 2766 2209 
L 2766 2266 
Q 2766 2663 2505 2880 
Q 2244 3097 1772 3097 
Q 1472 3097 1187 3025 
Q 903 2953 641 2809 
L 641 3341 
Q 956 3463 1253 3523 
Q 1550 3584 1831 3584 
Q 2591 3584 2966 3190 
Q 3341 2797 3341 1997 
z
" transform="scale(0.015625)"/>
      <path id="DejaVuSans-51" d="M 2522 4238 
Q 1834 4238 1429 3725 
Q 1025 3213 1025 2328 
Q 1025 1447 1429 934 
Q 1834 422 2522 422 
Q 3209 422 3611 934 
Q 4013 1447 4013 2328 
Q 4013 3213 3611 3725 
Q 3209 4238 2522 4238 
z
M 3406 84 
L 4238 -825 
L 3475 -825 
L 2784 -78 
Q 2681 -84 2626 -87 
Q 2572 -91 2522 -91 
Q 1538 -91 948 567 
Q 359 1225 359 2328 
Q 359 3434 948 4092 
Q 1538 4750 2522 4750 
Q 3503 4750 4090 4092 
Q 4678 3434 4678 2328 
Q 4678 1516 4351 937 
Q 4025 359 3406 84 
z
" transform="scale(0.015625)"/>
      <path id="DejaVuSans-43" d="M 4122 4306 
L 4122 3641 
Q 3803 3938 3442 4084 
Q 3081 4231 2675 4231 
Q 1875 4231 1450 3742 
Q 1025 3253 1025 2328 
Q 1025 1406 1450 917 
Q 1875 428 2675 428 
Q 3081 428 3442 575 
Q 3803 722 4122 1019 
L 4122 359 
Q 3791 134 3420 21 
Q 3050 -91 2638 -91 
Q 1578 -91 968 557 
Q 359 1206 359 2328 
Q 359 3453 968 4101 
Q 1578 4750 2638 4750 
Q 3056 4750 3426 4639 
Q 3797 4528 4122 4306 
z
" transform="scale(0.015625)"/>
      <path id="DejaVuSans-3a" d="M 750 794 
L 1409 794 
L 1409 0 
L 750 0 
L 750 794 
z
M 750 3309 
L 1409 3309 
L 1409 2516 
L 750 2516 
L 750 3309 
z
" transform="scale(0.015625)"/>
      <path id="DejaVuSans-41" d="M 2188 4044 
L 1331 1722 
L 3047 1722 
L 2188 4044 
z
M 1831 4666 
L 2547 4666 
L 4325 0 
L 3669 0 
L 3244 1197 
L 1141 1197 
L 716 0 
L 50 0 
L 1831 4666 
z
" transform="scale(0.015625)"/>
      <path id="DejaVuSans-64" d="M 2906 2969 
L 2906 4863 
L 3481 4863 
L 3481 0 
L 2906 0 
L 2906 525 
Q 2725 213 2448 61 
Q 2172 -91 1784 -91 
Q 1150 -91 751 415 
Q 353 922 353 1747 
Q 353 2572 751 3078 
Q 1150 3584 1784 3584 
Q 2172 3584 2448 3432 
Q 2725 3281 2906 2969 
z
M 947 1747 
Q 947 1113 1208 752 
Q 1469 391 1925 391 
Q 2381 391 2643 752 
Q 2906 1113 2906 1747 
Q 2906 2381 2643 2742 
Q 2381 3103 1925 3103 
Q 1469 3103 1208 2742 
Q 947 2381 947 1747 
z
" transform="scale(0.015625)"/>
      <path id="DejaVuSans-72" d="M 2631 2963 
Q 2534 3019 2420 3045 
Q 2306 3072 2169 3072 
Q 1681 3072 1420 2755 
Q 1159 2438 1159 1844 
L 1159 0 
L 581 0 
L 581 3500 
L 1159 3500 
L 1159 2956 
Q 1341 3275 1631 3429 
Q 1922 3584 2338 3584 
Q 2397 3584 2469 3576 
Q 2541 3569 2628 3553 
L 2631 2963 
z
" transform="scale(0.015625)"/>
     </defs>
     <use xlink:href="#DejaVuSans-46"/>
     <use xlink:href="#DejaVuSans-61" x="48.394531"/>
     <use xlink:href="#DejaVuSans-73" x="109.673828"/>
     <use xlink:href="#DejaVuSans-74" x="161.773438"/>
     <use xlink:href="#DejaVuSans-51" x="200.982422"/>
     <use xlink:href="#DejaVuSans-43" x="279.693359"/>
     <use xlink:href="#DejaVuSans-3a" x="349.517578"/>
     <use xlink:href="#DejaVuSans-20" x="383.208984"/>
     <use xlink:href="#DejaVuSans-41" x="414.996094"/>
     <use xlink:href="#DejaVuSans-64" x="481.654297"/>
     <use xlink:href="#DejaVuSans-61" x="545.130859"/>
     <use xlink:href="#DejaVuSans-70" x="606.410156"/>
     <use xlink:href="#DejaVuSans-74" x="669.886719"/>
     <use xlink:href="#DejaVuSans-65" x="709.095703"/>
     <use xlink:href="#DejaVuSans-72" x="770.619141"/>
     <use xlink:href="#DejaVuSans-20" x="811.732422"/>
     <use xlink:href="#DejaVuSans-43" x="843.519531"/>
     <use xlink:href="#DejaVuSans-6f" x="913.34375"/>
     <use xlink:href="#DejaVuSans-6e" x="974.525391"/>
     <use xlink:href="#DejaVuSans-74" x="1037.904297"/>
     <use xlink:href="#DejaVuSans-65" x="1077.113281"/>
     <use xlink:href="#DejaVuSans-6e" x="1138.636719"/>
     <use xlink:href="#DejaVuSans-74" x="1202.015625"/>
    </g>
   </g>
  </g>
 </g>
 <defs>
  <clipPath id="pb65be01031">
   <rect x="32.968125" y="35.2559" width="960.19" height="317.968"/>
  </clipPath>
 </defs>
</svg>
