<?xml version="1.0" encoding="UTF-8" standalone="no"?>
<!DOCTYPE svg PUBLIC "-//W3C//DTD SVG 1.1//EN" "http://www.w3.org/Graphics/SVG/1.1/DTD/svg11.dtd">
<svg xmlns="http://www.w3.org/2000/svg" xmlns:xlink="http://www.w3.org/1999/xlink" xml:space="preserve" font-family="monospace" font-size="24" fill="rgb(255,255,255)" stroke="rgb(0,0,0)" viewBox="0 0 790 905">
<g transform="scale(0.566025)">
<path style="fill:none;stroke-width:3" stroke="rgb(0,0,0)" d="M854,898 Q875,880 896,862"/>
<path style="fill:none;stroke-width:3" stroke="rgb(0,0,0)" d="M834,874 Q855,856 876,838"/>
<path style="fill:none;stroke-width:3" stroke="rgb(0,0,0)" d="M814,850 Q835,832 856,814"/>
<path style="fill:none;stroke-width:3" stroke="rgb(0,0,0)" d="M794,826 Q815,808 836,790"/>
<path style="fill:none;stroke-width:3" stroke="rgb(0,0,0)" d="M774,802 Q795,784 816,766"/>
<path style="fill:none;stroke-width:3" stroke="rgb(0,0,0)" d="M669,693 Q687.5,673 706,653"/>
<path style="fill:none;stroke-width:3" stroke="rgb(0,0,0)" d="M646,672 Q664.5,652 683,632"/>
<path style="fill:none;stroke-width:3" stroke="rgb(0,0,0)" d="M623,651 Q641.5,631 660,611"/>
<path style="fill:none;stroke-width:3" stroke="rgb(0,0,0)" d="M600,630 Q618.5,610 637,590"/>
<path style="fill:none;stroke-width:3" stroke="rgb(0,0,0)" d="M530,568 Q548,547 566,526"/>
<path style="fill:none;stroke-width:3" stroke="rgb(0,0,0)" d="M506,548 Q524,527 542,506"/>
<path style="fill:none;stroke-width:3" stroke="rgb(0,0,0)" d="M482,528 Q500,507 518,486"/>
<path style="fill:none;stroke-width:3" stroke="rgb(0,0,0)" d="M458,508 Q476,487 494,466"/>
<path style="fill:none;stroke-width:3" stroke="rgb(0,0,0)" d="M434,488 Q452,467 470,446"/>
<path style="fill:none;stroke-width:3" stroke="rgb(0,0,0)" d="M410,468 Q428,447 446,426"/>
<path style="fill:none;stroke-width:3" stroke="rgb(0,0,0)" d="M386,448 Q404,427 422,406"/>
<path style="fill:none;stroke-width:3" stroke="rgb(0,0,0)" d="M314,389 Q331,367.5 348,346"/>
<path style="fill:none;stroke-width:3" stroke="rgb(0,0,0)" d="M290,370 Q307,348.5 324,327"/>
<path style="fill:none;stroke-width:3" stroke="rgb(0,0,0)" d="M191,289 Q209,268 227,247"/>
<path style="fill:none;stroke-width:3" stroke="rgb(0,0,0)" d="M167,269 Q185,248 203,227"/>
<path style="fill:none;stroke-width:3" stroke="rgb(0,0,0)" d="M143,249 Q161,228 179,207"/>
<path style="fill:none;stroke-width:3" stroke="rgb(0,0,0)" d="M1022,1074 Q1003.5,1094 985,1114"/>
<path style="fill:none;stroke-width:3" stroke="rgb(0,0,0)" d="M1045,1095 Q1026.5,1115 1008,1135"/>
<path style="fill:none;stroke-width:3" stroke="rgb(0,0,0)" d="M1116,1158 Q1098,1179 1080,1200"/>
<path style="fill:none;stroke-width:3" stroke="rgb(0,0,0)" d="M1140,1178 Q1122,1199 1104,1220"/>
<path style="fill:none;stroke-width:3" stroke="rgb(0,0,0)" d="M1164,1198 Q1146,1219 1128,1240"/>
<path style="fill:none;stroke-width:3" stroke="rgb(0,0,0)" d="M1188,1218 Q1170,1239 1152,1260"/>
<path style="fill:none;stroke-width:3" stroke="rgb(0,0,0)" d="M1212,1238 Q1194,1259 1176,1280"/>
<path style="fill:none;stroke-width:3" stroke="rgb(0,0,0)" d="M1236,1258 Q1218,1279 1200,1300"/>
<line style="fill:none;stroke-width:1" stroke="rgb(0,0,0)" x1="844" y1="1075" x2="818" y2="1033"/> <circle style="stroke-width:1" cx="844" cy="1075" r="12" fill="rgb(255,255,255)" stroke="rgb(0,0,0)"/> <text x="836" y="1083" fill="rgb(0,0,0)" stroke="rgb(0,0,0)">G</text>
<line style="fill:none;stroke-width:1" stroke="rgb(0,0,0)" x1="818" y1="1033" x2="811" y2="984"/> <circle style="stroke-width:1" cx="818" cy="1033" r="12" fill="rgb(255,255,255)" stroke="rgb(0,0,0)"/> <text x="810" y="1041" fill="rgb(0,0,0)" stroke="rgb(0,0,0)">U</text>
<line style="fill:none;stroke-width:1" stroke="rgb(0,0,0)" x1="811" y1="984" x2="823" y2="937"/> <circle style="stroke-width:1" cx="811" cy="984" r="12" fill="rgb(255,255,255)" stroke="rgb(0,0,0)"/> <text x="803" y="992" fill="rgb(0,0,0)" stroke="rgb(0,0,0)">G</text>
<line style="fill:none;stroke-width:1" stroke="rgb(0,0,0)" x1="823" y1="937" x2="854" y2="898"/> <circle style="stroke-width:1" cx="823" cy="937" r="12" fill="rgb(255,255,255)" stroke="rgb(0,0,0)"/> <text x="815" y="945" fill="rgb(0,0,0)" stroke="rgb(0,0,0)">G</text>
<line style="fill:none;stroke-width:1" stroke="rgb(0,0,0)" x1="854" y1="898" x2="834" y2="874"/> <circle style="stroke-width:1" cx="854" cy="898" r="12" fill="rgb(255,255,255)" stroke="rgb(0,0,0)"/> <text x="846" y="906" fill="rgb(0,0,0)" stroke="rgb(0,0,0)">U</text>
<line style="fill:none;stroke-width:1" stroke="rgb(0,0,0)" x1="834" y1="874" x2="814" y2="850"/> <circle style="stroke-width:1" cx="834" cy="874" r="12" fill="rgb(255,255,255)" stroke="rgb(0,0,0)"/> <text x="826" y="882" fill="rgb(0,0,0)" stroke="rgb(0,0,0)">C</text>
<line style="fill:none;stroke-width:1" stroke="rgb(0,0,0)" x1="814" y1="850" x2="794" y2="826"/> <circle style="stroke-width:1" cx="814" cy="850" r="12" fill="rgb(255,255,255)" stroke="rgb(0,0,0)"/> <text x="806" y="858" fill="rgb(0,0,0)" stroke="rgb(0,0,0)">C</text>
<line style="fill:none;stroke-width:1" stroke="rgb(0,0,0)" x1="794" y1="826" x2="774" y2="802"/> <circle style="stroke-width:1" cx="794" cy="826" r="12" fill="rgb(255,255,255)" stroke="rgb(0,0,0)"/> <text x="786" y="834" fill="rgb(0,0,0)" stroke="rgb(0,0,0)">C</text>
<line style="fill:none;stroke-width:1" stroke="rgb(0,0,0)" x1="774" y1="802" x2="669" y2="693"/> <circle style="stroke-width:1" cx="774" cy="802" r="12" fill="rgb(255,255,255)" stroke="rgb(0,0,0)"/> <text x="766" y="810" fill="rgb(0,0,0)" stroke="rgb(0,0,0)">G</text>
<line style="fill:none;stroke-width:1" stroke="rgb(0,0,0)" x1="669" y1="693" x2="646" y2="672"/> <line style="fill:none;stroke-width:1" stroke="rgb(0,0,0)" x1="669" y1="693" x2="593" y2="775"/> <rect x="578" y="763" width="30" height="24" fill="rgb(255,255,255)" stroke="rgb(255,255,255)"/> <text x="578" y="783" fill="rgb(0,0,0)" stroke="rgb(0,0,0)">10</text> <circle style="stroke-width:1" cx="669" cy="693" r="12" fill="rgb(255,255,255)" stroke="rgb(0,0,0)"/> <text x="661" y="701" fill="rgb(0,0,0)" stroke="rgb(0,0,0)">G</text>
<line style="fill:none;stroke-width:1" stroke="rgb(0,0,0)" x1="646" y1="672" x2="623" y2="651"/> <circle style="stroke-width:1" cx="646" cy="672" r="12" fill="rgb(255,255,255)" stroke="rgb(0,0,0)"/> <text x="638" y="680" fill="rgb(0,0,0)" stroke="rgb(0,0,0)">C</text>
<line style="fill:none;stroke-width:1" stroke="rgb(0,0,0)" x1="623" y1="651" x2="600" y2="630"/> <circle style="stroke-width:1" cx="623" cy="651" r="12" fill="rgb(255,255,255)" stroke="rgb(0,0,0)"/> <text x="615" y="659" fill="rgb(0,0,0)" stroke="rgb(0,0,0)">G</text>
<line style="fill:none;stroke-width:1" stroke="rgb(0,0,0)" x1="600" y1="630" x2="530" y2="568"/> <circle style="stroke-width:1" cx="600" cy="630" r="12" fill="rgb(255,255,255)" stroke="rgb(0,0,0)"/> <text x="592" y="638" fill="rgb(0,0,0)" stroke="rgb(0,0,0)">C</text>
<line style="fill:none;stroke-width:1" stroke="rgb(0,0,0)" x1="530" y1="568" x2="506" y2="548"/> <circle style="stroke-width:1" cx="530" cy="568" r="12" fill="rgb(255,255,255)" stroke="rgb(0,0,0)"/> <text x="522" y="576" fill="rgb(0,0,0)" stroke="rgb(0,0,0)">C</text>
<line style="fill:none;stroke-width:1" stroke="rgb(0,0,0)" x1="506" y1="548" x2="482" y2="528"/> <circle style="stroke-width:1" cx="506" cy="548" r="12" fill="rgb(255,255,255)" stroke="rgb(0,0,0)"/> <text x="498" y="556" fill="rgb(0,0,0)" stroke="rgb(0,0,0)">G</text>
<line style="fill:none;stroke-width:1" stroke="rgb(0,0,0)" x1="482" y1="528" x2="458" y2="508"/> <circle style="stroke-width:1" cx="482" cy="528" r="12" fill="rgb(255,255,255)" stroke="rgb(0,0,0)"/> <text x="474" y="536" fill="rgb(0,0,0)" stroke="rgb(0,0,0)">G</text>
<line style="fill:none;stroke-width:1" stroke="rgb(0,0,0)" x1="458" y1="508" x2="434" y2="488"/> <circle style="stroke-width:1" cx="458" cy="508" r="12" fill="rgb(255,255,255)" stroke="rgb(0,0,0)"/> <text x="450" y="516" fill="rgb(0,0,0)" stroke="rgb(0,0,0)">G</text>
<line style="fill:none;stroke-width:1" stroke="rgb(0,0,0)" x1="434" y1="488" x2="410" y2="468"/> <circle style="stroke-width:1" cx="434" cy="488" r="12" fill="rgb(255,255,255)" stroke="rgb(0,0,0)"/> <text x="426" y="496" fill="rgb(0,0,0)" stroke="rgb(0,0,0)">U</text>
<line style="fill:none;stroke-width:1" stroke="rgb(0,0,0)" x1="410" y1="468" x2="386" y2="448"/> <circle style="stroke-width:1" cx="410" cy="468" r="12" fill="rgb(255,255,255)" stroke="rgb(0,0,0)"/> <text x="402" y="476" fill="rgb(0,0,0)" stroke="rgb(0,0,0)">C</text>
<line style="fill:none;stroke-width:1" stroke="rgb(0,0,0)" x1="386" y1="448" x2="314" y2="389"/> <line style="fill:none;stroke-width:1" stroke="rgb(0,0,0)" x1="386" y1="448" x2="314" y2="533"/> <rect x="299" y="521" width="30" height="24" fill="rgb(255,255,255)" stroke="rgb(255,255,255)"/> <text x="299" y="541" fill="rgb(0,0,0)" stroke="rgb(0,0,0)">20</text> <circle style="stroke-width:1" cx="386" cy="448" r="12" fill="rgb(255,255,255)" stroke="rgb(0,0,0)"/> <text x="378" y="456" fill="rgb(0,0,0)" stroke="rgb(0,0,0)">C</text>
<line style="fill:none;stroke-width:1" stroke="rgb(0,0,0)" x1="314" y1="389" x2="290" y2="370"/> <circle style="stroke-width:1" cx="314" cy="389" r="12" fill="rgb(255,255,255)" stroke="rgb(0,0,0)"/> <text x="306" y="397" fill="rgb(0,0,0)" stroke="rgb(0,0,0)">C</text>
<line style="fill:none;stroke-width:1" stroke="rgb(0,0,0)" x1="290" y1="370" x2="247" y2="372"/> <circle style="stroke-width:1" cx="290" cy="370" r="12" fill="rgb(255,255,255)" stroke="rgb(0,0,0)"/> <text x="282" y="378" fill="rgb(0,0,0)" stroke="rgb(0,0,0)">G</text>
<line style="fill:none;stroke-width:1" stroke="rgb(0,0,0)" x1="247" y1="372" x2="197" y2="331"/> <circle style="stroke-width:1" cx="247" cy="372" r="12" fill="rgb(255,255,255)" stroke="rgb(0,0,0)"/> <text x="239" y="380" fill="rgb(0,0,0)" stroke="rgb(0,0,0)">G</text>
<line style="fill:none;stroke-width:1" stroke="rgb(0,0,0)" x1="197" y1="331" x2="191" y2="289"/> <circle style="stroke-width:1" cx="197" cy="331" r="12" fill="rgb(255,255,255)" stroke="rgb(0,0,0)"/> <text x="189" y="339" fill="rgb(0,0,0)" stroke="rgb(0,0,0)">A</text>
<line style="fill:none;stroke-width:1" stroke="rgb(0,0,0)" x1="191" y1="289" x2="167" y2="269"/> <circle style="stroke-width:1" cx="191" cy="289" r="12" fill="rgb(255,255,255)" stroke="rgb(0,0,0)"/> <text x="183" y="297" fill="rgb(0,0,0)" stroke="rgb(0,0,0)">G</text>
<line style="fill:none;stroke-width:1" stroke="rgb(0,0,0)" x1="167" y1="269" x2="143" y2="249"/> <circle style="stroke-width:1" cx="167" cy="269" r="12" fill="rgb(255,255,255)" stroke="rgb(0,0,0)"/> <text x="159" y="277" fill="rgb(0,0,0)" stroke="rgb(0,0,0)">A</text>
<line style="fill:none;stroke-width:1" stroke="rgb(0,0,0)" x1="143" y1="249" x2="106" y2="233"/> <circle style="stroke-width:1" cx="143" cy="249" r="12" fill="rgb(255,255,255)" stroke="rgb(0,0,0)"/> <text x="135" y="257" fill="rgb(0,0,0)" stroke="rgb(0,0,0)">C</text>
<line style="fill:none;stroke-width:1" stroke="rgb(0,0,0)" x1="106" y1="233" x2="92" y2="195"/> <circle style="stroke-width:1" cx="106" cy="233" r="12" fill="rgb(255,255,255)" stroke="rgb(0,0,0)"/> <text x="98" y="241" fill="rgb(0,0,0)" stroke="rgb(0,0,0)">A</text>
<line style="fill:none;stroke-width:1" stroke="rgb(0,0,0)" x1="92" y1="195" x2="118" y2="165"/> <circle style="stroke-width:1" cx="92" cy="195" r="12" fill="rgb(255,255,255)" stroke="rgb(0,0,0)"/> <text x="84" y="203" fill="rgb(0,0,0)" stroke="rgb(0,0,0)">G</text>
<line style="fill:none;stroke-width:1" stroke="rgb(0,0,0)" x1="118" y1="165" x2="157" y2="173"/> <line style="fill:none;stroke-width:1" stroke="rgb(0,0,0)" x1="118" y1="165" x2="81" y2="60"/> <rect x="66" y="48" width="30" height="24" fill="rgb(255,255,255)" stroke="rgb(255,255,255)"/> <text x="66" y="68" fill="rgb(0,0,0)" stroke="rgb(0,0,0)">30</text> <circle style="stroke-width:1" cx="118" cy="165" r="12" fill="rgb(255,255,255)" stroke="rgb(0,0,0)"/> <text x="110" y="173" fill="rgb(0,0,0)" stroke="rgb(0,0,0)">A</text>
<line style="fill:none;stroke-width:1" stroke="rgb(0,0,0)" x1="157" y1="173" x2="179" y2="207"/> <circle style="stroke-width:1" cx="157" cy="173" r="12" fill="rgb(255,255,255)" stroke="rgb(0,0,0)"/> <text x="149" y="181" fill="rgb(0,0,0)" stroke="rgb(0,0,0)">C</text>
<line style="fill:none;stroke-width:1" stroke="rgb(0,0,0)" x1="179" y1="207" x2="203" y2="227"/> <circle style="stroke-width:1" cx="179" cy="207" r="12" fill="rgb(255,255,255)" stroke="rgb(0,0,0)"/> <text x="171" y="215" fill="rgb(0,0,0)" stroke="rgb(0,0,0)">G</text>
<line style="fill:none;stroke-width:1" stroke="rgb(0,0,0)" x1="203" y1="227" x2="227" y2="247"/> <circle style="stroke-width:1" cx="203" cy="227" r="12" fill="rgb(255,255,255)" stroke="rgb(0,0,0)"/> <text x="195" y="235" fill="rgb(0,0,0)" stroke="rgb(0,0,0)">U</text>
<line style="fill:none;stroke-width:1" stroke="rgb(0,0,0)" x1="227" y1="247" x2="298" y2="259"/> <circle style="stroke-width:1" cx="227" cy="247" r="12" fill="rgb(255,255,255)" stroke="rgb(0,0,0)"/> <text x="219" y="255" fill="rgb(0,0,0)" stroke="rgb(0,0,0)">U</text>
<line style="fill:none;stroke-width:1" stroke="rgb(0,0,0)" x1="298" y1="259" x2="324" y2="327"/> <circle style="stroke-width:1" cx="298" cy="259" r="12" fill="rgb(255,255,255)" stroke="rgb(0,0,0)"/> <text x="290" y="267" fill="rgb(0,0,0)" stroke="rgb(0,0,0)">A</text>
<line style="fill:none;stroke-width:1" stroke="rgb(0,0,0)" x1="324" y1="327" x2="348" y2="346"/> <circle style="stroke-width:1" cx="324" cy="327" r="12" fill="rgb(255,255,255)" stroke="rgb(0,0,0)"/> <text x="316" y="335" fill="rgb(0,0,0)" stroke="rgb(0,0,0)">C</text>
<line style="fill:none;stroke-width:1" stroke="rgb(0,0,0)" x1="348" y1="346" x2="399" y2="361"/> <circle style="stroke-width:1" cx="348" cy="346" r="12" fill="rgb(255,255,255)" stroke="rgb(0,0,0)"/> <text x="340" y="354" fill="rgb(0,0,0)" stroke="rgb(0,0,0)">G</text>
<line style="fill:none;stroke-width:1" stroke="rgb(0,0,0)" x1="399" y1="361" x2="422" y2="406"/> <circle style="stroke-width:1" cx="399" cy="361" r="12" fill="rgb(255,255,255)" stroke="rgb(0,0,0)"/> <text x="391" y="369" fill="rgb(0,0,0)" stroke="rgb(0,0,0)">C</text>
<line style="fill:none;stroke-width:1" stroke="rgb(0,0,0)" x1="422" y1="406" x2="446" y2="426"/> <circle style="stroke-width:1" cx="422" cy="406" r="12" fill="rgb(255,255,255)" stroke="rgb(0,0,0)"/> <text x="414" y="414" fill="rgb(0,0,0)" stroke="rgb(0,0,0)">G</text>
<line style="fill:none;stroke-width:1" stroke="rgb(0,0,0)" x1="446" y1="426" x2="470" y2="446"/> <line style="fill:none;stroke-width:1" stroke="rgb(0,0,0)" x1="446" y1="426" x2="518" y2="341"/> <rect x="503" y="329" width="30" height="24" fill="rgb(255,255,255)" stroke="rgb(255,255,255)"/> <text x="503" y="349" fill="rgb(0,0,0)" stroke="rgb(0,0,0)">40</text> <circle style="stroke-width:1" cx="446" cy="426" r="12" fill="rgb(255,255,255)" stroke="rgb(0,0,0)"/> <text x="438" y="434" fill="rgb(0,0,0)" stroke="rgb(0,0,0)">G</text>
<line style="fill:none;stroke-width:1" stroke="rgb(0,0,0)" x1="470" y1="446" x2="494" y2="466"/> <circle style="stroke-width:1" cx="470" cy="446" r="12" fill="rgb(255,255,255)" stroke="rgb(0,0,0)"/> <text x="462" y="454" fill="rgb(0,0,0)" stroke="rgb(0,0,0)">G</text>
<line style="fill:none;stroke-width:1" stroke="rgb(0,0,0)" x1="494" y1="466" x2="518" y2="486"/> <circle style="stroke-width:1" cx="494" cy="466" r="12" fill="rgb(255,255,255)" stroke="rgb(0,0,0)"/> <text x="486" y="474" fill="rgb(0,0,0)" stroke="rgb(0,0,0)">C</text>
<line style="fill:none;stroke-width:1" stroke="rgb(0,0,0)" x1="518" y1="486" x2="542" y2="506"/> <circle style="stroke-width:1" cx="518" cy="486" r="12" fill="rgb(255,255,255)" stroke="rgb(0,0,0)"/> <text x="510" y="494" fill="rgb(0,0,0)" stroke="rgb(0,0,0)">U</text>
<line style="fill:none;stroke-width:1" stroke="rgb(0,0,0)" x1="542" y1="506" x2="566" y2="526"/> <circle style="stroke-width:1" cx="542" cy="506" r="12" fill="rgb(255,255,255)" stroke="rgb(0,0,0)"/> <text x="534" y="514" fill="rgb(0,0,0)" stroke="rgb(0,0,0)">C</text>
<line style="fill:none;stroke-width:1" stroke="rgb(0,0,0)" x1="566" y1="526" x2="616" y2="543"/> <circle style="stroke-width:1" cx="566" cy="526" r="12" fill="rgb(255,255,255)" stroke="rgb(0,0,0)"/> <text x="558" y="534" fill="rgb(0,0,0)" stroke="rgb(0,0,0)">G</text>
<line style="fill:none;stroke-width:1" stroke="rgb(0,0,0)" x1="616" y1="543" x2="637" y2="590"/> <circle style="stroke-width:1" cx="616" cy="543" r="12" fill="rgb(255,255,255)" stroke="rgb(0,0,0)"/> <text x="608" y="551" fill="rgb(0,0,0)" stroke="rgb(0,0,0)">A</text>
<line style="fill:none;stroke-width:1" stroke="rgb(0,0,0)" x1="637" y1="590" x2="660" y2="611"/> <circle style="stroke-width:1" cx="637" cy="590" r="12" fill="rgb(255,255,255)" stroke="rgb(0,0,0)"/> <text x="629" y="598" fill="rgb(0,0,0)" stroke="rgb(0,0,0)">G</text>
<line style="fill:none;stroke-width:1" stroke="rgb(0,0,0)" x1="660" y1="611" x2="683" y2="632"/> <circle style="stroke-width:1" cx="660" cy="611" r="12" fill="rgb(255,255,255)" stroke="rgb(0,0,0)"/> <text x="652" y="619" fill="rgb(0,0,0)" stroke="rgb(0,0,0)">C</text>
<line style="fill:none;stroke-width:1" stroke="rgb(0,0,0)" x1="683" y1="632" x2="706" y2="653"/> <circle style="stroke-width:1" cx="683" cy="632" r="12" fill="rgb(255,255,255)" stroke="rgb(0,0,0)"/> <text x="675" y="640" fill="rgb(0,0,0)" stroke="rgb(0,0,0)">G</text>
<line style="fill:none;stroke-width:1" stroke="rgb(0,0,0)" x1="706" y1="653" x2="745" y2="650"/> <line style="fill:none;stroke-width:1" stroke="rgb(0,0,0)" x1="706" y1="653" x2="782" y2="571"/> <rect x="767" y="559" width="30" height="24" fill="rgb(255,255,255)" stroke="rgb(255,255,255)"/> <text x="767" y="579" fill="rgb(0,0,0)" stroke="rgb(0,0,0)">50</text> <circle style="stroke-width:1" cx="706" cy="653" r="12" fill="rgb(255,255,255)" stroke="rgb(0,0,0)"/> <text x="698" y="661" fill="rgb(0,0,0)" stroke="rgb(0,0,0)">U</text>
<line style="fill:none;stroke-width:1" stroke="rgb(0,0,0)" x1="745" y1="650" x2="801" y2="674"/> <circle style="stroke-width:1" cx="745" cy="650" r="12" fill="rgb(255,255,255)" stroke="rgb(0,0,0)"/> <text x="737" y="658" fill="rgb(0,0,0)" stroke="rgb(0,0,0)">C</text>
<line style="fill:none;stroke-width:1" stroke="rgb(0,0,0)" x1="801" y1="674" x2="822" y2="730"/> <circle style="stroke-width:1" cx="801" cy="674" r="12" fill="rgb(255,255,255)" stroke="rgb(0,0,0)"/> <text x="793" y="682" fill="rgb(0,0,0)" stroke="rgb(0,0,0)">C</text>
<line style="fill:none;stroke-width:1" stroke="rgb(0,0,0)" x1="822" y1="730" x2="816" y2="766"/> <circle style="stroke-width:1" cx="822" cy="730" r="12" fill="rgb(255,255,255)" stroke="rgb(0,0,0)"/> <text x="814" y="738" fill="rgb(0,0,0)" stroke="rgb(0,0,0)">U</text>
<line style="fill:none;stroke-width:1" stroke="rgb(0,0,0)" x1="816" y1="766" x2="836" y2="790"/> <circle style="stroke-width:1" cx="816" cy="766" r="12" fill="rgb(255,255,255)" stroke="rgb(0,0,0)"/> <text x="808" y="774" fill="rgb(0,0,0)" stroke="rgb(0,0,0)">C</text>
<line style="fill:none;stroke-width:1" stroke="rgb(0,0,0)" x1="836" y1="790" x2="856" y2="814"/> <circle style="stroke-width:1" cx="836" cy="790" r="12" fill="rgb(255,255,255)" stroke="rgb(0,0,0)"/> <text x="828" y="798" fill="rgb(0,0,0)" stroke="rgb(0,0,0)">G</text>
<line style="fill:none;stroke-width:1" stroke="rgb(0,0,0)" x1="856" y1="814" x2="876" y2="838"/> <circle style="stroke-width:1" cx="856" cy="814" r="12" fill="rgb(255,255,255)" stroke="rgb(0,0,0)"/> <text x="848" y="822" fill="rgb(0,0,0)" stroke="rgb(0,0,0)">G</text>
<line style="fill:none;stroke-width:1" stroke="rgb(0,0,0)" x1="876" y1="838" x2="896" y2="862"/> <circle style="stroke-width:1" cx="876" cy="838" r="12" fill="rgb(255,255,255)" stroke="rgb(0,0,0)"/> <text x="868" y="846" fill="rgb(0,0,0)" stroke="rgb(0,0,0)">G</text>
<line style="fill:none;stroke-width:1" stroke="rgb(0,0,0)" x1="896" y1="862" x2="1051" y2="959"/> <circle style="stroke-width:1" cx="896" cy="862" r="12" fill="rgb(255,255,255)" stroke="rgb(0,0,0)"/> <text x="888" y="870" fill="rgb(0,0,0)" stroke="rgb(0,0,0)">G</text>
<line style="fill:none;stroke-width:1" stroke="rgb(0,0,0)" x1="1051" y1="959" x2="1022" y2="1074"/> <circle style="stroke-width:1" cx="1051" cy="959" r="12" fill="rgb(255,255,255)" stroke="rgb(0,0,0)"/> <text x="1043" y="967" fill="rgb(0,0,0)" stroke="rgb(0,0,0)">A</text>
<line style="fill:none;stroke-width:1" stroke="rgb(0,0,0)" x1="1022" y1="1074" x2="1045" y2="1095"/> <line style="fill:none;stroke-width:1" stroke="rgb(0,0,0)" x1="1022" y1="1074" x2="1098" y2="992"/> <rect x="1083" y="980" width="30" height="24" fill="rgb(255,255,255)" stroke="rgb(255,255,255)"/> <text x="1083" y="1000" fill="rgb(0,0,0)" stroke="rgb(0,0,0)">60</text> <circle style="stroke-width:1" cx="1022" cy="1074" r="12" fill="rgb(255,255,255)" stroke="rgb(0,0,0)"/> <text x="1014" y="1082" fill="rgb(0,0,0)" stroke="rgb(0,0,0)">G</text>
<line style="fill:none;stroke-width:1" stroke="rgb(0,0,0)" x1="1045" y1="1095" x2="1116" y2="1158"/> <circle style="stroke-width:1" cx="1045" cy="1095" r="12" fill="rgb(255,255,255)" stroke="rgb(0,0,0)"/> <text x="1037" y="1103" fill="rgb(0,0,0)" stroke="rgb(0,0,0)">U</text>
<line style="fill:none;stroke-width:1" stroke="rgb(0,0,0)" x1="1116" y1="1158" x2="1140" y2="1178"/> <circle style="stroke-width:1" cx="1116" cy="1158" r="12" fill="rgb(255,255,255)" stroke="rgb(0,0,0)"/> <text x="1108" y="1166" fill="rgb(0,0,0)" stroke="rgb(0,0,0)">G</text>
<line style="fill:none;stroke-width:1" stroke="rgb(0,0,0)" x1="1140" y1="1178" x2="1164" y2="1198"/> <circle style="stroke-width:1" cx="1140" cy="1178" r="12" fill="rgb(255,255,255)" stroke="rgb(0,0,0)"/> <text x="1132" y="1186" fill="rgb(0,0,0)" stroke="rgb(0,0,0)">C</text>
<line style="fill:none;stroke-width:1" stroke="rgb(0,0,0)" x1="1164" y1="1198" x2="1188" y2="1218"/> <circle style="stroke-width:1" cx="1164" cy="1198" r="12" fill="rgb(255,255,255)" stroke="rgb(0,0,0)"/> <text x="1156" y="1206" fill="rgb(0,0,0)" stroke="rgb(0,0,0)">C</text>
<line style="fill:none;stroke-width:1" stroke="rgb(0,0,0)" x1="1188" y1="1218" x2="1212" y2="1238"/> <circle style="stroke-width:1" cx="1188" cy="1218" r="12" fill="rgb(255,255,255)" stroke="rgb(0,0,0)"/> <text x="1180" y="1226" fill="rgb(0,0,0)" stroke="rgb(0,0,0)">A</text>
<line style="fill:none;stroke-width:1" stroke="rgb(0,0,0)" x1="1212" y1="1238" x2="1236" y2="1258"/> <circle style="stroke-width:1" cx="1212" cy="1238" r="12" fill="rgb(255,255,255)" stroke="rgb(0,0,0)"/> <text x="1204" y="1246" fill="rgb(0,0,0)" stroke="rgb(0,0,0)">G</text>
<line style="fill:none;stroke-width:1" stroke="rgb(0,0,0)" x1="1236" y1="1258" x2="1273" y2="1274"/> <circle style="stroke-width:1" cx="1236" cy="1258" r="12" fill="rgb(255,255,255)" stroke="rgb(0,0,0)"/> <text x="1228" y="1266" fill="rgb(0,0,0)" stroke="rgb(0,0,0)">C</text>
<line style="fill:none;stroke-width:1" stroke="rgb(0,0,0)" x1="1273" y1="1274" x2="1287" y2="1312"/> <circle style="stroke-width:1" cx="1273" cy="1274" r="12" fill="rgb(255,255,255)" stroke="rgb(0,0,0)"/> <text x="1265" y="1282" fill="rgb(0,0,0)" stroke="rgb(0,0,0)">C</text>
<line style="fill:none;stroke-width:1" stroke="rgb(0,0,0)" x1="1287" y1="1312" x2="1261" y2="1342"/> <circle style="stroke-width:1" cx="1287" cy="1312" r="12" fill="rgb(255,255,255)" stroke="rgb(0,0,0)"/> <text x="1279" y="1320" fill="rgb(0,0,0)" stroke="rgb(0,0,0)">A</text>
<line style="fill:none;stroke-width:1" stroke="rgb(0,0,0)" x1="1261" y1="1342" x2="1222" y2="1334"/> <line style="fill:none;stroke-width:1" stroke="rgb(0,0,0)" x1="1261" y1="1342" x2="1298" y2="1447"/> <rect x="1283" y="1435" width="30" height="24" fill="rgb(255,255,255)" stroke="rgb(255,255,255)"/> <text x="1283" y="1455" fill="rgb(0,0,0)" stroke="rgb(0,0,0)">70</text> <circle style="stroke-width:1" cx="1261" cy="1342" r="12" fill="rgb(255,255,255)" stroke="rgb(0,0,0)"/> <text x="1253" y="1350" fill="rgb(0,0,0)" stroke="rgb(0,0,0)">G</text>
<line style="fill:none;stroke-width:1" stroke="rgb(0,0,0)" x1="1222" y1="1334" x2="1200" y2="1300"/> <circle style="stroke-width:1" cx="1222" cy="1334" r="12" fill="rgb(255,255,255)" stroke="rgb(0,0,0)"/> <text x="1214" y="1342" fill="rgb(0,0,0)" stroke="rgb(0,0,0)">A</text>
<line style="fill:none;stroke-width:1" stroke="rgb(0,0,0)" x1="1200" y1="1300" x2="1176" y2="1280"/> <circle style="stroke-width:1" cx="1200" cy="1300" r="12" fill="rgb(255,255,255)" stroke="rgb(0,0,0)"/> <text x="1192" y="1308" fill="rgb(0,0,0)" stroke="rgb(0,0,0)">G</text>
<line style="fill:none;stroke-width:1" stroke="rgb(0,0,0)" x1="1176" y1="1280" x2="1152" y2="1260"/> <circle style="stroke-width:1" cx="1176" cy="1280" r="12" fill="rgb(255,255,255)" stroke="rgb(0,0,0)"/> <text x="1168" y="1288" fill="rgb(0,0,0)" stroke="rgb(0,0,0)">U</text>
<line style="fill:none;stroke-width:1" stroke="rgb(0,0,0)" x1="1152" y1="1260" x2="1128" y2="1240"/> <circle style="stroke-width:1" cx="1152" cy="1260" r="12" fill="rgb(255,255,255)" stroke="rgb(0,0,0)"/> <text x="1144" y="1268" fill="rgb(0,0,0)" stroke="rgb(0,0,0)">U</text>
<line style="fill:none;stroke-width:1" stroke="rgb(0,0,0)" x1="1128" y1="1240" x2="1104" y2="1220"/> <circle style="stroke-width:1" cx="1128" cy="1240" r="12" fill="rgb(255,255,255)" stroke="rgb(0,0,0)"/> <text x="1120" y="1248" fill="rgb(0,0,0)" stroke="rgb(0,0,0)">G</text>
<line style="fill:none;stroke-width:1" stroke="rgb(0,0,0)" x1="1104" y1="1220" x2="1080" y2="1200"/> <circle style="stroke-width:1" cx="1104" cy="1220" r="12" fill="rgb(255,255,255)" stroke="rgb(0,0,0)"/> <text x="1096" y="1228" fill="rgb(0,0,0)" stroke="rgb(0,0,0)">G</text>
<line style="fill:none;stroke-width:1" stroke="rgb(0,0,0)" x1="1080" y1="1200" x2="1029" y2="1183"/> <circle style="stroke-width:1" cx="1080" cy="1200" r="12" fill="rgb(255,255,255)" stroke="rgb(0,0,0)"/> <text x="1072" y="1208" fill="rgb(0,0,0)" stroke="rgb(0,0,0)">U</text>
<line style="fill:none;stroke-width:1" stroke="rgb(0,0,0)" x1="1029" y1="1183" x2="1008" y2="1135"/> <circle style="stroke-width:1" cx="1029" cy="1183" r="12" fill="rgb(255,255,255)" stroke="rgb(0,0,0)"/> <text x="1021" y="1191" fill="rgb(0,0,0)" stroke="rgb(0,0,0)">G</text>
<line style="fill:none;stroke-width:1" stroke="rgb(0,0,0)" x1="1008" y1="1135" x2="985" y2="1114"/> <circle style="stroke-width:1" cx="1008" cy="1135" r="12" fill="rgb(255,255,255)" stroke="rgb(0,0,0)"/> <text x="1000" y="1143" fill="rgb(0,0,0)" stroke="rgb(0,0,0)">A</text>
<line style="fill:none;stroke-width:1" stroke="rgb(0,0,0)" x1="985" y1="1114" x2="909" y2="1196"/> <rect x="894" y="1184" width="30" height="24" fill="rgb(255,255,255)" stroke="rgb(255,255,255)"/> <text x="894" y="1204" fill="rgb(0,0,0)" stroke="rgb(0,0,0)">80</text> <circle style="stroke-width:1" cx="985" cy="1114" r="12" fill="rgb(255,255,255)" stroke="rgb(0,0,0)"/> <text x="977" y="1122" fill="rgb(0,0,0)" stroke="rgb(0,0,0)">C</text>
</g>
<g font-size="16">
<text x="36" y="892" fill="rgb(0,0,0)" stroke="rgb(0,0,0)">ENERGY = -35.6  ENST00000319481.8</text>
</g>
</svg>
