<?xml version="1.0" encoding="UTF-8" standalone="no"?>
<!DOCTYPE svg PUBLIC "-//W3C//DTD SVG 1.1//EN" "http://www.w3.org/Graphics/SVG/1.1/DTD/svg11.dtd">
<svg xmlns="http://www.w3.org/2000/svg" xmlns:xlink="http://www.w3.org/1999/xlink" xml:space="preserve" font-family="monospace" font-size="24" fill="rgb(255,255,255)" stroke="rgb(0,0,0)" viewBox="0 0 790 905">
<g transform="scale(0.518856)">
<path style="fill:none;stroke-width:3" stroke="rgb(0,0,0)" d="M202,1386 Q228.5,1393.5 255,1401"/>
<path style="fill:none;stroke-width:3" stroke="rgb(0,0,0)" d="M210,1356 Q236.5,1363.5 263,1371"/>
<path style="fill:none;stroke-width:3" stroke="rgb(0,0,0)" d="M218,1326 Q244.5,1333.5 271,1341"/>
<path style="fill:none;stroke-width:3" stroke="rgb(0,0,0)" d="M243,1235 Q269.5,1242.5 296,1250"/>
<path style="fill:none;stroke-width:3" stroke="rgb(0,0,0)" d="M251,1205 Q277.5,1212.5 304,1220"/>
<path style="fill:none;stroke-width:3" stroke="rgb(0,0,0)" d="M259,1175 Q285.5,1182.5 312,1190"/>
<path style="fill:none;stroke-width:3" stroke="rgb(0,0,0)" d="M267,1145 Q293.5,1152.5 320,1160"/>
<path style="fill:none;stroke-width:3" stroke="rgb(0,0,0)" d="M305,1028 Q331,1037.5 357,1047"/>
<path style="fill:none;stroke-width:3" stroke="rgb(0,0,0)" d="M315,999 Q341,1008.5 367,1018"/>
<path style="fill:none;stroke-width:3" stroke="rgb(0,0,0)" d="M325,970 Q351,979.5 377,989"/>
<path style="fill:none;stroke-width:3" stroke="rgb(0,0,0)" d="M335,941 Q361,950.5 387,960"/>
<path style="fill:none;stroke-width:3" stroke="rgb(0,0,0)" d="M345,912 Q371,921.5 397,931"/>
<path style="fill:none;stroke-width:3" stroke="rgb(0,0,0)" d="M427,713 Q452,724.5 477,736"/>
<path style="fill:none;stroke-width:3" stroke="rgb(0,0,0)" d="M440,685 Q465,696.5 490,708"/>
<path style="fill:none;stroke-width:3" stroke="rgb(0,0,0)" d="M489,566 Q515,575.5 541,585"/>
<path style="fill:none;stroke-width:3" stroke="rgb(0,0,0)" d="M499,537 Q525,546.5 551,556"/>
<path style="fill:none;stroke-width:3" stroke="rgb(0,0,0)" d="M509,508 Q535,517.5 561,527"/>
<path style="fill:none;stroke-width:3" stroke="rgb(0,0,0)" d="M519,479 Q545,488.5 571,498"/>
<path style="fill:none;stroke-width:3" stroke="rgb(0,0,0)" d="M529,450 Q555,459.5 581,469"/>
<path style="fill:none;stroke-width:3" stroke="rgb(0,0,0)" d="M571,329 Q597,337.5 623,346"/>
<path style="fill:none;stroke-width:3" stroke="rgb(0,0,0)" d="M580,299 Q606,307.5 632,316"/>
<path style="fill:none;stroke-width:3" stroke="rgb(0,0,0)" d="M607,207 Q633.5,214.5 660,222"/>
<path style="fill:none;stroke-width:3" stroke="rgb(0,0,0)" d="M615,177 Q641.5,184.5 668,192"/>
<path style="fill:none;stroke-width:3" stroke="rgb(0,0,0)" d="M623,147 Q649.5,154.5 676,162"/>
<path style="fill:none;stroke-width:3" stroke="rgb(0,0,0)" d="M631,117 Q657.5,124.5 684,132"/>
<line style="fill:none;stroke-width:1" stroke="rgb(0,0,0)" x1="77" y1="1608" x2="48" y2="1567"/> <circle style="stroke-width:1" cx="77" cy="1608" r="12" fill="rgb(255,255,255)" stroke="rgb(0,0,0)"/> <text x="69" y="1616" fill="rgb(0,0,0)" stroke="rgb(0,0,0)">A</text>
<line style="fill:none;stroke-width:1" stroke="rgb(0,0,0)" x1="48" y1="1567" x2="36" y2="1519"/> <circle style="stroke-width:1" cx="48" cy="1567" r="12" fill="rgb(255,255,255)" stroke="rgb(0,0,0)"/> <text x="40" y="1575" fill="rgb(0,0,0)" stroke="rgb(0,0,0)">G</text>
<line style="fill:none;stroke-width:1" stroke="rgb(0,0,0)" x1="36" y1="1519" x2="43" y2="1470"/> <circle style="stroke-width:1" cx="36" cy="1519" r="12" fill="rgb(255,255,255)" stroke="rgb(0,0,0)"/> <text x="28" y="1527" fill="rgb(0,0,0)" stroke="rgb(0,0,0)">C</text>
<line style="fill:none;stroke-width:1" stroke="rgb(0,0,0)" x1="43" y1="1470" x2="68" y2="1427"/> <circle style="stroke-width:1" cx="43" cy="1470" r="12" fill="rgb(255,255,255)" stroke="rgb(0,0,0)"/> <text x="35" y="1478" fill="rgb(0,0,0)" stroke="rgb(0,0,0)">A</text>
<line style="fill:none;stroke-width:1" stroke="rgb(0,0,0)" x1="68" y1="1427" x2="106" y2="1396"/> <circle style="stroke-width:1" cx="68" cy="1427" r="12" fill="rgb(255,255,255)" stroke="rgb(0,0,0)"/> <text x="60" y="1435" fill="rgb(0,0,0)" stroke="rgb(0,0,0)">G</text>
<line style="fill:none;stroke-width:1" stroke="rgb(0,0,0)" x1="106" y1="1396" x2="153" y2="1382"/> <circle style="stroke-width:1" cx="106" cy="1396" r="12" fill="rgb(255,255,255)" stroke="rgb(0,0,0)"/> <text x="98" y="1404" fill="rgb(0,0,0)" stroke="rgb(0,0,0)">U</text>
<line style="fill:none;stroke-width:1" stroke="rgb(0,0,0)" x1="153" y1="1382" x2="202" y2="1386"/> <circle style="stroke-width:1" cx="153" cy="1382" r="12" fill="rgb(255,255,255)" stroke="rgb(0,0,0)"/> <text x="145" y="1390" fill="rgb(0,0,0)" stroke="rgb(0,0,0)">A</text>
<line style="fill:none;stroke-width:1" stroke="rgb(0,0,0)" x1="202" y1="1386" x2="210" y2="1356"/> <circle style="stroke-width:1" cx="202" cy="1386" r="12" fill="rgb(255,255,255)" stroke="rgb(0,0,0)"/> <text x="194" y="1394" fill="rgb(0,0,0)" stroke="rgb(0,0,0)">G</text>
<line style="fill:none;stroke-width:1" stroke="rgb(0,0,0)" x1="210" y1="1356" x2="218" y2="1326"/> <circle style="stroke-width:1" cx="210" cy="1356" r="12" fill="rgb(255,255,255)" stroke="rgb(0,0,0)"/> <text x="202" y="1364" fill="rgb(0,0,0)" stroke="rgb(0,0,0)">C</text>
<line style="fill:none;stroke-width:1" stroke="rgb(0,0,0)" x1="218" y1="1326" x2="211" y2="1275"/> <line style="fill:none;stroke-width:1" stroke="rgb(0,0,0)" x1="218" y1="1326" x2="111" y2="1296"/> <rect x="96" y="1284" width="30" height="24" fill="rgb(255,255,255)" stroke="rgb(255,255,255)"/> <text x="96" y="1304" fill="rgb(0,0,0)" stroke="rgb(0,0,0)">10</text> <circle style="stroke-width:1" cx="218" cy="1326" r="12" fill="rgb(255,255,255)" stroke="rgb(0,0,0)"/> <text x="210" y="1334" fill="rgb(0,0,0)" stroke="rgb(0,0,0)">A</text>
<line style="fill:none;stroke-width:1" stroke="rgb(0,0,0)" x1="211" y1="1275" x2="243" y2="1235"/> <circle style="stroke-width:1" cx="211" cy="1275" r="12" fill="rgb(255,255,255)" stroke="rgb(0,0,0)"/> <text x="203" y="1283" fill="rgb(0,0,0)" stroke="rgb(0,0,0)">G</text>
<line style="fill:none;stroke-width:1" stroke="rgb(0,0,0)" x1="243" y1="1235" x2="251" y2="1205"/> <circle style="stroke-width:1" cx="243" cy="1235" r="12" fill="rgb(255,255,255)" stroke="rgb(0,0,0)"/> <text x="235" y="1243" fill="rgb(0,0,0)" stroke="rgb(0,0,0)">A</text>
<line style="fill:none;stroke-width:1" stroke="rgb(0,0,0)" x1="251" y1="1205" x2="259" y2="1175"/> <circle style="stroke-width:1" cx="251" cy="1205" r="12" fill="rgb(255,255,255)" stroke="rgb(0,0,0)"/> <text x="243" y="1213" fill="rgb(0,0,0)" stroke="rgb(0,0,0)">G</text>
<line style="fill:none;stroke-width:1" stroke="rgb(0,0,0)" x1="259" y1="1175" x2="267" y2="1145"/> <circle style="stroke-width:1" cx="259" cy="1175" r="12" fill="rgb(255,255,255)" stroke="rgb(0,0,0)"/> <text x="251" y="1183" fill="rgb(0,0,0)" stroke="rgb(0,0,0)">G</text>
<line style="fill:none;stroke-width:1" stroke="rgb(0,0,0)" x1="267" y1="1145" x2="250" y2="1107"/> <circle style="stroke-width:1" cx="267" cy="1145" r="12" fill="rgb(255,255,255)" stroke="rgb(0,0,0)"/> <text x="259" y="1153" fill="rgb(0,0,0)" stroke="rgb(0,0,0)">C</text>
<line style="fill:none;stroke-width:1" stroke="rgb(0,0,0)" x1="250" y1="1107" x2="269" y2="1047"/> <circle style="stroke-width:1" cx="250" cy="1107" r="12" fill="rgb(255,255,255)" stroke="rgb(0,0,0)"/> <text x="242" y="1115" fill="rgb(0,0,0)" stroke="rgb(0,0,0)">A</text>
<line style="fill:none;stroke-width:1" stroke="rgb(0,0,0)" x1="269" y1="1047" x2="305" y2="1028"/> <circle style="stroke-width:1" cx="269" cy="1047" r="12" fill="rgb(255,255,255)" stroke="rgb(0,0,0)"/> <text x="261" y="1055" fill="rgb(0,0,0)" stroke="rgb(0,0,0)">G</text>
<line style="fill:none;stroke-width:1" stroke="rgb(0,0,0)" x1="305" y1="1028" x2="315" y2="999"/> <circle style="stroke-width:1" cx="305" cy="1028" r="12" fill="rgb(255,255,255)" stroke="rgb(0,0,0)"/> <text x="297" y="1036" fill="rgb(0,0,0)" stroke="rgb(0,0,0)">C</text>
<line style="fill:none;stroke-width:1" stroke="rgb(0,0,0)" x1="315" y1="999" x2="325" y2="970"/> <circle style="stroke-width:1" cx="315" cy="999" r="12" fill="rgb(255,255,255)" stroke="rgb(0,0,0)"/> <text x="307" y="1007" fill="rgb(0,0,0)" stroke="rgb(0,0,0)">U</text>
<line style="fill:none;stroke-width:1" stroke="rgb(0,0,0)" x1="325" y1="970" x2="335" y2="941"/> <line style="fill:none;stroke-width:1" stroke="rgb(0,0,0)" x1="325" y1="970" x2="220" y2="932"/> <rect x="205" y="920" width="30" height="24" fill="rgb(255,255,255)" stroke="rgb(255,255,255)"/> <text x="205" y="940" fill="rgb(0,0,0)" stroke="rgb(0,0,0)">20</text> <circle style="stroke-width:1" cx="325" cy="970" r="12" fill="rgb(255,255,255)" stroke="rgb(0,0,0)"/> <text x="317" y="978" fill="rgb(0,0,0)" stroke="rgb(0,0,0)">U</text>
<line style="fill:none;stroke-width:1" stroke="rgb(0,0,0)" x1="335" y1="941" x2="345" y2="912"/> <circle style="stroke-width:1" cx="335" cy="941" r="12" fill="rgb(255,255,255)" stroke="rgb(0,0,0)"/> <text x="327" y="949" fill="rgb(0,0,0)" stroke="rgb(0,0,0)">C</text>
<line style="fill:none;stroke-width:1" stroke="rgb(0,0,0)" x1="345" y1="912" x2="324" y2="889"/> <circle style="stroke-width:1" cx="345" cy="912" r="12" fill="rgb(255,255,255)" stroke="rgb(0,0,0)"/> <text x="337" y="920" fill="rgb(0,0,0)" stroke="rgb(0,0,0)">U</text>
<line style="fill:none;stroke-width:1" stroke="rgb(0,0,0)" x1="324" y1="889" x2="301" y2="836"/> <circle style="stroke-width:1" cx="324" cy="889" r="12" fill="rgb(255,255,255)" stroke="rgb(0,0,0)"/> <text x="316" y="897" fill="rgb(0,0,0)" stroke="rgb(0,0,0)">G</text>
<line style="fill:none;stroke-width:1" stroke="rgb(0,0,0)" x1="301" y1="836" x2="308" y2="779"/> <circle style="stroke-width:1" cx="301" cy="836" r="12" fill="rgb(255,255,255)" stroke="rgb(0,0,0)"/> <text x="293" y="844" fill="rgb(0,0,0)" stroke="rgb(0,0,0)">A</text>
<line style="fill:none;stroke-width:1" stroke="rgb(0,0,0)" x1="308" y1="779" x2="343" y2="734"/> <circle style="stroke-width:1" cx="308" cy="779" r="12" fill="rgb(255,255,255)" stroke="rgb(0,0,0)"/> <text x="300" y="787" fill="rgb(0,0,0)" stroke="rgb(0,0,0)">G</text>
<line style="fill:none;stroke-width:1" stroke="rgb(0,0,0)" x1="343" y1="734" x2="397" y2="713"/> <circle style="stroke-width:1" cx="343" cy="734" r="12" fill="rgb(255,255,255)" stroke="rgb(0,0,0)"/> <text x="335" y="742" fill="rgb(0,0,0)" stroke="rgb(0,0,0)">A</text>
<line style="fill:none;stroke-width:1" stroke="rgb(0,0,0)" x1="397" y1="713" x2="427" y2="713"/> <circle style="stroke-width:1" cx="397" cy="713" r="12" fill="rgb(255,255,255)" stroke="rgb(0,0,0)"/> <text x="389" y="721" fill="rgb(0,0,0)" stroke="rgb(0,0,0)">G</text>
<line style="fill:none;stroke-width:1" stroke="rgb(0,0,0)" x1="427" y1="713" x2="440" y2="685"/> <circle style="stroke-width:1" cx="427" cy="713" r="12" fill="rgb(255,255,255)" stroke="rgb(0,0,0)"/> <text x="419" y="721" fill="rgb(0,0,0)" stroke="rgb(0,0,0)">C</text>
<line style="fill:none;stroke-width:1" stroke="rgb(0,0,0)" x1="440" y1="685" x2="489" y2="566"/> <circle style="stroke-width:1" cx="440" cy="685" r="12" fill="rgb(255,255,255)" stroke="rgb(0,0,0)"/> <text x="432" y="693" fill="rgb(0,0,0)" stroke="rgb(0,0,0)">C</text>
<line style="fill:none;stroke-width:1" stroke="rgb(0,0,0)" x1="489" y1="566" x2="499" y2="537"/> <line style="fill:none;stroke-width:1" stroke="rgb(0,0,0)" x1="489" y1="566" x2="384" y2="528"/> <rect x="369" y="516" width="30" height="24" fill="rgb(255,255,255)" stroke="rgb(255,255,255)"/> <text x="369" y="536" fill="rgb(0,0,0)" stroke="rgb(0,0,0)">30</text> <circle style="stroke-width:1" cx="489" cy="566" r="12" fill="rgb(255,255,255)" stroke="rgb(0,0,0)"/> <text x="481" y="574" fill="rgb(0,0,0)" stroke="rgb(0,0,0)">U</text>
<line style="fill:none;stroke-width:1" stroke="rgb(0,0,0)" x1="499" y1="537" x2="509" y2="508"/> <circle style="stroke-width:1" cx="499" cy="537" r="12" fill="rgb(255,255,255)" stroke="rgb(0,0,0)"/> <text x="491" y="545" fill="rgb(0,0,0)" stroke="rgb(0,0,0)">G</text>
<line style="fill:none;stroke-width:1" stroke="rgb(0,0,0)" x1="509" y1="508" x2="519" y2="479"/> <circle style="stroke-width:1" cx="509" cy="508" r="12" fill="rgb(255,255,255)" stroke="rgb(0,0,0)"/> <text x="501" y="516" fill="rgb(0,0,0)" stroke="rgb(0,0,0)">G</text>
<line style="fill:none;stroke-width:1" stroke="rgb(0,0,0)" x1="519" y1="479" x2="529" y2="450"/> <circle style="stroke-width:1" cx="519" cy="479" r="12" fill="rgb(255,255,255)" stroke="rgb(0,0,0)"/> <text x="511" y="487" fill="rgb(0,0,0)" stroke="rgb(0,0,0)">G</text>
<line style="fill:none;stroke-width:1" stroke="rgb(0,0,0)" x1="529" y1="450" x2="516" y2="379"/> <circle style="stroke-width:1" cx="529" cy="450" r="12" fill="rgb(255,255,255)" stroke="rgb(0,0,0)"/> <text x="521" y="458" fill="rgb(0,0,0)" stroke="rgb(0,0,0)">C</text>
<line style="fill:none;stroke-width:1" stroke="rgb(0,0,0)" x1="516" y1="379" x2="571" y2="329"/> <circle style="stroke-width:1" cx="516" cy="379" r="12" fill="rgb(255,255,255)" stroke="rgb(0,0,0)"/> <text x="508" y="387" fill="rgb(0,0,0)" stroke="rgb(0,0,0)">A</text>
<line style="fill:none;stroke-width:1" stroke="rgb(0,0,0)" x1="571" y1="329" x2="580" y2="299"/> <circle style="stroke-width:1" cx="571" cy="329" r="12" fill="rgb(255,255,255)" stroke="rgb(0,0,0)"/> <text x="563" y="337" fill="rgb(0,0,0)" stroke="rgb(0,0,0)">G</text>
<line style="fill:none;stroke-width:1" stroke="rgb(0,0,0)" x1="580" y1="299" x2="607" y2="207"/> <circle style="stroke-width:1" cx="580" cy="299" r="12" fill="rgb(255,255,255)" stroke="rgb(0,0,0)"/> <text x="572" y="307" fill="rgb(0,0,0)" stroke="rgb(0,0,0)">G</text>
<line style="fill:none;stroke-width:1" stroke="rgb(0,0,0)" x1="607" y1="207" x2="615" y2="177"/> <circle style="stroke-width:1" cx="607" cy="207" r="12" fill="rgb(255,255,255)" stroke="rgb(0,0,0)"/> <text x="599" y="215" fill="rgb(0,0,0)" stroke="rgb(0,0,0)">C</text>
<line style="fill:none;stroke-width:1" stroke="rgb(0,0,0)" x1="615" y1="177" x2="623" y2="147"/> <circle style="stroke-width:1" cx="615" cy="177" r="12" fill="rgb(255,255,255)" stroke="rgb(0,0,0)"/> <text x="607" y="185" fill="rgb(0,0,0)" stroke="rgb(0,0,0)">A</text>
<line style="fill:none;stroke-width:1" stroke="rgb(0,0,0)" x1="623" y1="147" x2="631" y2="117"/> <line style="fill:none;stroke-width:1" stroke="rgb(0,0,0)" x1="623" y1="147" x2="516" y2="117"/> <rect x="501" y="105" width="30" height="24" fill="rgb(255,255,255)" stroke="rgb(255,255,255)"/> <text x="501" y="125" fill="rgb(0,0,0)" stroke="rgb(0,0,0)">40</text> <circle style="stroke-width:1" cx="623" cy="147" r="12" fill="rgb(255,255,255)" stroke="rgb(0,0,0)"/> <text x="615" y="155" fill="rgb(0,0,0)" stroke="rgb(0,0,0)">G</text>
<line style="fill:none;stroke-width:1" stroke="rgb(0,0,0)" x1="631" y1="117" x2="624" y2="78"/> <circle style="stroke-width:1" cx="631" cy="117" r="12" fill="rgb(255,255,255)" stroke="rgb(0,0,0)"/> <text x="623" y="125" fill="rgb(0,0,0)" stroke="rgb(0,0,0)">C</text>
<line style="fill:none;stroke-width:1" stroke="rgb(0,0,0)" x1="624" y1="78" x2="643" y2="43"/> <circle style="stroke-width:1" cx="624" cy="78" r="12" fill="rgb(255,255,255)" stroke="rgb(0,0,0)"/> <text x="616" y="86" fill="rgb(0,0,0)" stroke="rgb(0,0,0)">A</text>
<line style="fill:none;stroke-width:1" stroke="rgb(0,0,0)" x1="643" y1="43" x2="682" y2="36"/> <circle style="stroke-width:1" cx="643" cy="43" r="12" fill="rgb(255,255,255)" stroke="rgb(0,0,0)"/> <text x="635" y="51" fill="rgb(0,0,0)" stroke="rgb(0,0,0)">G</text>
<line style="fill:none;stroke-width:1" stroke="rgb(0,0,0)" x1="682" y1="36" x2="712" y2="63"/> <circle style="stroke-width:1" cx="682" cy="36" r="12" fill="rgb(255,255,255)" stroke="rgb(0,0,0)"/> <text x="674" y="44" fill="rgb(0,0,0)" stroke="rgb(0,0,0)">C</text>
<line style="fill:none;stroke-width:1" stroke="rgb(0,0,0)" x1="712" y1="63" x2="710" y2="103"/> <circle style="stroke-width:1" cx="712" cy="63" r="12" fill="rgb(255,255,255)" stroke="rgb(0,0,0)"/> <text x="704" y="71" fill="rgb(0,0,0)" stroke="rgb(0,0,0)">U</text>
<line style="fill:none;stroke-width:1" stroke="rgb(0,0,0)" x1="710" y1="103" x2="684" y2="132"/> <circle style="stroke-width:1" cx="710" cy="103" r="12" fill="rgb(255,255,255)" stroke="rgb(0,0,0)"/> <text x="702" y="111" fill="rgb(0,0,0)" stroke="rgb(0,0,0)">G</text>
<line style="fill:none;stroke-width:1" stroke="rgb(0,0,0)" x1="684" y1="132" x2="676" y2="162"/> <circle style="stroke-width:1" cx="684" cy="132" r="12" fill="rgb(255,255,255)" stroke="rgb(0,0,0)"/> <text x="676" y="140" fill="rgb(0,0,0)" stroke="rgb(0,0,0)">G</text>
<line style="fill:none;stroke-width:1" stroke="rgb(0,0,0)" x1="676" y1="162" x2="668" y2="192"/> <circle style="stroke-width:1" cx="676" cy="162" r="12" fill="rgb(255,255,255)" stroke="rgb(0,0,0)"/> <text x="668" y="170" fill="rgb(0,0,0)" stroke="rgb(0,0,0)">C</text>
<line style="fill:none;stroke-width:1" stroke="rgb(0,0,0)" x1="668" y1="192" x2="660" y2="222"/> <circle style="stroke-width:1" cx="668" cy="192" r="12" fill="rgb(255,255,255)" stroke="rgb(0,0,0)"/> <text x="660" y="200" fill="rgb(0,0,0)" stroke="rgb(0,0,0)">U</text>
<line style="fill:none;stroke-width:1" stroke="rgb(0,0,0)" x1="660" y1="222" x2="667" y2="276"/> <line style="fill:none;stroke-width:1" stroke="rgb(0,0,0)" x1="660" y1="222" x2="767" y2="252"/> <rect x="752" y="240" width="30" height="24" fill="rgb(255,255,255)" stroke="rgb(255,255,255)"/> <text x="752" y="260" fill="rgb(0,0,0)" stroke="rgb(0,0,0)">50</text> <circle style="stroke-width:1" cx="660" cy="222" r="12" fill="rgb(255,255,255)" stroke="rgb(0,0,0)"/> <text x="652" y="230" fill="rgb(0,0,0)" stroke="rgb(0,0,0)">G</text>
<line style="fill:none;stroke-width:1" stroke="rgb(0,0,0)" x1="667" y1="276" x2="632" y2="316"/> <circle style="stroke-width:1" cx="667" cy="276" r="12" fill="rgb(255,255,255)" stroke="rgb(0,0,0)"/> <text x="659" y="284" fill="rgb(0,0,0)" stroke="rgb(0,0,0)">A</text>
<line style="fill:none;stroke-width:1" stroke="rgb(0,0,0)" x1="632" y1="316" x2="623" y2="346"/> <circle style="stroke-width:1" cx="632" cy="316" r="12" fill="rgb(255,255,255)" stroke="rgb(0,0,0)"/> <text x="624" y="324" fill="rgb(0,0,0)" stroke="rgb(0,0,0)">C</text>
<line style="fill:none;stroke-width:1" stroke="rgb(0,0,0)" x1="623" y1="346" x2="640" y2="387"/> <circle style="stroke-width:1" cx="623" cy="346" r="12" fill="rgb(255,255,255)" stroke="rgb(0,0,0)"/> <text x="615" y="354" fill="rgb(0,0,0)" stroke="rgb(0,0,0)">C</text>
<line style="fill:none;stroke-width:1" stroke="rgb(0,0,0)" x1="640" y1="387" x2="618" y2="449"/> <circle style="stroke-width:1" cx="640" cy="387" r="12" fill="rgb(255,255,255)" stroke="rgb(0,0,0)"/> <text x="632" y="395" fill="rgb(0,0,0)" stroke="rgb(0,0,0)">A</text>
<line style="fill:none;stroke-width:1" stroke="rgb(0,0,0)" x1="618" y1="449" x2="581" y2="469"/> <circle style="stroke-width:1" cx="618" cy="449" r="12" fill="rgb(255,255,255)" stroke="rgb(0,0,0)"/> <text x="610" y="457" fill="rgb(0,0,0)" stroke="rgb(0,0,0)">A</text>
<line style="fill:none;stroke-width:1" stroke="rgb(0,0,0)" x1="581" y1="469" x2="571" y2="498"/> <circle style="stroke-width:1" cx="581" cy="469" r="12" fill="rgb(255,255,255)" stroke="rgb(0,0,0)"/> <text x="573" y="477" fill="rgb(0,0,0)" stroke="rgb(0,0,0)">G</text>
<line style="fill:none;stroke-width:1" stroke="rgb(0,0,0)" x1="571" y1="498" x2="561" y2="527"/> <circle style="stroke-width:1" cx="571" cy="498" r="12" fill="rgb(255,255,255)" stroke="rgb(0,0,0)"/> <text x="563" y="506" fill="rgb(0,0,0)" stroke="rgb(0,0,0)">U</text>
<line style="fill:none;stroke-width:1" stroke="rgb(0,0,0)" x1="561" y1="527" x2="551" y2="556"/> <circle style="stroke-width:1" cx="561" cy="527" r="12" fill="rgb(255,255,255)" stroke="rgb(0,0,0)"/> <text x="553" y="535" fill="rgb(0,0,0)" stroke="rgb(0,0,0)">C</text>
<line style="fill:none;stroke-width:1" stroke="rgb(0,0,0)" x1="551" y1="556" x2="541" y2="585"/> <circle style="stroke-width:1" cx="551" cy="556" r="12" fill="rgb(255,255,255)" stroke="rgb(0,0,0)"/> <text x="543" y="564" fill="rgb(0,0,0)" stroke="rgb(0,0,0)">C</text>
<line style="fill:none;stroke-width:1" stroke="rgb(0,0,0)" x1="541" y1="585" x2="556" y2="629"/> <line style="fill:none;stroke-width:1" stroke="rgb(0,0,0)" x1="541" y1="585" x2="646" y2="623"/> <rect x="631" y="611" width="30" height="24" fill="rgb(255,255,255)" stroke="rgb(255,255,255)"/> <text x="631" y="631" fill="rgb(0,0,0)" stroke="rgb(0,0,0)">60</text> <circle style="stroke-width:1" cx="541" cy="585" r="12" fill="rgb(255,255,255)" stroke="rgb(0,0,0)"/> <text x="533" y="593" fill="rgb(0,0,0)" stroke="rgb(0,0,0)">A</text>
<line style="fill:none;stroke-width:1" stroke="rgb(0,0,0)" x1="556" y1="629" x2="531" y2="690"/> <circle style="stroke-width:1" cx="556" cy="629" r="12" fill="rgb(255,255,255)" stroke="rgb(0,0,0)"/> <text x="548" y="637" fill="rgb(0,0,0)" stroke="rgb(0,0,0)">C</text>
<line style="fill:none;stroke-width:1" stroke="rgb(0,0,0)" x1="531" y1="690" x2="490" y2="708"/> <circle style="stroke-width:1" cx="531" cy="690" r="12" fill="rgb(255,255,255)" stroke="rgb(0,0,0)"/> <text x="523" y="698" fill="rgb(0,0,0)" stroke="rgb(0,0,0)">U</text>
<line style="fill:none;stroke-width:1" stroke="rgb(0,0,0)" x1="490" y1="708" x2="477" y2="736"/> <circle style="stroke-width:1" cx="490" cy="708" r="12" fill="rgb(255,255,255)" stroke="rgb(0,0,0)"/> <text x="482" y="716" fill="rgb(0,0,0)" stroke="rgb(0,0,0)">G</text>
<line style="fill:none;stroke-width:1" stroke="rgb(0,0,0)" x1="477" y1="736" x2="509" y2="781"/> <circle style="stroke-width:1" cx="477" cy="736" r="12" fill="rgb(255,255,255)" stroke="rgb(0,0,0)"/> <text x="469" y="744" fill="rgb(0,0,0)" stroke="rgb(0,0,0)">G</text>
<line style="fill:none;stroke-width:1" stroke="rgb(0,0,0)" x1="509" y1="781" x2="508" y2="862"/> <circle style="stroke-width:1" cx="509" cy="781" r="12" fill="rgb(255,255,255)" stroke="rgb(0,0,0)"/> <text x="501" y="789" fill="rgb(0,0,0)" stroke="rgb(0,0,0)">A</text>
<line style="fill:none;stroke-width:1" stroke="rgb(0,0,0)" x1="508" y1="862" x2="451" y2="920"/> <circle style="stroke-width:1" cx="508" cy="862" r="12" fill="rgb(255,255,255)" stroke="rgb(0,0,0)"/> <text x="500" y="870" fill="rgb(0,0,0)" stroke="rgb(0,0,0)">A</text>
<line style="fill:none;stroke-width:1" stroke="rgb(0,0,0)" x1="451" y1="920" x2="397" y2="931"/> <circle style="stroke-width:1" cx="451" cy="920" r="12" fill="rgb(255,255,255)" stroke="rgb(0,0,0)"/> <text x="443" y="928" fill="rgb(0,0,0)" stroke="rgb(0,0,0)">G</text>
<line style="fill:none;stroke-width:1" stroke="rgb(0,0,0)" x1="397" y1="931" x2="387" y2="960"/> <circle style="stroke-width:1" cx="397" cy="931" r="12" fill="rgb(255,255,255)" stroke="rgb(0,0,0)"/> <text x="389" y="939" fill="rgb(0,0,0)" stroke="rgb(0,0,0)">A</text>
<line style="fill:none;stroke-width:1" stroke="rgb(0,0,0)" x1="387" y1="960" x2="377" y2="989"/> <circle style="stroke-width:1" cx="387" cy="960" r="12" fill="rgb(255,255,255)" stroke="rgb(0,0,0)"/> <text x="379" y="968" fill="rgb(0,0,0)" stroke="rgb(0,0,0)">G</text>
<line style="fill:none;stroke-width:1" stroke="rgb(0,0,0)" x1="377" y1="989" x2="367" y2="1018"/> <line style="fill:none;stroke-width:1" stroke="rgb(0,0,0)" x1="377" y1="989" x2="482" y2="1027"/> <rect x="467" y="1015" width="30" height="24" fill="rgb(255,255,255)" stroke="rgb(255,255,255)"/> <text x="467" y="1035" fill="rgb(0,0,0)" stroke="rgb(0,0,0)">70</text> <circle style="stroke-width:1" cx="377" cy="989" r="12" fill="rgb(255,255,255)" stroke="rgb(0,0,0)"/> <text x="369" y="997" fill="rgb(0,0,0)" stroke="rgb(0,0,0)">A</text>
<line style="fill:none;stroke-width:1" stroke="rgb(0,0,0)" x1="367" y1="1018" x2="357" y2="1047"/> <circle style="stroke-width:1" cx="367" cy="1018" r="12" fill="rgb(255,255,255)" stroke="rgb(0,0,0)"/> <text x="359" y="1026" fill="rgb(0,0,0)" stroke="rgb(0,0,0)">A</text>
<line style="fill:none;stroke-width:1" stroke="rgb(0,0,0)" x1="357" y1="1047" x2="320" y2="1160"/> <circle style="stroke-width:1" cx="357" cy="1047" r="12" fill="rgb(255,255,255)" stroke="rgb(0,0,0)"/> <text x="349" y="1055" fill="rgb(0,0,0)" stroke="rgb(0,0,0)">G</text>
<line style="fill:none;stroke-width:1" stroke="rgb(0,0,0)" x1="320" y1="1160" x2="312" y2="1190"/> <circle style="stroke-width:1" cx="320" cy="1160" r="12" fill="rgb(255,255,255)" stroke="rgb(0,0,0)"/> <text x="312" y="1168" fill="rgb(0,0,0)" stroke="rgb(0,0,0)">G</text>
<line style="fill:none;stroke-width:1" stroke="rgb(0,0,0)" x1="312" y1="1190" x2="304" y2="1220"/> <circle style="stroke-width:1" cx="312" cy="1190" r="12" fill="rgb(255,255,255)" stroke="rgb(0,0,0)"/> <text x="304" y="1198" fill="rgb(0,0,0)" stroke="rgb(0,0,0)">C</text>
<line style="fill:none;stroke-width:1" stroke="rgb(0,0,0)" x1="304" y1="1220" x2="296" y2="1250"/> <circle style="stroke-width:1" cx="304" cy="1220" r="12" fill="rgb(255,255,255)" stroke="rgb(0,0,0)"/> <text x="296" y="1228" fill="rgb(0,0,0)" stroke="rgb(0,0,0)">U</text>
<line style="fill:none;stroke-width:1" stroke="rgb(0,0,0)" x1="296" y1="1250" x2="303" y2="1301"/> <circle style="stroke-width:1" cx="296" cy="1250" r="12" fill="rgb(255,255,255)" stroke="rgb(0,0,0)"/> <text x="288" y="1258" fill="rgb(0,0,0)" stroke="rgb(0,0,0)">U</text>
<line style="fill:none;stroke-width:1" stroke="rgb(0,0,0)" x1="303" y1="1301" x2="271" y2="1341"/> <circle style="stroke-width:1" cx="303" cy="1301" r="12" fill="rgb(255,255,255)" stroke="rgb(0,0,0)"/> <text x="295" y="1309" fill="rgb(0,0,0)" stroke="rgb(0,0,0)">G</text>
<line style="fill:none;stroke-width:1" stroke="rgb(0,0,0)" x1="271" y1="1341" x2="263" y2="1371"/> <circle style="stroke-width:1" cx="271" cy="1341" r="12" fill="rgb(255,255,255)" stroke="rgb(0,0,0)"/> <text x="263" y="1349" fill="rgb(0,0,0)" stroke="rgb(0,0,0)">U</text>
<line style="fill:none;stroke-width:1" stroke="rgb(0,0,0)" x1="263" y1="1371" x2="255" y2="1401"/> <circle style="stroke-width:1" cx="263" cy="1371" r="12" fill="rgb(255,255,255)" stroke="rgb(0,0,0)"/> <text x="255" y="1379" fill="rgb(0,0,0)" stroke="rgb(0,0,0)">G</text>
<line style="fill:none;stroke-width:1" stroke="rgb(0,0,0)" x1="255" y1="1401" x2="362" y2="1431"/> <rect x="347" y="1419" width="30" height="24" fill="rgb(255,255,255)" stroke="rgb(255,255,255)"/> <text x="347" y="1439" fill="rgb(0,0,0)" stroke="rgb(0,0,0)">80</text> <circle style="stroke-width:1" cx="255" cy="1401" r="12" fill="rgb(255,255,255)" stroke="rgb(0,0,0)"/> <text x="247" y="1409" fill="rgb(0,0,0)" stroke="rgb(0,0,0)">C</text>
</g>
<g font-size="16">
<text x="36" y="892" fill="rgb(0,0,0)" stroke="rgb(0,0,0)">ENERGY = -28.1  ENST00000698539.1</text>
</g>
</svg>
