<?xml version="1.0" encoding="UTF-8" standalone="no"?>
<!DOCTYPE svg PUBLIC "-//W3C//DTD SVG 1.1//EN" "http://www.w3.org/Graphics/SVG/1.1/DTD/svg11.dtd">
<svg xmlns="http://www.w3.org/2000/svg" xmlns:xlink="http://www.w3.org/1999/xlink" xml:space="preserve" font-family="monospace" font-size="24" fill="rgb(255,255,255)" stroke="rgb(0,0,0)" viewBox="0 0 790 905">
<g transform="scale(0.58432)">
<path style="fill:none;stroke-width:3" stroke="rgb(0,0,0)" d="M477,449 Q491,425.5 505,402"/>
<path style="fill:none;stroke-width:3" stroke="rgb(0,0,0)" d="M450,433 Q464,409.5 478,386"/>
<path style="fill:none;stroke-width:3" stroke="rgb(0,0,0)" d="M423,417 Q437,393.5 451,370"/>
<path style="fill:none;stroke-width:3" stroke="rgb(0,0,0)" d="M396,401 Q410,377.5 424,354"/>
<path style="fill:none;stroke-width:3" stroke="rgb(0,0,0)" d="M369,385 Q383,361.5 397,338"/>
<path style="fill:none;stroke-width:3" stroke="rgb(0,0,0)" d="M342,369 Q356,345.5 370,322"/>
<path style="fill:none;stroke-width:3" stroke="rgb(0,0,0)" d="M315,353 Q329,329.5 343,306"/>
<path style="fill:none;stroke-width:3" stroke="rgb(0,0,0)" d="M207,284 Q222,261 237,238"/>
<path style="fill:none;stroke-width:3" stroke="rgb(0,0,0)" d="M181,267 Q196,244 211,221"/>
<path style="fill:none;stroke-width:3" stroke="rgb(0,0,0)" d="M155,250 Q170,227 185,204"/>
<path style="fill:none;stroke-width:3" stroke="rgb(0,0,0)" d="M129,233 Q144,210 159,187"/>
<path style="fill:none;stroke-width:3" stroke="rgb(0,0,0)" d="M103,216 Q118,193 133,170"/>
<path style="fill:none;stroke-width:3" stroke="rgb(0,0,0)" d="M943,832 Q923,850.5 903,869"/>
<path style="fill:none;stroke-width:3" stroke="rgb(0,0,0)" d="M964,855 Q944,873.5 924,892"/>
<path style="fill:none;stroke-width:3" stroke="rgb(0,0,0)" d="M985,878 Q965,896.5 945,915"/>
<path style="fill:none;stroke-width:3" stroke="rgb(0,0,0)" d="M1073,970 Q1053.5,989.5 1034,1009"/>
<path style="fill:none;stroke-width:3" stroke="rgb(0,0,0)" d="M1095,992 Q1075.5,1011.5 1056,1031"/>
<path style="fill:none;stroke-width:3" stroke="rgb(0,0,0)" d="M1117,1014 Q1097.5,1033.5 1078,1053"/>
<line style="fill:none;stroke-width:1" stroke="rgb(0,0,0)" x1="639" y1="897" x2="594" y2="878"/> <circle style="stroke-width:1" cx="639" cy="897" r="12" fill="rgb(255,255,255)" stroke="rgb(0,0,0)"/> <text x="631" y="905" fill="rgb(0,0,0)" stroke="rgb(0,0,0)">C</text>
<line style="fill:none;stroke-width:1" stroke="rgb(0,0,0)" x1="594" y1="878" x2="552" y2="851"/> <circle style="stroke-width:1" cx="594" cy="878" r="12" fill="rgb(255,255,255)" stroke="rgb(0,0,0)"/> <text x="586" y="886" fill="rgb(0,0,0)" stroke="rgb(0,0,0)">U</text>
<line style="fill:none;stroke-width:1" stroke="rgb(0,0,0)" x1="552" y1="851" x2="515" y2="818"/> <circle style="stroke-width:1" cx="552" cy="851" r="12" fill="rgb(255,255,255)" stroke="rgb(0,0,0)"/> <text x="544" y="859" fill="rgb(0,0,0)" stroke="rgb(0,0,0)">C</text>
<line style="fill:none;stroke-width:1" stroke="rgb(0,0,0)" x1="515" y1="818" x2="484" y2="779"/> <circle style="stroke-width:1" cx="515" cy="818" r="12" fill="rgb(255,255,255)" stroke="rgb(0,0,0)"/> <text x="507" y="826" fill="rgb(0,0,0)" stroke="rgb(0,0,0)">A</text>
<line style="fill:none;stroke-width:1" stroke="rgb(0,0,0)" x1="484" y1="779" x2="460" y2="735"/> <circle style="stroke-width:1" cx="484" cy="779" r="12" fill="rgb(255,255,255)" stroke="rgb(0,0,0)"/> <text x="476" y="787" fill="rgb(0,0,0)" stroke="rgb(0,0,0)">U</text>
<line style="fill:none;stroke-width:1" stroke="rgb(0,0,0)" x1="460" y1="735" x2="443" y2="689"/> <circle style="stroke-width:1" cx="460" cy="735" r="12" fill="rgb(255,255,255)" stroke="rgb(0,0,0)"/> <text x="452" y="743" fill="rgb(0,0,0)" stroke="rgb(0,0,0)">U</text>
<line style="fill:none;stroke-width:1" stroke="rgb(0,0,0)" x1="443" y1="689" x2="434" y2="640"/> <circle style="stroke-width:1" cx="443" cy="689" r="12" fill="rgb(255,255,255)" stroke="rgb(0,0,0)"/> <text x="435" y="697" fill="rgb(0,0,0)" stroke="rgb(0,0,0)">G</text>
<line style="fill:none;stroke-width:1" stroke="rgb(0,0,0)" x1="434" y1="640" x2="433" y2="590"/> <circle style="stroke-width:1" cx="434" cy="640" r="12" fill="rgb(255,255,255)" stroke="rgb(0,0,0)"/> <text x="426" y="648" fill="rgb(0,0,0)" stroke="rgb(0,0,0)">C</text>
<line style="fill:none;stroke-width:1" stroke="rgb(0,0,0)" x1="433" y1="590" x2="440" y2="541"/> <circle style="stroke-width:1" cx="433" cy="590" r="12" fill="rgb(255,255,255)" stroke="rgb(0,0,0)"/> <text x="425" y="598" fill="rgb(0,0,0)" stroke="rgb(0,0,0)">C</text>
<line style="fill:none;stroke-width:1" stroke="rgb(0,0,0)" x1="440" y1="541" x2="455" y2="493"/> <line style="fill:none;stroke-width:1" stroke="rgb(0,0,0)" x1="440" y1="541" x2="331" y2="517"/> <rect x="316" y="505" width="30" height="24" fill="rgb(255,255,255)" stroke="rgb(255,255,255)"/> <text x="316" y="525" fill="rgb(0,0,0)" stroke="rgb(0,0,0)">10</text> <circle style="stroke-width:1" cx="440" cy="541" r="12" fill="rgb(255,255,255)" stroke="rgb(0,0,0)"/> <text x="432" y="549" fill="rgb(0,0,0)" stroke="rgb(0,0,0)">C</text>
<line style="fill:none;stroke-width:1" stroke="rgb(0,0,0)" x1="455" y1="493" x2="477" y2="449"/> <circle style="stroke-width:1" cx="455" cy="493" r="12" fill="rgb(255,255,255)" stroke="rgb(0,0,0)"/> <text x="447" y="501" fill="rgb(0,0,0)" stroke="rgb(0,0,0)">A</text>
<line style="fill:none;stroke-width:1" stroke="rgb(0,0,0)" x1="477" y1="449" x2="450" y2="433"/> <circle style="stroke-width:1" cx="477" cy="449" r="12" fill="rgb(255,255,255)" stroke="rgb(0,0,0)"/> <text x="469" y="457" fill="rgb(0,0,0)" stroke="rgb(0,0,0)">G</text>
<line style="fill:none;stroke-width:1" stroke="rgb(0,0,0)" x1="450" y1="433" x2="423" y2="417"/> <circle style="stroke-width:1" cx="450" cy="433" r="12" fill="rgb(255,255,255)" stroke="rgb(0,0,0)"/> <text x="442" y="441" fill="rgb(0,0,0)" stroke="rgb(0,0,0)">C</text>
<line style="fill:none;stroke-width:1" stroke="rgb(0,0,0)" x1="423" y1="417" x2="396" y2="401"/> <circle style="stroke-width:1" cx="423" cy="417" r="12" fill="rgb(255,255,255)" stroke="rgb(0,0,0)"/> <text x="415" y="425" fill="rgb(0,0,0)" stroke="rgb(0,0,0)">G</text>
<line style="fill:none;stroke-width:1" stroke="rgb(0,0,0)" x1="396" y1="401" x2="369" y2="385"/> <circle style="stroke-width:1" cx="396" cy="401" r="12" fill="rgb(255,255,255)" stroke="rgb(0,0,0)"/> <text x="388" y="409" fill="rgb(0,0,0)" stroke="rgb(0,0,0)">G</text>
<line style="fill:none;stroke-width:1" stroke="rgb(0,0,0)" x1="369" y1="385" x2="342" y2="369"/> <circle style="stroke-width:1" cx="369" cy="385" r="12" fill="rgb(255,255,255)" stroke="rgb(0,0,0)"/> <text x="361" y="393" fill="rgb(0,0,0)" stroke="rgb(0,0,0)">A</text>
<line style="fill:none;stroke-width:1" stroke="rgb(0,0,0)" x1="342" y1="369" x2="315" y2="353"/> <circle style="stroke-width:1" cx="342" cy="369" r="12" fill="rgb(255,255,255)" stroke="rgb(0,0,0)"/> <text x="334" y="377" fill="rgb(0,0,0)" stroke="rgb(0,0,0)">C</text>
<line style="fill:none;stroke-width:1" stroke="rgb(0,0,0)" x1="315" y1="353" x2="273" y2="360"/> <circle style="stroke-width:1" cx="315" cy="353" r="12" fill="rgb(255,255,255)" stroke="rgb(0,0,0)"/> <text x="307" y="361" fill="rgb(0,0,0)" stroke="rgb(0,0,0)">C</text>
<line style="fill:none;stroke-width:1" stroke="rgb(0,0,0)" x1="273" y1="360" x2="218" y2="325"/> <circle style="stroke-width:1" cx="273" cy="360" r="12" fill="rgb(255,255,255)" stroke="rgb(0,0,0)"/> <text x="265" y="368" fill="rgb(0,0,0)" stroke="rgb(0,0,0)">C</text>
<line style="fill:none;stroke-width:1" stroke="rgb(0,0,0)" x1="218" y1="325" x2="207" y2="284"/> <line style="fill:none;stroke-width:1" stroke="rgb(0,0,0)" x1="218" y1="325" x2="119" y2="375"/> <rect x="104" y="363" width="30" height="24" fill="rgb(255,255,255)" stroke="rgb(255,255,255)"/> <text x="104" y="383" fill="rgb(0,0,0)" stroke="rgb(0,0,0)">20</text> <circle style="stroke-width:1" cx="218" cy="325" r="12" fill="rgb(255,255,255)" stroke="rgb(0,0,0)"/> <text x="210" y="333" fill="rgb(0,0,0)" stroke="rgb(0,0,0)">C</text>
<line style="fill:none;stroke-width:1" stroke="rgb(0,0,0)" x1="207" y1="284" x2="181" y2="267"/> <circle style="stroke-width:1" cx="207" cy="284" r="12" fill="rgb(255,255,255)" stroke="rgb(0,0,0)"/> <text x="199" y="292" fill="rgb(0,0,0)" stroke="rgb(0,0,0)">A</text>
<line style="fill:none;stroke-width:1" stroke="rgb(0,0,0)" x1="181" y1="267" x2="155" y2="250"/> <circle style="stroke-width:1" cx="181" cy="267" r="12" fill="rgb(255,255,255)" stroke="rgb(0,0,0)"/> <text x="173" y="275" fill="rgb(0,0,0)" stroke="rgb(0,0,0)">G</text>
<line style="fill:none;stroke-width:1" stroke="rgb(0,0,0)" x1="155" y1="250" x2="129" y2="233"/> <circle style="stroke-width:1" cx="155" cy="250" r="12" fill="rgb(255,255,255)" stroke="rgb(0,0,0)"/> <text x="147" y="258" fill="rgb(0,0,0)" stroke="rgb(0,0,0)">C</text>
<line style="fill:none;stroke-width:1" stroke="rgb(0,0,0)" x1="129" y1="233" x2="103" y2="216"/> <circle style="stroke-width:1" cx="129" cy="233" r="12" fill="rgb(255,255,255)" stroke="rgb(0,0,0)"/> <text x="121" y="241" fill="rgb(0,0,0)" stroke="rgb(0,0,0)">C</text>
<line style="fill:none;stroke-width:1" stroke="rgb(0,0,0)" x1="103" y1="216" x2="64" y2="211"/> <circle style="stroke-width:1" cx="103" cy="216" r="12" fill="rgb(255,255,255)" stroke="rgb(0,0,0)"/> <text x="95" y="224" fill="rgb(0,0,0)" stroke="rgb(0,0,0)">U</text>
<line style="fill:none;stroke-width:1" stroke="rgb(0,0,0)" x1="64" y1="211" x2="36" y2="182"/> <circle style="stroke-width:1" cx="64" cy="211" r="12" fill="rgb(255,255,255)" stroke="rgb(0,0,0)"/> <text x="56" y="219" fill="rgb(0,0,0)" stroke="rgb(0,0,0)">C</text>
<line style="fill:none;stroke-width:1" stroke="rgb(0,0,0)" x1="36" y1="182" x2="42" y2="142"/> <circle style="stroke-width:1" cx="36" cy="182" r="12" fill="rgb(255,255,255)" stroke="rgb(0,0,0)"/> <text x="28" y="190" fill="rgb(0,0,0)" stroke="rgb(0,0,0)">U</text>
<line style="fill:none;stroke-width:1" stroke="rgb(0,0,0)" x1="42" y1="142" x2="77" y2="122"/> <circle style="stroke-width:1" cx="42" cy="142" r="12" fill="rgb(255,255,255)" stroke="rgb(0,0,0)"/> <text x="34" y="150" fill="rgb(0,0,0)" stroke="rgb(0,0,0)">G</text>
<line style="fill:none;stroke-width:1" stroke="rgb(0,0,0)" x1="77" y1="122" x2="114" y2="136"/> <circle style="stroke-width:1" cx="77" cy="122" r="12" fill="rgb(255,255,255)" stroke="rgb(0,0,0)"/> <text x="69" y="130" fill="rgb(0,0,0)" stroke="rgb(0,0,0)">C</text>
<line style="fill:none;stroke-width:1" stroke="rgb(0,0,0)" x1="114" y1="136" x2="133" y2="170"/> <line style="fill:none;stroke-width:1" stroke="rgb(0,0,0)" x1="114" y1="136" x2="195" y2="60"/> <rect x="180" y="48" width="30" height="24" fill="rgb(255,255,255)" stroke="rgb(255,255,255)"/> <text x="180" y="68" fill="rgb(0,0,0)" stroke="rgb(0,0,0)">30</text> <circle style="stroke-width:1" cx="114" cy="136" r="12" fill="rgb(255,255,255)" stroke="rgb(0,0,0)"/> <text x="106" y="144" fill="rgb(0,0,0)" stroke="rgb(0,0,0)">C</text>
<line style="fill:none;stroke-width:1" stroke="rgb(0,0,0)" x1="133" y1="170" x2="159" y2="187"/> <circle style="stroke-width:1" cx="133" cy="170" r="12" fill="rgb(255,255,255)" stroke="rgb(0,0,0)"/> <text x="125" y="178" fill="rgb(0,0,0)" stroke="rgb(0,0,0)">A</text>
<line style="fill:none;stroke-width:1" stroke="rgb(0,0,0)" x1="159" y1="187" x2="185" y2="204"/> <circle style="stroke-width:1" cx="159" cy="187" r="12" fill="rgb(255,255,255)" stroke="rgb(0,0,0)"/> <text x="151" y="195" fill="rgb(0,0,0)" stroke="rgb(0,0,0)">G</text>
<line style="fill:none;stroke-width:1" stroke="rgb(0,0,0)" x1="185" y1="204" x2="211" y2="221"/> <circle style="stroke-width:1" cx="185" cy="204" r="12" fill="rgb(255,255,255)" stroke="rgb(0,0,0)"/> <text x="177" y="212" fill="rgb(0,0,0)" stroke="rgb(0,0,0)">G</text>
<line style="fill:none;stroke-width:1" stroke="rgb(0,0,0)" x1="211" y1="221" x2="237" y2="238"/> <circle style="stroke-width:1" cx="211" cy="221" r="12" fill="rgb(255,255,255)" stroke="rgb(0,0,0)"/> <text x="203" y="229" fill="rgb(0,0,0)" stroke="rgb(0,0,0)">U</text>
<line style="fill:none;stroke-width:1" stroke="rgb(0,0,0)" x1="237" y1="238" x2="310" y2="242"/> <circle style="stroke-width:1" cx="237" cy="238" r="12" fill="rgb(255,255,255)" stroke="rgb(0,0,0)"/> <text x="229" y="246" fill="rgb(0,0,0)" stroke="rgb(0,0,0)">U</text>
<line style="fill:none;stroke-width:1" stroke="rgb(0,0,0)" x1="310" y1="242" x2="343" y2="306"/> <circle style="stroke-width:1" cx="310" cy="242" r="12" fill="rgb(255,255,255)" stroke="rgb(0,0,0)"/> <text x="302" y="250" fill="rgb(0,0,0)" stroke="rgb(0,0,0)">C</text>
<line style="fill:none;stroke-width:1" stroke="rgb(0,0,0)" x1="343" y1="306" x2="370" y2="322"/> <circle style="stroke-width:1" cx="343" cy="306" r="12" fill="rgb(255,255,255)" stroke="rgb(0,0,0)"/> <text x="335" y="314" fill="rgb(0,0,0)" stroke="rgb(0,0,0)">G</text>
<line style="fill:none;stroke-width:1" stroke="rgb(0,0,0)" x1="370" y1="322" x2="397" y2="338"/> <circle style="stroke-width:1" cx="370" cy="322" r="12" fill="rgb(255,255,255)" stroke="rgb(0,0,0)"/> <text x="362" y="330" fill="rgb(0,0,0)" stroke="rgb(0,0,0)">G</text>
<line style="fill:none;stroke-width:1" stroke="rgb(0,0,0)" x1="397" y1="338" x2="424" y2="354"/> <circle style="stroke-width:1" cx="397" cy="338" r="12" fill="rgb(255,255,255)" stroke="rgb(0,0,0)"/> <text x="389" y="346" fill="rgb(0,0,0)" stroke="rgb(0,0,0)">U</text>
<line style="fill:none;stroke-width:1" stroke="rgb(0,0,0)" x1="424" y1="354" x2="451" y2="370"/> <line style="fill:none;stroke-width:1" stroke="rgb(0,0,0)" x1="424" y1="354" x2="482" y2="259"/> <rect x="467" y="247" width="30" height="24" fill="rgb(255,255,255)" stroke="rgb(255,255,255)"/> <text x="467" y="267" fill="rgb(0,0,0)" stroke="rgb(0,0,0)">40</text> <circle style="stroke-width:1" cx="424" cy="354" r="12" fill="rgb(255,255,255)" stroke="rgb(0,0,0)"/> <text x="416" y="362" fill="rgb(0,0,0)" stroke="rgb(0,0,0)">C</text>
<line style="fill:none;stroke-width:1" stroke="rgb(0,0,0)" x1="451" y1="370" x2="478" y2="386"/> <circle style="stroke-width:1" cx="451" cy="370" r="12" fill="rgb(255,255,255)" stroke="rgb(0,0,0)"/> <text x="443" y="378" fill="rgb(0,0,0)" stroke="rgb(0,0,0)">C</text>
<line style="fill:none;stroke-width:1" stroke="rgb(0,0,0)" x1="478" y1="386" x2="505" y2="402"/> <circle style="stroke-width:1" cx="478" cy="386" r="12" fill="rgb(255,255,255)" stroke="rgb(0,0,0)"/> <text x="470" y="394" fill="rgb(0,0,0)" stroke="rgb(0,0,0)">G</text>
<line style="fill:none;stroke-width:1" stroke="rgb(0,0,0)" x1="505" y1="402" x2="546" y2="371"/> <circle style="stroke-width:1" cx="505" cy="402" r="12" fill="rgb(255,255,255)" stroke="rgb(0,0,0)"/> <text x="497" y="410" fill="rgb(0,0,0)" stroke="rgb(0,0,0)">C</text>
<line style="fill:none;stroke-width:1" stroke="rgb(0,0,0)" x1="546" y1="371" x2="589" y2="342"/> <circle style="stroke-width:1" cx="546" cy="371" r="12" fill="rgb(255,255,255)" stroke="rgb(0,0,0)"/> <text x="538" y="379" fill="rgb(0,0,0)" stroke="rgb(0,0,0)">C</text>
<line style="fill:none;stroke-width:1" stroke="rgb(0,0,0)" x1="589" y1="342" x2="636" y2="321"/> <circle style="stroke-width:1" cx="589" cy="342" r="12" fill="rgb(255,255,255)" stroke="rgb(0,0,0)"/> <text x="581" y="350" fill="rgb(0,0,0)" stroke="rgb(0,0,0)">A</text>
<line style="fill:none;stroke-width:1" stroke="rgb(0,0,0)" x1="636" y1="321" x2="687" y2="308"/> <circle style="stroke-width:1" cx="636" cy="321" r="12" fill="rgb(255,255,255)" stroke="rgb(0,0,0)"/> <text x="628" y="329" fill="rgb(0,0,0)" stroke="rgb(0,0,0)">U</text>
<line style="fill:none;stroke-width:1" stroke="rgb(0,0,0)" x1="687" y1="308" x2="737" y2="303"/> <circle style="stroke-width:1" cx="687" cy="308" r="12" fill="rgb(255,255,255)" stroke="rgb(0,0,0)"/> <text x="679" y="316" fill="rgb(0,0,0)" stroke="rgb(0,0,0)">C</text>
<line style="fill:none;stroke-width:1" stroke="rgb(0,0,0)" x1="737" y1="303" x2="789" y2="308"/> <circle style="stroke-width:1" cx="737" cy="303" r="12" fill="rgb(255,255,255)" stroke="rgb(0,0,0)"/> <text x="729" y="311" fill="rgb(0,0,0)" stroke="rgb(0,0,0)">C</text>
<line style="fill:none;stroke-width:1" stroke="rgb(0,0,0)" x1="789" y1="308" x2="840" y2="321"/> <circle style="stroke-width:1" cx="789" cy="308" r="12" fill="rgb(255,255,255)" stroke="rgb(0,0,0)"/> <text x="781" y="316" fill="rgb(0,0,0)" stroke="rgb(0,0,0)">U</text>
<line style="fill:none;stroke-width:1" stroke="rgb(0,0,0)" x1="840" y1="321" x2="887" y2="343"/> <line style="fill:none;stroke-width:1" stroke="rgb(0,0,0)" x1="840" y1="321" x2="877" y2="216"/> <rect x="862" y="204" width="30" height="24" fill="rgb(255,255,255)" stroke="rgb(255,255,255)"/> <text x="862" y="224" fill="rgb(0,0,0)" stroke="rgb(0,0,0)">50</text> <circle style="stroke-width:1" cx="840" cy="321" r="12" fill="rgb(255,255,255)" stroke="rgb(0,0,0)"/> <text x="832" y="329" fill="rgb(0,0,0)" stroke="rgb(0,0,0)">C</text>
<line style="fill:none;stroke-width:1" stroke="rgb(0,0,0)" x1="887" y1="343" x2="930" y2="373"/> <circle style="stroke-width:1" cx="887" cy="343" r="12" fill="rgb(255,255,255)" stroke="rgb(0,0,0)"/> <text x="879" y="351" fill="rgb(0,0,0)" stroke="rgb(0,0,0)">G</text>
<line style="fill:none;stroke-width:1" stroke="rgb(0,0,0)" x1="930" y1="373" x2="967" y2="409"/> <circle style="stroke-width:1" cx="930" cy="373" r="12" fill="rgb(255,255,255)" stroke="rgb(0,0,0)"/> <text x="922" y="381" fill="rgb(0,0,0)" stroke="rgb(0,0,0)">U</text>
<line style="fill:none;stroke-width:1" stroke="rgb(0,0,0)" x1="967" y1="409" x2="998" y2="451"/> <circle style="stroke-width:1" cx="967" cy="409" r="12" fill="rgb(255,255,255)" stroke="rgb(0,0,0)"/> <text x="959" y="417" fill="rgb(0,0,0)" stroke="rgb(0,0,0)">C</text>
<line style="fill:none;stroke-width:1" stroke="rgb(0,0,0)" x1="998" y1="451" x2="1021" y2="498"/> <circle style="stroke-width:1" cx="998" cy="451" r="12" fill="rgb(255,255,255)" stroke="rgb(0,0,0)"/> <text x="990" y="459" fill="rgb(0,0,0)" stroke="rgb(0,0,0)">C</text>
<line style="fill:none;stroke-width:1" stroke="rgb(0,0,0)" x1="1021" y1="498" x2="1035" y2="548"/> <circle style="stroke-width:1" cx="1021" cy="498" r="12" fill="rgb(255,255,255)" stroke="rgb(0,0,0)"/> <text x="1013" y="506" fill="rgb(0,0,0)" stroke="rgb(0,0,0)">C</text>
<line style="fill:none;stroke-width:1" stroke="rgb(0,0,0)" x1="1035" y1="548" x2="1041" y2="599"/> <circle style="stroke-width:1" cx="1035" cy="548" r="12" fill="rgb(255,255,255)" stroke="rgb(0,0,0)"/> <text x="1027" y="556" fill="rgb(0,0,0)" stroke="rgb(0,0,0)">G</text>
<line style="fill:none;stroke-width:1" stroke="rgb(0,0,0)" x1="1041" y1="599" x2="1038" y2="651"/> <circle style="stroke-width:1" cx="1041" cy="599" r="12" fill="rgb(255,255,255)" stroke="rgb(0,0,0)"/> <text x="1033" y="607" fill="rgb(0,0,0)" stroke="rgb(0,0,0)">U</text>
<line style="fill:none;stroke-width:1" stroke="rgb(0,0,0)" x1="1038" y1="651" x2="1027" y2="702"/> <circle style="stroke-width:1" cx="1038" cy="651" r="12" fill="rgb(255,255,255)" stroke="rgb(0,0,0)"/> <text x="1030" y="659" fill="rgb(0,0,0)" stroke="rgb(0,0,0)">C</text>
<line style="fill:none;stroke-width:1" stroke="rgb(0,0,0)" x1="1027" y1="702" x2="1006" y2="750"/> <circle style="stroke-width:1" cx="1027" cy="702" r="12" fill="rgb(255,255,255)" stroke="rgb(0,0,0)"/> <text x="1019" y="710" fill="rgb(0,0,0)" stroke="rgb(0,0,0)">C</text>
<line style="fill:none;stroke-width:1" stroke="rgb(0,0,0)" x1="1006" y1="750" x2="978" y2="794"/> <line style="fill:none;stroke-width:1" stroke="rgb(0,0,0)" x1="1006" y1="750" x2="1105" y2="802"/> <rect x="1090" y="790" width="30" height="24" fill="rgb(255,255,255)" stroke="rgb(255,255,255)"/> <text x="1090" y="810" fill="rgb(0,0,0)" stroke="rgb(0,0,0)">60</text> <circle style="stroke-width:1" cx="1006" cy="750" r="12" fill="rgb(255,255,255)" stroke="rgb(0,0,0)"/> <text x="998" y="758" fill="rgb(0,0,0)" stroke="rgb(0,0,0)">U</text>
<line style="fill:none;stroke-width:1" stroke="rgb(0,0,0)" x1="978" y1="794" x2="943" y2="832"/> <circle style="stroke-width:1" cx="978" cy="794" r="12" fill="rgb(255,255,255)" stroke="rgb(0,0,0)"/> <text x="970" y="802" fill="rgb(0,0,0)" stroke="rgb(0,0,0)">C</text>
<line style="fill:none;stroke-width:1" stroke="rgb(0,0,0)" x1="943" y1="832" x2="964" y2="855"/> <circle style="stroke-width:1" cx="943" cy="832" r="12" fill="rgb(255,255,255)" stroke="rgb(0,0,0)"/> <text x="935" y="840" fill="rgb(0,0,0)" stroke="rgb(0,0,0)">C</text>
<line style="fill:none;stroke-width:1" stroke="rgb(0,0,0)" x1="964" y1="855" x2="985" y2="878"/> <circle style="stroke-width:1" cx="964" cy="855" r="12" fill="rgb(255,255,255)" stroke="rgb(0,0,0)"/> <text x="956" y="863" fill="rgb(0,0,0)" stroke="rgb(0,0,0)">G</text>
<line style="fill:none;stroke-width:1" stroke="rgb(0,0,0)" x1="985" y1="878" x2="1054" y2="900"/> <circle style="stroke-width:1" cx="985" cy="878" r="12" fill="rgb(255,255,255)" stroke="rgb(0,0,0)"/> <text x="977" y="886" fill="rgb(0,0,0)" stroke="rgb(0,0,0)">C</text>
<line style="fill:none;stroke-width:1" stroke="rgb(0,0,0)" x1="1054" y1="900" x2="1073" y2="970"/> <circle style="stroke-width:1" cx="1054" cy="900" r="12" fill="rgb(255,255,255)" stroke="rgb(0,0,0)"/> <text x="1046" y="908" fill="rgb(0,0,0)" stroke="rgb(0,0,0)">C</text>
<line style="fill:none;stroke-width:1" stroke="rgb(0,0,0)" x1="1073" y1="970" x2="1095" y2="992"/> <circle style="stroke-width:1" cx="1073" cy="970" r="12" fill="rgb(255,255,255)" stroke="rgb(0,0,0)"/> <text x="1065" y="978" fill="rgb(0,0,0)" stroke="rgb(0,0,0)">G</text>
<line style="fill:none;stroke-width:1" stroke="rgb(0,0,0)" x1="1095" y1="992" x2="1117" y2="1014"/> <circle style="stroke-width:1" cx="1095" cy="992" r="12" fill="rgb(255,255,255)" stroke="rgb(0,0,0)"/> <text x="1087" y="1000" fill="rgb(0,0,0)" stroke="rgb(0,0,0)">G</text>
<line style="fill:none;stroke-width:1" stroke="rgb(0,0,0)" x1="1117" y1="1014" x2="1153" y2="1033"/> <circle style="stroke-width:1" cx="1117" cy="1014" r="12" fill="rgb(255,255,255)" stroke="rgb(0,0,0)"/> <text x="1109" y="1022" fill="rgb(0,0,0)" stroke="rgb(0,0,0)">C</text>
<line style="fill:none;stroke-width:1" stroke="rgb(0,0,0)" x1="1153" y1="1033" x2="1163" y2="1071"/> <circle style="stroke-width:1" cx="1153" cy="1033" r="12" fill="rgb(255,255,255)" stroke="rgb(0,0,0)"/> <text x="1145" y="1041" fill="rgb(0,0,0)" stroke="rgb(0,0,0)">C</text>
<line style="fill:none;stroke-width:1" stroke="rgb(0,0,0)" x1="1163" y1="1071" x2="1135" y2="1099"/> <line style="fill:none;stroke-width:1" stroke="rgb(0,0,0)" x1="1163" y1="1071" x2="1271" y2="1099"/> <rect x="1256" y="1087" width="30" height="24" fill="rgb(255,255,255)" stroke="rgb(255,255,255)"/> <text x="1256" y="1107" fill="rgb(0,0,0)" stroke="rgb(0,0,0)">70</text> <circle style="stroke-width:1" cx="1163" cy="1071" r="12" fill="rgb(255,255,255)" stroke="rgb(0,0,0)"/> <text x="1155" y="1079" fill="rgb(0,0,0)" stroke="rgb(0,0,0)">C</text>
<line style="fill:none;stroke-width:1" stroke="rgb(0,0,0)" x1="1135" y1="1099" x2="1097" y2="1089"/> <circle style="stroke-width:1" cx="1135" cy="1099" r="12" fill="rgb(255,255,255)" stroke="rgb(0,0,0)"/> <text x="1127" y="1107" fill="rgb(0,0,0)" stroke="rgb(0,0,0)">C</text>
<line style="fill:none;stroke-width:1" stroke="rgb(0,0,0)" x1="1097" y1="1089" x2="1078" y2="1053"/> <circle style="stroke-width:1" cx="1097" cy="1089" r="12" fill="rgb(255,255,255)" stroke="rgb(0,0,0)"/> <text x="1089" y="1097" fill="rgb(0,0,0)" stroke="rgb(0,0,0)">U</text>
<line style="fill:none;stroke-width:1" stroke="rgb(0,0,0)" x1="1078" y1="1053" x2="1056" y2="1031"/> <circle style="stroke-width:1" cx="1078" cy="1053" r="12" fill="rgb(255,255,255)" stroke="rgb(0,0,0)"/> <text x="1070" y="1061" fill="rgb(0,0,0)" stroke="rgb(0,0,0)">G</text>
<line style="fill:none;stroke-width:1" stroke="rgb(0,0,0)" x1="1056" y1="1031" x2="1034" y2="1009"/> <circle style="stroke-width:1" cx="1056" cy="1031" r="12" fill="rgb(255,255,255)" stroke="rgb(0,0,0)"/> <text x="1048" y="1039" fill="rgb(0,0,0)" stroke="rgb(0,0,0)">C</text>
<line style="fill:none;stroke-width:1" stroke="rgb(0,0,0)" x1="1034" y1="1009" x2="990" y2="1005"/> <circle style="stroke-width:1" cx="1034" cy="1009" r="12" fill="rgb(255,255,255)" stroke="rgb(0,0,0)"/> <text x="1026" y="1017" fill="rgb(0,0,0)" stroke="rgb(0,0,0)">C</text>
<line style="fill:none;stroke-width:1" stroke="rgb(0,0,0)" x1="990" y1="1005" x2="945" y2="958"/> <circle style="stroke-width:1" cx="990" cy="1005" r="12" fill="rgb(255,255,255)" stroke="rgb(0,0,0)"/> <text x="982" y="1013" fill="rgb(0,0,0)" stroke="rgb(0,0,0)">C</text>
<line style="fill:none;stroke-width:1" stroke="rgb(0,0,0)" x1="945" y1="958" x2="945" y2="915"/> <circle style="stroke-width:1" cx="945" cy="958" r="12" fill="rgb(255,255,255)" stroke="rgb(0,0,0)"/> <text x="937" y="966" fill="rgb(0,0,0)" stroke="rgb(0,0,0)">C</text>
<line style="fill:none;stroke-width:1" stroke="rgb(0,0,0)" x1="945" y1="915" x2="924" y2="892"/> <circle style="stroke-width:1" cx="945" cy="915" r="12" fill="rgb(255,255,255)" stroke="rgb(0,0,0)"/> <text x="937" y="923" fill="rgb(0,0,0)" stroke="rgb(0,0,0)">G</text>
<line style="fill:none;stroke-width:1" stroke="rgb(0,0,0)" x1="924" y1="892" x2="903" y2="869"/> <circle style="stroke-width:1" cx="924" cy="892" r="12" fill="rgb(255,255,255)" stroke="rgb(0,0,0)"/> <text x="916" y="900" fill="rgb(0,0,0)" stroke="rgb(0,0,0)">C</text>
<line style="fill:none;stroke-width:1" stroke="rgb(0,0,0)" x1="903" y1="869" x2="821" y2="945"/> <rect x="806" y="933" width="30" height="24" fill="rgb(255,255,255)" stroke="rgb(255,255,255)"/> <text x="806" y="953" fill="rgb(0,0,0)" stroke="rgb(0,0,0)">80</text> <circle style="stroke-width:1" cx="903" cy="869" r="12" fill="rgb(255,255,255)" stroke="rgb(0,0,0)"/> <text x="895" y="877" fill="rgb(0,0,0)" stroke="rgb(0,0,0)">G</text>
</g>
<g font-size="16">
<text x="36" y="892" fill="rgb(0,0,0)" stroke="rgb(0,0,0)">ENERGY = -23.6  ENST00000263398.11</text>
</g>
</svg>
