<?xml version="1.0" encoding="UTF-8" standalone="no"?>
<!DOCTYPE svg PUBLIC "-//W3C//DTD SVG 1.1//EN" "http://www.w3.org/Graphics/SVG/1.1/DTD/svg11.dtd">
<svg xmlns="http://www.w3.org/2000/svg" xmlns:xlink="http://www.w3.org/1999/xlink" xml:space="preserve" font-family="monospace" font-size="24" fill="rgb(255,255,255)" stroke="rgb(0,0,0)" viewBox="0 0 790 905">
<g transform="scale(0.530803)">
<path style="fill:none;stroke-width:3" stroke="rgb(0,0,0)" d="M279,1253 Q260.5,1233 242,1213"/>
<path style="fill:none;stroke-width:3" stroke="rgb(0,0,0)" d="M256,1274 Q237.5,1254 219,1234"/>
<path style="fill:none;stroke-width:3" stroke="rgb(0,0,0)" d="M233,1295 Q214.5,1275 196,1255"/>
<path style="fill:none;stroke-width:3" stroke="rgb(0,0,0)" d="M210,1316 Q191.5,1296 173,1276"/>
<path style="fill:none;stroke-width:3" stroke="rgb(0,0,0)" d="M187,1337 Q168.5,1317 150,1297"/>
<path style="fill:none;stroke-width:3" stroke="rgb(0,0,0)" d="M164,1358 Q145.5,1338 127,1318"/>
<path style="fill:none;stroke-width:3" stroke="rgb(0,0,0)" d="M544,1008 Q562.5,1028 581,1048"/>
<path style="fill:none;stroke-width:3" stroke="rgb(0,0,0)" d="M567,987 Q585.5,1007 604,1027"/>
<path style="fill:none;stroke-width:3" stroke="rgb(0,0,0)" d="M590,966 Q608.5,986 627,1006"/>
<path style="fill:none;stroke-width:3" stroke="rgb(0,0,0)" d="M613,945 Q631.5,965 650,985"/>
<path style="fill:none;stroke-width:3" stroke="rgb(0,0,0)" d="M683,883 Q701,904 719,925"/>
<path style="fill:none;stroke-width:3" stroke="rgb(0,0,0)" d="M707,863 Q725,884 743,905"/>
<path style="fill:none;stroke-width:3" stroke="rgb(0,0,0)" d="M932,599 Q955.5,613 979,627"/>
<path style="fill:none;stroke-width:3" stroke="rgb(0,0,0)" d="M948,572 Q971.5,586 995,600"/>
<path style="fill:none;stroke-width:3" stroke="rgb(0,0,0)" d="M964,545 Q987.5,559 1011,573"/>
<path style="fill:none;stroke-width:3" stroke="rgb(0,0,0)" d="M980,518 Q1003.5,532 1027,546"/>
<path style="fill:none;stroke-width:3" stroke="rgb(0,0,0)" d="M1030,439 Q1053,454 1076,469"/>
<path style="fill:none;stroke-width:3" stroke="rgb(0,0,0)" d="M1047,413 Q1070,428 1093,443"/>
<path style="fill:none;stroke-width:3" stroke="rgb(0,0,0)" d="M1064,387 Q1087,402 1110,417"/>
<path style="fill:none;stroke-width:3" stroke="rgb(0,0,0)" d="M1081,361 Q1104,376 1127,391"/>
<path style="fill:none;stroke-width:3" stroke="rgb(0,0,0)" d="M1098,335 Q1121,350 1144,365"/>
<path style="fill:none;stroke-width:3" stroke="rgb(0,0,0)" d="M1115,309 Q1138,324 1161,339"/>
<path style="fill:none;stroke-width:3" stroke="rgb(0,0,0)" d="M1132,283 Q1155,298 1178,313"/>
<path style="fill:none;stroke-width:3" stroke="rgb(0,0,0)" d="M1218,148 Q1241.5,162 1265,176"/>
<path style="fill:none;stroke-width:3" stroke="rgb(0,0,0)" d="M1234,121 Q1257.5,135 1281,149"/>
<path style="fill:none;stroke-width:3" stroke="rgb(0,0,0)" d="M1250,94 Q1273.5,108 1297,122"/>
<line style="fill:none;stroke-width:1" stroke="rgb(0,0,0)" x1="318" y1="1285" x2="279" y2="1253"/> <circle style="stroke-width:1" cx="318" cy="1285" r="12" fill="rgb(255,255,255)" stroke="rgb(0,0,0)"/> <text x="310" y="1293" fill="rgb(0,0,0)" stroke="rgb(0,0,0)">G</text>
<line style="fill:none;stroke-width:1" stroke="rgb(0,0,0)" x1="279" y1="1253" x2="256" y2="1274"/> <circle style="stroke-width:1" cx="279" cy="1253" r="12" fill="rgb(255,255,255)" stroke="rgb(0,0,0)"/> <text x="271" y="1261" fill="rgb(0,0,0)" stroke="rgb(0,0,0)">C</text>
<line style="fill:none;stroke-width:1" stroke="rgb(0,0,0)" x1="256" y1="1274" x2="233" y2="1295"/> <circle style="stroke-width:1" cx="256" cy="1274" r="12" fill="rgb(255,255,255)" stroke="rgb(0,0,0)"/> <text x="248" y="1282" fill="rgb(0,0,0)" stroke="rgb(0,0,0)">G</text>
<line style="fill:none;stroke-width:1" stroke="rgb(0,0,0)" x1="233" y1="1295" x2="210" y2="1316"/> <circle style="stroke-width:1" cx="233" cy="1295" r="12" fill="rgb(255,255,255)" stroke="rgb(0,0,0)"/> <text x="225" y="1303" fill="rgb(0,0,0)" stroke="rgb(0,0,0)">G</text>
<line style="fill:none;stroke-width:1" stroke="rgb(0,0,0)" x1="210" y1="1316" x2="187" y2="1337"/> <circle style="stroke-width:1" cx="210" cy="1316" r="12" fill="rgb(255,255,255)" stroke="rgb(0,0,0)"/> <text x="202" y="1324" fill="rgb(0,0,0)" stroke="rgb(0,0,0)">C</text>
<line style="fill:none;stroke-width:1" stroke="rgb(0,0,0)" x1="187" y1="1337" x2="164" y2="1358"/> <circle style="stroke-width:1" cx="187" cy="1337" r="12" fill="rgb(255,255,255)" stroke="rgb(0,0,0)"/> <text x="179" y="1345" fill="rgb(0,0,0)" stroke="rgb(0,0,0)">C</text>
<line style="fill:none;stroke-width:1" stroke="rgb(0,0,0)" x1="164" y1="1358" x2="159" y2="1395"/> <circle style="stroke-width:1" cx="164" cy="1358" r="12" fill="rgb(255,255,255)" stroke="rgb(0,0,0)"/> <text x="156" y="1366" fill="rgb(0,0,0)" stroke="rgb(0,0,0)">G</text>
<line style="fill:none;stroke-width:1" stroke="rgb(0,0,0)" x1="159" y1="1395" x2="134" y2="1427"/> <circle style="stroke-width:1" cx="159" cy="1395" r="12" fill="rgb(255,255,255)" stroke="rgb(0,0,0)"/> <text x="151" y="1403" fill="rgb(0,0,0)" stroke="rgb(0,0,0)">C</text>
<line style="fill:none;stroke-width:1" stroke="rgb(0,0,0)" x1="134" y1="1427" x2="95" y2="1436"/> <circle style="stroke-width:1" cx="134" cy="1427" r="12" fill="rgb(255,255,255)" stroke="rgb(0,0,0)"/> <text x="126" y="1435" fill="rgb(0,0,0)" stroke="rgb(0,0,0)">A</text>
<line style="fill:none;stroke-width:1" stroke="rgb(0,0,0)" x1="95" y1="1436" x2="58" y2="1418"/> <line style="fill:none;stroke-width:1" stroke="rgb(0,0,0)" x1="95" y1="1436" x2="81" y2="1547"/> <rect x="66" y="1535" width="30" height="24" fill="rgb(255,255,255)" stroke="rgb(255,255,255)"/> <text x="66" y="1555" fill="rgb(0,0,0)" stroke="rgb(0,0,0)">10</text> <circle style="stroke-width:1" cx="95" cy="1436" r="12" fill="rgb(255,255,255)" stroke="rgb(0,0,0)"/> <text x="87" y="1444" fill="rgb(0,0,0)" stroke="rgb(0,0,0)">C</text>
<line style="fill:none;stroke-width:1" stroke="rgb(0,0,0)" x1="58" y1="1418" x2="43" y2="1380"/> <circle style="stroke-width:1" cx="58" cy="1418" r="12" fill="rgb(255,255,255)" stroke="rgb(0,0,0)"/> <text x="50" y="1426" fill="rgb(0,0,0)" stroke="rgb(0,0,0)">C</text>
<line style="fill:none;stroke-width:1" stroke="rgb(0,0,0)" x1="43" y1="1380" x2="55" y2="1342"/> <circle style="stroke-width:1" cx="43" cy="1380" r="12" fill="rgb(255,255,255)" stroke="rgb(0,0,0)"/> <text x="35" y="1388" fill="rgb(0,0,0)" stroke="rgb(0,0,0)">C</text>
<line style="fill:none;stroke-width:1" stroke="rgb(0,0,0)" x1="55" y1="1342" x2="89" y2="1320"/> <circle style="stroke-width:1" cx="55" cy="1342" r="12" fill="rgb(255,255,255)" stroke="rgb(0,0,0)"/> <text x="47" y="1350" fill="rgb(0,0,0)" stroke="rgb(0,0,0)">C</text>
<line style="fill:none;stroke-width:1" stroke="rgb(0,0,0)" x1="89" y1="1320" x2="127" y2="1318"/> <circle style="stroke-width:1" cx="89" cy="1320" r="12" fill="rgb(255,255,255)" stroke="rgb(0,0,0)"/> <text x="81" y="1328" fill="rgb(0,0,0)" stroke="rgb(0,0,0)">C</text>
<line style="fill:none;stroke-width:1" stroke="rgb(0,0,0)" x1="127" y1="1318" x2="150" y2="1297"/> <circle style="stroke-width:1" cx="127" cy="1318" r="12" fill="rgb(255,255,255)" stroke="rgb(0,0,0)"/> <text x="119" y="1326" fill="rgb(0,0,0)" stroke="rgb(0,0,0)">C</text>
<line style="fill:none;stroke-width:1" stroke="rgb(0,0,0)" x1="150" y1="1297" x2="173" y2="1276"/> <circle style="stroke-width:1" cx="150" cy="1297" r="12" fill="rgb(255,255,255)" stroke="rgb(0,0,0)"/> <text x="142" y="1305" fill="rgb(0,0,0)" stroke="rgb(0,0,0)">G</text>
<line style="fill:none;stroke-width:1" stroke="rgb(0,0,0)" x1="173" y1="1276" x2="196" y2="1255"/> <circle style="stroke-width:1" cx="173" cy="1276" r="12" fill="rgb(255,255,255)" stroke="rgb(0,0,0)"/> <text x="165" y="1284" fill="rgb(0,0,0)" stroke="rgb(0,0,0)">G</text>
<line style="fill:none;stroke-width:1" stroke="rgb(0,0,0)" x1="196" y1="1255" x2="219" y2="1234"/> <circle style="stroke-width:1" cx="196" cy="1255" r="12" fill="rgb(255,255,255)" stroke="rgb(0,0,0)"/> <text x="188" y="1263" fill="rgb(0,0,0)" stroke="rgb(0,0,0)">C</text>
<line style="fill:none;stroke-width:1" stroke="rgb(0,0,0)" x1="219" y1="1234" x2="242" y2="1213"/> <circle style="stroke-width:1" cx="219" cy="1234" r="12" fill="rgb(255,255,255)" stroke="rgb(0,0,0)"/> <text x="211" y="1242" fill="rgb(0,0,0)" stroke="rgb(0,0,0)">C</text>
<line style="fill:none;stroke-width:1" stroke="rgb(0,0,0)" x1="242" y1="1213" x2="372" y2="954"/> <line style="fill:none;stroke-width:1" stroke="rgb(0,0,0)" x1="242" y1="1213" x2="166" y2="1131"/> <rect x="151" y="1119" width="30" height="24" fill="rgb(255,255,255)" stroke="rgb(255,255,255)"/> <text x="151" y="1139" fill="rgb(0,0,0)" stroke="rgb(0,0,0)">20</text> <circle style="stroke-width:1" cx="242" cy="1213" r="12" fill="rgb(255,255,255)" stroke="rgb(0,0,0)"/> <text x="234" y="1221" fill="rgb(0,0,0)" stroke="rgb(0,0,0)">G</text>
<line style="fill:none;stroke-width:1" stroke="rgb(0,0,0)" x1="372" y1="954" x2="544" y2="1008"/> <circle style="stroke-width:1" cx="372" cy="954" r="12" fill="rgb(255,255,255)" stroke="rgb(0,0,0)"/> <text x="364" y="962" fill="rgb(0,0,0)" stroke="rgb(0,0,0)">G</text>
<line style="fill:none;stroke-width:1" stroke="rgb(0,0,0)" x1="544" y1="1008" x2="567" y2="987"/> <circle style="stroke-width:1" cx="544" cy="1008" r="12" fill="rgb(255,255,255)" stroke="rgb(0,0,0)"/> <text x="536" y="1016" fill="rgb(0,0,0)" stroke="rgb(0,0,0)">G</text>
<line style="fill:none;stroke-width:1" stroke="rgb(0,0,0)" x1="567" y1="987" x2="590" y2="966"/> <circle style="stroke-width:1" cx="567" cy="987" r="12" fill="rgb(255,255,255)" stroke="rgb(0,0,0)"/> <text x="559" y="995" fill="rgb(0,0,0)" stroke="rgb(0,0,0)">C</text>
<line style="fill:none;stroke-width:1" stroke="rgb(0,0,0)" x1="590" y1="966" x2="613" y2="945"/> <circle style="stroke-width:1" cx="590" cy="966" r="12" fill="rgb(255,255,255)" stroke="rgb(0,0,0)"/> <text x="582" y="974" fill="rgb(0,0,0)" stroke="rgb(0,0,0)">C</text>
<line style="fill:none;stroke-width:1" stroke="rgb(0,0,0)" x1="613" y1="945" x2="635" y2="899"/> <circle style="stroke-width:1" cx="613" cy="945" r="12" fill="rgb(255,255,255)" stroke="rgb(0,0,0)"/> <text x="605" y="953" fill="rgb(0,0,0)" stroke="rgb(0,0,0)">G</text>
<line style="fill:none;stroke-width:1" stroke="rgb(0,0,0)" x1="635" y1="899" x2="683" y2="883"/> <circle style="stroke-width:1" cx="635" cy="899" r="12" fill="rgb(255,255,255)" stroke="rgb(0,0,0)"/> <text x="627" y="907" fill="rgb(0,0,0)" stroke="rgb(0,0,0)">U</text>
<line style="fill:none;stroke-width:1" stroke="rgb(0,0,0)" x1="683" y1="883" x2="707" y2="863"/> <circle style="stroke-width:1" cx="683" cy="883" r="12" fill="rgb(255,255,255)" stroke="rgb(0,0,0)"/> <text x="675" y="891" fill="rgb(0,0,0)" stroke="rgb(0,0,0)">G</text>
<line style="fill:none;stroke-width:1" stroke="rgb(0,0,0)" x1="707" y1="863" x2="932" y2="599"/> <circle style="stroke-width:1" cx="707" cy="863" r="12" fill="rgb(255,255,255)" stroke="rgb(0,0,0)"/> <text x="699" y="871" fill="rgb(0,0,0)" stroke="rgb(0,0,0)">C</text>
<line style="fill:none;stroke-width:1" stroke="rgb(0,0,0)" x1="932" y1="599" x2="948" y2="572"/> <circle style="stroke-width:1" cx="932" cy="599" r="12" fill="rgb(255,255,255)" stroke="rgb(0,0,0)"/> <text x="924" y="607" fill="rgb(0,0,0)" stroke="rgb(0,0,0)">U</text>
<line style="fill:none;stroke-width:1" stroke="rgb(0,0,0)" x1="948" y1="572" x2="964" y2="545"/> <line style="fill:none;stroke-width:1" stroke="rgb(0,0,0)" x1="948" y1="572" x2="853" y2="514"/> <rect x="838" y="502" width="30" height="24" fill="rgb(255,255,255)" stroke="rgb(255,255,255)"/> <text x="838" y="522" fill="rgb(0,0,0)" stroke="rgb(0,0,0)">30</text> <circle style="stroke-width:1" cx="948" cy="572" r="12" fill="rgb(255,255,255)" stroke="rgb(0,0,0)"/> <text x="940" y="580" fill="rgb(0,0,0)" stroke="rgb(0,0,0)">U</text>
<line style="fill:none;stroke-width:1" stroke="rgb(0,0,0)" x1="964" y1="545" x2="980" y2="518"/> <circle style="stroke-width:1" cx="964" cy="545" r="12" fill="rgb(255,255,255)" stroke="rgb(0,0,0)"/> <text x="956" y="553" fill="rgb(0,0,0)" stroke="rgb(0,0,0)">C</text>
<line style="fill:none;stroke-width:1" stroke="rgb(0,0,0)" x1="980" y1="518" x2="988" y2="468"/> <circle style="stroke-width:1" cx="980" cy="518" r="12" fill="rgb(255,255,255)" stroke="rgb(0,0,0)"/> <text x="972" y="526" fill="rgb(0,0,0)" stroke="rgb(0,0,0)">U</text>
<line style="fill:none;stroke-width:1" stroke="rgb(0,0,0)" x1="988" y1="468" x2="1030" y2="439"/> <circle style="stroke-width:1" cx="988" cy="468" r="12" fill="rgb(255,255,255)" stroke="rgb(0,0,0)"/> <text x="980" y="476" fill="rgb(0,0,0)" stroke="rgb(0,0,0)">G</text>
<line style="fill:none;stroke-width:1" stroke="rgb(0,0,0)" x1="1030" y1="439" x2="1047" y2="413"/> <circle style="stroke-width:1" cx="1030" cy="439" r="12" fill="rgb(255,255,255)" stroke="rgb(0,0,0)"/> <text x="1022" y="447" fill="rgb(0,0,0)" stroke="rgb(0,0,0)">C</text>
<line style="fill:none;stroke-width:1" stroke="rgb(0,0,0)" x1="1047" y1="413" x2="1064" y2="387"/> <circle style="stroke-width:1" cx="1047" cy="413" r="12" fill="rgb(255,255,255)" stroke="rgb(0,0,0)"/> <text x="1039" y="421" fill="rgb(0,0,0)" stroke="rgb(0,0,0)">C</text>
<line style="fill:none;stroke-width:1" stroke="rgb(0,0,0)" x1="1064" y1="387" x2="1081" y2="361"/> <circle style="stroke-width:1" cx="1064" cy="387" r="12" fill="rgb(255,255,255)" stroke="rgb(0,0,0)"/> <text x="1056" y="395" fill="rgb(0,0,0)" stroke="rgb(0,0,0)">C</text>
<line style="fill:none;stroke-width:1" stroke="rgb(0,0,0)" x1="1081" y1="361" x2="1098" y2="335"/> <circle style="stroke-width:1" cx="1081" cy="361" r="12" fill="rgb(255,255,255)" stroke="rgb(0,0,0)"/> <text x="1073" y="369" fill="rgb(0,0,0)" stroke="rgb(0,0,0)">C</text>
<line style="fill:none;stroke-width:1" stroke="rgb(0,0,0)" x1="1098" y1="335" x2="1115" y2="309"/> <circle style="stroke-width:1" cx="1098" cy="335" r="12" fill="rgb(255,255,255)" stroke="rgb(0,0,0)"/> <text x="1090" y="343" fill="rgb(0,0,0)" stroke="rgb(0,0,0)">U</text>
<line style="fill:none;stroke-width:1" stroke="rgb(0,0,0)" x1="1115" y1="309" x2="1132" y2="283"/> <circle style="stroke-width:1" cx="1115" cy="309" r="12" fill="rgb(255,255,255)" stroke="rgb(0,0,0)"/> <text x="1107" y="317" fill="rgb(0,0,0)" stroke="rgb(0,0,0)">A</text>
<line style="fill:none;stroke-width:1" stroke="rgb(0,0,0)" x1="1132" y1="283" x2="1119" y2="228"/> <line style="fill:none;stroke-width:1" stroke="rgb(0,0,0)" x1="1132" y1="283" x2="1039" y2="221"/> <rect x="1024" y="209" width="30" height="24" fill="rgb(255,255,255)" stroke="rgb(255,255,255)"/> <text x="1024" y="229" fill="rgb(0,0,0)" stroke="rgb(0,0,0)">40</text> <circle style="stroke-width:1" cx="1132" cy="283" r="12" fill="rgb(255,255,255)" stroke="rgb(0,0,0)"/> <text x="1124" y="291" fill="rgb(0,0,0)" stroke="rgb(0,0,0)">C</text>
<line style="fill:none;stroke-width:1" stroke="rgb(0,0,0)" x1="1119" y1="228" x2="1162" y2="161"/> <circle style="stroke-width:1" cx="1119" cy="228" r="12" fill="rgb(255,255,255)" stroke="rgb(0,0,0)"/> <text x="1111" y="236" fill="rgb(0,0,0)" stroke="rgb(0,0,0)">A</text>
<line style="fill:none;stroke-width:1" stroke="rgb(0,0,0)" x1="1162" y1="161" x2="1218" y2="148"/> <circle style="stroke-width:1" cx="1162" cy="161" r="12" fill="rgb(255,255,255)" stroke="rgb(0,0,0)"/> <text x="1154" y="169" fill="rgb(0,0,0)" stroke="rgb(0,0,0)">A</text>
<line style="fill:none;stroke-width:1" stroke="rgb(0,0,0)" x1="1218" y1="148" x2="1234" y2="121"/> <circle style="stroke-width:1" cx="1218" cy="148" r="12" fill="rgb(255,255,255)" stroke="rgb(0,0,0)"/> <text x="1210" y="156" fill="rgb(0,0,0)" stroke="rgb(0,0,0)">G</text>
<line style="fill:none;stroke-width:1" stroke="rgb(0,0,0)" x1="1234" y1="121" x2="1250" y2="94"/> <circle style="stroke-width:1" cx="1234" cy="121" r="12" fill="rgb(255,255,255)" stroke="rgb(0,0,0)"/> <text x="1226" y="129" fill="rgb(0,0,0)" stroke="rgb(0,0,0)">G</text>
<line style="fill:none;stroke-width:1" stroke="rgb(0,0,0)" x1="1250" y1="94" x2="1260" y2="55"/> <circle style="stroke-width:1" cx="1250" cy="94" r="12" fill="rgb(255,255,255)" stroke="rgb(0,0,0)"/> <text x="1242" y="102" fill="rgb(0,0,0)" stroke="rgb(0,0,0)">U</text>
<line style="fill:none;stroke-width:1" stroke="rgb(0,0,0)" x1="1260" y1="55" x2="1295" y2="36"/> <circle style="stroke-width:1" cx="1260" cy="55" r="12" fill="rgb(255,255,255)" stroke="rgb(0,0,0)"/> <text x="1252" y="63" fill="rgb(0,0,0)" stroke="rgb(0,0,0)">U</text>
<line style="fill:none;stroke-width:1" stroke="rgb(0,0,0)" x1="1295" y1="36" x2="1329" y2="56"/> <circle style="stroke-width:1" cx="1295" cy="36" r="12" fill="rgb(255,255,255)" stroke="rgb(0,0,0)"/> <text x="1287" y="44" fill="rgb(0,0,0)" stroke="rgb(0,0,0)">U</text>
<line style="fill:none;stroke-width:1" stroke="rgb(0,0,0)" x1="1329" y1="56" x2="1328" y2="96"/> <circle style="stroke-width:1" cx="1329" cy="56" r="12" fill="rgb(255,255,255)" stroke="rgb(0,0,0)"/> <text x="1321" y="64" fill="rgb(0,0,0)" stroke="rgb(0,0,0)">G</text>
<line style="fill:none;stroke-width:1" stroke="rgb(0,0,0)" x1="1328" y1="96" x2="1297" y2="122"/> <circle style="stroke-width:1" cx="1328" cy="96" r="12" fill="rgb(255,255,255)" stroke="rgb(0,0,0)"/> <text x="1320" y="104" fill="rgb(0,0,0)" stroke="rgb(0,0,0)">G</text>
<line style="fill:none;stroke-width:1" stroke="rgb(0,0,0)" x1="1297" y1="122" x2="1281" y2="149"/> <line style="fill:none;stroke-width:1" stroke="rgb(0,0,0)" x1="1297" y1="122" x2="1392" y2="180"/> <rect x="1377" y="168" width="30" height="24" fill="rgb(255,255,255)" stroke="rgb(255,255,255)"/> <text x="1377" y="188" fill="rgb(0,0,0)" stroke="rgb(0,0,0)">50</text> <circle style="stroke-width:1" cx="1297" cy="122" r="12" fill="rgb(255,255,255)" stroke="rgb(0,0,0)"/> <text x="1289" y="130" fill="rgb(0,0,0)" stroke="rgb(0,0,0)">G</text>
<line style="fill:none;stroke-width:1" stroke="rgb(0,0,0)" x1="1281" y1="149" x2="1265" y2="176"/> <circle style="stroke-width:1" cx="1281" cy="149" r="12" fill="rgb(255,255,255)" stroke="rgb(0,0,0)"/> <text x="1273" y="157" fill="rgb(0,0,0)" stroke="rgb(0,0,0)">C</text>
<line style="fill:none;stroke-width:1" stroke="rgb(0,0,0)" x1="1265" y1="176" x2="1277" y2="214"/> <circle style="stroke-width:1" cx="1265" cy="176" r="12" fill="rgb(255,255,255)" stroke="rgb(0,0,0)"/> <text x="1257" y="184" fill="rgb(0,0,0)" stroke="rgb(0,0,0)">C</text>
<line style="fill:none;stroke-width:1" stroke="rgb(0,0,0)" x1="1277" y1="214" x2="1267" y2="275"/> <circle style="stroke-width:1" cx="1277" cy="214" r="12" fill="rgb(255,255,255)" stroke="rgb(0,0,0)"/> <text x="1269" y="222" fill="rgb(0,0,0)" stroke="rgb(0,0,0)">G</text>
<line style="fill:none;stroke-width:1" stroke="rgb(0,0,0)" x1="1267" y1="275" x2="1216" y2="311"/> <circle style="stroke-width:1" cx="1267" cy="275" r="12" fill="rgb(255,255,255)" stroke="rgb(0,0,0)"/> <text x="1259" y="283" fill="rgb(0,0,0)" stroke="rgb(0,0,0)">A</text>
<line style="fill:none;stroke-width:1" stroke="rgb(0,0,0)" x1="1216" y1="311" x2="1178" y2="313"/> <circle style="stroke-width:1" cx="1216" cy="311" r="12" fill="rgb(255,255,255)" stroke="rgb(0,0,0)"/> <text x="1208" y="319" fill="rgb(0,0,0)" stroke="rgb(0,0,0)">G</text>
<line style="fill:none;stroke-width:1" stroke="rgb(0,0,0)" x1="1178" y1="313" x2="1161" y2="339"/> <circle style="stroke-width:1" cx="1178" cy="313" r="12" fill="rgb(255,255,255)" stroke="rgb(0,0,0)"/> <text x="1170" y="321" fill="rgb(0,0,0)" stroke="rgb(0,0,0)">G</text>
<line style="fill:none;stroke-width:1" stroke="rgb(0,0,0)" x1="1161" y1="339" x2="1144" y2="365"/> <circle style="stroke-width:1" cx="1161" cy="339" r="12" fill="rgb(255,255,255)" stroke="rgb(0,0,0)"/> <text x="1153" y="347" fill="rgb(0,0,0)" stroke="rgb(0,0,0)">U</text>
<line style="fill:none;stroke-width:1" stroke="rgb(0,0,0)" x1="1144" y1="365" x2="1127" y2="391"/> <circle style="stroke-width:1" cx="1144" cy="365" r="12" fill="rgb(255,255,255)" stroke="rgb(0,0,0)"/> <text x="1136" y="373" fill="rgb(0,0,0)" stroke="rgb(0,0,0)">G</text>
<line style="fill:none;stroke-width:1" stroke="rgb(0,0,0)" x1="1127" y1="391" x2="1110" y2="417"/> <circle style="stroke-width:1" cx="1127" cy="391" r="12" fill="rgb(255,255,255)" stroke="rgb(0,0,0)"/> <text x="1119" y="399" fill="rgb(0,0,0)" stroke="rgb(0,0,0)">G</text>
<line style="fill:none;stroke-width:1" stroke="rgb(0,0,0)" x1="1110" y1="417" x2="1093" y2="443"/> <line style="fill:none;stroke-width:1" stroke="rgb(0,0,0)" x1="1110" y1="417" x2="1203" y2="479"/> <rect x="1188" y="467" width="30" height="24" fill="rgb(255,255,255)" stroke="rgb(255,255,255)"/> <text x="1188" y="487" fill="rgb(0,0,0)" stroke="rgb(0,0,0)">60</text> <circle style="stroke-width:1" cx="1110" cy="417" r="12" fill="rgb(255,255,255)" stroke="rgb(0,0,0)"/> <text x="1102" y="425" fill="rgb(0,0,0)" stroke="rgb(0,0,0)">G</text>
<line style="fill:none;stroke-width:1" stroke="rgb(0,0,0)" x1="1093" y1="443" x2="1076" y2="469"/> <circle style="stroke-width:1" cx="1093" cy="443" r="12" fill="rgb(255,255,255)" stroke="rgb(0,0,0)"/> <text x="1085" y="451" fill="rgb(0,0,0)" stroke="rgb(0,0,0)">G</text>
<line style="fill:none;stroke-width:1" stroke="rgb(0,0,0)" x1="1076" y1="469" x2="1027" y2="546"/> <circle style="stroke-width:1" cx="1076" cy="469" r="12" fill="rgb(255,255,255)" stroke="rgb(0,0,0)"/> <text x="1068" y="477" fill="rgb(0,0,0)" stroke="rgb(0,0,0)">G</text>
<line style="fill:none;stroke-width:1" stroke="rgb(0,0,0)" x1="1027" y1="546" x2="1011" y2="573"/> <circle style="stroke-width:1" cx="1027" cy="546" r="12" fill="rgb(255,255,255)" stroke="rgb(0,0,0)"/> <text x="1019" y="554" fill="rgb(0,0,0)" stroke="rgb(0,0,0)">A</text>
<line style="fill:none;stroke-width:1" stroke="rgb(0,0,0)" x1="1011" y1="573" x2="995" y2="600"/> <circle style="stroke-width:1" cx="1011" cy="573" r="12" fill="rgb(255,255,255)" stroke="rgb(0,0,0)"/> <text x="1003" y="581" fill="rgb(0,0,0)" stroke="rgb(0,0,0)">G</text>
<line style="fill:none;stroke-width:1" stroke="rgb(0,0,0)" x1="995" y1="600" x2="979" y2="627"/> <circle style="stroke-width:1" cx="995" cy="600" r="12" fill="rgb(255,255,255)" stroke="rgb(0,0,0)"/> <text x="987" y="608" fill="rgb(0,0,0)" stroke="rgb(0,0,0)">G</text>
<line style="fill:none;stroke-width:1" stroke="rgb(0,0,0)" x1="979" y1="627" x2="1000" y2="666"/> <circle style="stroke-width:1" cx="979" cy="627" r="12" fill="rgb(255,255,255)" stroke="rgb(0,0,0)"/> <text x="971" y="635" fill="rgb(0,0,0)" stroke="rgb(0,0,0)">G</text>
<line style="fill:none;stroke-width:1" stroke="rgb(0,0,0)" x1="1000" y1="666" x2="1029" y2="726"/> <circle style="stroke-width:1" cx="1000" cy="666" r="12" fill="rgb(255,255,255)" stroke="rgb(0,0,0)"/> <text x="992" y="674" fill="rgb(0,0,0)" stroke="rgb(0,0,0)">U</text>
<line style="fill:none;stroke-width:1" stroke="rgb(0,0,0)" x1="1029" y1="726" x2="1033" y2="793"/> <circle style="stroke-width:1" cx="1029" cy="726" r="12" fill="rgb(255,255,255)" stroke="rgb(0,0,0)"/> <text x="1021" y="734" fill="rgb(0,0,0)" stroke="rgb(0,0,0)">C</text>
<line style="fill:none;stroke-width:1" stroke="rgb(0,0,0)" x1="1033" y1="793" x2="1012" y2="857"/> <circle style="stroke-width:1" cx="1033" cy="793" r="12" fill="rgb(255,255,255)" stroke="rgb(0,0,0)"/> <text x="1025" y="801" fill="rgb(0,0,0)" stroke="rgb(0,0,0)">C</text>
<line style="fill:none;stroke-width:1" stroke="rgb(0,0,0)" x1="1012" y1="857" x2="968" y2="908"/> <line style="fill:none;stroke-width:1" stroke="rgb(0,0,0)" x1="1012" y1="857" x2="1109" y2="912"/> <rect x="1094" y="900" width="30" height="24" fill="rgb(255,255,255)" stroke="rgb(255,255,255)"/> <text x="1094" y="920" fill="rgb(0,0,0)" stroke="rgb(0,0,0)">70</text> <circle style="stroke-width:1" cx="1012" cy="857" r="12" fill="rgb(255,255,255)" stroke="rgb(0,0,0)"/> <text x="1004" y="865" fill="rgb(0,0,0)" stroke="rgb(0,0,0)">U</text>
<line style="fill:none;stroke-width:1" stroke="rgb(0,0,0)" x1="968" y1="908" x2="908" y2="939"/> <circle style="stroke-width:1" cx="968" cy="908" r="12" fill="rgb(255,255,255)" stroke="rgb(0,0,0)"/> <text x="960" y="916" fill="rgb(0,0,0)" stroke="rgb(0,0,0)">G</text>
<line style="fill:none;stroke-width:1" stroke="rgb(0,0,0)" x1="908" y1="939" x2="841" y2="945"/> <circle style="stroke-width:1" cx="908" cy="939" r="12" fill="rgb(255,255,255)" stroke="rgb(0,0,0)"/> <text x="900" y="947" fill="rgb(0,0,0)" stroke="rgb(0,0,0)">G</text>
<line style="fill:none;stroke-width:1" stroke="rgb(0,0,0)" x1="841" y1="945" x2="777" y2="926"/> <circle style="stroke-width:1" cx="841" cy="945" r="12" fill="rgb(255,255,255)" stroke="rgb(0,0,0)"/> <text x="833" y="953" fill="rgb(0,0,0)" stroke="rgb(0,0,0)">U</text>
<line style="fill:none;stroke-width:1" stroke="rgb(0,0,0)" x1="777" y1="926" x2="743" y2="905"/> <circle style="stroke-width:1" cx="777" cy="926" r="12" fill="rgb(255,255,255)" stroke="rgb(0,0,0)"/> <text x="769" y="934" fill="rgb(0,0,0)" stroke="rgb(0,0,0)">U</text>
<line style="fill:none;stroke-width:1" stroke="rgb(0,0,0)" x1="743" y1="905" x2="719" y2="925"/> <circle style="stroke-width:1" cx="743" cy="905" r="12" fill="rgb(255,255,255)" stroke="rgb(0,0,0)"/> <text x="735" y="913" fill="rgb(0,0,0)" stroke="rgb(0,0,0)">G</text>
<line style="fill:none;stroke-width:1" stroke="rgb(0,0,0)" x1="719" y1="925" x2="650" y2="985"/> <circle style="stroke-width:1" cx="719" cy="925" r="12" fill="rgb(255,255,255)" stroke="rgb(0,0,0)"/> <text x="711" y="933" fill="rgb(0,0,0)" stroke="rgb(0,0,0)">C</text>
<line style="fill:none;stroke-width:1" stroke="rgb(0,0,0)" x1="650" y1="985" x2="627" y2="1006"/> <circle style="stroke-width:1" cx="650" cy="985" r="12" fill="rgb(255,255,255)" stroke="rgb(0,0,0)"/> <text x="642" y="993" fill="rgb(0,0,0)" stroke="rgb(0,0,0)">C</text>
<line style="fill:none;stroke-width:1" stroke="rgb(0,0,0)" x1="627" y1="1006" x2="604" y2="1027"/> <circle style="stroke-width:1" cx="627" cy="1006" r="12" fill="rgb(255,255,255)" stroke="rgb(0,0,0)"/> <text x="619" y="1014" fill="rgb(0,0,0)" stroke="rgb(0,0,0)">G</text>
<line style="fill:none;stroke-width:1" stroke="rgb(0,0,0)" x1="604" y1="1027" x2="581" y2="1048"/> <circle style="stroke-width:1" cx="604" cy="1027" r="12" fill="rgb(255,255,255)" stroke="rgb(0,0,0)"/> <text x="596" y="1035" fill="rgb(0,0,0)" stroke="rgb(0,0,0)">G</text>
<line style="fill:none;stroke-width:1" stroke="rgb(0,0,0)" x1="581" y1="1048" x2="657" y2="1130"/> <rect x="642" y="1118" width="30" height="24" fill="rgb(255,255,255)" stroke="rgb(255,255,255)"/> <text x="642" y="1138" fill="rgb(0,0,0)" stroke="rgb(0,0,0)">80</text> <circle style="stroke-width:1" cx="581" cy="1048" r="12" fill="rgb(255,255,255)" stroke="rgb(0,0,0)"/> <text x="573" y="1056" fill="rgb(0,0,0)" stroke="rgb(0,0,0)">C</text>
</g>
<g font-size="16">
<text x="36" y="892" fill="rgb(0,0,0)" stroke="rgb(0,0,0)">ENERGY = -37.2  ENST00000378292.9</text>
</g>
</svg>
