<?xml version="1.0" encoding="UTF-8" standalone="no"?>
<!DOCTYPE svg PUBLIC "-//W3C//DTD SVG 1.1//EN" "http://www.w3.org/Graphics/SVG/1.1/DTD/svg11.dtd">
<svg xmlns="http://www.w3.org/2000/svg" xmlns:xlink="http://www.w3.org/1999/xlink" xml:space="preserve" font-family="monospace" font-size="24" fill="rgb(255,255,255)" stroke="rgb(0,0,0)" viewBox="0 0 790 905">
<g transform="scale(0.456912)">
<path style="fill:none;stroke-width:3" stroke="rgb(0,0,0)" d="M914,301 Q917,273.5 920,246"/>
<path style="fill:none;stroke-width:3" stroke="rgb(0,0,0)" d="M883,298 Q886,270.5 889,243"/>
<path style="fill:none;stroke-width:3" stroke="rgb(0,0,0)" d="M852,295 Q855,267.5 858,240"/>
<path style="fill:none;stroke-width:3" stroke="rgb(0,0,0)" d="M821,292 Q824,264.5 827,237"/>
<path style="fill:none;stroke-width:3" stroke="rgb(0,0,0)" d="M698,283 Q699,255.5 700,228"/>
<path style="fill:none;stroke-width:3" stroke="rgb(0,0,0)" d="M667,282 Q668,254.5 669,227"/>
<path style="fill:none;stroke-width:3" stroke="rgb(0,0,0)" d="M636,281 Q637,253.5 638,226"/>
<path style="fill:none;stroke-width:3" stroke="rgb(0,0,0)" d="M605,280 Q606,252.5 607,225"/>
<path style="fill:none;stroke-width:3" stroke="rgb(0,0,0)" d="M574,279 Q575,251.5 576,224"/>
<path style="fill:none;stroke-width:3" stroke="rgb(0,0,0)" d="M394,287 Q391,259.5 388,232"/>
<path style="fill:none;stroke-width:3" stroke="rgb(0,0,0)" d="M363,290 Q360,262.5 357,235"/>
<path style="fill:none;stroke-width:3" stroke="rgb(0,0,0)" d="M332,293 Q329,265.5 326,238"/>
<path style="fill:none;stroke-width:3" stroke="rgb(0,0,0)" d="M301,296 Q298,268.5 295,241"/>
<path style="fill:none;stroke-width:3" stroke="rgb(0,0,0)" d="M209,309 Q205,282 201,255"/>
<path style="fill:none;stroke-width:3" stroke="rgb(0,0,0)" d="M178,313 Q174,286 170,259"/>
<path style="fill:none;stroke-width:3" stroke="rgb(0,0,0)" d="M147,317 Q143,290 139,263"/>
<path style="fill:none;stroke-width:3" stroke="rgb(0,0,0)" d="M1040,308 Q1040,335.5 1040,363"/>
<path style="fill:none;stroke-width:3" stroke="rgb(0,0,0)" d="M1071,308 Q1071,335.5 1071,363"/>
<path style="fill:none;stroke-width:3" stroke="rgb(0,0,0)" d="M1324,308 Q1324,335.5 1324,363"/>
<path style="fill:none;stroke-width:3" stroke="rgb(0,0,0)" d="M1355,308 Q1355,335.5 1355,363"/>
<path style="fill:none;stroke-width:3" stroke="rgb(0,0,0)" d="M1386,308 Q1386,335.5 1386,363"/>
<path style="fill:none;stroke-width:3" stroke="rgb(0,0,0)" d="M1417,308 Q1417,335.5 1417,363"/>
<path style="fill:none;stroke-width:3" stroke="rgb(0,0,0)" d="M1448,308 Q1448,335.5 1448,363"/>
<path style="fill:none;stroke-width:3" stroke="rgb(0,0,0)" d="M1479,308 Q1479,335.5 1479,363"/>
<line style="fill:none;stroke-width:1" stroke="rgb(0,0,0)" x1="914" y1="301" x2="883" y2="298"/> <circle style="stroke-width:1" cx="914" cy="301" r="12" fill="rgb(255,255,255)" stroke="rgb(0,0,0)"/> <text x="906" y="309" fill="rgb(0,0,0)" stroke="rgb(0,0,0)">G</text>
<line style="fill:none;stroke-width:1" stroke="rgb(0,0,0)" x1="883" y1="298" x2="852" y2="295"/> <circle style="stroke-width:1" cx="883" cy="298" r="12" fill="rgb(255,255,255)" stroke="rgb(0,0,0)"/> <text x="875" y="306" fill="rgb(0,0,0)" stroke="rgb(0,0,0)">C</text>
<line style="fill:none;stroke-width:1" stroke="rgb(0,0,0)" x1="852" y1="295" x2="821" y2="292"/> <circle style="stroke-width:1" cx="852" cy="295" r="12" fill="rgb(255,255,255)" stroke="rgb(0,0,0)"/> <text x="844" y="303" fill="rgb(0,0,0)" stroke="rgb(0,0,0)">A</text>
<line style="fill:none;stroke-width:1" stroke="rgb(0,0,0)" x1="821" y1="292" x2="698" y2="283"/> <circle style="stroke-width:1" cx="821" cy="292" r="12" fill="rgb(255,255,255)" stroke="rgb(0,0,0)"/> <text x="813" y="300" fill="rgb(0,0,0)" stroke="rgb(0,0,0)">C</text>
<line style="fill:none;stroke-width:1" stroke="rgb(0,0,0)" x1="698" y1="283" x2="667" y2="282"/> <circle style="stroke-width:1" cx="698" cy="283" r="12" fill="rgb(255,255,255)" stroke="rgb(0,0,0)"/> <text x="690" y="291" fill="rgb(0,0,0)" stroke="rgb(0,0,0)">U</text>
<line style="fill:none;stroke-width:1" stroke="rgb(0,0,0)" x1="667" y1="282" x2="636" y2="281"/> <circle style="stroke-width:1" cx="667" cy="282" r="12" fill="rgb(255,255,255)" stroke="rgb(0,0,0)"/> <text x="659" y="290" fill="rgb(0,0,0)" stroke="rgb(0,0,0)">C</text>
<line style="fill:none;stroke-width:1" stroke="rgb(0,0,0)" x1="636" y1="281" x2="605" y2="280"/> <circle style="stroke-width:1" cx="636" cy="281" r="12" fill="rgb(255,255,255)" stroke="rgb(0,0,0)"/> <text x="628" y="289" fill="rgb(0,0,0)" stroke="rgb(0,0,0)">A</text>
<line style="fill:none;stroke-width:1" stroke="rgb(0,0,0)" x1="605" y1="280" x2="574" y2="279"/> <circle style="stroke-width:1" cx="605" cy="280" r="12" fill="rgb(255,255,255)" stroke="rgb(0,0,0)"/> <text x="597" y="288" fill="rgb(0,0,0)" stroke="rgb(0,0,0)">C</text>
<line style="fill:none;stroke-width:1" stroke="rgb(0,0,0)" x1="574" y1="279" x2="394" y2="287"/> <circle style="stroke-width:1" cx="574" cy="279" r="12" fill="rgb(255,255,255)" stroke="rgb(0,0,0)"/> <text x="566" y="287" fill="rgb(0,0,0)" stroke="rgb(0,0,0)">C</text>
<line style="fill:none;stroke-width:1" stroke="rgb(0,0,0)" x1="394" y1="287" x2="363" y2="290"/> <line style="fill:none;stroke-width:1" stroke="rgb(0,0,0)" x1="394" y1="287" x2="407" y2="398"/> <rect x="392" y="386" width="30" height="24" fill="rgb(255,255,255)" stroke="rgb(255,255,255)"/> <text x="392" y="406" fill="rgb(0,0,0)" stroke="rgb(0,0,0)">10</text> <circle style="stroke-width:1" cx="394" cy="287" r="12" fill="rgb(255,255,255)" stroke="rgb(0,0,0)"/> <text x="386" y="295" fill="rgb(0,0,0)" stroke="rgb(0,0,0)">G</text>
<line style="fill:none;stroke-width:1" stroke="rgb(0,0,0)" x1="363" y1="290" x2="332" y2="293"/> <circle style="stroke-width:1" cx="363" cy="290" r="12" fill="rgb(255,255,255)" stroke="rgb(0,0,0)"/> <text x="355" y="298" fill="rgb(0,0,0)" stroke="rgb(0,0,0)">C</text>
<line style="fill:none;stroke-width:1" stroke="rgb(0,0,0)" x1="332" y1="293" x2="301" y2="296"/> <circle style="stroke-width:1" cx="332" cy="293" r="12" fill="rgb(255,255,255)" stroke="rgb(0,0,0)"/> <text x="324" y="301" fill="rgb(0,0,0)" stroke="rgb(0,0,0)">C</text>
<line style="fill:none;stroke-width:1" stroke="rgb(0,0,0)" x1="301" y1="296" x2="209" y2="309"/> <circle style="stroke-width:1" cx="301" cy="296" r="12" fill="rgb(255,255,255)" stroke="rgb(0,0,0)"/> <text x="293" y="304" fill="rgb(0,0,0)" stroke="rgb(0,0,0)">U</text>
<line style="fill:none;stroke-width:1" stroke="rgb(0,0,0)" x1="209" y1="309" x2="178" y2="313"/> <circle style="stroke-width:1" cx="209" cy="309" r="12" fill="rgb(255,255,255)" stroke="rgb(0,0,0)"/> <text x="201" y="317" fill="rgb(0,0,0)" stroke="rgb(0,0,0)">U</text>
<line style="fill:none;stroke-width:1" stroke="rgb(0,0,0)" x1="178" y1="313" x2="147" y2="317"/> <circle style="stroke-width:1" cx="178" cy="313" r="12" fill="rgb(255,255,255)" stroke="rgb(0,0,0)"/> <text x="170" y="321" fill="rgb(0,0,0)" stroke="rgb(0,0,0)">C</text>
<line style="fill:none;stroke-width:1" stroke="rgb(0,0,0)" x1="147" y1="317" x2="110" y2="335"/> <circle style="stroke-width:1" cx="147" cy="317" r="12" fill="rgb(255,255,255)" stroke="rgb(0,0,0)"/> <text x="139" y="325" fill="rgb(0,0,0)" stroke="rgb(0,0,0)">C</text>
<line style="fill:none;stroke-width:1" stroke="rgb(0,0,0)" x1="110" y1="335" x2="73" y2="321"/> <circle style="stroke-width:1" cx="110" cy="335" r="12" fill="rgb(255,255,255)" stroke="rgb(0,0,0)"/> <text x="102" y="343" fill="rgb(0,0,0)" stroke="rgb(0,0,0)">U</text>
<line style="fill:none;stroke-width:1" stroke="rgb(0,0,0)" x1="73" y1="321" x2="67" y2="282"/> <circle style="stroke-width:1" cx="73" cy="321" r="12" fill="rgb(255,255,255)" stroke="rgb(0,0,0)"/> <text x="65" y="329" fill="rgb(0,0,0)" stroke="rgb(0,0,0)">G</text>
<line style="fill:none;stroke-width:1" stroke="rgb(0,0,0)" x1="67" y1="282" x2="98" y2="257"/> <circle style="stroke-width:1" cx="67" cy="282" r="12" fill="rgb(255,255,255)" stroke="rgb(0,0,0)"/> <text x="59" y="290" fill="rgb(0,0,0)" stroke="rgb(0,0,0)">G</text>
<line style="fill:none;stroke-width:1" stroke="rgb(0,0,0)" x1="98" y1="257" x2="139" y2="263"/> <line style="fill:none;stroke-width:1" stroke="rgb(0,0,0)" x1="98" y1="257" x2="81" y2="147"/> <rect x="66" y="135" width="30" height="24" fill="rgb(255,255,255)" stroke="rgb(255,255,255)"/> <text x="66" y="155" fill="rgb(0,0,0)" stroke="rgb(0,0,0)">20</text> <circle style="stroke-width:1" cx="98" cy="257" r="12" fill="rgb(255,255,255)" stroke="rgb(0,0,0)"/> <text x="90" y="265" fill="rgb(0,0,0)" stroke="rgb(0,0,0)">U</text>
<line style="fill:none;stroke-width:1" stroke="rgb(0,0,0)" x1="139" y1="263" x2="170" y2="259"/> <circle style="stroke-width:1" cx="139" cy="263" r="12" fill="rgb(255,255,255)" stroke="rgb(0,0,0)"/> <text x="131" y="271" fill="rgb(0,0,0)" stroke="rgb(0,0,0)">G</text>
<line style="fill:none;stroke-width:1" stroke="rgb(0,0,0)" x1="170" y1="259" x2="201" y2="255"/> <circle style="stroke-width:1" cx="170" cy="259" r="12" fill="rgb(255,255,255)" stroke="rgb(0,0,0)"/> <text x="162" y="267" fill="rgb(0,0,0)" stroke="rgb(0,0,0)">G</text>
<line style="fill:none;stroke-width:1" stroke="rgb(0,0,0)" x1="201" y1="255" x2="245" y2="228"/> <circle style="stroke-width:1" cx="201" cy="255" r="12" fill="rgb(255,255,255)" stroke="rgb(0,0,0)"/> <text x="193" y="263" fill="rgb(0,0,0)" stroke="rgb(0,0,0)">A</text>
<line style="fill:none;stroke-width:1" stroke="rgb(0,0,0)" x1="245" y1="228" x2="295" y2="241"/> <circle style="stroke-width:1" cx="245" cy="228" r="12" fill="rgb(255,255,255)" stroke="rgb(0,0,0)"/> <text x="237" y="236" fill="rgb(0,0,0)" stroke="rgb(0,0,0)">C</text>
<line style="fill:none;stroke-width:1" stroke="rgb(0,0,0)" x1="295" y1="241" x2="326" y2="238"/> <circle style="stroke-width:1" cx="295" cy="241" r="12" fill="rgb(255,255,255)" stroke="rgb(0,0,0)"/> <text x="287" y="249" fill="rgb(0,0,0)" stroke="rgb(0,0,0)">G</text>
<line style="fill:none;stroke-width:1" stroke="rgb(0,0,0)" x1="326" y1="238" x2="357" y2="235"/> <circle style="stroke-width:1" cx="326" cy="238" r="12" fill="rgb(255,255,255)" stroke="rgb(0,0,0)"/> <text x="318" y="246" fill="rgb(0,0,0)" stroke="rgb(0,0,0)">G</text>
<line style="fill:none;stroke-width:1" stroke="rgb(0,0,0)" x1="357" y1="235" x2="388" y2="232"/> <circle style="stroke-width:1" cx="357" cy="235" r="12" fill="rgb(255,255,255)" stroke="rgb(0,0,0)"/> <text x="349" y="243" fill="rgb(0,0,0)" stroke="rgb(0,0,0)">G</text>
<line style="fill:none;stroke-width:1" stroke="rgb(0,0,0)" x1="388" y1="232" x2="408" y2="202"/> <circle style="stroke-width:1" cx="388" cy="232" r="12" fill="rgb(255,255,255)" stroke="rgb(0,0,0)"/> <text x="380" y="240" fill="rgb(0,0,0)" stroke="rgb(0,0,0)">C</text>
<line style="fill:none;stroke-width:1" stroke="rgb(0,0,0)" x1="408" y1="202" x2="452" y2="164"/> <circle style="stroke-width:1" cx="408" cy="202" r="12" fill="rgb(255,255,255)" stroke="rgb(0,0,0)"/> <text x="400" y="210" fill="rgb(0,0,0)" stroke="rgb(0,0,0)">U</text>
<line style="fill:none;stroke-width:1" stroke="rgb(0,0,0)" x1="452" y1="164" x2="511" y2="162"/> <line style="fill:none;stroke-width:1" stroke="rgb(0,0,0)" x1="452" y1="164" x2="412" y2="60"/> <rect x="397" y="48" width="30" height="24" fill="rgb(255,255,255)" stroke="rgb(255,255,255)"/> <text x="397" y="68" fill="rgb(0,0,0)" stroke="rgb(0,0,0)">30</text> <circle style="stroke-width:1" cx="452" cy="164" r="12" fill="rgb(255,255,255)" stroke="rgb(0,0,0)"/> <text x="444" y="172" fill="rgb(0,0,0)" stroke="rgb(0,0,0)">C</text>
<line style="fill:none;stroke-width:1" stroke="rgb(0,0,0)" x1="511" y1="162" x2="559" y2="196"/> <circle style="stroke-width:1" cx="511" cy="162" r="12" fill="rgb(255,255,255)" stroke="rgb(0,0,0)"/> <text x="503" y="170" fill="rgb(0,0,0)" stroke="rgb(0,0,0)">C</text>
<line style="fill:none;stroke-width:1" stroke="rgb(0,0,0)" x1="559" y1="196" x2="576" y2="224"/> <circle style="stroke-width:1" cx="559" cy="196" r="12" fill="rgb(255,255,255)" stroke="rgb(0,0,0)"/> <text x="551" y="204" fill="rgb(0,0,0)" stroke="rgb(0,0,0)">U</text>
<line style="fill:none;stroke-width:1" stroke="rgb(0,0,0)" x1="576" y1="224" x2="607" y2="225"/> <circle style="stroke-width:1" cx="576" cy="224" r="12" fill="rgb(255,255,255)" stroke="rgb(0,0,0)"/> <text x="568" y="232" fill="rgb(0,0,0)" stroke="rgb(0,0,0)">G</text>
<line style="fill:none;stroke-width:1" stroke="rgb(0,0,0)" x1="607" y1="225" x2="638" y2="226"/> <circle style="stroke-width:1" cx="607" cy="225" r="12" fill="rgb(255,255,255)" stroke="rgb(0,0,0)"/> <text x="599" y="233" fill="rgb(0,0,0)" stroke="rgb(0,0,0)">G</text>
<line style="fill:none;stroke-width:1" stroke="rgb(0,0,0)" x1="638" y1="226" x2="669" y2="227"/> <circle style="stroke-width:1" cx="638" cy="226" r="12" fill="rgb(255,255,255)" stroke="rgb(0,0,0)"/> <text x="630" y="234" fill="rgb(0,0,0)" stroke="rgb(0,0,0)">U</text>
<line style="fill:none;stroke-width:1" stroke="rgb(0,0,0)" x1="669" y1="227" x2="700" y2="228"/> <circle style="stroke-width:1" cx="669" cy="227" r="12" fill="rgb(255,255,255)" stroke="rgb(0,0,0)"/> <text x="661" y="235" fill="rgb(0,0,0)" stroke="rgb(0,0,0)">G</text>
<line style="fill:none;stroke-width:1" stroke="rgb(0,0,0)" x1="700" y1="228" x2="736" y2="202"/> <circle style="stroke-width:1" cx="700" cy="228" r="12" fill="rgb(255,255,255)" stroke="rgb(0,0,0)"/> <text x="692" y="236" fill="rgb(0,0,0)" stroke="rgb(0,0,0)">G</text>
<line style="fill:none;stroke-width:1" stroke="rgb(0,0,0)" x1="736" y1="202" x2="799" y2="207"/> <circle style="stroke-width:1" cx="736" cy="202" r="12" fill="rgb(255,255,255)" stroke="rgb(0,0,0)"/> <text x="728" y="210" fill="rgb(0,0,0)" stroke="rgb(0,0,0)">C</text>
<line style="fill:none;stroke-width:1" stroke="rgb(0,0,0)" x1="799" y1="207" x2="827" y2="237"/> <circle style="stroke-width:1" cx="799" cy="207" r="12" fill="rgb(255,255,255)" stroke="rgb(0,0,0)"/> <text x="791" y="215" fill="rgb(0,0,0)" stroke="rgb(0,0,0)">U</text>
<line style="fill:none;stroke-width:1" stroke="rgb(0,0,0)" x1="827" y1="237" x2="858" y2="240"/> <line style="fill:none;stroke-width:1" stroke="rgb(0,0,0)" x1="827" y1="237" x2="840" y2="126"/> <rect x="825" y="114" width="30" height="24" fill="rgb(255,255,255)" stroke="rgb(255,255,255)"/> <text x="825" y="134" fill="rgb(0,0,0)" stroke="rgb(0,0,0)">40</text> <circle style="stroke-width:1" cx="827" cy="237" r="12" fill="rgb(255,255,255)" stroke="rgb(0,0,0)"/> <text x="819" y="245" fill="rgb(0,0,0)" stroke="rgb(0,0,0)">G</text>
<line style="fill:none;stroke-width:1" stroke="rgb(0,0,0)" x1="858" y1="240" x2="889" y2="243"/> <circle style="stroke-width:1" cx="858" cy="240" r="12" fill="rgb(255,255,255)" stroke="rgb(0,0,0)"/> <text x="850" y="248" fill="rgb(0,0,0)" stroke="rgb(0,0,0)">U</text>
<line style="fill:none;stroke-width:1" stroke="rgb(0,0,0)" x1="889" y1="243" x2="920" y2="246"/> <circle style="stroke-width:1" cx="889" cy="243" r="12" fill="rgb(255,255,255)" stroke="rgb(0,0,0)"/> <text x="881" y="251" fill="rgb(0,0,0)" stroke="rgb(0,0,0)">G</text>
<line style="fill:none;stroke-width:1" stroke="rgb(0,0,0)" x1="920" y1="246" x2="1010" y2="255"/> <circle style="stroke-width:1" cx="920" cy="246" r="12" fill="rgb(255,255,255)" stroke="rgb(0,0,0)"/> <text x="912" y="254" fill="rgb(0,0,0)" stroke="rgb(0,0,0)">C</text>
<line style="fill:none;stroke-width:1" stroke="rgb(0,0,0)" x1="1010" y1="255" x2="1040" y2="308"/> <circle style="stroke-width:1" cx="1010" cy="255" r="12" fill="rgb(255,255,255)" stroke="rgb(0,0,0)"/> <text x="1002" y="263" fill="rgb(0,0,0)" stroke="rgb(0,0,0)">U</text>
<line style="fill:none;stroke-width:1" stroke="rgb(0,0,0)" x1="1040" y1="308" x2="1071" y2="308"/> <circle style="stroke-width:1" cx="1040" cy="308" r="12" fill="rgb(255,255,255)" stroke="rgb(0,0,0)"/> <text x="1032" y="316" fill="rgb(0,0,0)" stroke="rgb(0,0,0)">G</text>
<line style="fill:none;stroke-width:1" stroke="rgb(0,0,0)" x1="1071" y1="308" x2="1083" y2="281"/> <circle style="stroke-width:1" cx="1071" cy="308" r="12" fill="rgb(255,255,255)" stroke="rgb(0,0,0)"/> <text x="1063" y="316" fill="rgb(0,0,0)" stroke="rgb(0,0,0)">C</text>
<line style="fill:none;stroke-width:1" stroke="rgb(0,0,0)" x1="1083" y1="281" x2="1118" y2="237"/> <circle style="stroke-width:1" cx="1083" cy="281" r="12" fill="rgb(255,255,255)" stroke="rgb(0,0,0)"/> <text x="1075" y="289" fill="rgb(0,0,0)" stroke="rgb(0,0,0)">U</text>
<line style="fill:none;stroke-width:1" stroke="rgb(0,0,0)" x1="1118" y1="237" x2="1169" y2="213"/> <circle style="stroke-width:1" cx="1118" cy="237" r="12" fill="rgb(255,255,255)" stroke="rgb(0,0,0)"/> <text x="1110" y="245" fill="rgb(0,0,0)" stroke="rgb(0,0,0)">G</text>
<line style="fill:none;stroke-width:1" stroke="rgb(0,0,0)" x1="1169" y1="213" x2="1225" y2="213"/> <circle style="stroke-width:1" cx="1169" cy="213" r="12" fill="rgb(255,255,255)" stroke="rgb(0,0,0)"/> <text x="1161" y="221" fill="rgb(0,0,0)" stroke="rgb(0,0,0)">C</text>
<line style="fill:none;stroke-width:1" stroke="rgb(0,0,0)" x1="1225" y1="213" x2="1276" y2="237"/> <line style="fill:none;stroke-width:1" stroke="rgb(0,0,0)" x1="1225" y1="213" x2="1249" y2="104"/> <rect x="1234" y="92" width="30" height="24" fill="rgb(255,255,255)" stroke="rgb(255,255,255)"/> <text x="1234" y="112" fill="rgb(0,0,0)" stroke="rgb(0,0,0)">50</text> <circle style="stroke-width:1" cx="1225" cy="213" r="12" fill="rgb(255,255,255)" stroke="rgb(0,0,0)"/> <text x="1217" y="221" fill="rgb(0,0,0)" stroke="rgb(0,0,0)">U</text>
<line style="fill:none;stroke-width:1" stroke="rgb(0,0,0)" x1="1276" y1="237" x2="1311" y2="281"/> <circle style="stroke-width:1" cx="1276" cy="237" r="12" fill="rgb(255,255,255)" stroke="rgb(0,0,0)"/> <text x="1268" y="245" fill="rgb(0,0,0)" stroke="rgb(0,0,0)">G</text>
<line style="fill:none;stroke-width:1" stroke="rgb(0,0,0)" x1="1311" y1="281" x2="1324" y2="308"/> <circle style="stroke-width:1" cx="1311" cy="281" r="12" fill="rgb(255,255,255)" stroke="rgb(0,0,0)"/> <text x="1303" y="289" fill="rgb(0,0,0)" stroke="rgb(0,0,0)">U</text>
<line style="fill:none;stroke-width:1" stroke="rgb(0,0,0)" x1="1324" y1="308" x2="1355" y2="308"/> <circle style="stroke-width:1" cx="1324" cy="308" r="12" fill="rgb(255,255,255)" stroke="rgb(0,0,0)"/> <text x="1316" y="316" fill="rgb(0,0,0)" stroke="rgb(0,0,0)">G</text>
<line style="fill:none;stroke-width:1" stroke="rgb(0,0,0)" x1="1355" y1="308" x2="1386" y2="308"/> <circle style="stroke-width:1" cx="1355" cy="308" r="12" fill="rgb(255,255,255)" stroke="rgb(0,0,0)"/> <text x="1347" y="316" fill="rgb(0,0,0)" stroke="rgb(0,0,0)">A</text>
<line style="fill:none;stroke-width:1" stroke="rgb(0,0,0)" x1="1386" y1="308" x2="1417" y2="308"/> <circle style="stroke-width:1" cx="1386" cy="308" r="12" fill="rgb(255,255,255)" stroke="rgb(0,0,0)"/> <text x="1378" y="316" fill="rgb(0,0,0)" stroke="rgb(0,0,0)">G</text>
<line style="fill:none;stroke-width:1" stroke="rgb(0,0,0)" x1="1417" y1="308" x2="1448" y2="308"/> <circle style="stroke-width:1" cx="1417" cy="308" r="12" fill="rgb(255,255,255)" stroke="rgb(0,0,0)"/> <text x="1409" y="316" fill="rgb(0,0,0)" stroke="rgb(0,0,0)">C</text>
<line style="fill:none;stroke-width:1" stroke="rgb(0,0,0)" x1="1448" y1="308" x2="1479" y2="308"/> <circle style="stroke-width:1" cx="1448" cy="308" r="12" fill="rgb(255,255,255)" stroke="rgb(0,0,0)"/> <text x="1440" y="316" fill="rgb(0,0,0)" stroke="rgb(0,0,0)">G</text>
<line style="fill:none;stroke-width:1" stroke="rgb(0,0,0)" x1="1479" y1="308" x2="1518" y2="297"/> <circle style="stroke-width:1" cx="1479" cy="308" r="12" fill="rgb(255,255,255)" stroke="rgb(0,0,0)"/> <text x="1471" y="316" fill="rgb(0,0,0)" stroke="rgb(0,0,0)">G</text>
<line style="fill:none;stroke-width:1" stroke="rgb(0,0,0)" x1="1518" y1="297" x2="1552" y2="316"/> <circle style="stroke-width:1" cx="1518" cy="297" r="12" fill="rgb(255,255,255)" stroke="rgb(0,0,0)"/> <text x="1510" y="305" fill="rgb(0,0,0)" stroke="rgb(0,0,0)">G</text>
<line style="fill:none;stroke-width:1" stroke="rgb(0,0,0)" x1="1552" y1="316" x2="1552" y2="356"/> <line style="fill:none;stroke-width:1" stroke="rgb(0,0,0)" x1="1552" y1="316" x2="1648" y2="260"/> <rect x="1633" y="248" width="30" height="24" fill="rgb(255,255,255)" stroke="rgb(255,255,255)"/> <text x="1633" y="268" fill="rgb(0,0,0)" stroke="rgb(0,0,0)">60</text> <circle style="stroke-width:1" cx="1552" cy="316" r="12" fill="rgb(255,255,255)" stroke="rgb(0,0,0)"/> <text x="1544" y="324" fill="rgb(0,0,0)" stroke="rgb(0,0,0)">C</text>
<line style="fill:none;stroke-width:1" stroke="rgb(0,0,0)" x1="1552" y1="356" x2="1518" y2="375"/> <circle style="stroke-width:1" cx="1552" cy="356" r="12" fill="rgb(255,255,255)" stroke="rgb(0,0,0)"/> <text x="1544" y="364" fill="rgb(0,0,0)" stroke="rgb(0,0,0)">C</text>
<line style="fill:none;stroke-width:1" stroke="rgb(0,0,0)" x1="1518" y1="375" x2="1479" y2="363"/> <circle style="stroke-width:1" cx="1518" cy="375" r="12" fill="rgb(255,255,255)" stroke="rgb(0,0,0)"/> <text x="1510" y="383" fill="rgb(0,0,0)" stroke="rgb(0,0,0)">C</text>
<line style="fill:none;stroke-width:1" stroke="rgb(0,0,0)" x1="1479" y1="363" x2="1448" y2="363"/> <circle style="stroke-width:1" cx="1479" cy="363" r="12" fill="rgb(255,255,255)" stroke="rgb(0,0,0)"/> <text x="1471" y="371" fill="rgb(0,0,0)" stroke="rgb(0,0,0)">C</text>
<line style="fill:none;stroke-width:1" stroke="rgb(0,0,0)" x1="1448" y1="363" x2="1417" y2="363"/> <circle style="stroke-width:1" cx="1448" cy="363" r="12" fill="rgb(255,255,255)" stroke="rgb(0,0,0)"/> <text x="1440" y="371" fill="rgb(0,0,0)" stroke="rgb(0,0,0)">U</text>
<line style="fill:none;stroke-width:1" stroke="rgb(0,0,0)" x1="1417" y1="363" x2="1386" y2="363"/> <circle style="stroke-width:1" cx="1417" cy="363" r="12" fill="rgb(255,255,255)" stroke="rgb(0,0,0)"/> <text x="1409" y="371" fill="rgb(0,0,0)" stroke="rgb(0,0,0)">G</text>
<line style="fill:none;stroke-width:1" stroke="rgb(0,0,0)" x1="1386" y1="363" x2="1355" y2="363"/> <circle style="stroke-width:1" cx="1386" cy="363" r="12" fill="rgb(255,255,255)" stroke="rgb(0,0,0)"/> <text x="1378" y="371" fill="rgb(0,0,0)" stroke="rgb(0,0,0)">C</text>
<line style="fill:none;stroke-width:1" stroke="rgb(0,0,0)" x1="1355" y1="363" x2="1324" y2="363"/> <circle style="stroke-width:1" cx="1355" cy="363" r="12" fill="rgb(255,255,255)" stroke="rgb(0,0,0)"/> <text x="1347" y="371" fill="rgb(0,0,0)" stroke="rgb(0,0,0)">U</text>
<line style="fill:none;stroke-width:1" stroke="rgb(0,0,0)" x1="1324" y1="363" x2="1311" y2="390"/> <circle style="stroke-width:1" cx="1324" cy="363" r="12" fill="rgb(255,255,255)" stroke="rgb(0,0,0)"/> <text x="1316" y="371" fill="rgb(0,0,0)" stroke="rgb(0,0,0)">C</text>
<line style="fill:none;stroke-width:1" stroke="rgb(0,0,0)" x1="1311" y1="390" x2="1276" y2="434"/> <circle style="stroke-width:1" cx="1311" cy="390" r="12" fill="rgb(255,255,255)" stroke="rgb(0,0,0)"/> <text x="1303" y="398" fill="rgb(0,0,0)" stroke="rgb(0,0,0)">C</text>
<line style="fill:none;stroke-width:1" stroke="rgb(0,0,0)" x1="1276" y1="434" x2="1225" y2="459"/> <line style="fill:none;stroke-width:1" stroke="rgb(0,0,0)" x1="1276" y1="434" x2="1345" y2="521"/> <rect x="1330" y="509" width="30" height="24" fill="rgb(255,255,255)" stroke="rgb(255,255,255)"/> <text x="1330" y="529" fill="rgb(0,0,0)" stroke="rgb(0,0,0)">70</text> <circle style="stroke-width:1" cx="1276" cy="434" r="12" fill="rgb(255,255,255)" stroke="rgb(0,0,0)"/> <text x="1268" y="442" fill="rgb(0,0,0)" stroke="rgb(0,0,0)">U</text>
<line style="fill:none;stroke-width:1" stroke="rgb(0,0,0)" x1="1225" y1="459" x2="1169" y2="459"/> <circle style="stroke-width:1" cx="1225" cy="459" r="12" fill="rgb(255,255,255)" stroke="rgb(0,0,0)"/> <text x="1217" y="467" fill="rgb(0,0,0)" stroke="rgb(0,0,0)">C</text>
<line style="fill:none;stroke-width:1" stroke="rgb(0,0,0)" x1="1169" y1="459" x2="1118" y2="434"/> <circle style="stroke-width:1" cx="1169" cy="459" r="12" fill="rgb(255,255,255)" stroke="rgb(0,0,0)"/> <text x="1161" y="467" fill="rgb(0,0,0)" stroke="rgb(0,0,0)">C</text>
<line style="fill:none;stroke-width:1" stroke="rgb(0,0,0)" x1="1118" y1="434" x2="1083" y2="390"/> <circle style="stroke-width:1" cx="1118" cy="434" r="12" fill="rgb(255,255,255)" stroke="rgb(0,0,0)"/> <text x="1110" y="442" fill="rgb(0,0,0)" stroke="rgb(0,0,0)">A</text>
<line style="fill:none;stroke-width:1" stroke="rgb(0,0,0)" x1="1083" y1="390" x2="1071" y2="363"/> <circle style="stroke-width:1" cx="1083" cy="390" r="12" fill="rgb(255,255,255)" stroke="rgb(0,0,0)"/> <text x="1075" y="398" fill="rgb(0,0,0)" stroke="rgb(0,0,0)">U</text>
<line style="fill:none;stroke-width:1" stroke="rgb(0,0,0)" x1="1071" y1="363" x2="1040" y2="363"/> <circle style="stroke-width:1" cx="1071" cy="363" r="12" fill="rgb(255,255,255)" stroke="rgb(0,0,0)"/> <text x="1063" y="371" fill="rgb(0,0,0)" stroke="rgb(0,0,0)">G</text>
<line style="fill:none;stroke-width:1" stroke="rgb(0,0,0)" x1="1040" y1="363" x2="1031" y2="340"/> <circle style="stroke-width:1" cx="1040" cy="363" r="12" fill="rgb(255,255,255)" stroke="rgb(0,0,0)"/> <text x="1032" y="371" fill="rgb(0,0,0)" stroke="rgb(0,0,0)">C</text>
<line style="fill:none;stroke-width:1" stroke="rgb(0,0,0)" x1="1031" y1="340" x2="1021" y2="353"/> <circle style="stroke-width:1" cx="1031" cy="340" r="12" fill="rgb(255,255,255)" stroke="rgb(0,0,0)"/> <text x="1023" y="348" fill="rgb(0,0,0)" stroke="rgb(0,0,0)">C</text>
<line style="fill:none;stroke-width:1" stroke="rgb(0,0,0)" x1="1021" y1="353" x2="1008" y2="363"/> <circle style="stroke-width:1" cx="1021" cy="353" r="12" fill="rgb(255,255,255)" stroke="rgb(0,0,0)"/> <text x="1013" y="361" fill="rgb(0,0,0)" stroke="rgb(0,0,0)">C</text>
<line style="fill:none;stroke-width:1" stroke="rgb(0,0,0)" x1="1008" y1="363" x2="993" y2="369"/> <circle style="stroke-width:1" cx="1008" cy="363" r="12" fill="rgb(255,255,255)" stroke="rgb(0,0,0)"/> <text x="1000" y="371" fill="rgb(0,0,0)" stroke="rgb(0,0,0)">C</text>
<line style="fill:none;stroke-width:1" stroke="rgb(0,0,0)" x1="993" y1="369" x2="1021" y2="477"/> <rect x="1006" y="465" width="30" height="24" fill="rgb(255,255,255)" stroke="rgb(255,255,255)"/> <text x="1006" y="485" fill="rgb(0,0,0)" stroke="rgb(0,0,0)">80</text> <circle style="stroke-width:1" cx="993" cy="369" r="12" fill="rgb(255,255,255)" stroke="rgb(0,0,0)"/> <text x="985" y="377" fill="rgb(0,0,0)" stroke="rgb(0,0,0)">C</text>
</g>
<g font-size="16">
<text x="36" y="892" fill="rgb(0,0,0)" stroke="rgb(0,0,0)">ENERGY = -29.3  ENST00000316673.9</text>
</g>
</svg>
