<?xml version="1.0" encoding="UTF-8" standalone="no"?>
<!DOCTYPE svg PUBLIC "-//W3C//DTD SVG 1.1//EN" "http://www.w3.org/Graphics/SVG/1.1/DTD/svg11.dtd">
<svg xmlns="http://www.w3.org/2000/svg" xmlns:xlink="http://www.w3.org/1999/xlink" xml:space="preserve" font-family="monospace" font-size="24" fill="rgb(255,255,255)" stroke="rgb(0,0,0)" viewBox="0 0 790 905">
<g transform="scale(0.476803)">
<path style="fill:none;stroke-width:3" stroke="rgb(0,0,0)" d="M310,1578 Q287,1563 264,1548"/>
<path style="fill:none;stroke-width:3" stroke="rgb(0,0,0)" d="M293,1604 Q270,1589 247,1574"/>
<path style="fill:none;stroke-width:3" stroke="rgb(0,0,0)" d="M450,1078 Q477.5,1077 505,1076"/>
<path style="fill:none;stroke-width:3" stroke="rgb(0,0,0)" d="M449,1047 Q476.5,1046 504,1045"/>
<path style="fill:none;stroke-width:3" stroke="rgb(0,0,0)" d="M448,1016 Q475.5,1015 503,1014"/>
<path style="fill:none;stroke-width:3" stroke="rgb(0,0,0)" d="M447,985 Q474.5,984 502,983"/>
<path style="fill:none;stroke-width:3" stroke="rgb(0,0,0)" d="M442,859 Q469.5,858 497,857"/>
<path style="fill:none;stroke-width:3" stroke="rgb(0,0,0)" d="M441,828 Q468.5,827 496,826"/>
<path style="fill:none;stroke-width:3" stroke="rgb(0,0,0)" d="M440,797 Q467.5,796 495,795"/>
<path style="fill:none;stroke-width:3" stroke="rgb(0,0,0)" d="M439,766 Q466.5,765 494,764"/>
<path style="fill:none;stroke-width:3" stroke="rgb(0,0,0)" d="M438,735 Q465.5,734 493,733"/>
<path style="fill:none;stroke-width:3" stroke="rgb(0,0,0)" d="M437,704 Q464.5,703 492,702"/>
<path style="fill:none;stroke-width:3" stroke="rgb(0,0,0)" d="M436,673 Q463.5,672 491,671"/>
<path style="fill:none;stroke-width:3" stroke="rgb(0,0,0)" d="M434,577 Q461.5,577 489,577"/>
<path style="fill:none;stroke-width:3" stroke="rgb(0,0,0)" d="M434,546 Q461.5,546 489,546"/>
<path style="fill:none;stroke-width:3" stroke="rgb(0,0,0)" d="M433,451 Q460.5,451 488,451"/>
<path style="fill:none;stroke-width:3" stroke="rgb(0,0,0)" d="M433,420 Q460.5,420 488,420"/>
<path style="fill:none;stroke-width:3" stroke="rgb(0,0,0)" d="M433,325 Q460.5,325 488,325"/>
<path style="fill:none;stroke-width:3" stroke="rgb(0,0,0)" d="M433,294 Q460.5,294 488,294"/>
<line style="fill:none;stroke-width:1" stroke="rgb(0,0,0)" x1="382" y1="1612" x2="345" y2="1597"/> <circle style="stroke-width:1" cx="382" cy="1612" r="12" fill="rgb(255,255,255)" stroke="rgb(0,0,0)"/> <text x="374" y="1620" fill="rgb(0,0,0)" stroke="rgb(0,0,0)">C</text>
<line style="fill:none;stroke-width:1" stroke="rgb(0,0,0)" x1="345" y1="1597" x2="310" y2="1578"/> <circle style="stroke-width:1" cx="345" cy="1597" r="12" fill="rgb(255,255,255)" stroke="rgb(0,0,0)"/> <text x="337" y="1605" fill="rgb(0,0,0)" stroke="rgb(0,0,0)">U</text>
<line style="fill:none;stroke-width:1" stroke="rgb(0,0,0)" x1="310" y1="1578" x2="293" y2="1604"/> <circle style="stroke-width:1" cx="310" cy="1578" r="12" fill="rgb(255,255,255)" stroke="rgb(0,0,0)"/> <text x="302" y="1586" fill="rgb(0,0,0)" stroke="rgb(0,0,0)">C</text>
<line style="fill:none;stroke-width:1" stroke="rgb(0,0,0)" x1="293" y1="1604" x2="297" y2="1641"/> <circle style="stroke-width:1" cx="293" cy="1604" r="12" fill="rgb(255,255,255)" stroke="rgb(0,0,0)"/> <text x="285" y="1612" fill="rgb(0,0,0)" stroke="rgb(0,0,0)">C</text>
<line style="fill:none;stroke-width:1" stroke="rgb(0,0,0)" x1="297" y1="1641" x2="280" y2="1679"/> <circle style="stroke-width:1" cx="297" cy="1641" r="12" fill="rgb(255,255,255)" stroke="rgb(0,0,0)"/> <text x="289" y="1649" fill="rgb(0,0,0)" stroke="rgb(0,0,0)">U</text>
<line style="fill:none;stroke-width:1" stroke="rgb(0,0,0)" x1="280" y1="1679" x2="244" y2="1697"/> <circle style="stroke-width:1" cx="280" cy="1679" r="12" fill="rgb(255,255,255)" stroke="rgb(0,0,0)"/> <text x="272" y="1687" fill="rgb(0,0,0)" stroke="rgb(0,0,0)">U</text>
<line style="fill:none;stroke-width:1" stroke="rgb(0,0,0)" x1="244" y1="1697" x2="204" y2="1687"/> <circle style="stroke-width:1" cx="244" cy="1697" r="12" fill="rgb(255,255,255)" stroke="rgb(0,0,0)"/> <text x="236" y="1705" fill="rgb(0,0,0)" stroke="rgb(0,0,0)">G</text>
<line style="fill:none;stroke-width:1" stroke="rgb(0,0,0)" x1="204" y1="1687" x2="180" y2="1654"/> <circle style="stroke-width:1" cx="204" cy="1687" r="12" fill="rgb(255,255,255)" stroke="rgb(0,0,0)"/> <text x="196" y="1695" fill="rgb(0,0,0)" stroke="rgb(0,0,0)">U</text>
<line style="fill:none;stroke-width:1" stroke="rgb(0,0,0)" x1="180" y1="1654" x2="183" y2="1615"/> <circle style="stroke-width:1" cx="180" cy="1654" r="12" fill="rgb(255,255,255)" stroke="rgb(0,0,0)"/> <text x="172" y="1662" fill="rgb(0,0,0)" stroke="rgb(0,0,0)">C</text>
<line style="fill:none;stroke-width:1" stroke="rgb(0,0,0)" x1="183" y1="1615" x2="211" y2="1585"/> <line style="fill:none;stroke-width:1" stroke="rgb(0,0,0)" x1="183" y1="1615" x2="81" y2="1570"/> <rect x="66" y="1558" width="30" height="24" fill="rgb(255,255,255)" stroke="rgb(255,255,255)"/> <text x="66" y="1578" fill="rgb(0,0,0)" stroke="rgb(0,0,0)">10</text> <circle style="stroke-width:1" cx="183" cy="1615" r="12" fill="rgb(255,255,255)" stroke="rgb(0,0,0)"/> <text x="175" y="1623" fill="rgb(0,0,0)" stroke="rgb(0,0,0)">U</text>
<line style="fill:none;stroke-width:1" stroke="rgb(0,0,0)" x1="211" y1="1585" x2="247" y2="1574"/> <circle style="stroke-width:1" cx="211" cy="1585" r="12" fill="rgb(255,255,255)" stroke="rgb(0,0,0)"/> <text x="203" y="1593" fill="rgb(0,0,0)" stroke="rgb(0,0,0)">C</text>
<line style="fill:none;stroke-width:1" stroke="rgb(0,0,0)" x1="247" y1="1574" x2="264" y2="1548"/> <circle style="stroke-width:1" cx="247" cy="1574" r="12" fill="rgb(255,255,255)" stroke="rgb(0,0,0)"/> <text x="239" y="1582" fill="rgb(0,0,0)" stroke="rgb(0,0,0)">G</text>
<line style="fill:none;stroke-width:1" stroke="rgb(0,0,0)" x1="264" y1="1548" x2="252" y2="1176"/> <circle style="stroke-width:1" cx="264" cy="1548" r="12" fill="rgb(255,255,255)" stroke="rgb(0,0,0)"/> <text x="256" y="1556" fill="rgb(0,0,0)" stroke="rgb(0,0,0)">G</text>
<line style="fill:none;stroke-width:1" stroke="rgb(0,0,0)" x1="252" y1="1176" x2="450" y2="1078"/> <circle style="stroke-width:1" cx="252" cy="1176" r="12" fill="rgb(255,255,255)" stroke="rgb(0,0,0)"/> <text x="244" y="1184" fill="rgb(0,0,0)" stroke="rgb(0,0,0)">C</text>
<line style="fill:none;stroke-width:1" stroke="rgb(0,0,0)" x1="450" y1="1078" x2="449" y2="1047"/> <circle style="stroke-width:1" cx="450" cy="1078" r="12" fill="rgb(255,255,255)" stroke="rgb(0,0,0)"/> <text x="442" y="1086" fill="rgb(0,0,0)" stroke="rgb(0,0,0)">C</text>
<line style="fill:none;stroke-width:1" stroke="rgb(0,0,0)" x1="449" y1="1047" x2="448" y2="1016"/> <circle style="stroke-width:1" cx="449" cy="1047" r="12" fill="rgb(255,255,255)" stroke="rgb(0,0,0)"/> <text x="441" y="1055" fill="rgb(0,0,0)" stroke="rgb(0,0,0)">G</text>
<line style="fill:none;stroke-width:1" stroke="rgb(0,0,0)" x1="448" y1="1016" x2="447" y2="985"/> <circle style="stroke-width:1" cx="448" cy="1016" r="12" fill="rgb(255,255,255)" stroke="rgb(0,0,0)"/> <text x="440" y="1024" fill="rgb(0,0,0)" stroke="rgb(0,0,0)">A</text>
<line style="fill:none;stroke-width:1" stroke="rgb(0,0,0)" x1="447" y1="985" x2="419" y2="955"/> <circle style="stroke-width:1" cx="447" cy="985" r="12" fill="rgb(255,255,255)" stroke="rgb(0,0,0)"/> <text x="439" y="993" fill="rgb(0,0,0)" stroke="rgb(0,0,0)">U</text>
<line style="fill:none;stroke-width:1" stroke="rgb(0,0,0)" x1="419" y1="955" x2="417" y2="892"/> <circle style="stroke-width:1" cx="419" cy="955" r="12" fill="rgb(255,255,255)" stroke="rgb(0,0,0)"/> <text x="411" y="963" fill="rgb(0,0,0)" stroke="rgb(0,0,0)">C</text>
<line style="fill:none;stroke-width:1" stroke="rgb(0,0,0)" x1="417" y1="892" x2="442" y2="859"/> <line style="fill:none;stroke-width:1" stroke="rgb(0,0,0)" x1="417" y1="892" x2="318" y2="840"/> <rect x="303" y="828" width="30" height="24" fill="rgb(255,255,255)" stroke="rgb(255,255,255)"/> <text x="303" y="848" fill="rgb(0,0,0)" stroke="rgb(0,0,0)">20</text> <circle style="stroke-width:1" cx="417" cy="892" r="12" fill="rgb(255,255,255)" stroke="rgb(0,0,0)"/> <text x="409" y="900" fill="rgb(0,0,0)" stroke="rgb(0,0,0)">A</text>
<line style="fill:none;stroke-width:1" stroke="rgb(0,0,0)" x1="442" y1="859" x2="441" y2="828"/> <circle style="stroke-width:1" cx="442" cy="859" r="12" fill="rgb(255,255,255)" stroke="rgb(0,0,0)"/> <text x="434" y="867" fill="rgb(0,0,0)" stroke="rgb(0,0,0)">G</text>
<line style="fill:none;stroke-width:1" stroke="rgb(0,0,0)" x1="441" y1="828" x2="440" y2="797"/> <circle style="stroke-width:1" cx="441" cy="828" r="12" fill="rgb(255,255,255)" stroke="rgb(0,0,0)"/> <text x="433" y="836" fill="rgb(0,0,0)" stroke="rgb(0,0,0)">C</text>
<line style="fill:none;stroke-width:1" stroke="rgb(0,0,0)" x1="440" y1="797" x2="439" y2="766"/> <circle style="stroke-width:1" cx="440" cy="797" r="12" fill="rgb(255,255,255)" stroke="rgb(0,0,0)"/> <text x="432" y="805" fill="rgb(0,0,0)" stroke="rgb(0,0,0)">U</text>
<line style="fill:none;stroke-width:1" stroke="rgb(0,0,0)" x1="439" y1="766" x2="438" y2="735"/> <circle style="stroke-width:1" cx="439" cy="766" r="12" fill="rgb(255,255,255)" stroke="rgb(0,0,0)"/> <text x="431" y="774" fill="rgb(0,0,0)" stroke="rgb(0,0,0)">G</text>
<line style="fill:none;stroke-width:1" stroke="rgb(0,0,0)" x1="438" y1="735" x2="437" y2="704"/> <circle style="stroke-width:1" cx="438" cy="735" r="12" fill="rgb(255,255,255)" stroke="rgb(0,0,0)"/> <text x="430" y="743" fill="rgb(0,0,0)" stroke="rgb(0,0,0)">G</text>
<line style="fill:none;stroke-width:1" stroke="rgb(0,0,0)" x1="437" y1="704" x2="436" y2="673"/> <circle style="stroke-width:1" cx="437" cy="704" r="12" fill="rgb(255,255,255)" stroke="rgb(0,0,0)"/> <text x="429" y="712" fill="rgb(0,0,0)" stroke="rgb(0,0,0)">G</text>
<line style="fill:none;stroke-width:1" stroke="rgb(0,0,0)" x1="436" y1="673" x2="414" y2="625"/> <circle style="stroke-width:1" cx="436" cy="673" r="12" fill="rgb(255,255,255)" stroke="rgb(0,0,0)"/> <text x="428" y="681" fill="rgb(0,0,0)" stroke="rgb(0,0,0)">U</text>
<line style="fill:none;stroke-width:1" stroke="rgb(0,0,0)" x1="414" y1="625" x2="434" y2="577"/> <circle style="stroke-width:1" cx="414" cy="625" r="12" fill="rgb(255,255,255)" stroke="rgb(0,0,0)"/> <text x="406" y="633" fill="rgb(0,0,0)" stroke="rgb(0,0,0)">G</text>
<line style="fill:none;stroke-width:1" stroke="rgb(0,0,0)" x1="434" y1="577" x2="434" y2="546"/> <circle style="stroke-width:1" cx="434" cy="577" r="12" fill="rgb(255,255,255)" stroke="rgb(0,0,0)"/> <text x="426" y="585" fill="rgb(0,0,0)" stroke="rgb(0,0,0)">A</text>
<line style="fill:none;stroke-width:1" stroke="rgb(0,0,0)" x1="434" y1="546" x2="415" y2="499"/> <line style="fill:none;stroke-width:1" stroke="rgb(0,0,0)" x1="434" y1="546" x2="323" y2="546"/> <rect x="308" y="534" width="30" height="24" fill="rgb(255,255,255)" stroke="rgb(255,255,255)"/> <text x="308" y="554" fill="rgb(0,0,0)" stroke="rgb(0,0,0)">30</text> <circle style="stroke-width:1" cx="434" cy="546" r="12" fill="rgb(255,255,255)" stroke="rgb(0,0,0)"/> <text x="426" y="554" fill="rgb(0,0,0)" stroke="rgb(0,0,0)">G</text>
<line style="fill:none;stroke-width:1" stroke="rgb(0,0,0)" x1="415" y1="499" x2="433" y2="451"/> <circle style="stroke-width:1" cx="415" cy="499" r="12" fill="rgb(255,255,255)" stroke="rgb(0,0,0)"/> <text x="407" y="507" fill="rgb(0,0,0)" stroke="rgb(0,0,0)">C</text>
<line style="fill:none;stroke-width:1" stroke="rgb(0,0,0)" x1="433" y1="451" x2="433" y2="420"/> <circle style="stroke-width:1" cx="433" cy="451" r="12" fill="rgb(255,255,255)" stroke="rgb(0,0,0)"/> <text x="425" y="459" fill="rgb(0,0,0)" stroke="rgb(0,0,0)">C</text>
<line style="fill:none;stroke-width:1" stroke="rgb(0,0,0)" x1="433" y1="420" x2="414" y2="373"/> <circle style="stroke-width:1" cx="433" cy="420" r="12" fill="rgb(255,255,255)" stroke="rgb(0,0,0)"/> <text x="425" y="428" fill="rgb(0,0,0)" stroke="rgb(0,0,0)">C</text>
<line style="fill:none;stroke-width:1" stroke="rgb(0,0,0)" x1="414" y1="373" x2="433" y2="325"/> <circle style="stroke-width:1" cx="414" cy="373" r="12" fill="rgb(255,255,255)" stroke="rgb(0,0,0)"/> <text x="406" y="381" fill="rgb(0,0,0)" stroke="rgb(0,0,0)">U</text>
<line style="fill:none;stroke-width:1" stroke="rgb(0,0,0)" x1="433" y1="325" x2="433" y2="294"/> <circle style="stroke-width:1" cx="433" cy="325" r="12" fill="rgb(255,255,255)" stroke="rgb(0,0,0)"/> <text x="425" y="333" fill="rgb(0,0,0)" stroke="rgb(0,0,0)">G</text>
<line style="fill:none;stroke-width:1" stroke="rgb(0,0,0)" x1="433" y1="294" x2="408" y2="267"/> <circle style="stroke-width:1" cx="433" cy="294" r="12" fill="rgb(255,255,255)" stroke="rgb(0,0,0)"/> <text x="425" y="302" fill="rgb(0,0,0)" stroke="rgb(0,0,0)">G</text>
<line style="fill:none;stroke-width:1" stroke="rgb(0,0,0)" x1="408" y1="267" x2="395" y2="229"/> <circle style="stroke-width:1" cx="408" cy="267" r="12" fill="rgb(255,255,255)" stroke="rgb(0,0,0)"/> <text x="400" y="275" fill="rgb(0,0,0)" stroke="rgb(0,0,0)">A</text>
<line style="fill:none;stroke-width:1" stroke="rgb(0,0,0)" x1="395" y1="229" x2="408" y2="190"/> <circle style="stroke-width:1" cx="395" cy="229" r="12" fill="rgb(255,255,255)" stroke="rgb(0,0,0)"/> <text x="387" y="237" fill="rgb(0,0,0)" stroke="rgb(0,0,0)">A</text>
<line style="fill:none;stroke-width:1" stroke="rgb(0,0,0)" x1="408" y1="190" x2="440" y2="166"/> <circle style="stroke-width:1" cx="408" cy="190" r="12" fill="rgb(255,255,255)" stroke="rgb(0,0,0)"/> <text x="400" y="198" fill="rgb(0,0,0)" stroke="rgb(0,0,0)">C</text>
<line style="fill:none;stroke-width:1" stroke="rgb(0,0,0)" x1="440" y1="166" x2="481" y2="166"/> <line style="fill:none;stroke-width:1" stroke="rgb(0,0,0)" x1="440" y1="166" x2="406" y2="60"/> <rect x="391" y="48" width="30" height="24" fill="rgb(255,255,255)" stroke="rgb(255,255,255)"/> <text x="391" y="68" fill="rgb(0,0,0)" stroke="rgb(0,0,0)">40</text> <circle style="stroke-width:1" cx="440" cy="166" r="12" fill="rgb(255,255,255)" stroke="rgb(0,0,0)"/> <text x="432" y="174" fill="rgb(0,0,0)" stroke="rgb(0,0,0)">U</text>
<line style="fill:none;stroke-width:1" stroke="rgb(0,0,0)" x1="481" y1="166" x2="514" y2="190"/> <circle style="stroke-width:1" cx="481" cy="166" r="12" fill="rgb(255,255,255)" stroke="rgb(0,0,0)"/> <text x="473" y="174" fill="rgb(0,0,0)" stroke="rgb(0,0,0)">G</text>
<line style="fill:none;stroke-width:1" stroke="rgb(0,0,0)" x1="514" y1="190" x2="526" y2="229"/> <circle style="stroke-width:1" cx="514" cy="190" r="12" fill="rgb(255,255,255)" stroke="rgb(0,0,0)"/> <text x="506" y="198" fill="rgb(0,0,0)" stroke="rgb(0,0,0)">G</text>
<line style="fill:none;stroke-width:1" stroke="rgb(0,0,0)" x1="526" y1="229" x2="514" y2="267"/> <circle style="stroke-width:1" cx="526" cy="229" r="12" fill="rgb(255,255,255)" stroke="rgb(0,0,0)"/> <text x="518" y="237" fill="rgb(0,0,0)" stroke="rgb(0,0,0)">A</text>
<line style="fill:none;stroke-width:1" stroke="rgb(0,0,0)" x1="514" y1="267" x2="488" y2="294"/> <circle style="stroke-width:1" cx="514" cy="267" r="12" fill="rgb(255,255,255)" stroke="rgb(0,0,0)"/> <text x="506" y="275" fill="rgb(0,0,0)" stroke="rgb(0,0,0)">A</text>
<line style="fill:none;stroke-width:1" stroke="rgb(0,0,0)" x1="488" y1="294" x2="488" y2="325"/> <circle style="stroke-width:1" cx="488" cy="294" r="12" fill="rgb(255,255,255)" stroke="rgb(0,0,0)"/> <text x="480" y="302" fill="rgb(0,0,0)" stroke="rgb(0,0,0)">C</text>
<line style="fill:none;stroke-width:1" stroke="rgb(0,0,0)" x1="488" y1="325" x2="508" y2="373"/> <circle style="stroke-width:1" cx="488" cy="325" r="12" fill="rgb(255,255,255)" stroke="rgb(0,0,0)"/> <text x="480" y="333" fill="rgb(0,0,0)" stroke="rgb(0,0,0)">C</text>
<line style="fill:none;stroke-width:1" stroke="rgb(0,0,0)" x1="508" y1="373" x2="488" y2="420"/> <circle style="stroke-width:1" cx="508" cy="373" r="12" fill="rgb(255,255,255)" stroke="rgb(0,0,0)"/> <text x="500" y="381" fill="rgb(0,0,0)" stroke="rgb(0,0,0)">U</text>
<line style="fill:none;stroke-width:1" stroke="rgb(0,0,0)" x1="488" y1="420" x2="488" y2="451"/> <circle style="stroke-width:1" cx="488" cy="420" r="12" fill="rgb(255,255,255)" stroke="rgb(0,0,0)"/> <text x="480" y="428" fill="rgb(0,0,0)" stroke="rgb(0,0,0)">G</text>
<line style="fill:none;stroke-width:1" stroke="rgb(0,0,0)" x1="488" y1="451" x2="509" y2="499"/> <circle style="stroke-width:1" cx="488" cy="451" r="12" fill="rgb(255,255,255)" stroke="rgb(0,0,0)"/> <text x="480" y="459" fill="rgb(0,0,0)" stroke="rgb(0,0,0)">G</text>
<line style="fill:none;stroke-width:1" stroke="rgb(0,0,0)" x1="509" y1="499" x2="489" y2="546"/> <line style="fill:none;stroke-width:1" stroke="rgb(0,0,0)" x1="509" y1="499" x2="620" y2="499"/> <rect x="605" y="487" width="30" height="24" fill="rgb(255,255,255)" stroke="rgb(255,255,255)"/> <text x="605" y="507" fill="rgb(0,0,0)" stroke="rgb(0,0,0)">50</text> <circle style="stroke-width:1" cx="509" cy="499" r="12" fill="rgb(255,255,255)" stroke="rgb(0,0,0)"/> <text x="501" y="507" fill="rgb(0,0,0)" stroke="rgb(0,0,0)">A</text>
<line style="fill:none;stroke-width:1" stroke="rgb(0,0,0)" x1="489" y1="546" x2="489" y2="577"/> <circle style="stroke-width:1" cx="489" cy="546" r="12" fill="rgb(255,255,255)" stroke="rgb(0,0,0)"/> <text x="481" y="554" fill="rgb(0,0,0)" stroke="rgb(0,0,0)">C</text>
<line style="fill:none;stroke-width:1" stroke="rgb(0,0,0)" x1="489" y1="577" x2="491" y2="671"/> <circle style="stroke-width:1" cx="489" cy="577" r="12" fill="rgb(255,255,255)" stroke="rgb(0,0,0)"/> <text x="481" y="585" fill="rgb(0,0,0)" stroke="rgb(0,0,0)">U</text>
<line style="fill:none;stroke-width:1" stroke="rgb(0,0,0)" x1="491" y1="671" x2="492" y2="702"/> <circle style="stroke-width:1" cx="491" cy="671" r="12" fill="rgb(255,255,255)" stroke="rgb(0,0,0)"/> <text x="483" y="679" fill="rgb(0,0,0)" stroke="rgb(0,0,0)">G</text>
<line style="fill:none;stroke-width:1" stroke="rgb(0,0,0)" x1="492" y1="702" x2="493" y2="733"/> <circle style="stroke-width:1" cx="492" cy="702" r="12" fill="rgb(255,255,255)" stroke="rgb(0,0,0)"/> <text x="484" y="710" fill="rgb(0,0,0)" stroke="rgb(0,0,0)">C</text>
<line style="fill:none;stroke-width:1" stroke="rgb(0,0,0)" x1="493" y1="733" x2="494" y2="764"/> <circle style="stroke-width:1" cx="493" cy="733" r="12" fill="rgb(255,255,255)" stroke="rgb(0,0,0)"/> <text x="485" y="741" fill="rgb(0,0,0)" stroke="rgb(0,0,0)">C</text>
<line style="fill:none;stroke-width:1" stroke="rgb(0,0,0)" x1="494" y1="764" x2="495" y2="795"/> <circle style="stroke-width:1" cx="494" cy="764" r="12" fill="rgb(255,255,255)" stroke="rgb(0,0,0)"/> <text x="486" y="772" fill="rgb(0,0,0)" stroke="rgb(0,0,0)">C</text>
<line style="fill:none;stroke-width:1" stroke="rgb(0,0,0)" x1="495" y1="795" x2="496" y2="826"/> <circle style="stroke-width:1" cx="495" cy="795" r="12" fill="rgb(255,255,255)" stroke="rgb(0,0,0)"/> <text x="487" y="803" fill="rgb(0,0,0)" stroke="rgb(0,0,0)">A</text>
<line style="fill:none;stroke-width:1" stroke="rgb(0,0,0)" x1="496" y1="826" x2="497" y2="857"/> <circle style="stroke-width:1" cx="496" cy="826" r="12" fill="rgb(255,255,255)" stroke="rgb(0,0,0)"/> <text x="488" y="834" fill="rgb(0,0,0)" stroke="rgb(0,0,0)">G</text>
<line style="fill:none;stroke-width:1" stroke="rgb(0,0,0)" x1="497" y1="857" x2="525" y2="887"/> <circle style="stroke-width:1" cx="497" cy="857" r="12" fill="rgb(255,255,255)" stroke="rgb(0,0,0)"/> <text x="489" y="865" fill="rgb(0,0,0)" stroke="rgb(0,0,0)">U</text>
<line style="fill:none;stroke-width:1" stroke="rgb(0,0,0)" x1="525" y1="887" x2="528" y2="951"/> <line style="fill:none;stroke-width:1" stroke="rgb(0,0,0)" x1="525" y1="887" x2="619" y2="828"/> <rect x="604" y="816" width="30" height="24" fill="rgb(255,255,255)" stroke="rgb(255,255,255)"/> <text x="604" y="836" fill="rgb(0,0,0)" stroke="rgb(0,0,0)">60</text> <circle style="stroke-width:1" cx="525" cy="887" r="12" fill="rgb(255,255,255)" stroke="rgb(0,0,0)"/> <text x="517" y="895" fill="rgb(0,0,0)" stroke="rgb(0,0,0)">G</text>
<line style="fill:none;stroke-width:1" stroke="rgb(0,0,0)" x1="528" y1="951" x2="502" y2="983"/> <circle style="stroke-width:1" cx="528" cy="951" r="12" fill="rgb(255,255,255)" stroke="rgb(0,0,0)"/> <text x="520" y="959" fill="rgb(0,0,0)" stroke="rgb(0,0,0)">U</text>
<line style="fill:none;stroke-width:1" stroke="rgb(0,0,0)" x1="502" y1="983" x2="503" y2="1014"/> <circle style="stroke-width:1" cx="502" cy="983" r="12" fill="rgb(255,255,255)" stroke="rgb(0,0,0)"/> <text x="494" y="991" fill="rgb(0,0,0)" stroke="rgb(0,0,0)">G</text>
<line style="fill:none;stroke-width:1" stroke="rgb(0,0,0)" x1="503" y1="1014" x2="504" y2="1045"/> <circle style="stroke-width:1" cx="503" cy="1014" r="12" fill="rgb(255,255,255)" stroke="rgb(0,0,0)"/> <text x="495" y="1022" fill="rgb(0,0,0)" stroke="rgb(0,0,0)">U</text>
<line style="fill:none;stroke-width:1" stroke="rgb(0,0,0)" x1="504" y1="1045" x2="505" y2="1076"/> <circle style="stroke-width:1" cx="504" cy="1045" r="12" fill="rgb(255,255,255)" stroke="rgb(0,0,0)"/> <text x="496" y="1053" fill="rgb(0,0,0)" stroke="rgb(0,0,0)">U</text>
<line style="fill:none;stroke-width:1" stroke="rgb(0,0,0)" x1="505" y1="1076" x2="550" y2="1093"/> <circle style="stroke-width:1" cx="505" cy="1076" r="12" fill="rgb(255,255,255)" stroke="rgb(0,0,0)"/> <text x="497" y="1084" fill="rgb(0,0,0)" stroke="rgb(0,0,0)">G</text>
<line style="fill:none;stroke-width:1" stroke="rgb(0,0,0)" x1="550" y1="1093" x2="596" y2="1114"/> <circle style="stroke-width:1" cx="550" cy="1093" r="12" fill="rgb(255,255,255)" stroke="rgb(0,0,0)"/> <text x="542" y="1101" fill="rgb(0,0,0)" stroke="rgb(0,0,0)">A</text>
<line style="fill:none;stroke-width:1" stroke="rgb(0,0,0)" x1="596" y1="1114" x2="638" y2="1144"/> <circle style="stroke-width:1" cx="596" cy="1114" r="12" fill="rgb(255,255,255)" stroke="rgb(0,0,0)"/> <text x="588" y="1122" fill="rgb(0,0,0)" stroke="rgb(0,0,0)">C</text>
<line style="fill:none;stroke-width:1" stroke="rgb(0,0,0)" x1="638" y1="1144" x2="673" y2="1181"/> <circle style="stroke-width:1" cx="638" cy="1144" r="12" fill="rgb(255,255,255)" stroke="rgb(0,0,0)"/> <text x="630" y="1152" fill="rgb(0,0,0)" stroke="rgb(0,0,0)">U</text>
<line style="fill:none;stroke-width:1" stroke="rgb(0,0,0)" x1="673" y1="1181" x2="701" y2="1223"/> <circle style="stroke-width:1" cx="673" cy="1181" r="12" fill="rgb(255,255,255)" stroke="rgb(0,0,0)"/> <text x="665" y="1189" fill="rgb(0,0,0)" stroke="rgb(0,0,0)">U</text>
<line style="fill:none;stroke-width:1" stroke="rgb(0,0,0)" x1="701" y1="1223" x2="721" y2="1270"/> <line style="fill:none;stroke-width:1" stroke="rgb(0,0,0)" x1="701" y1="1223" x2="799" y2="1171"/> <rect x="784" y="1159" width="30" height="24" fill="rgb(255,255,255)" stroke="rgb(255,255,255)"/> <text x="784" y="1179" fill="rgb(0,0,0)" stroke="rgb(0,0,0)">70</text> <circle style="stroke-width:1" cx="701" cy="1223" r="12" fill="rgb(255,255,255)" stroke="rgb(0,0,0)"/> <text x="693" y="1231" fill="rgb(0,0,0)" stroke="rgb(0,0,0)">U</text>
<line style="fill:none;stroke-width:1" stroke="rgb(0,0,0)" x1="721" y1="1270" x2="731" y2="1320"/> <circle style="stroke-width:1" cx="721" cy="1270" r="12" fill="rgb(255,255,255)" stroke="rgb(0,0,0)"/> <text x="713" y="1278" fill="rgb(0,0,0)" stroke="rgb(0,0,0)">A</text>
<line style="fill:none;stroke-width:1" stroke="rgb(0,0,0)" x1="731" y1="1320" x2="732" y2="1371"/> <circle style="stroke-width:1" cx="731" cy="1320" r="12" fill="rgb(255,255,255)" stroke="rgb(0,0,0)"/> <text x="723" y="1328" fill="rgb(0,0,0)" stroke="rgb(0,0,0)">U</text>
<line style="fill:none;stroke-width:1" stroke="rgb(0,0,0)" x1="732" y1="1371" x2="724" y2="1421"/> <circle style="stroke-width:1" cx="732" cy="1371" r="12" fill="rgb(255,255,255)" stroke="rgb(0,0,0)"/> <text x="724" y="1379" fill="rgb(0,0,0)" stroke="rgb(0,0,0)">A</text>
<line style="fill:none;stroke-width:1" stroke="rgb(0,0,0)" x1="724" y1="1421" x2="706" y2="1469"/> <circle style="stroke-width:1" cx="724" cy="1421" r="12" fill="rgb(255,255,255)" stroke="rgb(0,0,0)"/> <text x="716" y="1429" fill="rgb(0,0,0)" stroke="rgb(0,0,0)">A</text>
<line style="fill:none;stroke-width:1" stroke="rgb(0,0,0)" x1="706" y1="1469" x2="680" y2="1513"/> <circle style="stroke-width:1" cx="706" cy="1469" r="12" fill="rgb(255,255,255)" stroke="rgb(0,0,0)"/> <text x="698" y="1477" fill="rgb(0,0,0)" stroke="rgb(0,0,0)">C</text>
<line style="fill:none;stroke-width:1" stroke="rgb(0,0,0)" x1="680" y1="1513" x2="646" y2="1551"/> <circle style="stroke-width:1" cx="680" cy="1513" r="12" fill="rgb(255,255,255)" stroke="rgb(0,0,0)"/> <text x="672" y="1521" fill="rgb(0,0,0)" stroke="rgb(0,0,0)">U</text>
<line style="fill:none;stroke-width:1" stroke="rgb(0,0,0)" x1="646" y1="1551" x2="605" y2="1582"/> <circle style="stroke-width:1" cx="646" cy="1551" r="12" fill="rgb(255,255,255)" stroke="rgb(0,0,0)"/> <text x="638" y="1559" fill="rgb(0,0,0)" stroke="rgb(0,0,0)">C</text>
<line style="fill:none;stroke-width:1" stroke="rgb(0,0,0)" x1="605" y1="1582" x2="560" y2="1605"/> <circle style="stroke-width:1" cx="605" cy="1582" r="12" fill="rgb(255,255,255)" stroke="rgb(0,0,0)"/> <text x="597" y="1590" fill="rgb(0,0,0)" stroke="rgb(0,0,0)">C</text>
<line style="fill:none;stroke-width:1" stroke="rgb(0,0,0)" x1="560" y1="1605" x2="511" y2="1619"/> <circle style="stroke-width:1" cx="560" cy="1605" r="12" fill="rgb(255,255,255)" stroke="rgb(0,0,0)"/> <text x="552" y="1613" fill="rgb(0,0,0)" stroke="rgb(0,0,0)">G</text>
<line style="fill:none;stroke-width:1" stroke="rgb(0,0,0)" x1="511" y1="1619" x2="531" y2="1729"/> <rect x="516" y="1717" width="30" height="24" fill="rgb(255,255,255)" stroke="rgb(255,255,255)"/> <text x="516" y="1737" fill="rgb(0,0,0)" stroke="rgb(0,0,0)">80</text> <circle style="stroke-width:1" cx="511" cy="1619" r="12" fill="rgb(255,255,255)" stroke="rgb(0,0,0)"/> <text x="503" y="1627" fill="rgb(0,0,0)" stroke="rgb(0,0,0)">C</text>
</g>
<g font-size="16">
<text x="36" y="892" fill="rgb(0,0,0)" stroke="rgb(0,0,0)">ENERGY = -20.9  ENST00000637069.1</text>
</g>
</svg>
