<?xml version="1.0" encoding="UTF-8" standalone="no"?>
<!DOCTYPE svg PUBLIC "-//W3C//DTD SVG 1.1//EN" "http://www.w3.org/Graphics/SVG/1.1/DTD/svg11.dtd">
<svg xmlns="http://www.w3.org/2000/svg" xmlns:xlink="http://www.w3.org/1999/xlink" xml:space="preserve" font-family="monospace" font-size="24" fill="rgb(255,255,255)" stroke="rgb(0,0,0)" viewBox="0 0 790 905">
<g transform="scale(0.714286)">
<path style="fill:none;stroke-width:3" stroke="rgb(0,0,0)" d="M349,506 Q331,485 313,464"/>
<path style="fill:none;stroke-width:3" stroke="rgb(0,0,0)" d="M325,526 Q307,505 289,484"/>
<path style="fill:none;stroke-width:3" stroke="rgb(0,0,0)" d="M301,546 Q283,525 265,504"/>
<path style="fill:none;stroke-width:3" stroke="rgb(0,0,0)" d="M277,566 Q259,545 241,524"/>
<path style="fill:none;stroke-width:3" stroke="rgb(0,0,0)" d="M154,667 Q137,645.5 120,624"/>
<path style="fill:none;stroke-width:3" stroke="rgb(0,0,0)" d="M130,686 Q113,664.5 96,643"/>
<path style="fill:none;stroke-width:3" stroke="rgb(0,0,0)" d="M106,705 Q89,683.5 72,662"/>
<path style="fill:none;stroke-width:3" stroke="rgb(0,0,0)" d="M369,377 Q392.5,363 416,349"/>
<path style="fill:none;stroke-width:3" stroke="rgb(0,0,0)" d="M353,350 Q376.5,336 400,322"/>
<path style="fill:none;stroke-width:3" stroke="rgb(0,0,0)" d="M337,323 Q360.5,309 384,295"/>
<path style="fill:none;stroke-width:3" stroke="rgb(0,0,0)" d="M321,296 Q344.5,282 368,268"/>
<path style="fill:none;stroke-width:3" stroke="rgb(0,0,0)" d="M305,269 Q328.5,255 352,241"/>
<path style="fill:none;stroke-width:3" stroke="rgb(0,0,0)" d="M257,186 Q281,172.5 305,159"/>
<path style="fill:none;stroke-width:3" stroke="rgb(0,0,0)" d="M242,159 Q266,145.5 290,132"/>
<path style="fill:none;stroke-width:3" stroke="rgb(0,0,0)" d="M499,444 Q501,471.5 503,499"/>
<path style="fill:none;stroke-width:3" stroke="rgb(0,0,0)" d="M530,442 Q532,469.5 534,497"/>
<path style="fill:none;stroke-width:3" stroke="rgb(0,0,0)" d="M561,440 Q563,467.5 565,495"/>
<path style="fill:none;stroke-width:3" stroke="rgb(0,0,0)" d="M592,438 Q594,465.5 596,493"/>
<path style="fill:none;stroke-width:3" stroke="rgb(0,0,0)" d="M623,436 Q625,463.5 627,491"/>
<line style="fill:none;stroke-width:1" stroke="rgb(0,0,0)" x1="349" y1="506" x2="325" y2="526"/> <circle style="stroke-width:1" cx="349" cy="506" r="12" fill="rgb(255,255,255)" stroke="rgb(0,0,0)"/> <text x="341" y="514" fill="rgb(0,0,0)" stroke="rgb(0,0,0)">A</text>
<line style="fill:none;stroke-width:1" stroke="rgb(0,0,0)" x1="325" y1="526" x2="301" y2="546"/> <circle style="stroke-width:1" cx="325" cy="526" r="12" fill="rgb(255,255,255)" stroke="rgb(0,0,0)"/> <text x="317" y="534" fill="rgb(0,0,0)" stroke="rgb(0,0,0)">G</text>
<line style="fill:none;stroke-width:1" stroke="rgb(0,0,0)" x1="301" y1="546" x2="277" y2="566"/> <circle style="stroke-width:1" cx="301" cy="546" r="12" fill="rgb(255,255,255)" stroke="rgb(0,0,0)"/> <text x="293" y="554" fill="rgb(0,0,0)" stroke="rgb(0,0,0)">A</text>
<line style="fill:none;stroke-width:1" stroke="rgb(0,0,0)" x1="277" y1="566" x2="278" y2="604"/> <circle style="stroke-width:1" cx="277" cy="566" r="12" fill="rgb(255,255,255)" stroke="rgb(0,0,0)"/> <text x="269" y="574" fill="rgb(0,0,0)" stroke="rgb(0,0,0)">G</text>
<line style="fill:none;stroke-width:1" stroke="rgb(0,0,0)" x1="278" y1="604" x2="249" y2="659"/> <circle style="stroke-width:1" cx="278" cy="604" r="12" fill="rgb(255,255,255)" stroke="rgb(0,0,0)"/> <text x="270" y="612" fill="rgb(0,0,0)" stroke="rgb(0,0,0)">U</text>
<line style="fill:none;stroke-width:1" stroke="rgb(0,0,0)" x1="249" y1="659" x2="190" y2="676"/> <circle style="stroke-width:1" cx="249" cy="659" r="12" fill="rgb(255,255,255)" stroke="rgb(0,0,0)"/> <text x="241" y="667" fill="rgb(0,0,0)" stroke="rgb(0,0,0)">C</text>
<line style="fill:none;stroke-width:1" stroke="rgb(0,0,0)" x1="190" y1="676" x2="154" y2="667"/> <circle style="stroke-width:1" cx="190" cy="676" r="12" fill="rgb(255,255,255)" stroke="rgb(0,0,0)"/> <text x="182" y="684" fill="rgb(0,0,0)" stroke="rgb(0,0,0)">C</text>
<line style="fill:none;stroke-width:1" stroke="rgb(0,0,0)" x1="154" y1="667" x2="130" y2="686"/> <circle style="stroke-width:1" cx="154" cy="667" r="12" fill="rgb(255,255,255)" stroke="rgb(0,0,0)"/> <text x="146" y="675" fill="rgb(0,0,0)" stroke="rgb(0,0,0)">A</text>
<line style="fill:none;stroke-width:1" stroke="rgb(0,0,0)" x1="130" y1="686" x2="106" y2="705"/> <circle style="stroke-width:1" cx="130" cy="686" r="12" fill="rgb(255,255,255)" stroke="rgb(0,0,0)"/> <text x="122" y="694" fill="rgb(0,0,0)" stroke="rgb(0,0,0)">C</text>
<line style="fill:none;stroke-width:1" stroke="rgb(0,0,0)" x1="106" y1="705" x2="75" y2="734"/> <line style="fill:none;stroke-width:1" stroke="rgb(0,0,0)" x1="106" y1="705" x2="175" y2="792"/> <rect x="160" y="780" width="30" height="24" fill="rgb(255,255,255)" stroke="rgb(255,255,255)"/> <text x="160" y="800" fill="rgb(0,0,0)" stroke="rgb(0,0,0)">10</text> <circle style="stroke-width:1" cx="106" cy="705" r="12" fill="rgb(255,255,255)" stroke="rgb(0,0,0)"/> <text x="98" y="713" fill="rgb(0,0,0)" stroke="rgb(0,0,0)">A</text>
<line style="fill:none;stroke-width:1" stroke="rgb(0,0,0)" x1="75" y1="734" x2="38" y2="724"/> <circle style="stroke-width:1" cx="75" cy="734" r="12" fill="rgb(255,255,255)" stroke="rgb(0,0,0)"/> <text x="67" y="742" fill="rgb(0,0,0)" stroke="rgb(0,0,0)">U</text>
<line style="fill:none;stroke-width:1" stroke="rgb(0,0,0)" x1="38" y1="724" x2="36" y2="685"/> <circle style="stroke-width:1" cx="38" cy="724" r="12" fill="rgb(255,255,255)" stroke="rgb(0,0,0)"/> <text x="30" y="732" fill="rgb(0,0,0)" stroke="rgb(0,0,0)">C</text>
<line style="fill:none;stroke-width:1" stroke="rgb(0,0,0)" x1="36" y1="685" x2="72" y2="662"/> <circle style="stroke-width:1" cx="36" cy="685" r="12" fill="rgb(255,255,255)" stroke="rgb(0,0,0)"/> <text x="28" y="693" fill="rgb(0,0,0)" stroke="rgb(0,0,0)">A</text>
<line style="fill:none;stroke-width:1" stroke="rgb(0,0,0)" x1="72" y1="662" x2="96" y2="643"/> <circle style="stroke-width:1" cx="72" cy="662" r="12" fill="rgb(255,255,255)" stroke="rgb(0,0,0)"/> <text x="64" y="670" fill="rgb(0,0,0)" stroke="rgb(0,0,0)">U</text>
<line style="fill:none;stroke-width:1" stroke="rgb(0,0,0)" x1="96" y1="643" x2="120" y2="624"/> <circle style="stroke-width:1" cx="96" cy="643" r="12" fill="rgb(255,255,255)" stroke="rgb(0,0,0)"/> <text x="88" y="651" fill="rgb(0,0,0)" stroke="rgb(0,0,0)">G</text>
<line style="fill:none;stroke-width:1" stroke="rgb(0,0,0)" x1="120" y1="624" x2="124" y2="568"/> <circle style="stroke-width:1" cx="120" cy="624" r="12" fill="rgb(255,255,255)" stroke="rgb(0,0,0)"/> <text x="112" y="632" fill="rgb(0,0,0)" stroke="rgb(0,0,0)">U</text>
<line style="fill:none;stroke-width:1" stroke="rgb(0,0,0)" x1="124" y1="568" x2="185" y2="518"/> <circle style="stroke-width:1" cx="124" cy="568" r="12" fill="rgb(255,255,255)" stroke="rgb(0,0,0)"/> <text x="116" y="576" fill="rgb(0,0,0)" stroke="rgb(0,0,0)">C</text>
<line style="fill:none;stroke-width:1" stroke="rgb(0,0,0)" x1="185" y1="518" x2="241" y2="524"/> <circle style="stroke-width:1" cx="185" cy="518" r="12" fill="rgb(255,255,255)" stroke="rgb(0,0,0)"/> <text x="177" y="526" fill="rgb(0,0,0)" stroke="rgb(0,0,0)">U</text>
<line style="fill:none;stroke-width:1" stroke="rgb(0,0,0)" x1="241" y1="524" x2="265" y2="504"/> <circle style="stroke-width:1" cx="241" cy="524" r="12" fill="rgb(255,255,255)" stroke="rgb(0,0,0)"/> <text x="233" y="532" fill="rgb(0,0,0)" stroke="rgb(0,0,0)">C</text>
<line style="fill:none;stroke-width:1" stroke="rgb(0,0,0)" x1="265" y1="504" x2="289" y2="484"/> <line style="fill:none;stroke-width:1" stroke="rgb(0,0,0)" x1="265" y1="504" x2="193" y2="419"/> <rect x="178" y="407" width="30" height="24" fill="rgb(255,255,255)" stroke="rgb(255,255,255)"/> <text x="178" y="427" fill="rgb(0,0,0)" stroke="rgb(0,0,0)">20</text> <circle style="stroke-width:1" cx="265" cy="504" r="12" fill="rgb(255,255,255)" stroke="rgb(0,0,0)"/> <text x="257" y="512" fill="rgb(0,0,0)" stroke="rgb(0,0,0)">U</text>
<line style="fill:none;stroke-width:1" stroke="rgb(0,0,0)" x1="289" y1="484" x2="313" y2="464"/> <circle style="stroke-width:1" cx="289" cy="484" r="12" fill="rgb(255,255,255)" stroke="rgb(0,0,0)"/> <text x="281" y="492" fill="rgb(0,0,0)" stroke="rgb(0,0,0)">C</text>
<line style="fill:none;stroke-width:1" stroke="rgb(0,0,0)" x1="313" y1="464" x2="369" y2="377"/> <circle style="stroke-width:1" cx="313" cy="464" r="12" fill="rgb(255,255,255)" stroke="rgb(0,0,0)"/> <text x="305" y="472" fill="rgb(0,0,0)" stroke="rgb(0,0,0)">U</text>
<line style="fill:none;stroke-width:1" stroke="rgb(0,0,0)" x1="369" y1="377" x2="353" y2="350"/> <circle style="stroke-width:1" cx="369" cy="377" r="12" fill="rgb(255,255,255)" stroke="rgb(0,0,0)"/> <text x="361" y="385" fill="rgb(0,0,0)" stroke="rgb(0,0,0)">G</text>
<line style="fill:none;stroke-width:1" stroke="rgb(0,0,0)" x1="353" y1="350" x2="337" y2="323"/> <circle style="stroke-width:1" cx="353" cy="350" r="12" fill="rgb(255,255,255)" stroke="rgb(0,0,0)"/> <text x="345" y="358" fill="rgb(0,0,0)" stroke="rgb(0,0,0)">A</text>
<line style="fill:none;stroke-width:1" stroke="rgb(0,0,0)" x1="337" y1="323" x2="321" y2="296"/> <circle style="stroke-width:1" cx="337" cy="323" r="12" fill="rgb(255,255,255)" stroke="rgb(0,0,0)"/> <text x="329" y="331" fill="rgb(0,0,0)" stroke="rgb(0,0,0)">A</text>
<line style="fill:none;stroke-width:1" stroke="rgb(0,0,0)" x1="321" y1="296" x2="305" y2="269"/> <circle style="stroke-width:1" cx="321" cy="296" r="12" fill="rgb(255,255,255)" stroke="rgb(0,0,0)"/> <text x="313" y="304" fill="rgb(0,0,0)" stroke="rgb(0,0,0)">G</text>
<line style="fill:none;stroke-width:1" stroke="rgb(0,0,0)" x1="305" y1="269" x2="262" y2="238"/> <circle style="stroke-width:1" cx="305" cy="269" r="12" fill="rgb(255,255,255)" stroke="rgb(0,0,0)"/> <text x="297" y="277" fill="rgb(0,0,0)" stroke="rgb(0,0,0)">A</text>
<line style="fill:none;stroke-width:1" stroke="rgb(0,0,0)" x1="262" y1="238" x2="257" y2="186"/> <circle style="stroke-width:1" cx="262" cy="238" r="12" fill="rgb(255,255,255)" stroke="rgb(0,0,0)"/> <text x="254" y="246" fill="rgb(0,0,0)" stroke="rgb(0,0,0)">A</text>
<line style="fill:none;stroke-width:1" stroke="rgb(0,0,0)" x1="257" y1="186" x2="242" y2="159"/> <circle style="stroke-width:1" cx="257" cy="186" r="12" fill="rgb(255,255,255)" stroke="rgb(0,0,0)"/> <text x="249" y="194" fill="rgb(0,0,0)" stroke="rgb(0,0,0)">C</text>
<line style="fill:none;stroke-width:1" stroke="rgb(0,0,0)" x1="242" y1="159" x2="207" y2="145"/> <line style="fill:none;stroke-width:1" stroke="rgb(0,0,0)" x1="242" y1="159" x2="145" y2="213"/> <rect x="130" y="201" width="30" height="24" fill="rgb(255,255,255)" stroke="rgb(255,255,255)"/> <text x="130" y="221" fill="rgb(0,0,0)" stroke="rgb(0,0,0)">30</text> <circle style="stroke-width:1" cx="242" cy="159" r="12" fill="rgb(255,255,255)" stroke="rgb(0,0,0)"/> <text x="234" y="167" fill="rgb(0,0,0)" stroke="rgb(0,0,0)">A</text>
<line style="fill:none;stroke-width:1" stroke="rgb(0,0,0)" x1="207" y1="145" x2="182" y2="114"/> <circle style="stroke-width:1" cx="207" cy="145" r="12" fill="rgb(255,255,255)" stroke="rgb(0,0,0)"/> <text x="199" y="153" fill="rgb(0,0,0)" stroke="rgb(0,0,0)">G</text>
<line style="fill:none;stroke-width:1" stroke="rgb(0,0,0)" x1="182" y1="114" x2="182" y2="73"/> <circle style="stroke-width:1" cx="182" cy="114" r="12" fill="rgb(255,255,255)" stroke="rgb(0,0,0)"/> <text x="174" y="122" fill="rgb(0,0,0)" stroke="rgb(0,0,0)">U</text>
<line style="fill:none;stroke-width:1" stroke="rgb(0,0,0)" x1="182" y1="73" x2="209" y2="42"/> <circle style="stroke-width:1" cx="182" cy="73" r="12" fill="rgb(255,255,255)" stroke="rgb(0,0,0)"/> <text x="174" y="81" fill="rgb(0,0,0)" stroke="rgb(0,0,0)">U</text>
<line style="fill:none;stroke-width:1" stroke="rgb(0,0,0)" x1="209" y1="42" x2="249" y2="36"/> <circle style="stroke-width:1" cx="209" cy="42" r="12" fill="rgb(255,255,255)" stroke="rgb(0,0,0)"/> <text x="201" y="50" fill="rgb(0,0,0)" stroke="rgb(0,0,0)">A</text>
<line style="fill:none;stroke-width:1" stroke="rgb(0,0,0)" x1="249" y1="36" x2="284" y2="57"/> <circle style="stroke-width:1" cx="249" cy="36" r="12" fill="rgb(255,255,255)" stroke="rgb(0,0,0)"/> <text x="241" y="44" fill="rgb(0,0,0)" stroke="rgb(0,0,0)">A</text>
<line style="fill:none;stroke-width:1" stroke="rgb(0,0,0)" x1="284" y1="57" x2="297" y2="95"/> <circle style="stroke-width:1" cx="284" cy="57" r="12" fill="rgb(255,255,255)" stroke="rgb(0,0,0)"/> <text x="276" y="65" fill="rgb(0,0,0)" stroke="rgb(0,0,0)">A</text>
<line style="fill:none;stroke-width:1" stroke="rgb(0,0,0)" x1="297" y1="95" x2="290" y2="132"/> <circle style="stroke-width:1" cx="297" cy="95" r="12" fill="rgb(255,255,255)" stroke="rgb(0,0,0)"/> <text x="289" y="103" fill="rgb(0,0,0)" stroke="rgb(0,0,0)">G</text>
<line style="fill:none;stroke-width:1" stroke="rgb(0,0,0)" x1="290" y1="132" x2="305" y2="159"/> <circle style="stroke-width:1" cx="290" cy="132" r="12" fill="rgb(255,255,255)" stroke="rgb(0,0,0)"/> <text x="282" y="140" fill="rgb(0,0,0)" stroke="rgb(0,0,0)">U</text>
<line style="fill:none;stroke-width:1" stroke="rgb(0,0,0)" x1="305" y1="159" x2="352" y2="241"/> <circle style="stroke-width:1" cx="305" cy="159" r="12" fill="rgb(255,255,255)" stroke="rgb(0,0,0)"/> <text x="297" y="167" fill="rgb(0,0,0)" stroke="rgb(0,0,0)">G</text>
<line style="fill:none;stroke-width:1" stroke="rgb(0,0,0)" x1="352" y1="241" x2="368" y2="268"/> <line style="fill:none;stroke-width:1" stroke="rgb(0,0,0)" x1="352" y1="241" x2="447" y2="183"/> <rect x="432" y="171" width="30" height="24" fill="rgb(255,255,255)" stroke="rgb(255,255,255)"/> <text x="432" y="191" fill="rgb(0,0,0)" stroke="rgb(0,0,0)">40</text> <circle style="stroke-width:1" cx="352" cy="241" r="12" fill="rgb(255,255,255)" stroke="rgb(0,0,0)"/> <text x="344" y="249" fill="rgb(0,0,0)" stroke="rgb(0,0,0)">U</text>
<line style="fill:none;stroke-width:1" stroke="rgb(0,0,0)" x1="368" y1="268" x2="384" y2="295"/> <circle style="stroke-width:1" cx="368" cy="268" r="12" fill="rgb(255,255,255)" stroke="rgb(0,0,0)"/> <text x="360" y="276" fill="rgb(0,0,0)" stroke="rgb(0,0,0)">C</text>
<line style="fill:none;stroke-width:1" stroke="rgb(0,0,0)" x1="384" y1="295" x2="400" y2="322"/> <circle style="stroke-width:1" cx="384" cy="295" r="12" fill="rgb(255,255,255)" stroke="rgb(0,0,0)"/> <text x="376" y="303" fill="rgb(0,0,0)" stroke="rgb(0,0,0)">U</text>
<line style="fill:none;stroke-width:1" stroke="rgb(0,0,0)" x1="400" y1="322" x2="416" y2="349"/> <circle style="stroke-width:1" cx="400" cy="322" r="12" fill="rgb(255,255,255)" stroke="rgb(0,0,0)"/> <text x="392" y="330" fill="rgb(0,0,0)" stroke="rgb(0,0,0)">U</text>
<line style="fill:none;stroke-width:1" stroke="rgb(0,0,0)" x1="416" y1="349" x2="499" y2="444"/> <circle style="stroke-width:1" cx="416" cy="349" r="12" fill="rgb(255,255,255)" stroke="rgb(0,0,0)"/> <text x="408" y="357" fill="rgb(0,0,0)" stroke="rgb(0,0,0)">C</text>
<line style="fill:none;stroke-width:1" stroke="rgb(0,0,0)" x1="499" y1="444" x2="530" y2="442"/> <circle style="stroke-width:1" cx="499" cy="444" r="12" fill="rgb(255,255,255)" stroke="rgb(0,0,0)"/> <text x="491" y="452" fill="rgb(0,0,0)" stroke="rgb(0,0,0)">U</text>
<line style="fill:none;stroke-width:1" stroke="rgb(0,0,0)" x1="530" y1="442" x2="561" y2="440"/> <circle style="stroke-width:1" cx="530" cy="442" r="12" fill="rgb(255,255,255)" stroke="rgb(0,0,0)"/> <text x="522" y="450" fill="rgb(0,0,0)" stroke="rgb(0,0,0)">G</text>
<line style="fill:none;stroke-width:1" stroke="rgb(0,0,0)" x1="561" y1="440" x2="592" y2="438"/> <circle style="stroke-width:1" cx="561" cy="440" r="12" fill="rgb(255,255,255)" stroke="rgb(0,0,0)"/> <text x="553" y="448" fill="rgb(0,0,0)" stroke="rgb(0,0,0)">G</text>
<line style="fill:none;stroke-width:1" stroke="rgb(0,0,0)" x1="592" y1="438" x2="623" y2="436"/> <circle style="stroke-width:1" cx="592" cy="438" r="12" fill="rgb(255,255,255)" stroke="rgb(0,0,0)"/> <text x="584" y="446" fill="rgb(0,0,0)" stroke="rgb(0,0,0)">A</text>
<line style="fill:none;stroke-width:1" stroke="rgb(0,0,0)" x1="623" y1="436" x2="633" y2="403"/> <circle style="stroke-width:1" cx="623" cy="436" r="12" fill="rgb(255,255,255)" stroke="rgb(0,0,0)"/> <text x="615" y="444" fill="rgb(0,0,0)" stroke="rgb(0,0,0)">U</text>
<line style="fill:none;stroke-width:1" stroke="rgb(0,0,0)" x1="633" y1="403" x2="653" y2="367"/> <line style="fill:none;stroke-width:1" stroke="rgb(0,0,0)" x1="633" y1="403" x2="528" y2="365"/> <rect x="513" y="353" width="30" height="24" fill="rgb(255,255,255)" stroke="rgb(255,255,255)"/> <text x="513" y="373" fill="rgb(0,0,0)" stroke="rgb(0,0,0)">50</text> <circle style="stroke-width:1" cx="633" cy="403" r="12" fill="rgb(255,255,255)" stroke="rgb(0,0,0)"/> <text x="625" y="411" fill="rgb(0,0,0)" stroke="rgb(0,0,0)">G</text>
<line style="fill:none;stroke-width:1" stroke="rgb(0,0,0)" x1="653" y1="367" x2="682" y2="337"/> <circle style="stroke-width:1" cx="653" cy="367" r="12" fill="rgb(255,255,255)" stroke="rgb(0,0,0)"/> <text x="645" y="375" fill="rgb(0,0,0)" stroke="rgb(0,0,0)">A</text>
<line style="fill:none;stroke-width:1" stroke="rgb(0,0,0)" x1="682" y1="337" x2="718" y2="317"/> <circle style="stroke-width:1" cx="682" cy="337" r="12" fill="rgb(255,255,255)" stroke="rgb(0,0,0)"/> <text x="674" y="345" fill="rgb(0,0,0)" stroke="rgb(0,0,0)">A</text>
<line style="fill:none;stroke-width:1" stroke="rgb(0,0,0)" x1="718" y1="317" x2="758" y2="308"/> <circle style="stroke-width:1" cx="718" cy="317" r="12" fill="rgb(255,255,255)" stroke="rgb(0,0,0)"/> <text x="710" y="325" fill="rgb(0,0,0)" stroke="rgb(0,0,0)">U</text>
<line style="fill:none;stroke-width:1" stroke="rgb(0,0,0)" x1="758" y1="308" x2="799" y2="311"/> <circle style="stroke-width:1" cx="758" cy="308" r="12" fill="rgb(255,255,255)" stroke="rgb(0,0,0)"/> <text x="750" y="316" fill="rgb(0,0,0)" stroke="rgb(0,0,0)">G</text>
<line style="fill:none;stroke-width:1" stroke="rgb(0,0,0)" x1="799" y1="311" x2="838" y2="325"/> <circle style="stroke-width:1" cx="799" cy="311" r="12" fill="rgb(255,255,255)" stroke="rgb(0,0,0)"/> <text x="791" y="319" fill="rgb(0,0,0)" stroke="rgb(0,0,0)">C</text>
<line style="fill:none;stroke-width:1" stroke="rgb(0,0,0)" x1="838" y1="325" x2="871" y2="349"/> <circle style="stroke-width:1" cx="838" cy="325" r="12" fill="rgb(255,255,255)" stroke="rgb(0,0,0)"/> <text x="830" y="333" fill="rgb(0,0,0)" stroke="rgb(0,0,0)">A</text>
<line style="fill:none;stroke-width:1" stroke="rgb(0,0,0)" x1="871" y1="349" x2="896" y2="382"/> <circle style="stroke-width:1" cx="871" cy="349" r="12" fill="rgb(255,255,255)" stroke="rgb(0,0,0)"/> <text x="863" y="357" fill="rgb(0,0,0)" stroke="rgb(0,0,0)">U</text>
<line style="fill:none;stroke-width:1" stroke="rgb(0,0,0)" x1="896" y1="382" x2="911" y2="421"/> <circle style="stroke-width:1" cx="896" cy="382" r="12" fill="rgb(255,255,255)" stroke="rgb(0,0,0)"/> <text x="888" y="390" fill="rgb(0,0,0)" stroke="rgb(0,0,0)">A</text>
<line style="fill:none;stroke-width:1" stroke="rgb(0,0,0)" x1="911" y1="421" x2="914" y2="462"/> <circle style="stroke-width:1" cx="911" cy="421" r="12" fill="rgb(255,255,255)" stroke="rgb(0,0,0)"/> <text x="903" y="429" fill="rgb(0,0,0)" stroke="rgb(0,0,0)">C</text>
<line style="fill:none;stroke-width:1" stroke="rgb(0,0,0)" x1="914" y1="462" x2="906" y2="503"/> <line style="fill:none;stroke-width:1" stroke="rgb(0,0,0)" x1="914" y1="462" x2="1025" y2="469"/> <rect x="1010" y="457" width="30" height="24" fill="rgb(255,255,255)" stroke="rgb(255,255,255)"/> <text x="1010" y="477" fill="rgb(0,0,0)" stroke="rgb(0,0,0)">60</text> <circle style="stroke-width:1" cx="914" cy="462" r="12" fill="rgb(255,255,255)" stroke="rgb(0,0,0)"/> <text x="906" y="470" fill="rgb(0,0,0)" stroke="rgb(0,0,0)">U</text>
<line style="fill:none;stroke-width:1" stroke="rgb(0,0,0)" x1="906" y1="503" x2="886" y2="538"/> <circle style="stroke-width:1" cx="906" cy="503" r="12" fill="rgb(255,255,255)" stroke="rgb(0,0,0)"/> <text x="898" y="511" fill="rgb(0,0,0)" stroke="rgb(0,0,0)">U</text>
<line style="fill:none;stroke-width:1" stroke="rgb(0,0,0)" x1="886" y1="538" x2="857" y2="567"/> <circle style="stroke-width:1" cx="886" cy="538" r="12" fill="rgb(255,255,255)" stroke="rgb(0,0,0)"/> <text x="878" y="546" fill="rgb(0,0,0)" stroke="rgb(0,0,0)">A</text>
<line style="fill:none;stroke-width:1" stroke="rgb(0,0,0)" x1="857" y1="567" x2="821" y2="587"/> <circle style="stroke-width:1" cx="857" cy="567" r="12" fill="rgb(255,255,255)" stroke="rgb(0,0,0)"/> <text x="849" y="575" fill="rgb(0,0,0)" stroke="rgb(0,0,0)">A</text>
<line style="fill:none;stroke-width:1" stroke="rgb(0,0,0)" x1="821" y1="587" x2="781" y2="596"/> <circle style="stroke-width:1" cx="821" cy="587" r="12" fill="rgb(255,255,255)" stroke="rgb(0,0,0)"/> <text x="813" y="595" fill="rgb(0,0,0)" stroke="rgb(0,0,0)">A</text>
<line style="fill:none;stroke-width:1" stroke="rgb(0,0,0)" x1="781" y1="596" x2="740" y2="594"/> <circle style="stroke-width:1" cx="781" cy="596" r="12" fill="rgb(255,255,255)" stroke="rgb(0,0,0)"/> <text x="773" y="604" fill="rgb(0,0,0)" stroke="rgb(0,0,0)">C</text>
<line style="fill:none;stroke-width:1" stroke="rgb(0,0,0)" x1="740" y1="594" x2="701" y2="580"/> <circle style="stroke-width:1" cx="740" cy="594" r="12" fill="rgb(255,255,255)" stroke="rgb(0,0,0)"/> <text x="732" y="602" fill="rgb(0,0,0)" stroke="rgb(0,0,0)">A</text>
<line style="fill:none;stroke-width:1" stroke="rgb(0,0,0)" x1="701" y1="580" x2="667" y2="555"/> <circle style="stroke-width:1" cx="701" cy="580" r="12" fill="rgb(255,255,255)" stroke="rgb(0,0,0)"/> <text x="693" y="588" fill="rgb(0,0,0)" stroke="rgb(0,0,0)">A</text>
<line style="fill:none;stroke-width:1" stroke="rgb(0,0,0)" x1="667" y1="555" x2="642" y2="523"/> <circle style="stroke-width:1" cx="667" cy="555" r="12" fill="rgb(255,255,255)" stroke="rgb(0,0,0)"/> <text x="659" y="563" fill="rgb(0,0,0)" stroke="rgb(0,0,0)">A</text>
<line style="fill:none;stroke-width:1" stroke="rgb(0,0,0)" x1="642" y1="523" x2="627" y2="491"/> <circle style="stroke-width:1" cx="642" cy="523" r="12" fill="rgb(255,255,255)" stroke="rgb(0,0,0)"/> <text x="634" y="531" fill="rgb(0,0,0)" stroke="rgb(0,0,0)">A</text>
<line style="fill:none;stroke-width:1" stroke="rgb(0,0,0)" x1="627" y1="491" x2="596" y2="493"/> <line style="fill:none;stroke-width:1" stroke="rgb(0,0,0)" x1="627" y1="491" x2="635" y2="602"/> <rect x="620" y="590" width="30" height="24" fill="rgb(255,255,255)" stroke="rgb(255,255,255)"/> <text x="620" y="610" fill="rgb(0,0,0)" stroke="rgb(0,0,0)">70</text> <circle style="stroke-width:1" cx="627" cy="491" r="12" fill="rgb(255,255,255)" stroke="rgb(0,0,0)"/> <text x="619" y="499" fill="rgb(0,0,0)" stroke="rgb(0,0,0)">A</text>
<line style="fill:none;stroke-width:1" stroke="rgb(0,0,0)" x1="596" y1="493" x2="565" y2="495"/> <circle style="stroke-width:1" cx="596" cy="493" r="12" fill="rgb(255,255,255)" stroke="rgb(0,0,0)"/> <text x="588" y="501" fill="rgb(0,0,0)" stroke="rgb(0,0,0)">U</text>
<line style="fill:none;stroke-width:1" stroke="rgb(0,0,0)" x1="565" y1="495" x2="534" y2="497"/> <circle style="stroke-width:1" cx="565" cy="495" r="12" fill="rgb(255,255,255)" stroke="rgb(0,0,0)"/> <text x="557" y="503" fill="rgb(0,0,0)" stroke="rgb(0,0,0)">C</text>
<line style="fill:none;stroke-width:1" stroke="rgb(0,0,0)" x1="534" y1="497" x2="503" y2="499"/> <circle style="stroke-width:1" cx="534" cy="497" r="12" fill="rgb(255,255,255)" stroke="rgb(0,0,0)"/> <text x="526" y="505" fill="rgb(0,0,0)" stroke="rgb(0,0,0)">C</text>
<line style="fill:none;stroke-width:1" stroke="rgb(0,0,0)" x1="503" y1="499" x2="494" y2="479"/> <circle style="stroke-width:1" cx="503" cy="499" r="12" fill="rgb(255,255,255)" stroke="rgb(0,0,0)"/> <text x="495" y="507" fill="rgb(0,0,0)" stroke="rgb(0,0,0)">A</text>
<line style="fill:none;stroke-width:1" stroke="rgb(0,0,0)" x1="494" y1="479" x2="487" y2="495"/> <circle style="stroke-width:1" cx="494" cy="479" r="12" fill="rgb(255,255,255)" stroke="rgb(0,0,0)"/> <text x="486" y="487" fill="rgb(0,0,0)" stroke="rgb(0,0,0)">U</text>
<line style="fill:none;stroke-width:1" stroke="rgb(0,0,0)" x1="487" y1="495" x2="476" y2="509"/> <circle style="stroke-width:1" cx="487" cy="495" r="12" fill="rgb(255,255,255)" stroke="rgb(0,0,0)"/> <text x="479" y="503" fill="rgb(0,0,0)" stroke="rgb(0,0,0)">C</text>
<line style="fill:none;stroke-width:1" stroke="rgb(0,0,0)" x1="476" y1="509" x2="463" y2="521"/> <circle style="stroke-width:1" cx="476" cy="509" r="12" fill="rgb(255,255,255)" stroke="rgb(0,0,0)"/> <text x="468" y="517" fill="rgb(0,0,0)" stroke="rgb(0,0,0)">A</text>
<line style="fill:none;stroke-width:1" stroke="rgb(0,0,0)" x1="463" y1="521" x2="448" y2="529"/> <circle style="stroke-width:1" cx="463" cy="521" r="12" fill="rgb(255,255,255)" stroke="rgb(0,0,0)"/> <text x="455" y="529" fill="rgb(0,0,0)" stroke="rgb(0,0,0)">U</text>
<line style="fill:none;stroke-width:1" stroke="rgb(0,0,0)" x1="448" y1="529" x2="431" y2="535"/> <circle style="stroke-width:1" cx="448" cy="529" r="12" fill="rgb(255,255,255)" stroke="rgb(0,0,0)"/> <text x="440" y="537" fill="rgb(0,0,0)" stroke="rgb(0,0,0)">U</text>
<line style="fill:none;stroke-width:1" stroke="rgb(0,0,0)" x1="431" y1="535" x2="453" y2="644"/> <rect x="438" y="632" width="30" height="24" fill="rgb(255,255,255)" stroke="rgb(255,255,255)"/> <text x="438" y="652" fill="rgb(0,0,0)" stroke="rgb(0,0,0)">80</text> <circle style="stroke-width:1" cx="431" cy="535" r="12" fill="rgb(255,255,255)" stroke="rgb(0,0,0)"/> <text x="423" y="543" fill="rgb(0,0,0)" stroke="rgb(0,0,0)">A</text>
</g>
<g font-size="16">
<text x="36" y="892" fill="rgb(0,0,0)" stroke="rgb(0,0,0)">ENERGY = -10.7  ENST00000642527.1</text>
</g>
</svg>
