<?xml version="1.0" encoding="UTF-8" standalone="no"?>
<!DOCTYPE svg PUBLIC "-//W3C//DTD SVG 1.1//EN" "http://www.w3.org/Graphics/SVG/1.1/DTD/svg11.dtd">
<svg xmlns="http://www.w3.org/2000/svg" xmlns:xlink="http://www.w3.org/1999/xlink" xml:space="preserve" font-family="monospace" font-size="24" fill="rgb(255,255,255)" stroke="rgb(0,0,0)" viewBox="0 0 790 905">
<g transform="scale(0.395593)">
<path style="fill:none;stroke-width:3" stroke="rgb(0,0,0)" d="M300,474 Q308.5,448 317,422"/>
<path style="fill:none;stroke-width:3" stroke="rgb(0,0,0)" d="M270,465 Q278.5,439 287,413"/>
<path style="fill:none;stroke-width:3" stroke="rgb(0,0,0)" d="M240,456 Q248.5,430 257,404"/>
<path style="fill:none;stroke-width:3" stroke="rgb(0,0,0)" d="M121,420 Q128.5,393.5 136,367"/>
<path style="fill:none;stroke-width:3" stroke="rgb(0,0,0)" d="M91,412 Q98.5,385.5 106,359"/>
<path style="fill:none;stroke-width:3" stroke="rgb(0,0,0)" d="M1190,439 Q1200.5,464.5 1211,490"/>
<path style="fill:none;stroke-width:3" stroke="rgb(0,0,0)" d="M1219,427 Q1229.5,452.5 1240,478"/>
<path style="fill:none;stroke-width:3" stroke="rgb(0,0,0)" d="M1248,415 Q1258.5,440.5 1269,466"/>
<path style="fill:none;stroke-width:3" stroke="rgb(0,0,0)" d="M1277,403 Q1287.5,428.5 1298,454"/>
<path style="fill:none;stroke-width:3" stroke="rgb(0,0,0)" d="M1394,355 Q1404.5,380.5 1415,406"/>
<path style="fill:none;stroke-width:3" stroke="rgb(0,0,0)" d="M1423,343 Q1433.5,368.5 1444,394"/>
<path style="fill:none;stroke-width:3" stroke="rgb(0,0,0)" d="M1452,331 Q1462.5,356.5 1473,382"/>
<path style="fill:none;stroke-width:3" stroke="rgb(0,0,0)" d="M1540,293 Q1551.5,318 1563,343"/>
<path style="fill:none;stroke-width:3" stroke="rgb(0,0,0)" d="M1683,227 Q1694.5,252 1706,277"/>
<path style="fill:none;stroke-width:3" stroke="rgb(0,0,0)" d="M1711,214 Q1722.5,239 1734,264"/>
<path style="fill:none;stroke-width:3" stroke="rgb(0,0,0)" d="M1797,173 Q1809.5,197.5 1822,222"/>
<path style="fill:none;stroke-width:3" stroke="rgb(0,0,0)" d="M1825,159 Q1837.5,183.5 1850,208"/>
<line style="fill:none;stroke-width:1" stroke="rgb(0,0,0)" x1="653" y1="1086" x2="605" y2="1073"/> <circle style="stroke-width:1" cx="653" cy="1086" r="12" fill="rgb(255,255,255)" stroke="rgb(0,0,0)"/> <text x="645" y="1094" fill="rgb(0,0,0)" stroke="rgb(0,0,0)">A</text>
<line style="fill:none;stroke-width:1" stroke="rgb(0,0,0)" x1="605" y1="1073" x2="559" y2="1055"/> <circle style="stroke-width:1" cx="605" cy="1073" r="12" fill="rgb(255,255,255)" stroke="rgb(0,0,0)"/> <text x="597" y="1081" fill="rgb(0,0,0)" stroke="rgb(0,0,0)">C</text>
<line style="fill:none;stroke-width:1" stroke="rgb(0,0,0)" x1="559" y1="1055" x2="515" y2="1033"/> <circle style="stroke-width:1" cx="559" cy="1055" r="12" fill="rgb(255,255,255)" stroke="rgb(0,0,0)"/> <text x="551" y="1063" fill="rgb(0,0,0)" stroke="rgb(0,0,0)">U</text>
<line style="fill:none;stroke-width:1" stroke="rgb(0,0,0)" x1="515" y1="1033" x2="473" y2="1006"/> <circle style="stroke-width:1" cx="515" cy="1033" r="12" fill="rgb(255,255,255)" stroke="rgb(0,0,0)"/> <text x="507" y="1041" fill="rgb(0,0,0)" stroke="rgb(0,0,0)">U</text>
<line style="fill:none;stroke-width:1" stroke="rgb(0,0,0)" x1="473" y1="1006" x2="434" y2="974"/> <circle style="stroke-width:1" cx="473" cy="1006" r="12" fill="rgb(255,255,255)" stroke="rgb(0,0,0)"/> <text x="465" y="1014" fill="rgb(0,0,0)" stroke="rgb(0,0,0)">U</text>
<line style="fill:none;stroke-width:1" stroke="rgb(0,0,0)" x1="434" y1="974" x2="399" y2="939"/> <circle style="stroke-width:1" cx="434" cy="974" r="12" fill="rgb(255,255,255)" stroke="rgb(0,0,0)"/> <text x="426" y="982" fill="rgb(0,0,0)" stroke="rgb(0,0,0)">C</text>
<line style="fill:none;stroke-width:1" stroke="rgb(0,0,0)" x1="399" y1="939" x2="368" y2="901"/> <circle style="stroke-width:1" cx="399" cy="939" r="12" fill="rgb(255,255,255)" stroke="rgb(0,0,0)"/> <text x="391" y="947" fill="rgb(0,0,0)" stroke="rgb(0,0,0)">A</text>
<line style="fill:none;stroke-width:1" stroke="rgb(0,0,0)" x1="368" y1="901" x2="341" y2="859"/> <circle style="stroke-width:1" cx="368" cy="901" r="12" fill="rgb(255,255,255)" stroke="rgb(0,0,0)"/> <text x="360" y="909" fill="rgb(0,0,0)" stroke="rgb(0,0,0)">C</text>
<line style="fill:none;stroke-width:1" stroke="rgb(0,0,0)" x1="341" y1="859" x2="318" y2="815"/> <circle style="stroke-width:1" cx="341" cy="859" r="12" fill="rgb(255,255,255)" stroke="rgb(0,0,0)"/> <text x="333" y="867" fill="rgb(0,0,0)" stroke="rgb(0,0,0)">U</text>
<line style="fill:none;stroke-width:1" stroke="rgb(0,0,0)" x1="318" y1="815" x2="300" y2="768"/> <line style="fill:none;stroke-width:1" stroke="rgb(0,0,0)" x1="318" y1="815" x2="216" y2="860"/> <rect x="201" y="848" width="30" height="24" fill="rgb(255,255,255)" stroke="rgb(255,255,255)"/> <text x="201" y="868" fill="rgb(0,0,0)" stroke="rgb(0,0,0)">10</text> <circle style="stroke-width:1" cx="318" cy="815" r="12" fill="rgb(255,255,255)" stroke="rgb(0,0,0)"/> <text x="310" y="823" fill="rgb(0,0,0)" stroke="rgb(0,0,0)">C</text>
<line style="fill:none;stroke-width:1" stroke="rgb(0,0,0)" x1="300" y1="768" x2="287" y2="720"/> <circle style="stroke-width:1" cx="300" cy="768" r="12" fill="rgb(255,255,255)" stroke="rgb(0,0,0)"/> <text x="292" y="776" fill="rgb(0,0,0)" stroke="rgb(0,0,0)">U</text>
<line style="fill:none;stroke-width:1" stroke="rgb(0,0,0)" x1="287" y1="720" x2="280" y2="671"/> <circle style="stroke-width:1" cx="287" cy="720" r="12" fill="rgb(255,255,255)" stroke="rgb(0,0,0)"/> <text x="279" y="728" fill="rgb(0,0,0)" stroke="rgb(0,0,0)">C</text>
<line style="fill:none;stroke-width:1" stroke="rgb(0,0,0)" x1="280" y1="671" x2="277" y2="621"/> <circle style="stroke-width:1" cx="280" cy="671" r="12" fill="rgb(255,255,255)" stroke="rgb(0,0,0)"/> <text x="272" y="679" fill="rgb(0,0,0)" stroke="rgb(0,0,0)">C</text>
<line style="fill:none;stroke-width:1" stroke="rgb(0,0,0)" x1="277" y1="621" x2="280" y2="572"/> <circle style="stroke-width:1" cx="277" cy="621" r="12" fill="rgb(255,255,255)" stroke="rgb(0,0,0)"/> <text x="269" y="629" fill="rgb(0,0,0)" stroke="rgb(0,0,0)">G</text>
<line style="fill:none;stroke-width:1" stroke="rgb(0,0,0)" x1="280" y1="572" x2="287" y2="523"/> <circle style="stroke-width:1" cx="280" cy="572" r="12" fill="rgb(255,255,255)" stroke="rgb(0,0,0)"/> <text x="272" y="580" fill="rgb(0,0,0)" stroke="rgb(0,0,0)">U</text>
<line style="fill:none;stroke-width:1" stroke="rgb(0,0,0)" x1="287" y1="523" x2="300" y2="474"/> <circle style="stroke-width:1" cx="287" cy="523" r="12" fill="rgb(255,255,255)" stroke="rgb(0,0,0)"/> <text x="279" y="531" fill="rgb(0,0,0)" stroke="rgb(0,0,0)">C</text>
<line style="fill:none;stroke-width:1" stroke="rgb(0,0,0)" x1="300" y1="474" x2="270" y2="465"/> <circle style="stroke-width:1" cx="300" cy="474" r="12" fill="rgb(255,255,255)" stroke="rgb(0,0,0)"/> <text x="292" y="482" fill="rgb(0,0,0)" stroke="rgb(0,0,0)">A</text>
<line style="fill:none;stroke-width:1" stroke="rgb(0,0,0)" x1="270" y1="465" x2="240" y2="456"/> <circle style="stroke-width:1" cx="270" cy="465" r="12" fill="rgb(255,255,255)" stroke="rgb(0,0,0)"/> <text x="262" y="473" fill="rgb(0,0,0)" stroke="rgb(0,0,0)">G</text>
<line style="fill:none;stroke-width:1" stroke="rgb(0,0,0)" x1="240" y1="456" x2="171" y2="471"/> <circle style="stroke-width:1" cx="240" cy="456" r="12" fill="rgb(255,255,255)" stroke="rgb(0,0,0)"/> <text x="232" y="464" fill="rgb(0,0,0)" stroke="rgb(0,0,0)">C</text>
<line style="fill:none;stroke-width:1" stroke="rgb(0,0,0)" x1="171" y1="471" x2="121" y2="420"/> <line style="fill:none;stroke-width:1" stroke="rgb(0,0,0)" x1="171" y1="471" x2="139" y2="578"/> <rect x="124" y="566" width="30" height="24" fill="rgb(255,255,255)" stroke="rgb(255,255,255)"/> <text x="124" y="586" fill="rgb(0,0,0)" stroke="rgb(0,0,0)">20</text> <circle style="stroke-width:1" cx="171" cy="471" r="12" fill="rgb(255,255,255)" stroke="rgb(0,0,0)"/> <text x="163" y="479" fill="rgb(0,0,0)" stroke="rgb(0,0,0)">C</text>
<line style="fill:none;stroke-width:1" stroke="rgb(0,0,0)" x1="121" y1="420" x2="91" y2="412"/> <circle style="stroke-width:1" cx="121" cy="420" r="12" fill="rgb(255,255,255)" stroke="rgb(0,0,0)"/> <text x="113" y="428" fill="rgb(0,0,0)" stroke="rgb(0,0,0)">G</text>
<line style="fill:none;stroke-width:1" stroke="rgb(0,0,0)" x1="91" y1="412" x2="49" y2="404"/> <circle style="stroke-width:1" cx="91" cy="412" r="12" fill="rgb(255,255,255)" stroke="rgb(0,0,0)"/> <text x="83" y="420" fill="rgb(0,0,0)" stroke="rgb(0,0,0)">C</text>
<line style="fill:none;stroke-width:1" stroke="rgb(0,0,0)" x1="49" y1="404" x2="36" y2="368"/> <circle style="stroke-width:1" cx="49" cy="404" r="12" fill="rgb(255,255,255)" stroke="rgb(0,0,0)"/> <text x="41" y="412" fill="rgb(0,0,0)" stroke="rgb(0,0,0)">A</text>
<line style="fill:none;stroke-width:1" stroke="rgb(0,0,0)" x1="36" y1="368" x2="66" y2="344"/> <circle style="stroke-width:1" cx="36" cy="368" r="12" fill="rgb(255,255,255)" stroke="rgb(0,0,0)"/> <text x="28" y="376" fill="rgb(0,0,0)" stroke="rgb(0,0,0)">U</text>
<line style="fill:none;stroke-width:1" stroke="rgb(0,0,0)" x1="66" y1="344" x2="106" y2="359"/> <circle style="stroke-width:1" cx="66" cy="344" r="12" fill="rgb(255,255,255)" stroke="rgb(0,0,0)"/> <text x="58" y="352" fill="rgb(0,0,0)" stroke="rgb(0,0,0)">U</text>
<line style="fill:none;stroke-width:1" stroke="rgb(0,0,0)" x1="106" y1="359" x2="136" y2="367"/> <circle style="stroke-width:1" cx="106" cy="359" r="12" fill="rgb(255,255,255)" stroke="rgb(0,0,0)"/> <text x="98" y="367" fill="rgb(0,0,0)" stroke="rgb(0,0,0)">G</text>
<line style="fill:none;stroke-width:1" stroke="rgb(0,0,0)" x1="136" y1="367" x2="175" y2="350"/> <circle style="stroke-width:1" cx="136" cy="367" r="12" fill="rgb(255,255,255)" stroke="rgb(0,0,0)"/> <text x="128" y="375" fill="rgb(0,0,0)" stroke="rgb(0,0,0)">C</text>
<line style="fill:none;stroke-width:1" stroke="rgb(0,0,0)" x1="175" y1="350" x2="236" y2="368"/> <circle style="stroke-width:1" cx="175" cy="350" r="12" fill="rgb(255,255,255)" stroke="rgb(0,0,0)"/> <text x="167" y="358" fill="rgb(0,0,0)" stroke="rgb(0,0,0)">C</text>
<line style="fill:none;stroke-width:1" stroke="rgb(0,0,0)" x1="236" y1="368" x2="257" y2="404"/> <circle style="stroke-width:1" cx="236" cy="368" r="12" fill="rgb(255,255,255)" stroke="rgb(0,0,0)"/> <text x="228" y="376" fill="rgb(0,0,0)" stroke="rgb(0,0,0)">C</text>
<line style="fill:none;stroke-width:1" stroke="rgb(0,0,0)" x1="257" y1="404" x2="287" y2="413"/> <line style="fill:none;stroke-width:1" stroke="rgb(0,0,0)" x1="257" y1="404" x2="291" y2="298"/> <rect x="276" y="286" width="30" height="24" fill="rgb(255,255,255)" stroke="rgb(255,255,255)"/> <text x="276" y="306" fill="rgb(0,0,0)" stroke="rgb(0,0,0)">30</text> <circle style="stroke-width:1" cx="257" cy="404" r="12" fill="rgb(255,255,255)" stroke="rgb(0,0,0)"/> <text x="249" y="412" fill="rgb(0,0,0)" stroke="rgb(0,0,0)">G</text>
<line style="fill:none;stroke-width:1" stroke="rgb(0,0,0)" x1="287" y1="413" x2="317" y2="422"/> <circle style="stroke-width:1" cx="287" cy="413" r="12" fill="rgb(255,255,255)" stroke="rgb(0,0,0)"/> <text x="279" y="421" fill="rgb(0,0,0)" stroke="rgb(0,0,0)">C</text>
<line style="fill:none;stroke-width:1" stroke="rgb(0,0,0)" x1="317" y1="422" x2="922" y2="178"/> <circle style="stroke-width:1" cx="317" cy="422" r="12" fill="rgb(255,255,255)" stroke="rgb(0,0,0)"/> <text x="309" y="430" fill="rgb(0,0,0)" stroke="rgb(0,0,0)">U</text>
<line style="fill:none;stroke-width:1" stroke="rgb(0,0,0)" x1="922" y1="178" x2="1190" y2="439"/> <circle style="stroke-width:1" cx="922" cy="178" r="12" fill="rgb(255,255,255)" stroke="rgb(0,0,0)"/> <text x="914" y="186" fill="rgb(0,0,0)" stroke="rgb(0,0,0)">C</text>
<line style="fill:none;stroke-width:1" stroke="rgb(0,0,0)" x1="1190" y1="439" x2="1219" y2="427"/> <circle style="stroke-width:1" cx="1190" cy="439" r="12" fill="rgb(255,255,255)" stroke="rgb(0,0,0)"/> <text x="1182" y="447" fill="rgb(0,0,0)" stroke="rgb(0,0,0)">G</text>
<line style="fill:none;stroke-width:1" stroke="rgb(0,0,0)" x1="1219" y1="427" x2="1248" y2="415"/> <circle style="stroke-width:1" cx="1219" cy="427" r="12" fill="rgb(255,255,255)" stroke="rgb(0,0,0)"/> <text x="1211" y="435" fill="rgb(0,0,0)" stroke="rgb(0,0,0)">G</text>
<line style="fill:none;stroke-width:1" stroke="rgb(0,0,0)" x1="1248" y1="415" x2="1277" y2="403"/> <circle style="stroke-width:1" cx="1248" cy="415" r="12" fill="rgb(255,255,255)" stroke="rgb(0,0,0)"/> <text x="1240" y="423" fill="rgb(0,0,0)" stroke="rgb(0,0,0)">C</text>
<line style="fill:none;stroke-width:1" stroke="rgb(0,0,0)" x1="1277" y1="403" x2="1295" y2="366"/> <circle style="stroke-width:1" cx="1277" cy="403" r="12" fill="rgb(255,255,255)" stroke="rgb(0,0,0)"/> <text x="1269" y="411" fill="rgb(0,0,0)" stroke="rgb(0,0,0)">G</text>
<line style="fill:none;stroke-width:1" stroke="rgb(0,0,0)" x1="1295" y1="366" x2="1354" y2="342"/> <circle style="stroke-width:1" cx="1295" cy="366" r="12" fill="rgb(255,255,255)" stroke="rgb(0,0,0)"/> <text x="1287" y="374" fill="rgb(0,0,0)" stroke="rgb(0,0,0)">U</text>
<line style="fill:none;stroke-width:1" stroke="rgb(0,0,0)" x1="1354" y1="342" x2="1394" y2="355"/> <circle style="stroke-width:1" cx="1354" cy="342" r="12" fill="rgb(255,255,255)" stroke="rgb(0,0,0)"/> <text x="1346" y="350" fill="rgb(0,0,0)" stroke="rgb(0,0,0)">C</text>
<line style="fill:none;stroke-width:1" stroke="rgb(0,0,0)" x1="1394" y1="355" x2="1423" y2="343"/> <line style="fill:none;stroke-width:1" stroke="rgb(0,0,0)" x1="1394" y1="355" x2="1352" y2="252"/> <rect x="1337" y="240" width="30" height="24" fill="rgb(255,255,255)" stroke="rgb(255,255,255)"/> <text x="1337" y="260" fill="rgb(0,0,0)" stroke="rgb(0,0,0)">40</text> <circle style="stroke-width:1" cx="1394" cy="355" r="12" fill="rgb(255,255,255)" stroke="rgb(0,0,0)"/> <text x="1386" y="363" fill="rgb(0,0,0)" stroke="rgb(0,0,0)">C</text>
<line style="fill:none;stroke-width:1" stroke="rgb(0,0,0)" x1="1423" y1="343" x2="1452" y2="331"/> <circle style="stroke-width:1" cx="1423" cy="343" r="12" fill="rgb(255,255,255)" stroke="rgb(0,0,0)"/> <text x="1415" y="351" fill="rgb(0,0,0)" stroke="rgb(0,0,0)">G</text>
<line style="fill:none;stroke-width:1" stroke="rgb(0,0,0)" x1="1452" y1="331" x2="1540" y2="293"/> <circle style="stroke-width:1" cx="1452" cy="331" r="12" fill="rgb(255,255,255)" stroke="rgb(0,0,0)"/> <text x="1444" y="339" fill="rgb(0,0,0)" stroke="rgb(0,0,0)">G</text>
<line style="fill:none;stroke-width:1" stroke="rgb(0,0,0)" x1="1540" y1="293" x2="1549" y2="258"/> <circle style="stroke-width:1" cx="1540" cy="293" r="12" fill="rgb(255,255,255)" stroke="rgb(0,0,0)"/> <text x="1532" y="301" fill="rgb(0,0,0)" stroke="rgb(0,0,0)">C</text>
<line style="fill:none;stroke-width:1" stroke="rgb(0,0,0)" x1="1549" y1="258" x2="1590" y2="214"/> <circle style="stroke-width:1" cx="1549" cy="258" r="12" fill="rgb(255,255,255)" stroke="rgb(0,0,0)"/> <text x="1541" y="266" fill="rgb(0,0,0)" stroke="rgb(0,0,0)">C</text>
<line style="fill:none;stroke-width:1" stroke="rgb(0,0,0)" x1="1590" y1="214" x2="1650" y2="211"/> <circle style="stroke-width:1" cx="1590" cy="214" r="12" fill="rgb(255,255,255)" stroke="rgb(0,0,0)"/> <text x="1582" y="222" fill="rgb(0,0,0)" stroke="rgb(0,0,0)">C</text>
<line style="fill:none;stroke-width:1" stroke="rgb(0,0,0)" x1="1650" y1="211" x2="1683" y2="227"/> <circle style="stroke-width:1" cx="1650" cy="211" r="12" fill="rgb(255,255,255)" stroke="rgb(0,0,0)"/> <text x="1642" y="219" fill="rgb(0,0,0)" stroke="rgb(0,0,0)">C</text>
<line style="fill:none;stroke-width:1" stroke="rgb(0,0,0)" x1="1683" y1="227" x2="1711" y2="214"/> <circle style="stroke-width:1" cx="1683" cy="227" r="12" fill="rgb(255,255,255)" stroke="rgb(0,0,0)"/> <text x="1675" y="235" fill="rgb(0,0,0)" stroke="rgb(0,0,0)">C</text>
<line style="fill:none;stroke-width:1" stroke="rgb(0,0,0)" x1="1711" y1="214" x2="1797" y2="173"/> <circle style="stroke-width:1" cx="1711" cy="214" r="12" fill="rgb(255,255,255)" stroke="rgb(0,0,0)"/> <text x="1703" y="222" fill="rgb(0,0,0)" stroke="rgb(0,0,0)">G</text>
<line style="fill:none;stroke-width:1" stroke="rgb(0,0,0)" x1="1797" y1="173" x2="1825" y2="159"/> <circle style="stroke-width:1" cx="1797" cy="173" r="12" fill="rgb(255,255,255)" stroke="rgb(0,0,0)"/> <text x="1789" y="181" fill="rgb(0,0,0)" stroke="rgb(0,0,0)">A</text>
<line style="fill:none;stroke-width:1" stroke="rgb(0,0,0)" x1="1825" y1="159" x2="1837" y2="124"/> <line style="fill:none;stroke-width:1" stroke="rgb(0,0,0)" x1="1825" y1="159" x2="1775" y2="60"/> <rect x="1760" y="48" width="30" height="24" fill="rgb(255,255,255)" stroke="rgb(255,255,255)"/> <text x="1760" y="68" fill="rgb(0,0,0)" stroke="rgb(0,0,0)">50</text> <circle style="stroke-width:1" cx="1825" cy="159" r="12" fill="rgb(255,255,255)" stroke="rgb(0,0,0)"/> <text x="1817" y="167" fill="rgb(0,0,0)" stroke="rgb(0,0,0)">C</text>
<line style="fill:none;stroke-width:1" stroke="rgb(0,0,0)" x1="1837" y1="124" x2="1866" y2="95"/> <circle style="stroke-width:1" cx="1837" cy="124" r="12" fill="rgb(255,255,255)" stroke="rgb(0,0,0)"/> <text x="1829" y="132" fill="rgb(0,0,0)" stroke="rgb(0,0,0)">C</text>
<line style="fill:none;stroke-width:1" stroke="rgb(0,0,0)" x1="1866" y1="95" x2="1906" y2="89"/> <circle style="stroke-width:1" cx="1866" cy="95" r="12" fill="rgb(255,255,255)" stroke="rgb(0,0,0)"/> <text x="1858" y="103" fill="rgb(0,0,0)" stroke="rgb(0,0,0)">C</text>
<line style="fill:none;stroke-width:1" stroke="rgb(0,0,0)" x1="1906" y1="89" x2="1943" y2="108"/> <circle style="stroke-width:1" cx="1906" cy="89" r="12" fill="rgb(255,255,255)" stroke="rgb(0,0,0)"/> <text x="1898" y="97" fill="rgb(0,0,0)" stroke="rgb(0,0,0)">G</text>
<line style="fill:none;stroke-width:1" stroke="rgb(0,0,0)" x1="1943" y1="108" x2="1961" y2="144"/> <circle style="stroke-width:1" cx="1943" cy="108" r="12" fill="rgb(255,255,255)" stroke="rgb(0,0,0)"/> <text x="1935" y="116" fill="rgb(0,0,0)" stroke="rgb(0,0,0)">C</text>
<line style="fill:none;stroke-width:1" stroke="rgb(0,0,0)" x1="1961" y1="144" x2="1955" y2="184"/> <circle style="stroke-width:1" cx="1961" cy="144" r="12" fill="rgb(255,255,255)" stroke="rgb(0,0,0)"/> <text x="1953" y="152" fill="rgb(0,0,0)" stroke="rgb(0,0,0)">G</text>
<line style="fill:none;stroke-width:1" stroke="rgb(0,0,0)" x1="1955" y1="184" x2="1926" y2="213"/> <circle style="stroke-width:1" cx="1955" cy="184" r="12" fill="rgb(255,255,255)" stroke="rgb(0,0,0)"/> <text x="1947" y="192" fill="rgb(0,0,0)" stroke="rgb(0,0,0)">C</text>
<line style="fill:none;stroke-width:1" stroke="rgb(0,0,0)" x1="1926" y1="213" x2="1886" y2="219"/> <circle style="stroke-width:1" cx="1926" cy="213" r="12" fill="rgb(255,255,255)" stroke="rgb(0,0,0)"/> <text x="1918" y="221" fill="rgb(0,0,0)" stroke="rgb(0,0,0)">U</text>
<line style="fill:none;stroke-width:1" stroke="rgb(0,0,0)" x1="1886" y1="219" x2="1850" y2="208"/> <circle style="stroke-width:1" cx="1886" cy="219" r="12" fill="rgb(255,255,255)" stroke="rgb(0,0,0)"/> <text x="1878" y="227" fill="rgb(0,0,0)" stroke="rgb(0,0,0)">C</text>
<line style="fill:none;stroke-width:1" stroke="rgb(0,0,0)" x1="1850" y1="208" x2="1822" y2="222"/> <circle style="stroke-width:1" cx="1850" cy="208" r="12" fill="rgb(255,255,255)" stroke="rgb(0,0,0)"/> <text x="1842" y="216" fill="rgb(0,0,0)" stroke="rgb(0,0,0)">G</text>
<line style="fill:none;stroke-width:1" stroke="rgb(0,0,0)" x1="1822" y1="222" x2="1787" y2="263"/> <line style="fill:none;stroke-width:1" stroke="rgb(0,0,0)" x1="1822" y1="222" x2="1872" y2="321"/> <rect x="1857" y="309" width="30" height="24" fill="rgb(255,255,255)" stroke="rgb(255,255,255)"/> <text x="1857" y="329" fill="rgb(0,0,0)" stroke="rgb(0,0,0)">60</text> <circle style="stroke-width:1" cx="1822" cy="222" r="12" fill="rgb(255,255,255)" stroke="rgb(0,0,0)"/> <text x="1814" y="230" fill="rgb(0,0,0)" stroke="rgb(0,0,0)">U</text>
<line style="fill:none;stroke-width:1" stroke="rgb(0,0,0)" x1="1787" y1="263" x2="1734" y2="264"/> <circle style="stroke-width:1" cx="1787" cy="263" r="12" fill="rgb(255,255,255)" stroke="rgb(0,0,0)"/> <text x="1779" y="271" fill="rgb(0,0,0)" stroke="rgb(0,0,0)">C</text>
<line style="fill:none;stroke-width:1" stroke="rgb(0,0,0)" x1="1734" y1="264" x2="1706" y2="277"/> <circle style="stroke-width:1" cx="1734" cy="264" r="12" fill="rgb(255,255,255)" stroke="rgb(0,0,0)"/> <text x="1726" y="272" fill="rgb(0,0,0)" stroke="rgb(0,0,0)">C</text>
<line style="fill:none;stroke-width:1" stroke="rgb(0,0,0)" x1="1706" y1="277" x2="1697" y2="313"/> <circle style="stroke-width:1" cx="1706" cy="277" r="12" fill="rgb(255,255,255)" stroke="rgb(0,0,0)"/> <text x="1698" y="285" fill="rgb(0,0,0)" stroke="rgb(0,0,0)">G</text>
<line style="fill:none;stroke-width:1" stroke="rgb(0,0,0)" x1="1697" y1="313" x2="1656" y2="357"/> <circle style="stroke-width:1" cx="1697" cy="313" r="12" fill="rgb(255,255,255)" stroke="rgb(0,0,0)"/> <text x="1689" y="321" fill="rgb(0,0,0)" stroke="rgb(0,0,0)">C</text>
<line style="fill:none;stroke-width:1" stroke="rgb(0,0,0)" x1="1656" y1="357" x2="1596" y2="360"/> <circle style="stroke-width:1" cx="1656" cy="357" r="12" fill="rgb(255,255,255)" stroke="rgb(0,0,0)"/> <text x="1648" y="365" fill="rgb(0,0,0)" stroke="rgb(0,0,0)">C</text>
<line style="fill:none;stroke-width:1" stroke="rgb(0,0,0)" x1="1596" y1="360" x2="1563" y2="343"/> <circle style="stroke-width:1" cx="1596" cy="360" r="12" fill="rgb(255,255,255)" stroke="rgb(0,0,0)"/> <text x="1588" y="368" fill="rgb(0,0,0)" stroke="rgb(0,0,0)">C</text>
<line style="fill:none;stroke-width:1" stroke="rgb(0,0,0)" x1="1563" y1="343" x2="1526" y2="383"/> <circle style="stroke-width:1" cx="1563" cy="343" r="12" fill="rgb(255,255,255)" stroke="rgb(0,0,0)"/> <text x="1555" y="351" fill="rgb(0,0,0)" stroke="rgb(0,0,0)">G</text>
<line style="fill:none;stroke-width:1" stroke="rgb(0,0,0)" x1="1526" y1="383" x2="1473" y2="382"/> <circle style="stroke-width:1" cx="1526" cy="383" r="12" fill="rgb(255,255,255)" stroke="rgb(0,0,0)"/> <text x="1518" y="391" fill="rgb(0,0,0)" stroke="rgb(0,0,0)">C</text>
<line style="fill:none;stroke-width:1" stroke="rgb(0,0,0)" x1="1473" y1="382" x2="1444" y2="394"/> <circle style="stroke-width:1" cx="1473" cy="382" r="12" fill="rgb(255,255,255)" stroke="rgb(0,0,0)"/> <text x="1465" y="390" fill="rgb(0,0,0)" stroke="rgb(0,0,0)">C</text>
<line style="fill:none;stroke-width:1" stroke="rgb(0,0,0)" x1="1444" y1="394" x2="1415" y2="406"/> <line style="fill:none;stroke-width:1" stroke="rgb(0,0,0)" x1="1444" y1="394" x2="1486" y2="497"/> <rect x="1471" y="485" width="30" height="24" fill="rgb(255,255,255)" stroke="rgb(255,255,255)"/> <text x="1471" y="505" fill="rgb(0,0,0)" stroke="rgb(0,0,0)">70</text> <circle style="stroke-width:1" cx="1444" cy="394" r="12" fill="rgb(255,255,255)" stroke="rgb(0,0,0)"/> <text x="1436" y="402" fill="rgb(0,0,0)" stroke="rgb(0,0,0)">C</text>
<line style="fill:none;stroke-width:1" stroke="rgb(0,0,0)" x1="1415" y1="406" x2="1396" y2="443"/> <circle style="stroke-width:1" cx="1415" cy="406" r="12" fill="rgb(255,255,255)" stroke="rgb(0,0,0)"/> <text x="1407" y="414" fill="rgb(0,0,0)" stroke="rgb(0,0,0)">G</text>
<line style="fill:none;stroke-width:1" stroke="rgb(0,0,0)" x1="1396" y1="443" x2="1337" y2="468"/> <circle style="stroke-width:1" cx="1396" cy="443" r="12" fill="rgb(255,255,255)" stroke="rgb(0,0,0)"/> <text x="1388" y="451" fill="rgb(0,0,0)" stroke="rgb(0,0,0)">C</text>
<line style="fill:none;stroke-width:1" stroke="rgb(0,0,0)" x1="1337" y1="468" x2="1298" y2="454"/> <circle style="stroke-width:1" cx="1337" cy="468" r="12" fill="rgb(255,255,255)" stroke="rgb(0,0,0)"/> <text x="1329" y="476" fill="rgb(0,0,0)" stroke="rgb(0,0,0)">C</text>
<line style="fill:none;stroke-width:1" stroke="rgb(0,0,0)" x1="1298" y1="454" x2="1269" y2="466"/> <circle style="stroke-width:1" cx="1298" cy="454" r="12" fill="rgb(255,255,255)" stroke="rgb(0,0,0)"/> <text x="1290" y="462" fill="rgb(0,0,0)" stroke="rgb(0,0,0)">C</text>
<line style="fill:none;stroke-width:1" stroke="rgb(0,0,0)" x1="1269" y1="466" x2="1240" y2="478"/> <circle style="stroke-width:1" cx="1269" cy="466" r="12" fill="rgb(255,255,255)" stroke="rgb(0,0,0)"/> <text x="1261" y="474" fill="rgb(0,0,0)" stroke="rgb(0,0,0)">G</text>
<line style="fill:none;stroke-width:1" stroke="rgb(0,0,0)" x1="1240" y1="478" x2="1211" y2="490"/> <circle style="stroke-width:1" cx="1240" cy="478" r="12" fill="rgb(255,255,255)" stroke="rgb(0,0,0)"/> <text x="1232" y="486" fill="rgb(0,0,0)" stroke="rgb(0,0,0)">C</text>
<line style="fill:none;stroke-width:1" stroke="rgb(0,0,0)" x1="1211" y1="490" x2="1190" y2="803"/> <circle style="stroke-width:1" cx="1211" cy="490" r="12" fill="rgb(255,255,255)" stroke="rgb(0,0,0)"/> <text x="1203" y="498" fill="rgb(0,0,0)" stroke="rgb(0,0,0)">C</text>
<line style="fill:none;stroke-width:1" stroke="rgb(0,0,0)" x1="1190" y1="803" x2="1087" y2="957"/> <circle style="stroke-width:1" cx="1190" cy="803" r="12" fill="rgb(255,255,255)" stroke="rgb(0,0,0)"/> <text x="1182" y="811" fill="rgb(0,0,0)" stroke="rgb(0,0,0)">C</text>
<line style="fill:none;stroke-width:1" stroke="rgb(0,0,0)" x1="1087" y1="957" x2="933" y2="1060"/> <circle style="stroke-width:1" cx="1087" cy="957" r="12" fill="rgb(255,255,255)" stroke="rgb(0,0,0)"/> <text x="1079" y="965" fill="rgb(0,0,0)" stroke="rgb(0,0,0)">G</text>
<line style="fill:none;stroke-width:1" stroke="rgb(0,0,0)" x1="933" y1="1060" x2="975" y2="1163"/> <rect x="960" y="1151" width="30" height="24" fill="rgb(255,255,255)" stroke="rgb(255,255,255)"/> <text x="960" y="1171" fill="rgb(0,0,0)" stroke="rgb(0,0,0)">80</text> <circle style="stroke-width:1" cx="933" cy="1060" r="12" fill="rgb(255,255,255)" stroke="rgb(0,0,0)"/> <text x="925" y="1068" fill="rgb(0,0,0)" stroke="rgb(0,0,0)">C</text>
</g>
<g font-size="16">
<text x="36" y="892" fill="rgb(0,0,0)" stroke="rgb(0,0,0)">ENERGY = -17.1  ENST00000374429.6</text>
</g>
</svg>
