<?xml version="1.0" encoding="UTF-8" standalone="no"?>
<!DOCTYPE svg PUBLIC "-//W3C//DTD SVG 1.1//EN" "http://www.w3.org/Graphics/SVG/1.1/DTD/svg11.dtd">
<svg xmlns="http://www.w3.org/2000/svg" xmlns:xlink="http://www.w3.org/1999/xlink" xml:space="preserve" font-family="monospace" font-size="24" fill="rgb(255,255,255)" stroke="rgb(0,0,0)" viewBox="0 0 790 905">
<g transform="scale(0.564689)">
<path style="fill:none;stroke-width:3" stroke="rgb(0,0,0)" d="M411,1045 Q390,1027 369,1009"/>
<path style="fill:none;stroke-width:3" stroke="rgb(0,0,0)" d="M391,1069 Q370,1051 349,1033"/>
<path style="fill:none;stroke-width:3" stroke="rgb(0,0,0)" d="M371,1093 Q350,1075 329,1057"/>
<path style="fill:none;stroke-width:3" stroke="rgb(0,0,0)" d="M351,1117 Q330,1099 309,1081"/>
<path style="fill:none;stroke-width:3" stroke="rgb(0,0,0)" d="M290,1189 Q269,1171 248,1153"/>
<path style="fill:none;stroke-width:3" stroke="rgb(0,0,0)" d="M270,1213 Q249,1195 228,1177"/>
<path style="fill:none;stroke-width:3" stroke="rgb(0,0,0)" d="M588,827 Q609.5,844 631,861"/>
<path style="fill:none;stroke-width:3" stroke="rgb(0,0,0)" d="M607,803 Q628.5,820 650,837"/>
<path style="fill:none;stroke-width:3" stroke="rgb(0,0,0)" d="M626,779 Q647.5,796 669,813"/>
<path style="fill:none;stroke-width:3" stroke="rgb(0,0,0)" d="M645,755 Q666.5,772 688,789"/>
<path style="fill:none;stroke-width:3" stroke="rgb(0,0,0)" d="M664,731 Q685.5,748 707,765"/>
<path style="fill:none;stroke-width:3" stroke="rgb(0,0,0)" d="M722,657 Q743.5,674 765,691"/>
<path style="fill:none;stroke-width:3" stroke="rgb(0,0,0)" d="M741,633 Q762.5,650 784,667"/>
<path style="fill:none;stroke-width:3" stroke="rgb(0,0,0)" d="M760,609 Q781.5,626 803,643"/>
<path style="fill:none;stroke-width:3" stroke="rgb(0,0,0)" d="M779,585 Q800.5,602 822,619"/>
<path style="fill:none;stroke-width:3" stroke="rgb(0,0,0)" d="M837,511 Q858.5,528 880,545"/>
<path style="fill:none;stroke-width:3" stroke="rgb(0,0,0)" d="M856,487 Q877.5,504 899,521"/>
<path style="fill:none;stroke-width:3" stroke="rgb(0,0,0)" d="M875,463 Q896.5,480 918,497"/>
<path style="fill:none;stroke-width:3" stroke="rgb(0,0,0)" d="M1168,203 Q1182,226.5 1196,250"/>
<path style="fill:none;stroke-width:3" stroke="rgb(0,0,0)" d="M1195,187 Q1209,210.5 1223,234"/>
<path style="fill:none;stroke-width:3" stroke="rgb(0,0,0)" d="M1222,171 Q1236,194.5 1250,218"/>
<path style="fill:none;stroke-width:3" stroke="rgb(0,0,0)" d="M1249,155 Q1263,178.5 1277,202"/>
<path style="fill:none;stroke-width:3" stroke="rgb(0,0,0)" d="M1276,139 Q1290,162.5 1304,186"/>
<line style="fill:none;stroke-width:1" stroke="rgb(0,0,0)" x1="411" y1="1045" x2="391" y2="1069"/> <circle style="stroke-width:1" cx="411" cy="1045" r="12" fill="rgb(255,255,255)" stroke="rgb(0,0,0)"/> <text x="403" y="1053" fill="rgb(0,0,0)" stroke="rgb(0,0,0)">A</text>
<line style="fill:none;stroke-width:1" stroke="rgb(0,0,0)" x1="391" y1="1069" x2="371" y2="1093"/> <circle style="stroke-width:1" cx="391" cy="1069" r="12" fill="rgb(255,255,255)" stroke="rgb(0,0,0)"/> <text x="383" y="1077" fill="rgb(0,0,0)" stroke="rgb(0,0,0)">G</text>
<line style="fill:none;stroke-width:1" stroke="rgb(0,0,0)" x1="371" y1="1093" x2="351" y2="1117"/> <circle style="stroke-width:1" cx="371" cy="1093" r="12" fill="rgb(255,255,255)" stroke="rgb(0,0,0)"/> <text x="363" y="1101" fill="rgb(0,0,0)" stroke="rgb(0,0,0)">G</text>
<line style="fill:none;stroke-width:1" stroke="rgb(0,0,0)" x1="351" y1="1117" x2="336" y2="1165"/> <circle style="stroke-width:1" cx="351" cy="1117" r="12" fill="rgb(255,255,255)" stroke="rgb(0,0,0)"/> <text x="343" y="1125" fill="rgb(0,0,0)" stroke="rgb(0,0,0)">C</text>
<line style="fill:none;stroke-width:1" stroke="rgb(0,0,0)" x1="336" y1="1165" x2="290" y2="1189"/> <circle style="stroke-width:1" cx="336" cy="1165" r="12" fill="rgb(255,255,255)" stroke="rgb(0,0,0)"/> <text x="328" y="1173" fill="rgb(0,0,0)" stroke="rgb(0,0,0)">A</text>
<line style="fill:none;stroke-width:1" stroke="rgb(0,0,0)" x1="290" y1="1189" x2="270" y2="1213"/> <circle style="stroke-width:1" cx="290" cy="1189" r="12" fill="rgb(255,255,255)" stroke="rgb(0,0,0)"/> <text x="282" y="1197" fill="rgb(0,0,0)" stroke="rgb(0,0,0)">G</text>
<line style="fill:none;stroke-width:1" stroke="rgb(0,0,0)" x1="270" y1="1213" x2="254" y2="1250"/> <circle style="stroke-width:1" cx="270" cy="1213" r="12" fill="rgb(255,255,255)" stroke="rgb(0,0,0)"/> <text x="262" y="1221" fill="rgb(0,0,0)" stroke="rgb(0,0,0)">C</text>
<line style="fill:none;stroke-width:1" stroke="rgb(0,0,0)" x1="254" y1="1250" x2="216" y2="1264"/> <circle style="stroke-width:1" cx="254" cy="1250" r="12" fill="rgb(255,255,255)" stroke="rgb(0,0,0)"/> <text x="246" y="1258" fill="rgb(0,0,0)" stroke="rgb(0,0,0)">C</text>
<line style="fill:none;stroke-width:1" stroke="rgb(0,0,0)" x1="216" y1="1264" x2="186" y2="1238"/> <circle style="stroke-width:1" cx="216" cy="1264" r="12" fill="rgb(255,255,255)" stroke="rgb(0,0,0)"/> <text x="208" y="1272" fill="rgb(0,0,0)" stroke="rgb(0,0,0)">A</text>
<line style="fill:none;stroke-width:1" stroke="rgb(0,0,0)" x1="186" y1="1238" x2="194" y2="1199"/> <line style="fill:none;stroke-width:1" stroke="rgb(0,0,0)" x1="186" y1="1238" x2="81" y2="1275"/> <rect x="66" y="1263" width="30" height="24" fill="rgb(255,255,255)" stroke="rgb(255,255,255)"/> <text x="66" y="1283" fill="rgb(0,0,0)" stroke="rgb(0,0,0)">10</text> <circle style="stroke-width:1" cx="186" cy="1238" r="12" fill="rgb(255,255,255)" stroke="rgb(0,0,0)"/> <text x="178" y="1246" fill="rgb(0,0,0)" stroke="rgb(0,0,0)">C</text>
<line style="fill:none;stroke-width:1" stroke="rgb(0,0,0)" x1="194" y1="1199" x2="228" y2="1177"/> <circle style="stroke-width:1" cx="194" cy="1199" r="12" fill="rgb(255,255,255)" stroke="rgb(0,0,0)"/> <text x="186" y="1207" fill="rgb(0,0,0)" stroke="rgb(0,0,0)">U</text>
<line style="fill:none;stroke-width:1" stroke="rgb(0,0,0)" x1="228" y1="1177" x2="248" y2="1153"/> <circle style="stroke-width:1" cx="228" cy="1177" r="12" fill="rgb(255,255,255)" stroke="rgb(0,0,0)"/> <text x="220" y="1185" fill="rgb(0,0,0)" stroke="rgb(0,0,0)">G</text>
<line style="fill:none;stroke-width:1" stroke="rgb(0,0,0)" x1="248" y1="1153" x2="263" y2="1104"/> <circle style="stroke-width:1" cx="248" cy="1153" r="12" fill="rgb(255,255,255)" stroke="rgb(0,0,0)"/> <text x="240" y="1161" fill="rgb(0,0,0)" stroke="rgb(0,0,0)">U</text>
<line style="fill:none;stroke-width:1" stroke="rgb(0,0,0)" x1="263" y1="1104" x2="309" y2="1081"/> <circle style="stroke-width:1" cx="263" cy="1104" r="12" fill="rgb(255,255,255)" stroke="rgb(0,0,0)"/> <text x="255" y="1112" fill="rgb(0,0,0)" stroke="rgb(0,0,0)">G</text>
<line style="fill:none;stroke-width:1" stroke="rgb(0,0,0)" x1="309" y1="1081" x2="329" y2="1057"/> <circle style="stroke-width:1" cx="309" cy="1081" r="12" fill="rgb(255,255,255)" stroke="rgb(0,0,0)"/> <text x="301" y="1089" fill="rgb(0,0,0)" stroke="rgb(0,0,0)">G</text>
<line style="fill:none;stroke-width:1" stroke="rgb(0,0,0)" x1="329" y1="1057" x2="349" y2="1033"/> <circle style="stroke-width:1" cx="329" cy="1057" r="12" fill="rgb(255,255,255)" stroke="rgb(0,0,0)"/> <text x="321" y="1065" fill="rgb(0,0,0)" stroke="rgb(0,0,0)">C</text>
<line style="fill:none;stroke-width:1" stroke="rgb(0,0,0)" x1="349" y1="1033" x2="369" y2="1009"/> <circle style="stroke-width:1" cx="349" cy="1033" r="12" fill="rgb(255,255,255)" stroke="rgb(0,0,0)"/> <text x="341" y="1041" fill="rgb(0,0,0)" stroke="rgb(0,0,0)">C</text>
<line style="fill:none;stroke-width:1" stroke="rgb(0,0,0)" x1="369" y1="1009" x2="393" y2="848"/> <circle style="stroke-width:1" cx="369" cy="1009" r="12" fill="rgb(255,255,255)" stroke="rgb(0,0,0)"/> <text x="361" y="1017" fill="rgb(0,0,0)" stroke="rgb(0,0,0)">U</text>
<line style="fill:none;stroke-width:1" stroke="rgb(0,0,0)" x1="393" y1="848" x2="486" y2="798"/> <circle style="stroke-width:1" cx="393" cy="848" r="12" fill="rgb(255,255,255)" stroke="rgb(0,0,0)"/> <text x="385" y="856" fill="rgb(0,0,0)" stroke="rgb(0,0,0)">C</text>
<line style="fill:none;stroke-width:1" stroke="rgb(0,0,0)" x1="486" y1="798" x2="588" y2="827"/> <line style="fill:none;stroke-width:1" stroke="rgb(0,0,0)" x1="486" y1="798" x2="474" y2="687"/> <rect x="459" y="675" width="30" height="24" fill="rgb(255,255,255)" stroke="rgb(255,255,255)"/> <text x="459" y="695" fill="rgb(0,0,0)" stroke="rgb(0,0,0)">20</text> <circle style="stroke-width:1" cx="486" cy="798" r="12" fill="rgb(255,255,255)" stroke="rgb(0,0,0)"/> <text x="478" y="806" fill="rgb(0,0,0)" stroke="rgb(0,0,0)">U</text>
<line style="fill:none;stroke-width:1" stroke="rgb(0,0,0)" x1="588" y1="827" x2="607" y2="803"/> <circle style="stroke-width:1" cx="588" cy="827" r="12" fill="rgb(255,255,255)" stroke="rgb(0,0,0)"/> <text x="580" y="835" fill="rgb(0,0,0)" stroke="rgb(0,0,0)">G</text>
<line style="fill:none;stroke-width:1" stroke="rgb(0,0,0)" x1="607" y1="803" x2="626" y2="779"/> <circle style="stroke-width:1" cx="607" cy="803" r="12" fill="rgb(255,255,255)" stroke="rgb(0,0,0)"/> <text x="599" y="811" fill="rgb(0,0,0)" stroke="rgb(0,0,0)">C</text>
<line style="fill:none;stroke-width:1" stroke="rgb(0,0,0)" x1="626" y1="779" x2="645" y2="755"/> <circle style="stroke-width:1" cx="626" cy="779" r="12" fill="rgb(255,255,255)" stroke="rgb(0,0,0)"/> <text x="618" y="787" fill="rgb(0,0,0)" stroke="rgb(0,0,0)">G</text>
<line style="fill:none;stroke-width:1" stroke="rgb(0,0,0)" x1="645" y1="755" x2="664" y2="731"/> <circle style="stroke-width:1" cx="645" cy="755" r="12" fill="rgb(255,255,255)" stroke="rgb(0,0,0)"/> <text x="637" y="763" fill="rgb(0,0,0)" stroke="rgb(0,0,0)">G</text>
<line style="fill:none;stroke-width:1" stroke="rgb(0,0,0)" x1="664" y1="731" x2="677" y2="682"/> <circle style="stroke-width:1" cx="664" cy="731" r="12" fill="rgb(255,255,255)" stroke="rgb(0,0,0)"/> <text x="656" y="739" fill="rgb(0,0,0)" stroke="rgb(0,0,0)">C</text>
<line style="fill:none;stroke-width:1" stroke="rgb(0,0,0)" x1="677" y1="682" x2="722" y2="657"/> <circle style="stroke-width:1" cx="677" cy="682" r="12" fill="rgb(255,255,255)" stroke="rgb(0,0,0)"/> <text x="669" y="690" fill="rgb(0,0,0)" stroke="rgb(0,0,0)">U</text>
<line style="fill:none;stroke-width:1" stroke="rgb(0,0,0)" x1="722" y1="657" x2="741" y2="633"/> <circle style="stroke-width:1" cx="722" cy="657" r="12" fill="rgb(255,255,255)" stroke="rgb(0,0,0)"/> <text x="714" y="665" fill="rgb(0,0,0)" stroke="rgb(0,0,0)">A</text>
<line style="fill:none;stroke-width:1" stroke="rgb(0,0,0)" x1="741" y1="633" x2="760" y2="609"/> <circle style="stroke-width:1" cx="741" cy="633" r="12" fill="rgb(255,255,255)" stroke="rgb(0,0,0)"/> <text x="733" y="641" fill="rgb(0,0,0)" stroke="rgb(0,0,0)">G</text>
<line style="fill:none;stroke-width:1" stroke="rgb(0,0,0)" x1="760" y1="609" x2="779" y2="585"/> <circle style="stroke-width:1" cx="760" cy="609" r="12" fill="rgb(255,255,255)" stroke="rgb(0,0,0)"/> <text x="752" y="617" fill="rgb(0,0,0)" stroke="rgb(0,0,0)">G</text>
<line style="fill:none;stroke-width:1" stroke="rgb(0,0,0)" x1="779" y1="585" x2="792" y2="536"/> <line style="fill:none;stroke-width:1" stroke="rgb(0,0,0)" x1="779" y1="585" x2="692" y2="516"/> <rect x="677" y="504" width="30" height="24" fill="rgb(255,255,255)" stroke="rgb(255,255,255)"/> <text x="677" y="524" fill="rgb(0,0,0)" stroke="rgb(0,0,0)">30</text> <circle style="stroke-width:1" cx="779" cy="585" r="12" fill="rgb(255,255,255)" stroke="rgb(0,0,0)"/> <text x="771" y="593" fill="rgb(0,0,0)" stroke="rgb(0,0,0)">C</text>
<line style="fill:none;stroke-width:1" stroke="rgb(0,0,0)" x1="792" y1="536" x2="837" y2="511"/> <circle style="stroke-width:1" cx="792" cy="536" r="12" fill="rgb(255,255,255)" stroke="rgb(0,0,0)"/> <text x="784" y="544" fill="rgb(0,0,0)" stroke="rgb(0,0,0)">C</text>
<line style="fill:none;stroke-width:1" stroke="rgb(0,0,0)" x1="837" y1="511" x2="856" y2="487"/> <circle style="stroke-width:1" cx="837" cy="511" r="12" fill="rgb(255,255,255)" stroke="rgb(0,0,0)"/> <text x="829" y="519" fill="rgb(0,0,0)" stroke="rgb(0,0,0)">G</text>
<line style="fill:none;stroke-width:1" stroke="rgb(0,0,0)" x1="856" y1="487" x2="875" y2="463"/> <circle style="stroke-width:1" cx="856" cy="487" r="12" fill="rgb(255,255,255)" stroke="rgb(0,0,0)"/> <text x="848" y="495" fill="rgb(0,0,0)" stroke="rgb(0,0,0)">G</text>
<line style="fill:none;stroke-width:1" stroke="rgb(0,0,0)" x1="875" y1="463" x2="859" y2="442"/> <circle style="stroke-width:1" cx="875" cy="463" r="12" fill="rgb(255,255,255)" stroke="rgb(0,0,0)"/> <text x="867" y="471" fill="rgb(0,0,0)" stroke="rgb(0,0,0)">C</text>
<line style="fill:none;stroke-width:1" stroke="rgb(0,0,0)" x1="859" y1="442" x2="834" y2="395"/> <circle style="stroke-width:1" cx="859" cy="442" r="12" fill="rgb(255,255,255)" stroke="rgb(0,0,0)"/> <text x="851" y="450" fill="rgb(0,0,0)" stroke="rgb(0,0,0)">U</text>
<line style="fill:none;stroke-width:1" stroke="rgb(0,0,0)" x1="834" y1="395" x2="821" y2="343"/> <circle style="stroke-width:1" cx="834" cy="395" r="12" fill="rgb(255,255,255)" stroke="rgb(0,0,0)"/> <text x="826" y="403" fill="rgb(0,0,0)" stroke="rgb(0,0,0)">C</text>
<line style="fill:none;stroke-width:1" stroke="rgb(0,0,0)" x1="821" y1="343" x2="823" y2="290"/> <circle style="stroke-width:1" cx="821" cy="343" r="12" fill="rgb(255,255,255)" stroke="rgb(0,0,0)"/> <text x="813" y="351" fill="rgb(0,0,0)" stroke="rgb(0,0,0)">G</text>
<line style="fill:none;stroke-width:1" stroke="rgb(0,0,0)" x1="823" y1="290" x2="839" y2="239"/> <circle style="stroke-width:1" cx="823" cy="290" r="12" fill="rgb(255,255,255)" stroke="rgb(0,0,0)"/> <text x="815" y="298" fill="rgb(0,0,0)" stroke="rgb(0,0,0)">A</text>
<line style="fill:none;stroke-width:1" stroke="rgb(0,0,0)" x1="839" y1="239" x2="868" y2="194"/> <circle style="stroke-width:1" cx="839" cy="239" r="12" fill="rgb(255,255,255)" stroke="rgb(0,0,0)"/> <text x="831" y="247" fill="rgb(0,0,0)" stroke="rgb(0,0,0)">G</text>
<line style="fill:none;stroke-width:1" stroke="rgb(0,0,0)" x1="868" y1="194" x2="908" y2="159"/> <line style="fill:none;stroke-width:1" stroke="rgb(0,0,0)" x1="868" y1="194" x2="784" y2="122"/> <rect x="769" y="110" width="30" height="24" fill="rgb(255,255,255)" stroke="rgb(255,255,255)"/> <text x="769" y="130" fill="rgb(0,0,0)" stroke="rgb(0,0,0)">40</text> <circle style="stroke-width:1" cx="868" cy="194" r="12" fill="rgb(255,255,255)" stroke="rgb(0,0,0)"/> <text x="860" y="202" fill="rgb(0,0,0)" stroke="rgb(0,0,0)">A</text>
<line style="fill:none;stroke-width:1" stroke="rgb(0,0,0)" x1="908" y1="159" x2="956" y2="135"/> <circle style="stroke-width:1" cx="908" cy="159" r="12" fill="rgb(255,255,255)" stroke="rgb(0,0,0)"/> <text x="900" y="167" fill="rgb(0,0,0)" stroke="rgb(0,0,0)">C</text>
<line style="fill:none;stroke-width:1" stroke="rgb(0,0,0)" x1="956" y1="135" x2="1009" y2="125"/> <circle style="stroke-width:1" cx="956" cy="135" r="12" fill="rgb(255,255,255)" stroke="rgb(0,0,0)"/> <text x="948" y="143" fill="rgb(0,0,0)" stroke="rgb(0,0,0)">U</text>
<line style="fill:none;stroke-width:1" stroke="rgb(0,0,0)" x1="1009" y1="125" x2="1062" y2="129"/> <circle style="stroke-width:1" cx="1009" cy="125" r="12" fill="rgb(255,255,255)" stroke="rgb(0,0,0)"/> <text x="1001" y="133" fill="rgb(0,0,0)" stroke="rgb(0,0,0)">C</text>
<line style="fill:none;stroke-width:1" stroke="rgb(0,0,0)" x1="1062" y1="129" x2="1112" y2="148"/> <circle style="stroke-width:1" cx="1062" cy="129" r="12" fill="rgb(255,255,255)" stroke="rgb(0,0,0)"/> <text x="1054" y="137" fill="rgb(0,0,0)" stroke="rgb(0,0,0)">C</text>
<line style="fill:none;stroke-width:1" stroke="rgb(0,0,0)" x1="1112" y1="148" x2="1156" y2="179"/> <circle style="stroke-width:1" cx="1112" cy="148" r="12" fill="rgb(255,255,255)" stroke="rgb(0,0,0)"/> <text x="1104" y="156" fill="rgb(0,0,0)" stroke="rgb(0,0,0)">C</text>
<line style="fill:none;stroke-width:1" stroke="rgb(0,0,0)" x1="1156" y1="179" x2="1168" y2="203"/> <circle style="stroke-width:1" cx="1156" cy="179" r="12" fill="rgb(255,255,255)" stroke="rgb(0,0,0)"/> <text x="1148" y="187" fill="rgb(0,0,0)" stroke="rgb(0,0,0)">G</text>
<line style="fill:none;stroke-width:1" stroke="rgb(0,0,0)" x1="1168" y1="203" x2="1195" y2="187"/> <circle style="stroke-width:1" cx="1168" cy="203" r="12" fill="rgb(255,255,255)" stroke="rgb(0,0,0)"/> <text x="1160" y="211" fill="rgb(0,0,0)" stroke="rgb(0,0,0)">G</text>
<line style="fill:none;stroke-width:1" stroke="rgb(0,0,0)" x1="1195" y1="187" x2="1222" y2="171"/> <circle style="stroke-width:1" cx="1195" cy="187" r="12" fill="rgb(255,255,255)" stroke="rgb(0,0,0)"/> <text x="1187" y="195" fill="rgb(0,0,0)" stroke="rgb(0,0,0)">G</text>
<line style="fill:none;stroke-width:1" stroke="rgb(0,0,0)" x1="1222" y1="171" x2="1249" y2="155"/> <circle style="stroke-width:1" cx="1222" cy="171" r="12" fill="rgb(255,255,255)" stroke="rgb(0,0,0)"/> <text x="1214" y="179" fill="rgb(0,0,0)" stroke="rgb(0,0,0)">C</text>
<line style="fill:none;stroke-width:1" stroke="rgb(0,0,0)" x1="1249" y1="155" x2="1276" y2="139"/> <line style="fill:none;stroke-width:1" stroke="rgb(0,0,0)" x1="1249" y1="155" x2="1191" y2="60"/> <rect x="1176" y="48" width="30" height="24" fill="rgb(255,255,255)" stroke="rgb(255,255,255)"/> <text x="1176" y="68" fill="rgb(0,0,0)" stroke="rgb(0,0,0)">50</text> <circle style="stroke-width:1" cx="1249" cy="155" r="12" fill="rgb(255,255,255)" stroke="rgb(0,0,0)"/> <text x="1241" y="163" fill="rgb(0,0,0)" stroke="rgb(0,0,0)">G</text>
<line style="fill:none;stroke-width:1" stroke="rgb(0,0,0)" x1="1276" y1="139" x2="1303" y2="109"/> <circle style="stroke-width:1" cx="1276" cy="139" r="12" fill="rgb(255,255,255)" stroke="rgb(0,0,0)"/> <text x="1268" y="147" fill="rgb(0,0,0)" stroke="rgb(0,0,0)">C</text>
<line style="fill:none;stroke-width:1" stroke="rgb(0,0,0)" x1="1303" y1="109" x2="1343" y2="108"/> <circle style="stroke-width:1" cx="1303" cy="109" r="12" fill="rgb(255,255,255)" stroke="rgb(0,0,0)"/> <text x="1295" y="117" fill="rgb(0,0,0)" stroke="rgb(0,0,0)">C</text>
<line style="fill:none;stroke-width:1" stroke="rgb(0,0,0)" x1="1343" y1="108" x2="1363" y2="141"/> <circle style="stroke-width:1" cx="1343" cy="108" r="12" fill="rgb(255,255,255)" stroke="rgb(0,0,0)"/> <text x="1335" y="116" fill="rgb(0,0,0)" stroke="rgb(0,0,0)">C</text>
<line style="fill:none;stroke-width:1" stroke="rgb(0,0,0)" x1="1363" y1="141" x2="1344" y2="176"/> <circle style="stroke-width:1" cx="1363" cy="141" r="12" fill="rgb(255,255,255)" stroke="rgb(0,0,0)"/> <text x="1355" y="149" fill="rgb(0,0,0)" stroke="rgb(0,0,0)">A</text>
<line style="fill:none;stroke-width:1" stroke="rgb(0,0,0)" x1="1344" y1="176" x2="1304" y2="186"/> <circle style="stroke-width:1" cx="1344" cy="176" r="12" fill="rgb(255,255,255)" stroke="rgb(0,0,0)"/> <text x="1336" y="184" fill="rgb(0,0,0)" stroke="rgb(0,0,0)">G</text>
<line style="fill:none;stroke-width:1" stroke="rgb(0,0,0)" x1="1304" y1="186" x2="1277" y2="202"/> <circle style="stroke-width:1" cx="1304" cy="186" r="12" fill="rgb(255,255,255)" stroke="rgb(0,0,0)"/> <text x="1296" y="194" fill="rgb(0,0,0)" stroke="rgb(0,0,0)">G</text>
<line style="fill:none;stroke-width:1" stroke="rgb(0,0,0)" x1="1277" y1="202" x2="1250" y2="218"/> <circle style="stroke-width:1" cx="1277" cy="202" r="12" fill="rgb(255,255,255)" stroke="rgb(0,0,0)"/> <text x="1269" y="210" fill="rgb(0,0,0)" stroke="rgb(0,0,0)">C</text>
<line style="fill:none;stroke-width:1" stroke="rgb(0,0,0)" x1="1250" y1="218" x2="1223" y2="234"/> <circle style="stroke-width:1" cx="1250" cy="218" r="12" fill="rgb(255,255,255)" stroke="rgb(0,0,0)"/> <text x="1242" y="226" fill="rgb(0,0,0)" stroke="rgb(0,0,0)">G</text>
<line style="fill:none;stroke-width:1" stroke="rgb(0,0,0)" x1="1223" y1="234" x2="1196" y2="250"/> <circle style="stroke-width:1" cx="1223" cy="234" r="12" fill="rgb(255,255,255)" stroke="rgb(0,0,0)"/> <text x="1215" y="242" fill="rgb(0,0,0)" stroke="rgb(0,0,0)">C</text>
<line style="fill:none;stroke-width:1" stroke="rgb(0,0,0)" x1="1196" y1="250" x2="1217" y2="353"/> <line style="fill:none;stroke-width:1" stroke="rgb(0,0,0)" x1="1196" y1="250" x2="1254" y2="345"/> <rect x="1239" y="333" width="30" height="24" fill="rgb(255,255,255)" stroke="rgb(255,255,255)"/> <text x="1239" y="353" fill="rgb(0,0,0)" stroke="rgb(0,0,0)">60</text> <circle style="stroke-width:1" cx="1196" cy="250" r="12" fill="rgb(255,255,255)" stroke="rgb(0,0,0)"/> <text x="1188" y="258" fill="rgb(0,0,0)" stroke="rgb(0,0,0)">U</text>
<line style="fill:none;stroke-width:1" stroke="rgb(0,0,0)" x1="1217" y1="353" x2="1152" y2="473"/> <circle style="stroke-width:1" cx="1217" cy="353" r="12" fill="rgb(255,255,255)" stroke="rgb(0,0,0)"/> <text x="1209" y="361" fill="rgb(0,0,0)" stroke="rgb(0,0,0)">G</text>
<line style="fill:none;stroke-width:1" stroke="rgb(0,0,0)" x1="1152" y1="473" x2="1026" y2="523"/> <circle style="stroke-width:1" cx="1152" cy="473" r="12" fill="rgb(255,255,255)" stroke="rgb(0,0,0)"/> <text x="1144" y="481" fill="rgb(0,0,0)" stroke="rgb(0,0,0)">C</text>
<line style="fill:none;stroke-width:1" stroke="rgb(0,0,0)" x1="1026" y1="523" x2="918" y2="497"/> <circle style="stroke-width:1" cx="1026" cy="523" r="12" fill="rgb(255,255,255)" stroke="rgb(0,0,0)"/> <text x="1018" y="531" fill="rgb(0,0,0)" stroke="rgb(0,0,0)">C</text>
<line style="fill:none;stroke-width:1" stroke="rgb(0,0,0)" x1="918" y1="497" x2="899" y2="521"/> <circle style="stroke-width:1" cx="918" cy="497" r="12" fill="rgb(255,255,255)" stroke="rgb(0,0,0)"/> <text x="910" y="505" fill="rgb(0,0,0)" stroke="rgb(0,0,0)">G</text>
<line style="fill:none;stroke-width:1" stroke="rgb(0,0,0)" x1="899" y1="521" x2="880" y2="545"/> <circle style="stroke-width:1" cx="899" cy="521" r="12" fill="rgb(255,255,255)" stroke="rgb(0,0,0)"/> <text x="891" y="529" fill="rgb(0,0,0)" stroke="rgb(0,0,0)">C</text>
<line style="fill:none;stroke-width:1" stroke="rgb(0,0,0)" x1="880" y1="545" x2="867" y2="595"/> <circle style="stroke-width:1" cx="880" cy="545" r="12" fill="rgb(255,255,255)" stroke="rgb(0,0,0)"/> <text x="872" y="553" fill="rgb(0,0,0)" stroke="rgb(0,0,0)">C</text>
<line style="fill:none;stroke-width:1" stroke="rgb(0,0,0)" x1="867" y1="595" x2="822" y2="619"/> <circle style="stroke-width:1" cx="867" cy="595" r="12" fill="rgb(255,255,255)" stroke="rgb(0,0,0)"/> <text x="859" y="603" fill="rgb(0,0,0)" stroke="rgb(0,0,0)">C</text>
<line style="fill:none;stroke-width:1" stroke="rgb(0,0,0)" x1="822" y1="619" x2="803" y2="643"/> <circle style="stroke-width:1" cx="822" cy="619" r="12" fill="rgb(255,255,255)" stroke="rgb(0,0,0)"/> <text x="814" y="627" fill="rgb(0,0,0)" stroke="rgb(0,0,0)">G</text>
<line style="fill:none;stroke-width:1" stroke="rgb(0,0,0)" x1="803" y1="643" x2="784" y2="667"/> <circle style="stroke-width:1" cx="803" cy="643" r="12" fill="rgb(255,255,255)" stroke="rgb(0,0,0)"/> <text x="795" y="651" fill="rgb(0,0,0)" stroke="rgb(0,0,0)">C</text>
<line style="fill:none;stroke-width:1" stroke="rgb(0,0,0)" x1="784" y1="667" x2="765" y2="691"/> <line style="fill:none;stroke-width:1" stroke="rgb(0,0,0)" x1="784" y1="667" x2="871" y2="736"/> <rect x="856" y="724" width="30" height="24" fill="rgb(255,255,255)" stroke="rgb(255,255,255)"/> <text x="856" y="744" fill="rgb(0,0,0)" stroke="rgb(0,0,0)">70</text> <circle style="stroke-width:1" cx="784" cy="667" r="12" fill="rgb(255,255,255)" stroke="rgb(0,0,0)"/> <text x="776" y="675" fill="rgb(0,0,0)" stroke="rgb(0,0,0)">C</text>
<line style="fill:none;stroke-width:1" stroke="rgb(0,0,0)" x1="765" y1="691" x2="752" y2="741"/> <circle style="stroke-width:1" cx="765" cy="691" r="12" fill="rgb(255,255,255)" stroke="rgb(0,0,0)"/> <text x="757" y="699" fill="rgb(0,0,0)" stroke="rgb(0,0,0)">U</text>
<line style="fill:none;stroke-width:1" stroke="rgb(0,0,0)" x1="752" y1="741" x2="707" y2="765"/> <circle style="stroke-width:1" cx="752" cy="741" r="12" fill="rgb(255,255,255)" stroke="rgb(0,0,0)"/> <text x="744" y="749" fill="rgb(0,0,0)" stroke="rgb(0,0,0)">C</text>
<line style="fill:none;stroke-width:1" stroke="rgb(0,0,0)" x1="707" y1="765" x2="688" y2="789"/> <circle style="stroke-width:1" cx="707" cy="765" r="12" fill="rgb(255,255,255)" stroke="rgb(0,0,0)"/> <text x="699" y="773" fill="rgb(0,0,0)" stroke="rgb(0,0,0)">G</text>
<line style="fill:none;stroke-width:1" stroke="rgb(0,0,0)" x1="688" y1="789" x2="669" y2="813"/> <circle style="stroke-width:1" cx="688" cy="789" r="12" fill="rgb(255,255,255)" stroke="rgb(0,0,0)"/> <text x="680" y="797" fill="rgb(0,0,0)" stroke="rgb(0,0,0)">C</text>
<line style="fill:none;stroke-width:1" stroke="rgb(0,0,0)" x1="669" y1="813" x2="650" y2="837"/> <circle style="stroke-width:1" cx="669" cy="813" r="12" fill="rgb(255,255,255)" stroke="rgb(0,0,0)"/> <text x="661" y="821" fill="rgb(0,0,0)" stroke="rgb(0,0,0)">C</text>
<line style="fill:none;stroke-width:1" stroke="rgb(0,0,0)" x1="650" y1="837" x2="631" y2="861"/> <circle style="stroke-width:1" cx="650" cy="837" r="12" fill="rgb(255,255,255)" stroke="rgb(0,0,0)"/> <text x="642" y="845" fill="rgb(0,0,0)" stroke="rgb(0,0,0)">G</text>
<line style="fill:none;stroke-width:1" stroke="rgb(0,0,0)" x1="631" y1="861" x2="641" y2="950"/> <circle style="stroke-width:1" cx="631" cy="861" r="12" fill="rgb(255,255,255)" stroke="rgb(0,0,0)"/> <text x="623" y="869" fill="rgb(0,0,0)" stroke="rgb(0,0,0)">C</text>
<line style="fill:none;stroke-width:1" stroke="rgb(0,0,0)" x1="641" y1="950" x2="619" y2="1015"/> <circle style="stroke-width:1" cx="641" cy="950" r="12" fill="rgb(255,255,255)" stroke="rgb(0,0,0)"/> <text x="633" y="958" fill="rgb(0,0,0)" stroke="rgb(0,0,0)">C</text>
<line style="fill:none;stroke-width:1" stroke="rgb(0,0,0)" x1="619" y1="1015" x2="568" y2="1062"/> <circle style="stroke-width:1" cx="619" cy="1015" r="12" fill="rgb(255,255,255)" stroke="rgb(0,0,0)"/> <text x="611" y="1023" fill="rgb(0,0,0)" stroke="rgb(0,0,0)">C</text>
<line style="fill:none;stroke-width:1" stroke="rgb(0,0,0)" x1="568" y1="1062" x2="621" y2="1160"/> <rect x="606" y="1148" width="30" height="24" fill="rgb(255,255,255)" stroke="rgb(255,255,255)"/> <text x="606" y="1168" fill="rgb(0,0,0)" stroke="rgb(0,0,0)">80</text> <circle style="stroke-width:1" cx="568" cy="1062" r="12" fill="rgb(255,255,255)" stroke="rgb(0,0,0)"/> <text x="560" y="1070" fill="rgb(0,0,0)" stroke="rgb(0,0,0)">C</text>
</g>
<g font-size="16">
<text x="36" y="892" fill="rgb(0,0,0)" stroke="rgb(0,0,0)">ENERGY = -34.3  ENST00000865845.1</text>
</g>
</svg>
